<?xml version="1.0" encoding="utf-8"?>
<svg xmlns="http://www.w3.org/2000/svg" xmlns:xlink="http://www.w3.org/1999/xlink" width="1200" height="1200" viewBox="0 0 4800 4800">
<defs>
  <clipPath id="clip9700">
    <rect x="0" y="0" width="4800" height="4800"/>
  </clipPath>
</defs>
<path clip-path="url(#clip9700)" d="
M0 4800 L4800 4800 L4800 0 L0 0  Z
  " fill="#ffffff" fill-rule="evenodd" fill-opacity="1"/>
<defs>
  <clipPath id="clip9701">
    <rect x="960" y="480" width="3361" height="3361"/>
  </clipPath>
</defs>
<path clip-path="url(#clip9700)" d="
M221.95 2179.89 L2352.76 2179.89 L2352.76 151.017 L221.95 151.017  Z
  " fill="#ffffff" fill-rule="evenodd" fill-opacity="1"/>
<defs>
  <clipPath id="clip9702">
    <rect x="221" y="151" width="2132" height="2030"/>
  </clipPath>
</defs>
<polyline clip-path="url(#clip9702)" style="stroke:#000000; stroke-width:2; stroke-opacity:0.1; fill:none" points="
  282.256,2179.89 282.256,151.017 
  "/>
<polyline clip-path="url(#clip9702)" style="stroke:#000000; stroke-width:2; stroke-opacity:0.1; fill:none" points="
  784.804,2179.89 784.804,151.017 
  "/>
<polyline clip-path="url(#clip9702)" style="stroke:#000000; stroke-width:2; stroke-opacity:0.1; fill:none" points="
  1287.35,2179.89 1287.35,151.017 
  "/>
<polyline clip-path="url(#clip9702)" style="stroke:#000000; stroke-width:2; stroke-opacity:0.1; fill:none" points="
  1789.9,2179.89 1789.9,151.017 
  "/>
<polyline clip-path="url(#clip9702)" style="stroke:#000000; stroke-width:2; stroke-opacity:0.1; fill:none" points="
  2292.45,2179.89 2292.45,151.017 
  "/>
<polyline clip-path="url(#clip9702)" style="stroke:#000000; stroke-width:2; stroke-opacity:0.1; fill:none" points="
  221.95,2179.89 2352.76,2179.89 
  "/>
<polyline clip-path="url(#clip9702)" style="stroke:#000000; stroke-width:2; stroke-opacity:0.1; fill:none" points="
  221.95,1729.03 2352.76,1729.03 
  "/>
<polyline clip-path="url(#clip9702)" style="stroke:#000000; stroke-width:2; stroke-opacity:0.1; fill:none" points="
  221.95,1278.17 2352.76,1278.17 
  "/>
<polyline clip-path="url(#clip9702)" style="stroke:#000000; stroke-width:2; stroke-opacity:0.1; fill:none" points="
  221.95,827.309 2352.76,827.309 
  "/>
<polyline clip-path="url(#clip9702)" style="stroke:#000000; stroke-width:2; stroke-opacity:0.1; fill:none" points="
  221.95,376.447 2352.76,376.447 
  "/>
<polyline clip-path="url(#clip9700)" style="stroke:#000000; stroke-width:4; stroke-opacity:1; fill:none" points="
  221.95,2179.89 2352.76,2179.89 
  "/>
<polyline clip-path="url(#clip9700)" style="stroke:#000000; stroke-width:4; stroke-opacity:1; fill:none" points="
  221.95,2179.89 221.95,151.017 
  "/>
<polyline clip-path="url(#clip9700)" style="stroke:#000000; stroke-width:4; stroke-opacity:1; fill:none" points="
  282.256,2179.89 282.256,2155.55 
  "/>
<polyline clip-path="url(#clip9700)" style="stroke:#000000; stroke-width:4; stroke-opacity:1; fill:none" points="
  784.804,2179.89 784.804,2155.55 
  "/>
<polyline clip-path="url(#clip9700)" style="stroke:#000000; stroke-width:4; stroke-opacity:1; fill:none" points="
  1287.35,2179.89 1287.35,2155.55 
  "/>
<polyline clip-path="url(#clip9700)" style="stroke:#000000; stroke-width:4; stroke-opacity:1; fill:none" points="
  1789.9,2179.89 1789.9,2155.55 
  "/>
<polyline clip-path="url(#clip9700)" style="stroke:#000000; stroke-width:4; stroke-opacity:1; fill:none" points="
  2292.45,2179.89 2292.45,2155.55 
  "/>
<polyline clip-path="url(#clip9700)" style="stroke:#000000; stroke-width:4; stroke-opacity:1; fill:none" points="
  221.95,2179.89 247.52,2179.89 
  "/>
<polyline clip-path="url(#clip9700)" style="stroke:#000000; stroke-width:4; stroke-opacity:1; fill:none" points="
  221.95,1729.03 247.52,1729.03 
  "/>
<polyline clip-path="url(#clip9700)" style="stroke:#000000; stroke-width:4; stroke-opacity:1; fill:none" points="
  221.95,1278.17 247.52,1278.17 
  "/>
<polyline clip-path="url(#clip9700)" style="stroke:#000000; stroke-width:4; stroke-opacity:1; fill:none" points="
  221.95,827.309 247.52,827.309 
  "/>
<polyline clip-path="url(#clip9700)" style="stroke:#000000; stroke-width:4; stroke-opacity:1; fill:none" points="
  221.95,376.447 247.52,376.447 
  "/>
<g clip-path="url(#clip9700)">
<text style="fill:#000000; fill-opacity:1; font-family:Arial,Helvetica Neue,Helvetica,sans-serif; font-size:71px; text-anchor:middle;" transform="rotate(0, 282.256, 2266.29)" x="282.256" y="2266.29">0</text>
</g>
<g clip-path="url(#clip9700)">
<text style="fill:#000000; fill-opacity:1; font-family:Arial,Helvetica Neue,Helvetica,sans-serif; font-size:71px; text-anchor:middle;" transform="rotate(0, 784.804, 2266.29)" x="784.804" y="2266.29">2</text>
</g>
<g clip-path="url(#clip9700)">
<text style="fill:#000000; fill-opacity:1; font-family:Arial,Helvetica Neue,Helvetica,sans-serif; font-size:71px; text-anchor:middle;" transform="rotate(0, 1287.35, 2266.29)" x="1287.35" y="2266.29">4</text>
</g>
<g clip-path="url(#clip9700)">
<text style="fill:#000000; fill-opacity:1; font-family:Arial,Helvetica Neue,Helvetica,sans-serif; font-size:71px; text-anchor:middle;" transform="rotate(0, 1789.9, 2266.29)" x="1789.9" y="2266.29">6</text>
</g>
<g clip-path="url(#clip9700)">
<text style="fill:#000000; fill-opacity:1; font-family:Arial,Helvetica Neue,Helvetica,sans-serif; font-size:71px; text-anchor:middle;" transform="rotate(0, 2292.45, 2266.29)" x="2292.45" y="2266.29">8</text>
</g>
<g clip-path="url(#clip9700)">
<text style="fill:#000000; fill-opacity:1; font-family:Arial,Helvetica Neue,Helvetica,sans-serif; font-size:71px; text-anchor:end;" transform="rotate(0, 173.95, 2205.89)" x="173.95" y="2205.89">0</text>
</g>
<g clip-path="url(#clip9700)">
<text style="fill:#000000; fill-opacity:1; font-family:Arial,Helvetica Neue,Helvetica,sans-serif; font-size:71px; text-anchor:end;" transform="rotate(0, 173.95, 1755.03)" x="173.95" y="1755.03">1</text>
</g>
<g clip-path="url(#clip9700)">
<text style="fill:#000000; fill-opacity:1; font-family:Arial,Helvetica Neue,Helvetica,sans-serif; font-size:71px; text-anchor:end;" transform="rotate(0, 173.95, 1304.17)" x="173.95" y="1304.17">2</text>
</g>
<g clip-path="url(#clip9700)">
<text style="fill:#000000; fill-opacity:1; font-family:Arial,Helvetica Neue,Helvetica,sans-serif; font-size:71px; text-anchor:end;" transform="rotate(0, 173.95, 853.309)" x="173.95" y="853.309">3</text>
</g>
<g clip-path="url(#clip9700)">
<text style="fill:#000000; fill-opacity:1; font-family:Arial,Helvetica Neue,Helvetica,sans-serif; font-size:71px; text-anchor:end;" transform="rotate(0, 173.95, 402.447)" x="173.95" y="402.447">4</text>
</g>
<g clip-path="url(#clip9700)">
<text style="fill:#000000; fill-opacity:1; font-family:Arial,Helvetica Neue,Helvetica,sans-serif; font-size:125px; text-anchor:middle;" transform="rotate(0, 1287.35, 109.2)" x="1287.35" y="109.2">Normal hypothyroid patient 30 mcg (n = 6)</text>
</g>
<g clip-path="url(#clip9700)">
<text style="fill:#000000; fill-opacity:1; font-family:Arial,Helvetica Neue,Helvetica,sans-serif; font-size:95px; text-anchor:middle;" transform="rotate(0, 1287.35, 2390.14)" x="1287.35" y="2390.14">Time (hours)</text>
</g>
<g clip-path="url(#clip9700)">
<text style="fill:#000000; fill-opacity:1; font-family:Arial,Helvetica Neue,Helvetica,sans-serif; font-size:95px; text-anchor:middle;" transform="rotate(-90, 68.007, 1165.46)" x="68.007" y="1165.46">T3 mcg/L</text>
</g>
<path clip-path="url(#clip9702)" d="
M282.256 1766.82 L307.383 1752.12 L332.511 1710.63 L357.638 1660.19 L382.766 1605.45 L407.893 1549.66 L433.02 1494.48 L458.148 1441.24 L483.275 1390.75 L508.403 1343.82 
  L533.53 1300.51 L558.658 1261.28 L583.785 1226.54 L608.912 1195.01 L634.04 1168.03 L659.167 1145.8 L684.295 1124.77 L709.422 1109.07 L734.55 1096.87 L759.677 1085.05 
  L784.804 1078.8 L809.932 1073.7 L835.059 1070.76 L860.187 1070.98 L885.314 1071.68 L910.442 1075.33 L935.569 1079.46 L960.696 1085.53 L985.824 1092.49 L1010.95 1100.38 
  L1036.08 1109.4 L1061.21 1118.64 L1086.33 1129.16 L1111.46 1139.57 L1136.59 1150.94 L1161.72 1162.39 L1186.84 1174.02 L1211.97 1186.13 L1237.1 1197.9 L1262.23 1210.33 
  L1287.35 1222.4 L1312.48 1234.74 L1337.61 1246.9 L1362.74 1258.87 L1387.86 1270.95 L1412.99 1282.65 L1438.12 1294.5 L1463.24 1306.03 L1488.37 1317.33 L1513.5 1328.6 
  L1538.63 1339.29 L1563.75 1350.26 L1588.88 1360.53 L1614.01 1370.93 L1639.14 1380.99 L1664.26 1390.53 L1689.39 1400.47 L1714.52 1409.22 L1739.65 1418.9 L1764.77 1427.23 
  L1789.9 1436.08 L1815.03 1444.41 L1840.16 1452.13 L1865.28 1460.7 L1890.41 1467.48 L1915.54 1475.83 L1940.67 1482.33 L1965.79 1489.73 L1990.92 1496.53 L2016.05 1502.61 
  L2041.18 1509.81 L2066.3 1515.01 L2091.43 1521.97 L2116.56 1527.11 L2141.69 1533.04 L2166.81 1538.65 L2191.94 1543.34 L2217.07 1549.28 L2242.2 1553.4 L2267.32 1558.48 
  L2292.45 1563.09 L2292.45 1454.53 L2267.32 1449.92 L2242.2 1445.31 L2217.07 1440.24 L2191.94 1435.23 L2166.81 1429.68 L2141.69 1424.55 L2116.56 1418.38 L2091.43 1413.05 
  L2066.3 1406.52 L2041.18 1400.63 L2016.05 1394.09 L1990.92 1387.39 L1965.79 1380.92 L1940.67 1373.38 L1915.54 1366.7 L1890.41 1358.63 L1865.28 1351.35 L1840.16 1343.13 
  L1815.03 1335.03 L1789.9 1326.81 L1764.77 1317.96 L1739.65 1309.35 L1714.52 1299.98 L1689.39 1290.71 L1664.26 1281.08 L1639.14 1271.08 L1614.01 1261.09 L1588.88 1250.59 
  L1563.75 1240.01 L1538.63 1229.29 L1513.5 1217.99 L1488.37 1207.07 L1463.24 1195.09 L1438.12 1183.81 L1412.99 1171.42 L1387.86 1159.67 L1362.74 1147.32 L1337.61 1134.94 
  L1312.48 1122.8 L1287.35 1109.75 L1262.23 1097.91 L1237.1 1084.51 L1211.97 1073.03 L1186.84 1059.8 L1161.72 1048.37 L1136.59 1036.06 L1111.46 1024.38 L1086.33 1013.65 
  L1061.21 1002.04 L1036.08 993.018 L1010.95 982.354 L985.824 974.912 L960.696 966.226 L935.569 960.438 L910.442 954.691 L885.314 950.912 L860.187 948.916 L835.059 947.709 
  L809.932 950.403 L784.804 952.587 L759.677 960.681 L734.55 967.585 L709.422 981.579 L684.295 994.747 L659.167 1013.64 L634.04 1035.58 L608.912 1059.74 L583.785 1089.39 
  L558.658 1122.14 L533.53 1158.71 L508.403 1199.41 L483.275 1243.44 L458.148 1290.75 L433.02 1340.64 L407.893 1392.24 L382.766 1444.34 L357.638 1495.34 L332.511 1542.19 
  L307.383 1579.93 L282.256 1591.01  Z
  " fill="#009af9" fill-rule="evenodd" fill-opacity="0.3"/>
<polyline clip-path="url(#clip9702)" style="stroke:#009af9; stroke-width:4; stroke-opacity:1; fill:none" points="
  282.256,1678.91 307.383,1666.03 332.511,1626.41 357.638,1577.76 382.766,1524.89 407.893,1470.95 433.02,1417.56 458.148,1366 483.275,1317.1 508.403,1271.62 
  533.53,1229.61 558.658,1191.71 583.785,1157.97 608.912,1127.38 634.04,1101.81 659.167,1079.72 684.295,1059.76 709.422,1045.33 734.55,1032.23 759.677,1022.86 
  784.804,1015.69 809.932,1012.05 835.059,1009.23 860.187,1009.95 885.314,1011.29 910.442,1015.01 935.569,1019.95 960.696,1025.88 985.824,1033.7 1010.95,1041.37 
  1036.08,1051.21 1061.21,1060.34 1086.33,1071.41 1111.46,1081.97 1136.59,1093.5 1161.72,1105.38 1186.84,1116.91 1211.97,1129.58 1237.1,1141.21 1262.23,1154.12 
  1287.35,1166.07 1312.48,1178.77 1337.61,1190.92 1362.74,1203.1 1387.86,1215.31 1412.99,1227.04 1438.12,1239.15 1463.24,1250.56 1488.37,1262.2 1513.5,1273.29 
  1538.63,1284.29 1563.75,1295.14 1588.88,1305.56 1614.01,1316.01 1639.14,1326.03 1664.26,1335.8 1689.39,1345.59 1714.52,1354.6 1739.65,1364.12 1764.77,1372.59 
  1789.9,1381.44 1815.03,1389.72 1840.16,1397.63 1865.28,1406.03 1890.41,1413.05 1915.54,1421.27 1940.67,1427.86 1965.79,1435.32 1990.92,1441.96 2016.05,1448.35 
  2041.18,1455.22 2066.3,1460.77 2091.43,1467.51 2116.56,1472.75 2141.69,1478.8 2166.81,1484.16 2191.94,1489.29 2217.07,1494.76 2242.2,1499.35 2267.32,1504.2 
  2292.45,1508.81 
  "/>
<polyline clip-path="url(#clip9702)" style="stroke:#e26f46; stroke-width:4; stroke-opacity:1; fill:none" points="
  282.256,1678.91 407.893,1528.25 533.53,1191.53 784.804,980.452 1036.08,1106.69 1287.35,1248.49 1538.63,1373.3 1789.9,1440.71 2041.18,1462.65 2292.45,1484.51 
  
  "/>
<polyline clip-path="url(#clip9702)" style="stroke:#e26f46; stroke-width:4; stroke-opacity:1; fill:none" points="
  282.256,1766.82 282.256,1591.01 
  "/>
<polyline clip-path="url(#clip9702)" style="stroke:#e26f46; stroke-width:4; stroke-opacity:1; fill:none" points="
  407.893,1656.47 407.893,1400.03 
  "/>
<polyline clip-path="url(#clip9702)" style="stroke:#e26f46; stroke-width:4; stroke-opacity:1; fill:none" points="
  533.53,1360.23 533.53,1022.83 
  "/>
<polyline clip-path="url(#clip9702)" style="stroke:#e26f46; stroke-width:4; stroke-opacity:1; fill:none" points="
  784.804,1109.75 784.804,851.149 
  "/>
<polyline clip-path="url(#clip9702)" style="stroke:#e26f46; stroke-width:4; stroke-opacity:1; fill:none" points="
  1036.08,1244.92 1036.08,968.468 
  "/>
<polyline clip-path="url(#clip9702)" style="stroke:#e26f46; stroke-width:4; stroke-opacity:1; fill:none" points="
  1287.35,1366.59 1287.35,1130.39 
  "/>
<polyline clip-path="url(#clip9702)" style="stroke:#e26f46; stroke-width:4; stroke-opacity:1; fill:none" points="
  1538.63,1489.23 1538.63,1257.37 
  "/>
<polyline clip-path="url(#clip9702)" style="stroke:#e26f46; stroke-width:4; stroke-opacity:1; fill:none" points="
  1789.9,1554.21 1789.9,1327.2 
  "/>
<polyline clip-path="url(#clip9702)" style="stroke:#e26f46; stroke-width:4; stroke-opacity:1; fill:none" points="
  2041.18,1577.74 2041.18,1347.55 
  "/>
<polyline clip-path="url(#clip9702)" style="stroke:#e26f46; stroke-width:4; stroke-opacity:1; fill:none" points="
  2292.45,1607.8 2292.45,1361.23 
  "/>
<line clip-path="url(#clip9702)" x1="302.256" y1="1766.82" x2="262.256" y2="1766.82" style="stroke:#000000; stroke-width:4; stroke-opacity:1"/>
<line clip-path="url(#clip9702)" x1="302.256" y1="1591.01" x2="262.256" y2="1591.01" style="stroke:#000000; stroke-width:4; stroke-opacity:1"/>
<line clip-path="url(#clip9702)" x1="427.893" y1="1656.47" x2="387.893" y2="1656.47" style="stroke:#000000; stroke-width:4; stroke-opacity:1"/>
<line clip-path="url(#clip9702)" x1="427.893" y1="1400.03" x2="387.893" y2="1400.03" style="stroke:#000000; stroke-width:4; stroke-opacity:1"/>
<line clip-path="url(#clip9702)" x1="553.53" y1="1360.23" x2="513.53" y2="1360.23" style="stroke:#000000; stroke-width:4; stroke-opacity:1"/>
<line clip-path="url(#clip9702)" x1="553.53" y1="1022.83" x2="513.53" y2="1022.83" style="stroke:#000000; stroke-width:4; stroke-opacity:1"/>
<line clip-path="url(#clip9702)" x1="804.804" y1="1109.75" x2="764.804" y2="1109.75" style="stroke:#000000; stroke-width:4; stroke-opacity:1"/>
<line clip-path="url(#clip9702)" x1="804.804" y1="851.149" x2="764.804" y2="851.149" style="stroke:#000000; stroke-width:4; stroke-opacity:1"/>
<line clip-path="url(#clip9702)" x1="1056.08" y1="1244.92" x2="1016.08" y2="1244.92" style="stroke:#000000; stroke-width:4; stroke-opacity:1"/>
<line clip-path="url(#clip9702)" x1="1056.08" y1="968.468" x2="1016.08" y2="968.468" style="stroke:#000000; stroke-width:4; stroke-opacity:1"/>
<line clip-path="url(#clip9702)" x1="1307.35" y1="1366.59" x2="1267.35" y2="1366.59" style="stroke:#000000; stroke-width:4; stroke-opacity:1"/>
<line clip-path="url(#clip9702)" x1="1307.35" y1="1130.39" x2="1267.35" y2="1130.39" style="stroke:#000000; stroke-width:4; stroke-opacity:1"/>
<line clip-path="url(#clip9702)" x1="1558.63" y1="1489.23" x2="1518.63" y2="1489.23" style="stroke:#000000; stroke-width:4; stroke-opacity:1"/>
<line clip-path="url(#clip9702)" x1="1558.63" y1="1257.37" x2="1518.63" y2="1257.37" style="stroke:#000000; stroke-width:4; stroke-opacity:1"/>
<line clip-path="url(#clip9702)" x1="1809.9" y1="1554.21" x2="1769.9" y2="1554.21" style="stroke:#000000; stroke-width:4; stroke-opacity:1"/>
<line clip-path="url(#clip9702)" x1="1809.9" y1="1327.2" x2="1769.9" y2="1327.2" style="stroke:#000000; stroke-width:4; stroke-opacity:1"/>
<line clip-path="url(#clip9702)" x1="2061.18" y1="1577.74" x2="2021.18" y2="1577.74" style="stroke:#000000; stroke-width:4; stroke-opacity:1"/>
<line clip-path="url(#clip9702)" x1="2061.18" y1="1347.55" x2="2021.18" y2="1347.55" style="stroke:#000000; stroke-width:4; stroke-opacity:1"/>
<line clip-path="url(#clip9702)" x1="2312.45" y1="1607.8" x2="2272.45" y2="1607.8" style="stroke:#000000; stroke-width:4; stroke-opacity:1"/>
<line clip-path="url(#clip9702)" x1="2312.45" y1="1361.23" x2="2272.45" y2="1361.23" style="stroke:#000000; stroke-width:4; stroke-opacity:1"/>
<path clip-path="url(#clip9700)" d="
M1403.78 620.457 L2208.76 620.457 L2208.76 348.297 L1403.78 348.297  Z
  " fill="#ffffff" fill-rule="evenodd" fill-opacity="1"/>
<polyline clip-path="url(#clip9700)" style="stroke:#000000; stroke-width:4; stroke-opacity:1; fill:none" points="
  1403.78,620.457 2208.76,620.457 2208.76,348.297 1403.78,348.297 1403.78,620.457 
  "/>
<polyline clip-path="url(#clip9700)" style="stroke:#009af9; stroke-width:4; stroke-opacity:1; fill:none" points="
  1451.78,439.017 1739.78,439.017 
  "/>
<g clip-path="url(#clip9700)">
<text style="fill:#000000; fill-opacity:1; font-family:Arial,Helvetica Neue,Helvetica,sans-serif; font-size:71px; text-anchor:start;" transform="rotate(0, 1787.78, 465.017)" x="1787.78" y="465.017">simulation</text>
</g>
<polyline clip-path="url(#clip9700)" style="stroke:#e26f46; stroke-width:4; stroke-opacity:1; fill:none" points="
  1451.78,529.737 1739.78,529.737 
  "/>
<g clip-path="url(#clip9700)">
<text style="fill:#000000; fill-opacity:1; font-family:Arial,Helvetica Neue,Helvetica,sans-serif; font-size:71px; text-anchor:start;" transform="rotate(0, 1787.78, 555.737)" x="1787.78" y="555.737">data</text>
</g>
<path clip-path="url(#clip9700)" d="
M2621.95 2179.89 L4752.76 2179.89 L4752.76 151.017 L2621.95 151.017  Z
  " fill="#ffffff" fill-rule="evenodd" fill-opacity="1"/>
<defs>
  <clipPath id="clip9703">
    <rect x="2621" y="151" width="2132" height="2030"/>
  </clipPath>
</defs>
<polyline clip-path="url(#clip9703)" style="stroke:#000000; stroke-width:2; stroke-opacity:0.1; fill:none" points="
  2682.26,2179.89 2682.26,151.017 
  "/>
<polyline clip-path="url(#clip9703)" style="stroke:#000000; stroke-width:2; stroke-opacity:0.1; fill:none" points="
  3184.8,2179.89 3184.8,151.017 
  "/>
<polyline clip-path="url(#clip9703)" style="stroke:#000000; stroke-width:2; stroke-opacity:0.1; fill:none" points="
  3687.35,2179.89 3687.35,151.017 
  "/>
<polyline clip-path="url(#clip9703)" style="stroke:#000000; stroke-width:2; stroke-opacity:0.1; fill:none" points="
  4189.9,2179.89 4189.9,151.017 
  "/>
<polyline clip-path="url(#clip9703)" style="stroke:#000000; stroke-width:2; stroke-opacity:0.1; fill:none" points="
  4692.45,2179.89 4692.45,151.017 
  "/>
<polyline clip-path="url(#clip9703)" style="stroke:#000000; stroke-width:2; stroke-opacity:0.1; fill:none" points="
  2621.95,2179.89 4752.76,2179.89 
  "/>
<polyline clip-path="url(#clip9703)" style="stroke:#000000; stroke-width:2; stroke-opacity:0.1; fill:none" points="
  2621.95,1729.03 4752.76,1729.03 
  "/>
<polyline clip-path="url(#clip9703)" style="stroke:#000000; stroke-width:2; stroke-opacity:0.1; fill:none" points="
  2621.95,1278.17 4752.76,1278.17 
  "/>
<polyline clip-path="url(#clip9703)" style="stroke:#000000; stroke-width:2; stroke-opacity:0.1; fill:none" points="
  2621.95,827.309 4752.76,827.309 
  "/>
<polyline clip-path="url(#clip9703)" style="stroke:#000000; stroke-width:2; stroke-opacity:0.1; fill:none" points="
  2621.95,376.447 4752.76,376.447 
  "/>
<polyline clip-path="url(#clip9700)" style="stroke:#000000; stroke-width:4; stroke-opacity:1; fill:none" points="
  2621.95,2179.89 4752.76,2179.89 
  "/>
<polyline clip-path="url(#clip9700)" style="stroke:#000000; stroke-width:4; stroke-opacity:1; fill:none" points="
  2621.95,2179.89 2621.95,151.017 
  "/>
<polyline clip-path="url(#clip9700)" style="stroke:#000000; stroke-width:4; stroke-opacity:1; fill:none" points="
  2682.26,2179.89 2682.26,2155.55 
  "/>
<polyline clip-path="url(#clip9700)" style="stroke:#000000; stroke-width:4; stroke-opacity:1; fill:none" points="
  3184.8,2179.89 3184.8,2155.55 
  "/>
<polyline clip-path="url(#clip9700)" style="stroke:#000000; stroke-width:4; stroke-opacity:1; fill:none" points="
  3687.35,2179.89 3687.35,2155.55 
  "/>
<polyline clip-path="url(#clip9700)" style="stroke:#000000; stroke-width:4; stroke-opacity:1; fill:none" points="
  4189.9,2179.89 4189.9,2155.55 
  "/>
<polyline clip-path="url(#clip9700)" style="stroke:#000000; stroke-width:4; stroke-opacity:1; fill:none" points="
  4692.45,2179.89 4692.45,2155.55 
  "/>
<polyline clip-path="url(#clip9700)" style="stroke:#000000; stroke-width:4; stroke-opacity:1; fill:none" points="
  2621.95,2179.89 2647.52,2179.89 
  "/>
<polyline clip-path="url(#clip9700)" style="stroke:#000000; stroke-width:4; stroke-opacity:1; fill:none" points="
  2621.95,1729.03 2647.52,1729.03 
  "/>
<polyline clip-path="url(#clip9700)" style="stroke:#000000; stroke-width:4; stroke-opacity:1; fill:none" points="
  2621.95,1278.17 2647.52,1278.17 
  "/>
<polyline clip-path="url(#clip9700)" style="stroke:#000000; stroke-width:4; stroke-opacity:1; fill:none" points="
  2621.95,827.309 2647.52,827.309 
  "/>
<polyline clip-path="url(#clip9700)" style="stroke:#000000; stroke-width:4; stroke-opacity:1; fill:none" points="
  2621.95,376.447 2647.52,376.447 
  "/>
<g clip-path="url(#clip9700)">
<text style="fill:#000000; fill-opacity:1; font-family:Arial,Helvetica Neue,Helvetica,sans-serif; font-size:71px; text-anchor:middle;" transform="rotate(0, 2682.26, 2266.29)" x="2682.26" y="2266.29">0</text>
</g>
<g clip-path="url(#clip9700)">
<text style="fill:#000000; fill-opacity:1; font-family:Arial,Helvetica Neue,Helvetica,sans-serif; font-size:71px; text-anchor:middle;" transform="rotate(0, 3184.8, 2266.29)" x="3184.8" y="2266.29">2</text>
</g>
<g clip-path="url(#clip9700)">
<text style="fill:#000000; fill-opacity:1; font-family:Arial,Helvetica Neue,Helvetica,sans-serif; font-size:71px; text-anchor:middle;" transform="rotate(0, 3687.35, 2266.29)" x="3687.35" y="2266.29">4</text>
</g>
<g clip-path="url(#clip9700)">
<text style="fill:#000000; fill-opacity:1; font-family:Arial,Helvetica Neue,Helvetica,sans-serif; font-size:71px; text-anchor:middle;" transform="rotate(0, 4189.9, 2266.29)" x="4189.9" y="2266.29">6</text>
</g>
<g clip-path="url(#clip9700)">
<text style="fill:#000000; fill-opacity:1; font-family:Arial,Helvetica Neue,Helvetica,sans-serif; font-size:71px; text-anchor:middle;" transform="rotate(0, 4692.45, 2266.29)" x="4692.45" y="2266.29">8</text>
</g>
<g clip-path="url(#clip9700)">
<text style="fill:#000000; fill-opacity:1; font-family:Arial,Helvetica Neue,Helvetica,sans-serif; font-size:71px; text-anchor:end;" transform="rotate(0, 2573.95, 2205.89)" x="2573.95" y="2205.89">0</text>
</g>
<g clip-path="url(#clip9700)">
<text style="fill:#000000; fill-opacity:1; font-family:Arial,Helvetica Neue,Helvetica,sans-serif; font-size:71px; text-anchor:end;" transform="rotate(0, 2573.95, 1755.03)" x="2573.95" y="1755.03">1</text>
</g>
<g clip-path="url(#clip9700)">
<text style="fill:#000000; fill-opacity:1; font-family:Arial,Helvetica Neue,Helvetica,sans-serif; font-size:71px; text-anchor:end;" transform="rotate(0, 2573.95, 1304.17)" x="2573.95" y="1304.17">2</text>
</g>
<g clip-path="url(#clip9700)">
<text style="fill:#000000; fill-opacity:1; font-family:Arial,Helvetica Neue,Helvetica,sans-serif; font-size:71px; text-anchor:end;" transform="rotate(0, 2573.95, 853.309)" x="2573.95" y="853.309">3</text>
</g>
<g clip-path="url(#clip9700)">
<text style="fill:#000000; fill-opacity:1; font-family:Arial,Helvetica Neue,Helvetica,sans-serif; font-size:71px; text-anchor:end;" transform="rotate(0, 2573.95, 402.447)" x="2573.95" y="402.447">4</text>
</g>
<g clip-path="url(#clip9700)">
<text style="fill:#000000; fill-opacity:1; font-family:Arial,Helvetica Neue,Helvetica,sans-serif; font-size:125px; text-anchor:middle;" transform="rotate(0, 3687.35, 109.2)" x="3687.35" y="109.2">Normal hypothyroid patient 45 mcg (n = 3)</text>
</g>
<g clip-path="url(#clip9700)">
<text style="fill:#000000; fill-opacity:1; font-family:Arial,Helvetica Neue,Helvetica,sans-serif; font-size:95px; text-anchor:middle;" transform="rotate(0, 3687.35, 2390.14)" x="3687.35" y="2390.14">Time (hours)</text>
</g>
<g clip-path="url(#clip9700)">
<text style="fill:#000000; fill-opacity:1; font-family:Arial,Helvetica Neue,Helvetica,sans-serif; font-size:95px; text-anchor:middle;" transform="rotate(-90, 2468.01, 1165.46)" x="2468.01" y="1165.46">T3 mcg/L</text>
</g>
<path clip-path="url(#clip9703)" d="
M2682.26 1883.27 L2707.38 1862.67 L2732.51 1806.55 L2757.64 1736.8 L2782.77 1660.89 L2807.89 1583.17 L2833.02 1506.15 L2858.15 1431.55 L2883.28 1360.71 L2908.4 1294.49 
  L2933.53 1233.32 L2958.66 1177.86 L2983.78 1127.89 L3008.91 1083.19 L3034.04 1044.91 L3059.17 1011.84 L3084.29 981.772 L3109.42 958.985 L3134.55 942.154 L3159.68 922.632 
  L3184.8 913.612 L3209.93 907.91 L3235.06 897.688 L3260.19 901.42 L3285.31 899.414 L3310.44 903.973 L3335.57 910.174 L3360.7 915.968 L3385.82 927.139 L3410.95 935.528 
  L3436.08 949.137 L3461.21 961.026 L3486.33 974.84 L3511.46 990.223 L3536.59 1003.68 L3561.72 1021.17 L3586.84 1036.04 L3611.97 1052.63 L3637.1 1070.13 L3662.23 1085.04 
  L3687.35 1103.79 L3712.48 1119.43 L3737.61 1136.39 L3762.74 1154 L3787.86 1168.88 L3812.99 1187.09 L3838.12 1202.14 L3863.24 1218.48 L3888.37 1234.84 L3913.5 1248.97 
  L3938.63 1265.75 L3963.75 1279.5 L3988.88 1294.63 L4014.01 1309.25 L4039.14 1322.16 L4064.26 1337.17 L4089.39 1349.37 L4114.52 1362.98 L4139.65 1375.78 L4164.77 1387.26 
  L4189.9 1400.47 L4215.03 1411.09 L4240.16 1423.11 L4265.28 1434.17 L4290.41 1444.22 L4315.54 1455.7 L4340.67 1464.84 L4365.79 1475.35 L4390.92 1484.8 L4416.05 1493.53 
  L4441.18 1503.41 L4466.3 1511.23 L4491.43 1520.35 L4516.56 1528.39 L4541.69 1535.92 L4566.81 1544.4 L4591.94 1551.05 L4617.07 1558.93 L4642.2 1565.74 L4667.32 1572.06 
  L4692.45 1578.95 L4692.45 1506.64 L4667.32 1500.01 L4642.2 1492.37 L4617.07 1485.9 L4591.94 1477.88 L4566.81 1469.91 L4541.69 1462.54 L4516.56 1453.16 L4491.43 1445.65 
  L4466.3 1436.07 L4441.18 1427.09 L4416.05 1418.18 L4390.92 1407.39 L4365.79 1398.66 L4340.67 1387.33 L4315.54 1377.21 L4290.41 1366.54 L4265.28 1354.27 L4240.16 1344.06 
  L4215.03 1330.83 L4189.9 1319.46 L4164.77 1306.8 L4139.65 1293.05 L4114.52 1281.12 L4089.39 1265.93 L4064.26 1253.21 L4039.14 1238.43 L4014.01 1223.28 L3988.88 1209.5 
  L3963.75 1192.4 L3938.63 1178.4 L3913.5 1161.48 L3888.37 1145.21 L3863.24 1129.62 L3838.12 1110.91 L3812.99 1095.93 L3787.86 1077.12 L3762.74 1060.33 L3737.61 1043.33 
  L3712.48 1023.84 L3687.35 1008.38 L3662.23 988.723 L3637.1 972.157 L3611.97 954.977 L3586.84 936.091 L3561.72 921.259 L3536.59 902.801 L3511.46 887.966 L3486.33 872.665 
  L3461.21 856.874 L3436.08 845.106 L3410.95 830.34 L3385.82 821.202 L3360.7 810.164 L3335.57 802.485 L3310.44 797.287 L3285.31 790.524 L3260.19 793.591 L3235.06 789.425 
  L3209.93 798.828 L3184.8 805.964 L3159.68 813.833 L3134.55 834.533 L3109.42 851.916 L3084.29 875.2 L3059.17 906.606 L3034.04 940.714 L3008.91 980.392 L2983.78 1026.9 
  L2958.66 1078.78 L2933.53 1136.43 L2908.4 1200.07 L2883.28 1268.97 L2858.15 1342.71 L2833.02 1420.37 L2807.89 1500.58 L2782.77 1581.51 L2757.64 1660.58 L2732.51 1733.25 
  L2707.38 1791.71 L2682.26 1812.85  Z
  " fill="#009af9" fill-rule="evenodd" fill-opacity="0.3"/>
<polyline clip-path="url(#clip9703)" style="stroke:#009af9; stroke-width:4; stroke-opacity:1; fill:none" points="
  2682.26,1848.06 2707.38,1827.19 2732.51,1769.9 2757.64,1698.69 2782.77,1621.2 2807.89,1541.88 2833.02,1463.26 2858.15,1387.13 2883.28,1314.84 2908.4,1247.28 
  2933.53,1184.87 2958.66,1128.32 2983.78,1077.39 3008.91,1031.79 3034.04,992.81 3059.17,959.221 3084.29,928.486 3109.42,905.451 3134.55,888.344 3159.68,868.232 
  3184.8,859.788 3209.93,853.369 3235.06,843.556 3260.19,847.506 3285.31,844.969 3310.44,850.63 3335.57,856.329 3360.7,863.066 3385.82,874.17 3410.95,882.934 
  3436.08,897.122 3461.21,908.95 3486.33,923.752 3511.46,939.095 3536.59,953.238 3561.72,971.215 3586.84,986.067 3611.97,1003.8 3637.1,1021.14 3662.23,1036.88 
  3687.35,1056.09 3712.48,1071.64 3737.61,1089.86 3762.74,1107.17 3787.86,1123 3812.99,1141.51 3838.12,1156.53 3863.24,1174.05 3888.37,1190.03 3913.5,1205.22 
  3938.63,1222.07 3963.75,1235.95 3988.88,1252.07 4014.01,1266.26 4039.14,1280.29 4064.26,1295.19 4089.39,1307.65 4114.52,1322.05 4139.65,1334.41 4164.77,1347.03 
  4189.9,1359.96 4215.03,1370.96 4240.16,1383.59 4265.28,1394.22 4290.41,1405.38 4315.54,1416.45 4340.67,1426.08 4365.79,1437 4390.92,1446.1 4416.05,1455.86 
  4441.18,1465.25 4466.3,1473.65 4491.43,1483 4516.56,1490.77 4541.69,1499.23 4566.81,1507.15 4591.94,1514.46 4617.07,1522.42 4642.2,1529.05 4667.32,1536.03 
  4692.45,1542.79 
  "/>
<polyline clip-path="url(#clip9703)" style="stroke:#e26f46; stroke-width:4; stroke-opacity:1; fill:none" points="
  2682.26,1848.06 2807.89,1740.9 2933.53,1355.72 3184.8,851.806 3436.08,992.174 3687.35,1111.8 3938.63,1171.32 4189.9,1391.04 4441.18,1415.23 4692.45,1495.34 
  
  "/>
<polyline clip-path="url(#clip9703)" style="stroke:#e26f46; stroke-width:4; stroke-opacity:1; fill:none" points="
  2682.26,1883.27 2682.26,1812.85 
  "/>
<polyline clip-path="url(#clip9703)" style="stroke:#e26f46; stroke-width:4; stroke-opacity:1; fill:none" points="
  2807.89,1767.28 2807.89,1714.53 
  "/>
<polyline clip-path="url(#clip9703)" style="stroke:#e26f46; stroke-width:4; stroke-opacity:1; fill:none" points="
  2933.53,1540.47 2933.53,1170.97 
  "/>
<polyline clip-path="url(#clip9703)" style="stroke:#e26f46; stroke-width:4; stroke-opacity:1; fill:none" points="
  3184.8,1125.52 3184.8,578.091 
  "/>
<polyline clip-path="url(#clip9703)" style="stroke:#e26f46; stroke-width:4; stroke-opacity:1; fill:none" points="
  3436.08,1242.5 3436.08,741.85 
  "/>
<polyline clip-path="url(#clip9703)" style="stroke:#e26f46; stroke-width:4; stroke-opacity:1; fill:none" points="
  3687.35,1305.29 3687.35,918.318 
  "/>
<polyline clip-path="url(#clip9703)" style="stroke:#e26f46; stroke-width:4; stroke-opacity:1; fill:none" points="
  3938.63,1306.46 3938.63,1036.17 
  "/>
<polyline clip-path="url(#clip9703)" style="stroke:#e26f46; stroke-width:4; stroke-opacity:1; fill:none" points="
  4189.9,1477.62 4189.9,1304.45 
  "/>
<polyline clip-path="url(#clip9703)" style="stroke:#e26f46; stroke-width:4; stroke-opacity:1; fill:none" points="
  4441.18,1514.32 4441.18,1316.14 
  "/>
<polyline clip-path="url(#clip9703)" style="stroke:#e26f46; stroke-width:4; stroke-opacity:1; fill:none" points="
  4692.45,1575.47 4692.45,1415.2 
  "/>
<line clip-path="url(#clip9703)" x1="2702.26" y1="1883.27" x2="2662.26" y2="1883.27" style="stroke:#000000; stroke-width:4; stroke-opacity:1"/>
<line clip-path="url(#clip9703)" x1="2702.26" y1="1812.85" x2="2662.26" y2="1812.85" style="stroke:#000000; stroke-width:4; stroke-opacity:1"/>
<line clip-path="url(#clip9703)" x1="2827.89" y1="1767.28" x2="2787.89" y2="1767.28" style="stroke:#000000; stroke-width:4; stroke-opacity:1"/>
<line clip-path="url(#clip9703)" x1="2827.89" y1="1714.53" x2="2787.89" y2="1714.53" style="stroke:#000000; stroke-width:4; stroke-opacity:1"/>
<line clip-path="url(#clip9703)" x1="2953.53" y1="1540.47" x2="2913.53" y2="1540.47" style="stroke:#000000; stroke-width:4; stroke-opacity:1"/>
<line clip-path="url(#clip9703)" x1="2953.53" y1="1170.97" x2="2913.53" y2="1170.97" style="stroke:#000000; stroke-width:4; stroke-opacity:1"/>
<line clip-path="url(#clip9703)" x1="3204.8" y1="1125.52" x2="3164.8" y2="1125.52" style="stroke:#000000; stroke-width:4; stroke-opacity:1"/>
<line clip-path="url(#clip9703)" x1="3204.8" y1="578.091" x2="3164.8" y2="578.091" style="stroke:#000000; stroke-width:4; stroke-opacity:1"/>
<line clip-path="url(#clip9703)" x1="3456.08" y1="1242.5" x2="3416.08" y2="1242.5" style="stroke:#000000; stroke-width:4; stroke-opacity:1"/>
<line clip-path="url(#clip9703)" x1="3456.08" y1="741.85" x2="3416.08" y2="741.85" style="stroke:#000000; stroke-width:4; stroke-opacity:1"/>
<line clip-path="url(#clip9703)" x1="3707.35" y1="1305.29" x2="3667.35" y2="1305.29" style="stroke:#000000; stroke-width:4; stroke-opacity:1"/>
<line clip-path="url(#clip9703)" x1="3707.35" y1="918.318" x2="3667.35" y2="918.318" style="stroke:#000000; stroke-width:4; stroke-opacity:1"/>
<line clip-path="url(#clip9703)" x1="3958.63" y1="1306.46" x2="3918.63" y2="1306.46" style="stroke:#000000; stroke-width:4; stroke-opacity:1"/>
<line clip-path="url(#clip9703)" x1="3958.63" y1="1036.17" x2="3918.63" y2="1036.17" style="stroke:#000000; stroke-width:4; stroke-opacity:1"/>
<line clip-path="url(#clip9703)" x1="4209.9" y1="1477.62" x2="4169.9" y2="1477.62" style="stroke:#000000; stroke-width:4; stroke-opacity:1"/>
<line clip-path="url(#clip9703)" x1="4209.9" y1="1304.45" x2="4169.9" y2="1304.45" style="stroke:#000000; stroke-width:4; stroke-opacity:1"/>
<line clip-path="url(#clip9703)" x1="4461.18" y1="1514.32" x2="4421.18" y2="1514.32" style="stroke:#000000; stroke-width:4; stroke-opacity:1"/>
<line clip-path="url(#clip9703)" x1="4461.18" y1="1316.14" x2="4421.18" y2="1316.14" style="stroke:#000000; stroke-width:4; stroke-opacity:1"/>
<line clip-path="url(#clip9703)" x1="4712.45" y1="1575.47" x2="4672.45" y2="1575.47" style="stroke:#000000; stroke-width:4; stroke-opacity:1"/>
<line clip-path="url(#clip9703)" x1="4712.45" y1="1415.2" x2="4672.45" y2="1415.2" style="stroke:#000000; stroke-width:4; stroke-opacity:1"/>
<path clip-path="url(#clip9700)" d="
M3803.78 620.457 L4608.76 620.457 L4608.76 348.297 L3803.78 348.297  Z
  " fill="#ffffff" fill-rule="evenodd" fill-opacity="1"/>
<polyline clip-path="url(#clip9700)" style="stroke:#000000; stroke-width:4; stroke-opacity:1; fill:none" points="
  3803.78,620.457 4608.76,620.457 4608.76,348.297 3803.78,348.297 3803.78,620.457 
  "/>
<polyline clip-path="url(#clip9700)" style="stroke:#009af9; stroke-width:4; stroke-opacity:1; fill:none" points="
  3851.78,439.017 4139.78,439.017 
  "/>
<g clip-path="url(#clip9700)">
<text style="fill:#000000; fill-opacity:1; font-family:Arial,Helvetica Neue,Helvetica,sans-serif; font-size:71px; text-anchor:start;" transform="rotate(0, 4187.78, 465.017)" x="4187.78" y="465.017">simulation</text>
</g>
<polyline clip-path="url(#clip9700)" style="stroke:#e26f46; stroke-width:4; stroke-opacity:1; fill:none" points="
  3851.78,529.737 4139.78,529.737 
  "/>
<g clip-path="url(#clip9700)">
<text style="fill:#000000; fill-opacity:1; font-family:Arial,Helvetica Neue,Helvetica,sans-serif; font-size:71px; text-anchor:start;" transform="rotate(0, 4187.78, 555.737)" x="4187.78" y="555.737">data</text>
</g>
<path clip-path="url(#clip9700)" d="
M221.95 4579.89 L2352.76 4579.89 L2352.76 2551.02 L221.95 2551.02  Z
  " fill="#ffffff" fill-rule="evenodd" fill-opacity="1"/>
<defs>
  <clipPath id="clip9704">
    <rect x="221" y="2551" width="2132" height="2030"/>
  </clipPath>
</defs>
<polyline clip-path="url(#clip9704)" style="stroke:#000000; stroke-width:2; stroke-opacity:0.1; fill:none" points="
  282.256,4579.89 282.256,2551.02 
  "/>
<polyline clip-path="url(#clip9704)" style="stroke:#000000; stroke-width:2; stroke-opacity:0.1; fill:none" points="
  784.804,4579.89 784.804,2551.02 
  "/>
<polyline clip-path="url(#clip9704)" style="stroke:#000000; stroke-width:2; stroke-opacity:0.1; fill:none" points="
  1287.35,4579.89 1287.35,2551.02 
  "/>
<polyline clip-path="url(#clip9704)" style="stroke:#000000; stroke-width:2; stroke-opacity:0.1; fill:none" points="
  1789.9,4579.89 1789.9,2551.02 
  "/>
<polyline clip-path="url(#clip9704)" style="stroke:#000000; stroke-width:2; stroke-opacity:0.1; fill:none" points="
  2292.45,4579.89 2292.45,2551.02 
  "/>
<polyline clip-path="url(#clip9704)" style="stroke:#000000; stroke-width:2; stroke-opacity:0.1; fill:none" points="
  221.95,4579.89 2352.76,4579.89 
  "/>
<polyline clip-path="url(#clip9704)" style="stroke:#000000; stroke-width:2; stroke-opacity:0.1; fill:none" points="
  221.95,4129.03 2352.76,4129.03 
  "/>
<polyline clip-path="url(#clip9704)" style="stroke:#000000; stroke-width:2; stroke-opacity:0.1; fill:none" points="
  221.95,3678.17 2352.76,3678.17 
  "/>
<polyline clip-path="url(#clip9704)" style="stroke:#000000; stroke-width:2; stroke-opacity:0.1; fill:none" points="
  221.95,3227.31 2352.76,3227.31 
  "/>
<polyline clip-path="url(#clip9704)" style="stroke:#000000; stroke-width:2; stroke-opacity:0.1; fill:none" points="
  221.95,2776.45 2352.76,2776.45 
  "/>
<polyline clip-path="url(#clip9700)" style="stroke:#000000; stroke-width:4; stroke-opacity:1; fill:none" points="
  221.95,4579.89 2352.76,4579.89 
  "/>
<polyline clip-path="url(#clip9700)" style="stroke:#000000; stroke-width:4; stroke-opacity:1; fill:none" points="
  221.95,4579.89 221.95,2551.02 
  "/>
<polyline clip-path="url(#clip9700)" style="stroke:#000000; stroke-width:4; stroke-opacity:1; fill:none" points="
  282.256,4579.89 282.256,4555.55 
  "/>
<polyline clip-path="url(#clip9700)" style="stroke:#000000; stroke-width:4; stroke-opacity:1; fill:none" points="
  784.804,4579.89 784.804,4555.55 
  "/>
<polyline clip-path="url(#clip9700)" style="stroke:#000000; stroke-width:4; stroke-opacity:1; fill:none" points="
  1287.35,4579.89 1287.35,4555.55 
  "/>
<polyline clip-path="url(#clip9700)" style="stroke:#000000; stroke-width:4; stroke-opacity:1; fill:none" points="
  1789.9,4579.89 1789.9,4555.55 
  "/>
<polyline clip-path="url(#clip9700)" style="stroke:#000000; stroke-width:4; stroke-opacity:1; fill:none" points="
  2292.45,4579.89 2292.45,4555.55 
  "/>
<polyline clip-path="url(#clip9700)" style="stroke:#000000; stroke-width:4; stroke-opacity:1; fill:none" points="
  221.95,4579.89 247.52,4579.89 
  "/>
<polyline clip-path="url(#clip9700)" style="stroke:#000000; stroke-width:4; stroke-opacity:1; fill:none" points="
  221.95,4129.03 247.52,4129.03 
  "/>
<polyline clip-path="url(#clip9700)" style="stroke:#000000; stroke-width:4; stroke-opacity:1; fill:none" points="
  221.95,3678.17 247.52,3678.17 
  "/>
<polyline clip-path="url(#clip9700)" style="stroke:#000000; stroke-width:4; stroke-opacity:1; fill:none" points="
  221.95,3227.31 247.52,3227.31 
  "/>
<polyline clip-path="url(#clip9700)" style="stroke:#000000; stroke-width:4; stroke-opacity:1; fill:none" points="
  221.95,2776.45 247.52,2776.45 
  "/>
<g clip-path="url(#clip9700)">
<text style="fill:#000000; fill-opacity:1; font-family:Arial,Helvetica Neue,Helvetica,sans-serif; font-size:71px; text-anchor:middle;" transform="rotate(0, 282.256, 4666.29)" x="282.256" y="4666.29">0</text>
</g>
<g clip-path="url(#clip9700)">
<text style="fill:#000000; fill-opacity:1; font-family:Arial,Helvetica Neue,Helvetica,sans-serif; font-size:71px; text-anchor:middle;" transform="rotate(0, 784.804, 4666.29)" x="784.804" y="4666.29">2</text>
</g>
<g clip-path="url(#clip9700)">
<text style="fill:#000000; fill-opacity:1; font-family:Arial,Helvetica Neue,Helvetica,sans-serif; font-size:71px; text-anchor:middle;" transform="rotate(0, 1287.35, 4666.29)" x="1287.35" y="4666.29">4</text>
</g>
<g clip-path="url(#clip9700)">
<text style="fill:#000000; fill-opacity:1; font-family:Arial,Helvetica Neue,Helvetica,sans-serif; font-size:71px; text-anchor:middle;" transform="rotate(0, 1789.9, 4666.29)" x="1789.9" y="4666.29">6</text>
</g>
<g clip-path="url(#clip9700)">
<text style="fill:#000000; fill-opacity:1; font-family:Arial,Helvetica Neue,Helvetica,sans-serif; font-size:71px; text-anchor:middle;" transform="rotate(0, 2292.45, 4666.29)" x="2292.45" y="4666.29">8</text>
</g>
<g clip-path="url(#clip9700)">
<text style="fill:#000000; fill-opacity:1; font-family:Arial,Helvetica Neue,Helvetica,sans-serif; font-size:71px; text-anchor:end;" transform="rotate(0, 173.95, 4605.89)" x="173.95" y="4605.89">0</text>
</g>
<g clip-path="url(#clip9700)">
<text style="fill:#000000; fill-opacity:1; font-family:Arial,Helvetica Neue,Helvetica,sans-serif; font-size:71px; text-anchor:end;" transform="rotate(0, 173.95, 4155.03)" x="173.95" y="4155.03">1</text>
</g>
<g clip-path="url(#clip9700)">
<text style="fill:#000000; fill-opacity:1; font-family:Arial,Helvetica Neue,Helvetica,sans-serif; font-size:71px; text-anchor:end;" transform="rotate(0, 173.95, 3704.17)" x="173.95" y="3704.17">2</text>
</g>
<g clip-path="url(#clip9700)">
<text style="fill:#000000; fill-opacity:1; font-family:Arial,Helvetica Neue,Helvetica,sans-serif; font-size:71px; text-anchor:end;" transform="rotate(0, 173.95, 3253.31)" x="173.95" y="3253.31">3</text>
</g>
<g clip-path="url(#clip9700)">
<text style="fill:#000000; fill-opacity:1; font-family:Arial,Helvetica Neue,Helvetica,sans-serif; font-size:71px; text-anchor:end;" transform="rotate(0, 173.95, 2802.45)" x="173.95" y="2802.45">4</text>
</g>
<g clip-path="url(#clip9700)">
<text style="fill:#000000; fill-opacity:1; font-family:Arial,Helvetica Neue,Helvetica,sans-serif; font-size:125px; text-anchor:middle;" transform="rotate(0, 1287.35, 2509.2)" x="1287.35" y="2509.2">Overweight hypothyroid patient 30 mcg (n = 2)</text>
</g>
<g clip-path="url(#clip9700)">
<text style="fill:#000000; fill-opacity:1; font-family:Arial,Helvetica Neue,Helvetica,sans-serif; font-size:95px; text-anchor:middle;" transform="rotate(0, 1287.35, 4790.14)" x="1287.35" y="4790.14">Time (hours)</text>
</g>
<g clip-path="url(#clip9700)">
<text style="fill:#000000; fill-opacity:1; font-family:Arial,Helvetica Neue,Helvetica,sans-serif; font-size:95px; text-anchor:middle;" transform="rotate(-90, 68.007, 3565.46)" x="68.007" y="3565.46">T3 mcg/L</text>
</g>
<path clip-path="url(#clip9704)" d="
M282.256 4199.82 L307.383 4186.69 L332.511 4148.21 L357.638 4100.38 L382.766 4048.28 L407.893 3995.03 L433.02 3942.23 L458.148 3891.18 L483.275 3842.67 L508.403 3797.49 
  L533.53 3756.82 L558.658 3726.63 L583.785 3699.78 L608.912 3675.4 L634.04 3654.98 L659.167 3638.35 L684.295 3621.56 L709.422 3610.39 L734.55 3602.61 L759.677 3591.06 
  L784.804 3589.88 L809.932 3585.1 L835.059 3583.39 L860.187 3585.54 L885.314 3584.99 L910.442 3590.69 L935.569 3592.97 L960.696 3600.21 L985.824 3605.58 L1010.95 3613.14 
  L1036.08 3621.32 L1061.21 3628.66 L1086.33 3639.05 L1111.46 3646.78 L1136.59 3657.75 L1161.72 3667.18 L1186.84 3676.87 L1211.97 3688.33 L1237.1 3696.89 L1262.23 3709.11 
  L1287.35 3718.43 L1312.48 3729.23 L1337.61 3740.13 L1362.74 3749.08 L1387.86 3760.98 L1412.99 3769.5 L1438.12 3780.66 L1463.24 3790.1 L1488.37 3799.36 L1513.5 3809.87 
  L1538.63 3817.65 L1563.75 3828.32 L1588.88 3836.19 L1614.01 3845.43 L1639.14 3854.21 L1664.26 3861.56 L1689.39 3871.03 L1714.52 3877.56 L1739.65 3886.43 L1764.77 3893.49 
  L1789.9 3900.6 L1815.03 3908.53 L1840.16 3914.14 L1865.28 3922.27 L1890.41 3927.82 L1915.54 3934.71 L1940.67 3941.05 L1965.79 3946.24 L1990.92 3953.24 L2016.05 3957.64 
  L2041.18 3964.19 L2066.3 3969.11 L2091.43 3974.58 L2116.56 3980.18 L2141.69 3986.49 L2166.81 3990.7 L2191.94 3997.18 L2217.07 4001.46 L2242.2 4006.7 L2267.32 4011.81 
  L2292.45 4015.5 L2292.45 4010.43 L2267.32 4005.97 L2242.2 4002.54 L2217.07 3998.11 L2191.94 3993.15 L2166.81 3989.49 L2141.69 3983.51 L2116.56 3979.81 L2091.43 3974.11 
  L2066.3 3969.07 L2041.18 3961.89 L2016.05 3956.86 L1990.92 3949.26 L1965.79 3943.21 L1940.67 3936.35 L1915.54 3928.45 L1890.41 3922.3 L1865.28 3913.38 L1840.16 3906.75 
  L1815.03 3898.32 L1789.9 3889.8 L1764.77 3882.26 L1739.65 3872.13 L1714.52 3864.66 L1689.39 3854.59 L1664.26 3845.48 L1639.14 3836.36 L1614.01 3825.25 L1588.88 3816.69 
  L1563.75 3805.02 L1538.63 3795.4 L1513.5 3784.6 L1488.37 3772.85 L1463.24 3763.08 L1438.12 3750.02 L1412.99 3740.11 L1387.86 3727.73 L1362.74 3715.87 L1337.61 3704.99 
  L1312.48 3691.3 L1287.35 3681.25 L1262.23 3667.95 L1237.1 3656.59 L1211.97 3645.26 L1186.84 3632.11 L1161.72 3622.41 L1136.59 3609.66 L1111.46 3599.7 L1086.33 3589.31 
  L1061.21 3578.4 L1036.08 3570.53 L1010.95 3560.18 L985.824 3554.03 L960.696 3546.25 L935.569 3540.94 L910.442 3537.05 L885.314 3532.36 L860.187 3533.83 L835.059 3530.41 
  L809.932 3537.14 L784.804 3539.84 L759.677 3546.4 L734.55 3559.64 L709.422 3568.8 L684.295 3585.79 L659.167 3606.1 L634.04 3627.16 L608.912 3653.73 L583.785 3684.19 
  L558.658 3717.81 L533.53 3755.73 L508.403 3790.35 L483.275 3826.65 L458.148 3865.68 L433.02 3906.83 L407.893 3949.38 L382.766 3992.31 L357.638 4034.25 L332.511 4072.61 
  L307.383 4102.82 L282.256 4111  Z
  " fill="#009af9" fill-rule="evenodd" fill-opacity="0.3"/>
<polyline clip-path="url(#clip9704)" style="stroke:#009af9; stroke-width:4; stroke-opacity:1; fill:none" points="
  282.256,4155.41 307.383,4144.76 332.511,4110.41 357.638,4067.31 382.766,4020.3 407.893,3972.2 433.02,3924.53 458.148,3878.43 483.275,3834.66 508.403,3793.92 
  533.53,3756.27 558.658,3722.22 583.785,3691.98 608.912,3664.56 634.04,3641.07 659.167,3622.22 684.295,3603.67 709.422,3589.6 734.55,3581.13 759.677,3568.73 
  784.804,3564.86 809.932,3561.12 835.059,3556.9 860.187,3559.68 885.314,3558.67 910.442,3563.87 935.569,3566.95 960.696,3573.23 985.824,3579.81 1010.95,3586.66 
  1036.08,3595.92 1061.21,3603.53 1086.33,3614.18 1111.46,3623.24 1136.59,3633.71 1161.72,3644.79 1186.84,3654.49 1211.97,3666.8 1237.1,3676.74 1262.23,3688.53 
  1287.35,3699.84 1312.48,3710.26 1337.61,3722.56 1362.74,3732.47 1387.86,3744.35 1412.99,3754.8 1438.12,3765.34 1463.24,3776.59 1488.37,3786.11 1513.5,3797.23 
  1538.63,3806.52 1563.75,3816.67 1588.88,3826.44 1614.01,3835.34 1639.14,3845.28 1664.26,3853.52 1689.39,3862.81 1714.52,3871.11 1739.65,3879.28 1764.77,3887.88 
  1789.9,3895.2 1815.03,3903.43 1840.16,3910.44 1865.28,3917.83 1890.41,3925.06 1915.54,3931.58 1940.67,3938.7 1965.79,3944.73 1990.92,3951.25 2016.05,3957.25 
  2041.18,3963.04 2066.3,3969.09 2091.43,3974.35 2116.56,3979.99 2141.69,3985 2166.81,3990.09 2191.94,3995.17 2217.07,3999.79 2242.2,4004.62 2267.32,4008.89 
  2292.45,4012.96 
  "/>
<polyline clip-path="url(#clip9704)" style="stroke:#e26f46; stroke-width:4; stroke-opacity:1; fill:none" points="
  282.256,4155.41 407.893,4075.15 533.53,3954.1 784.804,3779.61 1036.08,3834.39 1287.35,3888.5 1538.63,3933.13 1789.9,4030.97 2041.18,4095.44 2292.45,4056.67 
  
  "/>
<polyline clip-path="url(#clip9704)" style="stroke:#e26f46; stroke-width:4; stroke-opacity:1; fill:none" points="
  282.256,4243.31 282.256,4067.5 
  "/>
<polyline clip-path="url(#clip9704)" style="stroke:#e26f46; stroke-width:4; stroke-opacity:1; fill:none" points="
  407.893,4203.37 407.893,3946.93 
  "/>
<polyline clip-path="url(#clip9704)" style="stroke:#e26f46; stroke-width:4; stroke-opacity:1; fill:none" points="
  533.53,4122.8 533.53,3785.4 
  "/>
<polyline clip-path="url(#clip9704)" style="stroke:#e26f46; stroke-width:4; stroke-opacity:1; fill:none" points="
  784.804,3908.92 784.804,3650.31 
  "/>
<polyline clip-path="url(#clip9704)" style="stroke:#e26f46; stroke-width:4; stroke-opacity:1; fill:none" points="
  1036.08,3972.62 1036.08,3696.17 
  "/>
<polyline clip-path="url(#clip9704)" style="stroke:#e26f46; stroke-width:4; stroke-opacity:1; fill:none" points="
  1287.35,4006.6 1287.35,3770.4 
  "/>
<polyline clip-path="url(#clip9704)" style="stroke:#e26f46; stroke-width:4; stroke-opacity:1; fill:none" points="
  1538.63,4049.06 1538.63,3817.21 
  "/>
<polyline clip-path="url(#clip9704)" style="stroke:#e26f46; stroke-width:4; stroke-opacity:1; fill:none" points="
  1789.9,4144.48 1789.9,3917.46 
  "/>
<polyline clip-path="url(#clip9704)" style="stroke:#e26f46; stroke-width:4; stroke-opacity:1; fill:none" points="
  2041.18,4210.54 2041.18,3980.35 
  "/>
<polyline clip-path="url(#clip9704)" style="stroke:#e26f46; stroke-width:4; stroke-opacity:1; fill:none" points="
  2292.45,4179.95 2292.45,3933.38 
  "/>
<line clip-path="url(#clip9704)" x1="302.256" y1="4243.31" x2="262.256" y2="4243.31" style="stroke:#000000; stroke-width:4; stroke-opacity:1"/>
<line clip-path="url(#clip9704)" x1="302.256" y1="4067.5" x2="262.256" y2="4067.5" style="stroke:#000000; stroke-width:4; stroke-opacity:1"/>
<line clip-path="url(#clip9704)" x1="427.893" y1="4203.37" x2="387.893" y2="4203.37" style="stroke:#000000; stroke-width:4; stroke-opacity:1"/>
<line clip-path="url(#clip9704)" x1="427.893" y1="3946.93" x2="387.893" y2="3946.93" style="stroke:#000000; stroke-width:4; stroke-opacity:1"/>
<line clip-path="url(#clip9704)" x1="553.53" y1="4122.8" x2="513.53" y2="4122.8" style="stroke:#000000; stroke-width:4; stroke-opacity:1"/>
<line clip-path="url(#clip9704)" x1="553.53" y1="3785.4" x2="513.53" y2="3785.4" style="stroke:#000000; stroke-width:4; stroke-opacity:1"/>
<line clip-path="url(#clip9704)" x1="804.804" y1="3908.92" x2="764.804" y2="3908.92" style="stroke:#000000; stroke-width:4; stroke-opacity:1"/>
<line clip-path="url(#clip9704)" x1="804.804" y1="3650.31" x2="764.804" y2="3650.31" style="stroke:#000000; stroke-width:4; stroke-opacity:1"/>
<line clip-path="url(#clip9704)" x1="1056.08" y1="3972.62" x2="1016.08" y2="3972.62" style="stroke:#000000; stroke-width:4; stroke-opacity:1"/>
<line clip-path="url(#clip9704)" x1="1056.08" y1="3696.17" x2="1016.08" y2="3696.17" style="stroke:#000000; stroke-width:4; stroke-opacity:1"/>
<line clip-path="url(#clip9704)" x1="1307.35" y1="4006.6" x2="1267.35" y2="4006.6" style="stroke:#000000; stroke-width:4; stroke-opacity:1"/>
<line clip-path="url(#clip9704)" x1="1307.35" y1="3770.4" x2="1267.35" y2="3770.4" style="stroke:#000000; stroke-width:4; stroke-opacity:1"/>
<line clip-path="url(#clip9704)" x1="1558.63" y1="4049.06" x2="1518.63" y2="4049.06" style="stroke:#000000; stroke-width:4; stroke-opacity:1"/>
<line clip-path="url(#clip9704)" x1="1558.63" y1="3817.21" x2="1518.63" y2="3817.21" style="stroke:#000000; stroke-width:4; stroke-opacity:1"/>
<line clip-path="url(#clip9704)" x1="1809.9" y1="4144.48" x2="1769.9" y2="4144.48" style="stroke:#000000; stroke-width:4; stroke-opacity:1"/>
<line clip-path="url(#clip9704)" x1="1809.9" y1="3917.46" x2="1769.9" y2="3917.46" style="stroke:#000000; stroke-width:4; stroke-opacity:1"/>
<line clip-path="url(#clip9704)" x1="2061.18" y1="4210.54" x2="2021.18" y2="4210.54" style="stroke:#000000; stroke-width:4; stroke-opacity:1"/>
<line clip-path="url(#clip9704)" x1="2061.18" y1="3980.35" x2="2021.18" y2="3980.35" style="stroke:#000000; stroke-width:4; stroke-opacity:1"/>
<line clip-path="url(#clip9704)" x1="2312.45" y1="4179.95" x2="2272.45" y2="4179.95" style="stroke:#000000; stroke-width:4; stroke-opacity:1"/>
<line clip-path="url(#clip9704)" x1="2312.45" y1="3933.38" x2="2272.45" y2="3933.38" style="stroke:#000000; stroke-width:4; stroke-opacity:1"/>
<path clip-path="url(#clip9700)" d="
M1403.78 3020.46 L2208.76 3020.46 L2208.76 2748.3 L1403.78 2748.3  Z
  " fill="#ffffff" fill-rule="evenodd" fill-opacity="1"/>
<polyline clip-path="url(#clip9700)" style="stroke:#000000; stroke-width:4; stroke-opacity:1; fill:none" points="
  1403.78,3020.46 2208.76,3020.46 2208.76,2748.3 1403.78,2748.3 1403.78,3020.46 
  "/>
<polyline clip-path="url(#clip9700)" style="stroke:#009af9; stroke-width:4; stroke-opacity:1; fill:none" points="
  1451.78,2839.02 1739.78,2839.02 
  "/>
<g clip-path="url(#clip9700)">
<text style="fill:#000000; fill-opacity:1; font-family:Arial,Helvetica Neue,Helvetica,sans-serif; font-size:71px; text-anchor:start;" transform="rotate(0, 1787.78, 2865.02)" x="1787.78" y="2865.02">simulation</text>
</g>
<polyline clip-path="url(#clip9700)" style="stroke:#e26f46; stroke-width:4; stroke-opacity:1; fill:none" points="
  1451.78,2929.74 1739.78,2929.74 
  "/>
<g clip-path="url(#clip9700)">
<text style="fill:#000000; fill-opacity:1; font-family:Arial,Helvetica Neue,Helvetica,sans-serif; font-size:71px; text-anchor:start;" transform="rotate(0, 1787.78, 2955.74)" x="1787.78" y="2955.74">data</text>
</g>
<path clip-path="url(#clip9700)" d="
M2621.95 4579.89 L4752.76 4579.89 L4752.76 2551.02 L2621.95 2551.02  Z
  " fill="#ffffff" fill-rule="evenodd" fill-opacity="1"/>
<defs>
  <clipPath id="clip9705">
    <rect x="2621" y="2551" width="2132" height="2030"/>
  </clipPath>
</defs>
<polyline clip-path="url(#clip9705)" style="stroke:#000000; stroke-width:2; stroke-opacity:0.1; fill:none" points="
  2682.26,4579.89 2682.26,2551.02 
  "/>
<polyline clip-path="url(#clip9705)" style="stroke:#000000; stroke-width:2; stroke-opacity:0.1; fill:none" points="
  3184.8,4579.89 3184.8,2551.02 
  "/>
<polyline clip-path="url(#clip9705)" style="stroke:#000000; stroke-width:2; stroke-opacity:0.1; fill:none" points="
  3687.35,4579.89 3687.35,2551.02 
  "/>
<polyline clip-path="url(#clip9705)" style="stroke:#000000; stroke-width:2; stroke-opacity:0.1; fill:none" points="
  4189.9,4579.89 4189.9,2551.02 
  "/>
<polyline clip-path="url(#clip9705)" style="stroke:#000000; stroke-width:2; stroke-opacity:0.1; fill:none" points="
  4692.45,4579.89 4692.45,2551.02 
  "/>
<polyline clip-path="url(#clip9705)" style="stroke:#000000; stroke-width:2; stroke-opacity:0.1; fill:none" points="
  2621.95,4579.89 4752.76,4579.89 
  "/>
<polyline clip-path="url(#clip9705)" style="stroke:#000000; stroke-width:2; stroke-opacity:0.1; fill:none" points="
  2621.95,4129.03 4752.76,4129.03 
  "/>
<polyline clip-path="url(#clip9705)" style="stroke:#000000; stroke-width:2; stroke-opacity:0.1; fill:none" points="
  2621.95,3678.17 4752.76,3678.17 
  "/>
<polyline clip-path="url(#clip9705)" style="stroke:#000000; stroke-width:2; stroke-opacity:0.1; fill:none" points="
  2621.95,3227.31 4752.76,3227.31 
  "/>
<polyline clip-path="url(#clip9705)" style="stroke:#000000; stroke-width:2; stroke-opacity:0.1; fill:none" points="
  2621.95,2776.45 4752.76,2776.45 
  "/>
<polyline clip-path="url(#clip9700)" style="stroke:#000000; stroke-width:4; stroke-opacity:1; fill:none" points="
  2621.95,4579.89 4752.76,4579.89 
  "/>
<polyline clip-path="url(#clip9700)" style="stroke:#000000; stroke-width:4; stroke-opacity:1; fill:none" points="
  2621.95,4579.89 2621.95,2551.02 
  "/>
<polyline clip-path="url(#clip9700)" style="stroke:#000000; stroke-width:4; stroke-opacity:1; fill:none" points="
  2682.26,4579.89 2682.26,4555.55 
  "/>
<polyline clip-path="url(#clip9700)" style="stroke:#000000; stroke-width:4; stroke-opacity:1; fill:none" points="
  3184.8,4579.89 3184.8,4555.55 
  "/>
<polyline clip-path="url(#clip9700)" style="stroke:#000000; stroke-width:4; stroke-opacity:1; fill:none" points="
  3687.35,4579.89 3687.35,4555.55 
  "/>
<polyline clip-path="url(#clip9700)" style="stroke:#000000; stroke-width:4; stroke-opacity:1; fill:none" points="
  4189.9,4579.89 4189.9,4555.55 
  "/>
<polyline clip-path="url(#clip9700)" style="stroke:#000000; stroke-width:4; stroke-opacity:1; fill:none" points="
  4692.45,4579.89 4692.45,4555.55 
  "/>
<polyline clip-path="url(#clip9700)" style="stroke:#000000; stroke-width:4; stroke-opacity:1; fill:none" points="
  2621.95,4579.89 2647.52,4579.89 
  "/>
<polyline clip-path="url(#clip9700)" style="stroke:#000000; stroke-width:4; stroke-opacity:1; fill:none" points="
  2621.95,4129.03 2647.52,4129.03 
  "/>
<polyline clip-path="url(#clip9700)" style="stroke:#000000; stroke-width:4; stroke-opacity:1; fill:none" points="
  2621.95,3678.17 2647.52,3678.17 
  "/>
<polyline clip-path="url(#clip9700)" style="stroke:#000000; stroke-width:4; stroke-opacity:1; fill:none" points="
  2621.95,3227.31 2647.52,3227.31 
  "/>
<polyline clip-path="url(#clip9700)" style="stroke:#000000; stroke-width:4; stroke-opacity:1; fill:none" points="
  2621.95,2776.45 2647.52,2776.45 
  "/>
<g clip-path="url(#clip9700)">
<text style="fill:#000000; fill-opacity:1; font-family:Arial,Helvetica Neue,Helvetica,sans-serif; font-size:71px; text-anchor:middle;" transform="rotate(0, 2682.26, 4666.29)" x="2682.26" y="4666.29">0</text>
</g>
<g clip-path="url(#clip9700)">
<text style="fill:#000000; fill-opacity:1; font-family:Arial,Helvetica Neue,Helvetica,sans-serif; font-size:71px; text-anchor:middle;" transform="rotate(0, 3184.8, 4666.29)" x="3184.8" y="4666.29">2</text>
</g>
<g clip-path="url(#clip9700)">
<text style="fill:#000000; fill-opacity:1; font-family:Arial,Helvetica Neue,Helvetica,sans-serif; font-size:71px; text-anchor:middle;" transform="rotate(0, 3687.35, 4666.29)" x="3687.35" y="4666.29">4</text>
</g>
<g clip-path="url(#clip9700)">
<text style="fill:#000000; fill-opacity:1; font-family:Arial,Helvetica Neue,Helvetica,sans-serif; font-size:71px; text-anchor:middle;" transform="rotate(0, 4189.9, 4666.29)" x="4189.9" y="4666.29">6</text>
</g>
<g clip-path="url(#clip9700)">
<text style="fill:#000000; fill-opacity:1; font-family:Arial,Helvetica Neue,Helvetica,sans-serif; font-size:71px; text-anchor:middle;" transform="rotate(0, 4692.45, 4666.29)" x="4692.45" y="4666.29">8</text>
</g>
<g clip-path="url(#clip9700)">
<text style="fill:#000000; fill-opacity:1; font-family:Arial,Helvetica Neue,Helvetica,sans-serif; font-size:71px; text-anchor:end;" transform="rotate(0, 2573.95, 4605.89)" x="2573.95" y="4605.89">0</text>
</g>
<g clip-path="url(#clip9700)">
<text style="fill:#000000; fill-opacity:1; font-family:Arial,Helvetica Neue,Helvetica,sans-serif; font-size:71px; text-anchor:end;" transform="rotate(0, 2573.95, 4155.03)" x="2573.95" y="4155.03">1</text>
</g>
<g clip-path="url(#clip9700)">
<text style="fill:#000000; fill-opacity:1; font-family:Arial,Helvetica Neue,Helvetica,sans-serif; font-size:71px; text-anchor:end;" transform="rotate(0, 2573.95, 3704.17)" x="2573.95" y="3704.17">2</text>
</g>
<g clip-path="url(#clip9700)">
<text style="fill:#000000; fill-opacity:1; font-family:Arial,Helvetica Neue,Helvetica,sans-serif; font-size:71px; text-anchor:end;" transform="rotate(0, 2573.95, 3253.31)" x="2573.95" y="3253.31">3</text>
</g>
<g clip-path="url(#clip9700)">
<text style="fill:#000000; fill-opacity:1; font-family:Arial,Helvetica Neue,Helvetica,sans-serif; font-size:71px; text-anchor:end;" transform="rotate(0, 2573.95, 2802.45)" x="2573.95" y="2802.45">4</text>
</g>
<g clip-path="url(#clip9700)">
<text style="fill:#000000; fill-opacity:1; font-family:Arial,Helvetica Neue,Helvetica,sans-serif; font-size:125px; text-anchor:middle;" transform="rotate(0, 3687.35, 2509.2)" x="3687.35" y="2509.2">Overweight hypothyroid patient 45 mcg (n = 4)</text>
</g>
<g clip-path="url(#clip9700)">
<text style="fill:#000000; fill-opacity:1; font-family:Arial,Helvetica Neue,Helvetica,sans-serif; font-size:95px; text-anchor:middle;" transform="rotate(0, 3687.35, 4790.14)" x="3687.35" y="4790.14">Time (hours)</text>
</g>
<g clip-path="url(#clip9700)">
<text style="fill:#000000; fill-opacity:1; font-family:Arial,Helvetica Neue,Helvetica,sans-serif; font-size:95px; text-anchor:middle;" transform="rotate(-90, 2468.01, 3565.46)" x="2468.01" y="3565.46">T3 mcg/L</text>
</g>
<path clip-path="url(#clip9705)" d="
M2682.26 4203.13 L2707.38 4183.05 L2732.51 4124.16 L2757.64 4050.05 L2782.77 3969.23 L2807.89 3886.34 L2833.02 3804.12 L2858.15 3724.48 L2883.28 3648.84 L2908.4 3578.12 
  L2933.53 3512.86 L2958.66 3453.65 L2983.78 3400.34 L3008.91 3352.84 L3034.04 3312 L3059.17 3276.75 L3084.29 3245.33 L3109.42 3220.81 L3134.55 3203.11 L3159.68 3183.93 
  L3184.8 3172.27 L3209.93 3168.39 L3235.06 3157.85 L3260.19 3160.28 L3285.31 3161.41 L3310.44 3163.9 L3335.57 3172.98 L3360.7 3178.5 L3385.82 3191.29 L3410.95 3201.25 
  L3436.08 3215.27 L3461.21 3229.82 L3486.33 3243.72 L3511.46 3261.6 L3536.59 3276.29 L3561.72 3294.91 L3586.84 3312.67 L3611.97 3329.23 L3637.1 3349.68 L3662.23 3365.78 
  L3687.35 3385.65 L3712.48 3404.48 L3737.61 3421.1 L3762.74 3441.92 L3787.86 3457.73 L3812.99 3477.19 L3838.12 3495.26 L3863.24 3511.2 L3888.37 3530.81 L3913.5 3545.46 
  L3938.63 3563.75 L3963.75 3580.05 L3988.88 3594.88 L4014.01 3612.65 L4039.14 3625.7 L4064.26 3642.41 L4089.39 3656.69 L4114.52 3670.07 L4139.65 3685.88 L4164.77 3697.2 
  L4189.9 3712.2 L4215.03 3724.48 L4240.16 3736.34 L4265.28 3750.21 L4290.41 3759.88 L4315.54 3773.2 L4340.67 3783.61 L4365.79 3794.03 L4390.92 3806.06 L4416.05 3814.27 
  L4441.18 3826.01 L4466.3 3834.73 L4491.43 3843.88 L4516.56 3854.2 L4541.69 3861.15 L4566.81 3871.47 L4591.94 3878.71 L4617.07 3886.74 L4642.2 3895.56 L4667.32 3901.51 
  L4692.45 3909.5 L4692.45 3837.2 L4667.32 3829.46 L4642.2 3822.19 L4617.07 3813.71 L4591.94 3805.55 L4566.81 3796.99 L4541.69 3787.76 L4516.56 3778.98 L4491.43 3769.18 
  L4466.3 3759.57 L4441.18 3749.69 L4416.05 3738.92 L4390.92 3728.66 L4365.79 3717.35 L4340.67 3706.1 L4315.54 3694.72 L4290.41 3682.2 L4265.28 3670.32 L4240.16 3657.28 
  L4215.03 3644.23 L4189.9 3631.19 L4164.77 3616.74 L4139.65 3603.15 L4114.52 3588.21 L4089.39 3573.26 L4064.26 3558.46 L4039.14 3541.98 L4014.01 3526.68 L3988.88 3509.74 
  L3963.75 3492.95 L3938.63 3476.41 L3913.5 3457.97 L3888.37 3441.18 L3863.24 3422.34 L3838.12 3404.03 L3812.99 3386.03 L3787.86 3365.97 L3762.74 3348.24 L3737.61 3328.04 
  L3712.48 3308.89 L3687.35 3290.24 L3662.23 3269.46 L3637.1 3251.71 L3611.97 3231.58 L3586.84 3212.72 L3561.72 3195 L3536.59 3175.42 L3511.46 3159.34 L3486.33 3141.54 
  L3461.21 3125.67 L3436.08 3111.24 L3410.95 3096.06 L3385.82 3085.36 L3360.7 3072.69 L3335.57 3065.29 L3310.44 3057.21 L3285.31 3052.52 L3260.19 3052.46 L3235.06 3049.59 
  L3209.93 3059.3 L3184.8 3064.62 L3159.68 3075.13 L3134.55 3095.49 L3109.42 3113.74 L3084.29 3138.75 L3059.17 3171.52 L3034.04 3207.8 L3008.91 3250.04 L2983.78 3299.35 
  L2958.66 3354.57 L2933.53 3415.96 L2908.4 3483.71 L2883.28 3557.1 L2858.15 3635.64 L2833.02 3718.35 L2807.89 3803.74 L2782.77 3889.85 L2757.64 3973.83 L2732.51 4050.86 
  L2707.38 4112.1 L2682.26 4132.71  Z
  " fill="#009af9" fill-rule="evenodd" fill-opacity="0.3"/>
<polyline clip-path="url(#clip9705)" style="stroke:#009af9; stroke-width:4; stroke-opacity:1; fill:none" points="
  2682.26,4167.92 2707.38,4147.57 2732.51,4087.51 2757.64,4011.94 2782.77,3929.54 2807.89,3845.04 2833.02,3761.24 2858.15,3680.06 2883.28,3602.97 2908.4,3530.91 
  2933.53,3464.41 2958.66,3404.11 2983.78,3349.84 3008.91,3301.44 3034.04,3259.9 3059.17,3224.13 3084.29,3192.04 3109.42,3167.27 3134.55,3149.3 3159.68,3129.53 
  3184.8,3118.45 3209.93,3113.84 3235.06,3103.72 3260.19,3106.37 3285.31,3106.96 3310.44,3110.55 3335.57,3119.14 3360.7,3125.59 3385.82,3138.32 3410.95,3148.65 
  3436.08,3163.26 3461.21,3177.75 3486.33,3192.63 3511.46,3210.47 3536.59,3225.86 3561.72,3244.96 3586.84,3262.7 3611.97,3280.4 3637.1,3300.7 3662.23,3317.62 
  3687.35,3337.95 3712.48,3356.69 3737.61,3374.57 3762.74,3395.08 3787.86,3411.85 3812.99,3431.61 3838.12,3449.65 3863.24,3466.77 3888.37,3485.99 3913.5,3501.71 
  3938.63,3520.08 3963.75,3536.5 3988.88,3552.31 4014.01,3569.67 4039.14,3583.84 4064.26,3600.44 4089.39,3614.97 4114.52,3629.14 4139.65,3644.52 4164.77,3656.97 
  4189.9,3671.7 4215.03,3684.36 4240.16,3696.81 4265.28,3710.27 4290.41,3721.04 4315.54,3733.96 4340.67,3744.86 4365.79,3755.69 4390.92,3767.36 4416.05,3776.59 
  4441.18,3787.85 4466.3,3797.15 4491.43,3806.53 4516.56,3816.59 4541.69,3824.45 4566.81,3834.23 4591.94,3842.13 4617.07,3850.23 4642.2,3858.87 4667.32,3865.49 
  4692.45,3873.35 
  "/>
<polyline clip-path="url(#clip9705)" style="stroke:#e26f46; stroke-width:4; stroke-opacity:1; fill:none" points="
  2682.26,4167.92 2807.89,4024.88 2933.53,3307.68 3184.8,2860.31 3436.08,3105.91 3687.35,3263.72 3938.63,3510.56 4189.9,3641.43 4441.18,3759.1 4692.45,3855.36 
  
  "/>
<polyline clip-path="url(#clip9705)" style="stroke:#e26f46; stroke-width:4; stroke-opacity:1; fill:none" points="
  2682.26,4203.13 2682.26,4132.71 
  "/>
<polyline clip-path="url(#clip9705)" style="stroke:#e26f46; stroke-width:4; stroke-opacity:1; fill:none" points="
  2807.89,4051.26 2807.89,3998.51 
  "/>
<polyline clip-path="url(#clip9705)" style="stroke:#e26f46; stroke-width:4; stroke-opacity:1; fill:none" points="
  2933.53,3492.43 2933.53,3122.92 
  "/>
<polyline clip-path="url(#clip9705)" style="stroke:#e26f46; stroke-width:4; stroke-opacity:1; fill:none" points="
  3184.8,3134.02 3184.8,2586.59 
  "/>
<polyline clip-path="url(#clip9705)" style="stroke:#e26f46; stroke-width:4; stroke-opacity:1; fill:none" points="
  3436.08,3356.24 3436.08,2855.59 
  "/>
<polyline clip-path="url(#clip9705)" style="stroke:#e26f46; stroke-width:4; stroke-opacity:1; fill:none" points="
  3687.35,3457.2 3687.35,3070.23 
  "/>
<polyline clip-path="url(#clip9705)" style="stroke:#e26f46; stroke-width:4; stroke-opacity:1; fill:none" points="
  3938.63,3645.71 3938.63,3375.42 
  "/>
<polyline clip-path="url(#clip9705)" style="stroke:#e26f46; stroke-width:4; stroke-opacity:1; fill:none" points="
  4189.9,3728.01 4189.9,3554.84 
  "/>
<polyline clip-path="url(#clip9705)" style="stroke:#e26f46; stroke-width:4; stroke-opacity:1; fill:none" points="
  4441.18,3858.19 4441.18,3660.01 
  "/>
<polyline clip-path="url(#clip9705)" style="stroke:#e26f46; stroke-width:4; stroke-opacity:1; fill:none" points="
  4692.45,3935.5 4692.45,3775.22 
  "/>
<line clip-path="url(#clip9705)" x1="2702.26" y1="4203.13" x2="2662.26" y2="4203.13" style="stroke:#000000; stroke-width:4; stroke-opacity:1"/>
<line clip-path="url(#clip9705)" x1="2702.26" y1="4132.71" x2="2662.26" y2="4132.71" style="stroke:#000000; stroke-width:4; stroke-opacity:1"/>
<line clip-path="url(#clip9705)" x1="2827.89" y1="4051.26" x2="2787.89" y2="4051.26" style="stroke:#000000; stroke-width:4; stroke-opacity:1"/>
<line clip-path="url(#clip9705)" x1="2827.89" y1="3998.51" x2="2787.89" y2="3998.51" style="stroke:#000000; stroke-width:4; stroke-opacity:1"/>
<line clip-path="url(#clip9705)" x1="2953.53" y1="3492.43" x2="2913.53" y2="3492.43" style="stroke:#000000; stroke-width:4; stroke-opacity:1"/>
<line clip-path="url(#clip9705)" x1="2953.53" y1="3122.92" x2="2913.53" y2="3122.92" style="stroke:#000000; stroke-width:4; stroke-opacity:1"/>
<line clip-path="url(#clip9705)" x1="3204.8" y1="3134.02" x2="3164.8" y2="3134.02" style="stroke:#000000; stroke-width:4; stroke-opacity:1"/>
<line clip-path="url(#clip9705)" x1="3204.8" y1="2586.59" x2="3164.8" y2="2586.59" style="stroke:#000000; stroke-width:4; stroke-opacity:1"/>
<line clip-path="url(#clip9705)" x1="3456.08" y1="3356.24" x2="3416.08" y2="3356.24" style="stroke:#000000; stroke-width:4; stroke-opacity:1"/>
<line clip-path="url(#clip9705)" x1="3456.08" y1="2855.59" x2="3416.08" y2="2855.59" style="stroke:#000000; stroke-width:4; stroke-opacity:1"/>
<line clip-path="url(#clip9705)" x1="3707.35" y1="3457.2" x2="3667.35" y2="3457.2" style="stroke:#000000; stroke-width:4; stroke-opacity:1"/>
<line clip-path="url(#clip9705)" x1="3707.35" y1="3070.23" x2="3667.35" y2="3070.23" style="stroke:#000000; stroke-width:4; stroke-opacity:1"/>
<line clip-path="url(#clip9705)" x1="3958.63" y1="3645.71" x2="3918.63" y2="3645.71" style="stroke:#000000; stroke-width:4; stroke-opacity:1"/>
<line clip-path="url(#clip9705)" x1="3958.63" y1="3375.42" x2="3918.63" y2="3375.42" style="stroke:#000000; stroke-width:4; stroke-opacity:1"/>
<line clip-path="url(#clip9705)" x1="4209.9" y1="3728.01" x2="4169.9" y2="3728.01" style="stroke:#000000; stroke-width:4; stroke-opacity:1"/>
<line clip-path="url(#clip9705)" x1="4209.9" y1="3554.84" x2="4169.9" y2="3554.84" style="stroke:#000000; stroke-width:4; stroke-opacity:1"/>
<line clip-path="url(#clip9705)" x1="4461.18" y1="3858.19" x2="4421.18" y2="3858.19" style="stroke:#000000; stroke-width:4; stroke-opacity:1"/>
<line clip-path="url(#clip9705)" x1="4461.18" y1="3660.01" x2="4421.18" y2="3660.01" style="stroke:#000000; stroke-width:4; stroke-opacity:1"/>
<line clip-path="url(#clip9705)" x1="4712.45" y1="3935.5" x2="4672.45" y2="3935.5" style="stroke:#000000; stroke-width:4; stroke-opacity:1"/>
<line clip-path="url(#clip9705)" x1="4712.45" y1="3775.22" x2="4672.45" y2="3775.22" style="stroke:#000000; stroke-width:4; stroke-opacity:1"/>
<path clip-path="url(#clip9700)" d="
M3803.78 3020.46 L4608.76 3020.46 L4608.76 2748.3 L3803.78 2748.3  Z
  " fill="#ffffff" fill-rule="evenodd" fill-opacity="1"/>
<polyline clip-path="url(#clip9700)" style="stroke:#000000; stroke-width:4; stroke-opacity:1; fill:none" points="
  3803.78,3020.46 4608.76,3020.46 4608.76,2748.3 3803.78,2748.3 3803.78,3020.46 
  "/>
<polyline clip-path="url(#clip9700)" style="stroke:#009af9; stroke-width:4; stroke-opacity:1; fill:none" points="
  3851.78,2839.02 4139.78,2839.02 
  "/>
<g clip-path="url(#clip9700)">
<text style="fill:#000000; fill-opacity:1; font-family:Arial,Helvetica Neue,Helvetica,sans-serif; font-size:71px; text-anchor:start;" transform="rotate(0, 4187.78, 2865.02)" x="4187.78" y="2865.02">simulation</text>
</g>
<polyline clip-path="url(#clip9700)" style="stroke:#e26f46; stroke-width:4; stroke-opacity:1; fill:none" points="
  3851.78,2929.74 4139.78,2929.74 
  "/>
<g clip-path="url(#clip9700)">
<text style="fill:#000000; fill-opacity:1; font-family:Arial,Helvetica Neue,Helvetica,sans-serif; font-size:71px; text-anchor:start;" transform="rotate(0, 4187.78, 2955.74)" x="4187.78" y="2955.74">data</text>
</g>
</svg>
