<?xml version="1.0" encoding="utf-8"?>
<svg xmlns="http://www.w3.org/2000/svg" xmlns:xlink="http://www.w3.org/1999/xlink" width="1200" height="1200" viewBox="0 0 4800 4800">
<defs>
  <clipPath id="clip7900">
    <rect x="0" y="0" width="4800" height="4800"/>
  </clipPath>
</defs>
<path clip-path="url(#clip7900)" d="
M0 4800 L4800 4800 L4800 0 L0 0  Z
  " fill="#ffffff" fill-rule="evenodd" fill-opacity="1"/>
<defs>
  <clipPath id="clip7901">
    <rect x="960" y="480" width="3361" height="3361"/>
  </clipPath>
</defs>
<path clip-path="url(#clip7900)" d="
M267.483 2097.21 L2352.76 2097.21 L2352.76 195.029 L267.483 195.029  Z
  " fill="#ffffff" fill-rule="evenodd" fill-opacity="1"/>
<defs>
  <clipPath id="clip7902">
    <rect x="267" y="195" width="2086" height="1903"/>
  </clipPath>
</defs>
<polyline clip-path="url(#clip7902)" style="stroke:#000000; stroke-width:2; stroke-opacity:0.1; fill:none" points="
  326.5,2097.21 326.5,195.029 
  "/>
<polyline clip-path="url(#clip7902)" style="stroke:#000000; stroke-width:2; stroke-opacity:0.1; fill:none" points="
  818.31,2097.21 818.31,195.029 
  "/>
<polyline clip-path="url(#clip7902)" style="stroke:#000000; stroke-width:2; stroke-opacity:0.1; fill:none" points="
  1310.12,2097.21 1310.12,195.029 
  "/>
<polyline clip-path="url(#clip7902)" style="stroke:#000000; stroke-width:2; stroke-opacity:0.1; fill:none" points="
  1801.93,2097.21 1801.93,195.029 
  "/>
<polyline clip-path="url(#clip7902)" style="stroke:#000000; stroke-width:2; stroke-opacity:0.1; fill:none" points="
  2293.74,2097.21 2293.74,195.029 
  "/>
<polyline clip-path="url(#clip7902)" style="stroke:#000000; stroke-width:2; stroke-opacity:0.1; fill:none" points="
  267.483,2097.21 2352.76,2097.21 
  "/>
<polyline clip-path="url(#clip7902)" style="stroke:#000000; stroke-width:2; stroke-opacity:0.1; fill:none" points="
  267.483,1674.5 2352.76,1674.5 
  "/>
<polyline clip-path="url(#clip7902)" style="stroke:#000000; stroke-width:2; stroke-opacity:0.1; fill:none" points="
  267.483,1251.8 2352.76,1251.8 
  "/>
<polyline clip-path="url(#clip7902)" style="stroke:#000000; stroke-width:2; stroke-opacity:0.1; fill:none" points="
  267.483,829.09 2352.76,829.09 
  "/>
<polyline clip-path="url(#clip7902)" style="stroke:#000000; stroke-width:2; stroke-opacity:0.1; fill:none" points="
  267.483,406.382 2352.76,406.382 
  "/>
<polyline clip-path="url(#clip7900)" style="stroke:#000000; stroke-width:4; stroke-opacity:1; fill:none" points="
  267.483,2097.21 2352.76,2097.21 
  "/>
<polyline clip-path="url(#clip7900)" style="stroke:#000000; stroke-width:4; stroke-opacity:1; fill:none" points="
  267.483,2097.21 267.483,195.029 
  "/>
<polyline clip-path="url(#clip7900)" style="stroke:#000000; stroke-width:4; stroke-opacity:1; fill:none" points="
  326.5,2097.21 326.5,2074.38 
  "/>
<polyline clip-path="url(#clip7900)" style="stroke:#000000; stroke-width:4; stroke-opacity:1; fill:none" points="
  818.31,2097.21 818.31,2074.38 
  "/>
<polyline clip-path="url(#clip7900)" style="stroke:#000000; stroke-width:4; stroke-opacity:1; fill:none" points="
  1310.12,2097.21 1310.12,2074.38 
  "/>
<polyline clip-path="url(#clip7900)" style="stroke:#000000; stroke-width:4; stroke-opacity:1; fill:none" points="
  1801.93,2097.21 1801.93,2074.38 
  "/>
<polyline clip-path="url(#clip7900)" style="stroke:#000000; stroke-width:4; stroke-opacity:1; fill:none" points="
  2293.74,2097.21 2293.74,2074.38 
  "/>
<polyline clip-path="url(#clip7900)" style="stroke:#000000; stroke-width:4; stroke-opacity:1; fill:none" points="
  267.483,2097.21 292.506,2097.21 
  "/>
<polyline clip-path="url(#clip7900)" style="stroke:#000000; stroke-width:4; stroke-opacity:1; fill:none" points="
  267.483,1674.5 292.506,1674.5 
  "/>
<polyline clip-path="url(#clip7900)" style="stroke:#000000; stroke-width:4; stroke-opacity:1; fill:none" points="
  267.483,1251.8 292.506,1251.8 
  "/>
<polyline clip-path="url(#clip7900)" style="stroke:#000000; stroke-width:4; stroke-opacity:1; fill:none" points="
  267.483,829.09 292.506,829.09 
  "/>
<polyline clip-path="url(#clip7900)" style="stroke:#000000; stroke-width:4; stroke-opacity:1; fill:none" points="
  267.483,406.382 292.506,406.382 
  "/>
<g clip-path="url(#clip7900)">
<text style="fill:#000000; fill-opacity:1; font-family:Arial,Helvetica Neue,Helvetica,sans-serif; font-size:71px; text-anchor:middle;" transform="rotate(0, 326.5, 2183.61)" x="326.5" y="2183.61">0</text>
</g>
<g clip-path="url(#clip7900)">
<text style="fill:#000000; fill-opacity:1; font-family:Arial,Helvetica Neue,Helvetica,sans-serif; font-size:71px; text-anchor:middle;" transform="rotate(0, 818.31, 2183.61)" x="818.31" y="2183.61">2</text>
</g>
<g clip-path="url(#clip7900)">
<text style="fill:#000000; fill-opacity:1; font-family:Arial,Helvetica Neue,Helvetica,sans-serif; font-size:71px; text-anchor:middle;" transform="rotate(0, 1310.12, 2183.61)" x="1310.12" y="2183.61">4</text>
</g>
<g clip-path="url(#clip7900)">
<text style="fill:#000000; fill-opacity:1; font-family:Arial,Helvetica Neue,Helvetica,sans-serif; font-size:71px; text-anchor:middle;" transform="rotate(0, 1801.93, 2183.61)" x="1801.93" y="2183.61">6</text>
</g>
<g clip-path="url(#clip7900)">
<text style="fill:#000000; fill-opacity:1; font-family:Arial,Helvetica Neue,Helvetica,sans-serif; font-size:71px; text-anchor:middle;" transform="rotate(0, 2293.74, 2183.61)" x="2293.74" y="2183.61">8</text>
</g>
<g clip-path="url(#clip7900)">
<text style="fill:#000000; fill-opacity:1; font-family:Arial,Helvetica Neue,Helvetica,sans-serif; font-size:71px; text-anchor:end;" transform="rotate(0, 219.483, 2123.21)" x="219.483" y="2123.21">0</text>
</g>
<g clip-path="url(#clip7900)">
<text style="fill:#000000; fill-opacity:1; font-family:Arial,Helvetica Neue,Helvetica,sans-serif; font-size:71px; text-anchor:end;" transform="rotate(0, 219.483, 1700.5)" x="219.483" y="1700.5">1</text>
</g>
<g clip-path="url(#clip7900)">
<text style="fill:#000000; fill-opacity:1; font-family:Arial,Helvetica Neue,Helvetica,sans-serif; font-size:71px; text-anchor:end;" transform="rotate(0, 219.483, 1277.8)" x="219.483" y="1277.8">2</text>
</g>
<g clip-path="url(#clip7900)">
<text style="fill:#000000; fill-opacity:1; font-family:Arial,Helvetica Neue,Helvetica,sans-serif; font-size:71px; text-anchor:end;" transform="rotate(0, 219.483, 855.09)" x="219.483" y="855.09">3</text>
</g>
<g clip-path="url(#clip7900)">
<text style="fill:#000000; fill-opacity:1; font-family:Arial,Helvetica Neue,Helvetica,sans-serif; font-size:71px; text-anchor:end;" transform="rotate(0, 219.483, 432.382)" x="219.483" y="432.382">4</text>
</g>
<g clip-path="url(#clip7900)">
<text style="fill:#000000; fill-opacity:1; font-family:Arial,Helvetica Neue,Helvetica,sans-serif; font-size:125px; text-anchor:middle;" transform="rotate(0, 1310.12, 109.2)" x="1310.12" y="109.2">Normal hypothyroid patient 30 mcg (n = 6)</text>
</g>
<g clip-path="url(#clip7900)">
<text style="fill:#000000; fill-opacity:1; font-family:Arial,Helvetica Neue,Helvetica,sans-serif; font-size:95px; text-anchor:middle;" transform="rotate(0, 1310.12, 2307.46)" x="1310.12" y="2307.46">Time (hours)</text>
</g>
<g clip-path="url(#clip7900)">
<text style="fill:#000000; fill-opacity:1; font-family:Arial,Helvetica Neue,Helvetica,sans-serif; font-size:95px; text-anchor:middle;" transform="rotate(-90, 113.54, 1146.12)" x="113.54" y="1146.12">T3 mcg/L</text>
</g>
<path clip-path="url(#clip7902)" d="
M326.5 1709.93 L351.091 1694.97 L375.681 1654.92 L400.272 1605.84 L424.862 1552.86 L449.453 1498.93 L474.043 1445.67 L498.634 1394.23 L523.224 1345.51 L547.815 1300.07 
  L572.405 1258.09 L596.996 1220.26 L621.586 1186.07 L646.177 1155.36 L670.767 1129.71 L695.357 1106.58 L719.948 1086.09 L744.538 1071.61 L769.129 1057.47 L793.719 1046.39 
  L818.31 1039.88 L842.9 1033.29 L867.491 1030.52 L892.081 1029.46 L916.672 1029.69 L941.262 1032.32 L965.853 1035.48 L990.443 1040.72 L1015.03 1046.36 L1039.62 1053.44 
  L1064.21 1061.22 L1088.81 1069.53 L1113.4 1078.86 L1137.99 1088.06 L1162.58 1098.38 L1187.17 1108.52 L1211.76 1119.25 L1236.35 1130.23 L1260.94 1140.95 L1285.53 1152.32 
  L1310.12 1163.12 L1334.71 1174.48 L1359.3 1185.6 L1383.89 1196.66 L1408.48 1207.82 L1433.07 1218.45 L1457.66 1229.44 L1482.25 1239.83 L1506.84 1250.46 L1531.43 1260.77 
  L1556.02 1270.73 L1580.61 1280.87 L1605.21 1290.19 L1629.8 1300.09 L1654.39 1309.03 L1678.98 1318.33 L1703.57 1327.16 L1728.16 1335.55 L1752.75 1344.41 L1777.34 1351.97 
  L1801.93 1360.68 L1826.52 1367.85 L1851.11 1375.79 L1875.7 1383.02 L1900.29 1389.84 L1924.88 1397.42 L1949.47 1403.29 L1974.06 1410.78 L1998.65 1416.37 L2023.24 1423 
  L2047.83 1428.91 L2072.42 1434.3 L2097.01 1440.66 L2121.61 1445.21 L2146.2 1451.4 L2170.79 1455.89 L2195.38 1461.17 L2219.97 1466.11 L2244.56 1470.26 L2269.15 1475.21 
  L2293.74 1479.21 L2293.74 1357.07 L2269.15 1352.82 L2244.56 1348.8 L2219.97 1343.83 L2195.38 1339.62 L2170.79 1334.11 L2146.2 1329.7 L2121.61 1323.96 L2097.01 1318.94 
  L2072.42 1313.34 L2047.83 1307.47 L2023.24 1302.08 L1998.65 1295.37 L1974.06 1289.88 L1949.47 1282.67 L1924.88 1276.65 L1900.29 1269.43 L1875.7 1262.52 L1851.11 1255.5 
  L1826.52 1247.74 L1801.93 1240.54 L1777.34 1232.2 L1752.75 1224.49 L1728.16 1215.92 L1703.57 1207.5 L1678.98 1198.75 L1654.39 1189.7 L1629.8 1180.62 L1605.21 1171.19 
  L1580.61 1161.58 L1556.02 1151.88 L1531.43 1141.67 L1506.84 1131.65 L1482.25 1120.95 L1457.66 1110.57 L1433.07 1099.76 L1408.48 1088.86 L1383.89 1078.1 L1359.3 1066.62 
  L1334.71 1055.97 L1310.12 1044.1 L1285.53 1033.66 L1260.94 1021.76 L1236.35 1011.28 L1211.76 1000 L1187.17 989.138 L1162.58 979.098 L1137.99 968.042 L1113.4 959.34 
  L1088.81 948.873 L1064.21 941.181 L1039.62 932.312 L1015.03 925.543 L990.443 919.119 L965.853 913.593 L941.262 910.112 L916.672 906.445 L892.081 906.564 L867.491 905.47 
  L842.9 909.834 L818.31 912.6 L793.719 921.639 L769.129 929.418 L744.538 943.398 L719.948 958.083 L695.357 975.564 L670.767 998.613 L646.177 1022.69 L621.586 1051.52 
  L596.996 1084.26 L572.405 1120.1 L547.815 1159.96 L523.224 1203.17 L498.634 1249.38 L474.043 1298.18 L449.453 1348.62 L424.862 1399.67 L400.272 1449.71 L375.681 1496 
  L351.091 1533.32 L326.5 1545.1  Z
  " fill="#009af9" fill-rule="evenodd" fill-opacity="0.3"/>
<polyline clip-path="url(#clip7902)" style="stroke:#009af9; stroke-width:4; stroke-opacity:1; fill:none" points="
  326.5,1627.51 351.091,1614.15 375.681,1575.46 400.272,1527.78 424.862,1476.27 449.453,1423.77 474.043,1371.92 498.634,1321.8 523.224,1274.34 547.815,1230.01 
  572.405,1189.1 596.996,1152.26 621.586,1118.8 646.177,1089.02 670.767,1064.16 695.357,1041.07 719.948,1022.09 744.538,1007.5 769.129,993.442 793.719,984.017 
  818.31,976.24 842.9,971.562 867.491,967.996 892.081,968.01 916.672,968.065 941.262,971.218 965.853,974.538 990.443,979.918 1015.03,985.954 1039.62,992.874 
  1064.21,1001.2 1088.81,1009.2 1113.4,1019.1 1137.99,1028.05 1162.58,1038.74 1187.17,1048.83 1211.76,1059.62 1236.35,1070.76 1260.94,1081.36 1285.53,1092.99 
  1310.12,1103.61 1334.71,1115.23 1359.3,1126.11 1383.89,1137.38 1408.48,1148.34 1433.07,1159.1 1457.66,1170.01 1482.25,1180.39 1506.84,1191.06 1531.43,1201.22 
  1556.02,1211.31 1580.61,1221.23 1605.21,1230.69 1629.8,1240.36 1654.39,1249.36 1678.98,1258.54 1703.57,1267.33 1728.16,1275.73 1752.75,1284.45 1777.34,1292.09 
  1801.93,1300.61 1826.52,1307.79 1851.11,1315.64 1875.7,1322.77 1900.29,1329.63 1924.88,1337.04 1949.47,1342.98 1974.06,1350.33 1998.65,1355.87 2023.24,1362.54 
  2047.83,1368.19 2072.42,1373.82 2097.01,1379.8 2121.61,1384.58 2146.2,1390.55 2170.79,1395 2195.38,1400.4 2219.97,1404.97 2244.56,1409.53 2269.15,1414.01 
  2293.74,1418.14 
  "/>
<polyline clip-path="url(#clip7902)" style="stroke:#e26f46; stroke-width:4; stroke-opacity:1; fill:none" points="
  326.5,1627.51 449.453,1486.26 572.405,1170.57 818.31,972.669 1064.21,1091.03 1310.12,1223.97 1556.02,1340.99 1801.93,1404.18 2047.83,1424.75 2293.74,1445.26 
  
  "/>
<polyline clip-path="url(#clip7902)" style="stroke:#e26f46; stroke-width:4; stroke-opacity:1; fill:none" points="
  326.5,1709.93 326.5,1545.1 
  "/>
<polyline clip-path="url(#clip7902)" style="stroke:#e26f46; stroke-width:4; stroke-opacity:1; fill:none" points="
  449.453,1606.47 449.453,1366.05 
  "/>
<polyline clip-path="url(#clip7902)" style="stroke:#e26f46; stroke-width:4; stroke-opacity:1; fill:none" points="
  572.405,1328.73 572.405,1012.4 
  "/>
<polyline clip-path="url(#clip7902)" style="stroke:#e26f46; stroke-width:4; stroke-opacity:1; fill:none" points="
  818.31,1093.9 818.31,851.441 
  "/>
<polyline clip-path="url(#clip7902)" style="stroke:#e26f46; stroke-width:4; stroke-opacity:1; fill:none" points="
  1064.21,1220.62 1064.21,961.434 
  "/>
<polyline clip-path="url(#clip7902)" style="stroke:#e26f46; stroke-width:4; stroke-opacity:1; fill:none" points="
  1310.12,1334.69 1310.12,1113.24 
  "/>
<polyline clip-path="url(#clip7902)" style="stroke:#e26f46; stroke-width:4; stroke-opacity:1; fill:none" points="
  1556.02,1449.68 1556.02,1232.3 
  "/>
<polyline clip-path="url(#clip7902)" style="stroke:#e26f46; stroke-width:4; stroke-opacity:1; fill:none" points="
  1801.93,1510.6 1801.93,1297.76 
  "/>
<polyline clip-path="url(#clip7902)" style="stroke:#e26f46; stroke-width:4; stroke-opacity:1; fill:none" points="
  2047.83,1532.66 2047.83,1316.85 
  "/>
<polyline clip-path="url(#clip7902)" style="stroke:#e26f46; stroke-width:4; stroke-opacity:1; fill:none" points="
  2293.74,1560.84 2293.74,1329.67 
  "/>
<line clip-path="url(#clip7902)" x1="346.5" y1="1709.93" x2="306.5" y2="1709.93" style="stroke:#000000; stroke-width:4; stroke-opacity:1"/>
<line clip-path="url(#clip7902)" x1="346.5" y1="1545.1" x2="306.5" y2="1545.1" style="stroke:#000000; stroke-width:4; stroke-opacity:1"/>
<line clip-path="url(#clip7902)" x1="469.453" y1="1606.47" x2="429.453" y2="1606.47" style="stroke:#000000; stroke-width:4; stroke-opacity:1"/>
<line clip-path="url(#clip7902)" x1="469.453" y1="1366.05" x2="429.453" y2="1366.05" style="stroke:#000000; stroke-width:4; stroke-opacity:1"/>
<line clip-path="url(#clip7902)" x1="592.405" y1="1328.73" x2="552.405" y2="1328.73" style="stroke:#000000; stroke-width:4; stroke-opacity:1"/>
<line clip-path="url(#clip7902)" x1="592.405" y1="1012.4" x2="552.405" y2="1012.4" style="stroke:#000000; stroke-width:4; stroke-opacity:1"/>
<line clip-path="url(#clip7902)" x1="838.31" y1="1093.9" x2="798.31" y2="1093.9" style="stroke:#000000; stroke-width:4; stroke-opacity:1"/>
<line clip-path="url(#clip7902)" x1="838.31" y1="851.441" x2="798.31" y2="851.441" style="stroke:#000000; stroke-width:4; stroke-opacity:1"/>
<line clip-path="url(#clip7902)" x1="1084.21" y1="1220.62" x2="1044.21" y2="1220.62" style="stroke:#000000; stroke-width:4; stroke-opacity:1"/>
<line clip-path="url(#clip7902)" x1="1084.21" y1="961.434" x2="1044.21" y2="961.434" style="stroke:#000000; stroke-width:4; stroke-opacity:1"/>
<line clip-path="url(#clip7902)" x1="1330.12" y1="1334.69" x2="1290.12" y2="1334.69" style="stroke:#000000; stroke-width:4; stroke-opacity:1"/>
<line clip-path="url(#clip7902)" x1="1330.12" y1="1113.24" x2="1290.12" y2="1113.24" style="stroke:#000000; stroke-width:4; stroke-opacity:1"/>
<line clip-path="url(#clip7902)" x1="1576.02" y1="1449.68" x2="1536.02" y2="1449.68" style="stroke:#000000; stroke-width:4; stroke-opacity:1"/>
<line clip-path="url(#clip7902)" x1="1576.02" y1="1232.3" x2="1536.02" y2="1232.3" style="stroke:#000000; stroke-width:4; stroke-opacity:1"/>
<line clip-path="url(#clip7902)" x1="1821.93" y1="1510.6" x2="1781.93" y2="1510.6" style="stroke:#000000; stroke-width:4; stroke-opacity:1"/>
<line clip-path="url(#clip7902)" x1="1821.93" y1="1297.76" x2="1781.93" y2="1297.76" style="stroke:#000000; stroke-width:4; stroke-opacity:1"/>
<line clip-path="url(#clip7902)" x1="2067.83" y1="1532.66" x2="2027.83" y2="1532.66" style="stroke:#000000; stroke-width:4; stroke-opacity:1"/>
<line clip-path="url(#clip7902)" x1="2067.83" y1="1316.85" x2="2027.83" y2="1316.85" style="stroke:#000000; stroke-width:4; stroke-opacity:1"/>
<line clip-path="url(#clip7902)" x1="2313.74" y1="1560.84" x2="2273.74" y2="1560.84" style="stroke:#000000; stroke-width:4; stroke-opacity:1"/>
<line clip-path="url(#clip7902)" x1="2313.74" y1="1329.67" x2="2273.74" y2="1329.67" style="stroke:#000000; stroke-width:4; stroke-opacity:1"/>
<path clip-path="url(#clip7900)" d="
M1403.78 664.469 L2208.76 664.469 L2208.76 392.309 L1403.78 392.309  Z
  " fill="#ffffff" fill-rule="evenodd" fill-opacity="1"/>
<polyline clip-path="url(#clip7900)" style="stroke:#000000; stroke-width:4; stroke-opacity:1; fill:none" points="
  1403.78,664.469 2208.76,664.469 2208.76,392.309 1403.78,392.309 1403.78,664.469 
  "/>
<polyline clip-path="url(#clip7900)" style="stroke:#009af9; stroke-width:4; stroke-opacity:1; fill:none" points="
  1451.78,483.029 1739.78,483.029 
  "/>
<g clip-path="url(#clip7900)">
<text style="fill:#000000; fill-opacity:1; font-family:Arial,Helvetica Neue,Helvetica,sans-serif; font-size:71px; text-anchor:start;" transform="rotate(0, 1787.78, 509.029)" x="1787.78" y="509.029">simulation</text>
</g>
<polyline clip-path="url(#clip7900)" style="stroke:#e26f46; stroke-width:4; stroke-opacity:1; fill:none" points="
  1451.78,573.749 1739.78,573.749 
  "/>
<g clip-path="url(#clip7900)">
<text style="fill:#000000; fill-opacity:1; font-family:Arial,Helvetica Neue,Helvetica,sans-serif; font-size:71px; text-anchor:start;" transform="rotate(0, 1787.78, 599.749)" x="1787.78" y="599.749">data</text>
</g>
<path clip-path="url(#clip7900)" d="
M2667.48 2097.21 L4752.76 2097.21 L4752.76 195.029 L2667.48 195.029  Z
  " fill="#ffffff" fill-rule="evenodd" fill-opacity="1"/>
<defs>
  <clipPath id="clip7903">
    <rect x="2667" y="195" width="2086" height="1903"/>
  </clipPath>
</defs>
<polyline clip-path="url(#clip7903)" style="stroke:#000000; stroke-width:2; stroke-opacity:0.1; fill:none" points="
  2726.5,2097.21 2726.5,195.029 
  "/>
<polyline clip-path="url(#clip7903)" style="stroke:#000000; stroke-width:2; stroke-opacity:0.1; fill:none" points="
  3218.31,2097.21 3218.31,195.029 
  "/>
<polyline clip-path="url(#clip7903)" style="stroke:#000000; stroke-width:2; stroke-opacity:0.1; fill:none" points="
  3710.12,2097.21 3710.12,195.029 
  "/>
<polyline clip-path="url(#clip7903)" style="stroke:#000000; stroke-width:2; stroke-opacity:0.1; fill:none" points="
  4201.93,2097.21 4201.93,195.029 
  "/>
<polyline clip-path="url(#clip7903)" style="stroke:#000000; stroke-width:2; stroke-opacity:0.1; fill:none" points="
  4693.74,2097.21 4693.74,195.029 
  "/>
<polyline clip-path="url(#clip7903)" style="stroke:#000000; stroke-width:2; stroke-opacity:0.1; fill:none" points="
  2667.48,2097.21 4752.76,2097.21 
  "/>
<polyline clip-path="url(#clip7903)" style="stroke:#000000; stroke-width:2; stroke-opacity:0.1; fill:none" points="
  2667.48,1674.5 4752.76,1674.5 
  "/>
<polyline clip-path="url(#clip7903)" style="stroke:#000000; stroke-width:2; stroke-opacity:0.1; fill:none" points="
  2667.48,1251.8 4752.76,1251.8 
  "/>
<polyline clip-path="url(#clip7903)" style="stroke:#000000; stroke-width:2; stroke-opacity:0.1; fill:none" points="
  2667.48,829.09 4752.76,829.09 
  "/>
<polyline clip-path="url(#clip7903)" style="stroke:#000000; stroke-width:2; stroke-opacity:0.1; fill:none" points="
  2667.48,406.382 4752.76,406.382 
  "/>
<polyline clip-path="url(#clip7900)" style="stroke:#000000; stroke-width:4; stroke-opacity:1; fill:none" points="
  2667.48,2097.21 4752.76,2097.21 
  "/>
<polyline clip-path="url(#clip7900)" style="stroke:#000000; stroke-width:4; stroke-opacity:1; fill:none" points="
  2667.48,2097.21 2667.48,195.029 
  "/>
<polyline clip-path="url(#clip7900)" style="stroke:#000000; stroke-width:4; stroke-opacity:1; fill:none" points="
  2726.5,2097.21 2726.5,2074.38 
  "/>
<polyline clip-path="url(#clip7900)" style="stroke:#000000; stroke-width:4; stroke-opacity:1; fill:none" points="
  3218.31,2097.21 3218.31,2074.38 
  "/>
<polyline clip-path="url(#clip7900)" style="stroke:#000000; stroke-width:4; stroke-opacity:1; fill:none" points="
  3710.12,2097.21 3710.12,2074.38 
  "/>
<polyline clip-path="url(#clip7900)" style="stroke:#000000; stroke-width:4; stroke-opacity:1; fill:none" points="
  4201.93,2097.21 4201.93,2074.38 
  "/>
<polyline clip-path="url(#clip7900)" style="stroke:#000000; stroke-width:4; stroke-opacity:1; fill:none" points="
  4693.74,2097.21 4693.74,2074.38 
  "/>
<polyline clip-path="url(#clip7900)" style="stroke:#000000; stroke-width:4; stroke-opacity:1; fill:none" points="
  2667.48,2097.21 2692.51,2097.21 
  "/>
<polyline clip-path="url(#clip7900)" style="stroke:#000000; stroke-width:4; stroke-opacity:1; fill:none" points="
  2667.48,1674.5 2692.51,1674.5 
  "/>
<polyline clip-path="url(#clip7900)" style="stroke:#000000; stroke-width:4; stroke-opacity:1; fill:none" points="
  2667.48,1251.8 2692.51,1251.8 
  "/>
<polyline clip-path="url(#clip7900)" style="stroke:#000000; stroke-width:4; stroke-opacity:1; fill:none" points="
  2667.48,829.09 2692.51,829.09 
  "/>
<polyline clip-path="url(#clip7900)" style="stroke:#000000; stroke-width:4; stroke-opacity:1; fill:none" points="
  2667.48,406.382 2692.51,406.382 
  "/>
<g clip-path="url(#clip7900)">
<text style="fill:#000000; fill-opacity:1; font-family:Arial,Helvetica Neue,Helvetica,sans-serif; font-size:71px; text-anchor:middle;" transform="rotate(0, 2726.5, 2183.61)" x="2726.5" y="2183.61">0</text>
</g>
<g clip-path="url(#clip7900)">
<text style="fill:#000000; fill-opacity:1; font-family:Arial,Helvetica Neue,Helvetica,sans-serif; font-size:71px; text-anchor:middle;" transform="rotate(0, 3218.31, 2183.61)" x="3218.31" y="2183.61">2</text>
</g>
<g clip-path="url(#clip7900)">
<text style="fill:#000000; fill-opacity:1; font-family:Arial,Helvetica Neue,Helvetica,sans-serif; font-size:71px; text-anchor:middle;" transform="rotate(0, 3710.12, 2183.61)" x="3710.12" y="2183.61">4</text>
</g>
<g clip-path="url(#clip7900)">
<text style="fill:#000000; fill-opacity:1; font-family:Arial,Helvetica Neue,Helvetica,sans-serif; font-size:71px; text-anchor:middle;" transform="rotate(0, 4201.93, 2183.61)" x="4201.93" y="2183.61">6</text>
</g>
<g clip-path="url(#clip7900)">
<text style="fill:#000000; fill-opacity:1; font-family:Arial,Helvetica Neue,Helvetica,sans-serif; font-size:71px; text-anchor:middle;" transform="rotate(0, 4693.74, 2183.61)" x="4693.74" y="2183.61">8</text>
</g>
<g clip-path="url(#clip7900)">
<text style="fill:#000000; fill-opacity:1; font-family:Arial,Helvetica Neue,Helvetica,sans-serif; font-size:71px; text-anchor:end;" transform="rotate(0, 2619.48, 2123.21)" x="2619.48" y="2123.21">0</text>
</g>
<g clip-path="url(#clip7900)">
<text style="fill:#000000; fill-opacity:1; font-family:Arial,Helvetica Neue,Helvetica,sans-serif; font-size:71px; text-anchor:end;" transform="rotate(0, 2619.48, 1700.5)" x="2619.48" y="1700.5">1</text>
</g>
<g clip-path="url(#clip7900)">
<text style="fill:#000000; fill-opacity:1; font-family:Arial,Helvetica Neue,Helvetica,sans-serif; font-size:71px; text-anchor:end;" transform="rotate(0, 2619.48, 1277.8)" x="2619.48" y="1277.8">2</text>
</g>
<g clip-path="url(#clip7900)">
<text style="fill:#000000; fill-opacity:1; font-family:Arial,Helvetica Neue,Helvetica,sans-serif; font-size:71px; text-anchor:end;" transform="rotate(0, 2619.48, 855.09)" x="2619.48" y="855.09">3</text>
</g>
<g clip-path="url(#clip7900)">
<text style="fill:#000000; fill-opacity:1; font-family:Arial,Helvetica Neue,Helvetica,sans-serif; font-size:71px; text-anchor:end;" transform="rotate(0, 2619.48, 432.382)" x="2619.48" y="432.382">4</text>
</g>
<g clip-path="url(#clip7900)">
<text style="fill:#000000; fill-opacity:1; font-family:Arial,Helvetica Neue,Helvetica,sans-serif; font-size:125px; text-anchor:middle;" transform="rotate(0, 3710.12, 109.2)" x="3710.12" y="109.2">Normal hypothyroid patient 45 mcg (n = 3)</text>
</g>
<g clip-path="url(#clip7900)">
<text style="fill:#000000; fill-opacity:1; font-family:Arial,Helvetica Neue,Helvetica,sans-serif; font-size:95px; text-anchor:middle;" transform="rotate(0, 3710.12, 2307.46)" x="3710.12" y="2307.46">Time (hours)</text>
</g>
<g clip-path="url(#clip7900)">
<text style="fill:#000000; fill-opacity:1; font-family:Arial,Helvetica Neue,Helvetica,sans-serif; font-size:95px; text-anchor:middle;" transform="rotate(-90, 2513.54, 1146.12)" x="2513.54" y="1146.12">T3 mcg/L</text>
</g>
<path clip-path="url(#clip7903)" d="
M2726.5 1819.11 L2751.09 1799.55 L2775.68 1746.67 L2800.27 1680.89 L2824.86 1609.37 L2849.45 1536.16 L2874.04 1463.62 L2898.63 1393.36 L2923.22 1326.67 L2947.81 1264.29 
  L2972.41 1206.69 L2997 1154.47 L3021.59 1107.31 L3046.18 1065.25 L3070.77 1029.31 L3095.36 997.705 L3119.95 969.454 L3144.54 948.751 L3169.13 931.691 L3193.72 913.238 
  L3218.31 906.064 L3242.9 898.918 L3267.49 890.257 L3292.08 893.581 L3316.67 890.778 L3341.26 896.022 L3365.85 900.887 L3390.44 907.031 L3415.03 916.963 L3439.62 924.955 
  L3464.21 937.747 L3488.81 948.495 L3513.4 961.963 L3537.99 975.873 L3562.58 988.836 L3587.17 1005.14 L3611.76 1018.79 L3636.35 1034.89 L3660.94 1050.78 L3685.53 1065.16 
  L3710.12 1082.68 L3734.71 1097.06 L3759.3 1113.53 L3783.89 1129.56 L3808.48 1143.91 L3833.07 1160.94 L3857.66 1174.87 L3882.25 1190.68 L3906.84 1205.62 L3931.43 1219.29 
  L3956.02 1234.93 L3980.61 1247.77 L4005.21 1262.35 L4029.8 1275.73 L4054.39 1288.27 L4078.98 1302.23 L4103.57 1313.71 L4128.16 1326.79 L4152.75 1338.53 L4177.34 1349.73 
  L4201.93 1361.99 L4226.52 1372.05 L4251.11 1383.59 L4275.7 1393.75 L4300.29 1403.6 L4324.88 1414.24 L4349.47 1422.96 L4374.06 1433.03 L4398.65 1441.75 L4423.24 1450.34 
  L4447.83 1459.49 L4472.42 1467 L4497.01 1475.74 L4521.61 1483.18 L4546.2 1490.63 L4570.79 1498.46 L4595.38 1504.91 L4619.97 1512.46 L4644.56 1518.78 L4669.15 1525.03 
  L4693.74 1531.51 L4693.74 1458.29 L4669.15 1452.21 L4644.56 1444.86 L4619.97 1438.44 L4595.38 1431.21 L4570.79 1423.16 L4546.2 1416.46 L4521.61 1407.5 L4497.01 1400.16 
  L4472.42 1391.48 L4447.83 1382.42 L4423.24 1374.4 L4398.65 1364.01 L4374.06 1355.63 L4349.47 1345.29 L4324.88 1335.14 L4300.29 1325.56 L4275.7 1313.63 L4251.11 1304.03 
  L4226.52 1291.86 L4201.93 1280.55 L4177.34 1269.19 L4152.75 1255.72 L4128.16 1244.7 L4103.57 1230.6 L4078.98 1218.1 L4054.39 1204.82 L4029.8 1189.89 L4005.21 1177.33 
  L3980.61 1161.31 L3956.02 1147.73 L3931.43 1132.5 L3906.84 1116.4 L3882.25 1102.36 L3857.66 1084.62 L3833.07 1070.33 L3808.48 1053.36 L3783.89 1036.66 L3759.3 1021.52 
  L3734.71 1002.78 L3710.12 988.306 L3685.53 970.544 L3660.94 954.057 L3636.35 938.825 L3611.76 920.602 L3587.17 906.834 L3562.58 890.166 L3537.99 875.439 L3513.4 861.959 
  L3488.81 846.592 L3464.21 835.956 L3439.62 822.574 L3415.03 813.406 L3390.44 804.11 L3365.85 795.8 L3341.26 792.31 L3316.67 784.99 L3292.08 788.705 L3267.49 785.934 
  L3242.9 792.745 L3218.31 802.173 L3193.72 808.014 L3169.13 827.438 L3144.54 845.777 L3119.95 866.659 L3095.36 896.239 L3070.77 929.193 L3046.18 966.473 L3021.59 1010.34 
  L2997 1059.5 L2972.41 1113.92 L2947.81 1174 L2923.22 1239.08 L2898.63 1308.67 L2874.04 1382 L2849.45 1457.72 L2824.86 1534.17 L2800.27 1608.87 L2775.68 1677.62 
  L2751.09 1732.89 L2726.5 1753.08  Z
  " fill="#009af9" fill-rule="evenodd" fill-opacity="0.3"/>
<polyline clip-path="url(#clip7903)" style="stroke:#009af9; stroke-width:4; stroke-opacity:1; fill:none" points="
  2726.5,1786.1 2751.09,1766.22 2775.68,1712.14 2800.27,1644.88 2824.86,1571.77 2849.45,1496.94 2874.04,1422.81 2898.63,1351.02 2923.22,1282.88 2947.81,1219.14 
  2972.41,1160.31 2997,1106.98 3021.59,1058.82 3046.18,1015.86 3070.77,979.25 3095.36,946.972 3119.95,918.056 3144.54,897.264 3169.13,879.564 3193.72,860.626 
  3218.31,854.119 3242.9,845.832 3267.49,838.096 3292.08,841.143 3316.67,837.884 3341.26,844.166 3365.85,848.343 3390.44,855.571 3415.03,865.184 3439.62,873.764 
  3464.21,886.851 3488.81,897.544 3513.4,911.961 3537.99,925.656 3562.58,939.501 3587.17,955.987 3611.76,969.697 3636.35,986.859 3660.94,1002.42 3685.53,1017.85 
  3710.12,1035.49 3734.71,1049.92 3759.3,1067.53 3783.89,1083.11 3808.48,1098.64 3833.07,1115.64 3857.66,1129.75 3882.25,1146.52 3906.84,1161.01 3931.43,1175.9 
  3956.02,1191.33 3980.61,1204.54 4005.21,1219.84 4029.8,1232.81 4054.39,1246.55 4078.98,1260.16 4103.57,1272.16 4128.16,1285.74 4152.75,1297.12 4177.34,1309.46 
  4201.93,1321.27 4226.52,1331.96 4251.11,1343.81 4275.7,1353.69 4300.29,1364.58 4324.88,1374.69 4349.47,1384.13 4374.06,1394.33 4398.65,1402.88 4423.24,1412.37 
  4447.83,1420.96 4472.42,1429.24 4497.01,1437.95 4521.61,1445.34 4546.2,1453.54 4570.79,1460.81 4595.38,1468.06 4619.97,1475.45 4644.56,1481.82 4669.15,1488.62 
  4693.74,1494.9 
  "/>
<polyline clip-path="url(#clip7903)" style="stroke:#e26f46; stroke-width:4; stroke-opacity:1; fill:none" points="
  2726.5,1786.1 2849.45,1685.64 2972.41,1324.5 3218.31,852.057 3464.21,983.659 3710.12,1095.82 3956.02,1151.62 4201.93,1357.61 4447.83,1380.3 4693.74,1455.4 
  
  "/>
<polyline clip-path="url(#clip7903)" style="stroke:#e26f46; stroke-width:4; stroke-opacity:1; fill:none" points="
  2726.5,1819.11 2726.5,1753.08 
  "/>
<polyline clip-path="url(#clip7903)" style="stroke:#e26f46; stroke-width:4; stroke-opacity:1; fill:none" points="
  2849.45,1710.36 2849.45,1660.91 
  "/>
<polyline clip-path="url(#clip7903)" style="stroke:#e26f46; stroke-width:4; stroke-opacity:1; fill:none" points="
  2972.41,1497.72 2972.41,1151.29 
  "/>
<polyline clip-path="url(#clip7903)" style="stroke:#e26f46; stroke-width:4; stroke-opacity:1; fill:none" points="
  3218.31,1108.68 3218.31,595.434 
  "/>
<polyline clip-path="url(#clip7903)" style="stroke:#e26f46; stroke-width:4; stroke-opacity:1; fill:none" points="
  3464.21,1218.35 3464.21,748.967 
  "/>
<polyline clip-path="url(#clip7903)" style="stroke:#e26f46; stroke-width:4; stroke-opacity:1; fill:none" points="
  3710.12,1277.22 3710.12,914.416 
  "/>
<polyline clip-path="url(#clip7903)" style="stroke:#e26f46; stroke-width:4; stroke-opacity:1; fill:none" points="
  3956.02,1278.32 3956.02,1024.91 
  "/>
<polyline clip-path="url(#clip7903)" style="stroke:#e26f46; stroke-width:4; stroke-opacity:1; fill:none" points="
  4201.93,1438.79 4201.93,1276.44 
  "/>
<polyline clip-path="url(#clip7903)" style="stroke:#e26f46; stroke-width:4; stroke-opacity:1; fill:none" points="
  4447.83,1473.2 4447.83,1287.4 
  "/>
<polyline clip-path="url(#clip7903)" style="stroke:#e26f46; stroke-width:4; stroke-opacity:1; fill:none" points="
  4693.74,1530.53 4693.74,1380.27 
  "/>
<line clip-path="url(#clip7903)" x1="2746.5" y1="1819.11" x2="2706.5" y2="1819.11" style="stroke:#000000; stroke-width:4; stroke-opacity:1"/>
<line clip-path="url(#clip7903)" x1="2746.5" y1="1753.08" x2="2706.5" y2="1753.08" style="stroke:#000000; stroke-width:4; stroke-opacity:1"/>
<line clip-path="url(#clip7903)" x1="2869.45" y1="1710.36" x2="2829.45" y2="1710.36" style="stroke:#000000; stroke-width:4; stroke-opacity:1"/>
<line clip-path="url(#clip7903)" x1="2869.45" y1="1660.91" x2="2829.45" y2="1660.91" style="stroke:#000000; stroke-width:4; stroke-opacity:1"/>
<line clip-path="url(#clip7903)" x1="2992.41" y1="1497.72" x2="2952.41" y2="1497.72" style="stroke:#000000; stroke-width:4; stroke-opacity:1"/>
<line clip-path="url(#clip7903)" x1="2992.41" y1="1151.29" x2="2952.41" y2="1151.29" style="stroke:#000000; stroke-width:4; stroke-opacity:1"/>
<line clip-path="url(#clip7903)" x1="3238.31" y1="1108.68" x2="3198.31" y2="1108.68" style="stroke:#000000; stroke-width:4; stroke-opacity:1"/>
<line clip-path="url(#clip7903)" x1="3238.31" y1="595.434" x2="3198.31" y2="595.434" style="stroke:#000000; stroke-width:4; stroke-opacity:1"/>
<line clip-path="url(#clip7903)" x1="3484.21" y1="1218.35" x2="3444.21" y2="1218.35" style="stroke:#000000; stroke-width:4; stroke-opacity:1"/>
<line clip-path="url(#clip7903)" x1="3484.21" y1="748.967" x2="3444.21" y2="748.967" style="stroke:#000000; stroke-width:4; stroke-opacity:1"/>
<line clip-path="url(#clip7903)" x1="3730.12" y1="1277.22" x2="3690.12" y2="1277.22" style="stroke:#000000; stroke-width:4; stroke-opacity:1"/>
<line clip-path="url(#clip7903)" x1="3730.12" y1="914.416" x2="3690.12" y2="914.416" style="stroke:#000000; stroke-width:4; stroke-opacity:1"/>
<line clip-path="url(#clip7903)" x1="3976.02" y1="1278.32" x2="3936.02" y2="1278.32" style="stroke:#000000; stroke-width:4; stroke-opacity:1"/>
<line clip-path="url(#clip7903)" x1="3976.02" y1="1024.91" x2="3936.02" y2="1024.91" style="stroke:#000000; stroke-width:4; stroke-opacity:1"/>
<line clip-path="url(#clip7903)" x1="4221.93" y1="1438.79" x2="4181.93" y2="1438.79" style="stroke:#000000; stroke-width:4; stroke-opacity:1"/>
<line clip-path="url(#clip7903)" x1="4221.93" y1="1276.44" x2="4181.93" y2="1276.44" style="stroke:#000000; stroke-width:4; stroke-opacity:1"/>
<line clip-path="url(#clip7903)" x1="4467.83" y1="1473.2" x2="4427.83" y2="1473.2" style="stroke:#000000; stroke-width:4; stroke-opacity:1"/>
<line clip-path="url(#clip7903)" x1="4467.83" y1="1287.4" x2="4427.83" y2="1287.4" style="stroke:#000000; stroke-width:4; stroke-opacity:1"/>
<line clip-path="url(#clip7903)" x1="4713.74" y1="1530.53" x2="4673.74" y2="1530.53" style="stroke:#000000; stroke-width:4; stroke-opacity:1"/>
<line clip-path="url(#clip7903)" x1="4713.74" y1="1380.27" x2="4673.74" y2="1380.27" style="stroke:#000000; stroke-width:4; stroke-opacity:1"/>
<path clip-path="url(#clip7900)" d="
M3803.78 664.469 L4608.76 664.469 L4608.76 392.309 L3803.78 392.309  Z
  " fill="#ffffff" fill-rule="evenodd" fill-opacity="1"/>
<polyline clip-path="url(#clip7900)" style="stroke:#000000; stroke-width:4; stroke-opacity:1; fill:none" points="
  3803.78,664.469 4608.76,664.469 4608.76,392.309 3803.78,392.309 3803.78,664.469 
  "/>
<polyline clip-path="url(#clip7900)" style="stroke:#009af9; stroke-width:4; stroke-opacity:1; fill:none" points="
  3851.78,483.029 4139.78,483.029 
  "/>
<g clip-path="url(#clip7900)">
<text style="fill:#000000; fill-opacity:1; font-family:Arial,Helvetica Neue,Helvetica,sans-serif; font-size:71px; text-anchor:start;" transform="rotate(0, 4187.78, 509.029)" x="4187.78" y="509.029">simulation</text>
</g>
<polyline clip-path="url(#clip7900)" style="stroke:#e26f46; stroke-width:4; stroke-opacity:1; fill:none" points="
  3851.78,573.749 4139.78,573.749 
  "/>
<g clip-path="url(#clip7900)">
<text style="fill:#000000; fill-opacity:1; font-family:Arial,Helvetica Neue,Helvetica,sans-serif; font-size:71px; text-anchor:start;" transform="rotate(0, 4187.78, 599.749)" x="4187.78" y="599.749">data</text>
</g>
<path clip-path="url(#clip7900)" d="
M267.483 4497.21 L2352.76 4497.21 L2352.76 2595.03 L267.483 2595.03  Z
  " fill="#ffffff" fill-rule="evenodd" fill-opacity="1"/>
<defs>
  <clipPath id="clip7904">
    <rect x="267" y="2595" width="2086" height="1903"/>
  </clipPath>
</defs>
<polyline clip-path="url(#clip7904)" style="stroke:#000000; stroke-width:2; stroke-opacity:0.1; fill:none" points="
  326.5,4497.21 326.5,2595.03 
  "/>
<polyline clip-path="url(#clip7904)" style="stroke:#000000; stroke-width:2; stroke-opacity:0.1; fill:none" points="
  818.31,4497.21 818.31,2595.03 
  "/>
<polyline clip-path="url(#clip7904)" style="stroke:#000000; stroke-width:2; stroke-opacity:0.1; fill:none" points="
  1310.12,4497.21 1310.12,2595.03 
  "/>
<polyline clip-path="url(#clip7904)" style="stroke:#000000; stroke-width:2; stroke-opacity:0.1; fill:none" points="
  1801.93,4497.21 1801.93,2595.03 
  "/>
<polyline clip-path="url(#clip7904)" style="stroke:#000000; stroke-width:2; stroke-opacity:0.1; fill:none" points="
  2293.74,4497.21 2293.74,2595.03 
  "/>
<polyline clip-path="url(#clip7904)" style="stroke:#000000; stroke-width:2; stroke-opacity:0.1; fill:none" points="
  267.483,4497.21 2352.76,4497.21 
  "/>
<polyline clip-path="url(#clip7904)" style="stroke:#000000; stroke-width:2; stroke-opacity:0.1; fill:none" points="
  267.483,4074.5 2352.76,4074.5 
  "/>
<polyline clip-path="url(#clip7904)" style="stroke:#000000; stroke-width:2; stroke-opacity:0.1; fill:none" points="
  267.483,3651.8 2352.76,3651.8 
  "/>
<polyline clip-path="url(#clip7904)" style="stroke:#000000; stroke-width:2; stroke-opacity:0.1; fill:none" points="
  267.483,3229.09 2352.76,3229.09 
  "/>
<polyline clip-path="url(#clip7904)" style="stroke:#000000; stroke-width:2; stroke-opacity:0.1; fill:none" points="
  267.483,2806.38 2352.76,2806.38 
  "/>
<polyline clip-path="url(#clip7900)" style="stroke:#000000; stroke-width:4; stroke-opacity:1; fill:none" points="
  267.483,4497.21 2352.76,4497.21 
  "/>
<polyline clip-path="url(#clip7900)" style="stroke:#000000; stroke-width:4; stroke-opacity:1; fill:none" points="
  267.483,4497.21 267.483,2595.03 
  "/>
<polyline clip-path="url(#clip7900)" style="stroke:#000000; stroke-width:4; stroke-opacity:1; fill:none" points="
  326.5,4497.21 326.5,4474.38 
  "/>
<polyline clip-path="url(#clip7900)" style="stroke:#000000; stroke-width:4; stroke-opacity:1; fill:none" points="
  818.31,4497.21 818.31,4474.38 
  "/>
<polyline clip-path="url(#clip7900)" style="stroke:#000000; stroke-width:4; stroke-opacity:1; fill:none" points="
  1310.12,4497.21 1310.12,4474.38 
  "/>
<polyline clip-path="url(#clip7900)" style="stroke:#000000; stroke-width:4; stroke-opacity:1; fill:none" points="
  1801.93,4497.21 1801.93,4474.38 
  "/>
<polyline clip-path="url(#clip7900)" style="stroke:#000000; stroke-width:4; stroke-opacity:1; fill:none" points="
  2293.74,4497.21 2293.74,4474.38 
  "/>
<polyline clip-path="url(#clip7900)" style="stroke:#000000; stroke-width:4; stroke-opacity:1; fill:none" points="
  267.483,4497.21 292.506,4497.21 
  "/>
<polyline clip-path="url(#clip7900)" style="stroke:#000000; stroke-width:4; stroke-opacity:1; fill:none" points="
  267.483,4074.5 292.506,4074.5 
  "/>
<polyline clip-path="url(#clip7900)" style="stroke:#000000; stroke-width:4; stroke-opacity:1; fill:none" points="
  267.483,3651.8 292.506,3651.8 
  "/>
<polyline clip-path="url(#clip7900)" style="stroke:#000000; stroke-width:4; stroke-opacity:1; fill:none" points="
  267.483,3229.09 292.506,3229.09 
  "/>
<polyline clip-path="url(#clip7900)" style="stroke:#000000; stroke-width:4; stroke-opacity:1; fill:none" points="
  267.483,2806.38 292.506,2806.38 
  "/>
<g clip-path="url(#clip7900)">
<text style="fill:#000000; fill-opacity:1; font-family:Arial,Helvetica Neue,Helvetica,sans-serif; font-size:71px; text-anchor:middle;" transform="rotate(0, 326.5, 4583.61)" x="326.5" y="4583.61">0</text>
</g>
<g clip-path="url(#clip7900)">
<text style="fill:#000000; fill-opacity:1; font-family:Arial,Helvetica Neue,Helvetica,sans-serif; font-size:71px; text-anchor:middle;" transform="rotate(0, 818.31, 4583.61)" x="818.31" y="4583.61">2</text>
</g>
<g clip-path="url(#clip7900)">
<text style="fill:#000000; fill-opacity:1; font-family:Arial,Helvetica Neue,Helvetica,sans-serif; font-size:71px; text-anchor:middle;" transform="rotate(0, 1310.12, 4583.61)" x="1310.12" y="4583.61">4</text>
</g>
<g clip-path="url(#clip7900)">
<text style="fill:#000000; fill-opacity:1; font-family:Arial,Helvetica Neue,Helvetica,sans-serif; font-size:71px; text-anchor:middle;" transform="rotate(0, 1801.93, 4583.61)" x="1801.93" y="4583.61">6</text>
</g>
<g clip-path="url(#clip7900)">
<text style="fill:#000000; fill-opacity:1; font-family:Arial,Helvetica Neue,Helvetica,sans-serif; font-size:71px; text-anchor:middle;" transform="rotate(0, 2293.74, 4583.61)" x="2293.74" y="4583.61">8</text>
</g>
<g clip-path="url(#clip7900)">
<text style="fill:#000000; fill-opacity:1; font-family:Arial,Helvetica Neue,Helvetica,sans-serif; font-size:71px; text-anchor:end;" transform="rotate(0, 219.483, 4523.21)" x="219.483" y="4523.21">0</text>
</g>
<g clip-path="url(#clip7900)">
<text style="fill:#000000; fill-opacity:1; font-family:Arial,Helvetica Neue,Helvetica,sans-serif; font-size:71px; text-anchor:end;" transform="rotate(0, 219.483, 4100.5)" x="219.483" y="4100.5">1</text>
</g>
<g clip-path="url(#clip7900)">
<text style="fill:#000000; fill-opacity:1; font-family:Arial,Helvetica Neue,Helvetica,sans-serif; font-size:71px; text-anchor:end;" transform="rotate(0, 219.483, 3677.8)" x="219.483" y="3677.8">2</text>
</g>
<g clip-path="url(#clip7900)">
<text style="fill:#000000; fill-opacity:1; font-family:Arial,Helvetica Neue,Helvetica,sans-serif; font-size:71px; text-anchor:end;" transform="rotate(0, 219.483, 3255.09)" x="219.483" y="3255.09">3</text>
</g>
<g clip-path="url(#clip7900)">
<text style="fill:#000000; fill-opacity:1; font-family:Arial,Helvetica Neue,Helvetica,sans-serif; font-size:71px; text-anchor:end;" transform="rotate(0, 219.483, 2832.38)" x="219.483" y="2832.38">4</text>
</g>
<g clip-path="url(#clip7900)">
<text style="fill:#000000; fill-opacity:1; font-family:Arial,Helvetica Neue,Helvetica,sans-serif; font-size:125px; text-anchor:middle;" transform="rotate(0, 1310.12, 2509.2)" x="1310.12" y="2509.2">Overweight hypothyroid patient 30 mcg (n = 2)</text>
</g>
<g clip-path="url(#clip7900)">
<text style="fill:#000000; fill-opacity:1; font-family:Arial,Helvetica Neue,Helvetica,sans-serif; font-size:95px; text-anchor:middle;" transform="rotate(0, 1310.12, 4707.46)" x="1310.12" y="4707.46">Time (hours)</text>
</g>
<g clip-path="url(#clip7900)">
<text style="fill:#000000; fill-opacity:1; font-family:Arial,Helvetica Neue,Helvetica,sans-serif; font-size:95px; text-anchor:middle;" transform="rotate(-90, 113.54, 3546.12)" x="113.54" y="3546.12">T3 mcg/L</text>
</g>
<path clip-path="url(#clip7904)" d="
M326.5 4140.87 L351.091 4128.03 L375.681 4091.25 L400.272 4045.51 L424.862 3995.81 L449.453 3945.05 L474.043 3894.77 L498.634 3846.14 L523.224 3799.97 L547.815 3756.9 
  L572.405 3717.16 L596.996 3688.24 L621.586 3662.18 L646.177 3638.72 L670.767 3619.47 L695.357 3602.46 L719.948 3586.19 L744.538 3576.55 L769.129 3566.92 L793.719 3556.4 
  L818.31 3555.46 L842.9 3548.77 L867.491 3548.74 L892.081 3548.89 L916.672 3549.05 L941.262 3553.44 L965.853 3555.24 L990.443 3561.96 L1015.03 3566.1 L1039.62 3573.66 
  L1064.21 3580.32 L1088.81 3587.68 L1113.4 3596.69 L1137.99 3603.67 L1162.58 3614.12 L1187.17 3622.06 L1211.76 3631.86 L1236.35 3641.69 L1260.94 3649.93 L1285.53 3661.24 
  L1310.12 3669.27 L1334.71 3680.1 L1359.3 3689.39 L1383.89 3698.4 L1408.48 3709.03 L1433.07 3716.76 L1457.66 3727.61 L1482.25 3735.7 L1506.84 3745.11 L1531.43 3754.26 
  L1556.02 3761.87 L1580.61 3771.75 L1605.21 3778.68 L1629.8 3787.94 L1654.39 3795.49 L1678.98 3803 L1703.57 3811.45 L1728.16 3817.51 L1752.75 3826.14 L1777.34 3832.2 
  L1801.93 3839.55 L1826.52 3846.43 L1851.11 3852.07 L1875.7 3859.6 L1900.29 3864.48 L1924.88 3871.51 L1949.47 3877.43 L1974.06 3883.38 L1998.65 3889.72 L2023.24 3896.53 
  L2047.83 3901.36 L2072.42 3908.44 L2097.01 3913.2 L2121.61 3919.12 L2146.2 3924.66 L2170.79 3928.99 L2195.38 3935.12 L2219.97 3938.9 L2244.56 3944.43 L2269.15 3948.83 
  L2293.74 3952.74 L2293.74 3942.88 L2269.15 3938.73 L2244.56 3935.08 L2219.97 3931.38 L2195.38 3926.19 L2170.79 3922.99 L2146.2 3917.45 L2121.61 3913.58 L2097.01 3908.69 
  L2072.42 3903.31 L2047.83 3899.19 L2023.24 3892.73 L1998.65 3888.6 L1974.06 3882.38 L1949.47 3876.91 L1924.88 3869.5 L1900.29 3863.87 L1875.7 3855.71 L1851.11 3848.91 
  L1826.52 3841.54 L1801.93 3832.88 L1777.34 3826.18 L1752.75 3816.66 L1728.16 3809.3 L1703.57 3800.4 L1678.98 3791.11 L1654.39 3783.1 L1629.8 3772.36 L1605.21 3764.33 
  L1580.61 3753.85 L1556.02 3744.12 L1531.43 3734.68 L1506.84 3723.07 L1482.25 3714.25 L1457.66 3702.31 L1433.07 3692.45 L1408.48 3681.63 L1383.89 3669.71 L1359.3 3660.19 
  L1334.71 3647.3 L1310.12 3637.68 L1285.53 3626 L1260.94 3614.52 L1236.35 3604.75 L1211.76 3592.13 L1187.17 3583.16 L1162.58 3571.93 L1137.99 3561.92 L1113.4 3553.07 
  L1088.81 3542.45 L1064.21 3535.53 L1039.62 3526.36 L1015.03 3520.2 L990.443 3513.93 L965.853 3508.19 L941.262 3505.8 L916.672 3500.74 L892.081 3503.09 L867.491 3500.67 
  L842.9 3505.98 L818.31 3510.88 L793.719 3515.24 L769.129 3528.94 L744.538 3539.02 L719.948 3553.86 L695.357 3573.9 L670.767 3594.63 L646.177 3619.54 L621.586 3648.74 
  L596.996 3681.03 L572.405 3717.07 L547.815 3749.34 L523.224 3784.2 L498.634 3821.56 L474.043 3861.01 L449.453 3901.78 L424.862 3942.98 L400.272 3983.24 L375.681 4020.19 
  L351.091 4049.39 L326.5 4057.6  Z
  " fill="#009af9" fill-rule="evenodd" fill-opacity="0.3"/>
<polyline clip-path="url(#clip7904)" style="stroke:#009af9; stroke-width:4; stroke-opacity:1; fill:none" points="
  326.5,4099.23 351.091,4088.71 375.681,4055.72 400.272,4014.37 424.862,3969.39 449.453,3923.41 474.043,3877.89 498.634,3833.85 523.224,3792.08 547.815,3753.12 
  572.405,3717.12 596.996,3684.63 621.586,3655.46 646.177,3629.13 670.767,3607.05 695.357,3588.18 719.948,3570.03 744.538,3557.78 769.129,3547.93 793.719,3535.82 
  818.31,3533.17 842.9,3527.38 867.491,3524.7 892.081,3525.99 916.672,3524.9 941.262,3529.62 965.853,3531.71 990.443,3537.94 1015.03,3543.15 1039.62,3550.01 
  1064.21,3557.92 1088.81,3565.07 1113.4,3574.88 1137.99,3582.8 1162.58,3593.03 1187.17,3602.61 1211.76,3612 1236.35,3623.22 1260.94,3632.23 1285.53,3643.62 
  1310.12,3653.47 1334.71,3663.7 1359.3,3674.79 1383.89,3684.06 1408.48,3695.33 1433.07,3704.6 1457.66,3714.96 1482.25,3724.98 1506.84,3734.09 1531.43,3744.47 
  1556.02,3752.99 1580.61,3762.8 1605.21,3771.5 1629.8,3780.15 1654.39,3789.3 1678.98,3797.06 1703.57,3805.92 1728.16,3813.4 1752.75,3821.4 1777.34,3829.19 
  1801.93,3836.21 1826.52,3843.99 1851.11,3850.49 1875.7,3857.66 1900.29,3864.18 1924.88,3870.5 1949.47,3877.17 1974.06,3882.88 1998.65,3889.16 2023.24,3894.63 
  2047.83,3900.27 2072.42,3905.88 2097.01,3910.94 2121.61,3916.35 2146.2,3921.05 2170.79,3925.99 2195.38,3930.66 2219.97,3935.14 2244.56,3939.75 2269.15,3943.78 
  2293.74,3947.81 
  "/>
<polyline clip-path="url(#clip7904)" style="stroke:#e26f46; stroke-width:4; stroke-opacity:1; fill:none" points="
  326.5,4099.23 449.453,4023.99 572.405,3910.49 818.31,3746.91 1064.21,3798.26 1310.12,3848.99 1556.02,3890.84 1801.93,3982.56 2047.83,4043.01 2293.74,4006.66 
  
  "/>
<polyline clip-path="url(#clip7904)" style="stroke:#e26f46; stroke-width:4; stroke-opacity:1; fill:none" points="
  326.5,4181.65 326.5,4016.82 
  "/>
<polyline clip-path="url(#clip7904)" style="stroke:#e26f46; stroke-width:4; stroke-opacity:1; fill:none" points="
  449.453,4144.2 449.453,3903.78 
  "/>
<polyline clip-path="url(#clip7904)" style="stroke:#e26f46; stroke-width:4; stroke-opacity:1; fill:none" points="
  572.405,4068.66 572.405,3752.33 
  "/>
<polyline clip-path="url(#clip7904)" style="stroke:#e26f46; stroke-width:4; stroke-opacity:1; fill:none" points="
  818.31,3868.13 818.31,3625.68 
  "/>
<polyline clip-path="url(#clip7904)" style="stroke:#e26f46; stroke-width:4; stroke-opacity:1; fill:none" points="
  1064.21,3927.86 1064.21,3668.67 
  "/>
<polyline clip-path="url(#clip7904)" style="stroke:#e26f46; stroke-width:4; stroke-opacity:1; fill:none" points="
  1310.12,3959.71 1310.12,3738.26 
  "/>
<polyline clip-path="url(#clip7904)" style="stroke:#e26f46; stroke-width:4; stroke-opacity:1; fill:none" points="
  1556.02,3999.53 1556.02,3782.15 
  "/>
<polyline clip-path="url(#clip7904)" style="stroke:#e26f46; stroke-width:4; stroke-opacity:1; fill:none" points="
  1801.93,4088.98 1801.93,3876.15 
  "/>
<polyline clip-path="url(#clip7904)" style="stroke:#e26f46; stroke-width:4; stroke-opacity:1; fill:none" points="
  2047.83,4150.92 2047.83,3935.1 
  "/>
<polyline clip-path="url(#clip7904)" style="stroke:#e26f46; stroke-width:4; stroke-opacity:1; fill:none" points="
  2293.74,4122.25 2293.74,3891.07 
  "/>
<line clip-path="url(#clip7904)" x1="346.5" y1="4181.65" x2="306.5" y2="4181.65" style="stroke:#000000; stroke-width:4; stroke-opacity:1"/>
<line clip-path="url(#clip7904)" x1="346.5" y1="4016.82" x2="306.5" y2="4016.82" style="stroke:#000000; stroke-width:4; stroke-opacity:1"/>
<line clip-path="url(#clip7904)" x1="469.453" y1="4144.2" x2="429.453" y2="4144.2" style="stroke:#000000; stroke-width:4; stroke-opacity:1"/>
<line clip-path="url(#clip7904)" x1="469.453" y1="3903.78" x2="429.453" y2="3903.78" style="stroke:#000000; stroke-width:4; stroke-opacity:1"/>
<line clip-path="url(#clip7904)" x1="592.405" y1="4068.66" x2="552.405" y2="4068.66" style="stroke:#000000; stroke-width:4; stroke-opacity:1"/>
<line clip-path="url(#clip7904)" x1="592.405" y1="3752.33" x2="552.405" y2="3752.33" style="stroke:#000000; stroke-width:4; stroke-opacity:1"/>
<line clip-path="url(#clip7904)" x1="838.31" y1="3868.13" x2="798.31" y2="3868.13" style="stroke:#000000; stroke-width:4; stroke-opacity:1"/>
<line clip-path="url(#clip7904)" x1="838.31" y1="3625.68" x2="798.31" y2="3625.68" style="stroke:#000000; stroke-width:4; stroke-opacity:1"/>
<line clip-path="url(#clip7904)" x1="1084.21" y1="3927.86" x2="1044.21" y2="3927.86" style="stroke:#000000; stroke-width:4; stroke-opacity:1"/>
<line clip-path="url(#clip7904)" x1="1084.21" y1="3668.67" x2="1044.21" y2="3668.67" style="stroke:#000000; stroke-width:4; stroke-opacity:1"/>
<line clip-path="url(#clip7904)" x1="1330.12" y1="3959.71" x2="1290.12" y2="3959.71" style="stroke:#000000; stroke-width:4; stroke-opacity:1"/>
<line clip-path="url(#clip7904)" x1="1330.12" y1="3738.26" x2="1290.12" y2="3738.26" style="stroke:#000000; stroke-width:4; stroke-opacity:1"/>
<line clip-path="url(#clip7904)" x1="1576.02" y1="3999.53" x2="1536.02" y2="3999.53" style="stroke:#000000; stroke-width:4; stroke-opacity:1"/>
<line clip-path="url(#clip7904)" x1="1576.02" y1="3782.15" x2="1536.02" y2="3782.15" style="stroke:#000000; stroke-width:4; stroke-opacity:1"/>
<line clip-path="url(#clip7904)" x1="1821.93" y1="4088.98" x2="1781.93" y2="4088.98" style="stroke:#000000; stroke-width:4; stroke-opacity:1"/>
<line clip-path="url(#clip7904)" x1="1821.93" y1="3876.15" x2="1781.93" y2="3876.15" style="stroke:#000000; stroke-width:4; stroke-opacity:1"/>
<line clip-path="url(#clip7904)" x1="2067.83" y1="4150.92" x2="2027.83" y2="4150.92" style="stroke:#000000; stroke-width:4; stroke-opacity:1"/>
<line clip-path="url(#clip7904)" x1="2067.83" y1="3935.1" x2="2027.83" y2="3935.1" style="stroke:#000000; stroke-width:4; stroke-opacity:1"/>
<line clip-path="url(#clip7904)" x1="2313.74" y1="4122.25" x2="2273.74" y2="4122.25" style="stroke:#000000; stroke-width:4; stroke-opacity:1"/>
<line clip-path="url(#clip7904)" x1="2313.74" y1="3891.07" x2="2273.74" y2="3891.07" style="stroke:#000000; stroke-width:4; stroke-opacity:1"/>
<path clip-path="url(#clip7900)" d="
M1403.78 3064.47 L2208.76 3064.47 L2208.76 2792.31 L1403.78 2792.31  Z
  " fill="#ffffff" fill-rule="evenodd" fill-opacity="1"/>
<polyline clip-path="url(#clip7900)" style="stroke:#000000; stroke-width:4; stroke-opacity:1; fill:none" points="
  1403.78,3064.47 2208.76,3064.47 2208.76,2792.31 1403.78,2792.31 1403.78,3064.47 
  "/>
<polyline clip-path="url(#clip7900)" style="stroke:#009af9; stroke-width:4; stroke-opacity:1; fill:none" points="
  1451.78,2883.03 1739.78,2883.03 
  "/>
<g clip-path="url(#clip7900)">
<text style="fill:#000000; fill-opacity:1; font-family:Arial,Helvetica Neue,Helvetica,sans-serif; font-size:71px; text-anchor:start;" transform="rotate(0, 1787.78, 2909.03)" x="1787.78" y="2909.03">simulation</text>
</g>
<polyline clip-path="url(#clip7900)" style="stroke:#e26f46; stroke-width:4; stroke-opacity:1; fill:none" points="
  1451.78,2973.75 1739.78,2973.75 
  "/>
<g clip-path="url(#clip7900)">
<text style="fill:#000000; fill-opacity:1; font-family:Arial,Helvetica Neue,Helvetica,sans-serif; font-size:71px; text-anchor:start;" transform="rotate(0, 1787.78, 2999.75)" x="1787.78" y="2999.75">data</text>
</g>
<path clip-path="url(#clip7900)" d="
M2667.48 4497.21 L4752.76 4497.21 L4752.76 2595.03 L2667.48 2595.03  Z
  " fill="#ffffff" fill-rule="evenodd" fill-opacity="1"/>
<defs>
  <clipPath id="clip7905">
    <rect x="2667" y="2595" width="2086" height="1903"/>
  </clipPath>
</defs>
<polyline clip-path="url(#clip7905)" style="stroke:#000000; stroke-width:2; stroke-opacity:0.1; fill:none" points="
  2726.5,4497.21 2726.5,2595.03 
  "/>
<polyline clip-path="url(#clip7905)" style="stroke:#000000; stroke-width:2; stroke-opacity:0.1; fill:none" points="
  3218.31,4497.21 3218.31,2595.03 
  "/>
<polyline clip-path="url(#clip7905)" style="stroke:#000000; stroke-width:2; stroke-opacity:0.1; fill:none" points="
  3710.12,4497.21 3710.12,2595.03 
  "/>
<polyline clip-path="url(#clip7905)" style="stroke:#000000; stroke-width:2; stroke-opacity:0.1; fill:none" points="
  4201.93,4497.21 4201.93,2595.03 
  "/>
<polyline clip-path="url(#clip7905)" style="stroke:#000000; stroke-width:2; stroke-opacity:0.1; fill:none" points="
  4693.74,4497.21 4693.74,2595.03 
  "/>
<polyline clip-path="url(#clip7905)" style="stroke:#000000; stroke-width:2; stroke-opacity:0.1; fill:none" points="
  2667.48,4497.21 4752.76,4497.21 
  "/>
<polyline clip-path="url(#clip7905)" style="stroke:#000000; stroke-width:2; stroke-opacity:0.1; fill:none" points="
  2667.48,4074.5 4752.76,4074.5 
  "/>
<polyline clip-path="url(#clip7905)" style="stroke:#000000; stroke-width:2; stroke-opacity:0.1; fill:none" points="
  2667.48,3651.8 4752.76,3651.8 
  "/>
<polyline clip-path="url(#clip7905)" style="stroke:#000000; stroke-width:2; stroke-opacity:0.1; fill:none" points="
  2667.48,3229.09 4752.76,3229.09 
  "/>
<polyline clip-path="url(#clip7905)" style="stroke:#000000; stroke-width:2; stroke-opacity:0.1; fill:none" points="
  2667.48,2806.38 4752.76,2806.38 
  "/>
<polyline clip-path="url(#clip7900)" style="stroke:#000000; stroke-width:4; stroke-opacity:1; fill:none" points="
  2667.48,4497.21 4752.76,4497.21 
  "/>
<polyline clip-path="url(#clip7900)" style="stroke:#000000; stroke-width:4; stroke-opacity:1; fill:none" points="
  2667.48,4497.21 2667.48,2595.03 
  "/>
<polyline clip-path="url(#clip7900)" style="stroke:#000000; stroke-width:4; stroke-opacity:1; fill:none" points="
  2726.5,4497.21 2726.5,4474.38 
  "/>
<polyline clip-path="url(#clip7900)" style="stroke:#000000; stroke-width:4; stroke-opacity:1; fill:none" points="
  3218.31,4497.21 3218.31,4474.38 
  "/>
<polyline clip-path="url(#clip7900)" style="stroke:#000000; stroke-width:4; stroke-opacity:1; fill:none" points="
  3710.12,4497.21 3710.12,4474.38 
  "/>
<polyline clip-path="url(#clip7900)" style="stroke:#000000; stroke-width:4; stroke-opacity:1; fill:none" points="
  4201.93,4497.21 4201.93,4474.38 
  "/>
<polyline clip-path="url(#clip7900)" style="stroke:#000000; stroke-width:4; stroke-opacity:1; fill:none" points="
  4693.74,4497.21 4693.74,4474.38 
  "/>
<polyline clip-path="url(#clip7900)" style="stroke:#000000; stroke-width:4; stroke-opacity:1; fill:none" points="
  2667.48,4497.21 2692.51,4497.21 
  "/>
<polyline clip-path="url(#clip7900)" style="stroke:#000000; stroke-width:4; stroke-opacity:1; fill:none" points="
  2667.48,4074.5 2692.51,4074.5 
  "/>
<polyline clip-path="url(#clip7900)" style="stroke:#000000; stroke-width:4; stroke-opacity:1; fill:none" points="
  2667.48,3651.8 2692.51,3651.8 
  "/>
<polyline clip-path="url(#clip7900)" style="stroke:#000000; stroke-width:4; stroke-opacity:1; fill:none" points="
  2667.48,3229.09 2692.51,3229.09 
  "/>
<polyline clip-path="url(#clip7900)" style="stroke:#000000; stroke-width:4; stroke-opacity:1; fill:none" points="
  2667.48,2806.38 2692.51,2806.38 
  "/>
<g clip-path="url(#clip7900)">
<text style="fill:#000000; fill-opacity:1; font-family:Arial,Helvetica Neue,Helvetica,sans-serif; font-size:71px; text-anchor:middle;" transform="rotate(0, 2726.5, 4583.61)" x="2726.5" y="4583.61">0</text>
</g>
<g clip-path="url(#clip7900)">
<text style="fill:#000000; fill-opacity:1; font-family:Arial,Helvetica Neue,Helvetica,sans-serif; font-size:71px; text-anchor:middle;" transform="rotate(0, 3218.31, 4583.61)" x="3218.31" y="4583.61">2</text>
</g>
<g clip-path="url(#clip7900)">
<text style="fill:#000000; fill-opacity:1; font-family:Arial,Helvetica Neue,Helvetica,sans-serif; font-size:71px; text-anchor:middle;" transform="rotate(0, 3710.12, 4583.61)" x="3710.12" y="4583.61">4</text>
</g>
<g clip-path="url(#clip7900)">
<text style="fill:#000000; fill-opacity:1; font-family:Arial,Helvetica Neue,Helvetica,sans-serif; font-size:71px; text-anchor:middle;" transform="rotate(0, 4201.93, 4583.61)" x="4201.93" y="4583.61">6</text>
</g>
<g clip-path="url(#clip7900)">
<text style="fill:#000000; fill-opacity:1; font-family:Arial,Helvetica Neue,Helvetica,sans-serif; font-size:71px; text-anchor:middle;" transform="rotate(0, 4693.74, 4583.61)" x="4693.74" y="4583.61">8</text>
</g>
<g clip-path="url(#clip7900)">
<text style="fill:#000000; fill-opacity:1; font-family:Arial,Helvetica Neue,Helvetica,sans-serif; font-size:71px; text-anchor:end;" transform="rotate(0, 2619.48, 4523.21)" x="2619.48" y="4523.21">0</text>
</g>
<g clip-path="url(#clip7900)">
<text style="fill:#000000; fill-opacity:1; font-family:Arial,Helvetica Neue,Helvetica,sans-serif; font-size:71px; text-anchor:end;" transform="rotate(0, 2619.48, 4100.5)" x="2619.48" y="4100.5">1</text>
</g>
<g clip-path="url(#clip7900)">
<text style="fill:#000000; fill-opacity:1; font-family:Arial,Helvetica Neue,Helvetica,sans-serif; font-size:71px; text-anchor:end;" transform="rotate(0, 2619.48, 3677.8)" x="2619.48" y="3677.8">2</text>
</g>
<g clip-path="url(#clip7900)">
<text style="fill:#000000; fill-opacity:1; font-family:Arial,Helvetica Neue,Helvetica,sans-serif; font-size:71px; text-anchor:end;" transform="rotate(0, 2619.48, 3255.09)" x="2619.48" y="3255.09">3</text>
</g>
<g clip-path="url(#clip7900)">
<text style="fill:#000000; fill-opacity:1; font-family:Arial,Helvetica Neue,Helvetica,sans-serif; font-size:71px; text-anchor:end;" transform="rotate(0, 2619.48, 2832.38)" x="2619.48" y="2832.38">4</text>
</g>
<g clip-path="url(#clip7900)">
<text style="fill:#000000; fill-opacity:1; font-family:Arial,Helvetica Neue,Helvetica,sans-serif; font-size:125px; text-anchor:middle;" transform="rotate(0, 3710.12, 2509.2)" x="3710.12" y="2509.2">Overweight hypothyroid patient 45 mcg (n = 4)</text>
</g>
<g clip-path="url(#clip7900)">
<text style="fill:#000000; fill-opacity:1; font-family:Arial,Helvetica Neue,Helvetica,sans-serif; font-size:95px; text-anchor:middle;" transform="rotate(0, 3710.12, 4707.46)" x="3710.12" y="4707.46">Time (hours)</text>
</g>
<g clip-path="url(#clip7900)">
<text style="fill:#000000; fill-opacity:1; font-family:Arial,Helvetica Neue,Helvetica,sans-serif; font-size:95px; text-anchor:middle;" transform="rotate(-90, 2513.54, 3546.12)" x="2513.54" y="3546.12">T3 mcg/L</text>
</g>
<path clip-path="url(#clip7905)" d="
M2726.5 4143.98 L2751.09 4125.05 L2775.68 4069.66 L2800.27 3999.99 L2824.86 3924.03 L2849.45 3846.14 L2874.04 3768.9 L2898.63 3694.07 L2923.22 3623.03 L2947.81 3556.58 
  L2972.41 3495.28 L2997 3439.67 L3021.59 3389.55 L3046.18 3344.93 L3070.77 3306.67 L3095.36 3273.38 L3119.95 3243.72 L3144.54 3221.15 L3169.13 3204.46 L3193.72 3185.44 
  L3218.31 3175.73 L3242.9 3171.97 L3267.49 3160.63 L3292.08 3164.82 L3316.67 3164.51 L3341.26 3167.45 L3365.85 3175.94 L3390.44 3180.74 L3415.03 3193.3 L3439.62 3201.93 
  L3464.21 3215.84 L3488.81 3229.01 L3513.4 3242.32 L3537.99 3259.18 L3562.58 3272.53 L3587.17 3290.71 L3611.76 3306.8 L3636.35 3322.76 L3660.94 3342.02 L3685.53 3356.62 
  L3710.12 3376.12 L3734.71 3393.13 L3759.3 3409.19 L3783.89 3428.84 L3808.48 3443.16 L3833.07 3462.28 L3857.66 3478.56 L3882.25 3494.09 L3906.84 3512.51 L3931.43 3525.89 
  L3956.02 3543.81 L3980.61 3558.45 L4005.21 3573.03 L4029.8 3589.61 L4054.39 3601.65 L4078.98 3617.99 L4103.57 3630.77 L4128.16 3644.05 L4152.75 3658.69 L4177.34 3669.24 
  L4201.93 3683.89 L4226.52 3694.84 L4251.11 3706.71 L4275.7 3719.46 L4300.29 3728.58 L4324.88 3741.58 L4349.47 3750.82 L4374.06 3761.36 L4398.65 3772.31 L4423.24 3780.17 
  L4447.83 3791.61 L4472.42 3799.34 L4497.01 3808.66 L4521.61 3817.98 L4546.2 3824.73 L4570.79 3834.76 L4595.38 3841.18 L4619.97 3849.42 L4644.56 3857.32 L4669.15 3863.11 
  L4693.74 3870.9 L4693.74 3797.68 L4669.15 3790.29 L4644.56 3783.4 L4619.97 3775.4 L4595.38 3767.48 L4570.79 3759.46 L4546.2 3750.57 L4521.61 3742.3 L4497.01 3733.08 
  L4472.42 3723.81 L4447.83 3714.54 L4423.24 3704.22 L4398.65 3694.57 L4374.06 3683.96 L4349.47 3673.15 L4324.88 3662.48 L4300.29 3650.53 L4275.7 3639.34 L4251.11 3627.15 
  L4226.52 3614.65 L4201.93 3602.46 L4177.34 3588.7 L4152.75 3575.88 L4128.16 3561.96 L4103.57 3547.67 L4078.98 3533.86 L4054.39 3518.21 L4029.8 3503.77 L4005.21 3488.02 
  L3980.61 3471.99 L3956.02 3456.62 L3931.43 3439.11 L3906.84 3423.29 L3882.25 3405.77 L3857.66 3388.3 L3833.07 3371.67 L3808.48 3352.61 L3783.89 3335.94 L3759.3 3317.17 
  L3734.71 3298.85 L3710.12 3281.74 L3685.53 3262.01 L3660.94 3245.3 L3636.35 3226.69 L3611.76 3208.61 L3587.17 3192.4 L3562.58 3173.86 L3537.99 3158.75 L3513.4 3142.32 
  L3488.81 3127.1 L3464.21 3114.05 L3439.62 3099.55 L3415.03 3089.75 L3390.44 3077.82 L3365.85 3070.85 L3341.26 3063.74 L3316.67 3058.72 L3292.08 3059.95 L3267.49 3056.31 
  L3242.9 3065.8 L3218.31 3071.84 L3193.72 3080.22 L3169.13 3100.2 L3144.54 3118.18 L3119.95 3140.92 L3095.36 3171.91 L3070.77 3206.55 L3046.18 3246.16 L3021.59 3292.59 
  L2997 3344.7 L2972.41 3402.51 L2947.81 3466.3 L2923.22 3535.44 L2898.63 3609.38 L2874.04 3687.29 L2849.45 3767.71 L2824.86 3848.83 L2800.27 3927.97 L2775.68 4000.61 
  L2751.09 4058.39 L2726.5 4077.95  Z
  " fill="#009af9" fill-rule="evenodd" fill-opacity="0.3"/>
<polyline clip-path="url(#clip7905)" style="stroke:#009af9; stroke-width:4; stroke-opacity:1; fill:none" points="
  2726.5,4110.96 2751.09,4091.72 2775.68,4035.14 2800.27,3963.98 2824.86,3886.43 2849.45,3806.92 2874.04,3728.09 2898.63,3651.73 2923.22,3579.24 2947.81,3511.44 
  2972.41,3448.89 2997,3392.19 3021.59,3341.07 3046.18,3295.54 3070.77,3256.61 3095.36,3222.64 3119.95,3192.32 3144.54,3169.67 3169.13,3152.33 3193.72,3132.83 
  3218.31,3123.78 3242.9,3118.88 3267.49,3108.47 3292.08,3112.38 3316.67,3111.61 3341.26,3115.6 3365.85,3123.4 3390.44,3129.28 3415.03,3141.52 3439.62,3150.74 
  3464.21,3164.95 3488.81,3178.06 3513.4,3192.32 3537.99,3208.96 3562.58,3223.2 3587.17,3241.56 3611.76,3257.71 3636.35,3274.72 3660.94,3293.66 3685.53,3309.32 
  3710.12,3328.93 3734.71,3345.99 3759.3,3363.18 3783.89,3382.39 3808.48,3397.89 3833.07,3416.98 3857.66,3433.43 3882.25,3449.93 3906.84,3467.9 3931.43,3482.5 
  3956.02,3500.22 3980.61,3515.22 4005.21,3530.53 4029.8,3546.69 4054.39,3559.93 4078.98,3575.93 4103.57,3589.22 4128.16,3603 4152.75,3617.28 4177.34,3628.97 
  4201.93,3643.18 4226.52,3654.75 4251.11,3666.93 4275.7,3679.4 4300.29,3689.56 4324.88,3702.03 4349.47,3711.99 4374.06,3722.66 4398.65,3733.44 4423.24,3742.19 
  4447.83,3753.08 4472.42,3761.57 4497.01,3770.87 4521.61,3780.14 4546.2,3787.65 4570.79,3797.11 4595.38,3804.33 4619.97,3812.41 4644.56,3820.36 4669.15,3826.7 
  4693.74,3834.29 
  "/>
<polyline clip-path="url(#clip7905)" style="stroke:#e26f46; stroke-width:4; stroke-opacity:1; fill:none" points="
  2726.5,4110.96 2849.45,3976.86 2972.41,3304.44 3218.31,2885.01 3464.21,3115.28 3710.12,3263.22 3956.02,3494.66 4201.93,3617.35 4447.83,3727.67 4693.74,3817.92 
  
  "/>
<polyline clip-path="url(#clip7905)" style="stroke:#e26f46; stroke-width:4; stroke-opacity:1; fill:none" points="
  2726.5,4143.98 2726.5,4077.95 
  "/>
<polyline clip-path="url(#clip7905)" style="stroke:#e26f46; stroke-width:4; stroke-opacity:1; fill:none" points="
  2849.45,4001.59 2849.45,3952.13 
  "/>
<polyline clip-path="url(#clip7905)" style="stroke:#e26f46; stroke-width:4; stroke-opacity:1; fill:none" points="
  2972.41,3477.65 2972.41,3131.22 
  "/>
<polyline clip-path="url(#clip7905)" style="stroke:#e26f46; stroke-width:4; stroke-opacity:1; fill:none" points="
  3218.31,3141.63 3218.31,2628.38 
  "/>
<polyline clip-path="url(#clip7905)" style="stroke:#e26f46; stroke-width:4; stroke-opacity:1; fill:none" points="
  3464.21,3349.97 3464.21,2880.58 
  "/>
<polyline clip-path="url(#clip7905)" style="stroke:#e26f46; stroke-width:4; stroke-opacity:1; fill:none" points="
  3710.12,3444.63 3710.12,3081.82 
  "/>
<polyline clip-path="url(#clip7905)" style="stroke:#e26f46; stroke-width:4; stroke-opacity:1; fill:none" points="
  3956.02,3621.36 3956.02,3367.95 
  "/>
<polyline clip-path="url(#clip7905)" style="stroke:#e26f46; stroke-width:4; stroke-opacity:1; fill:none" points="
  4201.93,3698.52 4201.93,3536.17 
  "/>
<polyline clip-path="url(#clip7905)" style="stroke:#e26f46; stroke-width:4; stroke-opacity:1; fill:none" points="
  4447.83,3820.57 4447.83,3634.77 
  "/>
<polyline clip-path="url(#clip7905)" style="stroke:#e26f46; stroke-width:4; stroke-opacity:1; fill:none" points="
  4693.74,3893.05 4693.74,3742.79 
  "/>
<line clip-path="url(#clip7905)" x1="2746.5" y1="4143.98" x2="2706.5" y2="4143.98" style="stroke:#000000; stroke-width:4; stroke-opacity:1"/>
<line clip-path="url(#clip7905)" x1="2746.5" y1="4077.95" x2="2706.5" y2="4077.95" style="stroke:#000000; stroke-width:4; stroke-opacity:1"/>
<line clip-path="url(#clip7905)" x1="2869.45" y1="4001.59" x2="2829.45" y2="4001.59" style="stroke:#000000; stroke-width:4; stroke-opacity:1"/>
<line clip-path="url(#clip7905)" x1="2869.45" y1="3952.13" x2="2829.45" y2="3952.13" style="stroke:#000000; stroke-width:4; stroke-opacity:1"/>
<line clip-path="url(#clip7905)" x1="2992.41" y1="3477.65" x2="2952.41" y2="3477.65" style="stroke:#000000; stroke-width:4; stroke-opacity:1"/>
<line clip-path="url(#clip7905)" x1="2992.41" y1="3131.22" x2="2952.41" y2="3131.22" style="stroke:#000000; stroke-width:4; stroke-opacity:1"/>
<line clip-path="url(#clip7905)" x1="3238.31" y1="3141.63" x2="3198.31" y2="3141.63" style="stroke:#000000; stroke-width:4; stroke-opacity:1"/>
<line clip-path="url(#clip7905)" x1="3238.31" y1="2628.38" x2="3198.31" y2="2628.38" style="stroke:#000000; stroke-width:4; stroke-opacity:1"/>
<line clip-path="url(#clip7905)" x1="3484.21" y1="3349.97" x2="3444.21" y2="3349.97" style="stroke:#000000; stroke-width:4; stroke-opacity:1"/>
<line clip-path="url(#clip7905)" x1="3484.21" y1="2880.58" x2="3444.21" y2="2880.58" style="stroke:#000000; stroke-width:4; stroke-opacity:1"/>
<line clip-path="url(#clip7905)" x1="3730.12" y1="3444.63" x2="3690.12" y2="3444.63" style="stroke:#000000; stroke-width:4; stroke-opacity:1"/>
<line clip-path="url(#clip7905)" x1="3730.12" y1="3081.82" x2="3690.12" y2="3081.82" style="stroke:#000000; stroke-width:4; stroke-opacity:1"/>
<line clip-path="url(#clip7905)" x1="3976.02" y1="3621.36" x2="3936.02" y2="3621.36" style="stroke:#000000; stroke-width:4; stroke-opacity:1"/>
<line clip-path="url(#clip7905)" x1="3976.02" y1="3367.95" x2="3936.02" y2="3367.95" style="stroke:#000000; stroke-width:4; stroke-opacity:1"/>
<line clip-path="url(#clip7905)" x1="4221.93" y1="3698.52" x2="4181.93" y2="3698.52" style="stroke:#000000; stroke-width:4; stroke-opacity:1"/>
<line clip-path="url(#clip7905)" x1="4221.93" y1="3536.17" x2="4181.93" y2="3536.17" style="stroke:#000000; stroke-width:4; stroke-opacity:1"/>
<line clip-path="url(#clip7905)" x1="4467.83" y1="3820.57" x2="4427.83" y2="3820.57" style="stroke:#000000; stroke-width:4; stroke-opacity:1"/>
<line clip-path="url(#clip7905)" x1="4467.83" y1="3634.77" x2="4427.83" y2="3634.77" style="stroke:#000000; stroke-width:4; stroke-opacity:1"/>
<line clip-path="url(#clip7905)" x1="4713.74" y1="3893.05" x2="4673.74" y2="3893.05" style="stroke:#000000; stroke-width:4; stroke-opacity:1"/>
<line clip-path="url(#clip7905)" x1="4713.74" y1="3742.79" x2="4673.74" y2="3742.79" style="stroke:#000000; stroke-width:4; stroke-opacity:1"/>
<path clip-path="url(#clip7900)" d="
M3803.78 3064.47 L4608.76 3064.47 L4608.76 2792.31 L3803.78 2792.31  Z
  " fill="#ffffff" fill-rule="evenodd" fill-opacity="1"/>
<polyline clip-path="url(#clip7900)" style="stroke:#000000; stroke-width:4; stroke-opacity:1; fill:none" points="
  3803.78,3064.47 4608.76,3064.47 4608.76,2792.31 3803.78,2792.31 3803.78,3064.47 
  "/>
<polyline clip-path="url(#clip7900)" style="stroke:#009af9; stroke-width:4; stroke-opacity:1; fill:none" points="
  3851.78,2883.03 4139.78,2883.03 
  "/>
<g clip-path="url(#clip7900)">
<text style="fill:#000000; fill-opacity:1; font-family:Arial,Helvetica Neue,Helvetica,sans-serif; font-size:71px; text-anchor:start;" transform="rotate(0, 4187.78, 2909.03)" x="4187.78" y="2909.03">simulation</text>
</g>
<polyline clip-path="url(#clip7900)" style="stroke:#e26f46; stroke-width:4; stroke-opacity:1; fill:none" points="
  3851.78,2973.75 4139.78,2973.75 
  "/>
<g clip-path="url(#clip7900)">
<text style="fill:#000000; fill-opacity:1; font-family:Arial,Helvetica Neue,Helvetica,sans-serif; font-size:71px; text-anchor:start;" transform="rotate(0, 4187.78, 2999.75)" x="4187.78" y="2999.75">data</text>
</g>
</svg>
