<?xml version="1.0" encoding="utf-8"?>
<svg xmlns="http://www.w3.org/2000/svg" xmlns:xlink="http://www.w3.org/1999/xlink" width="1200" height="1200" viewBox="0 0 4800 4800">
<defs>
  <clipPath id="clip6500">
    <rect x="0" y="0" width="4800" height="4800"/>
  </clipPath>
</defs>
<polygon clip-path="url(#clip6500)" points="
0,4800 4800,4800 4800,0 0,0 
  " fill="#ffffff" fill-rule="evenodd" fill-opacity="1"/>
<defs>
  <clipPath id="clip6501">
    <rect x="960" y="480" width="3361" height="3361"/>
  </clipPath>
</defs>
<polygon clip-path="url(#clip6500)" points="
267.483,2097.21 2352.76,2097.21 2352.76,195.029 267.483,195.029 
  " fill="#ffffff" fill-rule="evenodd" fill-opacity="1"/>
<defs>
  <clipPath id="clip6502">
    <rect x="267" y="195" width="2086" height="1903"/>
  </clipPath>
</defs>
<polyline clip-path="url(#clip6502)" style="stroke:#000000; stroke-width:2; stroke-opacity:0.1; fill:none" points="
  326.5,2097.21 326.5,195.029 
  "/>
<polyline clip-path="url(#clip6502)" style="stroke:#000000; stroke-width:2; stroke-opacity:0.1; fill:none" points="
  818.31,2097.21 818.31,195.029 
  "/>
<polyline clip-path="url(#clip6502)" style="stroke:#000000; stroke-width:2; stroke-opacity:0.1; fill:none" points="
  1310.12,2097.21 1310.12,195.029 
  "/>
<polyline clip-path="url(#clip6502)" style="stroke:#000000; stroke-width:2; stroke-opacity:0.1; fill:none" points="
  1801.93,2097.21 1801.93,195.029 
  "/>
<polyline clip-path="url(#clip6502)" style="stroke:#000000; stroke-width:2; stroke-opacity:0.1; fill:none" points="
  2293.74,2097.21 2293.74,195.029 
  "/>
<polyline clip-path="url(#clip6502)" style="stroke:#000000; stroke-width:2; stroke-opacity:0.1; fill:none" points="
  267.483,2097.21 2352.76,2097.21 
  "/>
<polyline clip-path="url(#clip6502)" style="stroke:#000000; stroke-width:2; stroke-opacity:0.1; fill:none" points="
  267.483,1674.5 2352.76,1674.5 
  "/>
<polyline clip-path="url(#clip6502)" style="stroke:#000000; stroke-width:2; stroke-opacity:0.1; fill:none" points="
  267.483,1251.8 2352.76,1251.8 
  "/>
<polyline clip-path="url(#clip6502)" style="stroke:#000000; stroke-width:2; stroke-opacity:0.1; fill:none" points="
  267.483,829.09 2352.76,829.09 
  "/>
<polyline clip-path="url(#clip6502)" style="stroke:#000000; stroke-width:2; stroke-opacity:0.1; fill:none" points="
  267.483,406.382 2352.76,406.382 
  "/>
<polyline clip-path="url(#clip6500)" style="stroke:#000000; stroke-width:4; stroke-opacity:1; fill:none" points="
  267.483,2097.21 2352.76,2097.21 
  "/>
<polyline clip-path="url(#clip6500)" style="stroke:#000000; stroke-width:4; stroke-opacity:1; fill:none" points="
  267.483,2097.21 267.483,195.029 
  "/>
<polyline clip-path="url(#clip6500)" style="stroke:#000000; stroke-width:4; stroke-opacity:1; fill:none" points="
  326.5,2097.21 326.5,2068.68 
  "/>
<polyline clip-path="url(#clip6500)" style="stroke:#000000; stroke-width:4; stroke-opacity:1; fill:none" points="
  818.31,2097.21 818.31,2068.68 
  "/>
<polyline clip-path="url(#clip6500)" style="stroke:#000000; stroke-width:4; stroke-opacity:1; fill:none" points="
  1310.12,2097.21 1310.12,2068.68 
  "/>
<polyline clip-path="url(#clip6500)" style="stroke:#000000; stroke-width:4; stroke-opacity:1; fill:none" points="
  1801.93,2097.21 1801.93,2068.68 
  "/>
<polyline clip-path="url(#clip6500)" style="stroke:#000000; stroke-width:4; stroke-opacity:1; fill:none" points="
  2293.74,2097.21 2293.74,2068.68 
  "/>
<polyline clip-path="url(#clip6500)" style="stroke:#000000; stroke-width:4; stroke-opacity:1; fill:none" points="
  267.483,2097.21 298.762,2097.21 
  "/>
<polyline clip-path="url(#clip6500)" style="stroke:#000000; stroke-width:4; stroke-opacity:1; fill:none" points="
  267.483,1674.5 298.762,1674.5 
  "/>
<polyline clip-path="url(#clip6500)" style="stroke:#000000; stroke-width:4; stroke-opacity:1; fill:none" points="
  267.483,1251.8 298.762,1251.8 
  "/>
<polyline clip-path="url(#clip6500)" style="stroke:#000000; stroke-width:4; stroke-opacity:1; fill:none" points="
  267.483,829.09 298.762,829.09 
  "/>
<polyline clip-path="url(#clip6500)" style="stroke:#000000; stroke-width:4; stroke-opacity:1; fill:none" points="
  267.483,406.382 298.762,406.382 
  "/>
<g clip-path="url(#clip6500)">
<text style="fill:#000000; fill-opacity:1; font-family:Arial,Helvetica Neue,Helvetica,sans-serif; font-size:71px; text-anchor:middle;" transform="rotate(0, 326.5, 2183.61)" x="326.5" y="2183.61">0</text>
</g>
<g clip-path="url(#clip6500)">
<text style="fill:#000000; fill-opacity:1; font-family:Arial,Helvetica Neue,Helvetica,sans-serif; font-size:71px; text-anchor:middle;" transform="rotate(0, 818.31, 2183.61)" x="818.31" y="2183.61">2</text>
</g>
<g clip-path="url(#clip6500)">
<text style="fill:#000000; fill-opacity:1; font-family:Arial,Helvetica Neue,Helvetica,sans-serif; font-size:71px; text-anchor:middle;" transform="rotate(0, 1310.12, 2183.61)" x="1310.12" y="2183.61">4</text>
</g>
<g clip-path="url(#clip6500)">
<text style="fill:#000000; fill-opacity:1; font-family:Arial,Helvetica Neue,Helvetica,sans-serif; font-size:71px; text-anchor:middle;" transform="rotate(0, 1801.93, 2183.61)" x="1801.93" y="2183.61">6</text>
</g>
<g clip-path="url(#clip6500)">
<text style="fill:#000000; fill-opacity:1; font-family:Arial,Helvetica Neue,Helvetica,sans-serif; font-size:71px; text-anchor:middle;" transform="rotate(0, 2293.74, 2183.61)" x="2293.74" y="2183.61">8</text>
</g>
<g clip-path="url(#clip6500)">
<text style="fill:#000000; fill-opacity:1; font-family:Arial,Helvetica Neue,Helvetica,sans-serif; font-size:71px; text-anchor:end;" transform="rotate(0, 219.483, 2123.21)" x="219.483" y="2123.21">0</text>
</g>
<g clip-path="url(#clip6500)">
<text style="fill:#000000; fill-opacity:1; font-family:Arial,Helvetica Neue,Helvetica,sans-serif; font-size:71px; text-anchor:end;" transform="rotate(0, 219.483, 1700.5)" x="219.483" y="1700.5">1</text>
</g>
<g clip-path="url(#clip6500)">
<text style="fill:#000000; fill-opacity:1; font-family:Arial,Helvetica Neue,Helvetica,sans-serif; font-size:71px; text-anchor:end;" transform="rotate(0, 219.483, 1277.8)" x="219.483" y="1277.8">2</text>
</g>
<g clip-path="url(#clip6500)">
<text style="fill:#000000; fill-opacity:1; font-family:Arial,Helvetica Neue,Helvetica,sans-serif; font-size:71px; text-anchor:end;" transform="rotate(0, 219.483, 855.09)" x="219.483" y="855.09">3</text>
</g>
<g clip-path="url(#clip6500)">
<text style="fill:#000000; fill-opacity:1; font-family:Arial,Helvetica Neue,Helvetica,sans-serif; font-size:71px; text-anchor:end;" transform="rotate(0, 219.483, 432.382)" x="219.483" y="432.382">4</text>
</g>
<g clip-path="url(#clip6500)">
<text style="fill:#000000; fill-opacity:1; font-family:Arial,Helvetica Neue,Helvetica,sans-serif; font-size:125px; text-anchor:middle;" transform="rotate(0, 1310.12, 109.2)" x="1310.12" y="109.2">Normal patient 30 mcg (6 patients)</text>
</g>
<g clip-path="url(#clip6500)">
<text style="fill:#000000; fill-opacity:1; font-family:Arial,Helvetica Neue,Helvetica,sans-serif; font-size:95px; text-anchor:middle;" transform="rotate(0, 1310.12, 2307.46)" x="1310.12" y="2307.46">Time (hours)</text>
</g>
<g clip-path="url(#clip6500)">
<text style="fill:#000000; fill-opacity:1; font-family:Arial,Helvetica Neue,Helvetica,sans-serif; font-size:95px; text-anchor:middle;" transform="rotate(-90, 113.54, 1146.12)" x="113.54" y="1146.12">T3 mcg/L</text>
</g>
<polygon clip-path="url(#clip6502)" points="
326.5,1829.39 351.091,1791.9 375.681,1713.99 400.272,1632.03 424.862,1555.42 449.453,1486.33 474.043,1425.06 498.634,1371.4 523.224,1324.82 547.815,1284.77 
  572.405,1250.67 596.996,1221.98 621.586,1198.15 646.177,1178.69 670.767,1163.14 695.357,1151.1 719.948,1142.17 744.538,1136.02 769.129,1132.32 793.719,1130.8 
  818.31,1131.21 842.9,1133.29 867.491,1136.82 892.081,1142.06 916.672,1148.26 941.262,1154.57 965.853,1161.51 990.443,1173.95 1015.03,1183.18 1039.62,1186.4 
  1064.21,1201.95 1088.81,1209.82 1113.4,1218.73 1137.99,1231.66 1162.58,1241.26 1187.17,1253.56 1211.76,1264.24 1236.35,1275.91 1260.94,1286.83 1285.53,1298.1 
  1310.12,1309.08 1334.71,1319.9 1359.3,1330.79 1383.89,1341.19 1408.48,1351.75 1433.07,1362.12 1457.66,1372.11 1482.25,1382.24 1506.84,1391.58 1531.43,1401.25 
  1556.02,1410.54 1580.61,1419.38 1605.21,1428.77 1629.8,1436.87 1654.39,1445.83 1678.98,1453.64 1703.57,1461.96 1728.16,1469.58 1752.75,1477.03 1777.34,1484.8 
  1801.93,1491.39 1826.52,1498.76 1851.11,1505.41 1875.7,1512.27 1900.29,1518.48 1924.88,1524.73 1949.47,1530.68 1974.06,1536.34 1998.65,1542.25 2023.24,1547.33 
  2047.83,1552.98 2072.42,1557.88 2097.01,1563.14 2121.61,1567.73 2146.2,1572.79 2170.79,1577.1 2195.38,1581.51 2219.97,1585.84 2244.56,1589.65 2269.15,1593.83 
  2293.74,1597.62 2293.74,1340.64 2269.15,1336.75 2244.56,1332.7 2219.97,1328.59 2195.38,1324.29 2170.79,1319.87 2146.2,1315.34 2121.61,1310.58 2097.01,1305.76 
  2072.42,1300.69 2047.83,1295.53 2023.24,1290.15 1998.65,1284.71 1974.06,1278.97 1949.47,1273.14 1924.88,1267.07 1900.29,1260.82 1875.7,1254.36 1851.11,1247.71 
  1826.52,1240.91 1801.93,1233.9 1777.34,1226.79 1752.75,1219.27 1728.16,1211.54 1703.57,1203.3 1678.98,1194.86 1654.39,1187.32 1629.8,1178.01 1605.21,1169.7 
  1580.61,1160.38 1556.02,1151.06 1531.43,1142 1506.84,1131.44 1482.25,1122.33 1457.66,1110.69 1433.07,1101.05 1408.48,1090.52 1383.89,1079.05 1359.3,1068.92 
  1334.71,1056.49 1310.12,1046.16 1285.53,1033.53 1260.94,1022.52 1236.35,1010.24 1211.76,998.378 1187.17,986.51 1162.58,973.969 1137.99,962.632 1113.4,949.322 
  1088.81,939.313 1064.21,924.793 1039.62,918.057 1015.03,900.933 990.443,896.706 965.853,888.272 941.262,874.553 916.672,866.262 892.081,858.991 867.491,851.994 
  842.9,846.088 818.31,841.852 793.719,839.156 769.129,838.217 744.538,839.308 719.948,842.677 695.357,848.614 670.767,857.441 646.177,869.496 621.586,885.164 
  596.996,904.838 572.405,928.964 547.815,957.982 523.224,992.388 498.634,1032.63 474.043,1079.19 449.453,1132.43 424.862,1192.51 400.272,1259.19 375.681,1330.52 
  351.091,1398.02 326.5,1425.63 
  " fill="#009af9" fill-rule="evenodd" fill-opacity="0.3"/>
<polyline clip-path="url(#clip6502)" style="stroke:#009af9; stroke-width:4; stroke-opacity:1; fill:none" points="
  326.5,1627.51 351.091,1594.96 375.681,1522.26 400.272,1445.61 424.862,1373.97 449.453,1309.38 474.043,1252.12 498.634,1202.01 523.224,1158.6 547.815,1121.37 
  572.405,1089.82 596.996,1063.41 621.586,1041.66 646.177,1024.09 670.767,1010.29 695.357,999.857 719.948,992.423 744.538,987.662 769.129,985.267 793.719,984.977 
  818.31,986.533 842.9,989.689 867.491,994.406 892.081,1000.52 916.672,1007.26 941.262,1014.56 965.853,1024.89 990.443,1035.33 1015.03,1042.06 1039.62,1052.23 
  1064.21,1063.37 1088.81,1074.56 1113.4,1084.02 1137.99,1097.15 1162.58,1107.61 1187.17,1120.03 1211.76,1131.31 1236.35,1143.07 1260.94,1154.67 1285.53,1165.81 
  1310.12,1177.62 1334.71,1188.2 1359.3,1199.86 1383.89,1210.12 1408.48,1221.13 1433.07,1231.59 1457.66,1241.4 1482.25,1252.29 1506.84,1261.51 1531.43,1271.63 
  1556.02,1280.8 1580.61,1289.88 1605.21,1299.23 1629.8,1307.44 1654.39,1316.57 1678.98,1324.25 1703.57,1332.63 1728.16,1340.56 1752.75,1348.15 1777.34,1355.79 
  1801.93,1362.65 1826.52,1369.83 1851.11,1376.56 1875.7,1383.31 1900.29,1389.65 1924.88,1395.9 1949.47,1401.91 1974.06,1407.66 1998.65,1413.48 2023.24,1418.74 
  2047.83,1424.25 2072.42,1429.29 2097.01,1434.45 2121.61,1439.15 2146.2,1444.06 2170.79,1448.49 2195.38,1452.9 2219.97,1457.21 2244.56,1461.17 2269.15,1465.29 
  2293.74,1469.13 
  "/>
<polyline clip-path="url(#clip6502)" style="stroke:#e26f46; stroke-width:4; stroke-opacity:1; fill:none" points="
  326.5,1627.51 449.453,1486.26 572.405,1170.57 818.31,972.669 1064.21,1091.03 1310.12,1223.97 1556.02,1340.99 1801.93,1404.18 2047.83,1424.75 2293.74,1445.26 
  
  "/>
<polyline clip-path="url(#clip6502)" style="stroke:#e26f46; stroke-width:4; stroke-opacity:1; fill:none" points="
  326.5,1829.39 326.5,1425.63 
  "/>
<polyline clip-path="url(#clip6502)" style="stroke:#e26f46; stroke-width:4; stroke-opacity:1; fill:none" points="
  449.453,1780.72 449.453,1191.8 
  "/>
<polyline clip-path="url(#clip6502)" style="stroke:#e26f46; stroke-width:4; stroke-opacity:1; fill:none" points="
  572.405,1557.99 572.405,783.146 
  "/>
<polyline clip-path="url(#clip6502)" style="stroke:#e26f46; stroke-width:4; stroke-opacity:1; fill:none" points="
  818.31,1269.62 818.31,675.721 
  "/>
<polyline clip-path="url(#clip6502)" style="stroke:#e26f46; stroke-width:4; stroke-opacity:1; fill:none" points="
  1064.21,1408.46 1064.21,773.59 
  "/>
<polyline clip-path="url(#clip6502)" style="stroke:#e26f46; stroke-width:4; stroke-opacity:1; fill:none" points="
  1310.12,1495.19 1310.12,952.748 
  "/>
<polyline clip-path="url(#clip6502)" style="stroke:#e26f46; stroke-width:4; stroke-opacity:1; fill:none" points="
  1556.02,1607.22 1556.02,1074.76 
  "/>
<polyline clip-path="url(#clip6502)" style="stroke:#e26f46; stroke-width:4; stroke-opacity:1; fill:none" points="
  1801.93,1664.85 1801.93,1143.51 
  "/>
<polyline clip-path="url(#clip6502)" style="stroke:#e26f46; stroke-width:4; stroke-opacity:1; fill:none" points="
  2047.83,1689.08 2047.83,1160.43 
  "/>
<polyline clip-path="url(#clip6502)" style="stroke:#e26f46; stroke-width:4; stroke-opacity:1; fill:none" points="
  2293.74,1728.38 2293.74,1162.13 
  "/>
<line clip-path="url(#clip6502)" x1="346.5" y1="1829.39" x2="306.5" y2="1829.39" style="stroke:#000000; stroke-width:4; stroke-opacity:1"/>
<line clip-path="url(#clip6502)" x1="346.5" y1="1425.63" x2="306.5" y2="1425.63" style="stroke:#000000; stroke-width:4; stroke-opacity:1"/>
<line clip-path="url(#clip6502)" x1="469.453" y1="1780.72" x2="429.453" y2="1780.72" style="stroke:#000000; stroke-width:4; stroke-opacity:1"/>
<line clip-path="url(#clip6502)" x1="469.453" y1="1191.8" x2="429.453" y2="1191.8" style="stroke:#000000; stroke-width:4; stroke-opacity:1"/>
<line clip-path="url(#clip6502)" x1="592.405" y1="1557.99" x2="552.405" y2="1557.99" style="stroke:#000000; stroke-width:4; stroke-opacity:1"/>
<line clip-path="url(#clip6502)" x1="592.405" y1="783.146" x2="552.405" y2="783.146" style="stroke:#000000; stroke-width:4; stroke-opacity:1"/>
<line clip-path="url(#clip6502)" x1="838.31" y1="1269.62" x2="798.31" y2="1269.62" style="stroke:#000000; stroke-width:4; stroke-opacity:1"/>
<line clip-path="url(#clip6502)" x1="838.31" y1="675.721" x2="798.31" y2="675.721" style="stroke:#000000; stroke-width:4; stroke-opacity:1"/>
<line clip-path="url(#clip6502)" x1="1084.21" y1="1408.46" x2="1044.21" y2="1408.46" style="stroke:#000000; stroke-width:4; stroke-opacity:1"/>
<line clip-path="url(#clip6502)" x1="1084.21" y1="773.59" x2="1044.21" y2="773.59" style="stroke:#000000; stroke-width:4; stroke-opacity:1"/>
<line clip-path="url(#clip6502)" x1="1330.12" y1="1495.19" x2="1290.12" y2="1495.19" style="stroke:#000000; stroke-width:4; stroke-opacity:1"/>
<line clip-path="url(#clip6502)" x1="1330.12" y1="952.748" x2="1290.12" y2="952.748" style="stroke:#000000; stroke-width:4; stroke-opacity:1"/>
<line clip-path="url(#clip6502)" x1="1576.02" y1="1607.22" x2="1536.02" y2="1607.22" style="stroke:#000000; stroke-width:4; stroke-opacity:1"/>
<line clip-path="url(#clip6502)" x1="1576.02" y1="1074.76" x2="1536.02" y2="1074.76" style="stroke:#000000; stroke-width:4; stroke-opacity:1"/>
<line clip-path="url(#clip6502)" x1="1821.93" y1="1664.85" x2="1781.93" y2="1664.85" style="stroke:#000000; stroke-width:4; stroke-opacity:1"/>
<line clip-path="url(#clip6502)" x1="1821.93" y1="1143.51" x2="1781.93" y2="1143.51" style="stroke:#000000; stroke-width:4; stroke-opacity:1"/>
<line clip-path="url(#clip6502)" x1="2067.83" y1="1689.08" x2="2027.83" y2="1689.08" style="stroke:#000000; stroke-width:4; stroke-opacity:1"/>
<line clip-path="url(#clip6502)" x1="2067.83" y1="1160.43" x2="2027.83" y2="1160.43" style="stroke:#000000; stroke-width:4; stroke-opacity:1"/>
<line clip-path="url(#clip6502)" x1="2313.74" y1="1728.38" x2="2273.74" y2="1728.38" style="stroke:#000000; stroke-width:4; stroke-opacity:1"/>
<line clip-path="url(#clip6502)" x1="2313.74" y1="1162.13" x2="2273.74" y2="1162.13" style="stroke:#000000; stroke-width:4; stroke-opacity:1"/>
<polygon clip-path="url(#clip6500)" points="
1403.78,664.469 2208.76,664.469 2208.76,392.309 1403.78,392.309 
  " fill="#ffffff" fill-rule="evenodd" fill-opacity="1"/>
<polyline clip-path="url(#clip6500)" style="stroke:#000000; stroke-width:4; stroke-opacity:1; fill:none" points="
  1403.78,664.469 2208.76,664.469 2208.76,392.309 1403.78,392.309 1403.78,664.469 
  "/>
<polyline clip-path="url(#clip6500)" style="stroke:#009af9; stroke-width:4; stroke-opacity:1; fill:none" points="
  1451.78,483.029 1739.78,483.029 
  "/>
<g clip-path="url(#clip6500)">
<text style="fill:#000000; fill-opacity:1; font-family:Arial,Helvetica Neue,Helvetica,sans-serif; font-size:71px; text-anchor:start;" transform="rotate(0, 1787.78, 509.029)" x="1787.78" y="509.029">simulation</text>
</g>
<polyline clip-path="url(#clip6500)" style="stroke:#e26f46; stroke-width:4; stroke-opacity:1; fill:none" points="
  1451.78,573.749 1739.78,573.749 
  "/>
<g clip-path="url(#clip6500)">
<text style="fill:#000000; fill-opacity:1; font-family:Arial,Helvetica Neue,Helvetica,sans-serif; font-size:71px; text-anchor:start;" transform="rotate(0, 1787.78, 599.749)" x="1787.78" y="599.749">data</text>
</g>
<polygon clip-path="url(#clip6500)" points="
2667.48,2097.21 4752.76,2097.21 4752.76,195.029 2667.48,195.029 
  " fill="#ffffff" fill-rule="evenodd" fill-opacity="1"/>
<defs>
  <clipPath id="clip6503">
    <rect x="2667" y="195" width="2086" height="1903"/>
  </clipPath>
</defs>
<polyline clip-path="url(#clip6503)" style="stroke:#000000; stroke-width:2; stroke-opacity:0.1; fill:none" points="
  2726.5,2097.21 2726.5,195.029 
  "/>
<polyline clip-path="url(#clip6503)" style="stroke:#000000; stroke-width:2; stroke-opacity:0.1; fill:none" points="
  3218.31,2097.21 3218.31,195.029 
  "/>
<polyline clip-path="url(#clip6503)" style="stroke:#000000; stroke-width:2; stroke-opacity:0.1; fill:none" points="
  3710.12,2097.21 3710.12,195.029 
  "/>
<polyline clip-path="url(#clip6503)" style="stroke:#000000; stroke-width:2; stroke-opacity:0.1; fill:none" points="
  4201.93,2097.21 4201.93,195.029 
  "/>
<polyline clip-path="url(#clip6503)" style="stroke:#000000; stroke-width:2; stroke-opacity:0.1; fill:none" points="
  4693.74,2097.21 4693.74,195.029 
  "/>
<polyline clip-path="url(#clip6503)" style="stroke:#000000; stroke-width:2; stroke-opacity:0.1; fill:none" points="
  2667.48,2097.21 4752.76,2097.21 
  "/>
<polyline clip-path="url(#clip6503)" style="stroke:#000000; stroke-width:2; stroke-opacity:0.1; fill:none" points="
  2667.48,1674.5 4752.76,1674.5 
  "/>
<polyline clip-path="url(#clip6503)" style="stroke:#000000; stroke-width:2; stroke-opacity:0.1; fill:none" points="
  2667.48,1251.8 4752.76,1251.8 
  "/>
<polyline clip-path="url(#clip6503)" style="stroke:#000000; stroke-width:2; stroke-opacity:0.1; fill:none" points="
  2667.48,829.09 4752.76,829.09 
  "/>
<polyline clip-path="url(#clip6503)" style="stroke:#000000; stroke-width:2; stroke-opacity:0.1; fill:none" points="
  2667.48,406.382 4752.76,406.382 
  "/>
<polyline clip-path="url(#clip6500)" style="stroke:#000000; stroke-width:4; stroke-opacity:1; fill:none" points="
  2667.48,2097.21 4752.76,2097.21 
  "/>
<polyline clip-path="url(#clip6500)" style="stroke:#000000; stroke-width:4; stroke-opacity:1; fill:none" points="
  2667.48,2097.21 2667.48,195.029 
  "/>
<polyline clip-path="url(#clip6500)" style="stroke:#000000; stroke-width:4; stroke-opacity:1; fill:none" points="
  2726.5,2097.21 2726.5,2068.68 
  "/>
<polyline clip-path="url(#clip6500)" style="stroke:#000000; stroke-width:4; stroke-opacity:1; fill:none" points="
  3218.31,2097.21 3218.31,2068.68 
  "/>
<polyline clip-path="url(#clip6500)" style="stroke:#000000; stroke-width:4; stroke-opacity:1; fill:none" points="
  3710.12,2097.21 3710.12,2068.68 
  "/>
<polyline clip-path="url(#clip6500)" style="stroke:#000000; stroke-width:4; stroke-opacity:1; fill:none" points="
  4201.93,2097.21 4201.93,2068.68 
  "/>
<polyline clip-path="url(#clip6500)" style="stroke:#000000; stroke-width:4; stroke-opacity:1; fill:none" points="
  4693.74,2097.21 4693.74,2068.68 
  "/>
<polyline clip-path="url(#clip6500)" style="stroke:#000000; stroke-width:4; stroke-opacity:1; fill:none" points="
  2667.48,2097.21 2698.76,2097.21 
  "/>
<polyline clip-path="url(#clip6500)" style="stroke:#000000; stroke-width:4; stroke-opacity:1; fill:none" points="
  2667.48,1674.5 2698.76,1674.5 
  "/>
<polyline clip-path="url(#clip6500)" style="stroke:#000000; stroke-width:4; stroke-opacity:1; fill:none" points="
  2667.48,1251.8 2698.76,1251.8 
  "/>
<polyline clip-path="url(#clip6500)" style="stroke:#000000; stroke-width:4; stroke-opacity:1; fill:none" points="
  2667.48,829.09 2698.76,829.09 
  "/>
<polyline clip-path="url(#clip6500)" style="stroke:#000000; stroke-width:4; stroke-opacity:1; fill:none" points="
  2667.48,406.382 2698.76,406.382 
  "/>
<g clip-path="url(#clip6500)">
<text style="fill:#000000; fill-opacity:1; font-family:Arial,Helvetica Neue,Helvetica,sans-serif; font-size:71px; text-anchor:middle;" transform="rotate(0, 2726.5, 2183.61)" x="2726.5" y="2183.61">0</text>
</g>
<g clip-path="url(#clip6500)">
<text style="fill:#000000; fill-opacity:1; font-family:Arial,Helvetica Neue,Helvetica,sans-serif; font-size:71px; text-anchor:middle;" transform="rotate(0, 3218.31, 2183.61)" x="3218.31" y="2183.61">2</text>
</g>
<g clip-path="url(#clip6500)">
<text style="fill:#000000; fill-opacity:1; font-family:Arial,Helvetica Neue,Helvetica,sans-serif; font-size:71px; text-anchor:middle;" transform="rotate(0, 3710.12, 2183.61)" x="3710.12" y="2183.61">4</text>
</g>
<g clip-path="url(#clip6500)">
<text style="fill:#000000; fill-opacity:1; font-family:Arial,Helvetica Neue,Helvetica,sans-serif; font-size:71px; text-anchor:middle;" transform="rotate(0, 4201.93, 2183.61)" x="4201.93" y="2183.61">6</text>
</g>
<g clip-path="url(#clip6500)">
<text style="fill:#000000; fill-opacity:1; font-family:Arial,Helvetica Neue,Helvetica,sans-serif; font-size:71px; text-anchor:middle;" transform="rotate(0, 4693.74, 2183.61)" x="4693.74" y="2183.61">8</text>
</g>
<g clip-path="url(#clip6500)">
<text style="fill:#000000; fill-opacity:1; font-family:Arial,Helvetica Neue,Helvetica,sans-serif; font-size:71px; text-anchor:end;" transform="rotate(0, 2619.48, 2123.21)" x="2619.48" y="2123.21">0</text>
</g>
<g clip-path="url(#clip6500)">
<text style="fill:#000000; fill-opacity:1; font-family:Arial,Helvetica Neue,Helvetica,sans-serif; font-size:71px; text-anchor:end;" transform="rotate(0, 2619.48, 1700.5)" x="2619.48" y="1700.5">1</text>
</g>
<g clip-path="url(#clip6500)">
<text style="fill:#000000; fill-opacity:1; font-family:Arial,Helvetica Neue,Helvetica,sans-serif; font-size:71px; text-anchor:end;" transform="rotate(0, 2619.48, 1277.8)" x="2619.48" y="1277.8">2</text>
</g>
<g clip-path="url(#clip6500)">
<text style="fill:#000000; fill-opacity:1; font-family:Arial,Helvetica Neue,Helvetica,sans-serif; font-size:71px; text-anchor:end;" transform="rotate(0, 2619.48, 855.09)" x="2619.48" y="855.09">3</text>
</g>
<g clip-path="url(#clip6500)">
<text style="fill:#000000; fill-opacity:1; font-family:Arial,Helvetica Neue,Helvetica,sans-serif; font-size:71px; text-anchor:end;" transform="rotate(0, 2619.48, 432.382)" x="2619.48" y="432.382">4</text>
</g>
<g clip-path="url(#clip6500)">
<text style="fill:#000000; fill-opacity:1; font-family:Arial,Helvetica Neue,Helvetica,sans-serif; font-size:125px; text-anchor:middle;" transform="rotate(0, 3710.12, 109.2)" x="3710.12" y="109.2">Normal patient 45 mcg (3 patients)</text>
</g>
<g clip-path="url(#clip6500)">
<text style="fill:#000000; fill-opacity:1; font-family:Arial,Helvetica Neue,Helvetica,sans-serif; font-size:95px; text-anchor:middle;" transform="rotate(0, 3710.12, 2307.46)" x="3710.12" y="2307.46">Time (hours)</text>
</g>
<g clip-path="url(#clip6500)">
<text style="fill:#000000; fill-opacity:1; font-family:Arial,Helvetica Neue,Helvetica,sans-serif; font-size:95px; text-anchor:middle;" transform="rotate(-90, 2513.54, 1146.12)" x="2513.54" y="1146.12">T3 mcg/L</text>
</g>
<polygon clip-path="url(#clip6503)" points="
2726.5,1843.28 2751.09,1797.47 2775.68,1697.28 2800.27,1590.39 2824.86,1489.76 2849.45,1398.64 2874.04,1317.57 2898.63,1246.33 2923.22,1184.34 2947.81,1130.89 
  2972.41,1085.29 2997,1046.83 3021.59,1014.83 3046.18,988.656 3070.77,967.724 3095.36,951.49 3119.95,939.459 3144.54,931.176 3169.13,926.23 3193.72,924.243 
  3218.31,924.872 3242.9,927.814 3267.49,932.789 3292.08,939.524 3316.67,947.808 3341.26,957.651 3365.85,968.543 3390.44,979.997 3415.03,992.246 3439.62,1007.76 
  3464.21,1024.45 3488.81,1033.92 3513.4,1043.91 3537.99,1066.37 3562.58,1077.65 3587.17,1093.55 3611.76,1110.16 3636.35,1124.08 3660.94,1141.26 3685.53,1154.9 
  3710.12,1171.74 3734.71,1185.77 3759.3,1201.34 3783.89,1216.15 3808.48,1229.84 3833.07,1245.36 3857.66,1258.14 3882.25,1272.72 3906.84,1286.35 3931.43,1298.4 
  3956.02,1312.94 3980.61,1324.22 4005.21,1337.25 4029.8,1349.66 4054.39,1360.1 4078.98,1373.21 4103.57,1383.05 4128.16,1394.68 4152.75,1405.48 4177.34,1414.76 
  4201.93,1426.18 4226.52,1434.63 4251.11,1444.79 4275.7,1454.26 4300.29,1462.48 4324.88,1472.24 4349.47,1479.67 4374.06,1488.47 4398.65,1496.47 4423.24,1503.51 
  4447.83,1511.99 4472.42,1518.26 4497.01,1526.01 4521.61,1532.83 4546.2,1538.87 4570.79,1546.24 4595.38,1551.45 4619.97,1558.24 4644.56,1564 4669.15,1569.18 
  4693.74,1575.02 4693.74,1456.45 4669.15,1450.9 4644.56,1444.1 4619.97,1438.42 4595.38,1431.98 4570.79,1424.53 4546.2,1418.66 4521.61,1410.3 4497.01,1403.82 
  4472.42,1395.99 4447.83,1387.7 4423.24,1380.5 4398.65,1370.92 4374.06,1363.44 4349.47,1354.13 4324.88,1344.96 4300.29,1336.21 4275.7,1325.24 4251.11,1316.28 
  4226.52,1304.96 4201.93,1295.36 4177.34,1284.44 4152.75,1272.37 4128.16,1262.36 4103.57,1248.72 4078.98,1238.17 4054.39,1225.09 4029.8,1211.93 4005.21,1200.12 
  3980.61,1184.71 3956.02,1172.86 3931.43,1157.88 3906.84,1143.39 3882.25,1129.78 3857.66,1113.05 3833.07,1099.38 3808.48,1083.03 3783.89,1067.2 3759.3,1051.88 
  3734.71,1034.18 3710.12,1019.28 3685.53,1001.08 3660.94,985.66 3636.35,967.706 3611.76,951.206 3587.17,934.516 3562.58,915.119 3537.99,904.279 3513.4,879.157 
  3488.81,868.262 3464.21,858.164 3439.62,838.713 3415.03,822.098 3390.44,808.769 3365.85,796.115 3341.26,783.846 3316.67,772.77 3292.08,763.421 3267.49,755.726 
  3242.9,749.916 3218.31,746.292 3193.72,745.154 3169.13,746.831 3144.54,751.696 3119.95,760.155 3095.36,772.655 3070.77,789.691 3046.18,811.796 3021.59,839.562 
  2997,873.619 2972.41,914.659 2947.81,963.403 2923.22,1020.62 2898.63,1087.07 2874.04,1163.51 2849.45,1250.55 2824.86,1348.45 2800.27,1456.64 2775.68,1571.72 
  2751.09,1679.83 2726.5,1728.92 
  " fill="#009af9" fill-rule="evenodd" fill-opacity="0.3"/>
<polyline clip-path="url(#clip6503)" style="stroke:#009af9; stroke-width:4; stroke-opacity:1; fill:none" points="
  2726.5,1786.1 2751.09,1738.65 2775.68,1634.5 2800.27,1523.52 2824.86,1419.1 2849.45,1324.6 2874.04,1240.54 2898.63,1166.7 2923.22,1102.48 2947.81,1047.15 
  2972.41,999.977 2997,960.225 3021.59,927.195 3046.18,900.226 3070.77,878.707 3095.36,862.072 3119.95,849.807 3144.54,841.436 3169.13,836.53 3193.72,834.698 
  3218.31,835.582 3242.9,838.865 3267.49,844.258 3292.08,851.473 3316.67,860.289 3341.26,870.748 3365.85,882.329 3390.44,894.383 3415.03,907.172 3439.62,923.235 
  3464.21,941.309 3488.81,951.093 3513.4,961.535 3537.99,985.322 3562.58,996.384 3587.17,1014.03 3611.76,1030.68 3636.35,1045.89 3660.94,1063.46 3685.53,1077.99 
  3710.12,1095.51 3734.71,1109.98 3759.3,1126.61 3783.89,1141.68 3808.48,1156.43 3833.07,1172.37 3857.66,1185.6 3882.25,1201.25 3906.84,1214.87 3931.43,1228.14 
  3956.02,1242.9 3980.61,1254.47 4005.21,1268.69 4029.8,1280.8 4054.39,1292.6 4078.98,1305.69 4103.57,1315.88 4128.16,1328.52 4152.75,1338.93 4177.34,1349.6 
  4201.93,1360.77 4226.52,1369.8 4251.11,1380.53 4275.7,1389.75 4300.29,1399.35 4324.88,1408.6 4349.47,1416.9 4374.06,1425.95 4398.65,1433.7 4423.24,1442 
  4447.83,1449.85 4472.42,1457.12 4497.01,1464.91 4521.61,1471.57 4546.2,1478.76 4570.79,1485.38 4595.38,1491.71 4619.97,1498.33 4644.56,1504.05 4669.15,1510.04 
  4693.74,1515.73 
  "/>
<polyline clip-path="url(#clip6503)" style="stroke:#e26f46; stroke-width:4; stroke-opacity:1; fill:none" points="
  2726.5,1786.1 2849.45,1685.64 2972.41,1324.5 3218.31,852.057 3464.21,983.659 3710.12,1095.82 3956.02,1151.62 4201.93,1357.61 4447.83,1380.3 4693.74,1455.4 
  
  "/>
<polyline clip-path="url(#clip6503)" style="stroke:#e26f46; stroke-width:4; stroke-opacity:1; fill:none" points="
  2726.5,1843.28 2726.5,1728.92 
  "/>
<polyline clip-path="url(#clip6503)" style="stroke:#e26f46; stroke-width:4; stroke-opacity:1; fill:none" points="
  2849.45,1728.46 2849.45,1642.81 
  "/>
<polyline clip-path="url(#clip6503)" style="stroke:#e26f46; stroke-width:4; stroke-opacity:1; fill:none" points="
  2972.41,1624.52 2972.41,1024.49 
  "/>
<polyline clip-path="url(#clip6503)" style="stroke:#e26f46; stroke-width:4; stroke-opacity:1; fill:none" points="
  3218.31,1296.54 3218.31,407.573 
  "/>
<polyline clip-path="url(#clip6503)" style="stroke:#e26f46; stroke-width:4; stroke-opacity:1; fill:none" points="
  3464.21,1390.16 3464.21,577.161 
  "/>
<polyline clip-path="url(#clip6503)" style="stroke:#e26f46; stroke-width:4; stroke-opacity:1; fill:none" points="
  3710.12,1410.02 3710.12,781.62 
  "/>
<polyline clip-path="url(#clip6503)" style="stroke:#e26f46; stroke-width:4; stroke-opacity:1; fill:none" points="
  3956.02,1371.08 3956.02,932.15 
  "/>
<polyline clip-path="url(#clip6503)" style="stroke:#e26f46; stroke-width:4; stroke-opacity:1; fill:none" points="
  4201.93,1498.22 4201.93,1217.01 
  "/>
<polyline clip-path="url(#clip6503)" style="stroke:#e26f46; stroke-width:4; stroke-opacity:1; fill:none" points="
  4447.83,1541.21 4447.83,1219.39 
  "/>
<polyline clip-path="url(#clip6503)" style="stroke:#e26f46; stroke-width:4; stroke-opacity:1; fill:none" points="
  4693.74,1585.53 4693.74,1325.27 
  "/>
<line clip-path="url(#clip6503)" x1="2746.5" y1="1843.28" x2="2706.5" y2="1843.28" style="stroke:#000000; stroke-width:4; stroke-opacity:1"/>
<line clip-path="url(#clip6503)" x1="2746.5" y1="1728.92" x2="2706.5" y2="1728.92" style="stroke:#000000; stroke-width:4; stroke-opacity:1"/>
<line clip-path="url(#clip6503)" x1="2869.45" y1="1728.46" x2="2829.45" y2="1728.46" style="stroke:#000000; stroke-width:4; stroke-opacity:1"/>
<line clip-path="url(#clip6503)" x1="2869.45" y1="1642.81" x2="2829.45" y2="1642.81" style="stroke:#000000; stroke-width:4; stroke-opacity:1"/>
<line clip-path="url(#clip6503)" x1="2992.41" y1="1624.52" x2="2952.41" y2="1624.52" style="stroke:#000000; stroke-width:4; stroke-opacity:1"/>
<line clip-path="url(#clip6503)" x1="2992.41" y1="1024.49" x2="2952.41" y2="1024.49" style="stroke:#000000; stroke-width:4; stroke-opacity:1"/>
<line clip-path="url(#clip6503)" x1="3238.31" y1="1296.54" x2="3198.31" y2="1296.54" style="stroke:#000000; stroke-width:4; stroke-opacity:1"/>
<line clip-path="url(#clip6503)" x1="3238.31" y1="407.573" x2="3198.31" y2="407.573" style="stroke:#000000; stroke-width:4; stroke-opacity:1"/>
<line clip-path="url(#clip6503)" x1="3484.21" y1="1390.16" x2="3444.21" y2="1390.16" style="stroke:#000000; stroke-width:4; stroke-opacity:1"/>
<line clip-path="url(#clip6503)" x1="3484.21" y1="577.161" x2="3444.21" y2="577.161" style="stroke:#000000; stroke-width:4; stroke-opacity:1"/>
<line clip-path="url(#clip6503)" x1="3730.12" y1="1410.02" x2="3690.12" y2="1410.02" style="stroke:#000000; stroke-width:4; stroke-opacity:1"/>
<line clip-path="url(#clip6503)" x1="3730.12" y1="781.62" x2="3690.12" y2="781.62" style="stroke:#000000; stroke-width:4; stroke-opacity:1"/>
<line clip-path="url(#clip6503)" x1="3976.02" y1="1371.08" x2="3936.02" y2="1371.08" style="stroke:#000000; stroke-width:4; stroke-opacity:1"/>
<line clip-path="url(#clip6503)" x1="3976.02" y1="932.15" x2="3936.02" y2="932.15" style="stroke:#000000; stroke-width:4; stroke-opacity:1"/>
<line clip-path="url(#clip6503)" x1="4221.93" y1="1498.22" x2="4181.93" y2="1498.22" style="stroke:#000000; stroke-width:4; stroke-opacity:1"/>
<line clip-path="url(#clip6503)" x1="4221.93" y1="1217.01" x2="4181.93" y2="1217.01" style="stroke:#000000; stroke-width:4; stroke-opacity:1"/>
<line clip-path="url(#clip6503)" x1="4467.83" y1="1541.21" x2="4427.83" y2="1541.21" style="stroke:#000000; stroke-width:4; stroke-opacity:1"/>
<line clip-path="url(#clip6503)" x1="4467.83" y1="1219.39" x2="4427.83" y2="1219.39" style="stroke:#000000; stroke-width:4; stroke-opacity:1"/>
<line clip-path="url(#clip6503)" x1="4713.74" y1="1585.53" x2="4673.74" y2="1585.53" style="stroke:#000000; stroke-width:4; stroke-opacity:1"/>
<line clip-path="url(#clip6503)" x1="4713.74" y1="1325.27" x2="4673.74" y2="1325.27" style="stroke:#000000; stroke-width:4; stroke-opacity:1"/>
<polygon clip-path="url(#clip6500)" points="
3803.78,664.469 4608.76,664.469 4608.76,392.309 3803.78,392.309 
  " fill="#ffffff" fill-rule="evenodd" fill-opacity="1"/>
<polyline clip-path="url(#clip6500)" style="stroke:#000000; stroke-width:4; stroke-opacity:1; fill:none" points="
  3803.78,664.469 4608.76,664.469 4608.76,392.309 3803.78,392.309 3803.78,664.469 
  "/>
<polyline clip-path="url(#clip6500)" style="stroke:#009af9; stroke-width:4; stroke-opacity:1; fill:none" points="
  3851.78,483.029 4139.78,483.029 
  "/>
<g clip-path="url(#clip6500)">
<text style="fill:#000000; fill-opacity:1; font-family:Arial,Helvetica Neue,Helvetica,sans-serif; font-size:71px; text-anchor:start;" transform="rotate(0, 4187.78, 509.029)" x="4187.78" y="509.029">simulation</text>
</g>
<polyline clip-path="url(#clip6500)" style="stroke:#e26f46; stroke-width:4; stroke-opacity:1; fill:none" points="
  3851.78,573.749 4139.78,573.749 
  "/>
<g clip-path="url(#clip6500)">
<text style="fill:#000000; fill-opacity:1; font-family:Arial,Helvetica Neue,Helvetica,sans-serif; font-size:71px; text-anchor:start;" transform="rotate(0, 4187.78, 599.749)" x="4187.78" y="599.749">data</text>
</g>
<polygon clip-path="url(#clip6500)" points="
267.483,4497.21 2352.76,4497.21 2352.76,2595.03 267.483,2595.03 
  " fill="#ffffff" fill-rule="evenodd" fill-opacity="1"/>
<defs>
  <clipPath id="clip6504">
    <rect x="267" y="2595" width="2086" height="1903"/>
  </clipPath>
</defs>
<polyline clip-path="url(#clip6504)" style="stroke:#000000; stroke-width:2; stroke-opacity:0.1; fill:none" points="
  326.5,4497.21 326.5,2595.03 
  "/>
<polyline clip-path="url(#clip6504)" style="stroke:#000000; stroke-width:2; stroke-opacity:0.1; fill:none" points="
  818.31,4497.21 818.31,2595.03 
  "/>
<polyline clip-path="url(#clip6504)" style="stroke:#000000; stroke-width:2; stroke-opacity:0.1; fill:none" points="
  1310.12,4497.21 1310.12,2595.03 
  "/>
<polyline clip-path="url(#clip6504)" style="stroke:#000000; stroke-width:2; stroke-opacity:0.1; fill:none" points="
  1801.93,4497.21 1801.93,2595.03 
  "/>
<polyline clip-path="url(#clip6504)" style="stroke:#000000; stroke-width:2; stroke-opacity:0.1; fill:none" points="
  2293.74,4497.21 2293.74,2595.03 
  "/>
<polyline clip-path="url(#clip6504)" style="stroke:#000000; stroke-width:2; stroke-opacity:0.1; fill:none" points="
  267.483,4497.21 2352.76,4497.21 
  "/>
<polyline clip-path="url(#clip6504)" style="stroke:#000000; stroke-width:2; stroke-opacity:0.1; fill:none" points="
  267.483,4074.5 2352.76,4074.5 
  "/>
<polyline clip-path="url(#clip6504)" style="stroke:#000000; stroke-width:2; stroke-opacity:0.1; fill:none" points="
  267.483,3651.8 2352.76,3651.8 
  "/>
<polyline clip-path="url(#clip6504)" style="stroke:#000000; stroke-width:2; stroke-opacity:0.1; fill:none" points="
  267.483,3229.09 2352.76,3229.09 
  "/>
<polyline clip-path="url(#clip6504)" style="stroke:#000000; stroke-width:2; stroke-opacity:0.1; fill:none" points="
  267.483,2806.38 2352.76,2806.38 
  "/>
<polyline clip-path="url(#clip6500)" style="stroke:#000000; stroke-width:4; stroke-opacity:1; fill:none" points="
  267.483,4497.21 2352.76,4497.21 
  "/>
<polyline clip-path="url(#clip6500)" style="stroke:#000000; stroke-width:4; stroke-opacity:1; fill:none" points="
  267.483,4497.21 267.483,2595.03 
  "/>
<polyline clip-path="url(#clip6500)" style="stroke:#000000; stroke-width:4; stroke-opacity:1; fill:none" points="
  326.5,4497.21 326.5,4468.68 
  "/>
<polyline clip-path="url(#clip6500)" style="stroke:#000000; stroke-width:4; stroke-opacity:1; fill:none" points="
  818.31,4497.21 818.31,4468.68 
  "/>
<polyline clip-path="url(#clip6500)" style="stroke:#000000; stroke-width:4; stroke-opacity:1; fill:none" points="
  1310.12,4497.21 1310.12,4468.68 
  "/>
<polyline clip-path="url(#clip6500)" style="stroke:#000000; stroke-width:4; stroke-opacity:1; fill:none" points="
  1801.93,4497.21 1801.93,4468.68 
  "/>
<polyline clip-path="url(#clip6500)" style="stroke:#000000; stroke-width:4; stroke-opacity:1; fill:none" points="
  2293.74,4497.21 2293.74,4468.68 
  "/>
<polyline clip-path="url(#clip6500)" style="stroke:#000000; stroke-width:4; stroke-opacity:1; fill:none" points="
  267.483,4497.21 298.762,4497.21 
  "/>
<polyline clip-path="url(#clip6500)" style="stroke:#000000; stroke-width:4; stroke-opacity:1; fill:none" points="
  267.483,4074.5 298.762,4074.5 
  "/>
<polyline clip-path="url(#clip6500)" style="stroke:#000000; stroke-width:4; stroke-opacity:1; fill:none" points="
  267.483,3651.8 298.762,3651.8 
  "/>
<polyline clip-path="url(#clip6500)" style="stroke:#000000; stroke-width:4; stroke-opacity:1; fill:none" points="
  267.483,3229.09 298.762,3229.09 
  "/>
<polyline clip-path="url(#clip6500)" style="stroke:#000000; stroke-width:4; stroke-opacity:1; fill:none" points="
  267.483,2806.38 298.762,2806.38 
  "/>
<g clip-path="url(#clip6500)">
<text style="fill:#000000; fill-opacity:1; font-family:Arial,Helvetica Neue,Helvetica,sans-serif; font-size:71px; text-anchor:middle;" transform="rotate(0, 326.5, 4583.61)" x="326.5" y="4583.61">0</text>
</g>
<g clip-path="url(#clip6500)">
<text style="fill:#000000; fill-opacity:1; font-family:Arial,Helvetica Neue,Helvetica,sans-serif; font-size:71px; text-anchor:middle;" transform="rotate(0, 818.31, 4583.61)" x="818.31" y="4583.61">2</text>
</g>
<g clip-path="url(#clip6500)">
<text style="fill:#000000; fill-opacity:1; font-family:Arial,Helvetica Neue,Helvetica,sans-serif; font-size:71px; text-anchor:middle;" transform="rotate(0, 1310.12, 4583.61)" x="1310.12" y="4583.61">4</text>
</g>
<g clip-path="url(#clip6500)">
<text style="fill:#000000; fill-opacity:1; font-family:Arial,Helvetica Neue,Helvetica,sans-serif; font-size:71px; text-anchor:middle;" transform="rotate(0, 1801.93, 4583.61)" x="1801.93" y="4583.61">6</text>
</g>
<g clip-path="url(#clip6500)">
<text style="fill:#000000; fill-opacity:1; font-family:Arial,Helvetica Neue,Helvetica,sans-serif; font-size:71px; text-anchor:middle;" transform="rotate(0, 2293.74, 4583.61)" x="2293.74" y="4583.61">8</text>
</g>
<g clip-path="url(#clip6500)">
<text style="fill:#000000; fill-opacity:1; font-family:Arial,Helvetica Neue,Helvetica,sans-serif; font-size:71px; text-anchor:end;" transform="rotate(0, 219.483, 4523.21)" x="219.483" y="4523.21">0</text>
</g>
<g clip-path="url(#clip6500)">
<text style="fill:#000000; fill-opacity:1; font-family:Arial,Helvetica Neue,Helvetica,sans-serif; font-size:71px; text-anchor:end;" transform="rotate(0, 219.483, 4100.5)" x="219.483" y="4100.5">1</text>
</g>
<g clip-path="url(#clip6500)">
<text style="fill:#000000; fill-opacity:1; font-family:Arial,Helvetica Neue,Helvetica,sans-serif; font-size:71px; text-anchor:end;" transform="rotate(0, 219.483, 3677.8)" x="219.483" y="3677.8">2</text>
</g>
<g clip-path="url(#clip6500)">
<text style="fill:#000000; fill-opacity:1; font-family:Arial,Helvetica Neue,Helvetica,sans-serif; font-size:71px; text-anchor:end;" transform="rotate(0, 219.483, 3255.09)" x="219.483" y="3255.09">3</text>
</g>
<g clip-path="url(#clip6500)">
<text style="fill:#000000; fill-opacity:1; font-family:Arial,Helvetica Neue,Helvetica,sans-serif; font-size:71px; text-anchor:end;" transform="rotate(0, 219.483, 2832.38)" x="219.483" y="2832.38">4</text>
</g>
<g clip-path="url(#clip6500)">
<text style="fill:#000000; fill-opacity:1; font-family:Arial,Helvetica Neue,Helvetica,sans-serif; font-size:125px; text-anchor:middle;" transform="rotate(0, 1310.12, 2509.2)" x="1310.12" y="2509.2">Overweight patient 30 mcg (2 patients)</text>
</g>
<g clip-path="url(#clip6500)">
<text style="fill:#000000; fill-opacity:1; font-family:Arial,Helvetica Neue,Helvetica,sans-serif; font-size:95px; text-anchor:middle;" transform="rotate(0, 1310.12, 4707.46)" x="1310.12" y="4707.46">Time (hours)</text>
</g>
<g clip-path="url(#clip6500)">
<text style="fill:#000000; fill-opacity:1; font-family:Arial,Helvetica Neue,Helvetica,sans-serif; font-size:95px; text-anchor:middle;" transform="rotate(-90, 113.54, 3546.12)" x="113.54" y="3546.12">T3 mcg/L</text>
</g>
<polygon clip-path="url(#clip6504)" points="
326.5,4158.12 351.091,4124.94 375.681,4051.71 400.272,3973.87 424.862,3900.77 449.453,3834.66 474.043,3775.9 498.634,3724.35 523.224,3687.34 547.815,3659.26 
  572.405,3635.57 596.996,3615.84 621.586,3599.72 646.177,3586.83 670.767,3576.86 695.357,3569.48 719.948,3564.42 744.538,3561.42 769.129,3560.25 793.719,3560.71 
  818.31,3562.59 842.9,3565.71 867.491,3569.99 892.081,3575.29 916.672,3581.16 941.262,3587.65 965.853,3597.36 990.443,3609.44 1015.03,3613.29 1039.62,3613.29 
  1064.21,3627.65 1088.81,3638.6 1113.4,3645.08 1137.99,3656.97 1162.58,3665.02 1187.17,3675.99 1211.76,3684.31 1236.35,3695.09 1260.94,3703.51 1285.53,3713.87 
  1310.12,3722.71 1334.71,3731.84 1359.3,3741.62 1383.89,3749.21 1408.48,3759.54 1433.07,3767.18 1457.66,3775.91 1482.25,3784.89 1506.84,3791.38 1531.43,3801.27 
  1556.02,3807.53 1580.61,3816.13 1605.21,3823.46 1629.8,3829.88 1654.39,3838.31 1678.98,3843.53 1703.57,3851.84 1728.16,3857.41 1752.75,3864.1 1777.34,3870.7 
  1801.93,3875.51 1826.52,3881.93 1851.11,3887.86 1875.7,3893.83 1900.29,3898.95 1924.88,3904.19 1949.47,3909.06 1974.06,3914.29 1998.65,3919.06 2023.24,3926.06 
  2047.83,3930.17 2072.42,3936.46 2097.01,3941.35 2121.61,3945.82 2146.2,3951.68 2170.79,3954.97 2195.38,3960.8 2219.97,3964.5 2244.56,3968.8 2269.15,3973.46 
  2293.74,3976.44 2293.74,3966.38 2269.15,3962.87 2244.56,3959.51 2219.97,3955.98 2195.38,3952.21 2170.79,3948.66 2146.2,3944.54 2121.61,3940.73 2097.01,3936.53 
  2072.42,3932.24 2047.83,3928.02 2023.24,3923.26 1998.65,3918.83 1974.06,3913.88 1949.47,3908.03 1924.88,3901.33 1900.29,3896.04 1875.7,3887.97 1851.11,3882.69 
  1826.52,3875.04 1801.93,3868.07 1777.34,3861.16 1752.75,3852.32 1728.16,3846.17 1703.57,3836.69 1678.98,3829.62 1654.39,3820.9 1629.8,3811.61 1605.21,3804.09 
  1580.61,3793.13 1556.02,3785.68 1531.43,3775.17 1506.84,3765.53 1482.25,3756.48 1457.66,3744.61 1433.07,3736.04 1408.48,3724.51 1383.89,3713.98 1359.3,3703.73 
  1334.71,3691.46 1310.12,3681.55 1285.53,3669.43 1260.94,3658.48 1236.35,3647.08 1211.76,3635 1187.17,3624.4 1162.58,3611.08 1137.99,3601.95 1113.4,3586 
  1088.81,3581.88 1064.21,3562.96 1039.62,3553.79 1015.03,3552.69 990.443,3544.47 965.853,3530.12 941.262,3521.17 916.672,3514.04 892.081,3507.68 867.491,3502.22 
  842.9,3498.17 818.31,3495.63 793.719,3494.74 769.129,3495.76 744.538,3498.93 719.948,3504.52 695.357,3512.84 670.767,3524.23 646.177,3539.03 621.586,3557.67 
  596.996,3580.56 572.405,3608.17 547.815,3640.99 523.224,3679.54 498.634,3720.19 474.043,3758.22 449.453,3801.75 424.862,3850.92 400.272,3905.49 375.681,3963.7 
  351.091,4018.23 326.5,4040.35 
  " fill="#009af9" fill-rule="evenodd" fill-opacity="0.3"/>
<polyline clip-path="url(#clip6504)" style="stroke:#009af9; stroke-width:4; stroke-opacity:1; fill:none" points="
  326.5,4099.23 351.091,4071.59 375.681,4007.7 400.272,3939.68 424.862,3875.85 449.453,3818.21 474.043,3767.06 498.634,3722.27 523.224,3683.44 547.815,3650.12 
  572.405,3621.87 596.996,3598.2 621.586,3578.7 646.177,3562.93 670.767,3550.54 695.357,3541.16 719.948,3534.47 744.538,3530.17 769.129,3528.01 793.719,3527.73 
  818.31,3529.11 842.9,3531.94 867.491,3536.1 892.081,3541.48 916.672,3547.6 941.262,3554.41 965.853,3563.74 990.443,3576.95 1015.03,3582.99 1039.62,3583.54 
  1064.21,3595.31 1088.81,3610.24 1113.4,3615.54 1137.99,3629.46 1162.58,3638.05 1187.17,3650.2 1211.76,3659.65 1236.35,3671.08 1260.94,3681 1285.53,3691.65 
  1310.12,3702.13 1334.71,3711.65 1359.3,3722.68 1383.89,3731.6 1408.48,3742.02 1433.07,3751.61 1457.66,3760.26 1482.25,3770.68 1506.84,3778.45 1531.43,3788.22 
  1556.02,3796.6 1580.61,3804.63 1605.21,3813.78 1629.8,3820.75 1654.39,3829.61 1678.98,3836.57 1703.57,3844.27 1728.16,3851.79 1752.75,3858.21 1777.34,3865.93 
  1801.93,3871.79 1826.52,3878.48 1851.11,3885.28 1875.7,3890.9 1900.29,3897.49 1924.88,3902.76 1949.47,3908.55 1974.06,3914.09 1998.65,3918.94 2023.24,3924.66 
  2047.83,3929.09 2072.42,3934.35 2097.01,3938.94 2121.61,3943.28 2146.2,3948.11 2170.79,3951.82 2195.38,3956.5 2219.97,3960.24 2244.56,3964.16 2269.15,3968.16 
  2293.74,3971.41 
  "/>
<polyline clip-path="url(#clip6504)" style="stroke:#e26f46; stroke-width:4; stroke-opacity:1; fill:none" points="
  326.5,4099.23 449.453,4023.99 572.405,3910.49 818.31,3746.91 1064.21,3798.26 1310.12,3848.99 1556.02,3890.84 1801.93,3982.56 2047.83,4043.01 2293.74,4006.66 
  
  "/>
<polyline clip-path="url(#clip6504)" style="stroke:#e26f46; stroke-width:4; stroke-opacity:1; fill:none" points="
  326.5,4301.11 326.5,3897.35 
  "/>
<polyline clip-path="url(#clip6504)" style="stroke:#e26f46; stroke-width:4; stroke-opacity:1; fill:none" points="
  449.453,4318.45 449.453,3729.53 
  "/>
<polyline clip-path="url(#clip6504)" style="stroke:#e26f46; stroke-width:4; stroke-opacity:1; fill:none" points="
  572.405,4297.91 572.405,3523.07 
  "/>
<polyline clip-path="url(#clip6504)" style="stroke:#e26f46; stroke-width:4; stroke-opacity:1; fill:none" points="
  818.31,4043.85 818.31,3449.96 
  "/>
<polyline clip-path="url(#clip6504)" style="stroke:#e26f46; stroke-width:4; stroke-opacity:1; fill:none" points="
  1064.21,4115.7 1064.21,3480.83 
  "/>
<polyline clip-path="url(#clip6504)" style="stroke:#e26f46; stroke-width:4; stroke-opacity:1; fill:none" points="
  1310.12,4120.21 1310.12,3577.77 
  "/>
<polyline clip-path="url(#clip6504)" style="stroke:#e26f46; stroke-width:4; stroke-opacity:1; fill:none" points="
  1556.02,4157.07 1556.02,3624.61 
  "/>
<polyline clip-path="url(#clip6504)" style="stroke:#e26f46; stroke-width:4; stroke-opacity:1; fill:none" points="
  1801.93,4243.23 1801.93,3721.9 
  "/>
<polyline clip-path="url(#clip6504)" style="stroke:#e26f46; stroke-width:4; stroke-opacity:1; fill:none" points="
  2047.83,4307.33 2047.83,3778.69 
  "/>
<polyline clip-path="url(#clip6504)" style="stroke:#e26f46; stroke-width:4; stroke-opacity:1; fill:none" points="
  2293.74,4289.79 2293.74,3723.53 
  "/>
<line clip-path="url(#clip6504)" x1="346.5" y1="4301.11" x2="306.5" y2="4301.11" style="stroke:#000000; stroke-width:4; stroke-opacity:1"/>
<line clip-path="url(#clip6504)" x1="346.5" y1="3897.35" x2="306.5" y2="3897.35" style="stroke:#000000; stroke-width:4; stroke-opacity:1"/>
<line clip-path="url(#clip6504)" x1="469.453" y1="4318.45" x2="429.453" y2="4318.45" style="stroke:#000000; stroke-width:4; stroke-opacity:1"/>
<line clip-path="url(#clip6504)" x1="469.453" y1="3729.53" x2="429.453" y2="3729.53" style="stroke:#000000; stroke-width:4; stroke-opacity:1"/>
<line clip-path="url(#clip6504)" x1="592.405" y1="4297.91" x2="552.405" y2="4297.91" style="stroke:#000000; stroke-width:4; stroke-opacity:1"/>
<line clip-path="url(#clip6504)" x1="592.405" y1="3523.07" x2="552.405" y2="3523.07" style="stroke:#000000; stroke-width:4; stroke-opacity:1"/>
<line clip-path="url(#clip6504)" x1="838.31" y1="4043.85" x2="798.31" y2="4043.85" style="stroke:#000000; stroke-width:4; stroke-opacity:1"/>
<line clip-path="url(#clip6504)" x1="838.31" y1="3449.96" x2="798.31" y2="3449.96" style="stroke:#000000; stroke-width:4; stroke-opacity:1"/>
<line clip-path="url(#clip6504)" x1="1084.21" y1="4115.7" x2="1044.21" y2="4115.7" style="stroke:#000000; stroke-width:4; stroke-opacity:1"/>
<line clip-path="url(#clip6504)" x1="1084.21" y1="3480.83" x2="1044.21" y2="3480.83" style="stroke:#000000; stroke-width:4; stroke-opacity:1"/>
<line clip-path="url(#clip6504)" x1="1330.12" y1="4120.21" x2="1290.12" y2="4120.21" style="stroke:#000000; stroke-width:4; stroke-opacity:1"/>
<line clip-path="url(#clip6504)" x1="1330.12" y1="3577.77" x2="1290.12" y2="3577.77" style="stroke:#000000; stroke-width:4; stroke-opacity:1"/>
<line clip-path="url(#clip6504)" x1="1576.02" y1="4157.07" x2="1536.02" y2="4157.07" style="stroke:#000000; stroke-width:4; stroke-opacity:1"/>
<line clip-path="url(#clip6504)" x1="1576.02" y1="3624.61" x2="1536.02" y2="3624.61" style="stroke:#000000; stroke-width:4; stroke-opacity:1"/>
<line clip-path="url(#clip6504)" x1="1821.93" y1="4243.23" x2="1781.93" y2="4243.23" style="stroke:#000000; stroke-width:4; stroke-opacity:1"/>
<line clip-path="url(#clip6504)" x1="1821.93" y1="3721.9" x2="1781.93" y2="3721.9" style="stroke:#000000; stroke-width:4; stroke-opacity:1"/>
<line clip-path="url(#clip6504)" x1="2067.83" y1="4307.33" x2="2027.83" y2="4307.33" style="stroke:#000000; stroke-width:4; stroke-opacity:1"/>
<line clip-path="url(#clip6504)" x1="2067.83" y1="3778.69" x2="2027.83" y2="3778.69" style="stroke:#000000; stroke-width:4; stroke-opacity:1"/>
<line clip-path="url(#clip6504)" x1="2313.74" y1="4289.79" x2="2273.74" y2="4289.79" style="stroke:#000000; stroke-width:4; stroke-opacity:1"/>
<line clip-path="url(#clip6504)" x1="2313.74" y1="3723.53" x2="2273.74" y2="3723.53" style="stroke:#000000; stroke-width:4; stroke-opacity:1"/>
<polygon clip-path="url(#clip6500)" points="
1403.78,3064.47 2208.76,3064.47 2208.76,2792.31 1403.78,2792.31 
  " fill="#ffffff" fill-rule="evenodd" fill-opacity="1"/>
<polyline clip-path="url(#clip6500)" style="stroke:#000000; stroke-width:4; stroke-opacity:1; fill:none" points="
  1403.78,3064.47 2208.76,3064.47 2208.76,2792.31 1403.78,2792.31 1403.78,3064.47 
  "/>
<polyline clip-path="url(#clip6500)" style="stroke:#009af9; stroke-width:4; stroke-opacity:1; fill:none" points="
  1451.78,2883.03 1739.78,2883.03 
  "/>
<g clip-path="url(#clip6500)">
<text style="fill:#000000; fill-opacity:1; font-family:Arial,Helvetica Neue,Helvetica,sans-serif; font-size:71px; text-anchor:start;" transform="rotate(0, 1787.78, 2909.03)" x="1787.78" y="2909.03">simulation</text>
</g>
<polyline clip-path="url(#clip6500)" style="stroke:#e26f46; stroke-width:4; stroke-opacity:1; fill:none" points="
  1451.78,2973.75 1739.78,2973.75 
  "/>
<g clip-path="url(#clip6500)">
<text style="fill:#000000; fill-opacity:1; font-family:Arial,Helvetica Neue,Helvetica,sans-serif; font-size:71px; text-anchor:start;" transform="rotate(0, 1787.78, 2999.75)" x="1787.78" y="2999.75">data</text>
</g>
<polygon clip-path="url(#clip6500)" points="
2667.48,4497.21 4752.76,4497.21 4752.76,2595.03 2667.48,2595.03 
  " fill="#ffffff" fill-rule="evenodd" fill-opacity="1"/>
<defs>
  <clipPath id="clip6505">
    <rect x="2667" y="2595" width="2086" height="1903"/>
  </clipPath>
</defs>
<polyline clip-path="url(#clip6505)" style="stroke:#000000; stroke-width:2; stroke-opacity:0.1; fill:none" points="
  2726.5,4497.21 2726.5,2595.03 
  "/>
<polyline clip-path="url(#clip6505)" style="stroke:#000000; stroke-width:2; stroke-opacity:0.1; fill:none" points="
  3218.31,4497.21 3218.31,2595.03 
  "/>
<polyline clip-path="url(#clip6505)" style="stroke:#000000; stroke-width:2; stroke-opacity:0.1; fill:none" points="
  3710.12,4497.21 3710.12,2595.03 
  "/>
<polyline clip-path="url(#clip6505)" style="stroke:#000000; stroke-width:2; stroke-opacity:0.1; fill:none" points="
  4201.93,4497.21 4201.93,2595.03 
  "/>
<polyline clip-path="url(#clip6505)" style="stroke:#000000; stroke-width:2; stroke-opacity:0.1; fill:none" points="
  4693.74,4497.21 4693.74,2595.03 
  "/>
<polyline clip-path="url(#clip6505)" style="stroke:#000000; stroke-width:2; stroke-opacity:0.1; fill:none" points="
  2667.48,4497.21 4752.76,4497.21 
  "/>
<polyline clip-path="url(#clip6505)" style="stroke:#000000; stroke-width:2; stroke-opacity:0.1; fill:none" points="
  2667.48,4074.5 4752.76,4074.5 
  "/>
<polyline clip-path="url(#clip6505)" style="stroke:#000000; stroke-width:2; stroke-opacity:0.1; fill:none" points="
  2667.48,3651.8 4752.76,3651.8 
  "/>
<polyline clip-path="url(#clip6505)" style="stroke:#000000; stroke-width:2; stroke-opacity:0.1; fill:none" points="
  2667.48,3229.09 4752.76,3229.09 
  "/>
<polyline clip-path="url(#clip6505)" style="stroke:#000000; stroke-width:2; stroke-opacity:0.1; fill:none" points="
  2667.48,2806.38 4752.76,2806.38 
  "/>
<polyline clip-path="url(#clip6500)" style="stroke:#000000; stroke-width:4; stroke-opacity:1; fill:none" points="
  2667.48,4497.21 4752.76,4497.21 
  "/>
<polyline clip-path="url(#clip6500)" style="stroke:#000000; stroke-width:4; stroke-opacity:1; fill:none" points="
  2667.48,4497.21 2667.48,2595.03 
  "/>
<polyline clip-path="url(#clip6500)" style="stroke:#000000; stroke-width:4; stroke-opacity:1; fill:none" points="
  2726.5,4497.21 2726.5,4468.68 
  "/>
<polyline clip-path="url(#clip6500)" style="stroke:#000000; stroke-width:4; stroke-opacity:1; fill:none" points="
  3218.31,4497.21 3218.31,4468.68 
  "/>
<polyline clip-path="url(#clip6500)" style="stroke:#000000; stroke-width:4; stroke-opacity:1; fill:none" points="
  3710.12,4497.21 3710.12,4468.68 
  "/>
<polyline clip-path="url(#clip6500)" style="stroke:#000000; stroke-width:4; stroke-opacity:1; fill:none" points="
  4201.93,4497.21 4201.93,4468.68 
  "/>
<polyline clip-path="url(#clip6500)" style="stroke:#000000; stroke-width:4; stroke-opacity:1; fill:none" points="
  4693.74,4497.21 4693.74,4468.68 
  "/>
<polyline clip-path="url(#clip6500)" style="stroke:#000000; stroke-width:4; stroke-opacity:1; fill:none" points="
  2667.48,4497.21 2698.76,4497.21 
  "/>
<polyline clip-path="url(#clip6500)" style="stroke:#000000; stroke-width:4; stroke-opacity:1; fill:none" points="
  2667.48,4074.5 2698.76,4074.5 
  "/>
<polyline clip-path="url(#clip6500)" style="stroke:#000000; stroke-width:4; stroke-opacity:1; fill:none" points="
  2667.48,3651.8 2698.76,3651.8 
  "/>
<polyline clip-path="url(#clip6500)" style="stroke:#000000; stroke-width:4; stroke-opacity:1; fill:none" points="
  2667.48,3229.09 2698.76,3229.09 
  "/>
<polyline clip-path="url(#clip6500)" style="stroke:#000000; stroke-width:4; stroke-opacity:1; fill:none" points="
  2667.48,2806.38 2698.76,2806.38 
  "/>
<g clip-path="url(#clip6500)">
<text style="fill:#000000; fill-opacity:1; font-family:Arial,Helvetica Neue,Helvetica,sans-serif; font-size:71px; text-anchor:middle;" transform="rotate(0, 2726.5, 4583.61)" x="2726.5" y="4583.61">0</text>
</g>
<g clip-path="url(#clip6500)">
<text style="fill:#000000; fill-opacity:1; font-family:Arial,Helvetica Neue,Helvetica,sans-serif; font-size:71px; text-anchor:middle;" transform="rotate(0, 3218.31, 4583.61)" x="3218.31" y="4583.61">2</text>
</g>
<g clip-path="url(#clip6500)">
<text style="fill:#000000; fill-opacity:1; font-family:Arial,Helvetica Neue,Helvetica,sans-serif; font-size:71px; text-anchor:middle;" transform="rotate(0, 3710.12, 4583.61)" x="3710.12" y="4583.61">4</text>
</g>
<g clip-path="url(#clip6500)">
<text style="fill:#000000; fill-opacity:1; font-family:Arial,Helvetica Neue,Helvetica,sans-serif; font-size:71px; text-anchor:middle;" transform="rotate(0, 4201.93, 4583.61)" x="4201.93" y="4583.61">6</text>
</g>
<g clip-path="url(#clip6500)">
<text style="fill:#000000; fill-opacity:1; font-family:Arial,Helvetica Neue,Helvetica,sans-serif; font-size:71px; text-anchor:middle;" transform="rotate(0, 4693.74, 4583.61)" x="4693.74" y="4583.61">8</text>
</g>
<g clip-path="url(#clip6500)">
<text style="fill:#000000; fill-opacity:1; font-family:Arial,Helvetica Neue,Helvetica,sans-serif; font-size:71px; text-anchor:end;" transform="rotate(0, 2619.48, 4523.21)" x="2619.48" y="4523.21">0</text>
</g>
<g clip-path="url(#clip6500)">
<text style="fill:#000000; fill-opacity:1; font-family:Arial,Helvetica Neue,Helvetica,sans-serif; font-size:71px; text-anchor:end;" transform="rotate(0, 2619.48, 4100.5)" x="2619.48" y="4100.5">1</text>
</g>
<g clip-path="url(#clip6500)">
<text style="fill:#000000; fill-opacity:1; font-family:Arial,Helvetica Neue,Helvetica,sans-serif; font-size:71px; text-anchor:end;" transform="rotate(0, 2619.48, 3677.8)" x="2619.48" y="3677.8">2</text>
</g>
<g clip-path="url(#clip6500)">
<text style="fill:#000000; fill-opacity:1; font-family:Arial,Helvetica Neue,Helvetica,sans-serif; font-size:71px; text-anchor:end;" transform="rotate(0, 2619.48, 3255.09)" x="2619.48" y="3255.09">3</text>
</g>
<g clip-path="url(#clip6500)">
<text style="fill:#000000; fill-opacity:1; font-family:Arial,Helvetica Neue,Helvetica,sans-serif; font-size:71px; text-anchor:end;" transform="rotate(0, 2619.48, 2832.38)" x="2619.48" y="2832.38">4</text>
</g>
<g clip-path="url(#clip6500)">
<text style="fill:#000000; fill-opacity:1; font-family:Arial,Helvetica Neue,Helvetica,sans-serif; font-size:125px; text-anchor:middle;" transform="rotate(0, 3710.12, 2509.2)" x="3710.12" y="2509.2">Overweight patient 45 mcg (4 patients)</text>
</g>
<g clip-path="url(#clip6500)">
<text style="fill:#000000; fill-opacity:1; font-family:Arial,Helvetica Neue,Helvetica,sans-serif; font-size:95px; text-anchor:middle;" transform="rotate(0, 3710.12, 4707.46)" x="3710.12" y="4707.46">Time (hours)</text>
</g>
<g clip-path="url(#clip6500)">
<text style="fill:#000000; fill-opacity:1; font-family:Arial,Helvetica Neue,Helvetica,sans-serif; font-size:95px; text-anchor:middle;" transform="rotate(-90, 2513.54, 3546.12)" x="2513.54" y="3546.12">T3 mcg/L</text>
</g>
<polygon clip-path="url(#clip6505)" points="
2726.5,4168.14 2751.09,4120.99 2775.68,4014.33 2800.27,3900.03 2824.86,3792.28 2849.45,3694.72 2874.04,3607.97 2898.63,3531.78 2923.22,3465.55 2947.81,3408.51 
  2972.41,3359.92 2997,3319.01 3021.59,3285.05 3046.18,3257.37 3070.77,3235.32 3095.36,3218.33 3119.95,3205.86 3144.54,3197.42 3169.13,3192.57 3193.72,3190.9 
  3218.31,3192.04 3242.9,3195.68 3267.49,3201.49 3292.08,3209.2 3316.67,3218.59 3341.26,3229.56 3365.85,3241.56 3390.44,3254.43 3415.03,3268.79 3439.62,3288.77 
  3464.21,3305.86 3488.81,3314.15 3513.4,3322.64 3537.99,3347.69 3562.58,3363.96 3587.17,3378.81 3611.76,3398.68 3636.35,3413.58 3660.94,3432.74 3685.53,3447.94 
  3710.12,3466.25 3734.71,3482.1 3759.3,3498.81 3783.89,3515.52 3808.48,3530.27 3833.07,3547.52 3857.66,3561.91 3882.25,3577.32 3906.84,3593.12 3931.43,3605.76 
  3956.02,3621.99 3980.61,3634.95 4005.21,3648.33 4029.8,3663.07 4054.39,3673.83 4078.98,3688.54 4103.57,3699.86 4128.16,3711.82 4152.75,3724.78 4177.34,3734.18 
  4201.93,3747.24 4226.52,3756.79 4251.11,3767.69 4275.7,3778.7 4300.29,3786.85 4324.88,3798.44 4349.47,3806.25 4374.06,3816.07 4398.65,3825.53 4423.24,3832.52 
  4447.83,3842.76 4472.42,3849.15 4497.01,3857.87 4521.61,3865.91 4546.2,3871.68 4570.79,3880.65 4595.38,3886.55 4619.97,3893.74 4644.56,3900.9 4669.15,3906.02 
  4693.74,3912.72 4693.74,3794.15 4669.15,3787.74 4644.56,3781 4619.97,3773.92 4595.38,3767.07 4570.79,3758.94 4546.2,3751.47 4521.61,3743.38 4497.01,3735.68 
  4472.42,3726.88 4447.83,3718.47 4423.24,3709.52 4398.65,3699.98 4374.06,3691.03 4349.47,3680.71 4324.88,3671.16 4300.29,3660.58 4275.7,3649.68 4251.11,3639.18 
  4226.52,3627.12 4201.93,3616.42 4177.34,3603.87 4152.75,3591.67 4128.16,3579.49 4103.57,3565.54 4078.98,3553.5 4054.39,3538.81 4029.8,3525.34 4005.21,3511.2 
  3980.61,3495.44 3956.02,3481.92 3931.43,3465.24 3906.84,3450.15 3882.25,3434.38 3857.66,3416.82 3833.07,3401.54 3808.48,3383.47 3783.89,3366.58 3759.3,3349.35 
  3734.71,3330.51 3710.12,3313.79 3685.53,3294.11 3660.94,3277.15 3636.35,3257.21 3611.76,3239.73 3587.17,3219.78 3562.58,3201.43 3537.99,3185.61 3513.4,3157.88 
  3488.81,3148.48 3464.21,3139.57 3439.62,3119.72 3415.03,3098.64 3390.44,3083.2 3365.85,3069.13 3341.26,3055.76 3316.67,3043.56 3292.08,3033.09 3267.49,3024.43 
  3242.9,3017.78 3218.31,3013.46 3193.72,3011.81 3169.13,3013.17 3144.54,3017.94 3119.95,3026.55 3095.36,3039.49 3070.77,3057.29 3046.18,3080.51 3021.59,3109.79 
  2997,3145.8 2972.41,3189.29 2947.81,3241.02 2923.22,3301.83 2898.63,3372.52 2874.04,3453.9 2849.45,3546.63 2824.86,3650.97 2800.27,3766.28 2775.68,3888.77 
  2751.09,4003.35 2726.5,4053.78 
  " fill="#009af9" fill-rule="evenodd" fill-opacity="0.3"/>
<polyline clip-path="url(#clip6505)" style="stroke:#009af9; stroke-width:4; stroke-opacity:1; fill:none" points="
  2726.5,4110.96 2751.09,4062.17 2775.68,3951.55 2800.27,3833.16 2824.86,3721.63 2849.45,3620.67 2874.04,3530.94 2898.63,3452.15 2923.22,3383.69 2947.81,3324.77 
  2972.41,3274.61 2997,3232.41 3021.59,3197.42 3046.18,3168.94 3070.77,3146.3 3095.36,3128.91 3119.95,3116.21 3144.54,3107.68 3169.13,3102.87 3193.72,3101.35 
  3218.31,3102.75 3242.9,3106.73 3267.49,3112.96 3292.08,3121.15 3316.67,3131.08 3341.26,3142.66 3365.85,3155.35 3390.44,3168.82 3415.03,3183.71 3439.62,3204.25 
  3464.21,3222.72 3488.81,3231.31 3513.4,3240.26 3537.99,3266.65 3562.58,3282.69 3587.17,3299.29 3611.76,3319.21 3636.35,3335.4 3660.94,3354.95 3685.53,3371.03 
  3710.12,3390.02 3734.71,3406.3 3759.3,3424.08 3783.89,3441.05 3808.48,3456.87 3833.07,3474.53 3857.66,3489.36 3882.25,3505.85 3906.84,3521.63 3931.43,3535.5 
  3956.02,3551.95 3980.61,3565.2 4005.21,3579.77 4029.8,3594.2 4054.39,3606.32 4078.98,3621.02 4103.57,3632.7 4128.16,3645.65 4152.75,3658.22 4177.34,3669.02 
  4201.93,3681.83 4226.52,3691.95 4251.11,3703.44 4275.7,3714.19 4300.29,3723.71 4324.88,3734.8 4349.47,3743.48 4374.06,3753.55 4398.65,3762.75 4423.24,3771.02 
  4447.83,3780.62 4472.42,3788.02 4497.01,3796.78 4521.61,3804.65 4546.2,3811.57 4570.79,3819.8 4595.38,3826.81 4619.97,3833.83 4644.56,3840.95 4669.15,3846.88 
  4693.74,3853.44 
  "/>
<polyline clip-path="url(#clip6505)" style="stroke:#e26f46; stroke-width:4; stroke-opacity:1; fill:none" points="
  2726.5,4110.96 2849.45,3976.86 2972.41,3304.44 3218.31,2885.01 3464.21,3115.28 3710.12,3263.22 3956.02,3494.66 4201.93,3617.35 4447.83,3727.67 4693.74,3817.92 
  
  "/>
<polyline clip-path="url(#clip6505)" style="stroke:#e26f46; stroke-width:4; stroke-opacity:1; fill:none" points="
  2726.5,4168.14 2726.5,4053.78 
  "/>
<polyline clip-path="url(#clip6505)" style="stroke:#e26f46; stroke-width:4; stroke-opacity:1; fill:none" points="
  2849.45,4019.69 2849.45,3934.03 
  "/>
<polyline clip-path="url(#clip6505)" style="stroke:#e26f46; stroke-width:4; stroke-opacity:1; fill:none" points="
  2972.41,3604.45 2972.41,3004.42 
  "/>
<polyline clip-path="url(#clip6505)" style="stroke:#e26f46; stroke-width:4; stroke-opacity:1; fill:none" points="
  3218.31,3329.49 3218.31,2440.52 
  "/>
<polyline clip-path="url(#clip6505)" style="stroke:#e26f46; stroke-width:4; stroke-opacity:1; fill:none" points="
  3464.21,3521.77 3464.21,2708.78 
  "/>
<polyline clip-path="url(#clip6505)" style="stroke:#e26f46; stroke-width:4; stroke-opacity:1; fill:none" points="
  3710.12,3577.42 3710.12,2949.03 
  "/>
<polyline clip-path="url(#clip6505)" style="stroke:#e26f46; stroke-width:4; stroke-opacity:1; fill:none" points="
  3956.02,3714.12 3956.02,3275.19 
  "/>
<polyline clip-path="url(#clip6505)" style="stroke:#e26f46; stroke-width:4; stroke-opacity:1; fill:none" points="
  4201.93,3757.95 4201.93,3476.74 
  "/>
<polyline clip-path="url(#clip6505)" style="stroke:#e26f46; stroke-width:4; stroke-opacity:1; fill:none" points="
  4447.83,3888.58 4447.83,3566.76 
  "/>
<polyline clip-path="url(#clip6505)" style="stroke:#e26f46; stroke-width:4; stroke-opacity:1; fill:none" points="
  4693.74,3948.05 4693.74,3687.79 
  "/>
<line clip-path="url(#clip6505)" x1="2746.5" y1="4168.14" x2="2706.5" y2="4168.14" style="stroke:#000000; stroke-width:4; stroke-opacity:1"/>
<line clip-path="url(#clip6505)" x1="2746.5" y1="4053.78" x2="2706.5" y2="4053.78" style="stroke:#000000; stroke-width:4; stroke-opacity:1"/>
<line clip-path="url(#clip6505)" x1="2869.45" y1="4019.69" x2="2829.45" y2="4019.69" style="stroke:#000000; stroke-width:4; stroke-opacity:1"/>
<line clip-path="url(#clip6505)" x1="2869.45" y1="3934.03" x2="2829.45" y2="3934.03" style="stroke:#000000; stroke-width:4; stroke-opacity:1"/>
<line clip-path="url(#clip6505)" x1="2992.41" y1="3604.45" x2="2952.41" y2="3604.45" style="stroke:#000000; stroke-width:4; stroke-opacity:1"/>
<line clip-path="url(#clip6505)" x1="2992.41" y1="3004.42" x2="2952.41" y2="3004.42" style="stroke:#000000; stroke-width:4; stroke-opacity:1"/>
<line clip-path="url(#clip6505)" x1="3238.31" y1="3329.49" x2="3198.31" y2="3329.49" style="stroke:#000000; stroke-width:4; stroke-opacity:1"/>
<line clip-path="url(#clip6505)" x1="3484.21" y1="3521.77" x2="3444.21" y2="3521.77" style="stroke:#000000; stroke-width:4; stroke-opacity:1"/>
<line clip-path="url(#clip6505)" x1="3484.21" y1="2708.78" x2="3444.21" y2="2708.78" style="stroke:#000000; stroke-width:4; stroke-opacity:1"/>
<line clip-path="url(#clip6505)" x1="3730.12" y1="3577.42" x2="3690.12" y2="3577.42" style="stroke:#000000; stroke-width:4; stroke-opacity:1"/>
<line clip-path="url(#clip6505)" x1="3730.12" y1="2949.03" x2="3690.12" y2="2949.03" style="stroke:#000000; stroke-width:4; stroke-opacity:1"/>
<line clip-path="url(#clip6505)" x1="3976.02" y1="3714.12" x2="3936.02" y2="3714.12" style="stroke:#000000; stroke-width:4; stroke-opacity:1"/>
<line clip-path="url(#clip6505)" x1="3976.02" y1="3275.19" x2="3936.02" y2="3275.19" style="stroke:#000000; stroke-width:4; stroke-opacity:1"/>
<line clip-path="url(#clip6505)" x1="4221.93" y1="3757.95" x2="4181.93" y2="3757.95" style="stroke:#000000; stroke-width:4; stroke-opacity:1"/>
<line clip-path="url(#clip6505)" x1="4221.93" y1="3476.74" x2="4181.93" y2="3476.74" style="stroke:#000000; stroke-width:4; stroke-opacity:1"/>
<line clip-path="url(#clip6505)" x1="4467.83" y1="3888.58" x2="4427.83" y2="3888.58" style="stroke:#000000; stroke-width:4; stroke-opacity:1"/>
<line clip-path="url(#clip6505)" x1="4467.83" y1="3566.76" x2="4427.83" y2="3566.76" style="stroke:#000000; stroke-width:4; stroke-opacity:1"/>
<line clip-path="url(#clip6505)" x1="4713.74" y1="3948.05" x2="4673.74" y2="3948.05" style="stroke:#000000; stroke-width:4; stroke-opacity:1"/>
<line clip-path="url(#clip6505)" x1="4713.74" y1="3687.79" x2="4673.74" y2="3687.79" style="stroke:#000000; stroke-width:4; stroke-opacity:1"/>
<polygon clip-path="url(#clip6500)" points="
3803.78,3064.47 4608.76,3064.47 4608.76,2792.31 3803.78,2792.31 
  " fill="#ffffff" fill-rule="evenodd" fill-opacity="1"/>
<polyline clip-path="url(#clip6500)" style="stroke:#000000; stroke-width:4; stroke-opacity:1; fill:none" points="
  3803.78,3064.47 4608.76,3064.47 4608.76,2792.31 3803.78,2792.31 3803.78,3064.47 
  "/>
<polyline clip-path="url(#clip6500)" style="stroke:#009af9; stroke-width:4; stroke-opacity:1; fill:none" points="
  3851.78,2883.03 4139.78,2883.03 
  "/>
<g clip-path="url(#clip6500)">
<text style="fill:#000000; fill-opacity:1; font-family:Arial,Helvetica Neue,Helvetica,sans-serif; font-size:71px; text-anchor:start;" transform="rotate(0, 4187.78, 2909.03)" x="4187.78" y="2909.03">simulation</text>
</g>
<polyline clip-path="url(#clip6500)" style="stroke:#e26f46; stroke-width:4; stroke-opacity:1; fill:none" points="
  3851.78,2973.75 4139.78,2973.75 
  "/>
<g clip-path="url(#clip6500)">
<text style="fill:#000000; fill-opacity:1; font-family:Arial,Helvetica Neue,Helvetica,sans-serif; font-size:71px; text-anchor:start;" transform="rotate(0, 4187.78, 2999.75)" x="4187.78" y="2999.75">data</text>
</g>
</svg>
