<?xml version="1.0" encoding="utf-8"?>
<svg xmlns="http://www.w3.org/2000/svg" xmlns:xlink="http://www.w3.org/1999/xlink" width="1200" height="1200" viewBox="0 0 4800 4800">
<defs>
  <clipPath id="clip5900">
    <rect x="0" y="0" width="4800" height="4800"/>
  </clipPath>
</defs>
<path clip-path="url(#clip5900)" d="
M0 4800 L4800 4800 L4800 0 L0 0  Z
  " fill="#ffffff" fill-rule="evenodd" fill-opacity="1"/>
<defs>
  <clipPath id="clip5901">
    <rect x="960" y="480" width="3361" height="3361"/>
  </clipPath>
</defs>
<path clip-path="url(#clip5900)" d="
M267.483 2097.21 L2352.76 2097.21 L2352.76 195.029 L267.483 195.029  Z
  " fill="#ffffff" fill-rule="evenodd" fill-opacity="1"/>
<defs>
  <clipPath id="clip5902">
    <rect x="267" y="195" width="2086" height="1903"/>
  </clipPath>
</defs>
<polyline clip-path="url(#clip5902)" style="stroke:#000000; stroke-width:2; stroke-opacity:0.1; fill:none" points="
  326.5,2097.21 326.5,195.029 
  "/>
<polyline clip-path="url(#clip5902)" style="stroke:#000000; stroke-width:2; stroke-opacity:0.1; fill:none" points="
  818.31,2097.21 818.31,195.029 
  "/>
<polyline clip-path="url(#clip5902)" style="stroke:#000000; stroke-width:2; stroke-opacity:0.1; fill:none" points="
  1310.12,2097.21 1310.12,195.029 
  "/>
<polyline clip-path="url(#clip5902)" style="stroke:#000000; stroke-width:2; stroke-opacity:0.1; fill:none" points="
  1801.93,2097.21 1801.93,195.029 
  "/>
<polyline clip-path="url(#clip5902)" style="stroke:#000000; stroke-width:2; stroke-opacity:0.1; fill:none" points="
  2293.74,2097.21 2293.74,195.029 
  "/>
<polyline clip-path="url(#clip5902)" style="stroke:#000000; stroke-width:2; stroke-opacity:0.1; fill:none" points="
  267.483,2097.21 2352.76,2097.21 
  "/>
<polyline clip-path="url(#clip5902)" style="stroke:#000000; stroke-width:2; stroke-opacity:0.1; fill:none" points="
  267.483,1674.5 2352.76,1674.5 
  "/>
<polyline clip-path="url(#clip5902)" style="stroke:#000000; stroke-width:2; stroke-opacity:0.1; fill:none" points="
  267.483,1251.8 2352.76,1251.8 
  "/>
<polyline clip-path="url(#clip5902)" style="stroke:#000000; stroke-width:2; stroke-opacity:0.1; fill:none" points="
  267.483,829.09 2352.76,829.09 
  "/>
<polyline clip-path="url(#clip5902)" style="stroke:#000000; stroke-width:2; stroke-opacity:0.1; fill:none" points="
  267.483,406.382 2352.76,406.382 
  "/>
<polyline clip-path="url(#clip5900)" style="stroke:#000000; stroke-width:4; stroke-opacity:1; fill:none" points="
  267.483,2097.21 2352.76,2097.21 
  "/>
<polyline clip-path="url(#clip5900)" style="stroke:#000000; stroke-width:4; stroke-opacity:1; fill:none" points="
  267.483,2097.21 267.483,195.029 
  "/>
<polyline clip-path="url(#clip5900)" style="stroke:#000000; stroke-width:4; stroke-opacity:1; fill:none" points="
  326.5,2097.21 326.5,2074.38 
  "/>
<polyline clip-path="url(#clip5900)" style="stroke:#000000; stroke-width:4; stroke-opacity:1; fill:none" points="
  818.31,2097.21 818.31,2074.38 
  "/>
<polyline clip-path="url(#clip5900)" style="stroke:#000000; stroke-width:4; stroke-opacity:1; fill:none" points="
  1310.12,2097.21 1310.12,2074.38 
  "/>
<polyline clip-path="url(#clip5900)" style="stroke:#000000; stroke-width:4; stroke-opacity:1; fill:none" points="
  1801.93,2097.21 1801.93,2074.38 
  "/>
<polyline clip-path="url(#clip5900)" style="stroke:#000000; stroke-width:4; stroke-opacity:1; fill:none" points="
  2293.74,2097.21 2293.74,2074.38 
  "/>
<polyline clip-path="url(#clip5900)" style="stroke:#000000; stroke-width:4; stroke-opacity:1; fill:none" points="
  267.483,2097.21 292.506,2097.21 
  "/>
<polyline clip-path="url(#clip5900)" style="stroke:#000000; stroke-width:4; stroke-opacity:1; fill:none" points="
  267.483,1674.5 292.506,1674.5 
  "/>
<polyline clip-path="url(#clip5900)" style="stroke:#000000; stroke-width:4; stroke-opacity:1; fill:none" points="
  267.483,1251.8 292.506,1251.8 
  "/>
<polyline clip-path="url(#clip5900)" style="stroke:#000000; stroke-width:4; stroke-opacity:1; fill:none" points="
  267.483,829.09 292.506,829.09 
  "/>
<polyline clip-path="url(#clip5900)" style="stroke:#000000; stroke-width:4; stroke-opacity:1; fill:none" points="
  267.483,406.382 292.506,406.382 
  "/>
<g clip-path="url(#clip5900)">
<text style="fill:#000000; fill-opacity:1; font-family:Arial,Helvetica Neue,Helvetica,sans-serif; font-size:71px; text-anchor:middle;" transform="rotate(0, 326.5, 2183.61)" x="326.5" y="2183.61">0</text>
</g>
<g clip-path="url(#clip5900)">
<text style="fill:#000000; fill-opacity:1; font-family:Arial,Helvetica Neue,Helvetica,sans-serif; font-size:71px; text-anchor:middle;" transform="rotate(0, 818.31, 2183.61)" x="818.31" y="2183.61">2</text>
</g>
<g clip-path="url(#clip5900)">
<text style="fill:#000000; fill-opacity:1; font-family:Arial,Helvetica Neue,Helvetica,sans-serif; font-size:71px; text-anchor:middle;" transform="rotate(0, 1310.12, 2183.61)" x="1310.12" y="2183.61">4</text>
</g>
<g clip-path="url(#clip5900)">
<text style="fill:#000000; fill-opacity:1; font-family:Arial,Helvetica Neue,Helvetica,sans-serif; font-size:71px; text-anchor:middle;" transform="rotate(0, 1801.93, 2183.61)" x="1801.93" y="2183.61">6</text>
</g>
<g clip-path="url(#clip5900)">
<text style="fill:#000000; fill-opacity:1; font-family:Arial,Helvetica Neue,Helvetica,sans-serif; font-size:71px; text-anchor:middle;" transform="rotate(0, 2293.74, 2183.61)" x="2293.74" y="2183.61">8</text>
</g>
<g clip-path="url(#clip5900)">
<text style="fill:#000000; fill-opacity:1; font-family:Arial,Helvetica Neue,Helvetica,sans-serif; font-size:71px; text-anchor:end;" transform="rotate(0, 219.483, 2123.21)" x="219.483" y="2123.21">0</text>
</g>
<g clip-path="url(#clip5900)">
<text style="fill:#000000; fill-opacity:1; font-family:Arial,Helvetica Neue,Helvetica,sans-serif; font-size:71px; text-anchor:end;" transform="rotate(0, 219.483, 1700.5)" x="219.483" y="1700.5">1</text>
</g>
<g clip-path="url(#clip5900)">
<text style="fill:#000000; fill-opacity:1; font-family:Arial,Helvetica Neue,Helvetica,sans-serif; font-size:71px; text-anchor:end;" transform="rotate(0, 219.483, 1277.8)" x="219.483" y="1277.8">2</text>
</g>
<g clip-path="url(#clip5900)">
<text style="fill:#000000; fill-opacity:1; font-family:Arial,Helvetica Neue,Helvetica,sans-serif; font-size:71px; text-anchor:end;" transform="rotate(0, 219.483, 855.09)" x="219.483" y="855.09">3</text>
</g>
<g clip-path="url(#clip5900)">
<text style="fill:#000000; fill-opacity:1; font-family:Arial,Helvetica Neue,Helvetica,sans-serif; font-size:71px; text-anchor:end;" transform="rotate(0, 219.483, 432.382)" x="219.483" y="432.382">4</text>
</g>
<g clip-path="url(#clip5900)">
<text style="fill:#000000; fill-opacity:1; font-family:Arial,Helvetica Neue,Helvetica,sans-serif; font-size:125px; text-anchor:middle;" transform="rotate(0, 1310.12, 109.2)" x="1310.12" y="109.2">Normal hypothyroid patient 30 mcg (n = 6)</text>
</g>
<g clip-path="url(#clip5900)">
<text style="fill:#000000; fill-opacity:1; font-family:Arial,Helvetica Neue,Helvetica,sans-serif; font-size:95px; text-anchor:middle;" transform="rotate(0, 1310.12, 2307.46)" x="1310.12" y="2307.46">Time (hours)</text>
</g>
<g clip-path="url(#clip5900)">
<text style="fill:#000000; fill-opacity:1; font-family:Arial,Helvetica Neue,Helvetica,sans-serif; font-size:95px; text-anchor:middle;" transform="rotate(-90, 113.54, 1146.12)" x="113.54" y="1146.12">T3 mcg/L</text>
</g>
<path clip-path="url(#clip5902)" d="
M326.5 1709.93 L351.091 1695.7 L375.681 1656.46 L400.272 1608.53 L424.862 1556.62 L449.453 1503.75 L474.043 1451.48 L498.634 1401.04 L523.224 1353.21 L547.815 1308.71 
  L572.405 1267.6 L596.996 1230.46 L621.586 1197.36 L646.177 1167.3 L670.767 1141.91 L695.357 1120.4 L719.948 1100.16 L744.538 1085.61 L769.129 1073.36 L793.719 1062.01 
  L818.31 1056.07 L842.9 1050.68 L867.491 1047.78 L892.081 1047.64 L916.672 1048.06 L941.262 1051.25 L965.853 1054.81 L990.443 1060.35 L1015.03 1066.6 L1039.62 1073.8 
  L1064.21 1082.09 L1088.81 1090.54 L1113.4 1100.23 L1137.99 1109.75 L1162.58 1120.27 L1187.17 1130.87 L1211.76 1141.61 L1236.35 1152.91 L1260.94 1163.73 L1285.53 1175.26 
  L1310.12 1186.45 L1334.71 1197.87 L1359.3 1209.26 L1383.89 1220.31 L1408.48 1231.63 L1433.07 1242.39 L1457.66 1253.47 L1482.25 1264.18 L1506.84 1274.69 L1531.43 1285.25 
  L1556.02 1295.13 L1580.61 1305.42 L1605.21 1314.87 L1629.8 1324.69 L1654.39 1333.97 L1678.98 1342.94 L1703.57 1352.16 L1728.16 1360.3 L1752.75 1369.4 L1777.34 1377.04 
  L1801.93 1385.51 L1826.52 1393.08 L1851.11 1400.49 L1875.7 1408.31 L1900.29 1414.69 L1924.88 1422.55 L1949.47 1428.48 L1974.06 1435.63 L1998.65 1441.7 L2023.24 1447.68 
  L2047.83 1454.19 L2072.42 1459.13 L2097.01 1465.68 L2121.61 1470.32 L2146.2 1476.13 L2170.79 1481.11 L2195.38 1485.75 L2219.97 1491.14 L2244.56 1495.03 L2269.15 1499.86 
  L2293.74 1504.09 L2293.74 1395.21 L2269.15 1390.92 L2244.56 1386.72 L2219.97 1381.91 L2195.38 1377.43 L2170.79 1372.08 L2146.2 1367.52 L2121.61 1361.66 L2097.01 1356.78 
  L2072.42 1350.76 L2047.83 1345.19 L2023.24 1339.33 L1998.65 1332.89 L1974.06 1327.1 L1949.47 1319.93 L1924.88 1313.86 L1900.29 1306.31 L1875.7 1299.58 L1851.11 1292.06 
  L1826.52 1284.45 L1801.93 1276.96 L1777.34 1268.63 L1752.75 1260.77 L1728.16 1251.99 L1703.57 1243.5 L1678.98 1234.5 L1654.39 1225.32 L1629.8 1216.03 L1605.21 1206.34 
  L1580.61 1196.58 L1556.02 1186.63 L1531.43 1176.26 L1506.84 1166.04 L1482.25 1155.09 L1457.66 1144.53 L1433.07 1133.2 L1408.48 1122.29 L1383.89 1110.96 L1359.3 1099.48 
  L1334.71 1088.3 L1310.12 1076.27 L1285.53 1065.36 L1260.94 1053.06 L1236.35 1042.47 L1211.76 1030.36 L1187.17 1019.73 L1162.58 1008.61 L1137.99 997.7 L1113.4 988.115 
  L1088.81 977.357 L1064.21 969.257 L1039.62 959.558 L1015.03 952.778 L990.443 945.142 L965.853 939.771 L941.262 935.006 L916.672 931.48 L892.081 930.279 L867.491 929.173 
  L842.9 932.363 L818.31 934.661 L793.719 942.736 L769.129 949.591 L744.538 963.226 L719.948 976.134 L695.357 994.003 L670.767 1015.42 L646.177 1038.41 L621.586 1066.71 
  L596.996 1098.12 L572.405 1132.9 L547.815 1171.69 L523.224 1213.64 L498.634 1258.64 L474.043 1306.12 L449.453 1355.22 L424.862 1404.83 L400.272 1453.43 L375.681 1498.18 
  L351.091 1534.2 L326.5 1545.1  Z
  " fill="#009af9" fill-rule="evenodd" fill-opacity="0.3"/>
<polyline clip-path="url(#clip5902)" style="stroke:#009af9; stroke-width:4; stroke-opacity:1; fill:none" points="
  326.5,1627.51 351.091,1614.95 375.681,1577.32 400.272,1530.98 424.862,1480.73 449.453,1429.48 474.043,1378.8 498.634,1329.84 523.224,1283.42 547.815,1240.2 
  572.405,1200.25 596.996,1164.29 621.586,1132.04 646.177,1102.85 670.767,1078.67 695.357,1057.2 719.948,1038.15 744.538,1024.42 769.129,1011.48 793.719,1002.37 
  818.31,995.368 842.9,991.521 867.491,988.477 892.081,988.962 916.672,989.768 941.262,993.128 965.853,997.29 990.443,1002.75 1015.03,1009.69 1039.62,1016.68 
  1064.21,1025.67 1088.81,1033.95 1113.4,1044.17 1137.99,1053.73 1162.58,1064.44 1187.17,1075.3 1211.76,1085.99 1236.35,1097.69 1260.94,1108.39 1285.53,1120.31 
  1310.12,1131.36 1334.71,1143.08 1359.3,1154.37 1383.89,1165.63 1408.48,1176.96 1433.07,1187.8 1457.66,1199 1482.25,1209.63 1506.84,1220.36 1531.43,1230.76 
  1556.02,1240.88 1580.61,1251 1605.21,1260.6 1629.8,1270.36 1654.39,1279.64 1678.98,1288.72 1703.57,1297.83 1728.16,1306.15 1752.75,1315.08 1777.34,1322.84 
  1801.93,1331.24 1826.52,1338.77 1851.11,1346.27 1875.7,1353.94 1900.29,1360.5 1924.88,1368.21 1949.47,1374.21 1974.06,1381.37 1998.65,1387.3 2023.24,1393.5 
  2047.83,1399.69 2072.42,1404.95 2097.01,1411.23 2121.61,1415.99 2146.2,1421.82 2170.79,1426.59 2195.38,1431.59 2219.97,1436.52 2244.56,1440.88 2269.15,1445.39 
  2293.74,1449.65 
  "/>
<polyline clip-path="url(#clip5902)" style="stroke:#e26f46; stroke-width:4; stroke-opacity:1; fill:none" points="
  326.5,1627.51 449.453,1486.26 572.405,1170.57 818.31,972.669 1064.21,1091.03 1310.12,1223.97 1556.02,1340.99 1801.93,1404.18 2047.83,1424.75 2293.74,1445.26 
  
  "/>
<polyline clip-path="url(#clip5902)" style="stroke:#e26f46; stroke-width:4; stroke-opacity:1; fill:none" points="
  326.5,1709.93 326.5,1545.1 
  "/>
<polyline clip-path="url(#clip5902)" style="stroke:#e26f46; stroke-width:4; stroke-opacity:1; fill:none" points="
  449.453,1606.47 449.453,1366.05 
  "/>
<polyline clip-path="url(#clip5902)" style="stroke:#e26f46; stroke-width:4; stroke-opacity:1; fill:none" points="
  572.405,1328.73 572.405,1012.4 
  "/>
<polyline clip-path="url(#clip5902)" style="stroke:#e26f46; stroke-width:4; stroke-opacity:1; fill:none" points="
  818.31,1093.9 818.31,851.441 
  "/>
<polyline clip-path="url(#clip5902)" style="stroke:#e26f46; stroke-width:4; stroke-opacity:1; fill:none" points="
  1064.21,1220.62 1064.21,961.434 
  "/>
<polyline clip-path="url(#clip5902)" style="stroke:#e26f46; stroke-width:4; stroke-opacity:1; fill:none" points="
  1310.12,1334.69 1310.12,1113.24 
  "/>
<polyline clip-path="url(#clip5902)" style="stroke:#e26f46; stroke-width:4; stroke-opacity:1; fill:none" points="
  1556.02,1449.68 1556.02,1232.3 
  "/>
<polyline clip-path="url(#clip5902)" style="stroke:#e26f46; stroke-width:4; stroke-opacity:1; fill:none" points="
  1801.93,1510.6 1801.93,1297.76 
  "/>
<polyline clip-path="url(#clip5902)" style="stroke:#e26f46; stroke-width:4; stroke-opacity:1; fill:none" points="
  2047.83,1532.66 2047.83,1316.85 
  "/>
<polyline clip-path="url(#clip5902)" style="stroke:#e26f46; stroke-width:4; stroke-opacity:1; fill:none" points="
  2293.74,1560.84 2293.74,1329.67 
  "/>
<line clip-path="url(#clip5902)" x1="346.5" y1="1709.93" x2="306.5" y2="1709.93" style="stroke:#000000; stroke-width:4; stroke-opacity:1"/>
<line clip-path="url(#clip5902)" x1="346.5" y1="1545.1" x2="306.5" y2="1545.1" style="stroke:#000000; stroke-width:4; stroke-opacity:1"/>
<line clip-path="url(#clip5902)" x1="469.453" y1="1606.47" x2="429.453" y2="1606.47" style="stroke:#000000; stroke-width:4; stroke-opacity:1"/>
<line clip-path="url(#clip5902)" x1="469.453" y1="1366.05" x2="429.453" y2="1366.05" style="stroke:#000000; stroke-width:4; stroke-opacity:1"/>
<line clip-path="url(#clip5902)" x1="592.405" y1="1328.73" x2="552.405" y2="1328.73" style="stroke:#000000; stroke-width:4; stroke-opacity:1"/>
<line clip-path="url(#clip5902)" x1="592.405" y1="1012.4" x2="552.405" y2="1012.4" style="stroke:#000000; stroke-width:4; stroke-opacity:1"/>
<line clip-path="url(#clip5902)" x1="838.31" y1="1093.9" x2="798.31" y2="1093.9" style="stroke:#000000; stroke-width:4; stroke-opacity:1"/>
<line clip-path="url(#clip5902)" x1="838.31" y1="851.441" x2="798.31" y2="851.441" style="stroke:#000000; stroke-width:4; stroke-opacity:1"/>
<line clip-path="url(#clip5902)" x1="1084.21" y1="1220.62" x2="1044.21" y2="1220.62" style="stroke:#000000; stroke-width:4; stroke-opacity:1"/>
<line clip-path="url(#clip5902)" x1="1084.21" y1="961.434" x2="1044.21" y2="961.434" style="stroke:#000000; stroke-width:4; stroke-opacity:1"/>
<line clip-path="url(#clip5902)" x1="1330.12" y1="1334.69" x2="1290.12" y2="1334.69" style="stroke:#000000; stroke-width:4; stroke-opacity:1"/>
<line clip-path="url(#clip5902)" x1="1330.12" y1="1113.24" x2="1290.12" y2="1113.24" style="stroke:#000000; stroke-width:4; stroke-opacity:1"/>
<line clip-path="url(#clip5902)" x1="1576.02" y1="1449.68" x2="1536.02" y2="1449.68" style="stroke:#000000; stroke-width:4; stroke-opacity:1"/>
<line clip-path="url(#clip5902)" x1="1576.02" y1="1232.3" x2="1536.02" y2="1232.3" style="stroke:#000000; stroke-width:4; stroke-opacity:1"/>
<line clip-path="url(#clip5902)" x1="1821.93" y1="1510.6" x2="1781.93" y2="1510.6" style="stroke:#000000; stroke-width:4; stroke-opacity:1"/>
<line clip-path="url(#clip5902)" x1="1821.93" y1="1297.76" x2="1781.93" y2="1297.76" style="stroke:#000000; stroke-width:4; stroke-opacity:1"/>
<line clip-path="url(#clip5902)" x1="2067.83" y1="1532.66" x2="2027.83" y2="1532.66" style="stroke:#000000; stroke-width:4; stroke-opacity:1"/>
<line clip-path="url(#clip5902)" x1="2067.83" y1="1316.85" x2="2027.83" y2="1316.85" style="stroke:#000000; stroke-width:4; stroke-opacity:1"/>
<line clip-path="url(#clip5902)" x1="2313.74" y1="1560.84" x2="2273.74" y2="1560.84" style="stroke:#000000; stroke-width:4; stroke-opacity:1"/>
<line clip-path="url(#clip5902)" x1="2313.74" y1="1329.67" x2="2273.74" y2="1329.67" style="stroke:#000000; stroke-width:4; stroke-opacity:1"/>
<path clip-path="url(#clip5900)" d="
M1403.78 664.469 L2208.76 664.469 L2208.76 392.309 L1403.78 392.309  Z
  " fill="#ffffff" fill-rule="evenodd" fill-opacity="1"/>
<polyline clip-path="url(#clip5900)" style="stroke:#000000; stroke-width:4; stroke-opacity:1; fill:none" points="
  1403.78,664.469 2208.76,664.469 2208.76,392.309 1403.78,392.309 1403.78,664.469 
  "/>
<polyline clip-path="url(#clip5900)" style="stroke:#009af9; stroke-width:4; stroke-opacity:1; fill:none" points="
  1451.78,483.029 1739.78,483.029 
  "/>
<g clip-path="url(#clip5900)">
<text style="fill:#000000; fill-opacity:1; font-family:Arial,Helvetica Neue,Helvetica,sans-serif; font-size:71px; text-anchor:start;" transform="rotate(0, 1787.78, 509.029)" x="1787.78" y="509.029">simulation</text>
</g>
<polyline clip-path="url(#clip5900)" style="stroke:#e26f46; stroke-width:4; stroke-opacity:1; fill:none" points="
  1451.78,573.749 1739.78,573.749 
  "/>
<g clip-path="url(#clip5900)">
<text style="fill:#000000; fill-opacity:1; font-family:Arial,Helvetica Neue,Helvetica,sans-serif; font-size:71px; text-anchor:start;" transform="rotate(0, 1787.78, 599.749)" x="1787.78" y="599.749">data</text>
</g>
<path clip-path="url(#clip5900)" d="
M2667.48 2097.21 L4752.76 2097.21 L4752.76 195.029 L2667.48 195.029  Z
  " fill="#ffffff" fill-rule="evenodd" fill-opacity="1"/>
<defs>
  <clipPath id="clip5903">
    <rect x="2667" y="195" width="2086" height="1903"/>
  </clipPath>
</defs>
<polyline clip-path="url(#clip5903)" style="stroke:#000000; stroke-width:2; stroke-opacity:0.1; fill:none" points="
  2726.5,2097.21 2726.5,195.029 
  "/>
<polyline clip-path="url(#clip5903)" style="stroke:#000000; stroke-width:2; stroke-opacity:0.1; fill:none" points="
  3218.31,2097.21 3218.31,195.029 
  "/>
<polyline clip-path="url(#clip5903)" style="stroke:#000000; stroke-width:2; stroke-opacity:0.1; fill:none" points="
  3710.12,2097.21 3710.12,195.029 
  "/>
<polyline clip-path="url(#clip5903)" style="stroke:#000000; stroke-width:2; stroke-opacity:0.1; fill:none" points="
  4201.93,2097.21 4201.93,195.029 
  "/>
<polyline clip-path="url(#clip5903)" style="stroke:#000000; stroke-width:2; stroke-opacity:0.1; fill:none" points="
  4693.74,2097.21 4693.74,195.029 
  "/>
<polyline clip-path="url(#clip5903)" style="stroke:#000000; stroke-width:2; stroke-opacity:0.1; fill:none" points="
  2667.48,2097.21 4752.76,2097.21 
  "/>
<polyline clip-path="url(#clip5903)" style="stroke:#000000; stroke-width:2; stroke-opacity:0.1; fill:none" points="
  2667.48,1674.5 4752.76,1674.5 
  "/>
<polyline clip-path="url(#clip5903)" style="stroke:#000000; stroke-width:2; stroke-opacity:0.1; fill:none" points="
  2667.48,1251.8 4752.76,1251.8 
  "/>
<polyline clip-path="url(#clip5903)" style="stroke:#000000; stroke-width:2; stroke-opacity:0.1; fill:none" points="
  2667.48,829.09 4752.76,829.09 
  "/>
<polyline clip-path="url(#clip5903)" style="stroke:#000000; stroke-width:2; stroke-opacity:0.1; fill:none" points="
  2667.48,406.382 4752.76,406.382 
  "/>
<polyline clip-path="url(#clip5900)" style="stroke:#000000; stroke-width:4; stroke-opacity:1; fill:none" points="
  2667.48,2097.21 4752.76,2097.21 
  "/>
<polyline clip-path="url(#clip5900)" style="stroke:#000000; stroke-width:4; stroke-opacity:1; fill:none" points="
  2667.48,2097.21 2667.48,195.029 
  "/>
<polyline clip-path="url(#clip5900)" style="stroke:#000000; stroke-width:4; stroke-opacity:1; fill:none" points="
  2726.5,2097.21 2726.5,2074.38 
  "/>
<polyline clip-path="url(#clip5900)" style="stroke:#000000; stroke-width:4; stroke-opacity:1; fill:none" points="
  3218.31,2097.21 3218.31,2074.38 
  "/>
<polyline clip-path="url(#clip5900)" style="stroke:#000000; stroke-width:4; stroke-opacity:1; fill:none" points="
  3710.12,2097.21 3710.12,2074.38 
  "/>
<polyline clip-path="url(#clip5900)" style="stroke:#000000; stroke-width:4; stroke-opacity:1; fill:none" points="
  4201.93,2097.21 4201.93,2074.38 
  "/>
<polyline clip-path="url(#clip5900)" style="stroke:#000000; stroke-width:4; stroke-opacity:1; fill:none" points="
  4693.74,2097.21 4693.74,2074.38 
  "/>
<polyline clip-path="url(#clip5900)" style="stroke:#000000; stroke-width:4; stroke-opacity:1; fill:none" points="
  2667.48,2097.21 2692.51,2097.21 
  "/>
<polyline clip-path="url(#clip5900)" style="stroke:#000000; stroke-width:4; stroke-opacity:1; fill:none" points="
  2667.48,1674.5 2692.51,1674.5 
  "/>
<polyline clip-path="url(#clip5900)" style="stroke:#000000; stroke-width:4; stroke-opacity:1; fill:none" points="
  2667.48,1251.8 2692.51,1251.8 
  "/>
<polyline clip-path="url(#clip5900)" style="stroke:#000000; stroke-width:4; stroke-opacity:1; fill:none" points="
  2667.48,829.09 2692.51,829.09 
  "/>
<polyline clip-path="url(#clip5900)" style="stroke:#000000; stroke-width:4; stroke-opacity:1; fill:none" points="
  2667.48,406.382 2692.51,406.382 
  "/>
<g clip-path="url(#clip5900)">
<text style="fill:#000000; fill-opacity:1; font-family:Arial,Helvetica Neue,Helvetica,sans-serif; font-size:71px; text-anchor:middle;" transform="rotate(0, 2726.5, 2183.61)" x="2726.5" y="2183.61">0</text>
</g>
<g clip-path="url(#clip5900)">
<text style="fill:#000000; fill-opacity:1; font-family:Arial,Helvetica Neue,Helvetica,sans-serif; font-size:71px; text-anchor:middle;" transform="rotate(0, 3218.31, 2183.61)" x="3218.31" y="2183.61">2</text>
</g>
<g clip-path="url(#clip5900)">
<text style="fill:#000000; fill-opacity:1; font-family:Arial,Helvetica Neue,Helvetica,sans-serif; font-size:71px; text-anchor:middle;" transform="rotate(0, 3710.12, 2183.61)" x="3710.12" y="2183.61">4</text>
</g>
<g clip-path="url(#clip5900)">
<text style="fill:#000000; fill-opacity:1; font-family:Arial,Helvetica Neue,Helvetica,sans-serif; font-size:71px; text-anchor:middle;" transform="rotate(0, 4201.93, 2183.61)" x="4201.93" y="2183.61">6</text>
</g>
<g clip-path="url(#clip5900)">
<text style="fill:#000000; fill-opacity:1; font-family:Arial,Helvetica Neue,Helvetica,sans-serif; font-size:71px; text-anchor:middle;" transform="rotate(0, 4693.74, 2183.61)" x="4693.74" y="2183.61">8</text>
</g>
<g clip-path="url(#clip5900)">
<text style="fill:#000000; fill-opacity:1; font-family:Arial,Helvetica Neue,Helvetica,sans-serif; font-size:71px; text-anchor:end;" transform="rotate(0, 2619.48, 2123.21)" x="2619.48" y="2123.21">0</text>
</g>
<g clip-path="url(#clip5900)">
<text style="fill:#000000; fill-opacity:1; font-family:Arial,Helvetica Neue,Helvetica,sans-serif; font-size:71px; text-anchor:end;" transform="rotate(0, 2619.48, 1700.5)" x="2619.48" y="1700.5">1</text>
</g>
<g clip-path="url(#clip5900)">
<text style="fill:#000000; fill-opacity:1; font-family:Arial,Helvetica Neue,Helvetica,sans-serif; font-size:71px; text-anchor:end;" transform="rotate(0, 2619.48, 1277.8)" x="2619.48" y="1277.8">2</text>
</g>
<g clip-path="url(#clip5900)">
<text style="fill:#000000; fill-opacity:1; font-family:Arial,Helvetica Neue,Helvetica,sans-serif; font-size:71px; text-anchor:end;" transform="rotate(0, 2619.48, 855.09)" x="2619.48" y="855.09">3</text>
</g>
<g clip-path="url(#clip5900)">
<text style="fill:#000000; fill-opacity:1; font-family:Arial,Helvetica Neue,Helvetica,sans-serif; font-size:71px; text-anchor:end;" transform="rotate(0, 2619.48, 432.382)" x="2619.48" y="432.382">4</text>
</g>
<g clip-path="url(#clip5900)">
<text style="fill:#000000; fill-opacity:1; font-family:Arial,Helvetica Neue,Helvetica,sans-serif; font-size:125px; text-anchor:middle;" transform="rotate(0, 3710.12, 109.2)" x="3710.12" y="109.2">Normal hypothyroid patient 45 mcg (n = 3)</text>
</g>
<g clip-path="url(#clip5900)">
<text style="fill:#000000; fill-opacity:1; font-family:Arial,Helvetica Neue,Helvetica,sans-serif; font-size:95px; text-anchor:middle;" transform="rotate(0, 3710.12, 2307.46)" x="3710.12" y="2307.46">Time (hours)</text>
</g>
<g clip-path="url(#clip5900)">
<text style="fill:#000000; fill-opacity:1; font-family:Arial,Helvetica Neue,Helvetica,sans-serif; font-size:95px; text-anchor:middle;" transform="rotate(-90, 2513.54, 1146.12)" x="2513.54" y="1146.12">T3 mcg/L</text>
</g>
<path clip-path="url(#clip5903)" d="
M2726.5 1819.11 L2751.09 1799.71 L2775.68 1747 L2800.27 1681.47 L2824.86 1610.18 L2849.45 1537.19 L2874.04 1464.87 L2898.63 1394.81 L2923.22 1328.3 L2947.81 1266.11 
  L2972.41 1208.67 L2997 1156.59 L3021.59 1109.63 L3046.18 1067.66 L3070.77 1031.76 L3095.36 1000.55 L3119.95 972.309 L3144.54 951.166 L3169.13 935.008 L3193.72 916.571 
  L3218.31 908.556 L3242.9 902.67 L3267.49 893.263 L3292.08 896.792 L3316.67 894.57 L3341.26 899.159 L3365.85 904.678 L3390.44 910.3 L3415.03 920.624 L3439.62 928.477 
  L3464.21 941.279 L3488.81 952.278 L3513.4 965.389 L3537.99 979.656 L3562.58 992.337 L3587.17 1008.74 L3611.76 1022.56 L3636.35 1038.29 L3660.94 1054.54 L3685.53 1068.6 
  L3710.12 1086.2 L3734.71 1100.74 L3759.3 1116.82 L3783.89 1133.2 L3808.48 1147.22 L3833.07 1164.32 L3857.66 1178.34 L3882.25 1193.82 L3906.84 1209.04 L3931.43 1222.38 
  L3956.02 1238.11 L3980.61 1250.96 L4005.21 1265.28 L4029.8 1278.88 L4054.39 1291.09 L4078.98 1305.16 L4103.57 1316.58 L4128.16 1329.46 L4152.75 1341.37 L4177.34 1352.24 
  L4201.93 1364.61 L4226.52 1374.57 L4251.11 1385.95 L4275.7 1396.24 L4300.29 1405.78 L4324.88 1416.52 L4349.47 1425.1 L4374.06 1435.05 L4398.65 1443.86 L4423.24 1452.15 
  L4447.83 1461.4 L4472.42 1468.75 L4497.01 1477.39 L4521.61 1484.88 L4546.2 1492.05 L4570.79 1499.98 L4595.38 1506.25 L4619.97 1513.71 L4644.56 1520.07 L4669.15 1526.09 
  L4693.74 1532.55 L4693.74 1462.75 L4669.15 1456.58 L4644.56 1449.37 L4619.97 1443.19 L4595.38 1435.76 L4570.79 1428.13 L4546.2 1421.27 L4521.61 1412.45 L4497.01 1405.31 
  L4472.42 1396.42 L4447.83 1387.82 L4423.24 1379.57 L4398.65 1369.38 L4374.06 1361.14 L4349.47 1350.6 L4324.88 1340.92 L4300.29 1331.05 L4275.7 1319.42 L4251.11 1309.85 
  L4226.52 1297.52 L4201.93 1286.67 L4177.34 1274.96 L4152.75 1261.89 L4128.16 1250.77 L4103.57 1236.57 L4078.98 1224.49 L4054.39 1210.81 L4029.8 1196.39 L4005.21 1183.59 
  L3980.61 1167.56 L3956.02 1154.32 L3931.43 1138.64 L3906.84 1123.14 L3882.25 1108.71 L3857.66 1091.1 L3833.07 1077.01 L3808.48 1059.57 L3783.89 1043.56 L3759.3 1027.87 
  L3734.71 1009.44 L3710.12 994.995 L3685.53 976.751 L3660.94 960.958 L3636.35 945.124 L3611.76 927.249 L3587.17 913.425 L3562.58 896.298 L3537.99 882.173 L3513.4 868.097 
  L3488.81 853.117 L3464.21 842.241 L3439.62 828.515 L3415.03 819.816 L3390.44 809.776 L3365.85 802.273 L3341.26 797.826 L3316.67 791.17 L3292.08 794.376 L3267.49 790.742 
  L3242.9 799.068 L3218.31 806.571 L3193.72 813.415 L3169.13 832.966 L3144.54 849.861 L3119.95 871.371 L3095.36 900.926 L3070.77 933.223 L3046.18 970.438 L3021.59 1014.15 
  L2997 1062.98 L2972.41 1117.15 L2947.81 1176.97 L2923.22 1241.74 L2898.63 1311.03 L2874.04 1384.03 L2849.45 1459.41 L2824.86 1535.48 L2800.27 1609.82 L2775.68 1678.16 
  L2751.09 1733.14 L2726.5 1753.08  Z
  " fill="#009af9" fill-rule="evenodd" fill-opacity="0.3"/>
<polyline clip-path="url(#clip5903)" style="stroke:#009af9; stroke-width:4; stroke-opacity:1; fill:none" points="
  2726.5,1786.1 2751.09,1766.42 2775.68,1712.58 2800.27,1645.65 2824.86,1572.83 2849.45,1498.3 2874.04,1424.45 2898.63,1352.92 2923.22,1285.02 2947.81,1221.54 
  2972.41,1162.91 2997,1109.78 3021.59,1061.89 3046.18,1019.05 3070.77,982.49 3095.36,950.74 3119.95,921.84 3144.54,900.513 3169.13,883.987 3193.72,864.993 
  3218.31,857.564 3242.9,850.869 3267.49,842.003 3292.08,845.584 3316.67,842.87 3341.26,848.492 3365.85,853.476 3390.44,860.038 3415.03,870.22 3439.62,878.496 
  3464.21,891.76 3488.81,902.697 3513.4,916.743 3537.99,930.914 3562.58,944.317 3587.17,961.083 3611.76,974.905 3636.35,991.705 3660.94,1007.75 3685.53,1022.68 
  3710.12,1040.6 3734.71,1055.09 3759.3,1072.35 3783.89,1088.38 3808.48,1103.4 3833.07,1120.67 3857.66,1134.72 3882.25,1151.26 3906.84,1166.09 3931.43,1180.51 
  3956.02,1196.22 3980.61,1209.26 4005.21,1224.44 4029.8,1237.64 4054.39,1250.95 4078.98,1264.83 4103.57,1276.57 4128.16,1290.12 4152.75,1301.63 4177.34,1313.6 
  4201.93,1325.64 4226.52,1336.04 4251.11,1347.9 4275.7,1357.83 4300.29,1368.41 4324.88,1378.72 4349.47,1387.85 4374.06,1398.09 4398.65,1406.62 4423.24,1415.86 
  4447.83,1424.61 4472.42,1432.59 4497.01,1441.35 4521.61,1448.66 4546.2,1456.66 4570.79,1464.05 4595.38,1471 4619.97,1478.45 4644.56,1484.72 4669.15,1491.33 
  4693.74,1497.65 
  "/>
<polyline clip-path="url(#clip5903)" style="stroke:#e26f46; stroke-width:4; stroke-opacity:1; fill:none" points="
  2726.5,1786.1 2849.45,1685.64 2972.41,1324.5 3218.31,852.057 3464.21,983.659 3710.12,1095.82 3956.02,1151.62 4201.93,1357.61 4447.83,1380.3 4693.74,1455.4 
  
  "/>
<polyline clip-path="url(#clip5903)" style="stroke:#e26f46; stroke-width:4; stroke-opacity:1; fill:none" points="
  2726.5,1819.11 2726.5,1753.08 
  "/>
<polyline clip-path="url(#clip5903)" style="stroke:#e26f46; stroke-width:4; stroke-opacity:1; fill:none" points="
  2849.45,1710.36 2849.45,1660.91 
  "/>
<polyline clip-path="url(#clip5903)" style="stroke:#e26f46; stroke-width:4; stroke-opacity:1; fill:none" points="
  2972.41,1497.72 2972.41,1151.29 
  "/>
<polyline clip-path="url(#clip5903)" style="stroke:#e26f46; stroke-width:4; stroke-opacity:1; fill:none" points="
  3218.31,1108.68 3218.31,595.434 
  "/>
<polyline clip-path="url(#clip5903)" style="stroke:#e26f46; stroke-width:4; stroke-opacity:1; fill:none" points="
  3464.21,1218.35 3464.21,748.967 
  "/>
<polyline clip-path="url(#clip5903)" style="stroke:#e26f46; stroke-width:4; stroke-opacity:1; fill:none" points="
  3710.12,1277.22 3710.12,914.416 
  "/>
<polyline clip-path="url(#clip5903)" style="stroke:#e26f46; stroke-width:4; stroke-opacity:1; fill:none" points="
  3956.02,1278.32 3956.02,1024.91 
  "/>
<polyline clip-path="url(#clip5903)" style="stroke:#e26f46; stroke-width:4; stroke-opacity:1; fill:none" points="
  4201.93,1438.79 4201.93,1276.44 
  "/>
<polyline clip-path="url(#clip5903)" style="stroke:#e26f46; stroke-width:4; stroke-opacity:1; fill:none" points="
  4447.83,1473.2 4447.83,1287.4 
  "/>
<polyline clip-path="url(#clip5903)" style="stroke:#e26f46; stroke-width:4; stroke-opacity:1; fill:none" points="
  4693.74,1530.53 4693.74,1380.27 
  "/>
<line clip-path="url(#clip5903)" x1="2746.5" y1="1819.11" x2="2706.5" y2="1819.11" style="stroke:#000000; stroke-width:4; stroke-opacity:1"/>
<line clip-path="url(#clip5903)" x1="2746.5" y1="1753.08" x2="2706.5" y2="1753.08" style="stroke:#000000; stroke-width:4; stroke-opacity:1"/>
<line clip-path="url(#clip5903)" x1="2869.45" y1="1710.36" x2="2829.45" y2="1710.36" style="stroke:#000000; stroke-width:4; stroke-opacity:1"/>
<line clip-path="url(#clip5903)" x1="2869.45" y1="1660.91" x2="2829.45" y2="1660.91" style="stroke:#000000; stroke-width:4; stroke-opacity:1"/>
<line clip-path="url(#clip5903)" x1="2992.41" y1="1497.72" x2="2952.41" y2="1497.72" style="stroke:#000000; stroke-width:4; stroke-opacity:1"/>
<line clip-path="url(#clip5903)" x1="2992.41" y1="1151.29" x2="2952.41" y2="1151.29" style="stroke:#000000; stroke-width:4; stroke-opacity:1"/>
<line clip-path="url(#clip5903)" x1="3238.31" y1="1108.68" x2="3198.31" y2="1108.68" style="stroke:#000000; stroke-width:4; stroke-opacity:1"/>
<line clip-path="url(#clip5903)" x1="3238.31" y1="595.434" x2="3198.31" y2="595.434" style="stroke:#000000; stroke-width:4; stroke-opacity:1"/>
<line clip-path="url(#clip5903)" x1="3484.21" y1="1218.35" x2="3444.21" y2="1218.35" style="stroke:#000000; stroke-width:4; stroke-opacity:1"/>
<line clip-path="url(#clip5903)" x1="3484.21" y1="748.967" x2="3444.21" y2="748.967" style="stroke:#000000; stroke-width:4; stroke-opacity:1"/>
<line clip-path="url(#clip5903)" x1="3730.12" y1="1277.22" x2="3690.12" y2="1277.22" style="stroke:#000000; stroke-width:4; stroke-opacity:1"/>
<line clip-path="url(#clip5903)" x1="3730.12" y1="914.416" x2="3690.12" y2="914.416" style="stroke:#000000; stroke-width:4; stroke-opacity:1"/>
<line clip-path="url(#clip5903)" x1="3976.02" y1="1278.32" x2="3936.02" y2="1278.32" style="stroke:#000000; stroke-width:4; stroke-opacity:1"/>
<line clip-path="url(#clip5903)" x1="3976.02" y1="1024.91" x2="3936.02" y2="1024.91" style="stroke:#000000; stroke-width:4; stroke-opacity:1"/>
<line clip-path="url(#clip5903)" x1="4221.93" y1="1438.79" x2="4181.93" y2="1438.79" style="stroke:#000000; stroke-width:4; stroke-opacity:1"/>
<line clip-path="url(#clip5903)" x1="4221.93" y1="1276.44" x2="4181.93" y2="1276.44" style="stroke:#000000; stroke-width:4; stroke-opacity:1"/>
<line clip-path="url(#clip5903)" x1="4467.83" y1="1473.2" x2="4427.83" y2="1473.2" style="stroke:#000000; stroke-width:4; stroke-opacity:1"/>
<line clip-path="url(#clip5903)" x1="4467.83" y1="1287.4" x2="4427.83" y2="1287.4" style="stroke:#000000; stroke-width:4; stroke-opacity:1"/>
<line clip-path="url(#clip5903)" x1="4713.74" y1="1530.53" x2="4673.74" y2="1530.53" style="stroke:#000000; stroke-width:4; stroke-opacity:1"/>
<line clip-path="url(#clip5903)" x1="4713.74" y1="1380.27" x2="4673.74" y2="1380.27" style="stroke:#000000; stroke-width:4; stroke-opacity:1"/>
<path clip-path="url(#clip5900)" d="
M3803.78 664.469 L4608.76 664.469 L4608.76 392.309 L3803.78 392.309  Z
  " fill="#ffffff" fill-rule="evenodd" fill-opacity="1"/>
<polyline clip-path="url(#clip5900)" style="stroke:#000000; stroke-width:4; stroke-opacity:1; fill:none" points="
  3803.78,664.469 4608.76,664.469 4608.76,392.309 3803.78,392.309 3803.78,664.469 
  "/>
<polyline clip-path="url(#clip5900)" style="stroke:#009af9; stroke-width:4; stroke-opacity:1; fill:none" points="
  3851.78,483.029 4139.78,483.029 
  "/>
<g clip-path="url(#clip5900)">
<text style="fill:#000000; fill-opacity:1; font-family:Arial,Helvetica Neue,Helvetica,sans-serif; font-size:71px; text-anchor:start;" transform="rotate(0, 4187.78, 509.029)" x="4187.78" y="509.029">simulation</text>
</g>
<polyline clip-path="url(#clip5900)" style="stroke:#e26f46; stroke-width:4; stroke-opacity:1; fill:none" points="
  3851.78,573.749 4139.78,573.749 
  "/>
<g clip-path="url(#clip5900)">
<text style="fill:#000000; fill-opacity:1; font-family:Arial,Helvetica Neue,Helvetica,sans-serif; font-size:71px; text-anchor:start;" transform="rotate(0, 4187.78, 599.749)" x="4187.78" y="599.749">data</text>
</g>
<path clip-path="url(#clip5900)" d="
M267.483 4497.21 L2352.76 4497.21 L2352.76 2595.03 L267.483 2595.03  Z
  " fill="#ffffff" fill-rule="evenodd" fill-opacity="1"/>
<defs>
  <clipPath id="clip5904">
    <rect x="267" y="2595" width="2086" height="1903"/>
  </clipPath>
</defs>
<polyline clip-path="url(#clip5904)" style="stroke:#000000; stroke-width:2; stroke-opacity:0.1; fill:none" points="
  326.5,4497.21 326.5,2595.03 
  "/>
<polyline clip-path="url(#clip5904)" style="stroke:#000000; stroke-width:2; stroke-opacity:0.1; fill:none" points="
  818.31,4497.21 818.31,2595.03 
  "/>
<polyline clip-path="url(#clip5904)" style="stroke:#000000; stroke-width:2; stroke-opacity:0.1; fill:none" points="
  1310.12,4497.21 1310.12,2595.03 
  "/>
<polyline clip-path="url(#clip5904)" style="stroke:#000000; stroke-width:2; stroke-opacity:0.1; fill:none" points="
  1801.93,4497.21 1801.93,2595.03 
  "/>
<polyline clip-path="url(#clip5904)" style="stroke:#000000; stroke-width:2; stroke-opacity:0.1; fill:none" points="
  2293.74,4497.21 2293.74,2595.03 
  "/>
<polyline clip-path="url(#clip5904)" style="stroke:#000000; stroke-width:2; stroke-opacity:0.1; fill:none" points="
  267.483,4497.21 2352.76,4497.21 
  "/>
<polyline clip-path="url(#clip5904)" style="stroke:#000000; stroke-width:2; stroke-opacity:0.1; fill:none" points="
  267.483,4074.5 2352.76,4074.5 
  "/>
<polyline clip-path="url(#clip5904)" style="stroke:#000000; stroke-width:2; stroke-opacity:0.1; fill:none" points="
  267.483,3651.8 2352.76,3651.8 
  "/>
<polyline clip-path="url(#clip5904)" style="stroke:#000000; stroke-width:2; stroke-opacity:0.1; fill:none" points="
  267.483,3229.09 2352.76,3229.09 
  "/>
<polyline clip-path="url(#clip5904)" style="stroke:#000000; stroke-width:2; stroke-opacity:0.1; fill:none" points="
  267.483,2806.38 2352.76,2806.38 
  "/>
<polyline clip-path="url(#clip5900)" style="stroke:#000000; stroke-width:4; stroke-opacity:1; fill:none" points="
  267.483,4497.21 2352.76,4497.21 
  "/>
<polyline clip-path="url(#clip5900)" style="stroke:#000000; stroke-width:4; stroke-opacity:1; fill:none" points="
  267.483,4497.21 267.483,2595.03 
  "/>
<polyline clip-path="url(#clip5900)" style="stroke:#000000; stroke-width:4; stroke-opacity:1; fill:none" points="
  326.5,4497.21 326.5,4474.38 
  "/>
<polyline clip-path="url(#clip5900)" style="stroke:#000000; stroke-width:4; stroke-opacity:1; fill:none" points="
  818.31,4497.21 818.31,4474.38 
  "/>
<polyline clip-path="url(#clip5900)" style="stroke:#000000; stroke-width:4; stroke-opacity:1; fill:none" points="
  1310.12,4497.21 1310.12,4474.38 
  "/>
<polyline clip-path="url(#clip5900)" style="stroke:#000000; stroke-width:4; stroke-opacity:1; fill:none" points="
  1801.93,4497.21 1801.93,4474.38 
  "/>
<polyline clip-path="url(#clip5900)" style="stroke:#000000; stroke-width:4; stroke-opacity:1; fill:none" points="
  2293.74,4497.21 2293.74,4474.38 
  "/>
<polyline clip-path="url(#clip5900)" style="stroke:#000000; stroke-width:4; stroke-opacity:1; fill:none" points="
  267.483,4497.21 292.506,4497.21 
  "/>
<polyline clip-path="url(#clip5900)" style="stroke:#000000; stroke-width:4; stroke-opacity:1; fill:none" points="
  267.483,4074.5 292.506,4074.5 
  "/>
<polyline clip-path="url(#clip5900)" style="stroke:#000000; stroke-width:4; stroke-opacity:1; fill:none" points="
  267.483,3651.8 292.506,3651.8 
  "/>
<polyline clip-path="url(#clip5900)" style="stroke:#000000; stroke-width:4; stroke-opacity:1; fill:none" points="
  267.483,3229.09 292.506,3229.09 
  "/>
<polyline clip-path="url(#clip5900)" style="stroke:#000000; stroke-width:4; stroke-opacity:1; fill:none" points="
  267.483,2806.38 292.506,2806.38 
  "/>
<g clip-path="url(#clip5900)">
<text style="fill:#000000; fill-opacity:1; font-family:Arial,Helvetica Neue,Helvetica,sans-serif; font-size:71px; text-anchor:middle;" transform="rotate(0, 326.5, 4583.61)" x="326.5" y="4583.61">0</text>
</g>
<g clip-path="url(#clip5900)">
<text style="fill:#000000; fill-opacity:1; font-family:Arial,Helvetica Neue,Helvetica,sans-serif; font-size:71px; text-anchor:middle;" transform="rotate(0, 818.31, 4583.61)" x="818.31" y="4583.61">2</text>
</g>
<g clip-path="url(#clip5900)">
<text style="fill:#000000; fill-opacity:1; font-family:Arial,Helvetica Neue,Helvetica,sans-serif; font-size:71px; text-anchor:middle;" transform="rotate(0, 1310.12, 4583.61)" x="1310.12" y="4583.61">4</text>
</g>
<g clip-path="url(#clip5900)">
<text style="fill:#000000; fill-opacity:1; font-family:Arial,Helvetica Neue,Helvetica,sans-serif; font-size:71px; text-anchor:middle;" transform="rotate(0, 1801.93, 4583.61)" x="1801.93" y="4583.61">6</text>
</g>
<g clip-path="url(#clip5900)">
<text style="fill:#000000; fill-opacity:1; font-family:Arial,Helvetica Neue,Helvetica,sans-serif; font-size:71px; text-anchor:middle;" transform="rotate(0, 2293.74, 4583.61)" x="2293.74" y="4583.61">8</text>
</g>
<g clip-path="url(#clip5900)">
<text style="fill:#000000; fill-opacity:1; font-family:Arial,Helvetica Neue,Helvetica,sans-serif; font-size:71px; text-anchor:end;" transform="rotate(0, 219.483, 4523.21)" x="219.483" y="4523.21">0</text>
</g>
<g clip-path="url(#clip5900)">
<text style="fill:#000000; fill-opacity:1; font-family:Arial,Helvetica Neue,Helvetica,sans-serif; font-size:71px; text-anchor:end;" transform="rotate(0, 219.483, 4100.5)" x="219.483" y="4100.5">1</text>
</g>
<g clip-path="url(#clip5900)">
<text style="fill:#000000; fill-opacity:1; font-family:Arial,Helvetica Neue,Helvetica,sans-serif; font-size:71px; text-anchor:end;" transform="rotate(0, 219.483, 3677.8)" x="219.483" y="3677.8">2</text>
</g>
<g clip-path="url(#clip5900)">
<text style="fill:#000000; fill-opacity:1; font-family:Arial,Helvetica Neue,Helvetica,sans-serif; font-size:71px; text-anchor:end;" transform="rotate(0, 219.483, 3255.09)" x="219.483" y="3255.09">3</text>
</g>
<g clip-path="url(#clip5900)">
<text style="fill:#000000; fill-opacity:1; font-family:Arial,Helvetica Neue,Helvetica,sans-serif; font-size:71px; text-anchor:end;" transform="rotate(0, 219.483, 2832.38)" x="219.483" y="2832.38">4</text>
</g>
<g clip-path="url(#clip5900)">
<text style="fill:#000000; fill-opacity:1; font-family:Arial,Helvetica Neue,Helvetica,sans-serif; font-size:125px; text-anchor:middle;" transform="rotate(0, 1310.12, 2509.2)" x="1310.12" y="2509.2">Overweight hypothyroid patient 30 mcg (n = 2)</text>
</g>
<g clip-path="url(#clip5900)">
<text style="fill:#000000; fill-opacity:1; font-family:Arial,Helvetica Neue,Helvetica,sans-serif; font-size:95px; text-anchor:middle;" transform="rotate(0, 1310.12, 4707.46)" x="1310.12" y="4707.46">Time (hours)</text>
</g>
<g clip-path="url(#clip5900)">
<text style="fill:#000000; fill-opacity:1; font-family:Arial,Helvetica Neue,Helvetica,sans-serif; font-size:95px; text-anchor:middle;" transform="rotate(-90, 113.54, 3546.12)" x="113.54" y="3546.12">T3 mcg/L</text>
</g>
<path clip-path="url(#clip5904)" d="
M326.5 4140.87 L351.091 4128.37 L375.681 4092.06 L400.272 4046.9 L424.862 3997.75 L449.453 3947.53 L474.043 3897.76 L498.634 3849.63 L523.224 3803.91 L547.815 3761.3 
  L572.405 3722.6 L596.996 3694.08 L621.586 3668.61 L646.177 3645.52 L670.767 3626.31 L695.357 3610.3 L719.948 3594.31 L744.538 3584.05 L769.129 3576.13 L793.719 3565.2 
  L818.31 3564.21 L842.9 3559.08 L867.491 3557.83 L892.081 3559.35 L916.672 3558.91 L941.262 3564.02 L965.853 3565.96 L990.443 3572.75 L1015.03 3577.5 L1039.62 3584.69 
  L1064.21 3592.06 L1088.81 3599.01 L1113.4 3608.57 L1137.99 3615.67 L1162.58 3626.01 L1187.17 3634.58 L1211.76 3643.82 L1236.35 3654.32 L1260.94 3662.31 L1285.53 3673.77 
  L1310.12 3682.28 L1334.71 3692.57 L1359.3 3702.54 L1383.89 3711.04 L1408.48 3722.08 L1433.07 3729.93 L1457.66 3740.52 L1482.25 3749.15 L1506.84 3757.99 L1531.43 3767.66 
  L1556.02 3774.97 L1580.61 3784.98 L1605.21 3792.2 L1629.8 3801.02 L1654.39 3809.07 L1678.98 3816.09 L1703.57 3824.87 L1728.16 3830.92 L1752.75 3839.34 L1777.34 3845.8 
  L1801.93 3852.62 L1826.52 3859.92 L1851.11 3865.22 L1875.7 3872.86 L1900.29 3877.95 L1924.88 3884.56 L1949.47 3890.36 L1974.06 3895.35 L1998.65 3901.84 L2023.24 3906.77 
  L2047.83 3912.17 L2072.42 3918.38 L2097.01 3923.35 L2121.61 3928.83 L2146.2 3934.61 L2170.79 3938.64 L2195.38 3944.77 L2219.97 3948.67 L2244.56 3953.8 L2269.15 3958.44 
  L2293.74 3962.04 L2293.74 3955.53 L2269.15 3951.37 L2244.56 3948.05 L2219.97 3944.02 L2195.38 3939.22 L2170.79 3935.88 L2146.2 3930.26 L2121.61 3926.73 L2097.01 3921.49 
  L2072.42 3916.61 L2047.83 3911.47 L2023.24 3905.92 L1998.65 3899.75 L1974.06 3893.86 L1949.47 3887.62 L1924.88 3880.01 L1900.29 3874.34 L1875.7 3866.03 L1851.11 3859.63 
  L1826.52 3851.94 L1801.93 3843.7 L1777.34 3836.8 L1752.75 3827.26 L1728.16 3820.18 L1703.57 3810.94 L1678.98 3802.13 L1654.39 3793.81 L1629.8 3783.24 L1605.21 3775.27 
  L1580.61 3764.48 L1556.02 3755.23 L1531.43 3745.37 L1506.84 3734.11 L1482.25 3725.13 L1457.66 3712.97 L1433.07 3703.51 L1408.48 3692.19 L1383.89 3680.78 L1359.3 3670.86 
  L1334.71 3657.94 L1310.12 3648.53 L1285.53 3636.34 L1260.94 3625.39 L1236.35 3615.11 L1211.76 3602.62 L1187.17 3593.64 L1162.58 3581.93 L1137.99 3572.36 L1113.4 3562.97 
  L1088.81 3552.56 L1064.21 3545.4 L1039.62 3535.86 L1015.03 3529.99 L990.443 3523.06 L965.853 3517.8 L941.262 3514.64 L916.672 3509.94 L892.081 3511.76 L867.491 3508.74 
  L842.9 3514.79 L818.31 3518.16 L793.719 3523.6 L769.129 3536.59 L744.538 3545.62 L719.948 3561.16 L695.357 3580.62 L670.767 3600.68 L646.177 3625.59 L621.586 3654.39 
  L596.996 3686.18 L572.405 3721.9 L547.815 3754.3 L523.224 3788.63 L498.634 3825.49 L474.043 3864.37 L449.453 3904.57 L424.862 3945.15 L400.272 3984.8 L375.681 4021.12 
  L351.091 4049.74 L326.5 4057.6  Z
  " fill="#009af9" fill-rule="evenodd" fill-opacity="0.3"/>
<polyline clip-path="url(#clip5904)" style="stroke:#009af9; stroke-width:4; stroke-opacity:1; fill:none" points="
  326.5,4099.23 351.091,4089.06 375.681,4056.59 400.272,4015.85 424.862,3971.45 449.453,3926.05 474.043,3881.07 498.634,3837.56 523.224,3796.27 547.815,3757.8 
  572.405,3722.25 596.996,3690.13 621.586,3661.5 646.177,3635.55 670.767,3613.49 695.357,3595.46 719.948,3577.74 744.538,3564.84 769.129,3556.36 793.719,3544.4 
  818.31,3541.19 842.9,3536.93 867.491,3533.28 892.081,3535.55 916.672,3534.43 941.262,3539.33 965.853,3541.88 990.443,3547.91 1015.03,3553.74 1039.62,3560.27 
  1064.21,3568.73 1088.81,3575.79 1113.4,3585.77 1137.99,3594.02 1162.58,3603.97 1187.17,3614.11 1211.76,3623.22 1236.35,3634.71 1260.94,3643.85 1285.53,3655.06 
  1310.12,3665.4 1334.71,3675.26 1359.3,3686.7 1383.89,3695.91 1408.48,3707.13 1433.07,3716.72 1457.66,3726.74 1482.25,3737.14 1506.84,3746.05 1531.43,3756.52 
  1556.02,3765.1 1580.61,3774.73 1605.21,3783.74 1629.8,3792.13 1654.39,3801.44 1678.98,3809.11 1703.57,3817.9 1728.16,3825.55 1752.75,3833.3 1777.34,3841.3 
  1801.93,3848.16 1826.52,3855.93 1851.11,3862.43 1875.7,3869.44 1900.29,3876.14 1924.88,3882.28 1949.47,3888.99 1974.06,3894.6 1998.65,3900.79 2023.24,3906.34 
  2047.83,3911.82 2072.42,3917.5 2097.01,3922.42 2121.61,3927.78 2146.2,3932.43 2170.79,3937.26 2195.38,3942 2219.97,3946.34 2244.56,3950.92 2269.15,3954.9 
  2293.74,3958.79 
  "/>
<polyline clip-path="url(#clip5904)" style="stroke:#e26f46; stroke-width:4; stroke-opacity:1; fill:none" points="
  326.5,4099.23 449.453,4023.99 572.405,3910.49 818.31,3746.91 1064.21,3798.26 1310.12,3848.99 1556.02,3890.84 1801.93,3982.56 2047.83,4043.01 2293.74,4006.66 
  
  "/>
<polyline clip-path="url(#clip5904)" style="stroke:#e26f46; stroke-width:4; stroke-opacity:1; fill:none" points="
  326.5,4181.65 326.5,4016.82 
  "/>
<polyline clip-path="url(#clip5904)" style="stroke:#e26f46; stroke-width:4; stroke-opacity:1; fill:none" points="
  449.453,4144.2 449.453,3903.78 
  "/>
<polyline clip-path="url(#clip5904)" style="stroke:#e26f46; stroke-width:4; stroke-opacity:1; fill:none" points="
  572.405,4068.66 572.405,3752.33 
  "/>
<polyline clip-path="url(#clip5904)" style="stroke:#e26f46; stroke-width:4; stroke-opacity:1; fill:none" points="
  818.31,3868.13 818.31,3625.68 
  "/>
<polyline clip-path="url(#clip5904)" style="stroke:#e26f46; stroke-width:4; stroke-opacity:1; fill:none" points="
  1064.21,3927.86 1064.21,3668.67 
  "/>
<polyline clip-path="url(#clip5904)" style="stroke:#e26f46; stroke-width:4; stroke-opacity:1; fill:none" points="
  1310.12,3959.71 1310.12,3738.26 
  "/>
<polyline clip-path="url(#clip5904)" style="stroke:#e26f46; stroke-width:4; stroke-opacity:1; fill:none" points="
  1556.02,3999.53 1556.02,3782.15 
  "/>
<polyline clip-path="url(#clip5904)" style="stroke:#e26f46; stroke-width:4; stroke-opacity:1; fill:none" points="
  1801.93,4088.98 1801.93,3876.15 
  "/>
<polyline clip-path="url(#clip5904)" style="stroke:#e26f46; stroke-width:4; stroke-opacity:1; fill:none" points="
  2047.83,4150.92 2047.83,3935.1 
  "/>
<polyline clip-path="url(#clip5904)" style="stroke:#e26f46; stroke-width:4; stroke-opacity:1; fill:none" points="
  2293.74,4122.25 2293.74,3891.07 
  "/>
<line clip-path="url(#clip5904)" x1="346.5" y1="4181.65" x2="306.5" y2="4181.65" style="stroke:#000000; stroke-width:4; stroke-opacity:1"/>
<line clip-path="url(#clip5904)" x1="346.5" y1="4016.82" x2="306.5" y2="4016.82" style="stroke:#000000; stroke-width:4; stroke-opacity:1"/>
<line clip-path="url(#clip5904)" x1="469.453" y1="4144.2" x2="429.453" y2="4144.2" style="stroke:#000000; stroke-width:4; stroke-opacity:1"/>
<line clip-path="url(#clip5904)" x1="469.453" y1="3903.78" x2="429.453" y2="3903.78" style="stroke:#000000; stroke-width:4; stroke-opacity:1"/>
<line clip-path="url(#clip5904)" x1="592.405" y1="4068.66" x2="552.405" y2="4068.66" style="stroke:#000000; stroke-width:4; stroke-opacity:1"/>
<line clip-path="url(#clip5904)" x1="592.405" y1="3752.33" x2="552.405" y2="3752.33" style="stroke:#000000; stroke-width:4; stroke-opacity:1"/>
<line clip-path="url(#clip5904)" x1="838.31" y1="3868.13" x2="798.31" y2="3868.13" style="stroke:#000000; stroke-width:4; stroke-opacity:1"/>
<line clip-path="url(#clip5904)" x1="838.31" y1="3625.68" x2="798.31" y2="3625.68" style="stroke:#000000; stroke-width:4; stroke-opacity:1"/>
<line clip-path="url(#clip5904)" x1="1084.21" y1="3927.86" x2="1044.21" y2="3927.86" style="stroke:#000000; stroke-width:4; stroke-opacity:1"/>
<line clip-path="url(#clip5904)" x1="1084.21" y1="3668.67" x2="1044.21" y2="3668.67" style="stroke:#000000; stroke-width:4; stroke-opacity:1"/>
<line clip-path="url(#clip5904)" x1="1330.12" y1="3959.71" x2="1290.12" y2="3959.71" style="stroke:#000000; stroke-width:4; stroke-opacity:1"/>
<line clip-path="url(#clip5904)" x1="1330.12" y1="3738.26" x2="1290.12" y2="3738.26" style="stroke:#000000; stroke-width:4; stroke-opacity:1"/>
<line clip-path="url(#clip5904)" x1="1576.02" y1="3999.53" x2="1536.02" y2="3999.53" style="stroke:#000000; stroke-width:4; stroke-opacity:1"/>
<line clip-path="url(#clip5904)" x1="1576.02" y1="3782.15" x2="1536.02" y2="3782.15" style="stroke:#000000; stroke-width:4; stroke-opacity:1"/>
<line clip-path="url(#clip5904)" x1="1821.93" y1="4088.98" x2="1781.93" y2="4088.98" style="stroke:#000000; stroke-width:4; stroke-opacity:1"/>
<line clip-path="url(#clip5904)" x1="1821.93" y1="3876.15" x2="1781.93" y2="3876.15" style="stroke:#000000; stroke-width:4; stroke-opacity:1"/>
<line clip-path="url(#clip5904)" x1="2067.83" y1="4150.92" x2="2027.83" y2="4150.92" style="stroke:#000000; stroke-width:4; stroke-opacity:1"/>
<line clip-path="url(#clip5904)" x1="2067.83" y1="3935.1" x2="2027.83" y2="3935.1" style="stroke:#000000; stroke-width:4; stroke-opacity:1"/>
<line clip-path="url(#clip5904)" x1="2313.74" y1="4122.25" x2="2273.74" y2="4122.25" style="stroke:#000000; stroke-width:4; stroke-opacity:1"/>
<line clip-path="url(#clip5904)" x1="2313.74" y1="3891.07" x2="2273.74" y2="3891.07" style="stroke:#000000; stroke-width:4; stroke-opacity:1"/>
<path clip-path="url(#clip5900)" d="
M1403.78 3064.47 L2208.76 3064.47 L2208.76 2792.31 L1403.78 2792.31  Z
  " fill="#ffffff" fill-rule="evenodd" fill-opacity="1"/>
<polyline clip-path="url(#clip5900)" style="stroke:#000000; stroke-width:4; stroke-opacity:1; fill:none" points="
  1403.78,3064.47 2208.76,3064.47 2208.76,2792.31 1403.78,2792.31 1403.78,3064.47 
  "/>
<polyline clip-path="url(#clip5900)" style="stroke:#009af9; stroke-width:4; stroke-opacity:1; fill:none" points="
  1451.78,2883.03 1739.78,2883.03 
  "/>
<g clip-path="url(#clip5900)">
<text style="fill:#000000; fill-opacity:1; font-family:Arial,Helvetica Neue,Helvetica,sans-serif; font-size:71px; text-anchor:start;" transform="rotate(0, 1787.78, 2909.03)" x="1787.78" y="2909.03">simulation</text>
</g>
<polyline clip-path="url(#clip5900)" style="stroke:#e26f46; stroke-width:4; stroke-opacity:1; fill:none" points="
  1451.78,2973.75 1739.78,2973.75 
  "/>
<g clip-path="url(#clip5900)">
<text style="fill:#000000; fill-opacity:1; font-family:Arial,Helvetica Neue,Helvetica,sans-serif; font-size:71px; text-anchor:start;" transform="rotate(0, 1787.78, 2999.75)" x="1787.78" y="2999.75">data</text>
</g>
<path clip-path="url(#clip5900)" d="
M2667.48 4497.21 L4752.76 4497.21 L4752.76 2595.03 L2667.48 2595.03  Z
  " fill="#ffffff" fill-rule="evenodd" fill-opacity="1"/>
<defs>
  <clipPath id="clip5905">
    <rect x="2667" y="2595" width="2086" height="1903"/>
  </clipPath>
</defs>
<polyline clip-path="url(#clip5905)" style="stroke:#000000; stroke-width:2; stroke-opacity:0.1; fill:none" points="
  2726.5,4497.21 2726.5,2595.03 
  "/>
<polyline clip-path="url(#clip5905)" style="stroke:#000000; stroke-width:2; stroke-opacity:0.1; fill:none" points="
  3218.31,4497.21 3218.31,2595.03 
  "/>
<polyline clip-path="url(#clip5905)" style="stroke:#000000; stroke-width:2; stroke-opacity:0.1; fill:none" points="
  3710.12,4497.21 3710.12,2595.03 
  "/>
<polyline clip-path="url(#clip5905)" style="stroke:#000000; stroke-width:2; stroke-opacity:0.1; fill:none" points="
  4201.93,4497.21 4201.93,2595.03 
  "/>
<polyline clip-path="url(#clip5905)" style="stroke:#000000; stroke-width:2; stroke-opacity:0.1; fill:none" points="
  4693.74,4497.21 4693.74,2595.03 
  "/>
<polyline clip-path="url(#clip5905)" style="stroke:#000000; stroke-width:2; stroke-opacity:0.1; fill:none" points="
  2667.48,4497.21 4752.76,4497.21 
  "/>
<polyline clip-path="url(#clip5905)" style="stroke:#000000; stroke-width:2; stroke-opacity:0.1; fill:none" points="
  2667.48,4074.5 4752.76,4074.5 
  "/>
<polyline clip-path="url(#clip5905)" style="stroke:#000000; stroke-width:2; stroke-opacity:0.1; fill:none" points="
  2667.48,3651.8 4752.76,3651.8 
  "/>
<polyline clip-path="url(#clip5905)" style="stroke:#000000; stroke-width:2; stroke-opacity:0.1; fill:none" points="
  2667.48,3229.09 4752.76,3229.09 
  "/>
<polyline clip-path="url(#clip5905)" style="stroke:#000000; stroke-width:2; stroke-opacity:0.1; fill:none" points="
  2667.48,2806.38 4752.76,2806.38 
  "/>
<polyline clip-path="url(#clip5900)" style="stroke:#000000; stroke-width:4; stroke-opacity:1; fill:none" points="
  2667.48,4497.21 4752.76,4497.21 
  "/>
<polyline clip-path="url(#clip5900)" style="stroke:#000000; stroke-width:4; stroke-opacity:1; fill:none" points="
  2667.48,4497.21 2667.48,2595.03 
  "/>
<polyline clip-path="url(#clip5900)" style="stroke:#000000; stroke-width:4; stroke-opacity:1; fill:none" points="
  2726.5,4497.21 2726.5,4474.38 
  "/>
<polyline clip-path="url(#clip5900)" style="stroke:#000000; stroke-width:4; stroke-opacity:1; fill:none" points="
  3218.31,4497.21 3218.31,4474.38 
  "/>
<polyline clip-path="url(#clip5900)" style="stroke:#000000; stroke-width:4; stroke-opacity:1; fill:none" points="
  3710.12,4497.21 3710.12,4474.38 
  "/>
<polyline clip-path="url(#clip5900)" style="stroke:#000000; stroke-width:4; stroke-opacity:1; fill:none" points="
  4201.93,4497.21 4201.93,4474.38 
  "/>
<polyline clip-path="url(#clip5900)" style="stroke:#000000; stroke-width:4; stroke-opacity:1; fill:none" points="
  4693.74,4497.21 4693.74,4474.38 
  "/>
<polyline clip-path="url(#clip5900)" style="stroke:#000000; stroke-width:4; stroke-opacity:1; fill:none" points="
  2667.48,4497.21 2692.51,4497.21 
  "/>
<polyline clip-path="url(#clip5900)" style="stroke:#000000; stroke-width:4; stroke-opacity:1; fill:none" points="
  2667.48,4074.5 2692.51,4074.5 
  "/>
<polyline clip-path="url(#clip5900)" style="stroke:#000000; stroke-width:4; stroke-opacity:1; fill:none" points="
  2667.48,3651.8 2692.51,3651.8 
  "/>
<polyline clip-path="url(#clip5900)" style="stroke:#000000; stroke-width:4; stroke-opacity:1; fill:none" points="
  2667.48,3229.09 2692.51,3229.09 
  "/>
<polyline clip-path="url(#clip5900)" style="stroke:#000000; stroke-width:4; stroke-opacity:1; fill:none" points="
  2667.48,2806.38 2692.51,2806.38 
  "/>
<g clip-path="url(#clip5900)">
<text style="fill:#000000; fill-opacity:1; font-family:Arial,Helvetica Neue,Helvetica,sans-serif; font-size:71px; text-anchor:middle;" transform="rotate(0, 2726.5, 4583.61)" x="2726.5" y="4583.61">0</text>
</g>
<g clip-path="url(#clip5900)">
<text style="fill:#000000; fill-opacity:1; font-family:Arial,Helvetica Neue,Helvetica,sans-serif; font-size:71px; text-anchor:middle;" transform="rotate(0, 3218.31, 4583.61)" x="3218.31" y="4583.61">2</text>
</g>
<g clip-path="url(#clip5900)">
<text style="fill:#000000; fill-opacity:1; font-family:Arial,Helvetica Neue,Helvetica,sans-serif; font-size:71px; text-anchor:middle;" transform="rotate(0, 3710.12, 4583.61)" x="3710.12" y="4583.61">4</text>
</g>
<g clip-path="url(#clip5900)">
<text style="fill:#000000; fill-opacity:1; font-family:Arial,Helvetica Neue,Helvetica,sans-serif; font-size:71px; text-anchor:middle;" transform="rotate(0, 4201.93, 4583.61)" x="4201.93" y="4583.61">6</text>
</g>
<g clip-path="url(#clip5900)">
<text style="fill:#000000; fill-opacity:1; font-family:Arial,Helvetica Neue,Helvetica,sans-serif; font-size:71px; text-anchor:middle;" transform="rotate(0, 4693.74, 4583.61)" x="4693.74" y="4583.61">8</text>
</g>
<g clip-path="url(#clip5900)">
<text style="fill:#000000; fill-opacity:1; font-family:Arial,Helvetica Neue,Helvetica,sans-serif; font-size:71px; text-anchor:end;" transform="rotate(0, 2619.48, 4523.21)" x="2619.48" y="4523.21">0</text>
</g>
<g clip-path="url(#clip5900)">
<text style="fill:#000000; fill-opacity:1; font-family:Arial,Helvetica Neue,Helvetica,sans-serif; font-size:71px; text-anchor:end;" transform="rotate(0, 2619.48, 4100.5)" x="2619.48" y="4100.5">1</text>
</g>
<g clip-path="url(#clip5900)">
<text style="fill:#000000; fill-opacity:1; font-family:Arial,Helvetica Neue,Helvetica,sans-serif; font-size:71px; text-anchor:end;" transform="rotate(0, 2619.48, 3677.8)" x="2619.48" y="3677.8">2</text>
</g>
<g clip-path="url(#clip5900)">
<text style="fill:#000000; fill-opacity:1; font-family:Arial,Helvetica Neue,Helvetica,sans-serif; font-size:71px; text-anchor:end;" transform="rotate(0, 2619.48, 3255.09)" x="2619.48" y="3255.09">3</text>
</g>
<g clip-path="url(#clip5900)">
<text style="fill:#000000; fill-opacity:1; font-family:Arial,Helvetica Neue,Helvetica,sans-serif; font-size:71px; text-anchor:end;" transform="rotate(0, 2619.48, 2832.38)" x="2619.48" y="2832.38">4</text>
</g>
<g clip-path="url(#clip5900)">
<text style="fill:#000000; fill-opacity:1; font-family:Arial,Helvetica Neue,Helvetica,sans-serif; font-size:125px; text-anchor:middle;" transform="rotate(0, 3710.12, 2509.2)" x="3710.12" y="2509.2">Overweight hypothyroid patient 45 mcg (n = 4)</text>
</g>
<g clip-path="url(#clip5900)">
<text style="fill:#000000; fill-opacity:1; font-family:Arial,Helvetica Neue,Helvetica,sans-serif; font-size:95px; text-anchor:middle;" transform="rotate(0, 3710.12, 4707.46)" x="3710.12" y="4707.46">Time (hours)</text>
</g>
<g clip-path="url(#clip5900)">
<text style="fill:#000000; fill-opacity:1; font-family:Arial,Helvetica Neue,Helvetica,sans-serif; font-size:95px; text-anchor:middle;" transform="rotate(-90, 2513.54, 3546.12)" x="2513.54" y="3546.12">T3 mcg/L</text>
</g>
<path clip-path="url(#clip5905)" d="
M2726.5 4143.98 L2751.09 4125.11 L2775.68 4069.84 L2800.27 4000.29 L2824.86 3924.45 L2849.45 3846.67 L2874.04 3769.54 L2898.63 3694.81 L2923.22 3623.85 L2947.81 3557.5 
  L2972.41 3496.26 L2997 3440.71 L3021.59 3390.69 L3046.18 3346.12 L3070.77 3307.8 L3095.36 3274.71 L3119.95 3245.22 L3144.54 3222.28 L3169.13 3205.62 L3193.72 3187.51 
  L3218.31 3176.76 L3242.9 3173.04 L3267.49 3162.96 L3292.08 3165.52 L3316.67 3166.34 L3341.26 3168.81 L3365.85 3177.28 L3390.44 3182.43 L3415.03 3194.49 L3439.62 3203.69 
  L3464.21 3216.98 L3488.81 3230.54 L3513.4 3243.63 L3537.99 3260.41 L3562.58 3274.1 L3587.17 3291.7 L3611.76 3308.24 L3636.35 3323.86 L3660.94 3343.05 L3685.53 3358.04 
  L3710.12 3376.85 L3734.71 3394.39 L3759.3 3410.08 L3783.89 3429.62 L3808.48 3444.34 L3833.07 3462.77 L3857.66 3479.58 L3882.25 3494.66 L3906.84 3513.06 L3931.43 3526.72 
  L3956.02 3544.04 L3980.61 3559.18 L4005.21 3573.25 L4029.8 3589.9 L4054.39 3602.1 L4078.98 3617.92 L4103.57 3631.17 L4128.16 3643.89 L4152.75 3658.69 L4177.34 3669.29 
  L4201.93 3683.49 L4226.52 3694.88 L4251.11 3706.17 L4275.7 3719.14 L4300.29 3728.23 L4324.88 3740.83 L4349.47 3750.47 L4374.06 3760.43 L4398.65 3771.64 L4423.24 3779.39 
  L4447.83 3790.5 L4472.42 3798.58 L4497.01 3807.34 L4521.61 3816.94 L4546.2 3823.52 L4570.79 3833.29 L4595.38 3839.99 L4619.97 3847.69 L4644.56 3855.88 L4669.15 3861.52 
  L4693.74 3869.09 L4693.74 3799.29 L4669.15 3792.01 L4644.56 3785.18 L4619.97 3777.17 L4595.38 3769.51 L4570.79 3761.43 L4546.2 3752.74 L4521.61 3744.5 L4497.01 3735.26 
  L4472.42 3726.25 L4447.83 3716.92 L4423.24 3706.81 L4398.65 3697.16 L4374.06 3686.52 L4349.47 3675.97 L4324.88 3665.23 L4300.29 3653.49 L4275.7 3642.32 L4251.11 3630.07 
  L4226.52 3617.83 L4201.93 3605.55 L4177.34 3592.01 L4152.75 3579.21 L4128.16 3565.2 L4103.57 3551.17 L4078.98 3537.25 L4054.39 3521.82 L4029.8 3507.4 L4005.21 3491.55 
  L3980.61 3475.78 L3956.02 3460.25 L3931.43 3442.98 L3906.84 3427.16 L3882.25 3409.55 L3857.66 3392.34 L3833.07 3375.47 L3808.48 3356.69 L3783.89 3339.98 L3759.3 3321.12 
  L3734.71 3303.08 L3710.12 3285.65 L3685.53 3266.19 L3660.94 3249.47 L3636.35 3230.7 L3611.76 3212.93 L3587.17 3196.38 L3562.58 3178.06 L3537.99 3162.92 L3513.4 3146.34 
  L3488.81 3131.38 L3464.21 3117.95 L3439.62 3103.72 L3415.03 3093.68 L3390.44 3081.91 L3365.85 3074.88 L3341.26 3067.48 L3316.67 3062.94 L3292.08 3063.11 L3267.49 3060.44 
  L3242.9 3069.44 L3218.31 3074.77 L3193.72 3084.35 L3169.13 3103.58 L3144.54 3120.97 L3119.95 3144.28 L3095.36 3175.08 L3070.77 3209.27 L3046.18 3248.9 L3021.59 3295.21 
  L2997 3347.09 L2972.41 3404.75 L2947.81 3468.36 L2923.22 3537.29 L2898.63 3611.03 L2874.04 3688.7 L2849.45 3768.89 L2824.86 3849.76 L2800.27 3928.64 L2775.68 4001 
  L2751.09 4058.54 L2726.5 4077.95  Z
  " fill="#009af9" fill-rule="evenodd" fill-opacity="0.3"/>
<polyline clip-path="url(#clip5905)" style="stroke:#009af9; stroke-width:4; stroke-opacity:1; fill:none" points="
  2726.5,4110.96 2751.09,4091.83 2775.68,4035.42 2800.27,3964.46 2824.86,3887.11 2849.45,3807.78 2874.04,3729.12 2898.63,3652.92 2923.22,3580.57 2947.81,3512.93 
  2972.41,3450.5 2997,3393.9 3021.59,3342.95 3046.18,3297.51 3070.77,3258.54 3095.36,3224.89 3119.95,3194.75 3144.54,3171.62 3169.13,3154.6 3193.72,3135.93 
  3218.31,3125.77 3242.9,3121.24 3267.49,3111.7 3292.08,3114.31 3316.67,3114.64 3341.26,3118.14 3365.85,3126.08 3390.44,3132.17 3415.03,3144.08 3439.62,3153.7 
  3464.21,3167.47 3488.81,3180.96 3513.4,3194.98 3537.99,3211.67 3562.58,3226.08 3587.17,3244.04 3611.76,3260.59 3636.35,3277.28 3660.94,3296.26 3685.53,3312.12 
  3710.12,3331.25 3734.71,3348.73 3759.3,3365.6 3783.89,3384.8 3808.48,3400.51 3833.07,3419.12 3857.66,3435.96 3882.25,3452.1 3906.84,3470.11 3931.43,3484.85 
  3956.02,3502.14 3980.61,3517.48 4005.21,3532.4 4029.8,3548.65 4054.39,3561.96 4078.98,3577.59 4103.57,3591.17 4128.16,3604.55 4152.75,3618.95 4177.34,3630.65 
  4201.93,3644.52 4226.52,3656.36 4251.11,3668.12 4275.7,3680.73 4300.29,3690.86 4324.88,3703.03 4349.47,3713.22 4374.06,3723.48 4398.65,3734.4 4423.24,3743.1 
  4447.83,3753.71 4472.42,3762.41 4497.01,3771.3 4521.61,3780.72 4546.2,3788.13 4570.79,3797.36 4595.38,3804.75 4619.97,3812.43 4644.56,3820.53 4669.15,3826.77 
  4693.74,3834.19 
  "/>
<polyline clip-path="url(#clip5905)" style="stroke:#e26f46; stroke-width:4; stroke-opacity:1; fill:none" points="
  2726.5,4110.96 2849.45,3976.86 2972.41,3304.44 3218.31,2885.01 3464.21,3115.28 3710.12,3263.22 3956.02,3494.66 4201.93,3617.35 4447.83,3727.67 4693.74,3817.92 
  
  "/>
<polyline clip-path="url(#clip5905)" style="stroke:#e26f46; stroke-width:4; stroke-opacity:1; fill:none" points="
  2726.5,4143.98 2726.5,4077.95 
  "/>
<polyline clip-path="url(#clip5905)" style="stroke:#e26f46; stroke-width:4; stroke-opacity:1; fill:none" points="
  2849.45,4001.59 2849.45,3952.13 
  "/>
<polyline clip-path="url(#clip5905)" style="stroke:#e26f46; stroke-width:4; stroke-opacity:1; fill:none" points="
  2972.41,3477.65 2972.41,3131.22 
  "/>
<polyline clip-path="url(#clip5905)" style="stroke:#e26f46; stroke-width:4; stroke-opacity:1; fill:none" points="
  3218.31,3141.63 3218.31,2628.38 
  "/>
<polyline clip-path="url(#clip5905)" style="stroke:#e26f46; stroke-width:4; stroke-opacity:1; fill:none" points="
  3464.21,3349.97 3464.21,2880.58 
  "/>
<polyline clip-path="url(#clip5905)" style="stroke:#e26f46; stroke-width:4; stroke-opacity:1; fill:none" points="
  3710.12,3444.63 3710.12,3081.82 
  "/>
<polyline clip-path="url(#clip5905)" style="stroke:#e26f46; stroke-width:4; stroke-opacity:1; fill:none" points="
  3956.02,3621.36 3956.02,3367.95 
  "/>
<polyline clip-path="url(#clip5905)" style="stroke:#e26f46; stroke-width:4; stroke-opacity:1; fill:none" points="
  4201.93,3698.52 4201.93,3536.17 
  "/>
<polyline clip-path="url(#clip5905)" style="stroke:#e26f46; stroke-width:4; stroke-opacity:1; fill:none" points="
  4447.83,3820.57 4447.83,3634.77 
  "/>
<polyline clip-path="url(#clip5905)" style="stroke:#e26f46; stroke-width:4; stroke-opacity:1; fill:none" points="
  4693.74,3893.05 4693.74,3742.79 
  "/>
<line clip-path="url(#clip5905)" x1="2746.5" y1="4143.98" x2="2706.5" y2="4143.98" style="stroke:#000000; stroke-width:4; stroke-opacity:1"/>
<line clip-path="url(#clip5905)" x1="2746.5" y1="4077.95" x2="2706.5" y2="4077.95" style="stroke:#000000; stroke-width:4; stroke-opacity:1"/>
<line clip-path="url(#clip5905)" x1="2869.45" y1="4001.59" x2="2829.45" y2="4001.59" style="stroke:#000000; stroke-width:4; stroke-opacity:1"/>
<line clip-path="url(#clip5905)" x1="2869.45" y1="3952.13" x2="2829.45" y2="3952.13" style="stroke:#000000; stroke-width:4; stroke-opacity:1"/>
<line clip-path="url(#clip5905)" x1="2992.41" y1="3477.65" x2="2952.41" y2="3477.65" style="stroke:#000000; stroke-width:4; stroke-opacity:1"/>
<line clip-path="url(#clip5905)" x1="2992.41" y1="3131.22" x2="2952.41" y2="3131.22" style="stroke:#000000; stroke-width:4; stroke-opacity:1"/>
<line clip-path="url(#clip5905)" x1="3238.31" y1="3141.63" x2="3198.31" y2="3141.63" style="stroke:#000000; stroke-width:4; stroke-opacity:1"/>
<line clip-path="url(#clip5905)" x1="3238.31" y1="2628.38" x2="3198.31" y2="2628.38" style="stroke:#000000; stroke-width:4; stroke-opacity:1"/>
<line clip-path="url(#clip5905)" x1="3484.21" y1="3349.97" x2="3444.21" y2="3349.97" style="stroke:#000000; stroke-width:4; stroke-opacity:1"/>
<line clip-path="url(#clip5905)" x1="3484.21" y1="2880.58" x2="3444.21" y2="2880.58" style="stroke:#000000; stroke-width:4; stroke-opacity:1"/>
<line clip-path="url(#clip5905)" x1="3730.12" y1="3444.63" x2="3690.12" y2="3444.63" style="stroke:#000000; stroke-width:4; stroke-opacity:1"/>
<line clip-path="url(#clip5905)" x1="3730.12" y1="3081.82" x2="3690.12" y2="3081.82" style="stroke:#000000; stroke-width:4; stroke-opacity:1"/>
<line clip-path="url(#clip5905)" x1="3976.02" y1="3621.36" x2="3936.02" y2="3621.36" style="stroke:#000000; stroke-width:4; stroke-opacity:1"/>
<line clip-path="url(#clip5905)" x1="3976.02" y1="3367.95" x2="3936.02" y2="3367.95" style="stroke:#000000; stroke-width:4; stroke-opacity:1"/>
<line clip-path="url(#clip5905)" x1="4221.93" y1="3698.52" x2="4181.93" y2="3698.52" style="stroke:#000000; stroke-width:4; stroke-opacity:1"/>
<line clip-path="url(#clip5905)" x1="4221.93" y1="3536.17" x2="4181.93" y2="3536.17" style="stroke:#000000; stroke-width:4; stroke-opacity:1"/>
<line clip-path="url(#clip5905)" x1="4467.83" y1="3820.57" x2="4427.83" y2="3820.57" style="stroke:#000000; stroke-width:4; stroke-opacity:1"/>
<line clip-path="url(#clip5905)" x1="4467.83" y1="3634.77" x2="4427.83" y2="3634.77" style="stroke:#000000; stroke-width:4; stroke-opacity:1"/>
<line clip-path="url(#clip5905)" x1="4713.74" y1="3893.05" x2="4673.74" y2="3893.05" style="stroke:#000000; stroke-width:4; stroke-opacity:1"/>
<line clip-path="url(#clip5905)" x1="4713.74" y1="3742.79" x2="4673.74" y2="3742.79" style="stroke:#000000; stroke-width:4; stroke-opacity:1"/>
<path clip-path="url(#clip5900)" d="
M3803.78 3064.47 L4608.76 3064.47 L4608.76 2792.31 L3803.78 2792.31  Z
  " fill="#ffffff" fill-rule="evenodd" fill-opacity="1"/>
<polyline clip-path="url(#clip5900)" style="stroke:#000000; stroke-width:4; stroke-opacity:1; fill:none" points="
  3803.78,3064.47 4608.76,3064.47 4608.76,2792.31 3803.78,2792.31 3803.78,3064.47 
  "/>
<polyline clip-path="url(#clip5900)" style="stroke:#009af9; stroke-width:4; stroke-opacity:1; fill:none" points="
  3851.78,2883.03 4139.78,2883.03 
  "/>
<g clip-path="url(#clip5900)">
<text style="fill:#000000; fill-opacity:1; font-family:Arial,Helvetica Neue,Helvetica,sans-serif; font-size:71px; text-anchor:start;" transform="rotate(0, 4187.78, 2909.03)" x="4187.78" y="2909.03">simulation</text>
</g>
<polyline clip-path="url(#clip5900)" style="stroke:#e26f46; stroke-width:4; stroke-opacity:1; fill:none" points="
  3851.78,2973.75 4139.78,2973.75 
  "/>
<g clip-path="url(#clip5900)">
<text style="fill:#000000; fill-opacity:1; font-family:Arial,Helvetica Neue,Helvetica,sans-serif; font-size:71px; text-anchor:start;" transform="rotate(0, 4187.78, 2999.75)" x="4187.78" y="2999.75">data</text>
</g>
</svg>
