<?xml version="1.0" encoding="utf-8"?>
<svg xmlns="http://www.w3.org/2000/svg" xmlns:xlink="http://www.w3.org/1999/xlink" width="1200" height="1200" viewBox="0 0 4800 4800">
<defs>
  <clipPath id="clip0800">
    <rect x="0" y="0" width="4800" height="4800"/>
  </clipPath>
</defs>
<path clip-path="url(#clip0800)" d="
M0 4800 L4800 4800 L4800 0 L0 0  Z
  " fill="#ffffff" fill-rule="evenodd" fill-opacity="1"/>
<defs>
  <clipPath id="clip0801">
    <rect x="960" y="480" width="3361" height="3361"/>
  </clipPath>
</defs>
<path clip-path="url(#clip0800)" d="
M267.483 2097.21 L2352.76 2097.21 L2352.76 195.029 L267.483 195.029  Z
  " fill="#ffffff" fill-rule="evenodd" fill-opacity="1"/>
<defs>
  <clipPath id="clip0802">
    <rect x="267" y="195" width="2086" height="1903"/>
  </clipPath>
</defs>
<polyline clip-path="url(#clip0802)" style="stroke:#000000; stroke-width:2; stroke-opacity:0.1; fill:none" points="
  326.5,2097.21 326.5,195.029 
  "/>
<polyline clip-path="url(#clip0802)" style="stroke:#000000; stroke-width:2; stroke-opacity:0.1; fill:none" points="
  818.31,2097.21 818.31,195.029 
  "/>
<polyline clip-path="url(#clip0802)" style="stroke:#000000; stroke-width:2; stroke-opacity:0.1; fill:none" points="
  1310.12,2097.21 1310.12,195.029 
  "/>
<polyline clip-path="url(#clip0802)" style="stroke:#000000; stroke-width:2; stroke-opacity:0.1; fill:none" points="
  1801.93,2097.21 1801.93,195.029 
  "/>
<polyline clip-path="url(#clip0802)" style="stroke:#000000; stroke-width:2; stroke-opacity:0.1; fill:none" points="
  2293.74,2097.21 2293.74,195.029 
  "/>
<polyline clip-path="url(#clip0802)" style="stroke:#000000; stroke-width:2; stroke-opacity:0.1; fill:none" points="
  267.483,2097.21 2352.76,2097.21 
  "/>
<polyline clip-path="url(#clip0802)" style="stroke:#000000; stroke-width:2; stroke-opacity:0.1; fill:none" points="
  267.483,1674.5 2352.76,1674.5 
  "/>
<polyline clip-path="url(#clip0802)" style="stroke:#000000; stroke-width:2; stroke-opacity:0.1; fill:none" points="
  267.483,1251.8 2352.76,1251.8 
  "/>
<polyline clip-path="url(#clip0802)" style="stroke:#000000; stroke-width:2; stroke-opacity:0.1; fill:none" points="
  267.483,829.09 2352.76,829.09 
  "/>
<polyline clip-path="url(#clip0802)" style="stroke:#000000; stroke-width:2; stroke-opacity:0.1; fill:none" points="
  267.483,406.382 2352.76,406.382 
  "/>
<polyline clip-path="url(#clip0800)" style="stroke:#000000; stroke-width:4; stroke-opacity:1; fill:none" points="
  267.483,2097.21 2352.76,2097.21 
  "/>
<polyline clip-path="url(#clip0800)" style="stroke:#000000; stroke-width:4; stroke-opacity:1; fill:none" points="
  267.483,2097.21 267.483,195.029 
  "/>
<polyline clip-path="url(#clip0800)" style="stroke:#000000; stroke-width:4; stroke-opacity:1; fill:none" points="
  326.5,2097.21 326.5,2074.38 
  "/>
<polyline clip-path="url(#clip0800)" style="stroke:#000000; stroke-width:4; stroke-opacity:1; fill:none" points="
  818.31,2097.21 818.31,2074.38 
  "/>
<polyline clip-path="url(#clip0800)" style="stroke:#000000; stroke-width:4; stroke-opacity:1; fill:none" points="
  1310.12,2097.21 1310.12,2074.38 
  "/>
<polyline clip-path="url(#clip0800)" style="stroke:#000000; stroke-width:4; stroke-opacity:1; fill:none" points="
  1801.93,2097.21 1801.93,2074.38 
  "/>
<polyline clip-path="url(#clip0800)" style="stroke:#000000; stroke-width:4; stroke-opacity:1; fill:none" points="
  2293.74,2097.21 2293.74,2074.38 
  "/>
<polyline clip-path="url(#clip0800)" style="stroke:#000000; stroke-width:4; stroke-opacity:1; fill:none" points="
  267.483,2097.21 292.506,2097.21 
  "/>
<polyline clip-path="url(#clip0800)" style="stroke:#000000; stroke-width:4; stroke-opacity:1; fill:none" points="
  267.483,1674.5 292.506,1674.5 
  "/>
<polyline clip-path="url(#clip0800)" style="stroke:#000000; stroke-width:4; stroke-opacity:1; fill:none" points="
  267.483,1251.8 292.506,1251.8 
  "/>
<polyline clip-path="url(#clip0800)" style="stroke:#000000; stroke-width:4; stroke-opacity:1; fill:none" points="
  267.483,829.09 292.506,829.09 
  "/>
<polyline clip-path="url(#clip0800)" style="stroke:#000000; stroke-width:4; stroke-opacity:1; fill:none" points="
  267.483,406.382 292.506,406.382 
  "/>
<g clip-path="url(#clip0800)">
<text style="fill:#000000; fill-opacity:1; font-family:Arial,Helvetica Neue,Helvetica,sans-serif; font-size:71px; text-anchor:middle;" transform="rotate(0, 326.5, 2183.61)" x="326.5" y="2183.61">0</text>
</g>
<g clip-path="url(#clip0800)">
<text style="fill:#000000; fill-opacity:1; font-family:Arial,Helvetica Neue,Helvetica,sans-serif; font-size:71px; text-anchor:middle;" transform="rotate(0, 818.31, 2183.61)" x="818.31" y="2183.61">2</text>
</g>
<g clip-path="url(#clip0800)">
<text style="fill:#000000; fill-opacity:1; font-family:Arial,Helvetica Neue,Helvetica,sans-serif; font-size:71px; text-anchor:middle;" transform="rotate(0, 1310.12, 2183.61)" x="1310.12" y="2183.61">4</text>
</g>
<g clip-path="url(#clip0800)">
<text style="fill:#000000; fill-opacity:1; font-family:Arial,Helvetica Neue,Helvetica,sans-serif; font-size:71px; text-anchor:middle;" transform="rotate(0, 1801.93, 2183.61)" x="1801.93" y="2183.61">6</text>
</g>
<g clip-path="url(#clip0800)">
<text style="fill:#000000; fill-opacity:1; font-family:Arial,Helvetica Neue,Helvetica,sans-serif; font-size:71px; text-anchor:middle;" transform="rotate(0, 2293.74, 2183.61)" x="2293.74" y="2183.61">8</text>
</g>
<g clip-path="url(#clip0800)">
<text style="fill:#000000; fill-opacity:1; font-family:Arial,Helvetica Neue,Helvetica,sans-serif; font-size:71px; text-anchor:end;" transform="rotate(0, 219.483, 2123.21)" x="219.483" y="2123.21">0</text>
</g>
<g clip-path="url(#clip0800)">
<text style="fill:#000000; fill-opacity:1; font-family:Arial,Helvetica Neue,Helvetica,sans-serif; font-size:71px; text-anchor:end;" transform="rotate(0, 219.483, 1700.5)" x="219.483" y="1700.5">1</text>
</g>
<g clip-path="url(#clip0800)">
<text style="fill:#000000; fill-opacity:1; font-family:Arial,Helvetica Neue,Helvetica,sans-serif; font-size:71px; text-anchor:end;" transform="rotate(0, 219.483, 1277.8)" x="219.483" y="1277.8">2</text>
</g>
<g clip-path="url(#clip0800)">
<text style="fill:#000000; fill-opacity:1; font-family:Arial,Helvetica Neue,Helvetica,sans-serif; font-size:71px; text-anchor:end;" transform="rotate(0, 219.483, 855.09)" x="219.483" y="855.09">3</text>
</g>
<g clip-path="url(#clip0800)">
<text style="fill:#000000; fill-opacity:1; font-family:Arial,Helvetica Neue,Helvetica,sans-serif; font-size:71px; text-anchor:end;" transform="rotate(0, 219.483, 432.382)" x="219.483" y="432.382">4</text>
</g>
<g clip-path="url(#clip0800)">
<text style="fill:#000000; fill-opacity:1; font-family:Arial,Helvetica Neue,Helvetica,sans-serif; font-size:125px; text-anchor:middle;" transform="rotate(0, 1310.12, 109.2)" x="1310.12" y="109.2">Normal patient 30 mcg (6 patients)</text>
</g>
<g clip-path="url(#clip0800)">
<text style="fill:#000000; fill-opacity:1; font-family:Arial,Helvetica Neue,Helvetica,sans-serif; font-size:95px; text-anchor:middle;" transform="rotate(0, 1310.12, 2307.46)" x="1310.12" y="2307.46">Time (hours)</text>
</g>
<g clip-path="url(#clip0800)">
<text style="fill:#000000; fill-opacity:1; font-family:Arial,Helvetica Neue,Helvetica,sans-serif; font-size:95px; text-anchor:middle;" transform="rotate(-90, 113.54, 1146.12)" x="113.54" y="1146.12">T3 mcg/L</text>
</g>
<path clip-path="url(#clip0802)" d="
M326.5 1829.39 L351.091 1812.37 L375.681 1771.24 L400.272 1720.78 L424.862 1666.5 L449.453 1611.15 L474.043 1556.55 L498.634 1503.88 L523.224 1454.05 L547.815 1407.51 
  L572.405 1364.85 L596.996 1326.07 L621.586 1290.99 L646.177 1260.63 L670.767 1233.82 L695.357 1209.3 L719.948 1191.18 L744.538 1175.08 L769.129 1158.73 L793.719 1151.79 
  L818.31 1141.8 L842.9 1135.92 L867.491 1134.1 L892.081 1130.93 L916.672 1133.08 L941.262 1134.12 L965.853 1138.48 L990.443 1142.99 L1015.03 1149.04 L1039.62 1156.1 
  L1064.21 1163.56 L1088.81 1172.36 L1113.4 1181.13 L1137.99 1190.98 L1162.58 1201.12 L1187.17 1211.27 L1211.76 1222.39 L1236.35 1232.74 L1260.94 1244.11 L1285.53 1255.28 
  L1310.12 1266.22 L1334.71 1277.78 L1359.3 1288.68 L1383.89 1299.95 L1408.48 1311.35 L1433.07 1322.44 L1457.66 1333.29 L1482.25 1343.9 L1506.84 1354.37 L1531.43 1364.72 
  L1556.02 1374.92 L1580.61 1384.96 L1605.21 1394.81 L1629.8 1404.44 L1654.39 1413.84 L1678.98 1423.03 L1703.57 1432 L1728.16 1440.75 L1752.75 1449.29 L1777.34 1457.6 
  L1801.93 1465.7 L1826.52 1473.58 L1851.11 1481.25 L1875.7 1488.7 L1900.29 1495.95 L1924.88 1502.99 L1949.47 1509.82 L1974.06 1516.46 L1998.65 1522.91 L2023.24 1529.16 
  L2047.83 1535.23 L2072.42 1541.12 L2097.01 1546.83 L2121.61 1552.36 L2146.2 1557.73 L2170.79 1562.94 L2195.38 1567.98 L2219.97 1572.88 L2244.56 1577.62 L2269.15 1582.21 
  L2293.74 1586.67 L2293.74 1314.72 L2269.15 1310.34 L2244.56 1305.83 L2219.97 1301.18 L2195.38 1296.38 L2170.79 1291.44 L2146.2 1286.33 L2121.61 1281.07 L2097.01 1275.64 
  L2072.42 1270.04 L2047.83 1264.26 L2023.24 1258.3 L1998.65 1252.16 L1974.06 1245.83 L1949.47 1239.3 L1924.88 1232.57 L1900.29 1225.65 L1875.7 1218.5 L1851.11 1211.15 
  L1826.52 1203.58 L1801.93 1195.79 L1777.34 1187.77 L1752.75 1179.53 L1728.16 1171.06 L1703.57 1162.36 L1678.98 1153.42 L1654.39 1144.26 L1629.8 1134.87 L1605.21 1125.23 
  L1580.61 1115.36 L1556.02 1105.24 L1531.43 1094.93 L1506.84 1084.47 L1482.25 1073.88 L1457.66 1063.18 L1433.07 1052.21 L1408.48 1040.86 L1383.89 1029.04 L1359.3 1016.98 
  L1334.71 1006.13 L1310.12 994.359 L1285.53 982.779 L1260.94 971.248 L1236.35 959.263 L1211.76 948.311 L1187.17 936.147 L1162.58 925.651 L1137.99 914.269 L1113.4 903.862 
  L1088.81 894.182 L1064.21 883.926 L1039.62 876.062 L1015.03 866.709 L990.443 860.725 L965.853 853.146 L941.262 849.311 L916.672 844.375 L892.081 843.016 L867.491 841.875 
  L842.9 843.101 L818.31 847.342 L793.719 851.226 L769.129 862.348 L744.538 869.32 L719.948 886.109 L695.357 901.665 L670.767 920.306 L646.177 944.757 L621.586 970.544 
  L596.996 1000.48 L572.405 1034.34 L547.815 1071.17 L523.224 1111.46 L498.634 1154.58 L474.043 1199.97 L449.453 1246.94 L424.862 1294.34 L400.272 1340.6 L375.681 1383.3 
  L351.091 1417.1 L326.5 1425.63  Z
  " fill="#009af9" fill-rule="evenodd" fill-opacity="0.3"/>
<polyline clip-path="url(#clip0802)" style="stroke:#009af9; stroke-width:4; stroke-opacity:1; fill:none" points="
  326.5,1627.51 351.091,1614.74 375.681,1577.27 400.272,1530.69 424.862,1480.42 449.453,1429.04 474.043,1378.26 498.634,1329.23 523.224,1282.75 547.815,1239.34 
  572.405,1199.6 596.996,1163.28 621.586,1130.77 646.177,1102.69 670.767,1077.06 695.357,1055.48 719.948,1038.64 744.538,1022.2 769.129,1010.54 793.719,1001.51 
  818.31,994.569 842.9,989.508 867.491,987.985 892.081,986.973 916.672,988.728 941.262,991.717 965.853,995.811 990.443,1001.86 1015.03,1007.87 1039.62,1016.08 
  1064.21,1023.74 1088.81,1033.27 1113.4,1042.49 1137.99,1052.63 1162.58,1063.39 1187.17,1073.71 1211.76,1085.35 1236.35,1096 1260.94,1107.68 1285.53,1119.03 
  1310.12,1130.29 1334.71,1141.95 1359.3,1152.83 1383.89,1164.5 1408.48,1176.11 1433.07,1187.33 1457.66,1198.23 1482.25,1208.89 1506.84,1219.42 1531.43,1229.82 
  1556.02,1240.08 1580.61,1250.16 1605.21,1260.02 1629.8,1269.65 1654.39,1279.05 1678.98,1288.23 1703.57,1297.18 1728.16,1305.91 1752.75,1314.41 1777.34,1322.69 
  1801.93,1330.75 1826.52,1338.58 1851.11,1346.2 1875.7,1353.6 1900.29,1360.8 1924.88,1367.78 1949.47,1374.56 1974.06,1381.15 1998.65,1387.53 2023.24,1393.73 
  2047.83,1399.74 2072.42,1405.58 2097.01,1411.23 2121.61,1416.72 2146.2,1422.03 2170.79,1427.19 2195.38,1432.18 2219.97,1437.03 2244.56,1441.73 2269.15,1446.28 
  2293.74,1450.69 
  "/>
<polyline clip-path="url(#clip0802)" style="stroke:#e26f46; stroke-width:4; stroke-opacity:1; fill:none" points="
  326.5,1627.51 449.453,1486.26 572.405,1170.57 818.31,972.669 1064.21,1091.03 1310.12,1223.97 1556.02,1340.99 1801.93,1404.18 2047.83,1424.75 2293.74,1445.26 
  
  "/>
<polyline clip-path="url(#clip0802)" style="stroke:#e26f46; stroke-width:4; stroke-opacity:1; fill:none" points="
  326.5,1829.39 326.5,1425.63 
  "/>
<polyline clip-path="url(#clip0802)" style="stroke:#e26f46; stroke-width:4; stroke-opacity:1; fill:none" points="
  449.453,1780.72 449.453,1191.8 
  "/>
<polyline clip-path="url(#clip0802)" style="stroke:#e26f46; stroke-width:4; stroke-opacity:1; fill:none" points="
  572.405,1557.99 572.405,783.146 
  "/>
<polyline clip-path="url(#clip0802)" style="stroke:#e26f46; stroke-width:4; stroke-opacity:1; fill:none" points="
  818.31,1269.62 818.31,675.721 
  "/>
<polyline clip-path="url(#clip0802)" style="stroke:#e26f46; stroke-width:4; stroke-opacity:1; fill:none" points="
  1064.21,1408.46 1064.21,773.59 
  "/>
<polyline clip-path="url(#clip0802)" style="stroke:#e26f46; stroke-width:4; stroke-opacity:1; fill:none" points="
  1310.12,1495.19 1310.12,952.748 
  "/>
<polyline clip-path="url(#clip0802)" style="stroke:#e26f46; stroke-width:4; stroke-opacity:1; fill:none" points="
  1556.02,1607.22 1556.02,1074.76 
  "/>
<polyline clip-path="url(#clip0802)" style="stroke:#e26f46; stroke-width:4; stroke-opacity:1; fill:none" points="
  1801.93,1664.85 1801.93,1143.51 
  "/>
<polyline clip-path="url(#clip0802)" style="stroke:#e26f46; stroke-width:4; stroke-opacity:1; fill:none" points="
  2047.83,1689.08 2047.83,1160.43 
  "/>
<polyline clip-path="url(#clip0802)" style="stroke:#e26f46; stroke-width:4; stroke-opacity:1; fill:none" points="
  2293.74,1728.38 2293.74,1162.13 
  "/>
<line clip-path="url(#clip0802)" x1="346.5" y1="1829.39" x2="306.5" y2="1829.39" style="stroke:#000000; stroke-width:4; stroke-opacity:1"/>
<line clip-path="url(#clip0802)" x1="346.5" y1="1425.63" x2="306.5" y2="1425.63" style="stroke:#000000; stroke-width:4; stroke-opacity:1"/>
<line clip-path="url(#clip0802)" x1="469.453" y1="1780.72" x2="429.453" y2="1780.72" style="stroke:#000000; stroke-width:4; stroke-opacity:1"/>
<line clip-path="url(#clip0802)" x1="469.453" y1="1191.8" x2="429.453" y2="1191.8" style="stroke:#000000; stroke-width:4; stroke-opacity:1"/>
<line clip-path="url(#clip0802)" x1="592.405" y1="1557.99" x2="552.405" y2="1557.99" style="stroke:#000000; stroke-width:4; stroke-opacity:1"/>
<line clip-path="url(#clip0802)" x1="592.405" y1="783.146" x2="552.405" y2="783.146" style="stroke:#000000; stroke-width:4; stroke-opacity:1"/>
<line clip-path="url(#clip0802)" x1="838.31" y1="1269.62" x2="798.31" y2="1269.62" style="stroke:#000000; stroke-width:4; stroke-opacity:1"/>
<line clip-path="url(#clip0802)" x1="838.31" y1="675.721" x2="798.31" y2="675.721" style="stroke:#000000; stroke-width:4; stroke-opacity:1"/>
<line clip-path="url(#clip0802)" x1="1084.21" y1="1408.46" x2="1044.21" y2="1408.46" style="stroke:#000000; stroke-width:4; stroke-opacity:1"/>
<line clip-path="url(#clip0802)" x1="1084.21" y1="773.59" x2="1044.21" y2="773.59" style="stroke:#000000; stroke-width:4; stroke-opacity:1"/>
<line clip-path="url(#clip0802)" x1="1330.12" y1="1495.19" x2="1290.12" y2="1495.19" style="stroke:#000000; stroke-width:4; stroke-opacity:1"/>
<line clip-path="url(#clip0802)" x1="1330.12" y1="952.748" x2="1290.12" y2="952.748" style="stroke:#000000; stroke-width:4; stroke-opacity:1"/>
<line clip-path="url(#clip0802)" x1="1576.02" y1="1607.22" x2="1536.02" y2="1607.22" style="stroke:#000000; stroke-width:4; stroke-opacity:1"/>
<line clip-path="url(#clip0802)" x1="1576.02" y1="1074.76" x2="1536.02" y2="1074.76" style="stroke:#000000; stroke-width:4; stroke-opacity:1"/>
<line clip-path="url(#clip0802)" x1="1821.93" y1="1664.85" x2="1781.93" y2="1664.85" style="stroke:#000000; stroke-width:4; stroke-opacity:1"/>
<line clip-path="url(#clip0802)" x1="1821.93" y1="1143.51" x2="1781.93" y2="1143.51" style="stroke:#000000; stroke-width:4; stroke-opacity:1"/>
<line clip-path="url(#clip0802)" x1="2067.83" y1="1689.08" x2="2027.83" y2="1689.08" style="stroke:#000000; stroke-width:4; stroke-opacity:1"/>
<line clip-path="url(#clip0802)" x1="2067.83" y1="1160.43" x2="2027.83" y2="1160.43" style="stroke:#000000; stroke-width:4; stroke-opacity:1"/>
<line clip-path="url(#clip0802)" x1="2313.74" y1="1728.38" x2="2273.74" y2="1728.38" style="stroke:#000000; stroke-width:4; stroke-opacity:1"/>
<line clip-path="url(#clip0802)" x1="2313.74" y1="1162.13" x2="2273.74" y2="1162.13" style="stroke:#000000; stroke-width:4; stroke-opacity:1"/>
<path clip-path="url(#clip0800)" d="
M1403.78 664.469 L2208.76 664.469 L2208.76 392.309 L1403.78 392.309  Z
  " fill="#ffffff" fill-rule="evenodd" fill-opacity="1"/>
<polyline clip-path="url(#clip0800)" style="stroke:#000000; stroke-width:4; stroke-opacity:1; fill:none" points="
  1403.78,664.469 2208.76,664.469 2208.76,392.309 1403.78,392.309 1403.78,664.469 
  "/>
<polyline clip-path="url(#clip0800)" style="stroke:#009af9; stroke-width:4; stroke-opacity:1; fill:none" points="
  1451.78,483.029 1739.78,483.029 
  "/>
<g clip-path="url(#clip0800)">
<text style="fill:#000000; fill-opacity:1; font-family:Arial,Helvetica Neue,Helvetica,sans-serif; font-size:71px; text-anchor:start;" transform="rotate(0, 1787.78, 509.029)" x="1787.78" y="509.029">simulation</text>
</g>
<polyline clip-path="url(#clip0800)" style="stroke:#e26f46; stroke-width:4; stroke-opacity:1; fill:none" points="
  1451.78,573.749 1739.78,573.749 
  "/>
<g clip-path="url(#clip0800)">
<text style="fill:#000000; fill-opacity:1; font-family:Arial,Helvetica Neue,Helvetica,sans-serif; font-size:71px; text-anchor:start;" transform="rotate(0, 1787.78, 599.749)" x="1787.78" y="599.749">data</text>
</g>
<path clip-path="url(#clip0800)" d="
M2667.48 2097.21 L4752.76 2097.21 L4752.76 195.029 L2667.48 195.029  Z
  " fill="#ffffff" fill-rule="evenodd" fill-opacity="1"/>
<defs>
  <clipPath id="clip0803">
    <rect x="2667" y="195" width="2086" height="1903"/>
  </clipPath>
</defs>
<polyline clip-path="url(#clip0803)" style="stroke:#000000; stroke-width:2; stroke-opacity:0.1; fill:none" points="
  2726.5,2097.21 2726.5,195.029 
  "/>
<polyline clip-path="url(#clip0803)" style="stroke:#000000; stroke-width:2; stroke-opacity:0.1; fill:none" points="
  3218.31,2097.21 3218.31,195.029 
  "/>
<polyline clip-path="url(#clip0803)" style="stroke:#000000; stroke-width:2; stroke-opacity:0.1; fill:none" points="
  3710.12,2097.21 3710.12,195.029 
  "/>
<polyline clip-path="url(#clip0803)" style="stroke:#000000; stroke-width:2; stroke-opacity:0.1; fill:none" points="
  4201.93,2097.21 4201.93,195.029 
  "/>
<polyline clip-path="url(#clip0803)" style="stroke:#000000; stroke-width:2; stroke-opacity:0.1; fill:none" points="
  4693.74,2097.21 4693.74,195.029 
  "/>
<polyline clip-path="url(#clip0803)" style="stroke:#000000; stroke-width:2; stroke-opacity:0.1; fill:none" points="
  2667.48,2097.21 4752.76,2097.21 
  "/>
<polyline clip-path="url(#clip0803)" style="stroke:#000000; stroke-width:2; stroke-opacity:0.1; fill:none" points="
  2667.48,1674.5 4752.76,1674.5 
  "/>
<polyline clip-path="url(#clip0803)" style="stroke:#000000; stroke-width:2; stroke-opacity:0.1; fill:none" points="
  2667.48,1251.8 4752.76,1251.8 
  "/>
<polyline clip-path="url(#clip0803)" style="stroke:#000000; stroke-width:2; stroke-opacity:0.1; fill:none" points="
  2667.48,829.09 4752.76,829.09 
  "/>
<polyline clip-path="url(#clip0803)" style="stroke:#000000; stroke-width:2; stroke-opacity:0.1; fill:none" points="
  2667.48,406.382 4752.76,406.382 
  "/>
<polyline clip-path="url(#clip0800)" style="stroke:#000000; stroke-width:4; stroke-opacity:1; fill:none" points="
  2667.48,2097.21 4752.76,2097.21 
  "/>
<polyline clip-path="url(#clip0800)" style="stroke:#000000; stroke-width:4; stroke-opacity:1; fill:none" points="
  2667.48,2097.21 2667.48,195.029 
  "/>
<polyline clip-path="url(#clip0800)" style="stroke:#000000; stroke-width:4; stroke-opacity:1; fill:none" points="
  2726.5,2097.21 2726.5,2074.38 
  "/>
<polyline clip-path="url(#clip0800)" style="stroke:#000000; stroke-width:4; stroke-opacity:1; fill:none" points="
  3218.31,2097.21 3218.31,2074.38 
  "/>
<polyline clip-path="url(#clip0800)" style="stroke:#000000; stroke-width:4; stroke-opacity:1; fill:none" points="
  3710.12,2097.21 3710.12,2074.38 
  "/>
<polyline clip-path="url(#clip0800)" style="stroke:#000000; stroke-width:4; stroke-opacity:1; fill:none" points="
  4201.93,2097.21 4201.93,2074.38 
  "/>
<polyline clip-path="url(#clip0800)" style="stroke:#000000; stroke-width:4; stroke-opacity:1; fill:none" points="
  4693.74,2097.21 4693.74,2074.38 
  "/>
<polyline clip-path="url(#clip0800)" style="stroke:#000000; stroke-width:4; stroke-opacity:1; fill:none" points="
  2667.48,2097.21 2692.51,2097.21 
  "/>
<polyline clip-path="url(#clip0800)" style="stroke:#000000; stroke-width:4; stroke-opacity:1; fill:none" points="
  2667.48,1674.5 2692.51,1674.5 
  "/>
<polyline clip-path="url(#clip0800)" style="stroke:#000000; stroke-width:4; stroke-opacity:1; fill:none" points="
  2667.48,1251.8 2692.51,1251.8 
  "/>
<polyline clip-path="url(#clip0800)" style="stroke:#000000; stroke-width:4; stroke-opacity:1; fill:none" points="
  2667.48,829.09 2692.51,829.09 
  "/>
<polyline clip-path="url(#clip0800)" style="stroke:#000000; stroke-width:4; stroke-opacity:1; fill:none" points="
  2667.48,406.382 2692.51,406.382 
  "/>
<g clip-path="url(#clip0800)">
<text style="fill:#000000; fill-opacity:1; font-family:Arial,Helvetica Neue,Helvetica,sans-serif; font-size:71px; text-anchor:middle;" transform="rotate(0, 2726.5, 2183.61)" x="2726.5" y="2183.61">0</text>
</g>
<g clip-path="url(#clip0800)">
<text style="fill:#000000; fill-opacity:1; font-family:Arial,Helvetica Neue,Helvetica,sans-serif; font-size:71px; text-anchor:middle;" transform="rotate(0, 3218.31, 2183.61)" x="3218.31" y="2183.61">2</text>
</g>
<g clip-path="url(#clip0800)">
<text style="fill:#000000; fill-opacity:1; font-family:Arial,Helvetica Neue,Helvetica,sans-serif; font-size:71px; text-anchor:middle;" transform="rotate(0, 3710.12, 2183.61)" x="3710.12" y="2183.61">4</text>
</g>
<g clip-path="url(#clip0800)">
<text style="fill:#000000; fill-opacity:1; font-family:Arial,Helvetica Neue,Helvetica,sans-serif; font-size:71px; text-anchor:middle;" transform="rotate(0, 4201.93, 2183.61)" x="4201.93" y="2183.61">6</text>
</g>
<g clip-path="url(#clip0800)">
<text style="fill:#000000; fill-opacity:1; font-family:Arial,Helvetica Neue,Helvetica,sans-serif; font-size:71px; text-anchor:middle;" transform="rotate(0, 4693.74, 2183.61)" x="4693.74" y="2183.61">8</text>
</g>
<g clip-path="url(#clip0800)">
<text style="fill:#000000; fill-opacity:1; font-family:Arial,Helvetica Neue,Helvetica,sans-serif; font-size:71px; text-anchor:end;" transform="rotate(0, 2619.48, 2123.21)" x="2619.48" y="2123.21">0</text>
</g>
<g clip-path="url(#clip0800)">
<text style="fill:#000000; fill-opacity:1; font-family:Arial,Helvetica Neue,Helvetica,sans-serif; font-size:71px; text-anchor:end;" transform="rotate(0, 2619.48, 1700.5)" x="2619.48" y="1700.5">1</text>
</g>
<g clip-path="url(#clip0800)">
<text style="fill:#000000; fill-opacity:1; font-family:Arial,Helvetica Neue,Helvetica,sans-serif; font-size:71px; text-anchor:end;" transform="rotate(0, 2619.48, 1277.8)" x="2619.48" y="1277.8">2</text>
</g>
<g clip-path="url(#clip0800)">
<text style="fill:#000000; fill-opacity:1; font-family:Arial,Helvetica Neue,Helvetica,sans-serif; font-size:71px; text-anchor:end;" transform="rotate(0, 2619.48, 855.09)" x="2619.48" y="855.09">3</text>
</g>
<g clip-path="url(#clip0800)">
<text style="fill:#000000; fill-opacity:1; font-family:Arial,Helvetica Neue,Helvetica,sans-serif; font-size:71px; text-anchor:end;" transform="rotate(0, 2619.48, 432.382)" x="2619.48" y="432.382">4</text>
</g>
<g clip-path="url(#clip0800)">
<text style="fill:#000000; fill-opacity:1; font-family:Arial,Helvetica Neue,Helvetica,sans-serif; font-size:125px; text-anchor:middle;" transform="rotate(0, 3710.12, 109.2)" x="3710.12" y="109.2">Normal patient 45 mcg (3 patients)</text>
</g>
<g clip-path="url(#clip0800)">
<text style="fill:#000000; fill-opacity:1; font-family:Arial,Helvetica Neue,Helvetica,sans-serif; font-size:95px; text-anchor:middle;" transform="rotate(0, 3710.12, 2307.46)" x="3710.12" y="2307.46">Time (hours)</text>
</g>
<g clip-path="url(#clip0800)">
<text style="fill:#000000; fill-opacity:1; font-family:Arial,Helvetica Neue,Helvetica,sans-serif; font-size:95px; text-anchor:middle;" transform="rotate(-90, 2513.54, 1146.12)" x="2513.54" y="1146.12">T3 mcg/L</text>
</g>
<path clip-path="url(#clip0803)" d="
M2726.5 1843.28 L2751.09 1823.96 L2775.68 1772.27 L2800.27 1707.64 L2824.86 1637.53 L2849.45 1565.66 L2874.04 1494.42 L2898.63 1425.49 L2923.22 1359.98 L2947.81 1298.73 
  L2972.41 1242.27 L2997 1190.78 L3021.59 1144.6 L3046.18 1103.74 L3070.77 1067.44 L3095.36 1036.31 L3119.95 1011.38 L3144.54 988.396 L3169.13 968.792 L3193.72 959.013 
  L3218.31 946.74 L3242.9 935.644 L3267.49 937.585 L3292.08 931.008 L3316.67 933.885 L3341.26 937.761 L3365.85 940.576 L3390.44 950.052 L3415.03 955.753 L3439.62 967.679 
  L3464.21 977.275 L3488.81 989.567 L3513.4 1002.71 L3537.99 1014.69 L3562.58 1030.4 L3587.17 1043.35 L3611.76 1058.99 L3636.35 1074.45 L3660.94 1088.21 L3685.53 1105.67 
  L3710.12 1119.58 L3734.71 1135.88 L3759.3 1151.94 L3783.89 1165.65 L3808.48 1183.05 L3833.07 1196.62 L3857.66 1212.43 L3882.25 1227.64 L3906.84 1240.77 L3931.43 1256.94 
  L3956.02 1269.42 L3980.61 1284.22 L4005.21 1297.88 L4029.8 1310.03 L4054.39 1324.57 L4078.98 1335.66 L4103.57 1349.12 L4128.16 1361.08 L4152.75 1372 L4177.34 1384.86 
  L4201.93 1394.48 L4226.52 1406.5 L4251.11 1416.82 L4275.7 1426.46 L4300.29 1437.7 L4324.88 1445.93 L4349.47 1456.55 L4374.06 1465.33 L4398.65 1473.79 L4423.24 1483.51 
  L4447.83 1490.49 L4472.42 1499.84 L4497.01 1507.22 L4521.61 1514.62 L4546.2 1522.98 L4570.79 1528.87 L4595.38 1537.07 L4619.97 1543.23 L4644.56 1549.67 L4669.15 1556.56 
  L4693.74 1562.14 L4693.74 1441.85 L4669.15 1434.85 L4644.56 1429.1 L4619.97 1421.11 L4595.38 1414.03 L4570.79 1406.89 L4546.2 1398.01 L4521.61 1391.3 L4497.01 1381.88 
  L4472.42 1373.94 L4447.83 1365.25 L4423.24 1355.25 L4398.65 1347.26 L4374.06 1336.24 L4349.47 1327.29 L4324.88 1316.84 L4300.29 1305.66 L4275.7 1296.13 L4251.11 1283.4 
  L4226.52 1273.28 L4201.93 1260.87 L4177.34 1248.49 L4152.75 1237.16 L4128.16 1222.7 L4103.57 1211.27 L4078.98 1196.78 L4054.39 1183.23 L4029.8 1169.95 L4005.21 1153.87 
  L3980.61 1141.04 L3956.02 1124.48 L3931.43 1109.95 L3906.84 1094.68 L3882.25 1077.35 L3857.66 1063.22 L3833.07 1044.82 L3808.48 1029.78 L3783.89 1012.81 L3759.3 994.925 
  L3734.71 979.9 L3710.12 960.579 L3685.53 945.533 L3660.94 928.023 L3636.35 910.563 L3611.76 895.677 L3587.17 877.249 L3562.58 863.269 L3537.99 847.18 L3513.4 832.145 
  L3488.81 819.409 L3464.21 804.297 L3439.62 794.522 L3415.03 781.839 L3390.44 773.918 L3365.85 765.76 L3341.26 758.89 L3316.67 757.753 L3292.08 751.271 L3267.49 759.034 
  L3242.9 758.545 L3218.31 767.105 L3193.72 781.928 L3169.13 791.398 L3144.54 812.242 L3119.95 837.115 L3095.36 863.133 L3070.77 896.476 L3046.18 935.393 L3021.59 978.962 
  L2997 1028.42 L2972.41 1083.64 L2947.81 1144.17 L2923.22 1209.92 L2898.63 1280.26 L2874.04 1354.3 L2849.45 1430.85 L2824.86 1508.09 L2800.27 1583.47 L2775.68 1653.01 
  L2751.09 1708.65 L2726.5 1728.92  Z
  " fill="#009af9" fill-rule="evenodd" fill-opacity="0.3"/>
<polyline clip-path="url(#clip0803)" style="stroke:#009af9; stroke-width:4; stroke-opacity:1; fill:none" points="
  2726.5,1786.1 2751.09,1766.31 2775.68,1712.64 2800.27,1645.55 2824.86,1572.81 2849.45,1498.26 2874.04,1424.36 2898.63,1352.87 2923.22,1284.95 2947.81,1221.45 
  2972.41,1162.96 2997,1109.6 3021.59,1061.78 3046.18,1019.56 3070.77,981.959 3095.36,949.72 3119.95,924.247 3144.54,900.319 3169.13,880.095 3193.72,870.47 
  3218.31,856.923 3242.9,847.095 3267.49,848.309 3292.08,841.139 3316.67,845.819 3341.26,848.326 3365.85,853.168 3390.44,861.985 3415.03,868.796 3439.62,881.101 
  3464.21,890.786 3488.81,904.488 3513.4,917.429 3537.99,930.934 3562.58,946.834 3587.17,960.298 3611.76,977.332 3636.35,992.506 3660.94,1008.11 3685.53,1025.6 
  3710.12,1040.08 3734.71,1057.89 3759.3,1073.43 3783.89,1089.23 3808.48,1106.41 3833.07,1120.72 3857.66,1137.83 3882.25,1152.49 3906.84,1167.72 3931.43,1183.44 
  3956.02,1196.95 3980.61,1212.63 4005.21,1225.87 4029.8,1239.99 4054.39,1253.9 4078.98,1266.22 4103.57,1280.19 4128.16,1291.89 4152.75,1304.58 4177.34,1316.68 
  4201.93,1327.67 4226.52,1339.89 4251.11,1350.11 4275.7,1361.29 4300.29,1371.68 4324.88,1381.38 4349.47,1391.92 4374.06,1400.79 4398.65,1410.52 4423.24,1419.38 
  4447.83,1427.87 4472.42,1436.89 4497.01,1444.55 4521.61,1452.96 4546.2,1460.49 4570.79,1467.88 4595.38,1475.55 4619.97,1482.17 4644.56,1489.38 4669.15,1495.7 
  4693.74,1501.99 
  "/>
<polyline clip-path="url(#clip0803)" style="stroke:#e26f46; stroke-width:4; stroke-opacity:1; fill:none" points="
  2726.5,1786.1 2849.45,1685.64 2972.41,1324.5 3218.31,852.057 3464.21,983.659 3710.12,1095.82 3956.02,1151.62 4201.93,1357.61 4447.83,1380.3 4693.74,1455.4 
  
  "/>
<polyline clip-path="url(#clip0803)" style="stroke:#e26f46; stroke-width:4; stroke-opacity:1; fill:none" points="
  2726.5,1843.28 2726.5,1728.92 
  "/>
<polyline clip-path="url(#clip0803)" style="stroke:#e26f46; stroke-width:4; stroke-opacity:1; fill:none" points="
  2849.45,1728.46 2849.45,1642.81 
  "/>
<polyline clip-path="url(#clip0803)" style="stroke:#e26f46; stroke-width:4; stroke-opacity:1; fill:none" points="
  2972.41,1624.52 2972.41,1024.49 
  "/>
<polyline clip-path="url(#clip0803)" style="stroke:#e26f46; stroke-width:4; stroke-opacity:1; fill:none" points="
  3218.31,1296.54 3218.31,407.573 
  "/>
<polyline clip-path="url(#clip0803)" style="stroke:#e26f46; stroke-width:4; stroke-opacity:1; fill:none" points="
  3464.21,1390.16 3464.21,577.161 
  "/>
<polyline clip-path="url(#clip0803)" style="stroke:#e26f46; stroke-width:4; stroke-opacity:1; fill:none" points="
  3710.12,1410.02 3710.12,781.62 
  "/>
<polyline clip-path="url(#clip0803)" style="stroke:#e26f46; stroke-width:4; stroke-opacity:1; fill:none" points="
  3956.02,1371.08 3956.02,932.15 
  "/>
<polyline clip-path="url(#clip0803)" style="stroke:#e26f46; stroke-width:4; stroke-opacity:1; fill:none" points="
  4201.93,1498.22 4201.93,1217.01 
  "/>
<polyline clip-path="url(#clip0803)" style="stroke:#e26f46; stroke-width:4; stroke-opacity:1; fill:none" points="
  4447.83,1541.21 4447.83,1219.39 
  "/>
<polyline clip-path="url(#clip0803)" style="stroke:#e26f46; stroke-width:4; stroke-opacity:1; fill:none" points="
  4693.74,1585.53 4693.74,1325.27 
  "/>
<line clip-path="url(#clip0803)" x1="2746.5" y1="1843.28" x2="2706.5" y2="1843.28" style="stroke:#000000; stroke-width:4; stroke-opacity:1"/>
<line clip-path="url(#clip0803)" x1="2746.5" y1="1728.92" x2="2706.5" y2="1728.92" style="stroke:#000000; stroke-width:4; stroke-opacity:1"/>
<line clip-path="url(#clip0803)" x1="2869.45" y1="1728.46" x2="2829.45" y2="1728.46" style="stroke:#000000; stroke-width:4; stroke-opacity:1"/>
<line clip-path="url(#clip0803)" x1="2869.45" y1="1642.81" x2="2829.45" y2="1642.81" style="stroke:#000000; stroke-width:4; stroke-opacity:1"/>
<line clip-path="url(#clip0803)" x1="2992.41" y1="1624.52" x2="2952.41" y2="1624.52" style="stroke:#000000; stroke-width:4; stroke-opacity:1"/>
<line clip-path="url(#clip0803)" x1="2992.41" y1="1024.49" x2="2952.41" y2="1024.49" style="stroke:#000000; stroke-width:4; stroke-opacity:1"/>
<line clip-path="url(#clip0803)" x1="3238.31" y1="1296.54" x2="3198.31" y2="1296.54" style="stroke:#000000; stroke-width:4; stroke-opacity:1"/>
<line clip-path="url(#clip0803)" x1="3238.31" y1="407.573" x2="3198.31" y2="407.573" style="stroke:#000000; stroke-width:4; stroke-opacity:1"/>
<line clip-path="url(#clip0803)" x1="3484.21" y1="1390.16" x2="3444.21" y2="1390.16" style="stroke:#000000; stroke-width:4; stroke-opacity:1"/>
<line clip-path="url(#clip0803)" x1="3484.21" y1="577.161" x2="3444.21" y2="577.161" style="stroke:#000000; stroke-width:4; stroke-opacity:1"/>
<line clip-path="url(#clip0803)" x1="3730.12" y1="1410.02" x2="3690.12" y2="1410.02" style="stroke:#000000; stroke-width:4; stroke-opacity:1"/>
<line clip-path="url(#clip0803)" x1="3730.12" y1="781.62" x2="3690.12" y2="781.62" style="stroke:#000000; stroke-width:4; stroke-opacity:1"/>
<line clip-path="url(#clip0803)" x1="3976.02" y1="1371.08" x2="3936.02" y2="1371.08" style="stroke:#000000; stroke-width:4; stroke-opacity:1"/>
<line clip-path="url(#clip0803)" x1="3976.02" y1="932.15" x2="3936.02" y2="932.15" style="stroke:#000000; stroke-width:4; stroke-opacity:1"/>
<line clip-path="url(#clip0803)" x1="4221.93" y1="1498.22" x2="4181.93" y2="1498.22" style="stroke:#000000; stroke-width:4; stroke-opacity:1"/>
<line clip-path="url(#clip0803)" x1="4221.93" y1="1217.01" x2="4181.93" y2="1217.01" style="stroke:#000000; stroke-width:4; stroke-opacity:1"/>
<line clip-path="url(#clip0803)" x1="4467.83" y1="1541.21" x2="4427.83" y2="1541.21" style="stroke:#000000; stroke-width:4; stroke-opacity:1"/>
<line clip-path="url(#clip0803)" x1="4467.83" y1="1219.39" x2="4427.83" y2="1219.39" style="stroke:#000000; stroke-width:4; stroke-opacity:1"/>
<line clip-path="url(#clip0803)" x1="4713.74" y1="1585.53" x2="4673.74" y2="1585.53" style="stroke:#000000; stroke-width:4; stroke-opacity:1"/>
<line clip-path="url(#clip0803)" x1="4713.74" y1="1325.27" x2="4673.74" y2="1325.27" style="stroke:#000000; stroke-width:4; stroke-opacity:1"/>
<path clip-path="url(#clip0800)" d="
M3803.78 664.469 L4608.76 664.469 L4608.76 392.309 L3803.78 392.309  Z
  " fill="#ffffff" fill-rule="evenodd" fill-opacity="1"/>
<polyline clip-path="url(#clip0800)" style="stroke:#000000; stroke-width:4; stroke-opacity:1; fill:none" points="
  3803.78,664.469 4608.76,664.469 4608.76,392.309 3803.78,392.309 3803.78,664.469 
  "/>
<polyline clip-path="url(#clip0800)" style="stroke:#009af9; stroke-width:4; stroke-opacity:1; fill:none" points="
  3851.78,483.029 4139.78,483.029 
  "/>
<g clip-path="url(#clip0800)">
<text style="fill:#000000; fill-opacity:1; font-family:Arial,Helvetica Neue,Helvetica,sans-serif; font-size:71px; text-anchor:start;" transform="rotate(0, 4187.78, 509.029)" x="4187.78" y="509.029">simulation</text>
</g>
<polyline clip-path="url(#clip0800)" style="stroke:#e26f46; stroke-width:4; stroke-opacity:1; fill:none" points="
  3851.78,573.749 4139.78,573.749 
  "/>
<g clip-path="url(#clip0800)">
<text style="fill:#000000; fill-opacity:1; font-family:Arial,Helvetica Neue,Helvetica,sans-serif; font-size:71px; text-anchor:start;" transform="rotate(0, 4187.78, 599.749)" x="4187.78" y="599.749">data</text>
</g>
<path clip-path="url(#clip0800)" d="
M267.483 4497.21 L2352.76 4497.21 L2352.76 2595.03 L267.483 2595.03  Z
  " fill="#ffffff" fill-rule="evenodd" fill-opacity="1"/>
<defs>
  <clipPath id="clip0804">
    <rect x="267" y="2595" width="2086" height="1903"/>
  </clipPath>
</defs>
<polyline clip-path="url(#clip0804)" style="stroke:#000000; stroke-width:2; stroke-opacity:0.1; fill:none" points="
  326.5,4497.21 326.5,2595.03 
  "/>
<polyline clip-path="url(#clip0804)" style="stroke:#000000; stroke-width:2; stroke-opacity:0.1; fill:none" points="
  818.31,4497.21 818.31,2595.03 
  "/>
<polyline clip-path="url(#clip0804)" style="stroke:#000000; stroke-width:2; stroke-opacity:0.1; fill:none" points="
  1310.12,4497.21 1310.12,2595.03 
  "/>
<polyline clip-path="url(#clip0804)" style="stroke:#000000; stroke-width:2; stroke-opacity:0.1; fill:none" points="
  1801.93,4497.21 1801.93,2595.03 
  "/>
<polyline clip-path="url(#clip0804)" style="stroke:#000000; stroke-width:2; stroke-opacity:0.1; fill:none" points="
  2293.74,4497.21 2293.74,2595.03 
  "/>
<polyline clip-path="url(#clip0804)" style="stroke:#000000; stroke-width:2; stroke-opacity:0.1; fill:none" points="
  267.483,4497.21 2352.76,4497.21 
  "/>
<polyline clip-path="url(#clip0804)" style="stroke:#000000; stroke-width:2; stroke-opacity:0.1; fill:none" points="
  267.483,4074.5 2352.76,4074.5 
  "/>
<polyline clip-path="url(#clip0804)" style="stroke:#000000; stroke-width:2; stroke-opacity:0.1; fill:none" points="
  267.483,3651.8 2352.76,3651.8 
  "/>
<polyline clip-path="url(#clip0804)" style="stroke:#000000; stroke-width:2; stroke-opacity:0.1; fill:none" points="
  267.483,3229.09 2352.76,3229.09 
  "/>
<polyline clip-path="url(#clip0804)" style="stroke:#000000; stroke-width:2; stroke-opacity:0.1; fill:none" points="
  267.483,2806.38 2352.76,2806.38 
  "/>
<polyline clip-path="url(#clip0800)" style="stroke:#000000; stroke-width:4; stroke-opacity:1; fill:none" points="
  267.483,4497.21 2352.76,4497.21 
  "/>
<polyline clip-path="url(#clip0800)" style="stroke:#000000; stroke-width:4; stroke-opacity:1; fill:none" points="
  267.483,4497.21 267.483,2595.03 
  "/>
<polyline clip-path="url(#clip0800)" style="stroke:#000000; stroke-width:4; stroke-opacity:1; fill:none" points="
  326.5,4497.21 326.5,4474.38 
  "/>
<polyline clip-path="url(#clip0800)" style="stroke:#000000; stroke-width:4; stroke-opacity:1; fill:none" points="
  818.31,4497.21 818.31,4474.38 
  "/>
<polyline clip-path="url(#clip0800)" style="stroke:#000000; stroke-width:4; stroke-opacity:1; fill:none" points="
  1310.12,4497.21 1310.12,4474.38 
  "/>
<polyline clip-path="url(#clip0800)" style="stroke:#000000; stroke-width:4; stroke-opacity:1; fill:none" points="
  1801.93,4497.21 1801.93,4474.38 
  "/>
<polyline clip-path="url(#clip0800)" style="stroke:#000000; stroke-width:4; stroke-opacity:1; fill:none" points="
  2293.74,4497.21 2293.74,4474.38 
  "/>
<polyline clip-path="url(#clip0800)" style="stroke:#000000; stroke-width:4; stroke-opacity:1; fill:none" points="
  267.483,4497.21 292.506,4497.21 
  "/>
<polyline clip-path="url(#clip0800)" style="stroke:#000000; stroke-width:4; stroke-opacity:1; fill:none" points="
  267.483,4074.5 292.506,4074.5 
  "/>
<polyline clip-path="url(#clip0800)" style="stroke:#000000; stroke-width:4; stroke-opacity:1; fill:none" points="
  267.483,3651.8 292.506,3651.8 
  "/>
<polyline clip-path="url(#clip0800)" style="stroke:#000000; stroke-width:4; stroke-opacity:1; fill:none" points="
  267.483,3229.09 292.506,3229.09 
  "/>
<polyline clip-path="url(#clip0800)" style="stroke:#000000; stroke-width:4; stroke-opacity:1; fill:none" points="
  267.483,2806.38 292.506,2806.38 
  "/>
<g clip-path="url(#clip0800)">
<text style="fill:#000000; fill-opacity:1; font-family:Arial,Helvetica Neue,Helvetica,sans-serif; font-size:71px; text-anchor:middle;" transform="rotate(0, 326.5, 4583.61)" x="326.5" y="4583.61">0</text>
</g>
<g clip-path="url(#clip0800)">
<text style="fill:#000000; fill-opacity:1; font-family:Arial,Helvetica Neue,Helvetica,sans-serif; font-size:71px; text-anchor:middle;" transform="rotate(0, 818.31, 4583.61)" x="818.31" y="4583.61">2</text>
</g>
<g clip-path="url(#clip0800)">
<text style="fill:#000000; fill-opacity:1; font-family:Arial,Helvetica Neue,Helvetica,sans-serif; font-size:71px; text-anchor:middle;" transform="rotate(0, 1310.12, 4583.61)" x="1310.12" y="4583.61">4</text>
</g>
<g clip-path="url(#clip0800)">
<text style="fill:#000000; fill-opacity:1; font-family:Arial,Helvetica Neue,Helvetica,sans-serif; font-size:71px; text-anchor:middle;" transform="rotate(0, 1801.93, 4583.61)" x="1801.93" y="4583.61">6</text>
</g>
<g clip-path="url(#clip0800)">
<text style="fill:#000000; fill-opacity:1; font-family:Arial,Helvetica Neue,Helvetica,sans-serif; font-size:71px; text-anchor:middle;" transform="rotate(0, 2293.74, 4583.61)" x="2293.74" y="4583.61">8</text>
</g>
<g clip-path="url(#clip0800)">
<text style="fill:#000000; fill-opacity:1; font-family:Arial,Helvetica Neue,Helvetica,sans-serif; font-size:71px; text-anchor:end;" transform="rotate(0, 219.483, 4523.21)" x="219.483" y="4523.21">0</text>
</g>
<g clip-path="url(#clip0800)">
<text style="fill:#000000; fill-opacity:1; font-family:Arial,Helvetica Neue,Helvetica,sans-serif; font-size:71px; text-anchor:end;" transform="rotate(0, 219.483, 4100.5)" x="219.483" y="4100.5">1</text>
</g>
<g clip-path="url(#clip0800)">
<text style="fill:#000000; fill-opacity:1; font-family:Arial,Helvetica Neue,Helvetica,sans-serif; font-size:71px; text-anchor:end;" transform="rotate(0, 219.483, 3677.8)" x="219.483" y="3677.8">2</text>
</g>
<g clip-path="url(#clip0800)">
<text style="fill:#000000; fill-opacity:1; font-family:Arial,Helvetica Neue,Helvetica,sans-serif; font-size:71px; text-anchor:end;" transform="rotate(0, 219.483, 3255.09)" x="219.483" y="3255.09">3</text>
</g>
<g clip-path="url(#clip0800)">
<text style="fill:#000000; fill-opacity:1; font-family:Arial,Helvetica Neue,Helvetica,sans-serif; font-size:71px; text-anchor:end;" transform="rotate(0, 219.483, 2832.38)" x="219.483" y="2832.38">4</text>
</g>
<g clip-path="url(#clip0800)">
<text style="fill:#000000; fill-opacity:1; font-family:Arial,Helvetica Neue,Helvetica,sans-serif; font-size:125px; text-anchor:middle;" transform="rotate(0, 1310.12, 2509.2)" x="1310.12" y="2509.2">Overweight patient 30 mcg (2 patients)</text>
</g>
<g clip-path="url(#clip0800)">
<text style="fill:#000000; fill-opacity:1; font-family:Arial,Helvetica Neue,Helvetica,sans-serif; font-size:95px; text-anchor:middle;" transform="rotate(0, 1310.12, 4707.46)" x="1310.12" y="4707.46">Time (hours)</text>
</g>
<g clip-path="url(#clip0800)">
<text style="fill:#000000; fill-opacity:1; font-family:Arial,Helvetica Neue,Helvetica,sans-serif; font-size:95px; text-anchor:middle;" transform="rotate(-90, 113.54, 3546.12)" x="113.54" y="3546.12">T3 mcg/L</text>
</g>
<path clip-path="url(#clip0804)" d="
M326.5 4158.12 L351.091 4144.51 L375.681 4106.76 L400.272 4059.63 L424.862 4008.57 L449.453 3956.28 L474.043 3904.51 L498.634 3854.43 L523.224 3806.91 L547.815 3762.45 
  L572.405 3722.53 L596.996 3695.26 L621.586 3670.83 L646.177 3649.95 L670.767 3631.05 L695.357 3614.44 L719.948 3603.15 L744.538 3591.43 L769.129 3580.58 L793.719 3578.36 
  L818.31 3570.37 L842.9 3568.6 L867.491 3568.85 L892.081 3566.29 L916.672 3571.21 L941.262 3571.37 L965.853 3577.79 L990.443 3581.32 L1015.03 3588.03 L1039.62 3594.41 
  L1064.21 3600.93 L1088.81 3609.72 L1113.4 3616.16 L1137.99 3626.31 L1162.58 3633.96 L1187.17 3643.36 L1211.76 3653.05 L1236.35 3660.78 L1260.94 3672.17 L1285.53 3679.91 
  L1310.12 3690.59 L1334.71 3699.86 L1359.3 3708.23 L1383.89 3718.1 L1408.48 3727.83 L1433.07 3737.36 L1457.66 3746.08 L1482.25 3755.13 L1506.84 3763.49 L1531.43 3772.17 
  L1556.02 3780.66 L1580.61 3788.84 L1605.21 3797.3 L1629.8 3804.96 L1654.39 3812.96 L1678.98 3820.45 L1703.57 3827.82 L1728.16 3835.26 L1752.75 3842.05 L1777.34 3849.19 
  L1801.93 3855.7 L1826.52 3862.27 L1851.11 3868.71 L1875.7 3874.68 L1900.29 3880.96 L1924.88 3886.55 L1949.47 3892.35 L1974.06 3897.86 L1998.65 3903.6 L2023.24 3908.6 
  L2047.83 3916.29 L2072.42 3921.17 L2097.01 3927.59 L2121.61 3933.42 L2146.2 3937.97 L2170.79 3944.59 L2195.38 3948.43 L2219.97 3954.45 L2244.56 3959.02 L2269.15 3963.15 
  L2293.74 3968.1 L2293.74 3956.65 L2269.15 3952.95 L2244.56 3948.97 L2219.97 3944.92 L2195.38 3940.98 L2170.79 3936.51 L2146.2 3932.37 L2121.61 3927.71 L2097.01 3923.11 
  L2072.42 3918.45 L2047.83 3913.34 L2023.24 3908.54 L1998.65 3903.1 L1974.06 3896.35 L1949.47 3889.55 L1924.88 3883.35 L1900.29 3874.74 L1875.7 3868.95 L1851.11 3860.19 
  L1826.52 3852.98 L1801.93 3845.25 L1777.34 3835.87 L1752.75 3828.96 L1728.16 3818.71 L1703.57 3811 L1678.98 3801.58 L1654.39 3791.62 L1629.8 3783.33 L1605.21 3771.75 
  L1580.61 3763.45 L1556.02 3752.3 L1531.43 3742 L1506.84 3732.17 L1482.25 3719.67 L1457.66 3710.64 L1433.07 3697.87 L1408.48 3687.68 L1383.89 3676.48 L1359.3 3663.94 
  L1334.71 3654.07 L1310.12 3640.43 L1285.53 3630.77 L1260.94 3618.48 L1236.35 3606.8 L1211.76 3596.74 L1187.17 3583.79 L1162.58 3574.85 L1137.99 3563.4 L1113.4 3553.58 
  L1088.81 3544.71 L1064.21 3534.3 L1039.62 3527.92 L1015.03 3518.8 L990.443 3513.95 L965.853 3507.74 L941.262 3503.77 L916.672 3502.14 L892.081 3498.22 L867.491 3503.35 
  L842.9 3501.35 L818.31 3509.88 L793.719 3517.65 L769.129 3524.07 L744.538 3539.85 L719.948 3555.13 L695.357 3572.58 L670.767 3595.7 L646.177 3621.67 L621.586 3650.84 
  L596.996 3684.38 L572.405 3721.62 L547.815 3752.45 L523.224 3785.17 L498.634 3820.22 L474.043 3857.2 L449.453 3895.48 L424.862 3934.12 L400.272 3971.78 L375.681 4006.37 
  L351.091 4033.45 L326.5 4040.35  Z
  " fill="#009af9" fill-rule="evenodd" fill-opacity="0.3"/>
<polyline clip-path="url(#clip0804)" style="stroke:#009af9; stroke-width:4; stroke-opacity:1; fill:none" points="
  326.5,4099.23 351.091,4088.98 375.681,4056.57 400.272,4015.7 424.862,3971.35 449.453,3925.88 474.043,3880.86 498.634,3837.33 523.224,3796.04 547.815,3757.45 
  572.405,3722.07 596.996,3689.82 621.586,3660.84 646.177,3635.81 670.767,3613.37 695.357,3593.51 719.948,3579.14 744.538,3565.64 769.129,3552.32 793.719,3548.01 
  818.31,3540.13 842.9,3534.98 867.491,3536.1 892.081,3532.26 916.672,3536.67 941.262,3537.57 965.853,3542.77 990.443,3547.64 1015.03,3553.42 1039.62,3561.16 
  1064.21,3567.62 1088.81,3577.21 1113.4,3584.87 1137.99,3594.85 1162.58,3604.4 1187.17,3613.57 1211.76,3624.9 1236.35,3633.79 1260.94,3645.33 1285.53,3655.34 
  1310.12,3665.51 1334.71,3676.96 1359.3,3686.08 1383.89,3697.29 1408.48,3707.76 1433.07,3717.62 1457.66,3728.36 1482.25,3737.4 1506.84,3747.83 1531.43,3757.09 
  1556.02,3766.48 1580.61,3776.14 1605.21,3784.52 1629.8,3794.14 1654.39,3802.29 1678.98,3811.02 1703.57,3819.41 1728.16,3826.99 1752.75,3835.51 1777.34,3842.53 
  1801.93,3850.47 1826.52,3857.62 1851.11,3864.45 1875.7,3871.82 1900.29,3877.85 1924.88,3884.95 1949.47,3890.95 1974.06,3897.1 1998.65,3903.35 2023.24,3908.57 
  2047.83,3914.82 2072.42,3919.81 2097.01,3925.35 2121.61,3930.57 2146.2,3935.17 2170.79,3940.55 2195.38,3944.7 2219.97,3949.68 2244.56,3953.99 2269.15,3958.05 
  2293.74,3962.37 
  "/>
<polyline clip-path="url(#clip0804)" style="stroke:#e26f46; stroke-width:4; stroke-opacity:1; fill:none" points="
  326.5,4099.23 449.453,4023.99 572.405,3910.49 818.31,3746.91 1064.21,3798.26 1310.12,3848.99 1556.02,3890.84 1801.93,3982.56 2047.83,4043.01 2293.74,4006.66 
  
  "/>
<polyline clip-path="url(#clip0804)" style="stroke:#e26f46; stroke-width:4; stroke-opacity:1; fill:none" points="
  326.5,4301.11 326.5,3897.35 
  "/>
<polyline clip-path="url(#clip0804)" style="stroke:#e26f46; stroke-width:4; stroke-opacity:1; fill:none" points="
  449.453,4318.45 449.453,3729.53 
  "/>
<polyline clip-path="url(#clip0804)" style="stroke:#e26f46; stroke-width:4; stroke-opacity:1; fill:none" points="
  572.405,4297.91 572.405,3523.07 
  "/>
<polyline clip-path="url(#clip0804)" style="stroke:#e26f46; stroke-width:4; stroke-opacity:1; fill:none" points="
  818.31,4043.85 818.31,3449.96 
  "/>
<polyline clip-path="url(#clip0804)" style="stroke:#e26f46; stroke-width:4; stroke-opacity:1; fill:none" points="
  1064.21,4115.7 1064.21,3480.83 
  "/>
<polyline clip-path="url(#clip0804)" style="stroke:#e26f46; stroke-width:4; stroke-opacity:1; fill:none" points="
  1310.12,4120.21 1310.12,3577.77 
  "/>
<polyline clip-path="url(#clip0804)" style="stroke:#e26f46; stroke-width:4; stroke-opacity:1; fill:none" points="
  1556.02,4157.07 1556.02,3624.61 
  "/>
<polyline clip-path="url(#clip0804)" style="stroke:#e26f46; stroke-width:4; stroke-opacity:1; fill:none" points="
  1801.93,4243.23 1801.93,3721.9 
  "/>
<polyline clip-path="url(#clip0804)" style="stroke:#e26f46; stroke-width:4; stroke-opacity:1; fill:none" points="
  2047.83,4307.33 2047.83,3778.69 
  "/>
<polyline clip-path="url(#clip0804)" style="stroke:#e26f46; stroke-width:4; stroke-opacity:1; fill:none" points="
  2293.74,4289.79 2293.74,3723.53 
  "/>
<line clip-path="url(#clip0804)" x1="346.5" y1="4301.11" x2="306.5" y2="4301.11" style="stroke:#000000; stroke-width:4; stroke-opacity:1"/>
<line clip-path="url(#clip0804)" x1="346.5" y1="3897.35" x2="306.5" y2="3897.35" style="stroke:#000000; stroke-width:4; stroke-opacity:1"/>
<line clip-path="url(#clip0804)" x1="469.453" y1="4318.45" x2="429.453" y2="4318.45" style="stroke:#000000; stroke-width:4; stroke-opacity:1"/>
<line clip-path="url(#clip0804)" x1="469.453" y1="3729.53" x2="429.453" y2="3729.53" style="stroke:#000000; stroke-width:4; stroke-opacity:1"/>
<line clip-path="url(#clip0804)" x1="592.405" y1="4297.91" x2="552.405" y2="4297.91" style="stroke:#000000; stroke-width:4; stroke-opacity:1"/>
<line clip-path="url(#clip0804)" x1="592.405" y1="3523.07" x2="552.405" y2="3523.07" style="stroke:#000000; stroke-width:4; stroke-opacity:1"/>
<line clip-path="url(#clip0804)" x1="838.31" y1="4043.85" x2="798.31" y2="4043.85" style="stroke:#000000; stroke-width:4; stroke-opacity:1"/>
<line clip-path="url(#clip0804)" x1="838.31" y1="3449.96" x2="798.31" y2="3449.96" style="stroke:#000000; stroke-width:4; stroke-opacity:1"/>
<line clip-path="url(#clip0804)" x1="1084.21" y1="4115.7" x2="1044.21" y2="4115.7" style="stroke:#000000; stroke-width:4; stroke-opacity:1"/>
<line clip-path="url(#clip0804)" x1="1084.21" y1="3480.83" x2="1044.21" y2="3480.83" style="stroke:#000000; stroke-width:4; stroke-opacity:1"/>
<line clip-path="url(#clip0804)" x1="1330.12" y1="4120.21" x2="1290.12" y2="4120.21" style="stroke:#000000; stroke-width:4; stroke-opacity:1"/>
<line clip-path="url(#clip0804)" x1="1330.12" y1="3577.77" x2="1290.12" y2="3577.77" style="stroke:#000000; stroke-width:4; stroke-opacity:1"/>
<line clip-path="url(#clip0804)" x1="1576.02" y1="4157.07" x2="1536.02" y2="4157.07" style="stroke:#000000; stroke-width:4; stroke-opacity:1"/>
<line clip-path="url(#clip0804)" x1="1576.02" y1="3624.61" x2="1536.02" y2="3624.61" style="stroke:#000000; stroke-width:4; stroke-opacity:1"/>
<line clip-path="url(#clip0804)" x1="1821.93" y1="4243.23" x2="1781.93" y2="4243.23" style="stroke:#000000; stroke-width:4; stroke-opacity:1"/>
<line clip-path="url(#clip0804)" x1="1821.93" y1="3721.9" x2="1781.93" y2="3721.9" style="stroke:#000000; stroke-width:4; stroke-opacity:1"/>
<line clip-path="url(#clip0804)" x1="2067.83" y1="4307.33" x2="2027.83" y2="4307.33" style="stroke:#000000; stroke-width:4; stroke-opacity:1"/>
<line clip-path="url(#clip0804)" x1="2067.83" y1="3778.69" x2="2027.83" y2="3778.69" style="stroke:#000000; stroke-width:4; stroke-opacity:1"/>
<line clip-path="url(#clip0804)" x1="2313.74" y1="4289.79" x2="2273.74" y2="4289.79" style="stroke:#000000; stroke-width:4; stroke-opacity:1"/>
<line clip-path="url(#clip0804)" x1="2313.74" y1="3723.53" x2="2273.74" y2="3723.53" style="stroke:#000000; stroke-width:4; stroke-opacity:1"/>
<path clip-path="url(#clip0800)" d="
M1403.78 3064.47 L2208.76 3064.47 L2208.76 2792.31 L1403.78 2792.31  Z
  " fill="#ffffff" fill-rule="evenodd" fill-opacity="1"/>
<polyline clip-path="url(#clip0800)" style="stroke:#000000; stroke-width:4; stroke-opacity:1; fill:none" points="
  1403.78,3064.47 2208.76,3064.47 2208.76,2792.31 1403.78,2792.31 1403.78,3064.47 
  "/>
<polyline clip-path="url(#clip0800)" style="stroke:#009af9; stroke-width:4; stroke-opacity:1; fill:none" points="
  1451.78,2883.03 1739.78,2883.03 
  "/>
<g clip-path="url(#clip0800)">
<text style="fill:#000000; fill-opacity:1; font-family:Arial,Helvetica Neue,Helvetica,sans-serif; font-size:71px; text-anchor:start;" transform="rotate(0, 1787.78, 2909.03)" x="1787.78" y="2909.03">simulation</text>
</g>
<polyline clip-path="url(#clip0800)" style="stroke:#e26f46; stroke-width:4; stroke-opacity:1; fill:none" points="
  1451.78,2973.75 1739.78,2973.75 
  "/>
<g clip-path="url(#clip0800)">
<text style="fill:#000000; fill-opacity:1; font-family:Arial,Helvetica Neue,Helvetica,sans-serif; font-size:71px; text-anchor:start;" transform="rotate(0, 1787.78, 2999.75)" x="1787.78" y="2999.75">data</text>
</g>
<path clip-path="url(#clip0800)" d="
M2667.48 4497.21 L4752.76 4497.21 L4752.76 2595.03 L2667.48 2595.03  Z
  " fill="#ffffff" fill-rule="evenodd" fill-opacity="1"/>
<defs>
  <clipPath id="clip0805">
    <rect x="2667" y="2595" width="2086" height="1903"/>
  </clipPath>
</defs>
<polyline clip-path="url(#clip0805)" style="stroke:#000000; stroke-width:2; stroke-opacity:0.1; fill:none" points="
  2726.5,4497.21 2726.5,2595.03 
  "/>
<polyline clip-path="url(#clip0805)" style="stroke:#000000; stroke-width:2; stroke-opacity:0.1; fill:none" points="
  3218.31,4497.21 3218.31,2595.03 
  "/>
<polyline clip-path="url(#clip0805)" style="stroke:#000000; stroke-width:2; stroke-opacity:0.1; fill:none" points="
  3710.12,4497.21 3710.12,2595.03 
  "/>
<polyline clip-path="url(#clip0805)" style="stroke:#000000; stroke-width:2; stroke-opacity:0.1; fill:none" points="
  4201.93,4497.21 4201.93,2595.03 
  "/>
<polyline clip-path="url(#clip0805)" style="stroke:#000000; stroke-width:2; stroke-opacity:0.1; fill:none" points="
  4693.74,4497.21 4693.74,2595.03 
  "/>
<polyline clip-path="url(#clip0805)" style="stroke:#000000; stroke-width:2; stroke-opacity:0.1; fill:none" points="
  2667.48,4497.21 4752.76,4497.21 
  "/>
<polyline clip-path="url(#clip0805)" style="stroke:#000000; stroke-width:2; stroke-opacity:0.1; fill:none" points="
  2667.48,4074.5 4752.76,4074.5 
  "/>
<polyline clip-path="url(#clip0805)" style="stroke:#000000; stroke-width:2; stroke-opacity:0.1; fill:none" points="
  2667.48,3651.8 4752.76,3651.8 
  "/>
<polyline clip-path="url(#clip0805)" style="stroke:#000000; stroke-width:2; stroke-opacity:0.1; fill:none" points="
  2667.48,3229.09 4752.76,3229.09 
  "/>
<polyline clip-path="url(#clip0805)" style="stroke:#000000; stroke-width:2; stroke-opacity:0.1; fill:none" points="
  2667.48,2806.38 4752.76,2806.38 
  "/>
<polyline clip-path="url(#clip0800)" style="stroke:#000000; stroke-width:4; stroke-opacity:1; fill:none" points="
  2667.48,4497.21 4752.76,4497.21 
  "/>
<polyline clip-path="url(#clip0800)" style="stroke:#000000; stroke-width:4; stroke-opacity:1; fill:none" points="
  2667.48,4497.21 2667.48,2595.03 
  "/>
<polyline clip-path="url(#clip0800)" style="stroke:#000000; stroke-width:4; stroke-opacity:1; fill:none" points="
  2726.5,4497.21 2726.5,4474.38 
  "/>
<polyline clip-path="url(#clip0800)" style="stroke:#000000; stroke-width:4; stroke-opacity:1; fill:none" points="
  3218.31,4497.21 3218.31,4474.38 
  "/>
<polyline clip-path="url(#clip0800)" style="stroke:#000000; stroke-width:4; stroke-opacity:1; fill:none" points="
  3710.12,4497.21 3710.12,4474.38 
  "/>
<polyline clip-path="url(#clip0800)" style="stroke:#000000; stroke-width:4; stroke-opacity:1; fill:none" points="
  4201.93,4497.21 4201.93,4474.38 
  "/>
<polyline clip-path="url(#clip0800)" style="stroke:#000000; stroke-width:4; stroke-opacity:1; fill:none" points="
  4693.74,4497.21 4693.74,4474.38 
  "/>
<polyline clip-path="url(#clip0800)" style="stroke:#000000; stroke-width:4; stroke-opacity:1; fill:none" points="
  2667.48,4497.21 2692.51,4497.21 
  "/>
<polyline clip-path="url(#clip0800)" style="stroke:#000000; stroke-width:4; stroke-opacity:1; fill:none" points="
  2667.48,4074.5 2692.51,4074.5 
  "/>
<polyline clip-path="url(#clip0800)" style="stroke:#000000; stroke-width:4; stroke-opacity:1; fill:none" points="
  2667.48,3651.8 2692.51,3651.8 
  "/>
<polyline clip-path="url(#clip0800)" style="stroke:#000000; stroke-width:4; stroke-opacity:1; fill:none" points="
  2667.48,3229.09 2692.51,3229.09 
  "/>
<polyline clip-path="url(#clip0800)" style="stroke:#000000; stroke-width:4; stroke-opacity:1; fill:none" points="
  2667.48,2806.38 2692.51,2806.38 
  "/>
<g clip-path="url(#clip0800)">
<text style="fill:#000000; fill-opacity:1; font-family:Arial,Helvetica Neue,Helvetica,sans-serif; font-size:71px; text-anchor:middle;" transform="rotate(0, 2726.5, 4583.61)" x="2726.5" y="4583.61">0</text>
</g>
<g clip-path="url(#clip0800)">
<text style="fill:#000000; fill-opacity:1; font-family:Arial,Helvetica Neue,Helvetica,sans-serif; font-size:71px; text-anchor:middle;" transform="rotate(0, 3218.31, 4583.61)" x="3218.31" y="4583.61">2</text>
</g>
<g clip-path="url(#clip0800)">
<text style="fill:#000000; fill-opacity:1; font-family:Arial,Helvetica Neue,Helvetica,sans-serif; font-size:71px; text-anchor:middle;" transform="rotate(0, 3710.12, 4583.61)" x="3710.12" y="4583.61">4</text>
</g>
<g clip-path="url(#clip0800)">
<text style="fill:#000000; fill-opacity:1; font-family:Arial,Helvetica Neue,Helvetica,sans-serif; font-size:71px; text-anchor:middle;" transform="rotate(0, 4201.93, 4583.61)" x="4201.93" y="4583.61">6</text>
</g>
<g clip-path="url(#clip0800)">
<text style="fill:#000000; fill-opacity:1; font-family:Arial,Helvetica Neue,Helvetica,sans-serif; font-size:71px; text-anchor:middle;" transform="rotate(0, 4693.74, 4583.61)" x="4693.74" y="4583.61">8</text>
</g>
<g clip-path="url(#clip0800)">
<text style="fill:#000000; fill-opacity:1; font-family:Arial,Helvetica Neue,Helvetica,sans-serif; font-size:71px; text-anchor:end;" transform="rotate(0, 2619.48, 4523.21)" x="2619.48" y="4523.21">0</text>
</g>
<g clip-path="url(#clip0800)">
<text style="fill:#000000; fill-opacity:1; font-family:Arial,Helvetica Neue,Helvetica,sans-serif; font-size:71px; text-anchor:end;" transform="rotate(0, 2619.48, 4100.5)" x="2619.48" y="4100.5">1</text>
</g>
<g clip-path="url(#clip0800)">
<text style="fill:#000000; fill-opacity:1; font-family:Arial,Helvetica Neue,Helvetica,sans-serif; font-size:71px; text-anchor:end;" transform="rotate(0, 2619.48, 3677.8)" x="2619.48" y="3677.8">2</text>
</g>
<g clip-path="url(#clip0800)">
<text style="fill:#000000; fill-opacity:1; font-family:Arial,Helvetica Neue,Helvetica,sans-serif; font-size:71px; text-anchor:end;" transform="rotate(0, 2619.48, 3255.09)" x="2619.48" y="3255.09">3</text>
</g>
<g clip-path="url(#clip0800)">
<text style="fill:#000000; fill-opacity:1; font-family:Arial,Helvetica Neue,Helvetica,sans-serif; font-size:71px; text-anchor:end;" transform="rotate(0, 2619.48, 2832.38)" x="2619.48" y="2832.38">4</text>
</g>
<g clip-path="url(#clip0800)">
<text style="fill:#000000; fill-opacity:1; font-family:Arial,Helvetica Neue,Helvetica,sans-serif; font-size:125px; text-anchor:middle;" transform="rotate(0, 3710.12, 2509.2)" x="3710.12" y="2509.2">Overweight patient 45 mcg (4 patients)</text>
</g>
<g clip-path="url(#clip0800)">
<text style="fill:#000000; fill-opacity:1; font-family:Arial,Helvetica Neue,Helvetica,sans-serif; font-size:95px; text-anchor:middle;" transform="rotate(0, 3710.12, 4707.46)" x="3710.12" y="4707.46">Time (hours)</text>
</g>
<g clip-path="url(#clip0800)">
<text style="fill:#000000; fill-opacity:1; font-family:Arial,Helvetica Neue,Helvetica,sans-serif; font-size:95px; text-anchor:middle;" transform="rotate(-90, 2513.54, 3546.12)" x="2513.54" y="3546.12">T3 mcg/L</text>
</g>
<path clip-path="url(#clip0805)" d="
M2726.5 4168.14 L2751.09 4149.43 L2775.68 4095.09 L2800.27 4026.48 L2824.86 3951.82 L2849.45 3875.18 L2874.04 3799.14 L2898.63 3725.54 L2923.22 3655.59 L2947.81 3590.2 
  L2972.41 3529.93 L2997 3475 L3021.59 3425.8 L3046.18 3382.21 L3070.77 3343.64 L3095.36 3310.72 L3119.95 3284.14 L3144.54 3259.91 L3169.13 3239.34 L3193.72 3229.26 
  L3218.31 3216.98 L3242.9 3204.13 L3267.49 3207.89 L3292.08 3201.3 L3316.67 3203.63 L3341.26 3209.81 L3365.85 3211.55 L3390.44 3223.42 L3415.03 3229.26 L3439.62 3242.8 
  L3464.21 3253.93 L3488.81 3266.88 L3513.4 3282.25 L3537.99 3294.69 L3562.58 3312.56 L3587.17 3327 L3611.76 3343.62 L3636.35 3361.61 L3660.94 3375.7 L3685.53 3395.59 
  L3710.12 3411.08 L3734.71 3428.19 L3759.3 3447.07 L3783.89 3460.84 L3808.48 3480.79 L3833.07 3495.77 L3857.66 3511.91 L3882.25 3530.26 L3906.84 3543.9 L3931.43 3561.9 
  L3956.02 3576.25 L3980.61 3591.24 L4005.21 3607.54 L4029.8 3619.8 L4054.39 3636.27 L4078.98 3648.89 L4103.57 3662.73 L4128.16 3677.16 L4152.75 3688.01 L4177.34 3702.82 
  L4201.93 3713.6 L4226.52 3726.04 L4251.11 3738.57 L4275.7 3748.04 L4300.29 3761.2 L4324.88 3770.27 L4349.47 3781.38 L4374.06 3792.08 L4398.65 3800.3 L4423.24 3811.89 
  L4447.83 3819.44 L4472.42 3829.32 L4497.01 3838.36 L4521.61 3845.51 L4546.2 3855.62 L4570.79 3861.88 L4595.38 3870.65 L4619.97 3878.22 L4644.56 3884.42 L4669.15 3892.71 
  L4693.74 3899.01 L4693.74 3778.73 L4669.15 3770.99 L4644.56 3763.84 L4619.97 3756.1 L4595.38 3747.62 L4570.79 3739.9 L4546.2 3730.65 L4521.61 3722.19 L4497.01 3713.02 
  L4472.42 3703.42 L4447.83 3694.21 L4423.24 3683.63 L4398.65 3673.78 L4374.06 3663 L4349.47 3652.12 L4324.88 3641.18 L4300.29 3629.17 L4275.7 3617.7 L4251.11 3605.15 
  L4226.52 3592.83 L4201.93 3579.99 L4177.34 3566.45 L4152.75 3553.18 L4128.16 3538.78 L4103.57 3524.88 L4078.98 3510.02 L4054.39 3494.93 L4029.8 3479.71 L4005.21 3463.53 
  L3980.61 3448.06 L3956.02 3431.31 L3931.43 3414.92 L3906.84 3397.81 L3882.25 3379.97 L3857.66 3362.7 L3833.07 3343.98 L3808.48 3327.52 L3783.89 3308 L3759.3 3290.05 
  L3734.71 3272.21 L3710.12 3252.08 L3685.53 3235.46 L3660.94 3215.51 L3636.35 3197.73 L3611.76 3180.31 L3587.17 3160.91 L3562.58 3145.43 L3537.99 3127.18 L3513.4 3111.68 
  L3488.81 3096.72 L3464.21 3080.96 L3439.62 3069.65 L3415.03 3055.35 L3390.44 3047.29 L3365.85 3036.74 L3341.26 3030.94 L3316.67 3027.5 L3292.08 3021.56 L3267.49 3029.34 
  L3242.9 3027.03 L3218.31 3037.35 L3193.72 3052.17 L3169.13 3061.95 L3144.54 3083.75 L3119.95 3109.88 L3095.36 3137.55 L3070.77 3172.68 L3046.18 3213.86 L3021.59 3260.16 
  L2997 3312.64 L2972.41 3371.3 L2947.81 3435.64 L2923.22 3505.53 L2898.63 3580.32 L2874.04 3659.02 L2849.45 3740.37 L2824.86 3822.39 L2800.27 3902.31 L2775.68 3975.83 
  L2751.09 4034.12 L2726.5 4053.78  Z
  " fill="#009af9" fill-rule="evenodd" fill-opacity="0.3"/>
<polyline clip-path="url(#clip0805)" style="stroke:#009af9; stroke-width:4; stroke-opacity:1; fill:none" points="
  2726.5,4110.96 2751.09,4091.77 2775.68,4035.46 2800.27,3964.4 2824.86,3887.1 2849.45,3807.78 2874.04,3729.08 2898.63,3652.93 2923.22,3580.56 2947.81,3512.92 
  2972.41,3450.62 2997,3393.82 3021.59,3342.98 3046.18,3298.04 3070.77,3258.16 3095.36,3224.14 3119.95,3197.01 3144.54,3171.83 3169.13,3150.64 3193.72,3140.71 
  3218.31,3127.17 3242.9,3115.58 3267.49,3118.61 3292.08,3111.43 3316.67,3115.56 3341.26,3120.38 3365.85,3124.15 3390.44,3135.36 3415.03,3142.31 3439.62,3156.23 
  3464.21,3167.45 3488.81,3181.8 3513.4,3196.97 3537.99,3210.94 3562.58,3228.99 3587.17,3243.95 3611.76,3261.97 3636.35,3279.67 3660.94,3295.61 3685.53,3315.52 
  3710.12,3331.58 3734.71,3350.2 3759.3,3368.56 3783.89,3384.42 3808.48,3404.16 3833.07,3419.88 3857.66,3437.31 3882.25,3455.11 3906.84,3470.86 3931.43,3488.41 
  3956.02,3503.78 3980.61,3519.65 4005.21,3535.54 4029.8,3549.75 4054.39,3565.6 4078.98,3579.46 4103.57,3593.8 4128.16,3607.97 4152.75,3620.6 4177.34,3634.64 
  4201.93,3646.8 4226.52,3659.44 4251.11,3671.86 4275.7,3682.87 4300.29,3695.18 4324.88,3705.73 4349.47,3716.75 4374.06,3727.54 4398.65,3737.04 4423.24,3747.76 
  4447.83,3756.82 4472.42,3766.37 4497.01,3775.69 4521.61,3783.85 4546.2,3793.13 4570.79,3800.89 4595.38,3809.14 4619.97,3817.16 4644.56,3824.13 4669.15,3831.85 
  4693.74,3838.87 
  "/>
<polyline clip-path="url(#clip0805)" style="stroke:#e26f46; stroke-width:4; stroke-opacity:1; fill:none" points="
  2726.5,4110.96 2849.45,3976.86 2972.41,3304.44 3218.31,2885.01 3464.21,3115.28 3710.12,3263.22 3956.02,3494.66 4201.93,3617.35 4447.83,3727.67 4693.74,3817.92 
  
  "/>
<polyline clip-path="url(#clip0805)" style="stroke:#e26f46; stroke-width:4; stroke-opacity:1; fill:none" points="
  2726.5,4168.14 2726.5,4053.78 
  "/>
<polyline clip-path="url(#clip0805)" style="stroke:#e26f46; stroke-width:4; stroke-opacity:1; fill:none" points="
  2849.45,4019.69 2849.45,3934.03 
  "/>
<polyline clip-path="url(#clip0805)" style="stroke:#e26f46; stroke-width:4; stroke-opacity:1; fill:none" points="
  2972.41,3604.45 2972.41,3004.42 
  "/>
<polyline clip-path="url(#clip0805)" style="stroke:#e26f46; stroke-width:4; stroke-opacity:1; fill:none" points="
  3218.31,3329.49 3218.31,2440.52 
  "/>
<polyline clip-path="url(#clip0805)" style="stroke:#e26f46; stroke-width:4; stroke-opacity:1; fill:none" points="
  3464.21,3521.77 3464.21,2708.78 
  "/>
<polyline clip-path="url(#clip0805)" style="stroke:#e26f46; stroke-width:4; stroke-opacity:1; fill:none" points="
  3710.12,3577.42 3710.12,2949.03 
  "/>
<polyline clip-path="url(#clip0805)" style="stroke:#e26f46; stroke-width:4; stroke-opacity:1; fill:none" points="
  3956.02,3714.12 3956.02,3275.19 
  "/>
<polyline clip-path="url(#clip0805)" style="stroke:#e26f46; stroke-width:4; stroke-opacity:1; fill:none" points="
  4201.93,3757.95 4201.93,3476.74 
  "/>
<polyline clip-path="url(#clip0805)" style="stroke:#e26f46; stroke-width:4; stroke-opacity:1; fill:none" points="
  4447.83,3888.58 4447.83,3566.76 
  "/>
<polyline clip-path="url(#clip0805)" style="stroke:#e26f46; stroke-width:4; stroke-opacity:1; fill:none" points="
  4693.74,3948.05 4693.74,3687.79 
  "/>
<line clip-path="url(#clip0805)" x1="2746.5" y1="4168.14" x2="2706.5" y2="4168.14" style="stroke:#000000; stroke-width:4; stroke-opacity:1"/>
<line clip-path="url(#clip0805)" x1="2746.5" y1="4053.78" x2="2706.5" y2="4053.78" style="stroke:#000000; stroke-width:4; stroke-opacity:1"/>
<line clip-path="url(#clip0805)" x1="2869.45" y1="4019.69" x2="2829.45" y2="4019.69" style="stroke:#000000; stroke-width:4; stroke-opacity:1"/>
<line clip-path="url(#clip0805)" x1="2869.45" y1="3934.03" x2="2829.45" y2="3934.03" style="stroke:#000000; stroke-width:4; stroke-opacity:1"/>
<line clip-path="url(#clip0805)" x1="2992.41" y1="3604.45" x2="2952.41" y2="3604.45" style="stroke:#000000; stroke-width:4; stroke-opacity:1"/>
<line clip-path="url(#clip0805)" x1="2992.41" y1="3004.42" x2="2952.41" y2="3004.42" style="stroke:#000000; stroke-width:4; stroke-opacity:1"/>
<line clip-path="url(#clip0805)" x1="3238.31" y1="3329.49" x2="3198.31" y2="3329.49" style="stroke:#000000; stroke-width:4; stroke-opacity:1"/>
<line clip-path="url(#clip0805)" x1="3484.21" y1="3521.77" x2="3444.21" y2="3521.77" style="stroke:#000000; stroke-width:4; stroke-opacity:1"/>
<line clip-path="url(#clip0805)" x1="3484.21" y1="2708.78" x2="3444.21" y2="2708.78" style="stroke:#000000; stroke-width:4; stroke-opacity:1"/>
<line clip-path="url(#clip0805)" x1="3730.12" y1="3577.42" x2="3690.12" y2="3577.42" style="stroke:#000000; stroke-width:4; stroke-opacity:1"/>
<line clip-path="url(#clip0805)" x1="3730.12" y1="2949.03" x2="3690.12" y2="2949.03" style="stroke:#000000; stroke-width:4; stroke-opacity:1"/>
<line clip-path="url(#clip0805)" x1="3976.02" y1="3714.12" x2="3936.02" y2="3714.12" style="stroke:#000000; stroke-width:4; stroke-opacity:1"/>
<line clip-path="url(#clip0805)" x1="3976.02" y1="3275.19" x2="3936.02" y2="3275.19" style="stroke:#000000; stroke-width:4; stroke-opacity:1"/>
<line clip-path="url(#clip0805)" x1="4221.93" y1="3757.95" x2="4181.93" y2="3757.95" style="stroke:#000000; stroke-width:4; stroke-opacity:1"/>
<line clip-path="url(#clip0805)" x1="4221.93" y1="3476.74" x2="4181.93" y2="3476.74" style="stroke:#000000; stroke-width:4; stroke-opacity:1"/>
<line clip-path="url(#clip0805)" x1="4467.83" y1="3888.58" x2="4427.83" y2="3888.58" style="stroke:#000000; stroke-width:4; stroke-opacity:1"/>
<line clip-path="url(#clip0805)" x1="4467.83" y1="3566.76" x2="4427.83" y2="3566.76" style="stroke:#000000; stroke-width:4; stroke-opacity:1"/>
<line clip-path="url(#clip0805)" x1="4713.74" y1="3948.05" x2="4673.74" y2="3948.05" style="stroke:#000000; stroke-width:4; stroke-opacity:1"/>
<line clip-path="url(#clip0805)" x1="4713.74" y1="3687.79" x2="4673.74" y2="3687.79" style="stroke:#000000; stroke-width:4; stroke-opacity:1"/>
<path clip-path="url(#clip0800)" d="
M3803.78 3064.47 L4608.76 3064.47 L4608.76 2792.31 L3803.78 2792.31  Z
  " fill="#ffffff" fill-rule="evenodd" fill-opacity="1"/>
<polyline clip-path="url(#clip0800)" style="stroke:#000000; stroke-width:4; stroke-opacity:1; fill:none" points="
  3803.78,3064.47 4608.76,3064.47 4608.76,2792.31 3803.78,2792.31 3803.78,3064.47 
  "/>
<polyline clip-path="url(#clip0800)" style="stroke:#009af9; stroke-width:4; stroke-opacity:1; fill:none" points="
  3851.78,2883.03 4139.78,2883.03 
  "/>
<g clip-path="url(#clip0800)">
<text style="fill:#000000; fill-opacity:1; font-family:Arial,Helvetica Neue,Helvetica,sans-serif; font-size:71px; text-anchor:start;" transform="rotate(0, 4187.78, 2909.03)" x="4187.78" y="2909.03">simulation</text>
</g>
<polyline clip-path="url(#clip0800)" style="stroke:#e26f46; stroke-width:4; stroke-opacity:1; fill:none" points="
  3851.78,2973.75 4139.78,2973.75 
  "/>
<g clip-path="url(#clip0800)">
<text style="fill:#000000; fill-opacity:1; font-family:Arial,Helvetica Neue,Helvetica,sans-serif; font-size:71px; text-anchor:start;" transform="rotate(0, 4187.78, 2999.75)" x="4187.78" y="2999.75">data</text>
</g>
</svg>
