<?xml version="1.0" encoding="utf-8"?>
<svg xmlns="http://www.w3.org/2000/svg" xmlns:xlink="http://www.w3.org/1999/xlink" width="1200" height="1200" viewBox="0 0 4800 4800">
<defs>
  <clipPath id="clip8900">
    <rect x="0" y="0" width="4800" height="4800"/>
  </clipPath>
</defs>
<path clip-path="url(#clip8900)" d="
M0 4800 L4800 4800 L4800 0 L0 0  Z
  " fill="#ffffff" fill-rule="evenodd" fill-opacity="1"/>
<defs>
  <clipPath id="clip8901">
    <rect x="960" y="480" width="3361" height="3361"/>
  </clipPath>
</defs>
<path clip-path="url(#clip8900)" d="
M337.855 2009.19 L2352.76 2009.19 L2352.76 264.191 L337.855 264.191  Z
  " fill="#ffffff" fill-rule="evenodd" fill-opacity="1"/>
<defs>
  <clipPath id="clip8902">
    <rect x="337" y="264" width="2016" height="1746"/>
  </clipPath>
</defs>
<polyline clip-path="url(#clip8902)" style="stroke:#000000; stroke-width:2; stroke-opacity:0.1; fill:none" points="
  394.88,2009.19 394.88,264.191 
  "/>
<polyline clip-path="url(#clip8902)" style="stroke:#000000; stroke-width:2; stroke-opacity:0.1; fill:none" points="
  870.093,2009.19 870.093,264.191 
  "/>
<polyline clip-path="url(#clip8902)" style="stroke:#000000; stroke-width:2; stroke-opacity:0.1; fill:none" points="
  1345.31,2009.19 1345.31,264.191 
  "/>
<polyline clip-path="url(#clip8902)" style="stroke:#000000; stroke-width:2; stroke-opacity:0.1; fill:none" points="
  1820.52,2009.19 1820.52,264.191 
  "/>
<polyline clip-path="url(#clip8902)" style="stroke:#000000; stroke-width:2; stroke-opacity:0.1; fill:none" points="
  2295.73,2009.19 2295.73,264.191 
  "/>
<polyline clip-path="url(#clip8902)" style="stroke:#000000; stroke-width:2; stroke-opacity:0.1; fill:none" points="
  337.855,2009.19 2352.76,2009.19 
  "/>
<polyline clip-path="url(#clip8902)" style="stroke:#000000; stroke-width:2; stroke-opacity:0.1; fill:none" points="
  337.855,1621.41 2352.76,1621.41 
  "/>
<polyline clip-path="url(#clip8902)" style="stroke:#000000; stroke-width:2; stroke-opacity:0.1; fill:none" points="
  337.855,1233.63 2352.76,1233.63 
  "/>
<polyline clip-path="url(#clip8902)" style="stroke:#000000; stroke-width:2; stroke-opacity:0.1; fill:none" points="
  337.855,845.856 2352.76,845.856 
  "/>
<polyline clip-path="url(#clip8902)" style="stroke:#000000; stroke-width:2; stroke-opacity:0.1; fill:none" points="
  337.855,458.079 2352.76,458.079 
  "/>
<polyline clip-path="url(#clip8900)" style="stroke:#000000; stroke-width:4; stroke-opacity:1; fill:none" points="
  337.855,2009.19 2352.76,2009.19 
  "/>
<polyline clip-path="url(#clip8900)" style="stroke:#000000; stroke-width:4; stroke-opacity:1; fill:none" points="
  337.855,2009.19 337.855,264.191 
  "/>
<polyline clip-path="url(#clip8900)" style="stroke:#000000; stroke-width:4; stroke-opacity:1; fill:none" points="
  394.88,2009.19 394.88,1988.25 
  "/>
<polyline clip-path="url(#clip8900)" style="stroke:#000000; stroke-width:4; stroke-opacity:1; fill:none" points="
  870.093,2009.19 870.093,1988.25 
  "/>
<polyline clip-path="url(#clip8900)" style="stroke:#000000; stroke-width:4; stroke-opacity:1; fill:none" points="
  1345.31,2009.19 1345.31,1988.25 
  "/>
<polyline clip-path="url(#clip8900)" style="stroke:#000000; stroke-width:4; stroke-opacity:1; fill:none" points="
  1820.52,2009.19 1820.52,1988.25 
  "/>
<polyline clip-path="url(#clip8900)" style="stroke:#000000; stroke-width:4; stroke-opacity:1; fill:none" points="
  2295.73,2009.19 2295.73,1988.25 
  "/>
<polyline clip-path="url(#clip8900)" style="stroke:#000000; stroke-width:4; stroke-opacity:1; fill:none" points="
  337.855,2009.19 362.033,2009.19 
  "/>
<polyline clip-path="url(#clip8900)" style="stroke:#000000; stroke-width:4; stroke-opacity:1; fill:none" points="
  337.855,1621.41 362.033,1621.41 
  "/>
<polyline clip-path="url(#clip8900)" style="stroke:#000000; stroke-width:4; stroke-opacity:1; fill:none" points="
  337.855,1233.63 362.033,1233.63 
  "/>
<polyline clip-path="url(#clip8900)" style="stroke:#000000; stroke-width:4; stroke-opacity:1; fill:none" points="
  337.855,845.856 362.033,845.856 
  "/>
<polyline clip-path="url(#clip8900)" style="stroke:#000000; stroke-width:4; stroke-opacity:1; fill:none" points="
  337.855,458.079 362.033,458.079 
  "/>
<g clip-path="url(#clip8900)">
<text style="fill:#000000; fill-opacity:1; font-family:Arial,Helvetica Neue,Helvetica,sans-serif; font-size:107px; text-anchor:middle;" transform="rotate(0, 394.88, 2126.79)" x="394.88" y="2126.79">0</text>
</g>
<g clip-path="url(#clip8900)">
<text style="fill:#000000; fill-opacity:1; font-family:Arial,Helvetica Neue,Helvetica,sans-serif; font-size:107px; text-anchor:middle;" transform="rotate(0, 870.093, 2126.79)" x="870.093" y="2126.79">2</text>
</g>
<g clip-path="url(#clip8900)">
<text style="fill:#000000; fill-opacity:1; font-family:Arial,Helvetica Neue,Helvetica,sans-serif; font-size:107px; text-anchor:middle;" transform="rotate(0, 1345.31, 2126.79)" x="1345.31" y="2126.79">4</text>
</g>
<g clip-path="url(#clip8900)">
<text style="fill:#000000; fill-opacity:1; font-family:Arial,Helvetica Neue,Helvetica,sans-serif; font-size:107px; text-anchor:middle;" transform="rotate(0, 1820.52, 2126.79)" x="1820.52" y="2126.79">6</text>
</g>
<g clip-path="url(#clip8900)">
<text style="fill:#000000; fill-opacity:1; font-family:Arial,Helvetica Neue,Helvetica,sans-serif; font-size:107px; text-anchor:middle;" transform="rotate(0, 2295.73, 2126.79)" x="2295.73" y="2126.79">8</text>
</g>
<g clip-path="url(#clip8900)">
<text style="fill:#000000; fill-opacity:1; font-family:Arial,Helvetica Neue,Helvetica,sans-serif; font-size:107px; text-anchor:end;" transform="rotate(0, 289.855, 2048.19)" x="289.855" y="2048.19">0</text>
</g>
<g clip-path="url(#clip8900)">
<text style="fill:#000000; fill-opacity:1; font-family:Arial,Helvetica Neue,Helvetica,sans-serif; font-size:107px; text-anchor:end;" transform="rotate(0, 289.855, 1660.41)" x="289.855" y="1660.41">1</text>
</g>
<g clip-path="url(#clip8900)">
<text style="fill:#000000; fill-opacity:1; font-family:Arial,Helvetica Neue,Helvetica,sans-serif; font-size:107px; text-anchor:end;" transform="rotate(0, 289.855, 1272.63)" x="289.855" y="1272.63">2</text>
</g>
<g clip-path="url(#clip8900)">
<text style="fill:#000000; fill-opacity:1; font-family:Arial,Helvetica Neue,Helvetica,sans-serif; font-size:107px; text-anchor:end;" transform="rotate(0, 289.855, 884.856)" x="289.855" y="884.856">3</text>
</g>
<g clip-path="url(#clip8900)">
<text style="fill:#000000; fill-opacity:1; font-family:Arial,Helvetica Neue,Helvetica,sans-serif; font-size:107px; text-anchor:end;" transform="rotate(0, 289.855, 497.079)" x="289.855" y="497.079">4</text>
</g>
<g clip-path="url(#clip8900)">
<text style="fill:#000000; fill-opacity:1; font-family:Arial,Helvetica Neue,Helvetica,sans-serif; font-size:189px; text-anchor:middle;" transform="rotate(0, 1345.31, 165.6)" x="1345.31" y="165.6">Normal patient 30 mcg (6 patients)</text>
</g>
<g clip-path="url(#clip8900)">
<text style="fill:#000000; fill-opacity:1; font-family:Arial,Helvetica Neue,Helvetica,sans-serif; font-size:143px; text-anchor:middle;" transform="rotate(0, 1345.31, 2300.46)" x="1345.31" y="2300.46">Time (hours)</text>
</g>
<g clip-path="url(#clip8900)">
<text style="fill:#000000; fill-opacity:1; font-family:Arial,Helvetica Neue,Helvetica,sans-serif; font-size:143px; text-anchor:middle;" transform="rotate(-90, 155.54, 1136.69)" x="155.54" y="1136.69">T3 mcg/L</text>
</g>
<path clip-path="url(#clip8902)" d="
M394.88 1763.5 L418.641 1713.43 L442.401 1608.24 L466.162 1501.49 L489.923 1404.56 L513.683 1321.11 L537.444 1251.25 L561.204 1194.11 L584.965 1148.5 L608.726 1113.1 
  L632.486 1086.6 L656.247 1067.81 L680.008 1055.59 L703.768 1048.98 L727.529 1047.08 L751.29 1049.12 L775.05 1054.48 L798.811 1062.51 L822.571 1072.8 L846.332 1084.93 
  L870.093 1098.27 L893.853 1112.93 L917.614 1129.5 L941.375 1144.64 L965.135 1159.29 L988.896 1181.07 L1012.66 1198.06 L1036.42 1208.94 L1060.18 1227.46 L1083.94 1244.9 
  L1107.7 1260.86 L1131.46 1277.49 L1155.22 1293.61 L1178.98 1309.14 L1202.74 1324.58 L1226.5 1339.25 L1250.26 1353.85 L1274.02 1367.75 L1297.78 1381.46 L1321.54 1394.59 
  L1345.31 1407.35 L1369.07 1419.73 L1392.83 1431.42 L1416.59 1443.24 L1440.35 1453.94 L1464.11 1465.12 L1487.87 1475.03 L1511.63 1485.22 L1535.39 1494.75 L1559.15 1503.82 
  L1582.91 1513.03 L1606.67 1521.17 L1630.43 1529.85 L1654.19 1537.33 L1677.95 1545.29 L1701.71 1552.41 L1725.48 1559.56 L1749.24 1566.42 L1773 1572.69 L1796.76 1579.31 
  L1820.52 1584.9 L1844.28 1591.15 L1868.04 1596.34 L1891.8 1601.97 L1915.56 1607.03 L1939.32 1611.83 L1963.08 1616.96 L1986.84 1621.02 L2010.6 1626.09 L2034.36 1629.75 
  L2058.12 1634.21 L2081.88 1637.86 L2105.65 1641.63 L2129.41 1645.58 L2153.17 1648.58 L2176.93 1652.58 L2200.69 1655.2 L2224.45 1658.78 L2248.21 1661.6 L2271.97 1664.21 
  L2295.73 1667.2 L2295.73 1477.93 L2271.97 1474.88 L2248.21 1471.77 L2224.45 1468.59 L2200.69 1465.11 L2176.93 1461.76 L2153.17 1458.08 L2129.41 1454.49 L2105.65 1450.7 
  L2081.88 1446.72 L2058.12 1442.57 L2034.36 1437.97 L2010.6 1433.35 L1986.84 1429.03 L1963.08 1424.05 L1939.32 1419.4 L1915.56 1413.92 L1891.8 1408.85 L1868.04 1403.04 
  L1844.28 1397.34 L1820.52 1391.26 L1796.76 1384.91 L1773 1378.49 L1749.24 1371.64 L1725.48 1364.67 L1701.71 1357.42 L1677.95 1349.67 L1654.19 1342 L1630.43 1333.46 
  L1606.67 1325.19 L1582.91 1315.98 L1559.15 1306.92 L1535.39 1297.24 L1511.63 1287.15 L1487.87 1277.1 L1464.11 1265.88 L1440.35 1255.27 L1416.59 1242.94 L1392.83 1231.6 
  L1369.07 1218.39 L1345.31 1205.92 L1321.54 1192.29 L1297.78 1178.19 L1274.02 1164.27 L1250.26 1148.63 L1226.5 1134.1 L1202.74 1117.34 L1178.98 1101.9 L1155.22 1084.14 
  L1131.46 1067.89 L1107.7 1048.79 L1083.94 1032.71 L1060.18 1010.96 L1036.42 996.311 L1012.66 975.438 L988.896 956.801 L965.135 942.729 L941.375 919.78 L917.614 902.326 
  L893.853 885.338 L870.093 867.097 L846.332 850.904 L822.571 836.156 L798.811 822.854 L775.05 811.717 L751.29 803.123 L727.529 797.601 L703.768 795.825 L680.008 798.475 
  L656.247 806.38 L632.486 820.414 L608.726 841.569 L584.965 870.868 L561.204 909.403 L537.444 958.194 L513.683 1018.21 L489.923 1089.93 L466.162 1173.11 L442.401 1265.03 
  L418.641 1354.21 L394.88 1393.11  Z
  " fill="#009af9" fill-rule="evenodd" fill-opacity="0.3"/>
<polyline clip-path="url(#clip8902)" style="stroke:#009af9; stroke-width:4; stroke-opacity:1; fill:none" points="
  394.88,1578.3 418.641,1533.82 442.401,1436.63 466.162,1337.3 489.923,1247.24 513.683,1169.66 537.444,1104.72 561.204,1051.75 584.965,1009.68 608.726,977.334 
  632.486,953.508 656.247,937.094 680.008,927.034 703.768,922.401 727.529,922.339 751.29,926.123 775.05,933.099 798.811,942.684 822.571,954.476 846.332,967.916 
  870.093,982.684 893.853,999.134 917.614,1015.91 941.375,1032.21 965.135,1051.01 988.896,1068.94 1012.66,1086.75 1036.42,1102.63 1060.18,1119.21 1083.94,1138.81 
  1107.7,1154.83 1131.46,1172.69 1155.22,1188.87 1178.98,1205.52 1202.74,1220.96 1226.5,1236.68 1250.26,1251.24 1274.02,1266.01 1297.78,1279.82 1321.54,1293.44 
  1345.31,1306.64 1369.07,1319.06 1392.83,1331.51 1416.59,1343.09 1440.35,1354.61 1464.11,1365.5 1487.87,1376.06 1511.63,1386.19 1535.39,1396 1559.15,1405.37 
  1582.91,1414.5 1606.67,1423.18 1630.43,1431.65 1654.19,1439.66 1677.95,1447.48 1701.71,1454.92 1725.48,1462.11 1749.24,1469.03 1773,1475.59 1796.76,1482.11 
  1820.52,1488.08 1844.28,1494.25 1868.04,1499.69 1891.8,1505.41 1915.56,1510.48 1939.32,1515.61 1963.08,1520.51 1986.84,1525.02 2010.6,1529.72 2034.36,1533.86 
  2058.12,1538.39 2081.88,1542.29 2105.65,1546.16 2129.41,1550.03 2153.17,1553.33 2176.93,1557.17 2200.69,1560.15 2224.45,1563.69 2248.21,1566.68 2271.97,1569.55 
  2295.73,1572.57 
  "/>
<polyline clip-path="url(#clip8902)" style="stroke:#e26f46; stroke-width:4; stroke-opacity:1; fill:none" points="
  394.88,1578.3 513.683,1448.72 632.486,1159.12 870.093,977.571 1107.7,1086.15 1345.31,1208.1 1582.91,1315.45 1820.52,1373.43 2058.12,1392.3 2295.73,1411.11 
  
  "/>
<polyline clip-path="url(#clip8902)" style="stroke:#e26f46; stroke-width:4; stroke-opacity:1; fill:none" points="
  394.88,1763.5 394.88,1393.11 
  "/>
<polyline clip-path="url(#clip8902)" style="stroke:#e26f46; stroke-width:4; stroke-opacity:1; fill:none" points="
  513.683,1718.85 513.683,1178.59 
  "/>
<polyline clip-path="url(#clip8902)" style="stroke:#e26f46; stroke-width:4; stroke-opacity:1; fill:none" points="
  632.486,1514.52 632.486,803.709 
  "/>
<polyline clip-path="url(#clip8902)" style="stroke:#e26f46; stroke-width:4; stroke-opacity:1; fill:none" points="
  870.093,1249.98 870.093,705.161 
  "/>
<polyline clip-path="url(#clip8902)" style="stroke:#e26f46; stroke-width:4; stroke-opacity:1; fill:none" points="
  1107.7,1377.35 1107.7,794.943 
  "/>
<polyline clip-path="url(#clip8902)" style="stroke:#e26f46; stroke-width:4; stroke-opacity:1; fill:none" points="
  1345.31,1456.91 1345.31,959.296 
  "/>
<polyline clip-path="url(#clip8902)" style="stroke:#e26f46; stroke-width:4; stroke-opacity:1; fill:none" points="
  1582.91,1559.68 1582.91,1071.22 
  "/>
<polyline clip-path="url(#clip8902)" style="stroke:#e26f46; stroke-width:4; stroke-opacity:1; fill:none" points="
  1820.52,1612.55 1820.52,1134.3 
  "/>
<polyline clip-path="url(#clip8902)" style="stroke:#e26f46; stroke-width:4; stroke-opacity:1; fill:none" points="
  2058.12,1634.78 2058.12,1149.82 
  "/>
<polyline clip-path="url(#clip8902)" style="stroke:#e26f46; stroke-width:4; stroke-opacity:1; fill:none" points="
  2295.73,1670.84 2295.73,1151.37 
  "/>
<line clip-path="url(#clip8902)" x1="414.88" y1="1763.5" x2="374.88" y2="1763.5" style="stroke:#000000; stroke-width:4; stroke-opacity:1"/>
<line clip-path="url(#clip8902)" x1="414.88" y1="1393.11" x2="374.88" y2="1393.11" style="stroke:#000000; stroke-width:4; stroke-opacity:1"/>
<line clip-path="url(#clip8902)" x1="533.683" y1="1718.85" x2="493.683" y2="1718.85" style="stroke:#000000; stroke-width:4; stroke-opacity:1"/>
<line clip-path="url(#clip8902)" x1="533.683" y1="1178.59" x2="493.683" y2="1178.59" style="stroke:#000000; stroke-width:4; stroke-opacity:1"/>
<line clip-path="url(#clip8902)" x1="652.486" y1="1514.52" x2="612.486" y2="1514.52" style="stroke:#000000; stroke-width:4; stroke-opacity:1"/>
<line clip-path="url(#clip8902)" x1="652.486" y1="803.709" x2="612.486" y2="803.709" style="stroke:#000000; stroke-width:4; stroke-opacity:1"/>
<line clip-path="url(#clip8902)" x1="890.093" y1="1249.98" x2="850.093" y2="1249.98" style="stroke:#000000; stroke-width:4; stroke-opacity:1"/>
<line clip-path="url(#clip8902)" x1="890.093" y1="705.161" x2="850.093" y2="705.161" style="stroke:#000000; stroke-width:4; stroke-opacity:1"/>
<line clip-path="url(#clip8902)" x1="1127.7" y1="1377.35" x2="1087.7" y2="1377.35" style="stroke:#000000; stroke-width:4; stroke-opacity:1"/>
<line clip-path="url(#clip8902)" x1="1127.7" y1="794.943" x2="1087.7" y2="794.943" style="stroke:#000000; stroke-width:4; stroke-opacity:1"/>
<line clip-path="url(#clip8902)" x1="1365.31" y1="1456.91" x2="1325.31" y2="1456.91" style="stroke:#000000; stroke-width:4; stroke-opacity:1"/>
<line clip-path="url(#clip8902)" x1="1365.31" y1="959.296" x2="1325.31" y2="959.296" style="stroke:#000000; stroke-width:4; stroke-opacity:1"/>
<line clip-path="url(#clip8902)" x1="1602.91" y1="1559.68" x2="1562.91" y2="1559.68" style="stroke:#000000; stroke-width:4; stroke-opacity:1"/>
<line clip-path="url(#clip8902)" x1="1602.91" y1="1071.22" x2="1562.91" y2="1071.22" style="stroke:#000000; stroke-width:4; stroke-opacity:1"/>
<line clip-path="url(#clip8902)" x1="1840.52" y1="1612.55" x2="1800.52" y2="1612.55" style="stroke:#000000; stroke-width:4; stroke-opacity:1"/>
<line clip-path="url(#clip8902)" x1="1840.52" y1="1134.3" x2="1800.52" y2="1134.3" style="stroke:#000000; stroke-width:4; stroke-opacity:1"/>
<line clip-path="url(#clip8902)" x1="2078.12" y1="1634.78" x2="2038.12" y2="1634.78" style="stroke:#000000; stroke-width:4; stroke-opacity:1"/>
<line clip-path="url(#clip8902)" x1="2078.12" y1="1149.82" x2="2038.12" y2="1149.82" style="stroke:#000000; stroke-width:4; stroke-opacity:1"/>
<line clip-path="url(#clip8902)" x1="2315.73" y1="1670.84" x2="2275.73" y2="1670.84" style="stroke:#000000; stroke-width:4; stroke-opacity:1"/>
<line clip-path="url(#clip8902)" x1="2315.73" y1="1151.37" x2="2275.73" y2="1151.37" style="stroke:#000000; stroke-width:4; stroke-opacity:1"/>
<path clip-path="url(#clip8900)" d="
M1241.29 824.351 L2208.76 824.351 L2208.76 416.111 L1241.29 416.111  Z
  " fill="#ffffff" fill-rule="evenodd" fill-opacity="1"/>
<polyline clip-path="url(#clip8900)" style="stroke:#000000; stroke-width:4; stroke-opacity:1; fill:none" points="
  1241.29,824.351 2208.76,824.351 2208.76,416.111 1241.29,416.111 1241.29,824.351 
  "/>
<polyline clip-path="url(#clip8900)" style="stroke:#009af9; stroke-width:4; stroke-opacity:1; fill:none" points="
  1289.29,552.191 1577.29,552.191 
  "/>
<g clip-path="url(#clip8900)">
<text style="fill:#000000; fill-opacity:1; font-family:Arial,Helvetica Neue,Helvetica,sans-serif; font-size:107px; text-anchor:start;" transform="rotate(0, 1625.29, 591.191)" x="1625.29" y="591.191">simulation</text>
</g>
<polyline clip-path="url(#clip8900)" style="stroke:#e26f46; stroke-width:4; stroke-opacity:1; fill:none" points="
  1289.29,688.271 1577.29,688.271 
  "/>
<g clip-path="url(#clip8900)">
<text style="fill:#000000; fill-opacity:1; font-family:Arial,Helvetica Neue,Helvetica,sans-serif; font-size:107px; text-anchor:start;" transform="rotate(0, 1625.29, 727.271)" x="1625.29" y="727.271">data</text>
</g>
<path clip-path="url(#clip8900)" d="
M2737.85 2009.19 L4752.76 2009.19 L4752.76 264.191 L2737.85 264.191  Z
  " fill="#ffffff" fill-rule="evenodd" fill-opacity="1"/>
<defs>
  <clipPath id="clip8903">
    <rect x="2737" y="264" width="2016" height="1746"/>
  </clipPath>
</defs>
<polyline clip-path="url(#clip8903)" style="stroke:#000000; stroke-width:2; stroke-opacity:0.1; fill:none" points="
  2794.88,2009.19 2794.88,264.191 
  "/>
<polyline clip-path="url(#clip8903)" style="stroke:#000000; stroke-width:2; stroke-opacity:0.1; fill:none" points="
  3270.09,2009.19 3270.09,264.191 
  "/>
<polyline clip-path="url(#clip8903)" style="stroke:#000000; stroke-width:2; stroke-opacity:0.1; fill:none" points="
  3745.31,2009.19 3745.31,264.191 
  "/>
<polyline clip-path="url(#clip8903)" style="stroke:#000000; stroke-width:2; stroke-opacity:0.1; fill:none" points="
  4220.52,2009.19 4220.52,264.191 
  "/>
<polyline clip-path="url(#clip8903)" style="stroke:#000000; stroke-width:2; stroke-opacity:0.1; fill:none" points="
  4695.73,2009.19 4695.73,264.191 
  "/>
<polyline clip-path="url(#clip8903)" style="stroke:#000000; stroke-width:2; stroke-opacity:0.1; fill:none" points="
  2737.85,2009.19 4752.76,2009.19 
  "/>
<polyline clip-path="url(#clip8903)" style="stroke:#000000; stroke-width:2; stroke-opacity:0.1; fill:none" points="
  2737.85,1621.41 4752.76,1621.41 
  "/>
<polyline clip-path="url(#clip8903)" style="stroke:#000000; stroke-width:2; stroke-opacity:0.1; fill:none" points="
  2737.85,1233.63 4752.76,1233.63 
  "/>
<polyline clip-path="url(#clip8903)" style="stroke:#000000; stroke-width:2; stroke-opacity:0.1; fill:none" points="
  2737.85,845.856 4752.76,845.856 
  "/>
<polyline clip-path="url(#clip8903)" style="stroke:#000000; stroke-width:2; stroke-opacity:0.1; fill:none" points="
  2737.85,458.079 4752.76,458.079 
  "/>
<polyline clip-path="url(#clip8900)" style="stroke:#000000; stroke-width:4; stroke-opacity:1; fill:none" points="
  2737.85,2009.19 4752.76,2009.19 
  "/>
<polyline clip-path="url(#clip8900)" style="stroke:#000000; stroke-width:4; stroke-opacity:1; fill:none" points="
  2737.85,2009.19 2737.85,264.191 
  "/>
<polyline clip-path="url(#clip8900)" style="stroke:#000000; stroke-width:4; stroke-opacity:1; fill:none" points="
  2794.88,2009.19 2794.88,1988.25 
  "/>
<polyline clip-path="url(#clip8900)" style="stroke:#000000; stroke-width:4; stroke-opacity:1; fill:none" points="
  3270.09,2009.19 3270.09,1988.25 
  "/>
<polyline clip-path="url(#clip8900)" style="stroke:#000000; stroke-width:4; stroke-opacity:1; fill:none" points="
  3745.31,2009.19 3745.31,1988.25 
  "/>
<polyline clip-path="url(#clip8900)" style="stroke:#000000; stroke-width:4; stroke-opacity:1; fill:none" points="
  4220.52,2009.19 4220.52,1988.25 
  "/>
<polyline clip-path="url(#clip8900)" style="stroke:#000000; stroke-width:4; stroke-opacity:1; fill:none" points="
  4695.73,2009.19 4695.73,1988.25 
  "/>
<polyline clip-path="url(#clip8900)" style="stroke:#000000; stroke-width:4; stroke-opacity:1; fill:none" points="
  2737.85,2009.19 2762.03,2009.19 
  "/>
<polyline clip-path="url(#clip8900)" style="stroke:#000000; stroke-width:4; stroke-opacity:1; fill:none" points="
  2737.85,1621.41 2762.03,1621.41 
  "/>
<polyline clip-path="url(#clip8900)" style="stroke:#000000; stroke-width:4; stroke-opacity:1; fill:none" points="
  2737.85,1233.63 2762.03,1233.63 
  "/>
<polyline clip-path="url(#clip8900)" style="stroke:#000000; stroke-width:4; stroke-opacity:1; fill:none" points="
  2737.85,845.856 2762.03,845.856 
  "/>
<polyline clip-path="url(#clip8900)" style="stroke:#000000; stroke-width:4; stroke-opacity:1; fill:none" points="
  2737.85,458.079 2762.03,458.079 
  "/>
<g clip-path="url(#clip8900)">
<text style="fill:#000000; fill-opacity:1; font-family:Arial,Helvetica Neue,Helvetica,sans-serif; font-size:107px; text-anchor:middle;" transform="rotate(0, 2794.88, 2126.79)" x="2794.88" y="2126.79">0</text>
</g>
<g clip-path="url(#clip8900)">
<text style="fill:#000000; fill-opacity:1; font-family:Arial,Helvetica Neue,Helvetica,sans-serif; font-size:107px; text-anchor:middle;" transform="rotate(0, 3270.09, 2126.79)" x="3270.09" y="2126.79">2</text>
</g>
<g clip-path="url(#clip8900)">
<text style="fill:#000000; fill-opacity:1; font-family:Arial,Helvetica Neue,Helvetica,sans-serif; font-size:107px; text-anchor:middle;" transform="rotate(0, 3745.31, 2126.79)" x="3745.31" y="2126.79">4</text>
</g>
<g clip-path="url(#clip8900)">
<text style="fill:#000000; fill-opacity:1; font-family:Arial,Helvetica Neue,Helvetica,sans-serif; font-size:107px; text-anchor:middle;" transform="rotate(0, 4220.52, 2126.79)" x="4220.52" y="2126.79">6</text>
</g>
<g clip-path="url(#clip8900)">
<text style="fill:#000000; fill-opacity:1; font-family:Arial,Helvetica Neue,Helvetica,sans-serif; font-size:107px; text-anchor:middle;" transform="rotate(0, 4695.73, 2126.79)" x="4695.73" y="2126.79">8</text>
</g>
<g clip-path="url(#clip8900)">
<text style="fill:#000000; fill-opacity:1; font-family:Arial,Helvetica Neue,Helvetica,sans-serif; font-size:107px; text-anchor:end;" transform="rotate(0, 2689.85, 2048.19)" x="2689.85" y="2048.19">0</text>
</g>
<g clip-path="url(#clip8900)">
<text style="fill:#000000; fill-opacity:1; font-family:Arial,Helvetica Neue,Helvetica,sans-serif; font-size:107px; text-anchor:end;" transform="rotate(0, 2689.85, 1660.41)" x="2689.85" y="1660.41">1</text>
</g>
<g clip-path="url(#clip8900)">
<text style="fill:#000000; fill-opacity:1; font-family:Arial,Helvetica Neue,Helvetica,sans-serif; font-size:107px; text-anchor:end;" transform="rotate(0, 2689.85, 1272.63)" x="2689.85" y="1272.63">2</text>
</g>
<g clip-path="url(#clip8900)">
<text style="fill:#000000; fill-opacity:1; font-family:Arial,Helvetica Neue,Helvetica,sans-serif; font-size:107px; text-anchor:end;" transform="rotate(0, 2689.85, 884.856)" x="2689.85" y="884.856">3</text>
</g>
<g clip-path="url(#clip8900)">
<text style="fill:#000000; fill-opacity:1; font-family:Arial,Helvetica Neue,Helvetica,sans-serif; font-size:107px; text-anchor:end;" transform="rotate(0, 2689.85, 497.079)" x="2689.85" y="497.079">4</text>
</g>
<g clip-path="url(#clip8900)">
<text style="fill:#000000; fill-opacity:1; font-family:Arial,Helvetica Neue,Helvetica,sans-serif; font-size:189px; text-anchor:middle;" transform="rotate(0, 3745.31, 165.6)" x="3745.31" y="165.6">Normal patient 45 mcg (3 patients)</text>
</g>
<g clip-path="url(#clip8900)">
<text style="fill:#000000; fill-opacity:1; font-family:Arial,Helvetica Neue,Helvetica,sans-serif; font-size:143px; text-anchor:middle;" transform="rotate(0, 3745.31, 2300.46)" x="3745.31" y="2300.46">Time (hours)</text>
</g>
<g clip-path="url(#clip8900)">
<text style="fill:#000000; fill-opacity:1; font-family:Arial,Helvetica Neue,Helvetica,sans-serif; font-size:143px; text-anchor:middle;" transform="rotate(-90, 2555.54, 1136.69)" x="2555.54" y="1136.69">T3 mcg/L</text>
</g>
<path clip-path="url(#clip8903)" d="
M2794.88 1776.24 L2818.64 1712.93 L2842.4 1577.36 L2866.16 1435.84 L2889.92 1306.55 L2913.68 1194.2 L2937.44 1099.31 L2961.2 1021.15 L2984.97 958.22 L3008.73 908.927 
  L3032.49 871.631 L3056.25 844.784 L3080.01 826.937 L3103.77 816.789 L3127.53 813.168 L3151.29 815.049 L3175.05 821.521 L3198.81 831.805 L3222.57 845.214 L3246.33 861.155 
  L3270.09 879.137 L3293.85 898.705 L3317.61 919.483 L3341.37 941.241 L3365.14 963.671 L3388.9 986.28 L3412.66 1009.08 L3436.42 1034.54 L3460.18 1060.27 L3483.94 1079.14 
  L3507.7 1095.18 L3531.46 1122.32 L3555.22 1145.53 L3578.98 1162.95 L3602.74 1187.11 L3626.5 1205.03 L3650.26 1226.76 L3674.02 1244.62 L3697.78 1264.24 L3721.54 1281.81 
  L3745.31 1299.27 L3769.07 1316.6 L3792.83 1331.93 L3816.59 1348.75 L3840.35 1363.23 L3864.11 1378.02 L3887.87 1392.76 L3911.63 1405.1 L3935.39 1419.54 L3959.15 1431.46 
  L3982.91 1443.61 L4006.67 1456.1 L4030.43 1466.04 L4054.19 1478.21 L4077.95 1487.89 L4101.71 1498.11 L4125.48 1508.3 L4149.24 1516.55 L4173 1526.66 L4196.76 1534.42 
  L4220.52 1543.12 L4244.28 1551.33 L4268.04 1558.2 L4291.8 1566.59 L4315.56 1572.79 L4339.32 1580.17 L4363.08 1586.81 L4386.84 1592.5 L4410.6 1599.51 L4434.36 1604.45 
  L4458.12 1610.72 L4481.88 1616.09 L4505.65 1620.83 L4529.41 1626.69 L4553.17 1630.63 L4576.93 1635.99 L4600.69 1640.3 L4624.45 1644.3 L4648.21 1649.19 L4671.97 1652.39 
  L4695.73 1656.53 L4695.73 1572.16 L4671.97 1567.9 L4648.21 1563.23 L4624.45 1559.5 L4600.69 1554.07 L4576.93 1549.6 L4553.17 1544.5 L4529.41 1538.74 L4505.65 1534.08 
  L4481.88 1527.53 L4458.12 1522.29 L4434.36 1515.9 L4410.6 1509.26 L4386.84 1503.35 L4363.08 1495.51 L4339.32 1489.25 L4315.56 1481.3 L4291.8 1473.58 L4268.04 1466.09 
  L4244.28 1456.77 L4220.52 1449.14 L4196.76 1439.33 L4173 1430.31 L4149.24 1420.8 L4125.48 1409.82 L4101.71 1400.43 L4077.95 1388.31 L4054.19 1377.82 L4030.43 1365.74 
  L4006.67 1352.94 L3982.91 1341.28 L3959.15 1326.53 L3935.39 1314.09 L3911.63 1299.19 L3887.87 1284.07 L3864.11 1269.64 L3840.35 1252.3 L3816.59 1236.83 L3792.83 1219.26 
  L3769.07 1201.17 L3745.31 1183.49 L3721.54 1163.41 L3697.78 1144.67 L3674.02 1123.61 L3650.26 1103.12 L3626.5 1081.23 L3602.74 1058.8 L3578.98 1035.86 L3555.22 1011.32 
  L3531.46 989.915 L3507.7 955.848 L3483.94 942.385 L3460.18 924.193 L3436.42 892.034 L3412.66 864.268 L3388.9 839.713 L3365.14 814.855 L3341.37 789.69 L3317.61 765.56 
  L3293.85 742.497 L3270.09 720.668 L3246.33 700.525 L3222.57 682.564 L3198.81 667.295 L3175.05 655.371 L3151.29 647.528 L3127.53 644.609 L3103.77 647.602 L3080.01 657.608 
  L3056.25 675.9 L3032.49 703.879 L3008.73 743.117 L2984.97 795.28 L2961.2 862.156 L2937.44 945.438 L2913.68 1046.78 L2889.92 1166.98 L2866.16 1305.51 L2842.4 1457.42 
  L2818.64 1603.37 L2794.88 1671.33  Z
  " fill="#009af9" fill-rule="evenodd" fill-opacity="0.3"/>
<polyline clip-path="url(#clip8903)" style="stroke:#009af9; stroke-width:4; stroke-opacity:1; fill:none" points="
  2794.88,1723.78 2818.64,1658.15 2842.4,1517.39 2866.16,1370.67 2889.92,1236.76 2913.68,1120.49 2937.44,1022.37 2961.2,941.655 2984.97,876.75 3008.73,826.022 
  3032.49,787.755 3056.25,760.342 3080.01,742.273 3103.77,732.195 3127.53,728.888 3151.29,731.288 3175.05,738.446 3198.81,749.55 3222.57,763.889 3246.33,780.84 
  3270.09,799.902 3293.85,820.601 3317.61,842.521 3341.37,865.466 3365.14,889.263 3388.9,912.997 3412.66,936.673 3436.42,963.289 3460.18,992.231 3483.94,1010.76 
  3507.7,1025.51 3531.46,1056.12 3555.22,1078.43 3578.98,1099.4 3602.74,1122.96 3626.5,1143.13 3650.26,1164.94 3674.02,1184.11 3697.78,1204.46 3721.54,1222.61 
  3745.31,1241.38 3769.07,1258.88 3792.83,1275.6 3816.59,1292.79 3840.35,1307.77 3864.11,1323.83 3887.87,1338.41 3911.63,1352.14 3935.39,1366.82 3959.15,1379 
  3982.91,1392.44 4006.67,1404.52 4030.43,1415.89 4054.19,1428.01 4077.95,1438.1 4101.71,1449.27 4125.48,1459.06 4149.24,1468.67 4173,1478.48 4196.76,1486.87 
  4220.52,1496.13 4244.28,1504.05 4268.04,1512.14 4291.8,1520.09 4315.56,1527.05 4339.32,1534.71 4363.08,1541.16 4386.84,1547.93 4410.6,1554.38 4434.36,1560.17 
  4458.12,1566.51 4481.88,1571.81 4505.65,1577.45 4529.41,1582.72 4553.17,1587.56 4576.93,1592.79 4600.69,1597.18 4624.45,1601.9 4648.21,1606.21 4671.97,1610.15 
  4695.73,1614.35 
  "/>
<polyline clip-path="url(#clip8903)" style="stroke:#e26f46; stroke-width:4; stroke-opacity:1; fill:none" points="
  2794.88,1723.78 2913.68,1631.62 3032.49,1300.33 3270.09,866.925 3507.7,987.653 3745.31,1090.54 3982.91,1141.73 4220.52,1330.71 4458.12,1351.52 4695.73,1420.41 
  
  "/>
<polyline clip-path="url(#clip8903)" style="stroke:#e26f46; stroke-width:4; stroke-opacity:1; fill:none" points="
  2794.88,1776.24 2794.88,1671.33 
  "/>
<polyline clip-path="url(#clip8903)" style="stroke:#e26f46; stroke-width:4; stroke-opacity:1; fill:none" points="
  2913.68,1670.91 2913.68,1592.33 
  "/>
<polyline clip-path="url(#clip8903)" style="stroke:#e26f46; stroke-width:4; stroke-opacity:1; fill:none" points="
  3032.49,1575.56 3032.49,1025.11 
  "/>
<polyline clip-path="url(#clip8903)" style="stroke:#e26f46; stroke-width:4; stroke-opacity:1; fill:none" points="
  3270.09,1274.68 3270.09,459.172 
  "/>
<polyline clip-path="url(#clip8903)" style="stroke:#e26f46; stroke-width:4; stroke-opacity:1; fill:none" points="
  3507.7,1360.56 3507.7,614.746 
  "/>
<polyline clip-path="url(#clip8903)" style="stroke:#e26f46; stroke-width:4; stroke-opacity:1; fill:none" points="
  3745.31,1378.78 3745.31,802.309 
  "/>
<polyline clip-path="url(#clip8903)" style="stroke:#e26f46; stroke-width:4; stroke-opacity:1; fill:none" points="
  3982.91,1343.06 3982.91,940.4 
  "/>
<polyline clip-path="url(#clip8903)" style="stroke:#e26f46; stroke-width:4; stroke-opacity:1; fill:none" points="
  4220.52,1459.69 4220.52,1201.72 
  "/>
<polyline clip-path="url(#clip8903)" style="stroke:#e26f46; stroke-width:4; stroke-opacity:1; fill:none" points="
  4458.12,1499.13 4458.12,1203.9 
  "/>
<polyline clip-path="url(#clip8903)" style="stroke:#e26f46; stroke-width:4; stroke-opacity:1; fill:none" points="
  4695.73,1539.79 4695.73,1301.03 
  "/>
<line clip-path="url(#clip8903)" x1="2814.88" y1="1776.24" x2="2774.88" y2="1776.24" style="stroke:#000000; stroke-width:4; stroke-opacity:1"/>
<line clip-path="url(#clip8903)" x1="2814.88" y1="1671.33" x2="2774.88" y2="1671.33" style="stroke:#000000; stroke-width:4; stroke-opacity:1"/>
<line clip-path="url(#clip8903)" x1="2933.68" y1="1670.91" x2="2893.68" y2="1670.91" style="stroke:#000000; stroke-width:4; stroke-opacity:1"/>
<line clip-path="url(#clip8903)" x1="2933.68" y1="1592.33" x2="2893.68" y2="1592.33" style="stroke:#000000; stroke-width:4; stroke-opacity:1"/>
<line clip-path="url(#clip8903)" x1="3052.49" y1="1575.56" x2="3012.49" y2="1575.56" style="stroke:#000000; stroke-width:4; stroke-opacity:1"/>
<line clip-path="url(#clip8903)" x1="3052.49" y1="1025.11" x2="3012.49" y2="1025.11" style="stroke:#000000; stroke-width:4; stroke-opacity:1"/>
<line clip-path="url(#clip8903)" x1="3290.09" y1="1274.68" x2="3250.09" y2="1274.68" style="stroke:#000000; stroke-width:4; stroke-opacity:1"/>
<line clip-path="url(#clip8903)" x1="3290.09" y1="459.172" x2="3250.09" y2="459.172" style="stroke:#000000; stroke-width:4; stroke-opacity:1"/>
<line clip-path="url(#clip8903)" x1="3527.7" y1="1360.56" x2="3487.7" y2="1360.56" style="stroke:#000000; stroke-width:4; stroke-opacity:1"/>
<line clip-path="url(#clip8903)" x1="3527.7" y1="614.746" x2="3487.7" y2="614.746" style="stroke:#000000; stroke-width:4; stroke-opacity:1"/>
<line clip-path="url(#clip8903)" x1="3765.31" y1="1378.78" x2="3725.31" y2="1378.78" style="stroke:#000000; stroke-width:4; stroke-opacity:1"/>
<line clip-path="url(#clip8903)" x1="3765.31" y1="802.309" x2="3725.31" y2="802.309" style="stroke:#000000; stroke-width:4; stroke-opacity:1"/>
<line clip-path="url(#clip8903)" x1="4002.91" y1="1343.06" x2="3962.91" y2="1343.06" style="stroke:#000000; stroke-width:4; stroke-opacity:1"/>
<line clip-path="url(#clip8903)" x1="4002.91" y1="940.4" x2="3962.91" y2="940.4" style="stroke:#000000; stroke-width:4; stroke-opacity:1"/>
<line clip-path="url(#clip8903)" x1="4240.52" y1="1459.69" x2="4200.52" y2="1459.69" style="stroke:#000000; stroke-width:4; stroke-opacity:1"/>
<line clip-path="url(#clip8903)" x1="4240.52" y1="1201.72" x2="4200.52" y2="1201.72" style="stroke:#000000; stroke-width:4; stroke-opacity:1"/>
<line clip-path="url(#clip8903)" x1="4478.12" y1="1499.13" x2="4438.12" y2="1499.13" style="stroke:#000000; stroke-width:4; stroke-opacity:1"/>
<line clip-path="url(#clip8903)" x1="4478.12" y1="1203.9" x2="4438.12" y2="1203.9" style="stroke:#000000; stroke-width:4; stroke-opacity:1"/>
<line clip-path="url(#clip8903)" x1="4715.73" y1="1539.79" x2="4675.73" y2="1539.79" style="stroke:#000000; stroke-width:4; stroke-opacity:1"/>
<line clip-path="url(#clip8903)" x1="4715.73" y1="1301.03" x2="4675.73" y2="1301.03" style="stroke:#000000; stroke-width:4; stroke-opacity:1"/>
<path clip-path="url(#clip8900)" d="
M3641.29 824.351 L4608.76 824.351 L4608.76 416.111 L3641.29 416.111  Z
  " fill="#ffffff" fill-rule="evenodd" fill-opacity="1"/>
<polyline clip-path="url(#clip8900)" style="stroke:#000000; stroke-width:4; stroke-opacity:1; fill:none" points="
  3641.29,824.351 4608.76,824.351 4608.76,416.111 3641.29,416.111 3641.29,824.351 
  "/>
<polyline clip-path="url(#clip8900)" style="stroke:#009af9; stroke-width:4; stroke-opacity:1; fill:none" points="
  3689.29,552.191 3977.29,552.191 
  "/>
<g clip-path="url(#clip8900)">
<text style="fill:#000000; fill-opacity:1; font-family:Arial,Helvetica Neue,Helvetica,sans-serif; font-size:107px; text-anchor:start;" transform="rotate(0, 4025.29, 591.191)" x="4025.29" y="591.191">simulation</text>
</g>
<polyline clip-path="url(#clip8900)" style="stroke:#e26f46; stroke-width:4; stroke-opacity:1; fill:none" points="
  3689.29,688.271 3977.29,688.271 
  "/>
<g clip-path="url(#clip8900)">
<text style="fill:#000000; fill-opacity:1; font-family:Arial,Helvetica Neue,Helvetica,sans-serif; font-size:107px; text-anchor:start;" transform="rotate(0, 4025.29, 727.271)" x="4025.29" y="727.271">data</text>
</g>
<path clip-path="url(#clip8900)" d="
M337.855 4409.19 L2352.76 4409.19 L2352.76 2664.19 L337.855 2664.19  Z
  " fill="#ffffff" fill-rule="evenodd" fill-opacity="1"/>
<defs>
  <clipPath id="clip8904">
    <rect x="337" y="2664" width="2016" height="1746"/>
  </clipPath>
</defs>
<polyline clip-path="url(#clip8904)" style="stroke:#000000; stroke-width:2; stroke-opacity:0.1; fill:none" points="
  394.88,4409.19 394.88,2664.19 
  "/>
<polyline clip-path="url(#clip8904)" style="stroke:#000000; stroke-width:2; stroke-opacity:0.1; fill:none" points="
  870.093,4409.19 870.093,2664.19 
  "/>
<polyline clip-path="url(#clip8904)" style="stroke:#000000; stroke-width:2; stroke-opacity:0.1; fill:none" points="
  1345.31,4409.19 1345.31,2664.19 
  "/>
<polyline clip-path="url(#clip8904)" style="stroke:#000000; stroke-width:2; stroke-opacity:0.1; fill:none" points="
  1820.52,4409.19 1820.52,2664.19 
  "/>
<polyline clip-path="url(#clip8904)" style="stroke:#000000; stroke-width:2; stroke-opacity:0.1; fill:none" points="
  2295.73,4409.19 2295.73,2664.19 
  "/>
<polyline clip-path="url(#clip8904)" style="stroke:#000000; stroke-width:2; stroke-opacity:0.1; fill:none" points="
  337.855,4409.19 2352.76,4409.19 
  "/>
<polyline clip-path="url(#clip8904)" style="stroke:#000000; stroke-width:2; stroke-opacity:0.1; fill:none" points="
  337.855,4021.41 2352.76,4021.41 
  "/>
<polyline clip-path="url(#clip8904)" style="stroke:#000000; stroke-width:2; stroke-opacity:0.1; fill:none" points="
  337.855,3633.63 2352.76,3633.63 
  "/>
<polyline clip-path="url(#clip8904)" style="stroke:#000000; stroke-width:2; stroke-opacity:0.1; fill:none" points="
  337.855,3245.86 2352.76,3245.86 
  "/>
<polyline clip-path="url(#clip8904)" style="stroke:#000000; stroke-width:2; stroke-opacity:0.1; fill:none" points="
  337.855,2858.08 2352.76,2858.08 
  "/>
<polyline clip-path="url(#clip8900)" style="stroke:#000000; stroke-width:4; stroke-opacity:1; fill:none" points="
  337.855,4409.19 2352.76,4409.19 
  "/>
<polyline clip-path="url(#clip8900)" style="stroke:#000000; stroke-width:4; stroke-opacity:1; fill:none" points="
  337.855,4409.19 337.855,2664.19 
  "/>
<polyline clip-path="url(#clip8900)" style="stroke:#000000; stroke-width:4; stroke-opacity:1; fill:none" points="
  394.88,4409.19 394.88,4388.25 
  "/>
<polyline clip-path="url(#clip8900)" style="stroke:#000000; stroke-width:4; stroke-opacity:1; fill:none" points="
  870.093,4409.19 870.093,4388.25 
  "/>
<polyline clip-path="url(#clip8900)" style="stroke:#000000; stroke-width:4; stroke-opacity:1; fill:none" points="
  1345.31,4409.19 1345.31,4388.25 
  "/>
<polyline clip-path="url(#clip8900)" style="stroke:#000000; stroke-width:4; stroke-opacity:1; fill:none" points="
  1820.52,4409.19 1820.52,4388.25 
  "/>
<polyline clip-path="url(#clip8900)" style="stroke:#000000; stroke-width:4; stroke-opacity:1; fill:none" points="
  2295.73,4409.19 2295.73,4388.25 
  "/>
<polyline clip-path="url(#clip8900)" style="stroke:#000000; stroke-width:4; stroke-opacity:1; fill:none" points="
  337.855,4409.19 362.033,4409.19 
  "/>
<polyline clip-path="url(#clip8900)" style="stroke:#000000; stroke-width:4; stroke-opacity:1; fill:none" points="
  337.855,4021.41 362.033,4021.41 
  "/>
<polyline clip-path="url(#clip8900)" style="stroke:#000000; stroke-width:4; stroke-opacity:1; fill:none" points="
  337.855,3633.63 362.033,3633.63 
  "/>
<polyline clip-path="url(#clip8900)" style="stroke:#000000; stroke-width:4; stroke-opacity:1; fill:none" points="
  337.855,3245.86 362.033,3245.86 
  "/>
<polyline clip-path="url(#clip8900)" style="stroke:#000000; stroke-width:4; stroke-opacity:1; fill:none" points="
  337.855,2858.08 362.033,2858.08 
  "/>
<g clip-path="url(#clip8900)">
<text style="fill:#000000; fill-opacity:1; font-family:Arial,Helvetica Neue,Helvetica,sans-serif; font-size:107px; text-anchor:middle;" transform="rotate(0, 394.88, 4526.79)" x="394.88" y="4526.79">0</text>
</g>
<g clip-path="url(#clip8900)">
<text style="fill:#000000; fill-opacity:1; font-family:Arial,Helvetica Neue,Helvetica,sans-serif; font-size:107px; text-anchor:middle;" transform="rotate(0, 870.093, 4526.79)" x="870.093" y="4526.79">2</text>
</g>
<g clip-path="url(#clip8900)">
<text style="fill:#000000; fill-opacity:1; font-family:Arial,Helvetica Neue,Helvetica,sans-serif; font-size:107px; text-anchor:middle;" transform="rotate(0, 1345.31, 4526.79)" x="1345.31" y="4526.79">4</text>
</g>
<g clip-path="url(#clip8900)">
<text style="fill:#000000; fill-opacity:1; font-family:Arial,Helvetica Neue,Helvetica,sans-serif; font-size:107px; text-anchor:middle;" transform="rotate(0, 1820.52, 4526.79)" x="1820.52" y="4526.79">6</text>
</g>
<g clip-path="url(#clip8900)">
<text style="fill:#000000; fill-opacity:1; font-family:Arial,Helvetica Neue,Helvetica,sans-serif; font-size:107px; text-anchor:middle;" transform="rotate(0, 2295.73, 4526.79)" x="2295.73" y="4526.79">8</text>
</g>
<g clip-path="url(#clip8900)">
<text style="fill:#000000; fill-opacity:1; font-family:Arial,Helvetica Neue,Helvetica,sans-serif; font-size:107px; text-anchor:end;" transform="rotate(0, 289.855, 4448.19)" x="289.855" y="4448.19">0</text>
</g>
<g clip-path="url(#clip8900)">
<text style="fill:#000000; fill-opacity:1; font-family:Arial,Helvetica Neue,Helvetica,sans-serif; font-size:107px; text-anchor:end;" transform="rotate(0, 289.855, 4060.41)" x="289.855" y="4060.41">1</text>
</g>
<g clip-path="url(#clip8900)">
<text style="fill:#000000; fill-opacity:1; font-family:Arial,Helvetica Neue,Helvetica,sans-serif; font-size:107px; text-anchor:end;" transform="rotate(0, 289.855, 3672.63)" x="289.855" y="3672.63">2</text>
</g>
<g clip-path="url(#clip8900)">
<text style="fill:#000000; fill-opacity:1; font-family:Arial,Helvetica Neue,Helvetica,sans-serif; font-size:107px; text-anchor:end;" transform="rotate(0, 289.855, 3284.86)" x="289.855" y="3284.86">3</text>
</g>
<g clip-path="url(#clip8900)">
<text style="fill:#000000; fill-opacity:1; font-family:Arial,Helvetica Neue,Helvetica,sans-serif; font-size:107px; text-anchor:end;" transform="rotate(0, 289.855, 2897.08)" x="289.855" y="2897.08">4</text>
</g>
<g clip-path="url(#clip8900)">
<text style="fill:#000000; fill-opacity:1; font-family:Arial,Helvetica Neue,Helvetica,sans-serif; font-size:189px; text-anchor:middle;" transform="rotate(0, 1345.31, 2565.6)" x="1345.31" y="2565.6">Overweight patient 30 mcg (2 patients)</text>
</g>
<g clip-path="url(#clip8900)">
<text style="fill:#000000; fill-opacity:1; font-family:Arial,Helvetica Neue,Helvetica,sans-serif; font-size:143px; text-anchor:middle;" transform="rotate(0, 1345.31, 4700.46)" x="1345.31" y="4700.46">Time (hours)</text>
</g>
<g clip-path="url(#clip8900)">
<text style="fill:#000000; fill-opacity:1; font-family:Arial,Helvetica Neue,Helvetica,sans-serif; font-size:143px; text-anchor:middle;" transform="rotate(-90, 155.54, 3536.69)" x="155.54" y="3536.69">T3 mcg/L</text>
</g>
<path clip-path="url(#clip8904)" d="
M394.88 4098.11 L418.641 4052.47 L442.401 3953.87 L466.162 3851.77 L489.923 3758.67 L513.683 3681.28 L537.444 3631.73 L561.204 3591.49 L584.965 3559.69 L608.726 3535.45 
  L632.486 3517.82 L656.247 3505.94 L680.008 3499 L703.768 3496.27 L727.529 3497.08 L751.29 3500.88 L775.05 3507.14 L798.811 3515.44 L822.571 3525.4 L846.332 3536.65 
  L870.093 3548.98 L893.853 3562.23 L917.614 3575.82 L941.375 3589.78 L965.135 3606.11 L988.896 3621.89 L1012.66 3632.51 L1036.42 3644.66 L1060.18 3665.75 L1083.94 3675.07 
  L1107.7 3690.92 L1131.46 3704.81 L1155.22 3717.58 L1178.98 3731.87 L1202.74 3743.58 L1226.5 3757.39 L1250.26 3768.29 L1274.02 3781.39 L1297.78 3791.92 L1321.54 3803.63 
  L1345.31 3814.35 L1369.07 3824.03 L1392.83 3835.24 L1416.59 3843.55 L1440.35 3854.11 L1464.11 3862.6 L1487.87 3870.97 L1511.63 3880.34 L1535.39 3886.89 L1559.15 3896.26 
  L1582.91 3902.67 L1606.67 3910.38 L1630.43 3917.55 L1654.19 3923.33 L1677.95 3931.06 L1701.71 3935.93 L1725.48 3943.06 L1749.24 3948.26 L1773 3953.75 L1796.76 3959.71 
  L1820.52 3965.38 L1844.28 3970.09 L1868.04 3977.08 L1891.8 3981.67 L1915.56 3987.39 L1939.32 3992.72 L1963.08 3996.76 L1986.84 4002.64 L2010.6 4006.02 L2034.36 4011.26 
  L2058.12 4015.22 L2081.88 4018.91 L2105.65 4023.67 L2129.41 4026.25 L2153.17 4030.99 L2176.93 4033.83 L2200.69 4037.34 L2224.45 4041.01 L2248.21 4043.19 L2271.97 4046.93 
  L2295.73 4049.58 L2295.73 4036.02 L2271.97 4033.09 L2248.21 4031.55 L2224.45 4027.97 L2200.69 4025.66 L2176.93 4022.88 L2153.17 4019.22 L2129.41 4017.15 L2105.65 4012.76 
  L2081.88 4010.46 L2058.12 4006.53 L2034.36 4002.91 L2010.6 3999.83 L1986.84 3994.9 L1963.08 3992.15 L1939.32 3987.02 L1915.56 3983.34 L1891.8 3978.95 L1868.04 3973.7 
  L1844.28 3969.98 L1820.52 3963.71 L1796.76 3958.46 L1773 3952.19 L1749.24 3945.99 L1725.48 3937.94 L1701.71 3932.09 L1677.95 3923.36 L1654.19 3916.44 L1630.43 3908.17 
  L1606.67 3899.14 L1582.91 3891.58 L1559.15 3880.91 L1535.39 3873.02 L1511.63 3862.39 L1487.87 3852.25 L1464.11 3842.48 L1440.35 3830.08 L1416.59 3820.28 L1392.83 3807.55 
  L1369.07 3795.68 L1345.31 3783.48 L1321.54 3769.4 L1297.78 3757.14 L1274.02 3742.18 L1250.26 3728.66 L1226.5 3713.45 L1202.74 3698.19 L1178.98 3682.98 L1155.22 3665.64 
  L1131.46 3651.25 L1107.7 3630.32 L1083.94 3619.97 L1060.18 3595.97 L1036.42 3580.41 L1012.66 3569.09 L988.896 3550.55 L965.135 3529.76 L941.375 3513.26 L917.614 3496.91 
  L893.853 3480.77 L870.093 3465.57 L846.332 3451.61 L822.571 3439.05 L798.811 3428.3 L775.05 3419.8 L751.29 3414.02 L727.529 3411.56 L703.768 3413.07 L680.008 3419.3 
  L656.247 3431.11 L632.486 3449.44 L608.726 3475.36 L584.965 3510 L561.204 3554.56 L537.444 3610.22 L513.683 3678.04 L489.923 3740.59 L466.162 3809.43 L442.401 3885.44 
  L418.641 3958.37 L394.88 3990.08  Z
  " fill="#009af9" fill-rule="evenodd" fill-opacity="0.3"/>
<polyline clip-path="url(#clip8904)" style="stroke:#009af9; stroke-width:4; stroke-opacity:1; fill:none" points="
  394.88,4044.09 418.641,4005.42 442.401,3919.65 466.162,3830.6 489.923,3749.63 513.683,3679.66 537.444,3620.97 561.204,3573.03 584.965,3534.84 608.726,3505.4 
  632.486,3483.63 656.247,3468.53 680.008,3459.15 703.768,3454.67 727.529,3454.32 751.29,3457.45 775.05,3463.47 798.811,3471.87 822.571,3482.22 846.332,3494.13 
  870.093,3507.27 893.853,3521.5 917.614,3536.37 941.375,3551.52 965.135,3567.93 988.896,3586.22 1012.66,3600.8 1036.42,3612.53 1060.18,3630.86 1083.94,3647.52 
  1107.7,3660.62 1131.46,3678.03 1155.22,3691.61 1178.98,3707.42 1202.74,3720.89 1226.5,3735.42 1250.26,3748.47 1274.02,3761.78 1297.78,3774.53 1321.54,3786.52 
  1345.31,3798.91 1369.07,3809.85 1392.83,3821.39 1416.59,3831.92 1440.35,3842.1 1464.11,3852.54 1487.87,3861.61 1511.63,3871.36 1535.39,3879.95 1559.15,3888.58 
  1582.91,3897.12 1606.67,3904.76 1630.43,3912.86 1654.19,3919.88 1677.95,3927.21 1701.71,3934.01 1725.48,3940.5 1749.24,3947.12 1773,3952.97 1796.76,3959.09 
  1820.52,3964.55 1844.28,3970.03 1868.04,3975.39 1891.8,3980.31 1915.56,3985.37 1939.32,3989.87 1963.08,3994.46 1986.84,3998.77 2010.6,4002.93 2034.36,4007.08 
  2058.12,4010.88 2081.88,4014.68 2105.65,4018.22 2129.41,4021.7 2153.17,4025.11 2176.93,4028.35 2200.69,4031.5 2224.45,4034.49 2248.21,4037.37 2271.97,4040.01 
  2295.73,4042.8 
  "/>
<polyline clip-path="url(#clip8904)" style="stroke:#e26f46; stroke-width:4; stroke-opacity:1; fill:none" points="
  394.88,4044.09 513.683,3975.07 632.486,3870.95 870.093,3720.88 1107.7,3768 1345.31,3814.53 1582.91,3852.92 1820.52,3937.07 2058.12,3992.52 2295.73,3959.17 
  
  "/>
<polyline clip-path="url(#clip8904)" style="stroke:#e26f46; stroke-width:4; stroke-opacity:1; fill:none" points="
  394.88,4229.29 394.88,3858.9 
  "/>
<polyline clip-path="url(#clip8904)" style="stroke:#e26f46; stroke-width:4; stroke-opacity:1; fill:none" points="
  513.683,4245.2 513.683,3704.94 
  "/>
<polyline clip-path="url(#clip8904)" style="stroke:#e26f46; stroke-width:4; stroke-opacity:1; fill:none" points="
  632.486,4226.36 632.486,3515.55 
  "/>
<polyline clip-path="url(#clip8904)" style="stroke:#e26f46; stroke-width:4; stroke-opacity:1; fill:none" points="
  870.093,3993.29 870.093,3448.47 
  "/>
<polyline clip-path="url(#clip8904)" style="stroke:#e26f46; stroke-width:4; stroke-opacity:1; fill:none" points="
  1107.7,4059.2 1107.7,3476.79 
  "/>
<polyline clip-path="url(#clip8904)" style="stroke:#e26f46; stroke-width:4; stroke-opacity:1; fill:none" points="
  1345.31,4063.34 1345.31,3565.72 
  "/>
<polyline clip-path="url(#clip8904)" style="stroke:#e26f46; stroke-width:4; stroke-opacity:1; fill:none" points="
  1582.91,4097.15 1582.91,3608.69 
  "/>
<polyline clip-path="url(#clip8904)" style="stroke:#e26f46; stroke-width:4; stroke-opacity:1; fill:none" points="
  1820.52,4176.2 1820.52,3697.94 
  "/>
<polyline clip-path="url(#clip8904)" style="stroke:#e26f46; stroke-width:4; stroke-opacity:1; fill:none" points="
  2058.12,4235 2058.12,3750.04 
  "/>
<polyline clip-path="url(#clip8904)" style="stroke:#e26f46; stroke-width:4; stroke-opacity:1; fill:none" points="
  2295.73,4218.9 2295.73,3699.44 
  "/>
<line clip-path="url(#clip8904)" x1="414.88" y1="4229.29" x2="374.88" y2="4229.29" style="stroke:#000000; stroke-width:4; stroke-opacity:1"/>
<line clip-path="url(#clip8904)" x1="414.88" y1="3858.9" x2="374.88" y2="3858.9" style="stroke:#000000; stroke-width:4; stroke-opacity:1"/>
<line clip-path="url(#clip8904)" x1="533.683" y1="4245.2" x2="493.683" y2="4245.2" style="stroke:#000000; stroke-width:4; stroke-opacity:1"/>
<line clip-path="url(#clip8904)" x1="533.683" y1="3704.94" x2="493.683" y2="3704.94" style="stroke:#000000; stroke-width:4; stroke-opacity:1"/>
<line clip-path="url(#clip8904)" x1="652.486" y1="4226.36" x2="612.486" y2="4226.36" style="stroke:#000000; stroke-width:4; stroke-opacity:1"/>
<line clip-path="url(#clip8904)" x1="652.486" y1="3515.55" x2="612.486" y2="3515.55" style="stroke:#000000; stroke-width:4; stroke-opacity:1"/>
<line clip-path="url(#clip8904)" x1="890.093" y1="3993.29" x2="850.093" y2="3993.29" style="stroke:#000000; stroke-width:4; stroke-opacity:1"/>
<line clip-path="url(#clip8904)" x1="890.093" y1="3448.47" x2="850.093" y2="3448.47" style="stroke:#000000; stroke-width:4; stroke-opacity:1"/>
<line clip-path="url(#clip8904)" x1="1127.7" y1="4059.2" x2="1087.7" y2="4059.2" style="stroke:#000000; stroke-width:4; stroke-opacity:1"/>
<line clip-path="url(#clip8904)" x1="1127.7" y1="3476.79" x2="1087.7" y2="3476.79" style="stroke:#000000; stroke-width:4; stroke-opacity:1"/>
<line clip-path="url(#clip8904)" x1="1365.31" y1="4063.34" x2="1325.31" y2="4063.34" style="stroke:#000000; stroke-width:4; stroke-opacity:1"/>
<line clip-path="url(#clip8904)" x1="1365.31" y1="3565.72" x2="1325.31" y2="3565.72" style="stroke:#000000; stroke-width:4; stroke-opacity:1"/>
<line clip-path="url(#clip8904)" x1="1602.91" y1="4097.15" x2="1562.91" y2="4097.15" style="stroke:#000000; stroke-width:4; stroke-opacity:1"/>
<line clip-path="url(#clip8904)" x1="1602.91" y1="3608.69" x2="1562.91" y2="3608.69" style="stroke:#000000; stroke-width:4; stroke-opacity:1"/>
<line clip-path="url(#clip8904)" x1="1840.52" y1="4176.2" x2="1800.52" y2="4176.2" style="stroke:#000000; stroke-width:4; stroke-opacity:1"/>
<line clip-path="url(#clip8904)" x1="1840.52" y1="3697.94" x2="1800.52" y2="3697.94" style="stroke:#000000; stroke-width:4; stroke-opacity:1"/>
<line clip-path="url(#clip8904)" x1="2078.12" y1="4235" x2="2038.12" y2="4235" style="stroke:#000000; stroke-width:4; stroke-opacity:1"/>
<line clip-path="url(#clip8904)" x1="2078.12" y1="3750.04" x2="2038.12" y2="3750.04" style="stroke:#000000; stroke-width:4; stroke-opacity:1"/>
<line clip-path="url(#clip8904)" x1="2315.73" y1="4218.9" x2="2275.73" y2="4218.9" style="stroke:#000000; stroke-width:4; stroke-opacity:1"/>
<line clip-path="url(#clip8904)" x1="2315.73" y1="3699.44" x2="2275.73" y2="3699.44" style="stroke:#000000; stroke-width:4; stroke-opacity:1"/>
<path clip-path="url(#clip8900)" d="
M1241.29 3224.35 L2208.76 3224.35 L2208.76 2816.11 L1241.29 2816.11  Z
  " fill="#ffffff" fill-rule="evenodd" fill-opacity="1"/>
<polyline clip-path="url(#clip8900)" style="stroke:#000000; stroke-width:4; stroke-opacity:1; fill:none" points="
  1241.29,3224.35 2208.76,3224.35 2208.76,2816.11 1241.29,2816.11 1241.29,3224.35 
  "/>
<polyline clip-path="url(#clip8900)" style="stroke:#009af9; stroke-width:4; stroke-opacity:1; fill:none" points="
  1289.29,2952.19 1577.29,2952.19 
  "/>
<g clip-path="url(#clip8900)">
<text style="fill:#000000; fill-opacity:1; font-family:Arial,Helvetica Neue,Helvetica,sans-serif; font-size:107px; text-anchor:start;" transform="rotate(0, 1625.29, 2991.19)" x="1625.29" y="2991.19">simulation</text>
</g>
<polyline clip-path="url(#clip8900)" style="stroke:#e26f46; stroke-width:4; stroke-opacity:1; fill:none" points="
  1289.29,3088.27 1577.29,3088.27 
  "/>
<g clip-path="url(#clip8900)">
<text style="fill:#000000; fill-opacity:1; font-family:Arial,Helvetica Neue,Helvetica,sans-serif; font-size:107px; text-anchor:start;" transform="rotate(0, 1625.29, 3127.27)" x="1625.29" y="3127.27">data</text>
</g>
<path clip-path="url(#clip8900)" d="
M2737.85 4409.19 L4752.76 4409.19 L4752.76 2664.19 L2737.85 2664.19  Z
  " fill="#ffffff" fill-rule="evenodd" fill-opacity="1"/>
<defs>
  <clipPath id="clip8905">
    <rect x="2737" y="2664" width="2016" height="1746"/>
  </clipPath>
</defs>
<polyline clip-path="url(#clip8905)" style="stroke:#000000; stroke-width:2; stroke-opacity:0.1; fill:none" points="
  2794.88,4409.19 2794.88,2664.19 
  "/>
<polyline clip-path="url(#clip8905)" style="stroke:#000000; stroke-width:2; stroke-opacity:0.1; fill:none" points="
  3270.09,4409.19 3270.09,2664.19 
  "/>
<polyline clip-path="url(#clip8905)" style="stroke:#000000; stroke-width:2; stroke-opacity:0.1; fill:none" points="
  3745.31,4409.19 3745.31,2664.19 
  "/>
<polyline clip-path="url(#clip8905)" style="stroke:#000000; stroke-width:2; stroke-opacity:0.1; fill:none" points="
  4220.52,4409.19 4220.52,2664.19 
  "/>
<polyline clip-path="url(#clip8905)" style="stroke:#000000; stroke-width:2; stroke-opacity:0.1; fill:none" points="
  4695.73,4409.19 4695.73,2664.19 
  "/>
<polyline clip-path="url(#clip8905)" style="stroke:#000000; stroke-width:2; stroke-opacity:0.1; fill:none" points="
  2737.85,4409.19 4752.76,4409.19 
  "/>
<polyline clip-path="url(#clip8905)" style="stroke:#000000; stroke-width:2; stroke-opacity:0.1; fill:none" points="
  2737.85,4021.41 4752.76,4021.41 
  "/>
<polyline clip-path="url(#clip8905)" style="stroke:#000000; stroke-width:2; stroke-opacity:0.1; fill:none" points="
  2737.85,3633.63 4752.76,3633.63 
  "/>
<polyline clip-path="url(#clip8905)" style="stroke:#000000; stroke-width:2; stroke-opacity:0.1; fill:none" points="
  2737.85,3245.86 4752.76,3245.86 
  "/>
<polyline clip-path="url(#clip8905)" style="stroke:#000000; stroke-width:2; stroke-opacity:0.1; fill:none" points="
  2737.85,2858.08 4752.76,2858.08 
  "/>
<polyline clip-path="url(#clip8900)" style="stroke:#000000; stroke-width:4; stroke-opacity:1; fill:none" points="
  2737.85,4409.19 4752.76,4409.19 
  "/>
<polyline clip-path="url(#clip8900)" style="stroke:#000000; stroke-width:4; stroke-opacity:1; fill:none" points="
  2737.85,4409.19 2737.85,2664.19 
  "/>
<polyline clip-path="url(#clip8900)" style="stroke:#000000; stroke-width:4; stroke-opacity:1; fill:none" points="
  2794.88,4409.19 2794.88,4388.25 
  "/>
<polyline clip-path="url(#clip8900)" style="stroke:#000000; stroke-width:4; stroke-opacity:1; fill:none" points="
  3270.09,4409.19 3270.09,4388.25 
  "/>
<polyline clip-path="url(#clip8900)" style="stroke:#000000; stroke-width:4; stroke-opacity:1; fill:none" points="
  3745.31,4409.19 3745.31,4388.25 
  "/>
<polyline clip-path="url(#clip8900)" style="stroke:#000000; stroke-width:4; stroke-opacity:1; fill:none" points="
  4220.52,4409.19 4220.52,4388.25 
  "/>
<polyline clip-path="url(#clip8900)" style="stroke:#000000; stroke-width:4; stroke-opacity:1; fill:none" points="
  4695.73,4409.19 4695.73,4388.25 
  "/>
<polyline clip-path="url(#clip8900)" style="stroke:#000000; stroke-width:4; stroke-opacity:1; fill:none" points="
  2737.85,4409.19 2762.03,4409.19 
  "/>
<polyline clip-path="url(#clip8900)" style="stroke:#000000; stroke-width:4; stroke-opacity:1; fill:none" points="
  2737.85,4021.41 2762.03,4021.41 
  "/>
<polyline clip-path="url(#clip8900)" style="stroke:#000000; stroke-width:4; stroke-opacity:1; fill:none" points="
  2737.85,3633.63 2762.03,3633.63 
  "/>
<polyline clip-path="url(#clip8900)" style="stroke:#000000; stroke-width:4; stroke-opacity:1; fill:none" points="
  2737.85,3245.86 2762.03,3245.86 
  "/>
<polyline clip-path="url(#clip8900)" style="stroke:#000000; stroke-width:4; stroke-opacity:1; fill:none" points="
  2737.85,2858.08 2762.03,2858.08 
  "/>
<g clip-path="url(#clip8900)">
<text style="fill:#000000; fill-opacity:1; font-family:Arial,Helvetica Neue,Helvetica,sans-serif; font-size:107px; text-anchor:middle;" transform="rotate(0, 2794.88, 4526.79)" x="2794.88" y="4526.79">0</text>
</g>
<g clip-path="url(#clip8900)">
<text style="fill:#000000; fill-opacity:1; font-family:Arial,Helvetica Neue,Helvetica,sans-serif; font-size:107px; text-anchor:middle;" transform="rotate(0, 3270.09, 4526.79)" x="3270.09" y="4526.79">2</text>
</g>
<g clip-path="url(#clip8900)">
<text style="fill:#000000; fill-opacity:1; font-family:Arial,Helvetica Neue,Helvetica,sans-serif; font-size:107px; text-anchor:middle;" transform="rotate(0, 3745.31, 4526.79)" x="3745.31" y="4526.79">4</text>
</g>
<g clip-path="url(#clip8900)">
<text style="fill:#000000; fill-opacity:1; font-family:Arial,Helvetica Neue,Helvetica,sans-serif; font-size:107px; text-anchor:middle;" transform="rotate(0, 4220.52, 4526.79)" x="4220.52" y="4526.79">6</text>
</g>
<g clip-path="url(#clip8900)">
<text style="fill:#000000; fill-opacity:1; font-family:Arial,Helvetica Neue,Helvetica,sans-serif; font-size:107px; text-anchor:middle;" transform="rotate(0, 4695.73, 4526.79)" x="4695.73" y="4526.79">8</text>
</g>
<g clip-path="url(#clip8900)">
<text style="fill:#000000; fill-opacity:1; font-family:Arial,Helvetica Neue,Helvetica,sans-serif; font-size:107px; text-anchor:end;" transform="rotate(0, 2689.85, 4448.19)" x="2689.85" y="4448.19">0</text>
</g>
<g clip-path="url(#clip8900)">
<text style="fill:#000000; fill-opacity:1; font-family:Arial,Helvetica Neue,Helvetica,sans-serif; font-size:107px; text-anchor:end;" transform="rotate(0, 2689.85, 4060.41)" x="2689.85" y="4060.41">1</text>
</g>
<g clip-path="url(#clip8900)">
<text style="fill:#000000; fill-opacity:1; font-family:Arial,Helvetica Neue,Helvetica,sans-serif; font-size:107px; text-anchor:end;" transform="rotate(0, 2689.85, 3672.63)" x="2689.85" y="3672.63">2</text>
</g>
<g clip-path="url(#clip8900)">
<text style="fill:#000000; fill-opacity:1; font-family:Arial,Helvetica Neue,Helvetica,sans-serif; font-size:107px; text-anchor:end;" transform="rotate(0, 2689.85, 3284.86)" x="2689.85" y="3284.86">3</text>
</g>
<g clip-path="url(#clip8900)">
<text style="fill:#000000; fill-opacity:1; font-family:Arial,Helvetica Neue,Helvetica,sans-serif; font-size:107px; text-anchor:end;" transform="rotate(0, 2689.85, 2897.08)" x="2689.85" y="2897.08">4</text>
</g>
<g clip-path="url(#clip8900)">
<text style="fill:#000000; fill-opacity:1; font-family:Arial,Helvetica Neue,Helvetica,sans-serif; font-size:189px; text-anchor:middle;" transform="rotate(0, 3745.31, 2565.6)" x="3745.31" y="2565.6">Overweight patient 45 mcg (4 patients)</text>
</g>
<g clip-path="url(#clip8900)">
<text style="fill:#000000; fill-opacity:1; font-family:Arial,Helvetica Neue,Helvetica,sans-serif; font-size:143px; text-anchor:middle;" transform="rotate(0, 3745.31, 4700.46)" x="3745.31" y="4700.46">Time (hours)</text>
</g>
<g clip-path="url(#clip8900)">
<text style="fill:#000000; fill-opacity:1; font-family:Arial,Helvetica Neue,Helvetica,sans-serif; font-size:143px; text-anchor:middle;" transform="rotate(-90, 2555.54, 3536.69)" x="2555.54" y="3536.69">T3 mcg/L</text>
</g>
<path clip-path="url(#clip8905)" d="
M2794.88 4107.31 L2818.64 4041.29 L2842.4 3896.78 L2866.16 3745.09 L2889.92 3606.43 L2913.68 3485.95 L2937.44 3384.26 L2961.2 3300.56 L2984.97 3233.29 L3008.73 3180.71 
  L3032.49 3141.07 L3056.25 3112.69 L3080.01 3094.02 L3103.77 3083.63 L3127.53 3080.29 L3151.29 3082.87 L3175.05 3090.41 L3198.81 3102.04 L3222.57 3117.04 L3246.33 3134.77 
  L3270.09 3154.68 L3293.85 3176.3 L3317.61 3199.25 L3341.37 3223.19 L3365.14 3247.59 L3388.9 3272.67 L3412.66 3298.55 L3436.42 3325.76 L3460.18 3348.52 L3483.94 3372.62 
  L3507.7 3398.48 L3531.46 3424.14 L3555.22 3447.15 L3578.98 3467.83 L3602.74 3493.52 L3626.5 3512.66 L3650.26 3536.89 L3674.02 3556.53 L3697.78 3578 L3721.54 3597.7 
  L3745.31 3616.54 L3769.07 3635.86 L3792.83 3652.71 L3816.59 3670.99 L3840.35 3687.4 L3864.11 3703.32 L3887.87 3719.7 L3911.63 3733.49 L3935.39 3748.99 L3959.15 3762.69 
  L3982.91 3775.7 L4006.67 3789.68 L4030.43 3800.68 L4054.19 3813.88 L4077.95 3824.99 L4101.71 3835.89 L4125.48 3847.53 L4149.24 3856.44 L4173 3867.6 L4196.76 3876.46 
  L4220.52 3885.76 L4244.28 3895.28 L4268.04 3902.59 L4291.8 3912 L4315.56 3919.04 L4339.32 3926.96 L4363.08 3934.74 L4386.84 3940.73 L4410.6 3948.72 L4434.36 3954.28 
  L4458.12 3961.05 L4481.88 3967.39 L4505.65 3972.34 L4529.41 3979.13 L4553.17 3983.52 L4576.93 3989.35 L4600.69 3994.49 L4624.45 3998.64 L4648.21 4004.41 L4671.97 4007.97 
  L4695.73 4012.52 L4695.73 3928.15 L4671.97 3923.47 L4648.21 3918.44 L4624.45 3913.84 L4600.69 3908.26 L4576.93 3902.96 L4553.17 3897.4 L4529.41 3891.19 L4505.65 3885.59 
  L4481.88 3878.84 L4458.12 3872.62 L4434.36 3865.73 L4410.6 3858.46 L4386.84 3851.58 L4363.08 3843.45 L4339.32 3836.03 L4315.56 3827.55 L4291.8 3818.99 L4268.04 3810.48 
  L4244.28 3800.73 L4220.52 3791.79 L4196.76 3781.37 L4173 3771.25 L4149.24 3760.7 L4125.48 3749.05 L4101.71 3738.22 L4077.95 3725.41 L4054.19 3713.48 L4030.43 3700.38 
  L4006.67 3686.52 L3982.91 3673.37 L3959.15 3657.75 L3935.39 3643.53 L3911.63 3627.57 L3887.87 3611.02 L3864.11 3594.94 L3840.35 3576.47 L3816.59 3559.07 L3792.83 3540.04 
  L3769.07 3520.43 L3745.31 3500.76 L3721.54 3479.31 L3697.78 3458.43 L3674.02 3435.52 L3650.26 3413.24 L3626.5 3388.86 L3602.74 3365.21 L3578.98 3340.74 L3555.22 3312.94 
  L3531.46 3291.74 L3507.7 3259.15 L3483.94 3235.87 L3460.18 3212.45 L3436.42 3183.25 L3412.66 3153.74 L3388.9 3126.1 L3365.14 3098.77 L3341.37 3071.64 L3317.61 3045.32 
  L3293.85 3020.09 L3270.09 2996.21 L3246.33 2974.14 L3222.57 2954.39 L3198.81 2937.53 L3175.05 2924.26 L3151.29 2915.35 L3127.53 2911.73 L3103.77 2914.45 L3080.01 2924.69 
  L3056.25 2943.81 L3032.49 2973.32 L3008.73 3014.9 L2984.97 3070.36 L2961.2 3141.57 L2937.44 3230.39 L2913.68 3338.52 L2889.92 3466.86 L2866.16 3614.76 L2842.4 3776.84 
  L2818.64 3931.73 L2794.88 4002.4  Z
  " fill="#009af9" fill-rule="evenodd" fill-opacity="0.3"/>
<polyline clip-path="url(#clip8905)" style="stroke:#009af9; stroke-width:4; stroke-opacity:1; fill:none" points="
  2794.88,4054.86 2818.64,3986.51 2842.4,3836.81 2866.16,3679.92 2889.92,3536.64 2913.68,3412.24 2937.44,3307.33 2961.2,3221.06 2984.97,3151.82 3008.73,3097.81 
  3032.49,3057.2 3056.25,3028.25 3080.01,3009.35 3103.77,2999.04 3127.53,2996.01 3151.29,2999.11 3175.05,3007.33 3198.81,3019.79 3222.57,3035.72 3246.33,3054.46 
  3270.09,3075.45 3293.85,3098.19 3317.61,3122.29 3341.37,3147.42 3365.14,3173.18 3388.9,3199.39 3412.66,3226.15 3436.42,3254.5 3460.18,3280.49 3483.94,3304.25 
  3507.7,3328.82 3531.46,3357.94 3555.22,3380.05 3578.98,3404.29 3602.74,3429.36 3626.5,3450.76 3650.26,3475.07 3674.02,3496.02 3697.78,3518.21 3721.54,3538.51 
  3745.31,3558.65 3769.07,3578.15 3792.83,3596.38 3816.59,3615.03 3840.35,3631.94 3864.11,3649.13 3887.87,3665.36 3911.63,3680.53 3935.39,3696.26 3959.15,3710.22 
  3982.91,3724.53 4006.67,3738.1 4030.43,3750.53 4054.19,3763.68 4077.95,3775.2 4101.71,3787.05 4125.48,3798.29 4149.24,3808.57 4173,3819.43 4196.76,3828.92 
  4220.52,3838.77 4244.28,3848 4268.04,3856.53 4291.8,3865.49 4315.56,3873.3 4339.32,3881.5 4363.08,3889.09 4386.84,3896.16 4410.6,3903.59 4434.36,3910.01 
  4458.12,3916.83 4481.88,3923.12 4505.65,3928.97 4529.41,3935.16 4553.17,3940.46 4576.93,3946.15 4600.69,3951.37 4624.45,3956.24 4648.21,3961.42 4671.97,3965.72 
  4695.73,3970.34 
  "/>
<polyline clip-path="url(#clip8905)" style="stroke:#e26f46; stroke-width:4; stroke-opacity:1; fill:none" points="
  2794.88,4054.86 2913.68,3931.83 3032.49,3314.98 3270.09,2930.21 3507.7,3141.45 3745.31,3277.17 3982.91,3489.48 4220.52,3602.03 4458.12,3703.24 4695.73,3786.03 
  
  "/>
<polyline clip-path="url(#clip8905)" style="stroke:#e26f46; stroke-width:4; stroke-opacity:1; fill:none" points="
  2794.88,4107.31 2794.88,4002.4 
  "/>
<polyline clip-path="url(#clip8905)" style="stroke:#e26f46; stroke-width:4; stroke-opacity:1; fill:none" points="
  2913.68,3971.12 2913.68,3892.54 
  "/>
<polyline clip-path="url(#clip8905)" style="stroke:#e26f46; stroke-width:4; stroke-opacity:1; fill:none" points="
  3032.49,3590.2 3032.49,3039.75 
  "/>
<polyline clip-path="url(#clip8905)" style="stroke:#e26f46; stroke-width:4; stroke-opacity:1; fill:none" points="
  3270.09,3337.96 3270.09,2522.45 
  "/>
<polyline clip-path="url(#clip8905)" style="stroke:#e26f46; stroke-width:4; stroke-opacity:1; fill:none" points="
  3507.7,3514.35 3507.7,2768.54 
  "/>
<polyline clip-path="url(#clip8905)" style="stroke:#e26f46; stroke-width:4; stroke-opacity:1; fill:none" points="
  3745.31,3565.4 3745.31,2988.94 
  "/>
<polyline clip-path="url(#clip8905)" style="stroke:#e26f46; stroke-width:4; stroke-opacity:1; fill:none" points="
  3982.91,3690.81 3982.91,3288.15 
  "/>
<polyline clip-path="url(#clip8905)" style="stroke:#e26f46; stroke-width:4; stroke-opacity:1; fill:none" points="
  4220.52,3731.01 4220.52,3473.04 
  "/>
<polyline clip-path="url(#clip8905)" style="stroke:#e26f46; stroke-width:4; stroke-opacity:1; fill:none" points="
  4458.12,3850.85 4458.12,3555.62 
  "/>
<polyline clip-path="url(#clip8905)" style="stroke:#e26f46; stroke-width:4; stroke-opacity:1; fill:none" points="
  4695.73,3905.41 4695.73,3666.65 
  "/>
<line clip-path="url(#clip8905)" x1="2814.88" y1="4107.31" x2="2774.88" y2="4107.31" style="stroke:#000000; stroke-width:4; stroke-opacity:1"/>
<line clip-path="url(#clip8905)" x1="2814.88" y1="4002.4" x2="2774.88" y2="4002.4" style="stroke:#000000; stroke-width:4; stroke-opacity:1"/>
<line clip-path="url(#clip8905)" x1="2933.68" y1="3971.12" x2="2893.68" y2="3971.12" style="stroke:#000000; stroke-width:4; stroke-opacity:1"/>
<line clip-path="url(#clip8905)" x1="2933.68" y1="3892.54" x2="2893.68" y2="3892.54" style="stroke:#000000; stroke-width:4; stroke-opacity:1"/>
<line clip-path="url(#clip8905)" x1="3052.49" y1="3590.2" x2="3012.49" y2="3590.2" style="stroke:#000000; stroke-width:4; stroke-opacity:1"/>
<line clip-path="url(#clip8905)" x1="3052.49" y1="3039.75" x2="3012.49" y2="3039.75" style="stroke:#000000; stroke-width:4; stroke-opacity:1"/>
<line clip-path="url(#clip8905)" x1="3290.09" y1="3337.96" x2="3250.09" y2="3337.96" style="stroke:#000000; stroke-width:4; stroke-opacity:1"/>
<line clip-path="url(#clip8905)" x1="3527.7" y1="3514.35" x2="3487.7" y2="3514.35" style="stroke:#000000; stroke-width:4; stroke-opacity:1"/>
<line clip-path="url(#clip8905)" x1="3527.7" y1="2768.54" x2="3487.7" y2="2768.54" style="stroke:#000000; stroke-width:4; stroke-opacity:1"/>
<line clip-path="url(#clip8905)" x1="3765.31" y1="3565.4" x2="3725.31" y2="3565.4" style="stroke:#000000; stroke-width:4; stroke-opacity:1"/>
<line clip-path="url(#clip8905)" x1="3765.31" y1="2988.94" x2="3725.31" y2="2988.94" style="stroke:#000000; stroke-width:4; stroke-opacity:1"/>
<line clip-path="url(#clip8905)" x1="4002.91" y1="3690.81" x2="3962.91" y2="3690.81" style="stroke:#000000; stroke-width:4; stroke-opacity:1"/>
<line clip-path="url(#clip8905)" x1="4002.91" y1="3288.15" x2="3962.91" y2="3288.15" style="stroke:#000000; stroke-width:4; stroke-opacity:1"/>
<line clip-path="url(#clip8905)" x1="4240.52" y1="3731.01" x2="4200.52" y2="3731.01" style="stroke:#000000; stroke-width:4; stroke-opacity:1"/>
<line clip-path="url(#clip8905)" x1="4240.52" y1="3473.04" x2="4200.52" y2="3473.04" style="stroke:#000000; stroke-width:4; stroke-opacity:1"/>
<line clip-path="url(#clip8905)" x1="4478.12" y1="3850.85" x2="4438.12" y2="3850.85" style="stroke:#000000; stroke-width:4; stroke-opacity:1"/>
<line clip-path="url(#clip8905)" x1="4478.12" y1="3555.62" x2="4438.12" y2="3555.62" style="stroke:#000000; stroke-width:4; stroke-opacity:1"/>
<line clip-path="url(#clip8905)" x1="4715.73" y1="3905.41" x2="4675.73" y2="3905.41" style="stroke:#000000; stroke-width:4; stroke-opacity:1"/>
<line clip-path="url(#clip8905)" x1="4715.73" y1="3666.65" x2="4675.73" y2="3666.65" style="stroke:#000000; stroke-width:4; stroke-opacity:1"/>
<path clip-path="url(#clip8900)" d="
M3641.29 3224.35 L4608.76 3224.35 L4608.76 2816.11 L3641.29 2816.11  Z
  " fill="#ffffff" fill-rule="evenodd" fill-opacity="1"/>
<polyline clip-path="url(#clip8900)" style="stroke:#000000; stroke-width:4; stroke-opacity:1; fill:none" points="
  3641.29,3224.35 4608.76,3224.35 4608.76,2816.11 3641.29,2816.11 3641.29,3224.35 
  "/>
<polyline clip-path="url(#clip8900)" style="stroke:#009af9; stroke-width:4; stroke-opacity:1; fill:none" points="
  3689.29,2952.19 3977.29,2952.19 
  "/>
<g clip-path="url(#clip8900)">
<text style="fill:#000000; fill-opacity:1; font-family:Arial,Helvetica Neue,Helvetica,sans-serif; font-size:107px; text-anchor:start;" transform="rotate(0, 4025.29, 2991.19)" x="4025.29" y="2991.19">simulation</text>
</g>
<polyline clip-path="url(#clip8900)" style="stroke:#e26f46; stroke-width:4; stroke-opacity:1; fill:none" points="
  3689.29,3088.27 3977.29,3088.27 
  "/>
<g clip-path="url(#clip8900)">
<text style="fill:#000000; fill-opacity:1; font-family:Arial,Helvetica Neue,Helvetica,sans-serif; font-size:107px; text-anchor:start;" transform="rotate(0, 4025.29, 3127.27)" x="4025.29" y="3127.27">data</text>
</g>
</svg>
