<?xml version="1.0" encoding="utf-8"?>
<svg xmlns="http://www.w3.org/2000/svg" xmlns:xlink="http://www.w3.org/1999/xlink" width="1200" height="1200" viewBox="0 0 4800 4800">
<defs>
  <clipPath id="clip2000">
    <rect x="0" y="0" width="4800" height="4800"/>
  </clipPath>
</defs>
<path clip-path="url(#clip2000)" d="
M0 4800 L4800 4800 L4800 0 L0 0  Z
  " fill="#ffffff" fill-rule="evenodd" fill-opacity="1"/>
<defs>
  <clipPath id="clip2001">
    <rect x="960" y="480" width="3361" height="3361"/>
  </clipPath>
</defs>
<path clip-path="url(#clip2000)" d="
M267.483 2097.21 L2352.76 2097.21 L2352.76 195.029 L267.483 195.029  Z
  " fill="#ffffff" fill-rule="evenodd" fill-opacity="1"/>
<defs>
  <clipPath id="clip2002">
    <rect x="267" y="195" width="2086" height="1903"/>
  </clipPath>
</defs>
<polyline clip-path="url(#clip2002)" style="stroke:#000000; stroke-width:2; stroke-opacity:0.1; fill:none" points="
  326.5,2097.21 326.5,195.029 
  "/>
<polyline clip-path="url(#clip2002)" style="stroke:#000000; stroke-width:2; stroke-opacity:0.1; fill:none" points="
  818.31,2097.21 818.31,195.029 
  "/>
<polyline clip-path="url(#clip2002)" style="stroke:#000000; stroke-width:2; stroke-opacity:0.1; fill:none" points="
  1310.12,2097.21 1310.12,195.029 
  "/>
<polyline clip-path="url(#clip2002)" style="stroke:#000000; stroke-width:2; stroke-opacity:0.1; fill:none" points="
  1801.93,2097.21 1801.93,195.029 
  "/>
<polyline clip-path="url(#clip2002)" style="stroke:#000000; stroke-width:2; stroke-opacity:0.1; fill:none" points="
  2293.74,2097.21 2293.74,195.029 
  "/>
<polyline clip-path="url(#clip2002)" style="stroke:#000000; stroke-width:2; stroke-opacity:0.1; fill:none" points="
  267.483,2097.21 2352.76,2097.21 
  "/>
<polyline clip-path="url(#clip2002)" style="stroke:#000000; stroke-width:2; stroke-opacity:0.1; fill:none" points="
  267.483,1674.5 2352.76,1674.5 
  "/>
<polyline clip-path="url(#clip2002)" style="stroke:#000000; stroke-width:2; stroke-opacity:0.1; fill:none" points="
  267.483,1251.8 2352.76,1251.8 
  "/>
<polyline clip-path="url(#clip2002)" style="stroke:#000000; stroke-width:2; stroke-opacity:0.1; fill:none" points="
  267.483,829.09 2352.76,829.09 
  "/>
<polyline clip-path="url(#clip2002)" style="stroke:#000000; stroke-width:2; stroke-opacity:0.1; fill:none" points="
  267.483,406.382 2352.76,406.382 
  "/>
<polyline clip-path="url(#clip2000)" style="stroke:#000000; stroke-width:4; stroke-opacity:1; fill:none" points="
  267.483,2097.21 2352.76,2097.21 
  "/>
<polyline clip-path="url(#clip2000)" style="stroke:#000000; stroke-width:4; stroke-opacity:1; fill:none" points="
  267.483,2097.21 267.483,195.029 
  "/>
<polyline clip-path="url(#clip2000)" style="stroke:#000000; stroke-width:4; stroke-opacity:1; fill:none" points="
  326.5,2097.21 326.5,2074.38 
  "/>
<polyline clip-path="url(#clip2000)" style="stroke:#000000; stroke-width:4; stroke-opacity:1; fill:none" points="
  818.31,2097.21 818.31,2074.38 
  "/>
<polyline clip-path="url(#clip2000)" style="stroke:#000000; stroke-width:4; stroke-opacity:1; fill:none" points="
  1310.12,2097.21 1310.12,2074.38 
  "/>
<polyline clip-path="url(#clip2000)" style="stroke:#000000; stroke-width:4; stroke-opacity:1; fill:none" points="
  1801.93,2097.21 1801.93,2074.38 
  "/>
<polyline clip-path="url(#clip2000)" style="stroke:#000000; stroke-width:4; stroke-opacity:1; fill:none" points="
  2293.74,2097.21 2293.74,2074.38 
  "/>
<polyline clip-path="url(#clip2000)" style="stroke:#000000; stroke-width:4; stroke-opacity:1; fill:none" points="
  267.483,2097.21 292.506,2097.21 
  "/>
<polyline clip-path="url(#clip2000)" style="stroke:#000000; stroke-width:4; stroke-opacity:1; fill:none" points="
  267.483,1674.5 292.506,1674.5 
  "/>
<polyline clip-path="url(#clip2000)" style="stroke:#000000; stroke-width:4; stroke-opacity:1; fill:none" points="
  267.483,1251.8 292.506,1251.8 
  "/>
<polyline clip-path="url(#clip2000)" style="stroke:#000000; stroke-width:4; stroke-opacity:1; fill:none" points="
  267.483,829.09 292.506,829.09 
  "/>
<polyline clip-path="url(#clip2000)" style="stroke:#000000; stroke-width:4; stroke-opacity:1; fill:none" points="
  267.483,406.382 292.506,406.382 
  "/>
<g clip-path="url(#clip2000)">
<text style="fill:#000000; fill-opacity:1; font-family:Arial,Helvetica Neue,Helvetica,sans-serif; font-size:71px; text-anchor:middle;" transform="rotate(0, 326.5, 2183.61)" x="326.5" y="2183.61">0</text>
</g>
<g clip-path="url(#clip2000)">
<text style="fill:#000000; fill-opacity:1; font-family:Arial,Helvetica Neue,Helvetica,sans-serif; font-size:71px; text-anchor:middle;" transform="rotate(0, 818.31, 2183.61)" x="818.31" y="2183.61">2</text>
</g>
<g clip-path="url(#clip2000)">
<text style="fill:#000000; fill-opacity:1; font-family:Arial,Helvetica Neue,Helvetica,sans-serif; font-size:71px; text-anchor:middle;" transform="rotate(0, 1310.12, 2183.61)" x="1310.12" y="2183.61">4</text>
</g>
<g clip-path="url(#clip2000)">
<text style="fill:#000000; fill-opacity:1; font-family:Arial,Helvetica Neue,Helvetica,sans-serif; font-size:71px; text-anchor:middle;" transform="rotate(0, 1801.93, 2183.61)" x="1801.93" y="2183.61">6</text>
</g>
<g clip-path="url(#clip2000)">
<text style="fill:#000000; fill-opacity:1; font-family:Arial,Helvetica Neue,Helvetica,sans-serif; font-size:71px; text-anchor:middle;" transform="rotate(0, 2293.74, 2183.61)" x="2293.74" y="2183.61">8</text>
</g>
<g clip-path="url(#clip2000)">
<text style="fill:#000000; fill-opacity:1; font-family:Arial,Helvetica Neue,Helvetica,sans-serif; font-size:71px; text-anchor:end;" transform="rotate(0, 219.483, 2123.21)" x="219.483" y="2123.21">0</text>
</g>
<g clip-path="url(#clip2000)">
<text style="fill:#000000; fill-opacity:1; font-family:Arial,Helvetica Neue,Helvetica,sans-serif; font-size:71px; text-anchor:end;" transform="rotate(0, 219.483, 1700.5)" x="219.483" y="1700.5">1</text>
</g>
<g clip-path="url(#clip2000)">
<text style="fill:#000000; fill-opacity:1; font-family:Arial,Helvetica Neue,Helvetica,sans-serif; font-size:71px; text-anchor:end;" transform="rotate(0, 219.483, 1277.8)" x="219.483" y="1277.8">2</text>
</g>
<g clip-path="url(#clip2000)">
<text style="fill:#000000; fill-opacity:1; font-family:Arial,Helvetica Neue,Helvetica,sans-serif; font-size:71px; text-anchor:end;" transform="rotate(0, 219.483, 855.09)" x="219.483" y="855.09">3</text>
</g>
<g clip-path="url(#clip2000)">
<text style="fill:#000000; fill-opacity:1; font-family:Arial,Helvetica Neue,Helvetica,sans-serif; font-size:71px; text-anchor:end;" transform="rotate(0, 219.483, 432.382)" x="219.483" y="432.382">4</text>
</g>
<g clip-path="url(#clip2000)">
<text style="fill:#000000; fill-opacity:1; font-family:Arial,Helvetica Neue,Helvetica,sans-serif; font-size:125px; text-anchor:middle;" transform="rotate(0, 1310.12, 109.2)" x="1310.12" y="109.2">Normal patient 30 mcg (6 patients)</text>
</g>
<g clip-path="url(#clip2000)">
<text style="fill:#000000; fill-opacity:1; font-family:Arial,Helvetica Neue,Helvetica,sans-serif; font-size:95px; text-anchor:middle;" transform="rotate(0, 1310.12, 2307.46)" x="1310.12" y="2307.46">Time (hours)</text>
</g>
<g clip-path="url(#clip2000)">
<text style="fill:#000000; fill-opacity:1; font-family:Arial,Helvetica Neue,Helvetica,sans-serif; font-size:95px; text-anchor:middle;" transform="rotate(-90, 113.54, 1146.12)" x="113.54" y="1146.12">T3 mcg/L</text>
</g>
<path clip-path="url(#clip2002)" d="
M326.5 1829.39 L351.091 1812.59 L375.681 1771.86 L400.272 1721.85 L424.862 1667.98 L449.453 1613.05 L474.043 1558.87 L498.634 1506.58 L523.224 1457.16 L547.815 1411.01 
  L572.405 1368.66 L596.996 1330.34 L621.586 1295.59 L646.177 1265.31 L670.767 1239.31 L695.357 1214.98 L719.948 1196.32 L744.538 1181.86 L769.129 1165.24 L793.719 1157.74 
  L818.31 1149.42 L842.9 1142.58 L867.491 1141.68 L892.081 1138.64 L916.672 1140.84 L941.262 1142.4 L965.853 1146.57 L990.443 1151.53 L1015.03 1157.52 L1039.62 1164.81 
  L1064.21 1172.37 L1088.81 1181.29 L1113.4 1190.36 L1137.99 1200.16 L1162.58 1210.52 L1187.17 1220.68 L1211.76 1231.78 L1236.35 1242.48 L1260.94 1253.6 L1285.53 1265.25 
  L1310.12 1276.01 L1334.71 1287.72 L1359.3 1298.62 L1383.89 1309.89 L1408.48 1321.64 L1433.07 1332.32 L1457.66 1343.4 L1482.25 1354.06 L1506.84 1364.41 L1531.43 1375.17 
  L1556.02 1385.02 L1580.61 1395.43 L1605.21 1405.13 L1629.8 1414.72 L1654.39 1424.36 L1678.98 1433.18 L1703.57 1442.55 L1728.16 1451.06 L1752.75 1459.7 L1777.34 1468.12 
  L1801.93 1475.92 L1826.52 1484.18 L1851.11 1491.51 L1875.7 1499.19 L1900.29 1506.41 L1924.88 1513.26 L1949.47 1520.4 L1974.06 1526.67 L1998.65 1533.42 L2023.24 1539.53 
  L2047.83 1545.54 L2072.42 1551.64 L2097.01 1556.98 L2121.61 1562.87 L2146.2 1568 L2170.79 1573.27 L2195.38 1578.41 L2219.97 1583.01 L2244.56 1588.08 L2269.15 1592.37 
  L2293.74 1596.86 L2293.74 1337.72 L2269.15 1333.32 L2244.56 1328.83 L2219.97 1324.11 L2195.38 1319.33 L2170.79 1314.34 L2146.2 1309.19 L2121.61 1303.94 L2097.01 1298.41 
  L2072.42 1292.83 L2047.83 1286.98 L2023.24 1280.99 L1998.65 1274.82 L1974.06 1268.38 L1949.47 1261.88 L1924.88 1255.03 L1900.29 1248.07 L1875.7 1240.88 L1851.11 1233.4 
  L1826.52 1225.84 L1801.93 1217.88 L1777.34 1209.86 L1752.75 1201.51 L1728.16 1192.92 L1703.57 1184.2 L1678.98 1175.04 L1654.39 1165.89 L1629.8 1156.31 L1605.21 1146.58 
  L1580.61 1136.66 L1556.02 1126.3 L1531.43 1115.99 L1506.84 1105.19 L1482.25 1094.48 L1457.66 1083.57 L1433.07 1072.42 L1408.48 1061.14 L1383.89 1048.99 L1359.3 1036.8 
  L1334.71 1025.74 L1310.12 1013.75 L1285.53 1001.93 L1260.94 990.184 L1236.35 977.979 L1211.76 966.853 L1187.17 954.365 L1162.58 943.807 L1137.99 931.853 L1113.4 921.504 
  L1088.81 911.21 L1064.21 900.88 L1039.62 892.603 L1015.03 882.956 L990.443 876.743 L965.853 868.597 L941.262 864.762 L916.672 858.975 L892.081 857.883 L867.491 855.574 
  L842.9 857.286 L818.31 860.237 L793.719 864.423 L769.129 874.554 L744.538 881.194 L719.948 897.803 L695.357 912.098 L670.767 930.868 L646.177 954.609 L621.586 979.574 
  L596.996 1009.1 L572.405 1042.26 L547.815 1078.37 L523.224 1117.96 L498.634 1160.31 L474.043 1204.91 L449.453 1251.04 L424.862 1297.57 L400.272 1342.92 L375.681 1384.68 
  L351.091 1417.6 L326.5 1425.63  Z
  " fill="#009af9" fill-rule="evenodd" fill-opacity="0.3"/>
<polyline clip-path="url(#clip2002)" style="stroke:#009af9; stroke-width:4; stroke-opacity:1; fill:none" points="
  326.5,1627.51 351.091,1615.1 375.681,1578.27 400.272,1532.39 424.862,1482.78 449.453,1432.05 474.043,1381.89 498.634,1333.44 523.224,1287.56 547.815,1244.69 
  572.405,1205.46 596.996,1169.72 621.586,1137.58 646.177,1109.96 670.767,1085.09 695.357,1063.54 719.948,1047.06 744.538,1031.53 769.129,1019.9 793.719,1011.08 
  818.31,1004.83 842.9,999.932 867.491,998.626 892.081,998.263 916.672,999.907 941.262,1003.58 965.853,1007.58 990.443,1014.14 1015.03,1020.24 1039.62,1028.71 
  1064.21,1036.63 1088.81,1046.25 1113.4,1055.93 1137.99,1066.01 1162.58,1077.16 1187.17,1087.52 1211.76,1099.32 1236.35,1110.23 1260.94,1121.89 1285.53,1133.59 
  1310.12,1144.88 1334.71,1156.73 1359.3,1167.71 1383.89,1179.44 1408.48,1191.39 1433.07,1202.37 1457.66,1213.48 1482.25,1224.27 1506.84,1234.8 1531.43,1245.58 
  1556.02,1255.66 1580.61,1266.04 1605.21,1275.85 1629.8,1285.51 1654.39,1295.12 1678.98,1304.11 1703.57,1313.38 1728.16,1321.99 1752.75,1330.6 1777.34,1338.99 
  1801.93,1346.9 1826.52,1355.01 1851.11,1362.45 1875.7,1370.03 1900.29,1377.24 1924.88,1384.14 1949.47,1391.14 1974.06,1397.52 1998.65,1404.12 2023.24,1410.26 
  2047.83,1416.26 2072.42,1422.23 2097.01,1427.7 2121.61,1433.4 2146.2,1438.6 2170.79,1443.8 2195.38,1448.87 2219.97,1453.56 2244.56,1458.46 2269.15,1462.85 
  2293.74,1467.29 
  "/>
<polyline clip-path="url(#clip2002)" style="stroke:#e26f46; stroke-width:4; stroke-opacity:1; fill:none" points="
  326.5,1627.51 449.453,1486.26 572.405,1170.57 818.31,972.669 1064.21,1091.03 1310.12,1223.97 1556.02,1340.99 1801.93,1404.18 2047.83,1424.75 2293.74,1445.26 
  
  "/>
<polyline clip-path="url(#clip2002)" style="stroke:#e26f46; stroke-width:4; stroke-opacity:1; fill:none" points="
  326.5,1829.39 326.5,1425.63 
  "/>
<polyline clip-path="url(#clip2002)" style="stroke:#e26f46; stroke-width:4; stroke-opacity:1; fill:none" points="
  449.453,1780.72 449.453,1191.8 
  "/>
<polyline clip-path="url(#clip2002)" style="stroke:#e26f46; stroke-width:4; stroke-opacity:1; fill:none" points="
  572.405,1557.99 572.405,783.146 
  "/>
<polyline clip-path="url(#clip2002)" style="stroke:#e26f46; stroke-width:4; stroke-opacity:1; fill:none" points="
  818.31,1269.62 818.31,675.721 
  "/>
<polyline clip-path="url(#clip2002)" style="stroke:#e26f46; stroke-width:4; stroke-opacity:1; fill:none" points="
  1064.21,1408.46 1064.21,773.59 
  "/>
<polyline clip-path="url(#clip2002)" style="stroke:#e26f46; stroke-width:4; stroke-opacity:1; fill:none" points="
  1310.12,1495.19 1310.12,952.748 
  "/>
<polyline clip-path="url(#clip2002)" style="stroke:#e26f46; stroke-width:4; stroke-opacity:1; fill:none" points="
  1556.02,1607.22 1556.02,1074.76 
  "/>
<polyline clip-path="url(#clip2002)" style="stroke:#e26f46; stroke-width:4; stroke-opacity:1; fill:none" points="
  1801.93,1664.85 1801.93,1143.51 
  "/>
<polyline clip-path="url(#clip2002)" style="stroke:#e26f46; stroke-width:4; stroke-opacity:1; fill:none" points="
  2047.83,1689.08 2047.83,1160.43 
  "/>
<polyline clip-path="url(#clip2002)" style="stroke:#e26f46; stroke-width:4; stroke-opacity:1; fill:none" points="
  2293.74,1728.38 2293.74,1162.13 
  "/>
<line clip-path="url(#clip2002)" x1="346.5" y1="1829.39" x2="306.5" y2="1829.39" style="stroke:#000000; stroke-width:4; stroke-opacity:1"/>
<line clip-path="url(#clip2002)" x1="346.5" y1="1425.63" x2="306.5" y2="1425.63" style="stroke:#000000; stroke-width:4; stroke-opacity:1"/>
<line clip-path="url(#clip2002)" x1="469.453" y1="1780.72" x2="429.453" y2="1780.72" style="stroke:#000000; stroke-width:4; stroke-opacity:1"/>
<line clip-path="url(#clip2002)" x1="469.453" y1="1191.8" x2="429.453" y2="1191.8" style="stroke:#000000; stroke-width:4; stroke-opacity:1"/>
<line clip-path="url(#clip2002)" x1="592.405" y1="1557.99" x2="552.405" y2="1557.99" style="stroke:#000000; stroke-width:4; stroke-opacity:1"/>
<line clip-path="url(#clip2002)" x1="592.405" y1="783.146" x2="552.405" y2="783.146" style="stroke:#000000; stroke-width:4; stroke-opacity:1"/>
<line clip-path="url(#clip2002)" x1="838.31" y1="1269.62" x2="798.31" y2="1269.62" style="stroke:#000000; stroke-width:4; stroke-opacity:1"/>
<line clip-path="url(#clip2002)" x1="838.31" y1="675.721" x2="798.31" y2="675.721" style="stroke:#000000; stroke-width:4; stroke-opacity:1"/>
<line clip-path="url(#clip2002)" x1="1084.21" y1="1408.46" x2="1044.21" y2="1408.46" style="stroke:#000000; stroke-width:4; stroke-opacity:1"/>
<line clip-path="url(#clip2002)" x1="1084.21" y1="773.59" x2="1044.21" y2="773.59" style="stroke:#000000; stroke-width:4; stroke-opacity:1"/>
<line clip-path="url(#clip2002)" x1="1330.12" y1="1495.19" x2="1290.12" y2="1495.19" style="stroke:#000000; stroke-width:4; stroke-opacity:1"/>
<line clip-path="url(#clip2002)" x1="1330.12" y1="952.748" x2="1290.12" y2="952.748" style="stroke:#000000; stroke-width:4; stroke-opacity:1"/>
<line clip-path="url(#clip2002)" x1="1576.02" y1="1607.22" x2="1536.02" y2="1607.22" style="stroke:#000000; stroke-width:4; stroke-opacity:1"/>
<line clip-path="url(#clip2002)" x1="1576.02" y1="1074.76" x2="1536.02" y2="1074.76" style="stroke:#000000; stroke-width:4; stroke-opacity:1"/>
<line clip-path="url(#clip2002)" x1="1821.93" y1="1664.85" x2="1781.93" y2="1664.85" style="stroke:#000000; stroke-width:4; stroke-opacity:1"/>
<line clip-path="url(#clip2002)" x1="1821.93" y1="1143.51" x2="1781.93" y2="1143.51" style="stroke:#000000; stroke-width:4; stroke-opacity:1"/>
<line clip-path="url(#clip2002)" x1="2067.83" y1="1689.08" x2="2027.83" y2="1689.08" style="stroke:#000000; stroke-width:4; stroke-opacity:1"/>
<line clip-path="url(#clip2002)" x1="2067.83" y1="1160.43" x2="2027.83" y2="1160.43" style="stroke:#000000; stroke-width:4; stroke-opacity:1"/>
<line clip-path="url(#clip2002)" x1="2313.74" y1="1728.38" x2="2273.74" y2="1728.38" style="stroke:#000000; stroke-width:4; stroke-opacity:1"/>
<line clip-path="url(#clip2002)" x1="2313.74" y1="1162.13" x2="2273.74" y2="1162.13" style="stroke:#000000; stroke-width:4; stroke-opacity:1"/>
<path clip-path="url(#clip2000)" d="
M1403.78 664.469 L2208.76 664.469 L2208.76 392.309 L1403.78 392.309  Z
  " fill="#ffffff" fill-rule="evenodd" fill-opacity="1"/>
<polyline clip-path="url(#clip2000)" style="stroke:#000000; stroke-width:4; stroke-opacity:1; fill:none" points="
  1403.78,664.469 2208.76,664.469 2208.76,392.309 1403.78,392.309 1403.78,664.469 
  "/>
<polyline clip-path="url(#clip2000)" style="stroke:#009af9; stroke-width:4; stroke-opacity:1; fill:none" points="
  1451.78,483.029 1739.78,483.029 
  "/>
<g clip-path="url(#clip2000)">
<text style="fill:#000000; fill-opacity:1; font-family:Arial,Helvetica Neue,Helvetica,sans-serif; font-size:71px; text-anchor:start;" transform="rotate(0, 1787.78, 509.029)" x="1787.78" y="509.029">simulation</text>
</g>
<polyline clip-path="url(#clip2000)" style="stroke:#e26f46; stroke-width:4; stroke-opacity:1; fill:none" points="
  1451.78,573.749 1739.78,573.749 
  "/>
<g clip-path="url(#clip2000)">
<text style="fill:#000000; fill-opacity:1; font-family:Arial,Helvetica Neue,Helvetica,sans-serif; font-size:71px; text-anchor:start;" transform="rotate(0, 1787.78, 599.749)" x="1787.78" y="599.749">data</text>
</g>
<path clip-path="url(#clip2000)" d="
M2667.48 2097.21 L4752.76 2097.21 L4752.76 195.029 L2667.48 195.029  Z
  " fill="#ffffff" fill-rule="evenodd" fill-opacity="1"/>
<defs>
  <clipPath id="clip2003">
    <rect x="2667" y="195" width="2086" height="1903"/>
  </clipPath>
</defs>
<polyline clip-path="url(#clip2003)" style="stroke:#000000; stroke-width:2; stroke-opacity:0.1; fill:none" points="
  2726.5,2097.21 2726.5,195.029 
  "/>
<polyline clip-path="url(#clip2003)" style="stroke:#000000; stroke-width:2; stroke-opacity:0.1; fill:none" points="
  3218.31,2097.21 3218.31,195.029 
  "/>
<polyline clip-path="url(#clip2003)" style="stroke:#000000; stroke-width:2; stroke-opacity:0.1; fill:none" points="
  3710.12,2097.21 3710.12,195.029 
  "/>
<polyline clip-path="url(#clip2003)" style="stroke:#000000; stroke-width:2; stroke-opacity:0.1; fill:none" points="
  4201.93,2097.21 4201.93,195.029 
  "/>
<polyline clip-path="url(#clip2003)" style="stroke:#000000; stroke-width:2; stroke-opacity:0.1; fill:none" points="
  4693.74,2097.21 4693.74,195.029 
  "/>
<polyline clip-path="url(#clip2003)" style="stroke:#000000; stroke-width:2; stroke-opacity:0.1; fill:none" points="
  2667.48,2097.21 4752.76,2097.21 
  "/>
<polyline clip-path="url(#clip2003)" style="stroke:#000000; stroke-width:2; stroke-opacity:0.1; fill:none" points="
  2667.48,1674.5 4752.76,1674.5 
  "/>
<polyline clip-path="url(#clip2003)" style="stroke:#000000; stroke-width:2; stroke-opacity:0.1; fill:none" points="
  2667.48,1251.8 4752.76,1251.8 
  "/>
<polyline clip-path="url(#clip2003)" style="stroke:#000000; stroke-width:2; stroke-opacity:0.1; fill:none" points="
  2667.48,829.09 4752.76,829.09 
  "/>
<polyline clip-path="url(#clip2003)" style="stroke:#000000; stroke-width:2; stroke-opacity:0.1; fill:none" points="
  2667.48,406.382 4752.76,406.382 
  "/>
<polyline clip-path="url(#clip2000)" style="stroke:#000000; stroke-width:4; stroke-opacity:1; fill:none" points="
  2667.48,2097.21 4752.76,2097.21 
  "/>
<polyline clip-path="url(#clip2000)" style="stroke:#000000; stroke-width:4; stroke-opacity:1; fill:none" points="
  2667.48,2097.21 2667.48,195.029 
  "/>
<polyline clip-path="url(#clip2000)" style="stroke:#000000; stroke-width:4; stroke-opacity:1; fill:none" points="
  2726.5,2097.21 2726.5,2074.38 
  "/>
<polyline clip-path="url(#clip2000)" style="stroke:#000000; stroke-width:4; stroke-opacity:1; fill:none" points="
  3218.31,2097.21 3218.31,2074.38 
  "/>
<polyline clip-path="url(#clip2000)" style="stroke:#000000; stroke-width:4; stroke-opacity:1; fill:none" points="
  3710.12,2097.21 3710.12,2074.38 
  "/>
<polyline clip-path="url(#clip2000)" style="stroke:#000000; stroke-width:4; stroke-opacity:1; fill:none" points="
  4201.93,2097.21 4201.93,2074.38 
  "/>
<polyline clip-path="url(#clip2000)" style="stroke:#000000; stroke-width:4; stroke-opacity:1; fill:none" points="
  4693.74,2097.21 4693.74,2074.38 
  "/>
<polyline clip-path="url(#clip2000)" style="stroke:#000000; stroke-width:4; stroke-opacity:1; fill:none" points="
  2667.48,2097.21 2692.51,2097.21 
  "/>
<polyline clip-path="url(#clip2000)" style="stroke:#000000; stroke-width:4; stroke-opacity:1; fill:none" points="
  2667.48,1674.5 2692.51,1674.5 
  "/>
<polyline clip-path="url(#clip2000)" style="stroke:#000000; stroke-width:4; stroke-opacity:1; fill:none" points="
  2667.48,1251.8 2692.51,1251.8 
  "/>
<polyline clip-path="url(#clip2000)" style="stroke:#000000; stroke-width:4; stroke-opacity:1; fill:none" points="
  2667.48,829.09 2692.51,829.09 
  "/>
<polyline clip-path="url(#clip2000)" style="stroke:#000000; stroke-width:4; stroke-opacity:1; fill:none" points="
  2667.48,406.382 2692.51,406.382 
  "/>
<g clip-path="url(#clip2000)">
<text style="fill:#000000; fill-opacity:1; font-family:Arial,Helvetica Neue,Helvetica,sans-serif; font-size:71px; text-anchor:middle;" transform="rotate(0, 2726.5, 2183.61)" x="2726.5" y="2183.61">0</text>
</g>
<g clip-path="url(#clip2000)">
<text style="fill:#000000; fill-opacity:1; font-family:Arial,Helvetica Neue,Helvetica,sans-serif; font-size:71px; text-anchor:middle;" transform="rotate(0, 3218.31, 2183.61)" x="3218.31" y="2183.61">2</text>
</g>
<g clip-path="url(#clip2000)">
<text style="fill:#000000; fill-opacity:1; font-family:Arial,Helvetica Neue,Helvetica,sans-serif; font-size:71px; text-anchor:middle;" transform="rotate(0, 3710.12, 2183.61)" x="3710.12" y="2183.61">4</text>
</g>
<g clip-path="url(#clip2000)">
<text style="fill:#000000; fill-opacity:1; font-family:Arial,Helvetica Neue,Helvetica,sans-serif; font-size:71px; text-anchor:middle;" transform="rotate(0, 4201.93, 2183.61)" x="4201.93" y="2183.61">6</text>
</g>
<g clip-path="url(#clip2000)">
<text style="fill:#000000; fill-opacity:1; font-family:Arial,Helvetica Neue,Helvetica,sans-serif; font-size:71px; text-anchor:middle;" transform="rotate(0, 4693.74, 2183.61)" x="4693.74" y="2183.61">8</text>
</g>
<g clip-path="url(#clip2000)">
<text style="fill:#000000; fill-opacity:1; font-family:Arial,Helvetica Neue,Helvetica,sans-serif; font-size:71px; text-anchor:end;" transform="rotate(0, 2619.48, 2123.21)" x="2619.48" y="2123.21">0</text>
</g>
<g clip-path="url(#clip2000)">
<text style="fill:#000000; fill-opacity:1; font-family:Arial,Helvetica Neue,Helvetica,sans-serif; font-size:71px; text-anchor:end;" transform="rotate(0, 2619.48, 1700.5)" x="2619.48" y="1700.5">1</text>
</g>
<g clip-path="url(#clip2000)">
<text style="fill:#000000; fill-opacity:1; font-family:Arial,Helvetica Neue,Helvetica,sans-serif; font-size:71px; text-anchor:end;" transform="rotate(0, 2619.48, 1277.8)" x="2619.48" y="1277.8">2</text>
</g>
<g clip-path="url(#clip2000)">
<text style="fill:#000000; fill-opacity:1; font-family:Arial,Helvetica Neue,Helvetica,sans-serif; font-size:71px; text-anchor:end;" transform="rotate(0, 2619.48, 855.09)" x="2619.48" y="855.09">3</text>
</g>
<g clip-path="url(#clip2000)">
<text style="fill:#000000; fill-opacity:1; font-family:Arial,Helvetica Neue,Helvetica,sans-serif; font-size:71px; text-anchor:end;" transform="rotate(0, 2619.48, 432.382)" x="2619.48" y="432.382">4</text>
</g>
<g clip-path="url(#clip2000)">
<text style="fill:#000000; fill-opacity:1; font-family:Arial,Helvetica Neue,Helvetica,sans-serif; font-size:125px; text-anchor:middle;" transform="rotate(0, 3710.12, 109.2)" x="3710.12" y="109.2">Normal patient 45 mcg (3 patients)</text>
</g>
<g clip-path="url(#clip2000)">
<text style="fill:#000000; fill-opacity:1; font-family:Arial,Helvetica Neue,Helvetica,sans-serif; font-size:95px; text-anchor:middle;" transform="rotate(0, 3710.12, 2307.46)" x="3710.12" y="2307.46">Time (hours)</text>
</g>
<g clip-path="url(#clip2000)">
<text style="fill:#000000; fill-opacity:1; font-family:Arial,Helvetica Neue,Helvetica,sans-serif; font-size:95px; text-anchor:middle;" transform="rotate(-90, 2513.54, 1146.12)" x="2513.54" y="1146.12">T3 mcg/L</text>
</g>
<path clip-path="url(#clip2003)" d="
M2726.5 1843.28 L2751.09 1824.01 L2775.68 1772.42 L2800.27 1707.89 L2824.86 1637.88 L2849.45 1566.12 L2874.04 1494.97 L2898.63 1426.13 L2923.22 1360.71 L2947.81 1299.55 
  L2972.41 1243.18 L2997 1191.76 L3021.59 1145.65 L3046.18 1104.88 L3070.77 1068.67 L3095.36 1037.52 L3119.95 1012.71 L3144.54 989.927 L3169.13 970.193 L3193.72 960.358 
  L3218.31 948.588 L3242.9 937.062 L3267.49 939.143 L3292.08 933.014 L3316.67 935.416 L3341.26 939.703 L3365.85 942.294 L3390.44 951.936 L3415.03 957.704 L3439.62 969.568 
  L3464.21 979.349 L3488.81 991.489 L3513.4 1004.8 L3537.99 1016.7 L3562.58 1032.46 L3587.17 1045.55 L3611.76 1061.03 L3636.35 1076.67 L3660.94 1090.33 L3685.53 1107.83 
  L3710.12 1121.9 L3734.71 1138 L3759.3 1154.25 L3783.89 1167.86 L3808.48 1185.28 L3833.07 1199 L3857.66 1214.62 L3882.25 1230 L3906.84 1243.02 L3931.43 1259.23 
  L3956.02 1271.83 L3980.61 1286.47 L4005.21 1300.28 L4029.8 1312.32 L4054.39 1326.9 L4078.98 1338.07 L4103.57 1351.39 L4128.16 1363.51 L4152.75 1374.29 L4177.34 1387.21 
  L4201.93 1396.89 L4226.52 1408.79 L4251.11 1419.25 L4275.7 1428.75 L4300.29 1440.06 L4324.88 1448.32 L4349.47 1458.84 L4374.06 1467.75 L4398.65 1476.07 L4423.24 1485.87 
  L4447.83 1492.86 L4472.42 1502.12 L4497.01 1509.62 L4521.61 1516.89 L4546.2 1525.32 L4570.79 1531.22 L4595.38 1539.33 L4619.97 1545.61 L4644.56 1551.92 L4669.15 1558.86 
  L4693.74 1564.45 L4693.74 1447.5 L4669.15 1440.53 L4644.56 1434.81 L4619.97 1426.72 L4595.38 1419.81 L4570.79 1412.5 L4546.2 1403.74 L4521.61 1397.01 L4497.01 1387.51 
  L4472.42 1379.72 L4447.83 1370.85 L4423.24 1361.02 L4398.65 1352.94 L4374.06 1341.87 L4349.47 1333.06 L4324.88 1322.4 L4300.29 1311.44 L4275.7 1301.76 L4251.11 1289.01 
  L4226.52 1279 L4201.93 1266.38 L4177.34 1254.24 L4152.75 1242.71 L4128.16 1228.29 L4103.57 1216.9 L4078.98 1202.23 L4054.39 1188.91 L4029.8 1175.38 L4005.21 1159.43 
  L3980.61 1146.55 L3956.02 1129.83 L3931.43 1115.52 L3906.84 1099.96 L3882.25 1082.85 L3857.66 1068.56 L3833.07 1050.04 L3808.48 1035.18 L3783.89 1017.88 L3759.3 1000.29 
  L3734.71 985.011 L3710.12 965.627 L3685.53 950.716 L3660.94 932.867 L3636.35 915.692 L3611.76 900.531 L3587.17 882.065 L3562.58 868.156 L3537.99 851.756 L3513.4 836.961 
  L3488.81 823.921 L3464.21 808.869 L3439.62 798.998 L3415.03 786.045 L3390.44 778.361 L3365.85 769.723 L3341.26 763.302 L3316.67 761.522 L3292.08 755.381 L3267.49 762.913 
  L3242.9 761.702 L3218.31 771.194 L3193.72 785.172 L3169.13 794.511 L3144.54 815.704 L3119.95 840.123 L3095.36 865.917 L3070.77 899.283 L3046.18 938.002 L3021.59 981.351 
  L2997 1030.68 L2972.41 1085.72 L2947.81 1146.05 L2923.22 1211.61 L2898.63 1281.75 L2874.04 1355.58 L2849.45 1431.91 L2824.86 1508.92 L2800.27 1584.06 L2775.68 1653.36 
  L2751.09 1708.77 L2726.5 1728.92  Z
  " fill="#009af9" fill-rule="evenodd" fill-opacity="0.3"/>
<polyline clip-path="url(#clip2003)" style="stroke:#009af9; stroke-width:4; stroke-opacity:1; fill:none" points="
  2726.5,1786.1 2751.09,1766.39 2775.68,1712.89 2800.27,1645.97 2824.86,1573.4 2849.45,1499.01 2874.04,1425.28 2898.63,1353.94 2923.22,1286.16 2947.81,1222.8 
  2972.41,1164.45 2997,1111.22 3021.59,1063.5 3046.18,1021.44 3070.77,983.976 3095.36,951.718 3119.95,926.415 3144.54,902.815 3169.13,882.352 3193.72,872.765 
  3218.31,859.891 3242.9,849.382 3267.49,851.028 3292.08,844.198 3316.67,848.469 3341.26,851.503 3365.85,856.008 3390.44,865.148 3415.03,871.874 3439.62,884.283 
  3464.21,894.109 3488.81,907.705 3513.4,920.881 3537.99,934.227 3562.58,950.31 3587.17,963.805 3611.76,980.781 3636.35,996.18 3660.94,1011.6 3685.53,1029.27 
  3710.12,1043.76 3734.71,1061.51 3759.3,1077.27 3783.89,1092.87 3808.48,1110.23 3833.07,1124.52 3857.66,1141.59 3882.25,1156.42 3906.84,1171.49 3931.43,1187.37 
  3956.02,1200.83 3980.61,1216.51 4005.21,1229.86 4029.8,1243.85 4054.39,1257.9 4078.98,1270.15 4103.57,1284.15 4128.16,1295.9 4152.75,1308.5 4177.34,1320.72 
  4201.93,1331.64 4226.52,1343.9 4251.11,1354.13 4275.7,1365.25 4300.29,1375.75 4324.88,1385.36 4349.47,1395.95 4374.06,1404.81 4398.65,1414.51 4423.24,1423.44 
  4447.83,1431.86 4472.42,1440.92 4497.01,1448.56 4521.61,1456.95 4546.2,1464.53 4570.79,1471.86 4595.38,1479.57 4619.97,1486.16 4644.56,1493.36 4669.15,1499.7 
  4693.74,1505.97 
  "/>
<polyline clip-path="url(#clip2003)" style="stroke:#e26f46; stroke-width:4; stroke-opacity:1; fill:none" points="
  2726.5,1786.1 2849.45,1685.64 2972.41,1324.5 3218.31,852.057 3464.21,983.659 3710.12,1095.82 3956.02,1151.62 4201.93,1357.61 4447.83,1380.3 4693.74,1455.4 
  
  "/>
<polyline clip-path="url(#clip2003)" style="stroke:#e26f46; stroke-width:4; stroke-opacity:1; fill:none" points="
  2726.5,1843.28 2726.5,1728.92 
  "/>
<polyline clip-path="url(#clip2003)" style="stroke:#e26f46; stroke-width:4; stroke-opacity:1; fill:none" points="
  2849.45,1728.46 2849.45,1642.81 
  "/>
<polyline clip-path="url(#clip2003)" style="stroke:#e26f46; stroke-width:4; stroke-opacity:1; fill:none" points="
  2972.41,1624.52 2972.41,1024.49 
  "/>
<polyline clip-path="url(#clip2003)" style="stroke:#e26f46; stroke-width:4; stroke-opacity:1; fill:none" points="
  3218.31,1296.54 3218.31,407.573 
  "/>
<polyline clip-path="url(#clip2003)" style="stroke:#e26f46; stroke-width:4; stroke-opacity:1; fill:none" points="
  3464.21,1390.16 3464.21,577.161 
  "/>
<polyline clip-path="url(#clip2003)" style="stroke:#e26f46; stroke-width:4; stroke-opacity:1; fill:none" points="
  3710.12,1410.02 3710.12,781.62 
  "/>
<polyline clip-path="url(#clip2003)" style="stroke:#e26f46; stroke-width:4; stroke-opacity:1; fill:none" points="
  3956.02,1371.08 3956.02,932.15 
  "/>
<polyline clip-path="url(#clip2003)" style="stroke:#e26f46; stroke-width:4; stroke-opacity:1; fill:none" points="
  4201.93,1498.22 4201.93,1217.01 
  "/>
<polyline clip-path="url(#clip2003)" style="stroke:#e26f46; stroke-width:4; stroke-opacity:1; fill:none" points="
  4447.83,1541.21 4447.83,1219.39 
  "/>
<polyline clip-path="url(#clip2003)" style="stroke:#e26f46; stroke-width:4; stroke-opacity:1; fill:none" points="
  4693.74,1585.53 4693.74,1325.27 
  "/>
<line clip-path="url(#clip2003)" x1="2746.5" y1="1843.28" x2="2706.5" y2="1843.28" style="stroke:#000000; stroke-width:4; stroke-opacity:1"/>
<line clip-path="url(#clip2003)" x1="2746.5" y1="1728.92" x2="2706.5" y2="1728.92" style="stroke:#000000; stroke-width:4; stroke-opacity:1"/>
<line clip-path="url(#clip2003)" x1="2869.45" y1="1728.46" x2="2829.45" y2="1728.46" style="stroke:#000000; stroke-width:4; stroke-opacity:1"/>
<line clip-path="url(#clip2003)" x1="2869.45" y1="1642.81" x2="2829.45" y2="1642.81" style="stroke:#000000; stroke-width:4; stroke-opacity:1"/>
<line clip-path="url(#clip2003)" x1="2992.41" y1="1624.52" x2="2952.41" y2="1624.52" style="stroke:#000000; stroke-width:4; stroke-opacity:1"/>
<line clip-path="url(#clip2003)" x1="2992.41" y1="1024.49" x2="2952.41" y2="1024.49" style="stroke:#000000; stroke-width:4; stroke-opacity:1"/>
<line clip-path="url(#clip2003)" x1="3238.31" y1="1296.54" x2="3198.31" y2="1296.54" style="stroke:#000000; stroke-width:4; stroke-opacity:1"/>
<line clip-path="url(#clip2003)" x1="3238.31" y1="407.573" x2="3198.31" y2="407.573" style="stroke:#000000; stroke-width:4; stroke-opacity:1"/>
<line clip-path="url(#clip2003)" x1="3484.21" y1="1390.16" x2="3444.21" y2="1390.16" style="stroke:#000000; stroke-width:4; stroke-opacity:1"/>
<line clip-path="url(#clip2003)" x1="3484.21" y1="577.161" x2="3444.21" y2="577.161" style="stroke:#000000; stroke-width:4; stroke-opacity:1"/>
<line clip-path="url(#clip2003)" x1="3730.12" y1="1410.02" x2="3690.12" y2="1410.02" style="stroke:#000000; stroke-width:4; stroke-opacity:1"/>
<line clip-path="url(#clip2003)" x1="3730.12" y1="781.62" x2="3690.12" y2="781.62" style="stroke:#000000; stroke-width:4; stroke-opacity:1"/>
<line clip-path="url(#clip2003)" x1="3976.02" y1="1371.08" x2="3936.02" y2="1371.08" style="stroke:#000000; stroke-width:4; stroke-opacity:1"/>
<line clip-path="url(#clip2003)" x1="3976.02" y1="932.15" x2="3936.02" y2="932.15" style="stroke:#000000; stroke-width:4; stroke-opacity:1"/>
<line clip-path="url(#clip2003)" x1="4221.93" y1="1498.22" x2="4181.93" y2="1498.22" style="stroke:#000000; stroke-width:4; stroke-opacity:1"/>
<line clip-path="url(#clip2003)" x1="4221.93" y1="1217.01" x2="4181.93" y2="1217.01" style="stroke:#000000; stroke-width:4; stroke-opacity:1"/>
<line clip-path="url(#clip2003)" x1="4467.83" y1="1541.21" x2="4427.83" y2="1541.21" style="stroke:#000000; stroke-width:4; stroke-opacity:1"/>
<line clip-path="url(#clip2003)" x1="4467.83" y1="1219.39" x2="4427.83" y2="1219.39" style="stroke:#000000; stroke-width:4; stroke-opacity:1"/>
<line clip-path="url(#clip2003)" x1="4713.74" y1="1585.53" x2="4673.74" y2="1585.53" style="stroke:#000000; stroke-width:4; stroke-opacity:1"/>
<line clip-path="url(#clip2003)" x1="4713.74" y1="1325.27" x2="4673.74" y2="1325.27" style="stroke:#000000; stroke-width:4; stroke-opacity:1"/>
<path clip-path="url(#clip2000)" d="
M3803.78 664.469 L4608.76 664.469 L4608.76 392.309 L3803.78 392.309  Z
  " fill="#ffffff" fill-rule="evenodd" fill-opacity="1"/>
<polyline clip-path="url(#clip2000)" style="stroke:#000000; stroke-width:4; stroke-opacity:1; fill:none" points="
  3803.78,664.469 4608.76,664.469 4608.76,392.309 3803.78,392.309 3803.78,664.469 
  "/>
<polyline clip-path="url(#clip2000)" style="stroke:#009af9; stroke-width:4; stroke-opacity:1; fill:none" points="
  3851.78,483.029 4139.78,483.029 
  "/>
<g clip-path="url(#clip2000)">
<text style="fill:#000000; fill-opacity:1; font-family:Arial,Helvetica Neue,Helvetica,sans-serif; font-size:71px; text-anchor:start;" transform="rotate(0, 4187.78, 509.029)" x="4187.78" y="509.029">simulation</text>
</g>
<polyline clip-path="url(#clip2000)" style="stroke:#e26f46; stroke-width:4; stroke-opacity:1; fill:none" points="
  3851.78,573.749 4139.78,573.749 
  "/>
<g clip-path="url(#clip2000)">
<text style="fill:#000000; fill-opacity:1; font-family:Arial,Helvetica Neue,Helvetica,sans-serif; font-size:71px; text-anchor:start;" transform="rotate(0, 4187.78, 599.749)" x="4187.78" y="599.749">data</text>
</g>
<path clip-path="url(#clip2000)" d="
M267.483 4497.21 L2352.76 4497.21 L2352.76 2595.03 L267.483 2595.03  Z
  " fill="#ffffff" fill-rule="evenodd" fill-opacity="1"/>
<defs>
  <clipPath id="clip2004">
    <rect x="267" y="2595" width="2086" height="1903"/>
  </clipPath>
</defs>
<polyline clip-path="url(#clip2004)" style="stroke:#000000; stroke-width:2; stroke-opacity:0.1; fill:none" points="
  326.5,4497.21 326.5,2595.03 
  "/>
<polyline clip-path="url(#clip2004)" style="stroke:#000000; stroke-width:2; stroke-opacity:0.1; fill:none" points="
  818.31,4497.21 818.31,2595.03 
  "/>
<polyline clip-path="url(#clip2004)" style="stroke:#000000; stroke-width:2; stroke-opacity:0.1; fill:none" points="
  1310.12,4497.21 1310.12,2595.03 
  "/>
<polyline clip-path="url(#clip2004)" style="stroke:#000000; stroke-width:2; stroke-opacity:0.1; fill:none" points="
  1801.93,4497.21 1801.93,2595.03 
  "/>
<polyline clip-path="url(#clip2004)" style="stroke:#000000; stroke-width:2; stroke-opacity:0.1; fill:none" points="
  2293.74,4497.21 2293.74,2595.03 
  "/>
<polyline clip-path="url(#clip2004)" style="stroke:#000000; stroke-width:2; stroke-opacity:0.1; fill:none" points="
  267.483,4497.21 2352.76,4497.21 
  "/>
<polyline clip-path="url(#clip2004)" style="stroke:#000000; stroke-width:2; stroke-opacity:0.1; fill:none" points="
  267.483,4074.5 2352.76,4074.5 
  "/>
<polyline clip-path="url(#clip2004)" style="stroke:#000000; stroke-width:2; stroke-opacity:0.1; fill:none" points="
  267.483,3651.8 2352.76,3651.8 
  "/>
<polyline clip-path="url(#clip2004)" style="stroke:#000000; stroke-width:2; stroke-opacity:0.1; fill:none" points="
  267.483,3229.09 2352.76,3229.09 
  "/>
<polyline clip-path="url(#clip2004)" style="stroke:#000000; stroke-width:2; stroke-opacity:0.1; fill:none" points="
  267.483,2806.38 2352.76,2806.38 
  "/>
<polyline clip-path="url(#clip2000)" style="stroke:#000000; stroke-width:4; stroke-opacity:1; fill:none" points="
  267.483,4497.21 2352.76,4497.21 
  "/>
<polyline clip-path="url(#clip2000)" style="stroke:#000000; stroke-width:4; stroke-opacity:1; fill:none" points="
  267.483,4497.21 267.483,2595.03 
  "/>
<polyline clip-path="url(#clip2000)" style="stroke:#000000; stroke-width:4; stroke-opacity:1; fill:none" points="
  326.5,4497.21 326.5,4474.38 
  "/>
<polyline clip-path="url(#clip2000)" style="stroke:#000000; stroke-width:4; stroke-opacity:1; fill:none" points="
  818.31,4497.21 818.31,4474.38 
  "/>
<polyline clip-path="url(#clip2000)" style="stroke:#000000; stroke-width:4; stroke-opacity:1; fill:none" points="
  1310.12,4497.21 1310.12,4474.38 
  "/>
<polyline clip-path="url(#clip2000)" style="stroke:#000000; stroke-width:4; stroke-opacity:1; fill:none" points="
  1801.93,4497.21 1801.93,4474.38 
  "/>
<polyline clip-path="url(#clip2000)" style="stroke:#000000; stroke-width:4; stroke-opacity:1; fill:none" points="
  2293.74,4497.21 2293.74,4474.38 
  "/>
<polyline clip-path="url(#clip2000)" style="stroke:#000000; stroke-width:4; stroke-opacity:1; fill:none" points="
  267.483,4497.21 292.506,4497.21 
  "/>
<polyline clip-path="url(#clip2000)" style="stroke:#000000; stroke-width:4; stroke-opacity:1; fill:none" points="
  267.483,4074.5 292.506,4074.5 
  "/>
<polyline clip-path="url(#clip2000)" style="stroke:#000000; stroke-width:4; stroke-opacity:1; fill:none" points="
  267.483,3651.8 292.506,3651.8 
  "/>
<polyline clip-path="url(#clip2000)" style="stroke:#000000; stroke-width:4; stroke-opacity:1; fill:none" points="
  267.483,3229.09 292.506,3229.09 
  "/>
<polyline clip-path="url(#clip2000)" style="stroke:#000000; stroke-width:4; stroke-opacity:1; fill:none" points="
  267.483,2806.38 292.506,2806.38 
  "/>
<g clip-path="url(#clip2000)">
<text style="fill:#000000; fill-opacity:1; font-family:Arial,Helvetica Neue,Helvetica,sans-serif; font-size:71px; text-anchor:middle;" transform="rotate(0, 326.5, 4583.61)" x="326.5" y="4583.61">0</text>
</g>
<g clip-path="url(#clip2000)">
<text style="fill:#000000; fill-opacity:1; font-family:Arial,Helvetica Neue,Helvetica,sans-serif; font-size:71px; text-anchor:middle;" transform="rotate(0, 818.31, 4583.61)" x="818.31" y="4583.61">2</text>
</g>
<g clip-path="url(#clip2000)">
<text style="fill:#000000; fill-opacity:1; font-family:Arial,Helvetica Neue,Helvetica,sans-serif; font-size:71px; text-anchor:middle;" transform="rotate(0, 1310.12, 4583.61)" x="1310.12" y="4583.61">4</text>
</g>
<g clip-path="url(#clip2000)">
<text style="fill:#000000; fill-opacity:1; font-family:Arial,Helvetica Neue,Helvetica,sans-serif; font-size:71px; text-anchor:middle;" transform="rotate(0, 1801.93, 4583.61)" x="1801.93" y="4583.61">6</text>
</g>
<g clip-path="url(#clip2000)">
<text style="fill:#000000; fill-opacity:1; font-family:Arial,Helvetica Neue,Helvetica,sans-serif; font-size:71px; text-anchor:middle;" transform="rotate(0, 2293.74, 4583.61)" x="2293.74" y="4583.61">8</text>
</g>
<g clip-path="url(#clip2000)">
<text style="fill:#000000; fill-opacity:1; font-family:Arial,Helvetica Neue,Helvetica,sans-serif; font-size:71px; text-anchor:end;" transform="rotate(0, 219.483, 4523.21)" x="219.483" y="4523.21">0</text>
</g>
<g clip-path="url(#clip2000)">
<text style="fill:#000000; fill-opacity:1; font-family:Arial,Helvetica Neue,Helvetica,sans-serif; font-size:71px; text-anchor:end;" transform="rotate(0, 219.483, 4100.5)" x="219.483" y="4100.5">1</text>
</g>
<g clip-path="url(#clip2000)">
<text style="fill:#000000; fill-opacity:1; font-family:Arial,Helvetica Neue,Helvetica,sans-serif; font-size:71px; text-anchor:end;" transform="rotate(0, 219.483, 3677.8)" x="219.483" y="3677.8">2</text>
</g>
<g clip-path="url(#clip2000)">
<text style="fill:#000000; fill-opacity:1; font-family:Arial,Helvetica Neue,Helvetica,sans-serif; font-size:71px; text-anchor:end;" transform="rotate(0, 219.483, 3255.09)" x="219.483" y="3255.09">3</text>
</g>
<g clip-path="url(#clip2000)">
<text style="fill:#000000; fill-opacity:1; font-family:Arial,Helvetica Neue,Helvetica,sans-serif; font-size:71px; text-anchor:end;" transform="rotate(0, 219.483, 2832.38)" x="219.483" y="2832.38">4</text>
</g>
<g clip-path="url(#clip2000)">
<text style="fill:#000000; fill-opacity:1; font-family:Arial,Helvetica Neue,Helvetica,sans-serif; font-size:125px; text-anchor:middle;" transform="rotate(0, 1310.12, 2509.2)" x="1310.12" y="2509.2">Overweight patient 30 mcg (2 patients)</text>
</g>
<g clip-path="url(#clip2000)">
<text style="fill:#000000; fill-opacity:1; font-family:Arial,Helvetica Neue,Helvetica,sans-serif; font-size:95px; text-anchor:middle;" transform="rotate(0, 1310.12, 4707.46)" x="1310.12" y="4707.46">Time (hours)</text>
</g>
<g clip-path="url(#clip2000)">
<text style="fill:#000000; fill-opacity:1; font-family:Arial,Helvetica Neue,Helvetica,sans-serif; font-size:95px; text-anchor:middle;" transform="rotate(-90, 113.54, 3546.12)" x="113.54" y="3546.12">T3 mcg/L</text>
</g>
<path clip-path="url(#clip2004)" d="
M326.5 4158.12 L351.091 4144.66 L375.681 4107.19 L400.272 4060.37 L424.862 4009.61 L449.453 3957.6 L474.043 3906.11 L498.634 3856.29 L523.224 3809.03 L547.815 3764.81 
  L572.405 3725.53 L596.996 3698.54 L621.586 3674.34 L646.177 3653.7 L670.767 3635.12 L695.357 3618.62 L719.948 3607.46 L744.538 3596.3 L769.129 3585.26 L793.719 3583.26 
  L818.31 3575.92 L842.9 3573.62 L867.491 3574.57 L892.081 3571.76 L916.672 3577.05 L941.262 3577.45 L965.853 3583.85 L990.443 3587.71 L1015.03 3594.3 L1039.62 3601.02 
  L1064.21 3607.41 L1088.81 3616.49 L1113.4 3623.02 L1137.99 3633.19 L1162.58 3641.11 L1187.17 3650.32 L1211.76 3660.35 L1236.35 3668.01 L1260.94 3679.52 L1285.53 3687.47 
  L1310.12 3697.97 L1334.71 3707.57 L1359.3 3715.8 L1383.89 3725.84 L1408.48 3735.57 L1433.07 3745.18 L1457.66 3753.85 L1482.25 3762.96 L1506.84 3771.44 L1531.43 3780.17 
  L1556.02 3788.8 L1580.61 3796.96 L1605.21 3805.44 L1629.8 3813.14 L1654.39 3821.12 L1678.98 3828.71 L1703.57 3836.05 L1728.16 3843.56 L1752.75 3850.36 L1777.34 3857.49 
  L1801.93 3864.06 L1826.52 3870.6 L1851.11 3877.11 L1875.7 3883.07 L1900.29 3889.35 L1924.88 3894.99 L1949.47 3900.76 L1974.06 3906.33 L1998.65 3911.54 L2023.24 3917 
  L2047.83 3923.42 L2072.42 3928.51 L2097.01 3934.65 L2121.61 3940.73 L2146.2 3945.07 L2170.79 3951.77 L2195.38 3955.74 L2219.97 3961.52 L2244.56 3966.33 L2269.15 3970.29 
  L2293.74 3975.27 L2293.74 3965.14 L2269.15 3961.44 L2244.56 3957.44 L2219.97 3953.43 L2195.38 3949.45 L2170.79 3945 L2146.2 3940.87 L2121.61 3936.18 L2097.01 3931.61 
  L2072.42 3926.89 L2047.83 3921.82 L2023.24 3915.78 L1998.65 3910.85 L1974.06 3903.38 L1949.47 3896.87 L1924.88 3890.42 L1900.29 3881.97 L1875.7 3876.12 L1851.11 3867.18 
  L1826.52 3860.24 L1801.93 3852.21 L1777.34 3843.1 L1752.75 3836.01 L1728.16 3825.66 L1703.57 3818.15 L1678.98 3808.42 L1654.39 3798.78 L1629.8 3790.21 L1605.21 3778.68 
  L1580.61 3770.43 L1556.02 3758.98 L1531.43 3749.03 L1506.84 3738.85 L1482.25 3726.57 L1457.66 3717.41 L1433.07 3704.4 L1408.48 3694.5 L1383.89 3682.88 L1359.3 3670.69 
  L1334.71 3660.49 L1310.12 3646.79 L1285.53 3637.27 L1260.94 3624.58 L1236.35 3613.27 L1211.76 3602.82 L1187.17 3589.91 L1162.58 3580.96 L1137.99 3569.16 L1113.4 3559.63 
  L1088.81 3550.36 L1064.21 3540.11 L1039.62 3533.5 L1015.03 3524.15 L990.443 3519.47 L965.853 3512.76 L941.262 3509.24 L916.672 3506.87 L892.081 3503.53 L867.491 3508.01 
  L842.9 3505.61 L818.31 3514.85 L793.719 3521.45 L769.129 3528.39 L744.538 3544.12 L719.948 3558.66 L695.357 3576.24 L670.767 3599.25 L646.177 3624.87 L621.586 3653.87 
  L596.996 3687.22 L572.405 3724.21 L547.815 3755.19 L523.224 3787.63 L498.634 3822.38 L474.043 3859.06 L449.453 3897.01 L424.862 3935.32 L400.272 3972.64 L375.681 4006.88 
  L351.091 4033.63 L326.5 4040.35  Z
  " fill="#009af9" fill-rule="evenodd" fill-opacity="0.3"/>
<polyline clip-path="url(#clip2004)" style="stroke:#009af9; stroke-width:4; stroke-opacity:1; fill:none" points="
  326.5,4099.23 351.091,4089.14 375.681,4057.04 400.272,4016.5 424.862,3972.46 449.453,3927.3 474.043,3882.58 498.634,3839.33 523.224,3798.33 547.815,3760 
  572.405,3724.87 596.996,3692.88 621.586,3664.11 646.177,3639.28 670.767,3617.18 695.357,3597.43 719.948,3583.06 744.538,3570.21 769.129,3556.82 793.719,3552.36 
  818.31,3545.38 842.9,3539.62 867.491,3541.29 892.081,3537.65 916.672,3541.96 941.262,3543.35 965.853,3548.3 990.443,3553.59 1015.03,3559.22 1039.62,3567.26 
  1064.21,3573.76 1088.81,3583.43 1113.4,3591.33 1137.99,3601.17 1162.58,3611.04 1187.17,3620.12 1211.76,3631.59 1236.35,3640.64 1260.94,3652.05 1285.53,3662.37 
  1310.12,3672.38 1334.71,3684.03 1359.3,3693.25 1383.89,3704.36 1408.48,3715.04 1433.07,3724.79 1457.66,3735.63 1482.25,3744.77 1506.84,3755.14 1531.43,3764.6 
  1556.02,3773.89 1580.61,3783.69 1605.21,3792.06 1629.8,3801.68 1654.39,3809.95 1678.98,3818.56 1703.57,3827.1 1728.16,3834.61 1752.75,3843.18 1777.34,3850.3 
  1801.93,3858.14 1826.52,3865.42 1851.11,3872.15 1875.7,3879.6 1900.29,3885.66 1924.88,3892.7 1949.47,3898.82 1974.06,3904.85 1998.65,3911.2 2023.24,3916.39 
  2047.83,3922.62 2072.42,3927.7 2097.01,3933.13 2121.61,3938.45 2146.2,3942.97 2170.79,3948.39 2195.38,3952.59 2219.97,3957.48 2244.56,3961.88 2269.15,3965.87 
  2293.74,3970.21 
  "/>
<polyline clip-path="url(#clip2004)" style="stroke:#e26f46; stroke-width:4; stroke-opacity:1; fill:none" points="
  326.5,4099.23 449.453,4023.99 572.405,3910.49 818.31,3746.91 1064.21,3798.26 1310.12,3848.99 1556.02,3890.84 1801.93,3982.56 2047.83,4043.01 2293.74,4006.66 
  
  "/>
<polyline clip-path="url(#clip2004)" style="stroke:#e26f46; stroke-width:4; stroke-opacity:1; fill:none" points="
  326.5,4301.11 326.5,3897.35 
  "/>
<polyline clip-path="url(#clip2004)" style="stroke:#e26f46; stroke-width:4; stroke-opacity:1; fill:none" points="
  449.453,4318.45 449.453,3729.53 
  "/>
<polyline clip-path="url(#clip2004)" style="stroke:#e26f46; stroke-width:4; stroke-opacity:1; fill:none" points="
  572.405,4297.91 572.405,3523.07 
  "/>
<polyline clip-path="url(#clip2004)" style="stroke:#e26f46; stroke-width:4; stroke-opacity:1; fill:none" points="
  818.31,4043.85 818.31,3449.96 
  "/>
<polyline clip-path="url(#clip2004)" style="stroke:#e26f46; stroke-width:4; stroke-opacity:1; fill:none" points="
  1064.21,4115.7 1064.21,3480.83 
  "/>
<polyline clip-path="url(#clip2004)" style="stroke:#e26f46; stroke-width:4; stroke-opacity:1; fill:none" points="
  1310.12,4120.21 1310.12,3577.77 
  "/>
<polyline clip-path="url(#clip2004)" style="stroke:#e26f46; stroke-width:4; stroke-opacity:1; fill:none" points="
  1556.02,4157.07 1556.02,3624.61 
  "/>
<polyline clip-path="url(#clip2004)" style="stroke:#e26f46; stroke-width:4; stroke-opacity:1; fill:none" points="
  1801.93,4243.23 1801.93,3721.9 
  "/>
<polyline clip-path="url(#clip2004)" style="stroke:#e26f46; stroke-width:4; stroke-opacity:1; fill:none" points="
  2047.83,4307.33 2047.83,3778.69 
  "/>
<polyline clip-path="url(#clip2004)" style="stroke:#e26f46; stroke-width:4; stroke-opacity:1; fill:none" points="
  2293.74,4289.79 2293.74,3723.53 
  "/>
<line clip-path="url(#clip2004)" x1="346.5" y1="4301.11" x2="306.5" y2="4301.11" style="stroke:#000000; stroke-width:4; stroke-opacity:1"/>
<line clip-path="url(#clip2004)" x1="346.5" y1="3897.35" x2="306.5" y2="3897.35" style="stroke:#000000; stroke-width:4; stroke-opacity:1"/>
<line clip-path="url(#clip2004)" x1="469.453" y1="4318.45" x2="429.453" y2="4318.45" style="stroke:#000000; stroke-width:4; stroke-opacity:1"/>
<line clip-path="url(#clip2004)" x1="469.453" y1="3729.53" x2="429.453" y2="3729.53" style="stroke:#000000; stroke-width:4; stroke-opacity:1"/>
<line clip-path="url(#clip2004)" x1="592.405" y1="4297.91" x2="552.405" y2="4297.91" style="stroke:#000000; stroke-width:4; stroke-opacity:1"/>
<line clip-path="url(#clip2004)" x1="592.405" y1="3523.07" x2="552.405" y2="3523.07" style="stroke:#000000; stroke-width:4; stroke-opacity:1"/>
<line clip-path="url(#clip2004)" x1="838.31" y1="4043.85" x2="798.31" y2="4043.85" style="stroke:#000000; stroke-width:4; stroke-opacity:1"/>
<line clip-path="url(#clip2004)" x1="838.31" y1="3449.96" x2="798.31" y2="3449.96" style="stroke:#000000; stroke-width:4; stroke-opacity:1"/>
<line clip-path="url(#clip2004)" x1="1084.21" y1="4115.7" x2="1044.21" y2="4115.7" style="stroke:#000000; stroke-width:4; stroke-opacity:1"/>
<line clip-path="url(#clip2004)" x1="1084.21" y1="3480.83" x2="1044.21" y2="3480.83" style="stroke:#000000; stroke-width:4; stroke-opacity:1"/>
<line clip-path="url(#clip2004)" x1="1330.12" y1="4120.21" x2="1290.12" y2="4120.21" style="stroke:#000000; stroke-width:4; stroke-opacity:1"/>
<line clip-path="url(#clip2004)" x1="1330.12" y1="3577.77" x2="1290.12" y2="3577.77" style="stroke:#000000; stroke-width:4; stroke-opacity:1"/>
<line clip-path="url(#clip2004)" x1="1576.02" y1="4157.07" x2="1536.02" y2="4157.07" style="stroke:#000000; stroke-width:4; stroke-opacity:1"/>
<line clip-path="url(#clip2004)" x1="1576.02" y1="3624.61" x2="1536.02" y2="3624.61" style="stroke:#000000; stroke-width:4; stroke-opacity:1"/>
<line clip-path="url(#clip2004)" x1="1821.93" y1="4243.23" x2="1781.93" y2="4243.23" style="stroke:#000000; stroke-width:4; stroke-opacity:1"/>
<line clip-path="url(#clip2004)" x1="1821.93" y1="3721.9" x2="1781.93" y2="3721.9" style="stroke:#000000; stroke-width:4; stroke-opacity:1"/>
<line clip-path="url(#clip2004)" x1="2067.83" y1="4307.33" x2="2027.83" y2="4307.33" style="stroke:#000000; stroke-width:4; stroke-opacity:1"/>
<line clip-path="url(#clip2004)" x1="2067.83" y1="3778.69" x2="2027.83" y2="3778.69" style="stroke:#000000; stroke-width:4; stroke-opacity:1"/>
<line clip-path="url(#clip2004)" x1="2313.74" y1="4289.79" x2="2273.74" y2="4289.79" style="stroke:#000000; stroke-width:4; stroke-opacity:1"/>
<line clip-path="url(#clip2004)" x1="2313.74" y1="3723.53" x2="2273.74" y2="3723.53" style="stroke:#000000; stroke-width:4; stroke-opacity:1"/>
<path clip-path="url(#clip2000)" d="
M1403.78 3064.47 L2208.76 3064.47 L2208.76 2792.31 L1403.78 2792.31  Z
  " fill="#ffffff" fill-rule="evenodd" fill-opacity="1"/>
<polyline clip-path="url(#clip2000)" style="stroke:#000000; stroke-width:4; stroke-opacity:1; fill:none" points="
  1403.78,3064.47 2208.76,3064.47 2208.76,2792.31 1403.78,2792.31 1403.78,3064.47 
  "/>
<polyline clip-path="url(#clip2000)" style="stroke:#009af9; stroke-width:4; stroke-opacity:1; fill:none" points="
  1451.78,2883.03 1739.78,2883.03 
  "/>
<g clip-path="url(#clip2000)">
<text style="fill:#000000; fill-opacity:1; font-family:Arial,Helvetica Neue,Helvetica,sans-serif; font-size:71px; text-anchor:start;" transform="rotate(0, 1787.78, 2909.03)" x="1787.78" y="2909.03">simulation</text>
</g>
<polyline clip-path="url(#clip2000)" style="stroke:#e26f46; stroke-width:4; stroke-opacity:1; fill:none" points="
  1451.78,2973.75 1739.78,2973.75 
  "/>
<g clip-path="url(#clip2000)">
<text style="fill:#000000; fill-opacity:1; font-family:Arial,Helvetica Neue,Helvetica,sans-serif; font-size:71px; text-anchor:start;" transform="rotate(0, 1787.78, 2999.75)" x="1787.78" y="2999.75">data</text>
</g>
<path clip-path="url(#clip2000)" d="
M2667.48 4497.21 L4752.76 4497.21 L4752.76 2595.03 L2667.48 2595.03  Z
  " fill="#ffffff" fill-rule="evenodd" fill-opacity="1"/>
<defs>
  <clipPath id="clip2005">
    <rect x="2667" y="2595" width="2086" height="1903"/>
  </clipPath>
</defs>
<polyline clip-path="url(#clip2005)" style="stroke:#000000; stroke-width:2; stroke-opacity:0.1; fill:none" points="
  2726.5,4497.21 2726.5,2595.03 
  "/>
<polyline clip-path="url(#clip2005)" style="stroke:#000000; stroke-width:2; stroke-opacity:0.1; fill:none" points="
  3218.31,4497.21 3218.31,2595.03 
  "/>
<polyline clip-path="url(#clip2005)" style="stroke:#000000; stroke-width:2; stroke-opacity:0.1; fill:none" points="
  3710.12,4497.21 3710.12,2595.03 
  "/>
<polyline clip-path="url(#clip2005)" style="stroke:#000000; stroke-width:2; stroke-opacity:0.1; fill:none" points="
  4201.93,4497.21 4201.93,2595.03 
  "/>
<polyline clip-path="url(#clip2005)" style="stroke:#000000; stroke-width:2; stroke-opacity:0.1; fill:none" points="
  4693.74,4497.21 4693.74,2595.03 
  "/>
<polyline clip-path="url(#clip2005)" style="stroke:#000000; stroke-width:2; stroke-opacity:0.1; fill:none" points="
  2667.48,4497.21 4752.76,4497.21 
  "/>
<polyline clip-path="url(#clip2005)" style="stroke:#000000; stroke-width:2; stroke-opacity:0.1; fill:none" points="
  2667.48,4074.5 4752.76,4074.5 
  "/>
<polyline clip-path="url(#clip2005)" style="stroke:#000000; stroke-width:2; stroke-opacity:0.1; fill:none" points="
  2667.48,3651.8 4752.76,3651.8 
  "/>
<polyline clip-path="url(#clip2005)" style="stroke:#000000; stroke-width:2; stroke-opacity:0.1; fill:none" points="
  2667.48,3229.09 4752.76,3229.09 
  "/>
<polyline clip-path="url(#clip2005)" style="stroke:#000000; stroke-width:2; stroke-opacity:0.1; fill:none" points="
  2667.48,2806.38 4752.76,2806.38 
  "/>
<polyline clip-path="url(#clip2000)" style="stroke:#000000; stroke-width:4; stroke-opacity:1; fill:none" points="
  2667.48,4497.21 4752.76,4497.21 
  "/>
<polyline clip-path="url(#clip2000)" style="stroke:#000000; stroke-width:4; stroke-opacity:1; fill:none" points="
  2667.48,4497.21 2667.48,2595.03 
  "/>
<polyline clip-path="url(#clip2000)" style="stroke:#000000; stroke-width:4; stroke-opacity:1; fill:none" points="
  2726.5,4497.21 2726.5,4474.38 
  "/>
<polyline clip-path="url(#clip2000)" style="stroke:#000000; stroke-width:4; stroke-opacity:1; fill:none" points="
  3218.31,4497.21 3218.31,4474.38 
  "/>
<polyline clip-path="url(#clip2000)" style="stroke:#000000; stroke-width:4; stroke-opacity:1; fill:none" points="
  3710.12,4497.21 3710.12,4474.38 
  "/>
<polyline clip-path="url(#clip2000)" style="stroke:#000000; stroke-width:4; stroke-opacity:1; fill:none" points="
  4201.93,4497.21 4201.93,4474.38 
  "/>
<polyline clip-path="url(#clip2000)" style="stroke:#000000; stroke-width:4; stroke-opacity:1; fill:none" points="
  4693.74,4497.21 4693.74,4474.38 
  "/>
<polyline clip-path="url(#clip2000)" style="stroke:#000000; stroke-width:4; stroke-opacity:1; fill:none" points="
  2667.48,4497.21 2692.51,4497.21 
  "/>
<polyline clip-path="url(#clip2000)" style="stroke:#000000; stroke-width:4; stroke-opacity:1; fill:none" points="
  2667.48,4074.5 2692.51,4074.5 
  "/>
<polyline clip-path="url(#clip2000)" style="stroke:#000000; stroke-width:4; stroke-opacity:1; fill:none" points="
  2667.48,3651.8 2692.51,3651.8 
  "/>
<polyline clip-path="url(#clip2000)" style="stroke:#000000; stroke-width:4; stroke-opacity:1; fill:none" points="
  2667.48,3229.09 2692.51,3229.09 
  "/>
<polyline clip-path="url(#clip2000)" style="stroke:#000000; stroke-width:4; stroke-opacity:1; fill:none" points="
  2667.48,2806.38 2692.51,2806.38 
  "/>
<g clip-path="url(#clip2000)">
<text style="fill:#000000; fill-opacity:1; font-family:Arial,Helvetica Neue,Helvetica,sans-serif; font-size:71px; text-anchor:middle;" transform="rotate(0, 2726.5, 4583.61)" x="2726.5" y="4583.61">0</text>
</g>
<g clip-path="url(#clip2000)">
<text style="fill:#000000; fill-opacity:1; font-family:Arial,Helvetica Neue,Helvetica,sans-serif; font-size:71px; text-anchor:middle;" transform="rotate(0, 3218.31, 4583.61)" x="3218.31" y="4583.61">2</text>
</g>
<g clip-path="url(#clip2000)">
<text style="fill:#000000; fill-opacity:1; font-family:Arial,Helvetica Neue,Helvetica,sans-serif; font-size:71px; text-anchor:middle;" transform="rotate(0, 3710.12, 4583.61)" x="3710.12" y="4583.61">4</text>
</g>
<g clip-path="url(#clip2000)">
<text style="fill:#000000; fill-opacity:1; font-family:Arial,Helvetica Neue,Helvetica,sans-serif; font-size:71px; text-anchor:middle;" transform="rotate(0, 4201.93, 4583.61)" x="4201.93" y="4583.61">6</text>
</g>
<g clip-path="url(#clip2000)">
<text style="fill:#000000; fill-opacity:1; font-family:Arial,Helvetica Neue,Helvetica,sans-serif; font-size:71px; text-anchor:middle;" transform="rotate(0, 4693.74, 4583.61)" x="4693.74" y="4583.61">8</text>
</g>
<g clip-path="url(#clip2000)">
<text style="fill:#000000; fill-opacity:1; font-family:Arial,Helvetica Neue,Helvetica,sans-serif; font-size:71px; text-anchor:end;" transform="rotate(0, 2619.48, 4523.21)" x="2619.48" y="4523.21">0</text>
</g>
<g clip-path="url(#clip2000)">
<text style="fill:#000000; fill-opacity:1; font-family:Arial,Helvetica Neue,Helvetica,sans-serif; font-size:71px; text-anchor:end;" transform="rotate(0, 2619.48, 4100.5)" x="2619.48" y="4100.5">1</text>
</g>
<g clip-path="url(#clip2000)">
<text style="fill:#000000; fill-opacity:1; font-family:Arial,Helvetica Neue,Helvetica,sans-serif; font-size:71px; text-anchor:end;" transform="rotate(0, 2619.48, 3677.8)" x="2619.48" y="3677.8">2</text>
</g>
<g clip-path="url(#clip2000)">
<text style="fill:#000000; fill-opacity:1; font-family:Arial,Helvetica Neue,Helvetica,sans-serif; font-size:71px; text-anchor:end;" transform="rotate(0, 2619.48, 3255.09)" x="2619.48" y="3255.09">3</text>
</g>
<g clip-path="url(#clip2000)">
<text style="fill:#000000; fill-opacity:1; font-family:Arial,Helvetica Neue,Helvetica,sans-serif; font-size:71px; text-anchor:end;" transform="rotate(0, 2619.48, 2832.38)" x="2619.48" y="2832.38">4</text>
</g>
<g clip-path="url(#clip2000)">
<text style="fill:#000000; fill-opacity:1; font-family:Arial,Helvetica Neue,Helvetica,sans-serif; font-size:125px; text-anchor:middle;" transform="rotate(0, 3710.12, 2509.2)" x="3710.12" y="2509.2">Overweight patient 45 mcg (4 patients)</text>
</g>
<g clip-path="url(#clip2000)">
<text style="fill:#000000; fill-opacity:1; font-family:Arial,Helvetica Neue,Helvetica,sans-serif; font-size:95px; text-anchor:middle;" transform="rotate(0, 3710.12, 4707.46)" x="3710.12" y="4707.46">Time (hours)</text>
</g>
<g clip-path="url(#clip2000)">
<text style="fill:#000000; fill-opacity:1; font-family:Arial,Helvetica Neue,Helvetica,sans-serif; font-size:95px; text-anchor:middle;" transform="rotate(-90, 2513.54, 3546.12)" x="2513.54" y="3546.12">T3 mcg/L</text>
</g>
<path clip-path="url(#clip2005)" d="
M2726.5 4168.14 L2751.09 4149.45 L2775.68 4095.15 L2800.27 4026.58 L2824.86 3951.97 L2849.45 3875.37 L2874.04 3799.36 L2898.63 3725.81 L2923.22 3655.89 L2947.81 3590.54 
  L2972.41 3530.3 L2997 3475.4 L3021.59 3426.24 L3046.18 3382.68 L3070.77 3344.14 L3095.36 3311.22 L3119.95 3284.7 L3144.54 3260.52 L3169.13 3239.95 L3193.72 3229.77 
  L3218.31 3217.74 L3242.9 3204.78 L3267.49 3208.41 L3292.08 3202.26 L3316.67 3204.18 L3341.26 3210.58 L3365.85 3212.26 L3390.44 3224.13 L3415.03 3230.16 L3439.62 3243.51 
  L3464.21 3254.83 L3488.81 3267.63 L3513.4 3283.07 L3537.99 3295.53 L3562.58 3313.33 L3587.17 3327.97 L3611.76 3344.39 L3636.35 3362.47 L3660.94 3376.58 L3685.53 3396.37 
  L3710.12 3412.11 L3734.71 3428.96 L3759.3 3447.95 L3783.89 3461.75 L3808.48 3481.57 L3833.07 3496.81 L3857.66 3512.73 L3882.25 3531.14 L3906.84 3544.79 L3931.43 3562.63 
  L3956.02 3577.23 L3980.61 3592.04 L4005.21 3608.46 L4029.8 3620.71 L4054.39 3637.07 L4078.98 3649.89 L4103.57 3663.51 L4128.16 3678.09 L4152.75 3688.88 L4177.34 3703.61 
  L4201.93 3714.57 L4226.52 3726.8 L4251.11 3739.49 L4275.7 3748.86 L4300.29 3761.98 L4324.88 3771.2 L4349.47 3782.11 L4374.06 3792.98 L4398.65 3801.09 L4423.24 3812.66 
  L4447.83 3820.33 L4472.42 3830.03 L4497.01 3839.24 L4521.61 3846.25 L4546.2 3856.38 L4570.79 3862.73 L4595.38 3871.33 L4619.97 3879.07 L4644.56 3885.13 L4669.15 3893.45 
  L4693.74 3899.79 L4693.74 3782.84 L4669.15 3775.12 L4644.56 3768.02 L4619.97 3760.18 L4595.38 3751.82 L4570.79 3744.02 L4546.2 3734.8 L4521.61 3726.38 L4497.01 3717.12 
  L4472.42 3707.63 L4447.83 3698.32 L4423.24 3687.81 L4398.65 3677.96 L4374.06 3667.1 L4349.47 3656.33 L4324.88 3645.29 L4300.29 3633.36 L4275.7 3621.86 L4251.11 3609.26 
  L4226.52 3597.02 L4201.93 3584.07 L4177.34 3570.64 L4152.75 3557.29 L4128.16 3542.87 L4103.57 3529.02 L4078.98 3514.05 L4054.39 3499.08 L4029.8 3483.77 L4005.21 3467.61 
  L3980.61 3452.12 L3956.02 3435.22 L3931.43 3418.92 L3906.84 3401.73 L3882.25 3383.99 L3857.66 3366.66 L3833.07 3347.86 L3808.48 3331.47 L3783.89 3311.78 L3759.3 3293.99 
  L3734.71 3275.97 L3710.12 3255.83 L3685.53 3239.25 L3660.94 3219.12 L3636.35 3201.5 L3611.76 3183.89 L3587.17 3164.49 L3562.58 3149.02 L3537.99 3130.59 L3513.4 3115.23 
  L3488.81 3100.06 L3464.21 3084.35 L3439.62 3072.94 L3415.03 3058.5 L3390.44 3050.55 L3365.85 3039.69 L3341.26 3034.18 L3316.67 3030.28 L3292.08 3024.63 L3267.49 3032.18 
  L3242.9 3029.42 L3218.31 3040.35 L3193.72 3054.59 L3169.13 3064.27 L3144.54 3086.3 L3119.95 3112.12 L3095.36 3139.62 L3070.77 3174.75 L3046.18 3215.8 L3021.59 3261.94 
  L2997 3314.32 L2972.41 3372.85 L2947.81 3437.04 L2923.22 3506.79 L2898.63 3581.42 L2874.04 3659.97 L2849.45 3741.16 L2824.86 3823 L2800.27 3902.76 L2775.68 3976.09 
  L2751.09 4034.21 L2726.5 4053.78  Z
  " fill="#009af9" fill-rule="evenodd" fill-opacity="0.3"/>
<polyline clip-path="url(#clip2005)" style="stroke:#009af9; stroke-width:4; stroke-opacity:1; fill:none" points="
  2726.5,4110.96 2751.09,4091.83 2775.68,4035.62 2800.27,3964.67 2824.86,3887.49 2849.45,3808.26 2874.04,3729.67 2898.63,3653.62 2923.22,3581.34 2947.81,3513.79 
  2972.41,3451.58 2997,3394.86 3021.59,3344.09 3046.18,3299.24 3070.77,3259.45 3095.36,3225.42 3119.95,3198.41 3144.54,3173.41 3169.13,3152.11 3193.72,3142.18 
  3218.31,3129.04 3242.9,3117.1 3267.49,3120.29 3292.08,3113.45 3316.67,3117.23 3341.26,3122.38 3365.85,3125.97 3390.44,3137.34 3415.03,3144.33 3439.62,3158.23 
  3464.21,3169.59 3488.81,3183.84 3513.4,3199.15 3537.99,3213.06 3562.58,3231.17 3587.17,3246.23 3611.76,3264.14 3636.35,3281.99 3660.94,3297.85 3685.53,3317.81 
  3710.12,3333.97 3734.71,3352.47 3759.3,3370.97 3783.89,3386.76 3808.48,3406.52 3833.07,3422.34 3857.66,3439.7 3882.25,3457.56 3906.84,3473.26 3931.43,3490.77 
  3956.02,3506.23 3980.61,3522.08 4005.21,3538.04 4029.8,3552.24 4054.39,3568.07 4078.98,3581.97 4103.57,3596.26 4128.16,3610.48 4152.75,3623.08 4177.34,3637.12 
  4201.93,3649.32 4226.52,3661.91 4251.11,3674.37 4275.7,3685.36 4300.29,3697.67 4324.88,3708.25 4349.47,3719.22 4374.06,3730.04 4398.65,3739.53 4423.24,3750.24 
  4447.83,3759.33 4472.42,3768.83 4497.01,3778.18 4521.61,3786.31 4546.2,3795.59 4570.79,3803.37 4595.38,3811.58 4619.97,3819.62 4644.56,3826.57 4669.15,3834.28 
  4693.74,3841.31 
  "/>
<polyline clip-path="url(#clip2005)" style="stroke:#e26f46; stroke-width:4; stroke-opacity:1; fill:none" points="
  2726.5,4110.96 2849.45,3976.86 2972.41,3304.44 3218.31,2885.01 3464.21,3115.28 3710.12,3263.22 3956.02,3494.66 4201.93,3617.35 4447.83,3727.67 4693.74,3817.92 
  
  "/>
<polyline clip-path="url(#clip2005)" style="stroke:#e26f46; stroke-width:4; stroke-opacity:1; fill:none" points="
  2726.5,4168.14 2726.5,4053.78 
  "/>
<polyline clip-path="url(#clip2005)" style="stroke:#e26f46; stroke-width:4; stroke-opacity:1; fill:none" points="
  2849.45,4019.69 2849.45,3934.03 
  "/>
<polyline clip-path="url(#clip2005)" style="stroke:#e26f46; stroke-width:4; stroke-opacity:1; fill:none" points="
  2972.41,3604.45 2972.41,3004.42 
  "/>
<polyline clip-path="url(#clip2005)" style="stroke:#e26f46; stroke-width:4; stroke-opacity:1; fill:none" points="
  3218.31,3329.49 3218.31,2440.52 
  "/>
<polyline clip-path="url(#clip2005)" style="stroke:#e26f46; stroke-width:4; stroke-opacity:1; fill:none" points="
  3464.21,3521.77 3464.21,2708.78 
  "/>
<polyline clip-path="url(#clip2005)" style="stroke:#e26f46; stroke-width:4; stroke-opacity:1; fill:none" points="
  3710.12,3577.42 3710.12,2949.03 
  "/>
<polyline clip-path="url(#clip2005)" style="stroke:#e26f46; stroke-width:4; stroke-opacity:1; fill:none" points="
  3956.02,3714.12 3956.02,3275.19 
  "/>
<polyline clip-path="url(#clip2005)" style="stroke:#e26f46; stroke-width:4; stroke-opacity:1; fill:none" points="
  4201.93,3757.95 4201.93,3476.74 
  "/>
<polyline clip-path="url(#clip2005)" style="stroke:#e26f46; stroke-width:4; stroke-opacity:1; fill:none" points="
  4447.83,3888.58 4447.83,3566.76 
  "/>
<polyline clip-path="url(#clip2005)" style="stroke:#e26f46; stroke-width:4; stroke-opacity:1; fill:none" points="
  4693.74,3948.05 4693.74,3687.79 
  "/>
<line clip-path="url(#clip2005)" x1="2746.5" y1="4168.14" x2="2706.5" y2="4168.14" style="stroke:#000000; stroke-width:4; stroke-opacity:1"/>
<line clip-path="url(#clip2005)" x1="2746.5" y1="4053.78" x2="2706.5" y2="4053.78" style="stroke:#000000; stroke-width:4; stroke-opacity:1"/>
<line clip-path="url(#clip2005)" x1="2869.45" y1="4019.69" x2="2829.45" y2="4019.69" style="stroke:#000000; stroke-width:4; stroke-opacity:1"/>
<line clip-path="url(#clip2005)" x1="2869.45" y1="3934.03" x2="2829.45" y2="3934.03" style="stroke:#000000; stroke-width:4; stroke-opacity:1"/>
<line clip-path="url(#clip2005)" x1="2992.41" y1="3604.45" x2="2952.41" y2="3604.45" style="stroke:#000000; stroke-width:4; stroke-opacity:1"/>
<line clip-path="url(#clip2005)" x1="2992.41" y1="3004.42" x2="2952.41" y2="3004.42" style="stroke:#000000; stroke-width:4; stroke-opacity:1"/>
<line clip-path="url(#clip2005)" x1="3238.31" y1="3329.49" x2="3198.31" y2="3329.49" style="stroke:#000000; stroke-width:4; stroke-opacity:1"/>
<line clip-path="url(#clip2005)" x1="3484.21" y1="3521.77" x2="3444.21" y2="3521.77" style="stroke:#000000; stroke-width:4; stroke-opacity:1"/>
<line clip-path="url(#clip2005)" x1="3484.21" y1="2708.78" x2="3444.21" y2="2708.78" style="stroke:#000000; stroke-width:4; stroke-opacity:1"/>
<line clip-path="url(#clip2005)" x1="3730.12" y1="3577.42" x2="3690.12" y2="3577.42" style="stroke:#000000; stroke-width:4; stroke-opacity:1"/>
<line clip-path="url(#clip2005)" x1="3730.12" y1="2949.03" x2="3690.12" y2="2949.03" style="stroke:#000000; stroke-width:4; stroke-opacity:1"/>
<line clip-path="url(#clip2005)" x1="3976.02" y1="3714.12" x2="3936.02" y2="3714.12" style="stroke:#000000; stroke-width:4; stroke-opacity:1"/>
<line clip-path="url(#clip2005)" x1="3976.02" y1="3275.19" x2="3936.02" y2="3275.19" style="stroke:#000000; stroke-width:4; stroke-opacity:1"/>
<line clip-path="url(#clip2005)" x1="4221.93" y1="3757.95" x2="4181.93" y2="3757.95" style="stroke:#000000; stroke-width:4; stroke-opacity:1"/>
<line clip-path="url(#clip2005)" x1="4221.93" y1="3476.74" x2="4181.93" y2="3476.74" style="stroke:#000000; stroke-width:4; stroke-opacity:1"/>
<line clip-path="url(#clip2005)" x1="4467.83" y1="3888.58" x2="4427.83" y2="3888.58" style="stroke:#000000; stroke-width:4; stroke-opacity:1"/>
<line clip-path="url(#clip2005)" x1="4467.83" y1="3566.76" x2="4427.83" y2="3566.76" style="stroke:#000000; stroke-width:4; stroke-opacity:1"/>
<line clip-path="url(#clip2005)" x1="4713.74" y1="3948.05" x2="4673.74" y2="3948.05" style="stroke:#000000; stroke-width:4; stroke-opacity:1"/>
<line clip-path="url(#clip2005)" x1="4713.74" y1="3687.79" x2="4673.74" y2="3687.79" style="stroke:#000000; stroke-width:4; stroke-opacity:1"/>
<path clip-path="url(#clip2000)" d="
M3803.78 3064.47 L4608.76 3064.47 L4608.76 2792.31 L3803.78 2792.31  Z
  " fill="#ffffff" fill-rule="evenodd" fill-opacity="1"/>
<polyline clip-path="url(#clip2000)" style="stroke:#000000; stroke-width:4; stroke-opacity:1; fill:none" points="
  3803.78,3064.47 4608.76,3064.47 4608.76,2792.31 3803.78,2792.31 3803.78,3064.47 
  "/>
<polyline clip-path="url(#clip2000)" style="stroke:#009af9; stroke-width:4; stroke-opacity:1; fill:none" points="
  3851.78,2883.03 4139.78,2883.03 
  "/>
<g clip-path="url(#clip2000)">
<text style="fill:#000000; fill-opacity:1; font-family:Arial,Helvetica Neue,Helvetica,sans-serif; font-size:71px; text-anchor:start;" transform="rotate(0, 4187.78, 2909.03)" x="4187.78" y="2909.03">simulation</text>
</g>
<polyline clip-path="url(#clip2000)" style="stroke:#e26f46; stroke-width:4; stroke-opacity:1; fill:none" points="
  3851.78,2973.75 4139.78,2973.75 
  "/>
<g clip-path="url(#clip2000)">
<text style="fill:#000000; fill-opacity:1; font-family:Arial,Helvetica Neue,Helvetica,sans-serif; font-size:71px; text-anchor:start;" transform="rotate(0, 4187.78, 2999.75)" x="4187.78" y="2999.75">data</text>
</g>
</svg>
