<?xml version="1.0" encoding="utf-8"?>
<svg xmlns="http://www.w3.org/2000/svg" xmlns:xlink="http://www.w3.org/1999/xlink" width="1200" height="1200" viewBox="0 0 4800 4800">
<defs>
  <clipPath id="clip6800">
    <rect x="0" y="0" width="4800" height="4800"/>
  </clipPath>
</defs>
<polygon clip-path="url(#clip6800)" points="
0,4800 4800,4800 4800,0 0,0 
  " fill="#ffffff" fill-rule="evenodd" fill-opacity="1"/>
<defs>
  <clipPath id="clip6801">
    <rect x="960" y="480" width="3361" height="3361"/>
  </clipPath>
</defs>
<polygon clip-path="url(#clip6800)" points="
267.483,2097.21 2352.76,2097.21 2352.76,195.029 267.483,195.029 
  " fill="#ffffff" fill-rule="evenodd" fill-opacity="1"/>
<defs>
  <clipPath id="clip6802">
    <rect x="267" y="195" width="2086" height="1903"/>
  </clipPath>
</defs>
<polyline clip-path="url(#clip6802)" style="stroke:#000000; stroke-width:2; stroke-opacity:0.1; fill:none" points="
  326.5,2097.21 326.5,195.029 
  "/>
<polyline clip-path="url(#clip6802)" style="stroke:#000000; stroke-width:2; stroke-opacity:0.1; fill:none" points="
  818.31,2097.21 818.31,195.029 
  "/>
<polyline clip-path="url(#clip6802)" style="stroke:#000000; stroke-width:2; stroke-opacity:0.1; fill:none" points="
  1310.12,2097.21 1310.12,195.029 
  "/>
<polyline clip-path="url(#clip6802)" style="stroke:#000000; stroke-width:2; stroke-opacity:0.1; fill:none" points="
  1801.93,2097.21 1801.93,195.029 
  "/>
<polyline clip-path="url(#clip6802)" style="stroke:#000000; stroke-width:2; stroke-opacity:0.1; fill:none" points="
  2293.74,2097.21 2293.74,195.029 
  "/>
<polyline clip-path="url(#clip6802)" style="stroke:#000000; stroke-width:2; stroke-opacity:0.1; fill:none" points="
  267.483,2097.21 2352.76,2097.21 
  "/>
<polyline clip-path="url(#clip6802)" style="stroke:#000000; stroke-width:2; stroke-opacity:0.1; fill:none" points="
  267.483,1674.5 2352.76,1674.5 
  "/>
<polyline clip-path="url(#clip6802)" style="stroke:#000000; stroke-width:2; stroke-opacity:0.1; fill:none" points="
  267.483,1251.8 2352.76,1251.8 
  "/>
<polyline clip-path="url(#clip6802)" style="stroke:#000000; stroke-width:2; stroke-opacity:0.1; fill:none" points="
  267.483,829.09 2352.76,829.09 
  "/>
<polyline clip-path="url(#clip6802)" style="stroke:#000000; stroke-width:2; stroke-opacity:0.1; fill:none" points="
  267.483,406.382 2352.76,406.382 
  "/>
<polyline clip-path="url(#clip6800)" style="stroke:#000000; stroke-width:4; stroke-opacity:1; fill:none" points="
  267.483,2097.21 2352.76,2097.21 
  "/>
<polyline clip-path="url(#clip6800)" style="stroke:#000000; stroke-width:4; stroke-opacity:1; fill:none" points="
  267.483,2097.21 267.483,195.029 
  "/>
<polyline clip-path="url(#clip6800)" style="stroke:#000000; stroke-width:4; stroke-opacity:1; fill:none" points="
  326.5,2097.21 326.5,2068.68 
  "/>
<polyline clip-path="url(#clip6800)" style="stroke:#000000; stroke-width:4; stroke-opacity:1; fill:none" points="
  818.31,2097.21 818.31,2068.68 
  "/>
<polyline clip-path="url(#clip6800)" style="stroke:#000000; stroke-width:4; stroke-opacity:1; fill:none" points="
  1310.12,2097.21 1310.12,2068.68 
  "/>
<polyline clip-path="url(#clip6800)" style="stroke:#000000; stroke-width:4; stroke-opacity:1; fill:none" points="
  1801.93,2097.21 1801.93,2068.68 
  "/>
<polyline clip-path="url(#clip6800)" style="stroke:#000000; stroke-width:4; stroke-opacity:1; fill:none" points="
  2293.74,2097.21 2293.74,2068.68 
  "/>
<polyline clip-path="url(#clip6800)" style="stroke:#000000; stroke-width:4; stroke-opacity:1; fill:none" points="
  267.483,2097.21 298.762,2097.21 
  "/>
<polyline clip-path="url(#clip6800)" style="stroke:#000000; stroke-width:4; stroke-opacity:1; fill:none" points="
  267.483,1674.5 298.762,1674.5 
  "/>
<polyline clip-path="url(#clip6800)" style="stroke:#000000; stroke-width:4; stroke-opacity:1; fill:none" points="
  267.483,1251.8 298.762,1251.8 
  "/>
<polyline clip-path="url(#clip6800)" style="stroke:#000000; stroke-width:4; stroke-opacity:1; fill:none" points="
  267.483,829.09 298.762,829.09 
  "/>
<polyline clip-path="url(#clip6800)" style="stroke:#000000; stroke-width:4; stroke-opacity:1; fill:none" points="
  267.483,406.382 298.762,406.382 
  "/>
<g clip-path="url(#clip6800)">
<text style="fill:#000000; fill-opacity:1; font-family:Arial,Helvetica Neue,Helvetica,sans-serif; font-size:71px; text-anchor:middle;" transform="rotate(0, 326.5, 2183.61)" x="326.5" y="2183.61">0</text>
</g>
<g clip-path="url(#clip6800)">
<text style="fill:#000000; fill-opacity:1; font-family:Arial,Helvetica Neue,Helvetica,sans-serif; font-size:71px; text-anchor:middle;" transform="rotate(0, 818.31, 2183.61)" x="818.31" y="2183.61">2</text>
</g>
<g clip-path="url(#clip6800)">
<text style="fill:#000000; fill-opacity:1; font-family:Arial,Helvetica Neue,Helvetica,sans-serif; font-size:71px; text-anchor:middle;" transform="rotate(0, 1310.12, 2183.61)" x="1310.12" y="2183.61">4</text>
</g>
<g clip-path="url(#clip6800)">
<text style="fill:#000000; fill-opacity:1; font-family:Arial,Helvetica Neue,Helvetica,sans-serif; font-size:71px; text-anchor:middle;" transform="rotate(0, 1801.93, 2183.61)" x="1801.93" y="2183.61">6</text>
</g>
<g clip-path="url(#clip6800)">
<text style="fill:#000000; fill-opacity:1; font-family:Arial,Helvetica Neue,Helvetica,sans-serif; font-size:71px; text-anchor:middle;" transform="rotate(0, 2293.74, 2183.61)" x="2293.74" y="2183.61">8</text>
</g>
<g clip-path="url(#clip6800)">
<text style="fill:#000000; fill-opacity:1; font-family:Arial,Helvetica Neue,Helvetica,sans-serif; font-size:71px; text-anchor:end;" transform="rotate(0, 219.483, 2123.21)" x="219.483" y="2123.21">0</text>
</g>
<g clip-path="url(#clip6800)">
<text style="fill:#000000; fill-opacity:1; font-family:Arial,Helvetica Neue,Helvetica,sans-serif; font-size:71px; text-anchor:end;" transform="rotate(0, 219.483, 1700.5)" x="219.483" y="1700.5">1</text>
</g>
<g clip-path="url(#clip6800)">
<text style="fill:#000000; fill-opacity:1; font-family:Arial,Helvetica Neue,Helvetica,sans-serif; font-size:71px; text-anchor:end;" transform="rotate(0, 219.483, 1277.8)" x="219.483" y="1277.8">2</text>
</g>
<g clip-path="url(#clip6800)">
<text style="fill:#000000; fill-opacity:1; font-family:Arial,Helvetica Neue,Helvetica,sans-serif; font-size:71px; text-anchor:end;" transform="rotate(0, 219.483, 855.09)" x="219.483" y="855.09">3</text>
</g>
<g clip-path="url(#clip6800)">
<text style="fill:#000000; fill-opacity:1; font-family:Arial,Helvetica Neue,Helvetica,sans-serif; font-size:71px; text-anchor:end;" transform="rotate(0, 219.483, 432.382)" x="219.483" y="432.382">4</text>
</g>
<g clip-path="url(#clip6800)">
<text style="fill:#000000; fill-opacity:1; font-family:Arial,Helvetica Neue,Helvetica,sans-serif; font-size:125px; text-anchor:middle;" transform="rotate(0, 1310.12, 109.2)" x="1310.12" y="109.2">Normal patient 30 mcg (6 patients)</text>
</g>
<g clip-path="url(#clip6800)">
<text style="fill:#000000; fill-opacity:1; font-family:Arial,Helvetica Neue,Helvetica,sans-serif; font-size:95px; text-anchor:middle;" transform="rotate(0, 1310.12, 2307.46)" x="1310.12" y="2307.46">Time (hours)</text>
</g>
<g clip-path="url(#clip6800)">
<text style="fill:#000000; fill-opacity:1; font-family:Arial,Helvetica Neue,Helvetica,sans-serif; font-size:95px; text-anchor:middle;" transform="rotate(-90, 113.54, 1146.12)" x="113.54" y="1146.12">T3 mcg/L</text>
</g>
<polygon clip-path="url(#clip6802)" points="
326.5,1829.39 351.091,1797.13 375.681,1723.8 400.272,1639.21 424.862,1553.69 449.453,1471.67 474.043,1395.45 498.634,1326.35 523.224,1264.85 547.815,1211.15 
  572.405,1165.08 596.996,1126.13 621.586,1094.23 646.177,1068.33 670.767,1047.79 695.357,1033.7 719.948,1022.8 744.538,1014.65 769.129,1014.86 793.719,1013.36 
  818.31,1013.25 842.9,1022.75 867.491,1025.66 892.081,1035.23 916.672,1045.39 941.262,1055.2 965.853,1068.17 990.443,1079.81 1015.03,1093.79 1039.62,1106.82 
  1064.21,1121.18 1088.81,1135.1 1113.4,1149.32 1137.99,1163.72 1162.58,1177.57 1187.17,1191.99 1211.76,1205.77 1236.35,1219.59 1260.94,1233.53 1285.53,1246.39 
  1310.12,1260.05 1334.71,1272.4 1359.3,1285.22 1383.89,1297.6 1408.48,1308.8 1433.07,1321.24 1457.66,1332.33 1482.25,1343.68 1506.84,1354.34 1531.43,1364.62 
  1556.02,1375.01 1580.61,1384.47 1605.21,1394.41 1629.8,1403.3 1654.39,1412.59 1678.98,1421.08 1703.57,1429.69 1728.16,1437.83 1752.75,1445.6 1777.34,1453.47 
  1801.93,1460.5 1826.52,1467.94 1851.11,1474.75 1875.7,1481.88 1900.29,1488.04 1924.88,1494.53 1949.47,1500.51 1974.06,1506.23 1998.65,1512.29 2023.24,1517.37 
  2047.83,1523.14 2072.42,1528 2097.01,1533.07 2121.61,1538.1 2146.2,1542.35 2170.79,1547.4 2195.38,1551.27 2219.97,1555.85 2244.56,1559.89 2269.15,1563.52 
  2293.74,1567.57 2293.74,1301.64 2269.15,1297.7 2244.56,1293.71 2219.97,1289.57 2195.38,1285.21 2170.79,1280.85 2146.2,1276.2 2121.61,1271.52 2097.01,1266.62 
  2072.42,1261.55 2047.83,1256.4 2023.24,1250.94 1998.65,1245.45 1974.06,1239.66 1949.47,1233.72 1924.88,1227.64 1900.29,1221.24 1875.7,1214.76 1851.11,1207.93 
  1826.52,1200.92 1801.93,1193.69 1777.34,1186.22 1752.75,1178.51 1728.16,1170.54 1703.57,1162.28 1678.98,1153.79 1654.39,1144.95 1629.8,1135.92 1605.21,1126.52 
  1580.61,1116.8 1556.02,1106.85 1531.43,1096.41 1506.84,1085.91 1482.25,1074.91 1457.66,1063.86 1433.07,1052.43 1408.48,1040.43 1383.89,1028.09 1359.3,1014.77 
  1334.71,1001.89 1310.12,989.332 1285.53,975.234 1260.94,961.909 1236.35,947.334 1211.76,933.11 1187.17,918.858 1162.58,903.421 1137.99,889.451 1113.4,873.283 
  1088.81,859.285 1064.21,843.289 1039.62,829.065 1015.03,814.081 990.443,799.684 965.853,786.33 941.262,772.041 916.672,761.388 892.081,747.556 867.491,740.722 
  842.9,728.89 818.31,726.2 793.719,717.952 769.129,719.116 744.538,720.278 719.948,721.861 695.357,732.377 670.767,743.913 646.177,760.468 621.586,783.443 
  596.996,811.394 572.405,845.844 547.815,886.962 523.224,934.753 498.634,989.552 474.043,1050.9 449.453,1118.35 424.862,1190.59 400.272,1265.62 375.681,1339.52 
  351.091,1402.88 326.5,1425.63 
  " fill="#009af9" fill-rule="evenodd" fill-opacity="0.3"/>
<polyline clip-path="url(#clip6802)" style="stroke:#009af9; stroke-width:4; stroke-opacity:1; fill:none" points="
  326.5,1627.51 351.091,1600.01 375.681,1531.66 400.272,1452.41 424.862,1372.14 449.453,1295.01 474.043,1223.18 498.634,1157.95 523.224,1099.8 547.815,1049.06 
  572.405,1005.46 596.996,968.762 621.586,938.838 646.177,914.401 670.767,895.852 695.357,883.036 719.948,872.331 744.538,867.463 769.129,866.988 793.719,865.654 
  818.31,869.727 842.9,875.82 867.491,883.193 892.081,891.392 916.672,903.391 941.262,913.619 965.853,927.25 990.443,939.749 1015.03,953.934 1039.62,967.943 
  1064.21,982.235 1088.81,997.191 1113.4,1011.3 1137.99,1026.58 1162.58,1040.49 1187.17,1055.42 1211.76,1069.44 1236.35,1083.46 1260.94,1097.72 1285.53,1110.81 
  1310.12,1124.69 1334.71,1137.15 1359.3,1149.99 1383.89,1162.85 1408.48,1174.62 1433.07,1186.84 1457.66,1198.09 1482.25,1209.3 1506.84,1220.13 1531.43,1230.51 
  1556.02,1240.93 1580.61,1250.64 1605.21,1260.46 1629.8,1269.61 1654.39,1278.77 1678.98,1287.44 1703.57,1295.98 1728.16,1304.18 1752.75,1312.06 1777.34,1319.85 
  1801.93,1327.09 1826.52,1334.43 1851.11,1341.34 1875.7,1348.32 1900.29,1354.64 1924.88,1361.08 1949.47,1367.12 1974.06,1372.95 1998.65,1378.87 2023.24,1384.16 
  2047.83,1389.77 2072.42,1394.77 2097.01,1399.85 2121.61,1404.81 2146.2,1409.27 2170.79,1414.13 2195.38,1418.24 2219.97,1422.71 2244.56,1426.8 2269.15,1430.61 
  2293.74,1434.61 
  "/>
<polyline clip-path="url(#clip6802)" style="stroke:#e26f46; stroke-width:4; stroke-opacity:1; fill:none" points="
  326.5,1627.51 449.453,1486.26 572.405,1170.57 818.31,972.669 1064.21,1091.03 1310.12,1223.97 1556.02,1340.99 1801.93,1404.18 2047.83,1424.75 2293.74,1445.26 
  
  "/>
<polyline clip-path="url(#clip6802)" style="stroke:#e26f46; stroke-width:4; stroke-opacity:1; fill:none" points="
  326.5,1829.39 326.5,1425.63 
  "/>
<polyline clip-path="url(#clip6802)" style="stroke:#e26f46; stroke-width:4; stroke-opacity:1; fill:none" points="
  449.453,1780.72 449.453,1191.8 
  "/>
<polyline clip-path="url(#clip6802)" style="stroke:#e26f46; stroke-width:4; stroke-opacity:1; fill:none" points="
  572.405,1557.99 572.405,783.146 
  "/>
<polyline clip-path="url(#clip6802)" style="stroke:#e26f46; stroke-width:4; stroke-opacity:1; fill:none" points="
  818.31,1269.62 818.31,675.721 
  "/>
<polyline clip-path="url(#clip6802)" style="stroke:#e26f46; stroke-width:4; stroke-opacity:1; fill:none" points="
  1064.21,1408.46 1064.21,773.59 
  "/>
<polyline clip-path="url(#clip6802)" style="stroke:#e26f46; stroke-width:4; stroke-opacity:1; fill:none" points="
  1310.12,1495.19 1310.12,952.748 
  "/>
<polyline clip-path="url(#clip6802)" style="stroke:#e26f46; stroke-width:4; stroke-opacity:1; fill:none" points="
  1556.02,1607.22 1556.02,1074.76 
  "/>
<polyline clip-path="url(#clip6802)" style="stroke:#e26f46; stroke-width:4; stroke-opacity:1; fill:none" points="
  1801.93,1664.85 1801.93,1143.51 
  "/>
<polyline clip-path="url(#clip6802)" style="stroke:#e26f46; stroke-width:4; stroke-opacity:1; fill:none" points="
  2047.83,1689.08 2047.83,1160.43 
  "/>
<polyline clip-path="url(#clip6802)" style="stroke:#e26f46; stroke-width:4; stroke-opacity:1; fill:none" points="
  2293.74,1728.38 2293.74,1162.13 
  "/>
<line clip-path="url(#clip6802)" x1="346.5" y1="1829.39" x2="306.5" y2="1829.39" style="stroke:#000000; stroke-width:4; stroke-opacity:1"/>
<line clip-path="url(#clip6802)" x1="346.5" y1="1425.63" x2="306.5" y2="1425.63" style="stroke:#000000; stroke-width:4; stroke-opacity:1"/>
<line clip-path="url(#clip6802)" x1="469.453" y1="1780.72" x2="429.453" y2="1780.72" style="stroke:#000000; stroke-width:4; stroke-opacity:1"/>
<line clip-path="url(#clip6802)" x1="469.453" y1="1191.8" x2="429.453" y2="1191.8" style="stroke:#000000; stroke-width:4; stroke-opacity:1"/>
<line clip-path="url(#clip6802)" x1="592.405" y1="1557.99" x2="552.405" y2="1557.99" style="stroke:#000000; stroke-width:4; stroke-opacity:1"/>
<line clip-path="url(#clip6802)" x1="592.405" y1="783.146" x2="552.405" y2="783.146" style="stroke:#000000; stroke-width:4; stroke-opacity:1"/>
<line clip-path="url(#clip6802)" x1="838.31" y1="1269.62" x2="798.31" y2="1269.62" style="stroke:#000000; stroke-width:4; stroke-opacity:1"/>
<line clip-path="url(#clip6802)" x1="838.31" y1="675.721" x2="798.31" y2="675.721" style="stroke:#000000; stroke-width:4; stroke-opacity:1"/>
<line clip-path="url(#clip6802)" x1="1084.21" y1="1408.46" x2="1044.21" y2="1408.46" style="stroke:#000000; stroke-width:4; stroke-opacity:1"/>
<line clip-path="url(#clip6802)" x1="1084.21" y1="773.59" x2="1044.21" y2="773.59" style="stroke:#000000; stroke-width:4; stroke-opacity:1"/>
<line clip-path="url(#clip6802)" x1="1330.12" y1="1495.19" x2="1290.12" y2="1495.19" style="stroke:#000000; stroke-width:4; stroke-opacity:1"/>
<line clip-path="url(#clip6802)" x1="1330.12" y1="952.748" x2="1290.12" y2="952.748" style="stroke:#000000; stroke-width:4; stroke-opacity:1"/>
<line clip-path="url(#clip6802)" x1="1576.02" y1="1607.22" x2="1536.02" y2="1607.22" style="stroke:#000000; stroke-width:4; stroke-opacity:1"/>
<line clip-path="url(#clip6802)" x1="1576.02" y1="1074.76" x2="1536.02" y2="1074.76" style="stroke:#000000; stroke-width:4; stroke-opacity:1"/>
<line clip-path="url(#clip6802)" x1="1821.93" y1="1664.85" x2="1781.93" y2="1664.85" style="stroke:#000000; stroke-width:4; stroke-opacity:1"/>
<line clip-path="url(#clip6802)" x1="1821.93" y1="1143.51" x2="1781.93" y2="1143.51" style="stroke:#000000; stroke-width:4; stroke-opacity:1"/>
<line clip-path="url(#clip6802)" x1="2067.83" y1="1689.08" x2="2027.83" y2="1689.08" style="stroke:#000000; stroke-width:4; stroke-opacity:1"/>
<line clip-path="url(#clip6802)" x1="2067.83" y1="1160.43" x2="2027.83" y2="1160.43" style="stroke:#000000; stroke-width:4; stroke-opacity:1"/>
<line clip-path="url(#clip6802)" x1="2313.74" y1="1728.38" x2="2273.74" y2="1728.38" style="stroke:#000000; stroke-width:4; stroke-opacity:1"/>
<line clip-path="url(#clip6802)" x1="2313.74" y1="1162.13" x2="2273.74" y2="1162.13" style="stroke:#000000; stroke-width:4; stroke-opacity:1"/>
<polygon clip-path="url(#clip6800)" points="
1403.78,664.469 2208.76,664.469 2208.76,392.309 1403.78,392.309 
  " fill="#ffffff" fill-rule="evenodd" fill-opacity="1"/>
<polyline clip-path="url(#clip6800)" style="stroke:#000000; stroke-width:4; stroke-opacity:1; fill:none" points="
  1403.78,664.469 2208.76,664.469 2208.76,392.309 1403.78,392.309 1403.78,664.469 
  "/>
<polyline clip-path="url(#clip6800)" style="stroke:#009af9; stroke-width:4; stroke-opacity:1; fill:none" points="
  1451.78,483.029 1739.78,483.029 
  "/>
<g clip-path="url(#clip6800)">
<text style="fill:#000000; fill-opacity:1; font-family:Arial,Helvetica Neue,Helvetica,sans-serif; font-size:71px; text-anchor:start;" transform="rotate(0, 1787.78, 509.029)" x="1787.78" y="509.029">simulation</text>
</g>
<polyline clip-path="url(#clip6800)" style="stroke:#e26f46; stroke-width:4; stroke-opacity:1; fill:none" points="
  1451.78,573.749 1739.78,573.749 
  "/>
<g clip-path="url(#clip6800)">
<text style="fill:#000000; fill-opacity:1; font-family:Arial,Helvetica Neue,Helvetica,sans-serif; font-size:71px; text-anchor:start;" transform="rotate(0, 1787.78, 599.749)" x="1787.78" y="599.749">data</text>
</g>
<polygon clip-path="url(#clip6800)" points="
2667.48,2097.21 4752.76,2097.21 4752.76,195.029 2667.48,195.029 
  " fill="#ffffff" fill-rule="evenodd" fill-opacity="1"/>
<defs>
  <clipPath id="clip6803">
    <rect x="2667" y="195" width="2086" height="1903"/>
  </clipPath>
</defs>
<polyline clip-path="url(#clip6803)" style="stroke:#000000; stroke-width:2; stroke-opacity:0.1; fill:none" points="
  2726.5,2097.21 2726.5,195.029 
  "/>
<polyline clip-path="url(#clip6803)" style="stroke:#000000; stroke-width:2; stroke-opacity:0.1; fill:none" points="
  3218.31,2097.21 3218.31,195.029 
  "/>
<polyline clip-path="url(#clip6803)" style="stroke:#000000; stroke-width:2; stroke-opacity:0.1; fill:none" points="
  3710.12,2097.21 3710.12,195.029 
  "/>
<polyline clip-path="url(#clip6803)" style="stroke:#000000; stroke-width:2; stroke-opacity:0.1; fill:none" points="
  4201.93,2097.21 4201.93,195.029 
  "/>
<polyline clip-path="url(#clip6803)" style="stroke:#000000; stroke-width:2; stroke-opacity:0.1; fill:none" points="
  4693.74,2097.21 4693.74,195.029 
  "/>
<polyline clip-path="url(#clip6803)" style="stroke:#000000; stroke-width:2; stroke-opacity:0.1; fill:none" points="
  2667.48,2097.21 4752.76,2097.21 
  "/>
<polyline clip-path="url(#clip6803)" style="stroke:#000000; stroke-width:2; stroke-opacity:0.1; fill:none" points="
  2667.48,1674.5 4752.76,1674.5 
  "/>
<polyline clip-path="url(#clip6803)" style="stroke:#000000; stroke-width:2; stroke-opacity:0.1; fill:none" points="
  2667.48,1251.8 4752.76,1251.8 
  "/>
<polyline clip-path="url(#clip6803)" style="stroke:#000000; stroke-width:2; stroke-opacity:0.1; fill:none" points="
  2667.48,829.09 4752.76,829.09 
  "/>
<polyline clip-path="url(#clip6803)" style="stroke:#000000; stroke-width:2; stroke-opacity:0.1; fill:none" points="
  2667.48,406.382 4752.76,406.382 
  "/>
<polyline clip-path="url(#clip6800)" style="stroke:#000000; stroke-width:4; stroke-opacity:1; fill:none" points="
  2667.48,2097.21 4752.76,2097.21 
  "/>
<polyline clip-path="url(#clip6800)" style="stroke:#000000; stroke-width:4; stroke-opacity:1; fill:none" points="
  2667.48,2097.21 2667.48,195.029 
  "/>
<polyline clip-path="url(#clip6800)" style="stroke:#000000; stroke-width:4; stroke-opacity:1; fill:none" points="
  2726.5,2097.21 2726.5,2068.68 
  "/>
<polyline clip-path="url(#clip6800)" style="stroke:#000000; stroke-width:4; stroke-opacity:1; fill:none" points="
  3218.31,2097.21 3218.31,2068.68 
  "/>
<polyline clip-path="url(#clip6800)" style="stroke:#000000; stroke-width:4; stroke-opacity:1; fill:none" points="
  3710.12,2097.21 3710.12,2068.68 
  "/>
<polyline clip-path="url(#clip6800)" style="stroke:#000000; stroke-width:4; stroke-opacity:1; fill:none" points="
  4201.93,2097.21 4201.93,2068.68 
  "/>
<polyline clip-path="url(#clip6800)" style="stroke:#000000; stroke-width:4; stroke-opacity:1; fill:none" points="
  4693.74,2097.21 4693.74,2068.68 
  "/>
<polyline clip-path="url(#clip6800)" style="stroke:#000000; stroke-width:4; stroke-opacity:1; fill:none" points="
  2667.48,2097.21 2698.76,2097.21 
  "/>
<polyline clip-path="url(#clip6800)" style="stroke:#000000; stroke-width:4; stroke-opacity:1; fill:none" points="
  2667.48,1674.5 2698.76,1674.5 
  "/>
<polyline clip-path="url(#clip6800)" style="stroke:#000000; stroke-width:4; stroke-opacity:1; fill:none" points="
  2667.48,1251.8 2698.76,1251.8 
  "/>
<polyline clip-path="url(#clip6800)" style="stroke:#000000; stroke-width:4; stroke-opacity:1; fill:none" points="
  2667.48,829.09 2698.76,829.09 
  "/>
<polyline clip-path="url(#clip6800)" style="stroke:#000000; stroke-width:4; stroke-opacity:1; fill:none" points="
  2667.48,406.382 2698.76,406.382 
  "/>
<g clip-path="url(#clip6800)">
<text style="fill:#000000; fill-opacity:1; font-family:Arial,Helvetica Neue,Helvetica,sans-serif; font-size:71px; text-anchor:middle;" transform="rotate(0, 2726.5, 2183.61)" x="2726.5" y="2183.61">0</text>
</g>
<g clip-path="url(#clip6800)">
<text style="fill:#000000; fill-opacity:1; font-family:Arial,Helvetica Neue,Helvetica,sans-serif; font-size:71px; text-anchor:middle;" transform="rotate(0, 3218.31, 2183.61)" x="3218.31" y="2183.61">2</text>
</g>
<g clip-path="url(#clip6800)">
<text style="fill:#000000; fill-opacity:1; font-family:Arial,Helvetica Neue,Helvetica,sans-serif; font-size:71px; text-anchor:middle;" transform="rotate(0, 3710.12, 2183.61)" x="3710.12" y="2183.61">4</text>
</g>
<g clip-path="url(#clip6800)">
<text style="fill:#000000; fill-opacity:1; font-family:Arial,Helvetica Neue,Helvetica,sans-serif; font-size:71px; text-anchor:middle;" transform="rotate(0, 4201.93, 2183.61)" x="4201.93" y="2183.61">6</text>
</g>
<g clip-path="url(#clip6800)">
<text style="fill:#000000; fill-opacity:1; font-family:Arial,Helvetica Neue,Helvetica,sans-serif; font-size:71px; text-anchor:middle;" transform="rotate(0, 4693.74, 2183.61)" x="4693.74" y="2183.61">8</text>
</g>
<g clip-path="url(#clip6800)">
<text style="fill:#000000; fill-opacity:1; font-family:Arial,Helvetica Neue,Helvetica,sans-serif; font-size:71px; text-anchor:end;" transform="rotate(0, 2619.48, 2123.21)" x="2619.48" y="2123.21">0</text>
</g>
<g clip-path="url(#clip6800)">
<text style="fill:#000000; fill-opacity:1; font-family:Arial,Helvetica Neue,Helvetica,sans-serif; font-size:71px; text-anchor:end;" transform="rotate(0, 2619.48, 1700.5)" x="2619.48" y="1700.5">1</text>
</g>
<g clip-path="url(#clip6800)">
<text style="fill:#000000; fill-opacity:1; font-family:Arial,Helvetica Neue,Helvetica,sans-serif; font-size:71px; text-anchor:end;" transform="rotate(0, 2619.48, 1277.8)" x="2619.48" y="1277.8">2</text>
</g>
<g clip-path="url(#clip6800)">
<text style="fill:#000000; fill-opacity:1; font-family:Arial,Helvetica Neue,Helvetica,sans-serif; font-size:71px; text-anchor:end;" transform="rotate(0, 2619.48, 855.09)" x="2619.48" y="855.09">3</text>
</g>
<g clip-path="url(#clip6800)">
<text style="fill:#000000; fill-opacity:1; font-family:Arial,Helvetica Neue,Helvetica,sans-serif; font-size:71px; text-anchor:end;" transform="rotate(0, 2619.48, 432.382)" x="2619.48" y="432.382">4</text>
</g>
<g clip-path="url(#clip6800)">
<text style="fill:#000000; fill-opacity:1; font-family:Arial,Helvetica Neue,Helvetica,sans-serif; font-size:125px; text-anchor:middle;" transform="rotate(0, 3710.12, 109.2)" x="3710.12" y="109.2">Normal patient 45 mcg (3 patients)</text>
</g>
<g clip-path="url(#clip6800)">
<text style="fill:#000000; fill-opacity:1; font-family:Arial,Helvetica Neue,Helvetica,sans-serif; font-size:95px; text-anchor:middle;" transform="rotate(0, 3710.12, 2307.46)" x="3710.12" y="2307.46">Time (hours)</text>
</g>
<g clip-path="url(#clip6800)">
<text style="fill:#000000; fill-opacity:1; font-family:Arial,Helvetica Neue,Helvetica,sans-serif; font-size:95px; text-anchor:middle;" transform="rotate(-90, 2513.54, 1146.12)" x="2513.54" y="1146.12">T3 mcg/L</text>
</g>
<polygon clip-path="url(#clip6803)" points="
2726.5,1843.28 2751.09,1804.2 2775.68,1710.1 2800.27,1599.9 2824.86,1487.58 2849.45,1379.25 2874.04,1278.04 2898.63,1185.82 2923.22,1103.4 2947.81,1031.14 
  2972.41,968.808 2997,916.152 3021.59,872.5 3046.18,837.139 3070.77,809.66 3095.36,788.897 3119.95,774.042 3144.54,765.739 3169.13,761.919 3193.72,760.096 
  3218.31,764.669 3242.9,775.315 3267.49,778.884 3292.08,790.909 3316.67,810.211 3341.26,815.975 3365.85,838.654 3390.44,853.948 3415.03,871.861 3439.62,892.367 
  3464.21,909.416 3488.81,931.249 3513.4,948.829 3537.99,970.319 3562.58,989.186 3587.17,1008.79 3611.76,1028.99 3636.35,1046.49 3660.94,1067.12 3685.53,1084.58 
  3710.12,1102.86 3734.71,1121.69 3759.3,1137.14 3783.89,1156.14 3808.48,1171.71 3833.07,1187.8 3857.66,1204.74 3882.25,1218.06 3906.84,1234.66 3931.43,1248.6 
  3956.02,1262.57 3980.61,1277.19 4005.21,1288.9 4029.8,1303.19 4054.39,1314.9 4078.98,1327.06 4103.57,1339.53 4128.16,1349.57 4152.75,1361.98 4177.34,1371.83 
  4201.93,1382.37 4226.52,1392.98 4251.11,1401.44 4275.7,1412.18 4300.29,1420.4 4324.88,1429.49 4349.47,1438.52 4374.06,1445.64 4398.65,1454.93 4423.24,1461.76 
  4447.83,1469.62 4472.42,1477.28 4497.01,1483.28 4521.61,1491.32 4546.2,1496.98 4570.79,1503.81 4595.38,1510.28 4619.97,1515.35 4644.56,1522.33 4669.15,1527.07 
  4693.74,1532.62 4693.74,1408.87 4669.15,1402.98 4644.56,1396.27 4619.97,1391.34 4595.38,1383.75 4570.79,1377.65 4546.2,1370.95 4521.61,1362.88 4497.01,1356.84 
  4472.42,1347.92 4447.83,1340.96 4423.24,1332.76 4398.65,1323.7 4374.06,1316.26 4349.47,1305.85 4324.88,1297.8 4300.29,1287.87 4275.7,1277.64 4251.11,1268.52 
  4226.52,1256.48 4201.93,1247.03 4177.34,1235.1 4152.75,1223.5 4128.16,1212.37 4103.57,1198.56 4078.98,1187.32 4054.39,1173.15 4029.8,1160.05 4005.21,1146.66 
  3980.61,1131.05 3956.02,1117.76 3931.43,1100.89 3906.84,1085.88 3882.25,1069.43 3857.66,1052.47 3833.07,1036.74 3808.48,1016.91 3783.89,1001.08 3759.3,981.302 
  3734.71,962.467 3710.12,944.23 3685.53,922.328 3660.94,904.277 3636.35,882.473 3611.76,861.86 3587.17,841.577 3562.58,818.47 3537.99,798.968 3513.4,775.693 
  3488.81,755.433 3464.21,733.69 3439.62,711.916 3415.03,692.983 3390.44,669.253 3365.85,655.356 3341.26,630.467 3316.67,620.897 3292.08,603.835 3267.49,587.025 
  3242.9,584.75 3218.31,572.155 3193.72,566.715 3169.13,569.411 3144.54,572.396 3119.95,580.677 3095.36,596.53 3070.77,618.388 3046.18,647.501 3021.59,685.264 
  2997,731.901 2972.41,788.286 2947.81,855.132 2923.22,932.689 2898.63,1021.25 2874.04,1120.37 2849.45,1229.23 2824.86,1345.81 2800.27,1466.74 2775.68,1585.52 
  2751.09,1687.12 2726.5,1728.92 
  " fill="#009af9" fill-rule="evenodd" fill-opacity="0.3"/>
<polyline clip-path="url(#clip6803)" style="stroke:#009af9; stroke-width:4; stroke-opacity:1; fill:none" points="
  2726.5,1786.1 2751.09,1745.66 2775.68,1647.81 2800.27,1533.32 2824.86,1416.7 2849.45,1304.24 2874.04,1199.21 2898.63,1103.54 2923.22,1018.05 2947.81,943.135 
  2972.41,878.547 2997,824.026 3021.59,778.882 3046.18,742.32 3070.77,714.024 3095.36,692.713 3119.95,677.36 3144.54,669.068 3169.13,665.665 3193.72,663.406 
  3218.31,668.412 3242.9,680.033 3267.49,682.954 3292.08,697.372 3316.67,715.554 3341.26,723.221 3365.85,747.005 3390.44,761.6 3415.03,782.422 3439.62,802.141 
  3464.21,821.553 3488.81,843.341 3513.4,862.261 3537.99,884.643 3562.58,903.828 3587.17,925.184 3611.76,945.425 3636.35,964.481 3660.94,985.697 3685.53,1003.46 
  3710.12,1023.55 3734.71,1042.08 3759.3,1059.22 3783.89,1078.61 3808.48,1094.31 3833.07,1112.27 3857.66,1128.61 3882.25,1143.74 3906.84,1160.27 3931.43,1174.75 
  3956.02,1190.16 3980.61,1204.12 4005.21,1217.78 4029.8,1231.62 4054.39,1244.03 4078.98,1257.19 4103.57,1269.05 4128.16,1280.97 4152.75,1292.74 4177.34,1303.47 
  4201.93,1314.7 4226.52,1324.73 4251.11,1334.98 4275.7,1344.91 4300.29,1354.13 4324.88,1363.64 4349.47,1372.18 4374.06,1380.95 4398.65,1389.31 4423.24,1397.26 
  4447.83,1405.29 4472.42,1412.6 4497.01,1420.06 4521.61,1427.1 4546.2,1433.96 4570.79,1440.73 4595.38,1447.02 4619.97,1453.34 4644.56,1459.3 4669.15,1465.03 
  4693.74,1470.75 
  "/>
<polyline clip-path="url(#clip6803)" style="stroke:#e26f46; stroke-width:4; stroke-opacity:1; fill:none" points="
  2726.5,1786.1 2849.45,1685.64 2972.41,1324.5 3218.31,852.057 3464.21,983.659 3710.12,1095.82 3956.02,1151.62 4201.93,1357.61 4447.83,1380.3 4693.74,1455.4 
  
  "/>
<polyline clip-path="url(#clip6803)" style="stroke:#e26f46; stroke-width:4; stroke-opacity:1; fill:none" points="
  2726.5,1843.28 2726.5,1728.92 
  "/>
<polyline clip-path="url(#clip6803)" style="stroke:#e26f46; stroke-width:4; stroke-opacity:1; fill:none" points="
  2849.45,1728.46 2849.45,1642.81 
  "/>
<polyline clip-path="url(#clip6803)" style="stroke:#e26f46; stroke-width:4; stroke-opacity:1; fill:none" points="
  2972.41,1624.52 2972.41,1024.49 
  "/>
<polyline clip-path="url(#clip6803)" style="stroke:#e26f46; stroke-width:4; stroke-opacity:1; fill:none" points="
  3218.31,1296.54 3218.31,407.573 
  "/>
<polyline clip-path="url(#clip6803)" style="stroke:#e26f46; stroke-width:4; stroke-opacity:1; fill:none" points="
  3464.21,1390.16 3464.21,577.161 
  "/>
<polyline clip-path="url(#clip6803)" style="stroke:#e26f46; stroke-width:4; stroke-opacity:1; fill:none" points="
  3710.12,1410.02 3710.12,781.62 
  "/>
<polyline clip-path="url(#clip6803)" style="stroke:#e26f46; stroke-width:4; stroke-opacity:1; fill:none" points="
  3956.02,1371.08 3956.02,932.15 
  "/>
<polyline clip-path="url(#clip6803)" style="stroke:#e26f46; stroke-width:4; stroke-opacity:1; fill:none" points="
  4201.93,1498.22 4201.93,1217.01 
  "/>
<polyline clip-path="url(#clip6803)" style="stroke:#e26f46; stroke-width:4; stroke-opacity:1; fill:none" points="
  4447.83,1541.21 4447.83,1219.39 
  "/>
<polyline clip-path="url(#clip6803)" style="stroke:#e26f46; stroke-width:4; stroke-opacity:1; fill:none" points="
  4693.74,1585.53 4693.74,1325.27 
  "/>
<line clip-path="url(#clip6803)" x1="2746.5" y1="1843.28" x2="2706.5" y2="1843.28" style="stroke:#000000; stroke-width:4; stroke-opacity:1"/>
<line clip-path="url(#clip6803)" x1="2746.5" y1="1728.92" x2="2706.5" y2="1728.92" style="stroke:#000000; stroke-width:4; stroke-opacity:1"/>
<line clip-path="url(#clip6803)" x1="2869.45" y1="1728.46" x2="2829.45" y2="1728.46" style="stroke:#000000; stroke-width:4; stroke-opacity:1"/>
<line clip-path="url(#clip6803)" x1="2869.45" y1="1642.81" x2="2829.45" y2="1642.81" style="stroke:#000000; stroke-width:4; stroke-opacity:1"/>
<line clip-path="url(#clip6803)" x1="2992.41" y1="1624.52" x2="2952.41" y2="1624.52" style="stroke:#000000; stroke-width:4; stroke-opacity:1"/>
<line clip-path="url(#clip6803)" x1="2992.41" y1="1024.49" x2="2952.41" y2="1024.49" style="stroke:#000000; stroke-width:4; stroke-opacity:1"/>
<line clip-path="url(#clip6803)" x1="3238.31" y1="1296.54" x2="3198.31" y2="1296.54" style="stroke:#000000; stroke-width:4; stroke-opacity:1"/>
<line clip-path="url(#clip6803)" x1="3238.31" y1="407.573" x2="3198.31" y2="407.573" style="stroke:#000000; stroke-width:4; stroke-opacity:1"/>
<line clip-path="url(#clip6803)" x1="3484.21" y1="1390.16" x2="3444.21" y2="1390.16" style="stroke:#000000; stroke-width:4; stroke-opacity:1"/>
<line clip-path="url(#clip6803)" x1="3484.21" y1="577.161" x2="3444.21" y2="577.161" style="stroke:#000000; stroke-width:4; stroke-opacity:1"/>
<line clip-path="url(#clip6803)" x1="3730.12" y1="1410.02" x2="3690.12" y2="1410.02" style="stroke:#000000; stroke-width:4; stroke-opacity:1"/>
<line clip-path="url(#clip6803)" x1="3730.12" y1="781.62" x2="3690.12" y2="781.62" style="stroke:#000000; stroke-width:4; stroke-opacity:1"/>
<line clip-path="url(#clip6803)" x1="3976.02" y1="1371.08" x2="3936.02" y2="1371.08" style="stroke:#000000; stroke-width:4; stroke-opacity:1"/>
<line clip-path="url(#clip6803)" x1="3976.02" y1="932.15" x2="3936.02" y2="932.15" style="stroke:#000000; stroke-width:4; stroke-opacity:1"/>
<line clip-path="url(#clip6803)" x1="4221.93" y1="1498.22" x2="4181.93" y2="1498.22" style="stroke:#000000; stroke-width:4; stroke-opacity:1"/>
<line clip-path="url(#clip6803)" x1="4221.93" y1="1217.01" x2="4181.93" y2="1217.01" style="stroke:#000000; stroke-width:4; stroke-opacity:1"/>
<line clip-path="url(#clip6803)" x1="4467.83" y1="1541.21" x2="4427.83" y2="1541.21" style="stroke:#000000; stroke-width:4; stroke-opacity:1"/>
<line clip-path="url(#clip6803)" x1="4467.83" y1="1219.39" x2="4427.83" y2="1219.39" style="stroke:#000000; stroke-width:4; stroke-opacity:1"/>
<line clip-path="url(#clip6803)" x1="4713.74" y1="1585.53" x2="4673.74" y2="1585.53" style="stroke:#000000; stroke-width:4; stroke-opacity:1"/>
<line clip-path="url(#clip6803)" x1="4713.74" y1="1325.27" x2="4673.74" y2="1325.27" style="stroke:#000000; stroke-width:4; stroke-opacity:1"/>
<polygon clip-path="url(#clip6800)" points="
3803.78,664.469 4608.76,664.469 4608.76,392.309 3803.78,392.309 
  " fill="#ffffff" fill-rule="evenodd" fill-opacity="1"/>
<polyline clip-path="url(#clip6800)" style="stroke:#000000; stroke-width:4; stroke-opacity:1; fill:none" points="
  3803.78,664.469 4608.76,664.469 4608.76,392.309 3803.78,392.309 3803.78,664.469 
  "/>
<polyline clip-path="url(#clip6800)" style="stroke:#009af9; stroke-width:4; stroke-opacity:1; fill:none" points="
  3851.78,483.029 4139.78,483.029 
  "/>
<g clip-path="url(#clip6800)">
<text style="fill:#000000; fill-opacity:1; font-family:Arial,Helvetica Neue,Helvetica,sans-serif; font-size:71px; text-anchor:start;" transform="rotate(0, 4187.78, 509.029)" x="4187.78" y="509.029">simulation</text>
</g>
<polyline clip-path="url(#clip6800)" style="stroke:#e26f46; stroke-width:4; stroke-opacity:1; fill:none" points="
  3851.78,573.749 4139.78,573.749 
  "/>
<g clip-path="url(#clip6800)">
<text style="fill:#000000; fill-opacity:1; font-family:Arial,Helvetica Neue,Helvetica,sans-serif; font-size:71px; text-anchor:start;" transform="rotate(0, 4187.78, 599.749)" x="4187.78" y="599.749">data</text>
</g>
<polygon clip-path="url(#clip6800)" points="
267.483,4497.21 2352.76,4497.21 2352.76,2595.03 267.483,2595.03 
  " fill="#ffffff" fill-rule="evenodd" fill-opacity="1"/>
<defs>
  <clipPath id="clip6804">
    <rect x="267" y="2595" width="2086" height="1903"/>
  </clipPath>
</defs>
<polyline clip-path="url(#clip6804)" style="stroke:#000000; stroke-width:2; stroke-opacity:0.1; fill:none" points="
  326.5,4497.21 326.5,2595.03 
  "/>
<polyline clip-path="url(#clip6804)" style="stroke:#000000; stroke-width:2; stroke-opacity:0.1; fill:none" points="
  818.31,4497.21 818.31,2595.03 
  "/>
<polyline clip-path="url(#clip6804)" style="stroke:#000000; stroke-width:2; stroke-opacity:0.1; fill:none" points="
  1310.12,4497.21 1310.12,2595.03 
  "/>
<polyline clip-path="url(#clip6804)" style="stroke:#000000; stroke-width:2; stroke-opacity:0.1; fill:none" points="
  1801.93,4497.21 1801.93,2595.03 
  "/>
<polyline clip-path="url(#clip6804)" style="stroke:#000000; stroke-width:2; stroke-opacity:0.1; fill:none" points="
  2293.74,4497.21 2293.74,2595.03 
  "/>
<polyline clip-path="url(#clip6804)" style="stroke:#000000; stroke-width:2; stroke-opacity:0.1; fill:none" points="
  267.483,4497.21 2352.76,4497.21 
  "/>
<polyline clip-path="url(#clip6804)" style="stroke:#000000; stroke-width:2; stroke-opacity:0.1; fill:none" points="
  267.483,4074.5 2352.76,4074.5 
  "/>
<polyline clip-path="url(#clip6804)" style="stroke:#000000; stroke-width:2; stroke-opacity:0.1; fill:none" points="
  267.483,3651.8 2352.76,3651.8 
  "/>
<polyline clip-path="url(#clip6804)" style="stroke:#000000; stroke-width:2; stroke-opacity:0.1; fill:none" points="
  267.483,3229.09 2352.76,3229.09 
  "/>
<polyline clip-path="url(#clip6804)" style="stroke:#000000; stroke-width:2; stroke-opacity:0.1; fill:none" points="
  267.483,2806.38 2352.76,2806.38 
  "/>
<polyline clip-path="url(#clip6800)" style="stroke:#000000; stroke-width:4; stroke-opacity:1; fill:none" points="
  267.483,4497.21 2352.76,4497.21 
  "/>
<polyline clip-path="url(#clip6800)" style="stroke:#000000; stroke-width:4; stroke-opacity:1; fill:none" points="
  267.483,4497.21 267.483,2595.03 
  "/>
<polyline clip-path="url(#clip6800)" style="stroke:#000000; stroke-width:4; stroke-opacity:1; fill:none" points="
  326.5,4497.21 326.5,4468.68 
  "/>
<polyline clip-path="url(#clip6800)" style="stroke:#000000; stroke-width:4; stroke-opacity:1; fill:none" points="
  818.31,4497.21 818.31,4468.68 
  "/>
<polyline clip-path="url(#clip6800)" style="stroke:#000000; stroke-width:4; stroke-opacity:1; fill:none" points="
  1310.12,4497.21 1310.12,4468.68 
  "/>
<polyline clip-path="url(#clip6800)" style="stroke:#000000; stroke-width:4; stroke-opacity:1; fill:none" points="
  1801.93,4497.21 1801.93,4468.68 
  "/>
<polyline clip-path="url(#clip6800)" style="stroke:#000000; stroke-width:4; stroke-opacity:1; fill:none" points="
  2293.74,4497.21 2293.74,4468.68 
  "/>
<polyline clip-path="url(#clip6800)" style="stroke:#000000; stroke-width:4; stroke-opacity:1; fill:none" points="
  267.483,4497.21 298.762,4497.21 
  "/>
<polyline clip-path="url(#clip6800)" style="stroke:#000000; stroke-width:4; stroke-opacity:1; fill:none" points="
  267.483,4074.5 298.762,4074.5 
  "/>
<polyline clip-path="url(#clip6800)" style="stroke:#000000; stroke-width:4; stroke-opacity:1; fill:none" points="
  267.483,3651.8 298.762,3651.8 
  "/>
<polyline clip-path="url(#clip6800)" style="stroke:#000000; stroke-width:4; stroke-opacity:1; fill:none" points="
  267.483,3229.09 298.762,3229.09 
  "/>
<polyline clip-path="url(#clip6800)" style="stroke:#000000; stroke-width:4; stroke-opacity:1; fill:none" points="
  267.483,2806.38 298.762,2806.38 
  "/>
<g clip-path="url(#clip6800)">
<text style="fill:#000000; fill-opacity:1; font-family:Arial,Helvetica Neue,Helvetica,sans-serif; font-size:71px; text-anchor:middle;" transform="rotate(0, 326.5, 4583.61)" x="326.5" y="4583.61">0</text>
</g>
<g clip-path="url(#clip6800)">
<text style="fill:#000000; fill-opacity:1; font-family:Arial,Helvetica Neue,Helvetica,sans-serif; font-size:71px; text-anchor:middle;" transform="rotate(0, 818.31, 4583.61)" x="818.31" y="4583.61">2</text>
</g>
<g clip-path="url(#clip6800)">
<text style="fill:#000000; fill-opacity:1; font-family:Arial,Helvetica Neue,Helvetica,sans-serif; font-size:71px; text-anchor:middle;" transform="rotate(0, 1310.12, 4583.61)" x="1310.12" y="4583.61">4</text>
</g>
<g clip-path="url(#clip6800)">
<text style="fill:#000000; fill-opacity:1; font-family:Arial,Helvetica Neue,Helvetica,sans-serif; font-size:71px; text-anchor:middle;" transform="rotate(0, 1801.93, 4583.61)" x="1801.93" y="4583.61">6</text>
</g>
<g clip-path="url(#clip6800)">
<text style="fill:#000000; fill-opacity:1; font-family:Arial,Helvetica Neue,Helvetica,sans-serif; font-size:71px; text-anchor:middle;" transform="rotate(0, 2293.74, 4583.61)" x="2293.74" y="4583.61">8</text>
</g>
<g clip-path="url(#clip6800)">
<text style="fill:#000000; fill-opacity:1; font-family:Arial,Helvetica Neue,Helvetica,sans-serif; font-size:71px; text-anchor:end;" transform="rotate(0, 219.483, 4523.21)" x="219.483" y="4523.21">0</text>
</g>
<g clip-path="url(#clip6800)">
<text style="fill:#000000; fill-opacity:1; font-family:Arial,Helvetica Neue,Helvetica,sans-serif; font-size:71px; text-anchor:end;" transform="rotate(0, 219.483, 4100.5)" x="219.483" y="4100.5">1</text>
</g>
<g clip-path="url(#clip6800)">
<text style="fill:#000000; fill-opacity:1; font-family:Arial,Helvetica Neue,Helvetica,sans-serif; font-size:71px; text-anchor:end;" transform="rotate(0, 219.483, 3677.8)" x="219.483" y="3677.8">2</text>
</g>
<g clip-path="url(#clip6800)">
<text style="fill:#000000; fill-opacity:1; font-family:Arial,Helvetica Neue,Helvetica,sans-serif; font-size:71px; text-anchor:end;" transform="rotate(0, 219.483, 3255.09)" x="219.483" y="3255.09">3</text>
</g>
<g clip-path="url(#clip6800)">
<text style="fill:#000000; fill-opacity:1; font-family:Arial,Helvetica Neue,Helvetica,sans-serif; font-size:71px; text-anchor:end;" transform="rotate(0, 219.483, 2832.38)" x="219.483" y="2832.38">4</text>
</g>
<g clip-path="url(#clip6800)">
<text style="fill:#000000; fill-opacity:1; font-family:Arial,Helvetica Neue,Helvetica,sans-serif; font-size:125px; text-anchor:middle;" transform="rotate(0, 1310.12, 2509.2)" x="1310.12" y="2509.2">Overweight patient 30 mcg (2 patients)</text>
</g>
<g clip-path="url(#clip6800)">
<text style="fill:#000000; fill-opacity:1; font-family:Arial,Helvetica Neue,Helvetica,sans-serif; font-size:95px; text-anchor:middle;" transform="rotate(0, 1310.12, 4707.46)" x="1310.12" y="4707.46">Time (hours)</text>
</g>
<g clip-path="url(#clip6800)">
<text style="fill:#000000; fill-opacity:1; font-family:Arial,Helvetica Neue,Helvetica,sans-serif; font-size:95px; text-anchor:middle;" transform="rotate(-90, 113.54, 3546.12)" x="113.54" y="3546.12">T3 mcg/L</text>
</g>
<polygon clip-path="url(#clip6804)" points="
326.5,4158.12 351.091,4129.86 375.681,4060.95 400.272,3980.49 424.862,3898.66 449.453,3819.83 474.043,3746.24 498.634,3684.33 523.224,3639.76 547.815,3600.92 
  572.405,3567.63 596.996,3539.7 621.586,3516.96 646.177,3498.63 670.767,3484.73 695.357,3475.22 719.948,3467.84 744.538,3463.9 769.129,3465.64 793.719,3464.38 
  818.31,3466.59 842.9,3476.41 867.491,3476.72 892.081,3488.34 916.672,3496.09 941.262,3504.74 965.853,3516.85 990.443,3525.38 1015.03,3538.92 1039.62,3548.37 
  1064.21,3561.98 1088.81,3572.64 1113.4,3585.29 1137.99,3597.23 1162.58,3608.22 1187.17,3621.38 1211.76,3631.32 1236.35,3644.33 1260.94,3654.89 1285.53,3665.72 
  1310.12,3677.69 1334.71,3686.4 1359.3,3698.8 1383.89,3707.56 1408.48,3718.09 1433.07,3728.05 1457.66,3736.05 1482.25,3745.78 1506.84,3755.06 1531.43,3764.16 
  1556.02,3772.23 1580.61,3780.45 1605.21,3787.99 1629.8,3795.63 1654.39,3803.14 1678.98,3810.17 1703.57,3817.47 1728.16,3824 1752.75,3830.72 1777.34,3837.08 
  1801.93,3843.1 1826.52,3849.32 1851.11,3854.83 1875.7,3860.65 1900.29,3865.97 1924.88,3871.2 1949.47,3876.48 1974.06,3881.18 1998.65,3886.21 2023.24,3891.59 
  2047.83,3896.77 2072.42,3901.55 2097.01,3907.76 2121.61,3911.24 2146.2,3917.42 2170.79,3921.35 2195.38,3925.89 2219.97,3930.92 2244.56,3933.83 2269.15,3938.72 
  2293.74,3942.48 2293.74,3933.29 2269.15,3929.96 2244.56,3926.69 2219.97,3922.96 2195.38,3919.46 2170.79,3915.73 2146.2,3911.77 2121.61,3908.03 2097.01,3903.68 
  2072.42,3899.65 2047.83,3895.21 2023.24,3890.66 1998.65,3884.85 1974.06,3880.47 1949.47,3873 1924.88,3867.82 1900.29,3861.18 1875.7,3853.89 1851.11,3848.27 
  1826.52,3839.53 1801.93,3833.71 1777.34,3825.41 1752.75,3817.53 1728.16,3810.34 1703.57,3800.42 1678.98,3793.56 1654.39,3783.44 1629.8,3774.89 1605.21,3765.78 
  1580.61,3754.76 1556.02,3746.42 1531.43,3734.3 1506.84,3725.1 1482.25,3713.83 1457.66,3702.06 1433.07,3691.66 1408.48,3677.76 1383.89,3667.66 1359.3,3653.82 
  1334.71,3641.44 1310.12,3629 1285.53,3613.9 1260.94,3602.21 1236.35,3586.87 1211.76,3573.49 1187.17,3559.47 1162.58,3543.81 1137.99,3530.85 1113.4,3514.66 
  1088.81,3501.46 1064.21,3486.28 1039.62,3472.02 1015.03,3458.74 990.443,3443.13 965.853,3433.21 941.262,3416.16 916.672,3410.66 892.081,3396.34 867.491,3388.81 
  842.9,3385.56 818.31,3374.43 793.719,3374.48 769.129,3375.56 744.538,3375.75 719.948,3382.49 695.357,3393.19 670.767,3407.4 646.177,3427.18 621.586,3452.63 
  596.996,3483.97 572.405,3522.05 547.815,3567.13 523.224,3619.48 498.634,3679.29 474.043,3734.37 449.453,3789.51 424.862,3848.68 400.272,3910.17 375.681,3970.6 
  351.091,4021.96 326.5,4040.35 
  " fill="#009af9" fill-rule="evenodd" fill-opacity="0.3"/>
<polyline clip-path="url(#clip6804)" style="stroke:#009af9; stroke-width:4; stroke-opacity:1; fill:none" points="
  326.5,4099.23 351.091,4075.91 375.681,4015.77 400.272,3945.33 424.862,3873.67 449.453,3804.67 474.043,3740.31 498.634,3681.81 523.224,3629.62 547.815,3584.03 
  572.405,3544.84 596.996,3511.84 621.586,3484.79 646.177,3462.9 670.767,3446.06 695.357,3434.2 719.948,3425.16 744.538,3419.82 769.129,3420.6 793.719,3419.43 
  818.31,3420.51 842.9,3430.98 867.491,3432.77 892.081,3442.34 916.672,3453.38 941.262,3460.45 965.853,3475.03 990.443,3484.25 1015.03,3498.83 1039.62,3510.19 
  1064.21,3524.13 1088.81,3537.05 1113.4,3549.97 1137.99,3564.04 1162.58,3576.01 1187.17,3590.42 1211.76,3602.4 1236.35,3615.6 1260.94,3628.55 1285.53,3639.81 
  1310.12,3653.34 1334.71,3663.92 1359.3,3676.31 1383.89,3687.61 1408.48,3697.93 1433.07,3709.85 1457.66,3719.05 1482.25,3729.8 1506.84,3740.08 1531.43,3749.23 
  1556.02,3759.32 1580.61,3767.6 1605.21,3776.88 1629.8,3785.26 1654.39,3793.29 1678.98,3801.86 1703.57,3808.95 1728.16,3817.17 1752.75,3824.13 1777.34,3831.24 
  1801.93,3838.4 1826.52,3844.43 1851.11,3851.55 1875.7,3857.27 1900.29,3863.58 1924.88,3869.51 1949.47,3874.74 1974.06,3880.82 1998.65,3885.53 2023.24,3891.13 
  2047.83,3895.99 2072.42,3900.6 2097.01,3905.72 2121.61,3909.64 2146.2,3914.59 2170.79,3918.54 2195.38,3922.67 2219.97,3926.94 2244.56,3930.26 2269.15,3934.34 
  2293.74,3937.89 
  "/>
<polyline clip-path="url(#clip6804)" style="stroke:#e26f46; stroke-width:4; stroke-opacity:1; fill:none" points="
  326.5,4099.23 449.453,4023.99 572.405,3910.49 818.31,3746.91 1064.21,3798.26 1310.12,3848.99 1556.02,3890.84 1801.93,3982.56 2047.83,4043.01 2293.74,4006.66 
  
  "/>
<polyline clip-path="url(#clip6804)" style="stroke:#e26f46; stroke-width:4; stroke-opacity:1; fill:none" points="
  326.5,4301.11 326.5,3897.35 
  "/>
<polyline clip-path="url(#clip6804)" style="stroke:#e26f46; stroke-width:4; stroke-opacity:1; fill:none" points="
  449.453,4318.45 449.453,3729.53 
  "/>
<polyline clip-path="url(#clip6804)" style="stroke:#e26f46; stroke-width:4; stroke-opacity:1; fill:none" points="
  572.405,4297.91 572.405,3523.07 
  "/>
<polyline clip-path="url(#clip6804)" style="stroke:#e26f46; stroke-width:4; stroke-opacity:1; fill:none" points="
  818.31,4043.85 818.31,3449.96 
  "/>
<polyline clip-path="url(#clip6804)" style="stroke:#e26f46; stroke-width:4; stroke-opacity:1; fill:none" points="
  1064.21,4115.7 1064.21,3480.83 
  "/>
<polyline clip-path="url(#clip6804)" style="stroke:#e26f46; stroke-width:4; stroke-opacity:1; fill:none" points="
  1310.12,4120.21 1310.12,3577.77 
  "/>
<polyline clip-path="url(#clip6804)" style="stroke:#e26f46; stroke-width:4; stroke-opacity:1; fill:none" points="
  1556.02,4157.07 1556.02,3624.61 
  "/>
<polyline clip-path="url(#clip6804)" style="stroke:#e26f46; stroke-width:4; stroke-opacity:1; fill:none" points="
  1801.93,4243.23 1801.93,3721.9 
  "/>
<polyline clip-path="url(#clip6804)" style="stroke:#e26f46; stroke-width:4; stroke-opacity:1; fill:none" points="
  2047.83,4307.33 2047.83,3778.69 
  "/>
<polyline clip-path="url(#clip6804)" style="stroke:#e26f46; stroke-width:4; stroke-opacity:1; fill:none" points="
  2293.74,4289.79 2293.74,3723.53 
  "/>
<line clip-path="url(#clip6804)" x1="346.5" y1="4301.11" x2="306.5" y2="4301.11" style="stroke:#000000; stroke-width:4; stroke-opacity:1"/>
<line clip-path="url(#clip6804)" x1="346.5" y1="3897.35" x2="306.5" y2="3897.35" style="stroke:#000000; stroke-width:4; stroke-opacity:1"/>
<line clip-path="url(#clip6804)" x1="469.453" y1="4318.45" x2="429.453" y2="4318.45" style="stroke:#000000; stroke-width:4; stroke-opacity:1"/>
<line clip-path="url(#clip6804)" x1="469.453" y1="3729.53" x2="429.453" y2="3729.53" style="stroke:#000000; stroke-width:4; stroke-opacity:1"/>
<line clip-path="url(#clip6804)" x1="592.405" y1="4297.91" x2="552.405" y2="4297.91" style="stroke:#000000; stroke-width:4; stroke-opacity:1"/>
<line clip-path="url(#clip6804)" x1="592.405" y1="3523.07" x2="552.405" y2="3523.07" style="stroke:#000000; stroke-width:4; stroke-opacity:1"/>
<line clip-path="url(#clip6804)" x1="838.31" y1="4043.85" x2="798.31" y2="4043.85" style="stroke:#000000; stroke-width:4; stroke-opacity:1"/>
<line clip-path="url(#clip6804)" x1="838.31" y1="3449.96" x2="798.31" y2="3449.96" style="stroke:#000000; stroke-width:4; stroke-opacity:1"/>
<line clip-path="url(#clip6804)" x1="1084.21" y1="4115.7" x2="1044.21" y2="4115.7" style="stroke:#000000; stroke-width:4; stroke-opacity:1"/>
<line clip-path="url(#clip6804)" x1="1084.21" y1="3480.83" x2="1044.21" y2="3480.83" style="stroke:#000000; stroke-width:4; stroke-opacity:1"/>
<line clip-path="url(#clip6804)" x1="1330.12" y1="4120.21" x2="1290.12" y2="4120.21" style="stroke:#000000; stroke-width:4; stroke-opacity:1"/>
<line clip-path="url(#clip6804)" x1="1330.12" y1="3577.77" x2="1290.12" y2="3577.77" style="stroke:#000000; stroke-width:4; stroke-opacity:1"/>
<line clip-path="url(#clip6804)" x1="1576.02" y1="4157.07" x2="1536.02" y2="4157.07" style="stroke:#000000; stroke-width:4; stroke-opacity:1"/>
<line clip-path="url(#clip6804)" x1="1576.02" y1="3624.61" x2="1536.02" y2="3624.61" style="stroke:#000000; stroke-width:4; stroke-opacity:1"/>
<line clip-path="url(#clip6804)" x1="1821.93" y1="4243.23" x2="1781.93" y2="4243.23" style="stroke:#000000; stroke-width:4; stroke-opacity:1"/>
<line clip-path="url(#clip6804)" x1="1821.93" y1="3721.9" x2="1781.93" y2="3721.9" style="stroke:#000000; stroke-width:4; stroke-opacity:1"/>
<line clip-path="url(#clip6804)" x1="2067.83" y1="4307.33" x2="2027.83" y2="4307.33" style="stroke:#000000; stroke-width:4; stroke-opacity:1"/>
<line clip-path="url(#clip6804)" x1="2067.83" y1="3778.69" x2="2027.83" y2="3778.69" style="stroke:#000000; stroke-width:4; stroke-opacity:1"/>
<line clip-path="url(#clip6804)" x1="2313.74" y1="4289.79" x2="2273.74" y2="4289.79" style="stroke:#000000; stroke-width:4; stroke-opacity:1"/>
<line clip-path="url(#clip6804)" x1="2313.74" y1="3723.53" x2="2273.74" y2="3723.53" style="stroke:#000000; stroke-width:4; stroke-opacity:1"/>
<polygon clip-path="url(#clip6800)" points="
1403.78,3064.47 2208.76,3064.47 2208.76,2792.31 1403.78,2792.31 
  " fill="#ffffff" fill-rule="evenodd" fill-opacity="1"/>
<polyline clip-path="url(#clip6800)" style="stroke:#000000; stroke-width:4; stroke-opacity:1; fill:none" points="
  1403.78,3064.47 2208.76,3064.47 2208.76,2792.31 1403.78,2792.31 1403.78,3064.47 
  "/>
<polyline clip-path="url(#clip6800)" style="stroke:#009af9; stroke-width:4; stroke-opacity:1; fill:none" points="
  1451.78,2883.03 1739.78,2883.03 
  "/>
<g clip-path="url(#clip6800)">
<text style="fill:#000000; fill-opacity:1; font-family:Arial,Helvetica Neue,Helvetica,sans-serif; font-size:71px; text-anchor:start;" transform="rotate(0, 1787.78, 2909.03)" x="1787.78" y="2909.03">simulation</text>
</g>
<polyline clip-path="url(#clip6800)" style="stroke:#e26f46; stroke-width:4; stroke-opacity:1; fill:none" points="
  1451.78,2973.75 1739.78,2973.75 
  "/>
<g clip-path="url(#clip6800)">
<text style="fill:#000000; fill-opacity:1; font-family:Arial,Helvetica Neue,Helvetica,sans-serif; font-size:71px; text-anchor:start;" transform="rotate(0, 1787.78, 2999.75)" x="1787.78" y="2999.75">data</text>
</g>
<polygon clip-path="url(#clip6800)" points="
2667.48,4497.21 4752.76,4497.21 4752.76,2595.03 2667.48,2595.03 
  " fill="#ffffff" fill-rule="evenodd" fill-opacity="1"/>
<defs>
  <clipPath id="clip6805">
    <rect x="2667" y="2595" width="2086" height="1903"/>
  </clipPath>
</defs>
<polyline clip-path="url(#clip6805)" style="stroke:#000000; stroke-width:2; stroke-opacity:0.1; fill:none" points="
  2726.5,4497.21 2726.5,2595.03 
  "/>
<polyline clip-path="url(#clip6805)" style="stroke:#000000; stroke-width:2; stroke-opacity:0.1; fill:none" points="
  3218.31,4497.21 3218.31,2595.03 
  "/>
<polyline clip-path="url(#clip6805)" style="stroke:#000000; stroke-width:2; stroke-opacity:0.1; fill:none" points="
  3710.12,4497.21 3710.12,2595.03 
  "/>
<polyline clip-path="url(#clip6805)" style="stroke:#000000; stroke-width:2; stroke-opacity:0.1; fill:none" points="
  4201.93,4497.21 4201.93,2595.03 
  "/>
<polyline clip-path="url(#clip6805)" style="stroke:#000000; stroke-width:2; stroke-opacity:0.1; fill:none" points="
  4693.74,4497.21 4693.74,2595.03 
  "/>
<polyline clip-path="url(#clip6805)" style="stroke:#000000; stroke-width:2; stroke-opacity:0.1; fill:none" points="
  2667.48,4497.21 4752.76,4497.21 
  "/>
<polyline clip-path="url(#clip6805)" style="stroke:#000000; stroke-width:2; stroke-opacity:0.1; fill:none" points="
  2667.48,4074.5 4752.76,4074.5 
  "/>
<polyline clip-path="url(#clip6805)" style="stroke:#000000; stroke-width:2; stroke-opacity:0.1; fill:none" points="
  2667.48,3651.8 4752.76,3651.8 
  "/>
<polyline clip-path="url(#clip6805)" style="stroke:#000000; stroke-width:2; stroke-opacity:0.1; fill:none" points="
  2667.48,3229.09 4752.76,3229.09 
  "/>
<polyline clip-path="url(#clip6805)" style="stroke:#000000; stroke-width:2; stroke-opacity:0.1; fill:none" points="
  2667.48,2806.38 4752.76,2806.38 
  "/>
<polyline clip-path="url(#clip6800)" style="stroke:#000000; stroke-width:4; stroke-opacity:1; fill:none" points="
  2667.48,4497.21 4752.76,4497.21 
  "/>
<polyline clip-path="url(#clip6800)" style="stroke:#000000; stroke-width:4; stroke-opacity:1; fill:none" points="
  2667.48,4497.21 2667.48,2595.03 
  "/>
<polyline clip-path="url(#clip6800)" style="stroke:#000000; stroke-width:4; stroke-opacity:1; fill:none" points="
  2726.5,4497.21 2726.5,4468.68 
  "/>
<polyline clip-path="url(#clip6800)" style="stroke:#000000; stroke-width:4; stroke-opacity:1; fill:none" points="
  3218.31,4497.21 3218.31,4468.68 
  "/>
<polyline clip-path="url(#clip6800)" style="stroke:#000000; stroke-width:4; stroke-opacity:1; fill:none" points="
  3710.12,4497.21 3710.12,4468.68 
  "/>
<polyline clip-path="url(#clip6800)" style="stroke:#000000; stroke-width:4; stroke-opacity:1; fill:none" points="
  4201.93,4497.21 4201.93,4468.68 
  "/>
<polyline clip-path="url(#clip6800)" style="stroke:#000000; stroke-width:4; stroke-opacity:1; fill:none" points="
  4693.74,4497.21 4693.74,4468.68 
  "/>
<polyline clip-path="url(#clip6800)" style="stroke:#000000; stroke-width:4; stroke-opacity:1; fill:none" points="
  2667.48,4497.21 2698.76,4497.21 
  "/>
<polyline clip-path="url(#clip6800)" style="stroke:#000000; stroke-width:4; stroke-opacity:1; fill:none" points="
  2667.48,4074.5 2698.76,4074.5 
  "/>
<polyline clip-path="url(#clip6800)" style="stroke:#000000; stroke-width:4; stroke-opacity:1; fill:none" points="
  2667.48,3651.8 2698.76,3651.8 
  "/>
<polyline clip-path="url(#clip6800)" style="stroke:#000000; stroke-width:4; stroke-opacity:1; fill:none" points="
  2667.48,3229.09 2698.76,3229.09 
  "/>
<polyline clip-path="url(#clip6800)" style="stroke:#000000; stroke-width:4; stroke-opacity:1; fill:none" points="
  2667.48,2806.38 2698.76,2806.38 
  "/>
<g clip-path="url(#clip6800)">
<text style="fill:#000000; fill-opacity:1; font-family:Arial,Helvetica Neue,Helvetica,sans-serif; font-size:71px; text-anchor:middle;" transform="rotate(0, 2726.5, 4583.61)" x="2726.5" y="4583.61">0</text>
</g>
<g clip-path="url(#clip6800)">
<text style="fill:#000000; fill-opacity:1; font-family:Arial,Helvetica Neue,Helvetica,sans-serif; font-size:71px; text-anchor:middle;" transform="rotate(0, 3218.31, 4583.61)" x="3218.31" y="4583.61">2</text>
</g>
<g clip-path="url(#clip6800)">
<text style="fill:#000000; fill-opacity:1; font-family:Arial,Helvetica Neue,Helvetica,sans-serif; font-size:71px; text-anchor:middle;" transform="rotate(0, 3710.12, 4583.61)" x="3710.12" y="4583.61">4</text>
</g>
<g clip-path="url(#clip6800)">
<text style="fill:#000000; fill-opacity:1; font-family:Arial,Helvetica Neue,Helvetica,sans-serif; font-size:71px; text-anchor:middle;" transform="rotate(0, 4201.93, 4583.61)" x="4201.93" y="4583.61">6</text>
</g>
<g clip-path="url(#clip6800)">
<text style="fill:#000000; fill-opacity:1; font-family:Arial,Helvetica Neue,Helvetica,sans-serif; font-size:71px; text-anchor:middle;" transform="rotate(0, 4693.74, 4583.61)" x="4693.74" y="4583.61">8</text>
</g>
<g clip-path="url(#clip6800)">
<text style="fill:#000000; fill-opacity:1; font-family:Arial,Helvetica Neue,Helvetica,sans-serif; font-size:71px; text-anchor:end;" transform="rotate(0, 2619.48, 4523.21)" x="2619.48" y="4523.21">0</text>
</g>
<g clip-path="url(#clip6800)">
<text style="fill:#000000; fill-opacity:1; font-family:Arial,Helvetica Neue,Helvetica,sans-serif; font-size:71px; text-anchor:end;" transform="rotate(0, 2619.48, 4100.5)" x="2619.48" y="4100.5">1</text>
</g>
<g clip-path="url(#clip6800)">
<text style="fill:#000000; fill-opacity:1; font-family:Arial,Helvetica Neue,Helvetica,sans-serif; font-size:71px; text-anchor:end;" transform="rotate(0, 2619.48, 3677.8)" x="2619.48" y="3677.8">2</text>
</g>
<g clip-path="url(#clip6800)">
<text style="fill:#000000; fill-opacity:1; font-family:Arial,Helvetica Neue,Helvetica,sans-serif; font-size:71px; text-anchor:end;" transform="rotate(0, 2619.48, 3255.09)" x="2619.48" y="3255.09">3</text>
</g>
<g clip-path="url(#clip6800)">
<text style="fill:#000000; fill-opacity:1; font-family:Arial,Helvetica Neue,Helvetica,sans-serif; font-size:71px; text-anchor:end;" transform="rotate(0, 2619.48, 2832.38)" x="2619.48" y="2832.38">4</text>
</g>
<g clip-path="url(#clip6800)">
<text style="fill:#000000; fill-opacity:1; font-family:Arial,Helvetica Neue,Helvetica,sans-serif; font-size:125px; text-anchor:middle;" transform="rotate(0, 3710.12, 2509.2)" x="3710.12" y="2509.2">Overweight patient 45 mcg (4 patients)</text>
</g>
<g clip-path="url(#clip6800)">
<text style="fill:#000000; fill-opacity:1; font-family:Arial,Helvetica Neue,Helvetica,sans-serif; font-size:95px; text-anchor:middle;" transform="rotate(0, 3710.12, 4707.46)" x="3710.12" y="4707.46">Time (hours)</text>
</g>
<g clip-path="url(#clip6800)">
<text style="fill:#000000; fill-opacity:1; font-family:Arial,Helvetica Neue,Helvetica,sans-serif; font-size:95px; text-anchor:middle;" transform="rotate(-90, 2513.54, 3546.12)" x="2513.54" y="3546.12">T3 mcg/L</text>
</g>
<polygon clip-path="url(#clip6805)" points="
2726.5,4168.14 2751.09,4128.15 2775.68,4027.98 2800.27,3910.03 2824.86,3789.58 2849.45,3673.33 2874.04,3564.72 2898.63,3465.74 2923.22,3377.32 2947.81,3299.81 
  2972.41,3233.02 2997,3176.66 3021.59,3129.97 3046.18,3092.28 3070.77,3063.01 3095.36,3040.94 3119.95,3025.52 3144.54,3016.94 3169.13,3012.56 3193.72,3011.68 
  3218.31,3017.96 3242.9,3028.38 3267.49,3033.13 3292.08,3046.67 3316.67,3068.7 3341.26,3073.77 3365.85,3099.09 3390.44,3116.79 3415.03,3134.85 3439.62,3158.9 
  3464.21,3176.35 3488.81,3201.21 3513.4,3220.21 3537.99,3243.77 3562.58,3264.92 3587.17,3285.79 3611.76,3308.57 3636.35,3327.33 3660.94,3350.09 3685.53,3369.68 
  3710.12,3388.97 3734.71,3410.45 3759.3,3426.8 3783.89,3447.82 3808.48,3465.46 3833.07,3482.14 3857.66,3501.8 3882.25,3515.67 3906.84,3534.63 3931.43,3549.57 
  3956.02,3564.36 3980.61,3581.49 4005.21,3593.21 4029.8,3609.99 4054.39,3622.51 4078.98,3635.68 4103.57,3650.29 4128.16,3660.19 4152.75,3674.88 4177.34,3685.19 
  4201.93,3696.75 4226.52,3709.24 4251.11,3717.5 4275.7,3730.4 4300.29,3738.83 4324.88,3748.95 4349.47,3759.59 4374.06,3766.44 4398.65,3777.56 4423.24,3784.84 
  4447.83,3793.52 4472.42,3802.56 4497.01,3808.34 4521.61,3817.96 4546.2,3824.17 4570.79,3831.44 4595.38,3839.31 4619.97,3844.21 4644.56,3852.57 4669.15,3857.85 
  4693.74,3863.72 4693.74,3739.97 4669.15,3733.77 4644.56,3726.51 4619.97,3720.2 4595.38,3712.78 4570.79,3705.28 4546.2,3698.14 4521.61,3689.52 4497.01,3681.9 
  4472.42,3673.19 4447.83,3664.85 4423.24,3655.84 4398.65,3646.33 4374.06,3637.06 4349.47,3626.91 4324.88,3617.26 4300.29,3606.3 4275.7,3595.86 4251.11,3584.58 
  4226.52,3572.75 4201.93,3561.41 4177.34,3548.46 4152.75,3536.41 4128.16,3522.99 4103.57,3509.32 4078.98,3495.94 4054.39,3480.75 4029.8,3466.85 4005.21,3450.96 
  3980.61,3435.35 3956.02,3419.56 3931.43,3401.86 3906.84,3385.86 3882.25,3367.04 3857.66,3349.54 3833.07,3331.08 3808.48,3310.66 3783.89,3292.77 3759.3,3270.96 
  3734.71,3251.23 3710.12,3230.33 3685.53,3207.42 3660.94,3187.25 3636.35,3163.31 3611.76,3141.44 3587.17,3118.58 3562.58,3094.21 3537.99,3072.42 3513.4,3047.07 
  3488.81,3025.4 3464.21,3000.62 3439.62,2978.45 3415.03,2955.97 3390.44,2932.1 3365.85,2915.79 3341.26,2888.27 3316.67,2879.38 3292.08,2859.59 3267.49,2841.27 
  3242.9,2837.82 3218.31,2825.45 3193.72,2818.3 3169.13,2820.05 3144.54,2823.6 3119.95,2832.15 3095.36,2848.57 3070.77,2871.74 3046.18,2902.65 3021.59,2942.73 
  2997,2992.41 2972.41,3052.5 2947.81,3123.81 2923.22,3206.61 2898.63,3301.16 2874.04,3407.05 2849.45,3523.32 2824.86,3647.81 2800.27,3776.87 2775.68,3903.4 
  2751.09,4011.07 2726.5,4053.78 
  " fill="#009af9" fill-rule="evenodd" fill-opacity="0.3"/>
<polyline clip-path="url(#clip6805)" style="stroke:#009af9; stroke-width:4; stroke-opacity:1; fill:none" points="
  2726.5,4110.96 2751.09,4069.61 2775.68,3965.69 2800.27,3843.45 2824.86,3718.7 2849.45,3598.32 2874.04,3485.89 2898.63,3383.45 2923.22,3291.96 2947.81,3211.81 
  2972.41,3142.76 2997,3084.53 3021.59,3036.35 3046.18,2997.46 3070.77,2967.38 3095.36,2944.75 3119.95,2928.83 3144.54,2920.27 3169.13,2916.3 3193.72,2914.99 
  3218.31,2921.7 3242.9,2933.1 3267.49,2937.2 3292.08,2953.13 3316.67,2974.04 3341.26,2981.02 3365.85,3007.44 3390.44,3024.45 3415.03,3045.41 3439.62,3068.68 
  3464.21,3088.49 3488.81,3113.31 3513.4,3133.64 3537.99,3158.1 3562.58,3179.56 3587.17,3202.19 3611.76,3225.01 3636.35,3245.32 3660.94,3268.67 3685.53,3288.55 
  3710.12,3309.65 3734.71,3330.84 3759.3,3348.88 3783.89,3370.3 3808.48,3388.06 3833.07,3406.61 3857.66,3425.67 3882.25,3441.35 3906.84,3460.24 3931.43,3475.72 
  3956.02,3491.96 3980.61,3508.42 4005.21,3522.08 4029.8,3538.42 4054.39,3551.63 4078.98,3565.81 4103.57,3579.81 4128.16,3591.59 4152.75,3605.64 4177.34,3616.83 
  4201.93,3629.08 4226.52,3641 4251.11,3651.04 4275.7,3663.13 4300.29,3672.56 4324.88,3683.11 4349.47,3693.25 4374.06,3701.75 4398.65,3711.95 4423.24,3720.34 
  4447.83,3729.18 4472.42,3737.88 4497.01,3745.12 4521.61,3753.74 4546.2,3761.15 4570.79,3768.36 4595.38,3776.05 4619.97,3782.2 4644.56,3789.54 4669.15,3795.81 
  4693.74,3801.84 
  "/>
<polyline clip-path="url(#clip6805)" style="stroke:#e26f46; stroke-width:4; stroke-opacity:1; fill:none" points="
  2726.5,4110.96 2849.45,3976.86 2972.41,3304.44 3218.31,2885.01 3464.21,3115.28 3710.12,3263.22 3956.02,3494.66 4201.93,3617.35 4447.83,3727.67 4693.74,3817.92 
  
  "/>
<polyline clip-path="url(#clip6805)" style="stroke:#e26f46; stroke-width:4; stroke-opacity:1; fill:none" points="
  2726.5,4168.14 2726.5,4053.78 
  "/>
<polyline clip-path="url(#clip6805)" style="stroke:#e26f46; stroke-width:4; stroke-opacity:1; fill:none" points="
  2849.45,4019.69 2849.45,3934.03 
  "/>
<polyline clip-path="url(#clip6805)" style="stroke:#e26f46; stroke-width:4; stroke-opacity:1; fill:none" points="
  2972.41,3604.45 2972.41,3004.42 
  "/>
<polyline clip-path="url(#clip6805)" style="stroke:#e26f46; stroke-width:4; stroke-opacity:1; fill:none" points="
  3218.31,3329.49 3218.31,2440.52 
  "/>
<polyline clip-path="url(#clip6805)" style="stroke:#e26f46; stroke-width:4; stroke-opacity:1; fill:none" points="
  3464.21,3521.77 3464.21,2708.78 
  "/>
<polyline clip-path="url(#clip6805)" style="stroke:#e26f46; stroke-width:4; stroke-opacity:1; fill:none" points="
  3710.12,3577.42 3710.12,2949.03 
  "/>
<polyline clip-path="url(#clip6805)" style="stroke:#e26f46; stroke-width:4; stroke-opacity:1; fill:none" points="
  3956.02,3714.12 3956.02,3275.19 
  "/>
<polyline clip-path="url(#clip6805)" style="stroke:#e26f46; stroke-width:4; stroke-opacity:1; fill:none" points="
  4201.93,3757.95 4201.93,3476.74 
  "/>
<polyline clip-path="url(#clip6805)" style="stroke:#e26f46; stroke-width:4; stroke-opacity:1; fill:none" points="
  4447.83,3888.58 4447.83,3566.76 
  "/>
<polyline clip-path="url(#clip6805)" style="stroke:#e26f46; stroke-width:4; stroke-opacity:1; fill:none" points="
  4693.74,3948.05 4693.74,3687.79 
  "/>
<line clip-path="url(#clip6805)" x1="2746.5" y1="4168.14" x2="2706.5" y2="4168.14" style="stroke:#000000; stroke-width:4; stroke-opacity:1"/>
<line clip-path="url(#clip6805)" x1="2746.5" y1="4053.78" x2="2706.5" y2="4053.78" style="stroke:#000000; stroke-width:4; stroke-opacity:1"/>
<line clip-path="url(#clip6805)" x1="2869.45" y1="4019.69" x2="2829.45" y2="4019.69" style="stroke:#000000; stroke-width:4; stroke-opacity:1"/>
<line clip-path="url(#clip6805)" x1="2869.45" y1="3934.03" x2="2829.45" y2="3934.03" style="stroke:#000000; stroke-width:4; stroke-opacity:1"/>
<line clip-path="url(#clip6805)" x1="2992.41" y1="3604.45" x2="2952.41" y2="3604.45" style="stroke:#000000; stroke-width:4; stroke-opacity:1"/>
<line clip-path="url(#clip6805)" x1="2992.41" y1="3004.42" x2="2952.41" y2="3004.42" style="stroke:#000000; stroke-width:4; stroke-opacity:1"/>
<line clip-path="url(#clip6805)" x1="3238.31" y1="3329.49" x2="3198.31" y2="3329.49" style="stroke:#000000; stroke-width:4; stroke-opacity:1"/>
<line clip-path="url(#clip6805)" x1="3484.21" y1="3521.77" x2="3444.21" y2="3521.77" style="stroke:#000000; stroke-width:4; stroke-opacity:1"/>
<line clip-path="url(#clip6805)" x1="3484.21" y1="2708.78" x2="3444.21" y2="2708.78" style="stroke:#000000; stroke-width:4; stroke-opacity:1"/>
<line clip-path="url(#clip6805)" x1="3730.12" y1="3577.42" x2="3690.12" y2="3577.42" style="stroke:#000000; stroke-width:4; stroke-opacity:1"/>
<line clip-path="url(#clip6805)" x1="3730.12" y1="2949.03" x2="3690.12" y2="2949.03" style="stroke:#000000; stroke-width:4; stroke-opacity:1"/>
<line clip-path="url(#clip6805)" x1="3976.02" y1="3714.12" x2="3936.02" y2="3714.12" style="stroke:#000000; stroke-width:4; stroke-opacity:1"/>
<line clip-path="url(#clip6805)" x1="3976.02" y1="3275.19" x2="3936.02" y2="3275.19" style="stroke:#000000; stroke-width:4; stroke-opacity:1"/>
<line clip-path="url(#clip6805)" x1="4221.93" y1="3757.95" x2="4181.93" y2="3757.95" style="stroke:#000000; stroke-width:4; stroke-opacity:1"/>
<line clip-path="url(#clip6805)" x1="4221.93" y1="3476.74" x2="4181.93" y2="3476.74" style="stroke:#000000; stroke-width:4; stroke-opacity:1"/>
<line clip-path="url(#clip6805)" x1="4467.83" y1="3888.58" x2="4427.83" y2="3888.58" style="stroke:#000000; stroke-width:4; stroke-opacity:1"/>
<line clip-path="url(#clip6805)" x1="4467.83" y1="3566.76" x2="4427.83" y2="3566.76" style="stroke:#000000; stroke-width:4; stroke-opacity:1"/>
<line clip-path="url(#clip6805)" x1="4713.74" y1="3948.05" x2="4673.74" y2="3948.05" style="stroke:#000000; stroke-width:4; stroke-opacity:1"/>
<line clip-path="url(#clip6805)" x1="4713.74" y1="3687.79" x2="4673.74" y2="3687.79" style="stroke:#000000; stroke-width:4; stroke-opacity:1"/>
<polygon clip-path="url(#clip6800)" points="
3803.78,3064.47 4608.76,3064.47 4608.76,2792.31 3803.78,2792.31 
  " fill="#ffffff" fill-rule="evenodd" fill-opacity="1"/>
<polyline clip-path="url(#clip6800)" style="stroke:#000000; stroke-width:4; stroke-opacity:1; fill:none" points="
  3803.78,3064.47 4608.76,3064.47 4608.76,2792.31 3803.78,2792.31 3803.78,3064.47 
  "/>
<polyline clip-path="url(#clip6800)" style="stroke:#009af9; stroke-width:4; stroke-opacity:1; fill:none" points="
  3851.78,2883.03 4139.78,2883.03 
  "/>
<g clip-path="url(#clip6800)">
<text style="fill:#000000; fill-opacity:1; font-family:Arial,Helvetica Neue,Helvetica,sans-serif; font-size:71px; text-anchor:start;" transform="rotate(0, 4187.78, 2909.03)" x="4187.78" y="2909.03">simulation</text>
</g>
<polyline clip-path="url(#clip6800)" style="stroke:#e26f46; stroke-width:4; stroke-opacity:1; fill:none" points="
  3851.78,2973.75 4139.78,2973.75 
  "/>
<g clip-path="url(#clip6800)">
<text style="fill:#000000; fill-opacity:1; font-family:Arial,Helvetica Neue,Helvetica,sans-serif; font-size:71px; text-anchor:start;" transform="rotate(0, 4187.78, 2999.75)" x="4187.78" y="2999.75">data</text>
</g>
</svg>
