<?xml version="1.0" encoding="utf-8"?>
<svg xmlns="http://www.w3.org/2000/svg" xmlns:xlink="http://www.w3.org/1999/xlink" width="1200" height="1200" viewBox="0 0 4800 4800">
<defs>
  <clipPath id="clip3700">
    <rect x="0" y="0" width="4800" height="4800"/>
  </clipPath>
</defs>
<path clip-path="url(#clip3700)" d="
M0 4800 L4800 4800 L4800 0 L0 0  Z
  " fill="#ffffff" fill-rule="evenodd" fill-opacity="1"/>
<defs>
  <clipPath id="clip3701">
    <rect x="960" y="480" width="3361" height="3361"/>
  </clipPath>
</defs>
<path clip-path="url(#clip3700)" d="
M222.665 2153.8 L2352.76 2153.8 L2352.76 151.017 L222.665 151.017  Z
  " fill="#ffffff" fill-rule="evenodd" fill-opacity="1"/>
<defs>
  <clipPath id="clip3702">
    <rect x="222" y="151" width="2131" height="2004"/>
  </clipPath>
</defs>
<polyline clip-path="url(#clip3702)" style="stroke:#000000; stroke-width:2; stroke-opacity:0.1; fill:none" points="
  282.95,2153.8 282.95,151.017 
  "/>
<polyline clip-path="url(#clip3702)" style="stroke:#000000; stroke-width:2; stroke-opacity:0.1; fill:none" points="
  785.33,2153.8 785.33,151.017 
  "/>
<polyline clip-path="url(#clip3702)" style="stroke:#000000; stroke-width:2; stroke-opacity:0.1; fill:none" points="
  1287.71,2153.8 1287.71,151.017 
  "/>
<polyline clip-path="url(#clip3702)" style="stroke:#000000; stroke-width:2; stroke-opacity:0.1; fill:none" points="
  1790.09,2153.8 1790.09,151.017 
  "/>
<polyline clip-path="url(#clip3702)" style="stroke:#000000; stroke-width:2; stroke-opacity:0.1; fill:none" points="
  2292.47,2153.8 2292.47,151.017 
  "/>
<polyline clip-path="url(#clip3702)" style="stroke:#000000; stroke-width:2; stroke-opacity:0.1; fill:none" points="
  222.665,2153.8 2352.76,2153.8 
  "/>
<polyline clip-path="url(#clip3702)" style="stroke:#000000; stroke-width:2; stroke-opacity:0.1; fill:none" points="
  222.665,1708.74 2352.76,1708.74 
  "/>
<polyline clip-path="url(#clip3702)" style="stroke:#000000; stroke-width:2; stroke-opacity:0.1; fill:none" points="
  222.665,1263.67 2352.76,1263.67 
  "/>
<polyline clip-path="url(#clip3702)" style="stroke:#000000; stroke-width:2; stroke-opacity:0.1; fill:none" points="
  222.665,818.61 2352.76,818.61 
  "/>
<polyline clip-path="url(#clip3702)" style="stroke:#000000; stroke-width:2; stroke-opacity:0.1; fill:none" points="
  222.665,373.548 2352.76,373.548 
  "/>
<polyline clip-path="url(#clip3700)" style="stroke:#000000; stroke-width:4; stroke-opacity:1; fill:none" points="
  222.665,2153.8 2352.76,2153.8 
  "/>
<polyline clip-path="url(#clip3700)" style="stroke:#000000; stroke-width:4; stroke-opacity:1; fill:none" points="
  222.665,2153.8 222.665,151.017 
  "/>
<polyline clip-path="url(#clip3700)" style="stroke:#000000; stroke-width:4; stroke-opacity:1; fill:none" points="
  282.95,2153.8 282.95,2129.76 
  "/>
<polyline clip-path="url(#clip3700)" style="stroke:#000000; stroke-width:4; stroke-opacity:1; fill:none" points="
  785.33,2153.8 785.33,2129.76 
  "/>
<polyline clip-path="url(#clip3700)" style="stroke:#000000; stroke-width:4; stroke-opacity:1; fill:none" points="
  1287.71,2153.8 1287.71,2129.76 
  "/>
<polyline clip-path="url(#clip3700)" style="stroke:#000000; stroke-width:4; stroke-opacity:1; fill:none" points="
  1790.09,2153.8 1790.09,2129.76 
  "/>
<polyline clip-path="url(#clip3700)" style="stroke:#000000; stroke-width:4; stroke-opacity:1; fill:none" points="
  2292.47,2153.8 2292.47,2129.76 
  "/>
<polyline clip-path="url(#clip3700)" style="stroke:#000000; stroke-width:4; stroke-opacity:1; fill:none" points="
  222.665,2153.8 248.226,2153.8 
  "/>
<polyline clip-path="url(#clip3700)" style="stroke:#000000; stroke-width:4; stroke-opacity:1; fill:none" points="
  222.665,1708.74 248.226,1708.74 
  "/>
<polyline clip-path="url(#clip3700)" style="stroke:#000000; stroke-width:4; stroke-opacity:1; fill:none" points="
  222.665,1263.67 248.226,1263.67 
  "/>
<polyline clip-path="url(#clip3700)" style="stroke:#000000; stroke-width:4; stroke-opacity:1; fill:none" points="
  222.665,818.61 248.226,818.61 
  "/>
<polyline clip-path="url(#clip3700)" style="stroke:#000000; stroke-width:4; stroke-opacity:1; fill:none" points="
  222.665,373.548 248.226,373.548 
  "/>
<g clip-path="url(#clip3700)">
<text style="fill:#000000; fill-opacity:1; font-family:Arial,Helvetica Neue,Helvetica,sans-serif; font-size:48px; text-anchor:middle;" transform="rotate(0, 282.95, 2219.8)" x="282.95" y="2219.8">0</text>
</g>
<g clip-path="url(#clip3700)">
<text style="fill:#000000; fill-opacity:1; font-family:Arial,Helvetica Neue,Helvetica,sans-serif; font-size:48px; text-anchor:middle;" transform="rotate(0, 785.33, 2219.8)" x="785.33" y="2219.8">2</text>
</g>
<g clip-path="url(#clip3700)">
<text style="fill:#000000; fill-opacity:1; font-family:Arial,Helvetica Neue,Helvetica,sans-serif; font-size:48px; text-anchor:middle;" transform="rotate(0, 1287.71, 2219.8)" x="1287.71" y="2219.8">4</text>
</g>
<g clip-path="url(#clip3700)">
<text style="fill:#000000; fill-opacity:1; font-family:Arial,Helvetica Neue,Helvetica,sans-serif; font-size:48px; text-anchor:middle;" transform="rotate(0, 1790.09, 2219.8)" x="1790.09" y="2219.8">6</text>
</g>
<g clip-path="url(#clip3700)">
<text style="fill:#000000; fill-opacity:1; font-family:Arial,Helvetica Neue,Helvetica,sans-serif; font-size:48px; text-anchor:middle;" transform="rotate(0, 2292.47, 2219.8)" x="2292.47" y="2219.8">8</text>
</g>
<g clip-path="url(#clip3700)">
<text style="fill:#000000; fill-opacity:1; font-family:Arial,Helvetica Neue,Helvetica,sans-serif; font-size:48px; text-anchor:end;" transform="rotate(0, 174.665, 2171.3)" x="174.665" y="2171.3">0</text>
</g>
<g clip-path="url(#clip3700)">
<text style="fill:#000000; fill-opacity:1; font-family:Arial,Helvetica Neue,Helvetica,sans-serif; font-size:48px; text-anchor:end;" transform="rotate(0, 174.665, 1726.24)" x="174.665" y="1726.24">1</text>
</g>
<g clip-path="url(#clip3700)">
<text style="fill:#000000; fill-opacity:1; font-family:Arial,Helvetica Neue,Helvetica,sans-serif; font-size:48px; text-anchor:end;" transform="rotate(0, 174.665, 1281.17)" x="174.665" y="1281.17">2</text>
</g>
<g clip-path="url(#clip3700)">
<text style="fill:#000000; fill-opacity:1; font-family:Arial,Helvetica Neue,Helvetica,sans-serif; font-size:48px; text-anchor:end;" transform="rotate(0, 174.665, 836.11)" x="174.665" y="836.11">3</text>
</g>
<g clip-path="url(#clip3700)">
<text style="fill:#000000; fill-opacity:1; font-family:Arial,Helvetica Neue,Helvetica,sans-serif; font-size:48px; text-anchor:end;" transform="rotate(0, 174.665, 391.048)" x="174.665" y="391.048">4</text>
</g>
<g clip-path="url(#clip3700)">
<text style="fill:#000000; fill-opacity:1; font-family:Arial,Helvetica Neue,Helvetica,sans-serif; font-size:82px; text-anchor:middle;" transform="rotate(0, 1287.71, 72)" x="1287.71" y="72">Normal patient 30 mcg (6 patients)</text>
</g>
<g clip-path="url(#clip3700)">
<text style="fill:#000000; fill-opacity:1; font-family:Arial,Helvetica Neue,Helvetica,sans-serif; font-size:66px; text-anchor:middle;" transform="rotate(0, 1287.71, 2311.66)" x="1287.71" y="2311.66">Time (hours)</text>
</g>
<g clip-path="url(#clip3700)">
<text style="fill:#000000; fill-opacity:1; font-family:Arial,Helvetica Neue,Helvetica,sans-serif; font-size:66px; text-anchor:middle;" transform="rotate(-90, 88.3402, 1152.41)" x="88.3402" y="1152.41">T3 mcg/L</text>
</g>
<path clip-path="url(#clip3702)" d="
M282.95 1871.81 L308.069 1853.99 L333.188 1810.84 L358.307 1757.87 L383.426 1700.82 L408.545 1642.6 L433.664 1585.11 L458.783 1529.57 L483.902 1476.97 L509.021 1427.76 
  L534.14 1382.57 L559.259 1341.43 L584.378 1304.08 L609.497 1271.68 L634.616 1243.11 L659.735 1216.59 L684.854 1196.96 L709.973 1179.86 L735.092 1161.52 L760.211 1153.86 
  L785.33 1142.79 L810.449 1135.7 L835.568 1133.49 L860.687 1129.29 L885.806 1131.11 L910.925 1131.51 L936.044 1135.52 L961.163 1139.62 L986.282 1145.44 L1011.4 1152.19 
  L1036.52 1159.53 L1061.64 1168.2 L1086.76 1176.93 L1111.88 1186.79 L1137 1196.9 L1162.12 1207.18 L1187.23 1218.23 L1212.35 1228.83 L1237.47 1240.17 L1262.59 1251.7 
  L1287.71 1262.72 L1312.83 1274.84 L1337.95 1285.63 L1363.07 1297.46 L1388.19 1308.12 L1413.31 1320.04 L1438.42 1331 L1463.54 1341.95 L1488.66 1353.06 L1513.78 1363.13 
  L1538.9 1374.19 L1564.02 1383.95 L1589.14 1394.51 L1614.26 1404.24 L1639.38 1413.83 L1664.5 1423.54 L1689.61 1432.28 L1714.73 1441.89 L1739.85 1450.21 L1764.97 1459.17 
  L1790.09 1467.36 L1815.21 1475.34 L1840.33 1483.62 L1865.45 1490.76 L1890.57 1498.91 L1915.69 1505.67 L1940.8 1513.05 L1965.92 1519.85 L1991.04 1526.22 L2016.16 1533.27 
  L2041.28 1538.87 L2066.4 1545.64 L2091.52 1551.07 L2116.64 1556.95 L2141.76 1562.73 L2166.88 1567.55 L2191.99 1573.55 L2217.11 1577.85 L2242.23 1583.34 L2267.35 1587.84 
  L2292.47 1592.08 L2292.47 1318.31 L2267.35 1313.65 L2242.23 1308.9 L2217.11 1303.84 L2191.99 1298.81 L2166.88 1293.47 L2141.76 1288.04 L2116.64 1282.47 L2091.52 1276.6 
  L2066.4 1270.73 L2041.28 1264.51 L2016.16 1258.21 L1991.04 1251.69 L1965.92 1244.91 L1940.8 1238.07 L1915.69 1230.85 L1890.57 1223.56 L1865.45 1215.98 L1840.33 1208.15 
  L1815.21 1200.22 L1790.09 1191.9 L1764.97 1183.51 L1739.85 1174.78 L1714.73 1165.82 L1689.61 1156.71 L1664.5 1147.22 L1639.38 1137.68 L1614.26 1127.76 L1589.14 1117.63 
  L1564.02 1107.32 L1538.9 1096.6 L1513.78 1085.94 L1488.66 1074.92 L1463.54 1063.87 L1438.42 1052.74 L1413.31 1041.18 L1388.19 1029.54 L1363.07 1017.16 L1337.95 1004.61 
  L1312.83 993.398 L1287.71 981.261 L1262.59 969.1 L1237.47 957.426 L1212.35 944.789 L1187.23 933.847 L1162.12 921.052 L1137 910.587 L1111.88 898.775 L1086.76 888.258 
  L1061.64 878.46 L1036.52 867.924 L1011.4 860.262 L986.282 850.616 L961.163 845.045 L936.044 837.265 L910.925 834.022 L885.806 829.064 L860.687 828.437 L835.568 827.52 
  L810.449 829.544 L785.33 834.452 L760.211 839.007 L735.092 851.416 L709.973 858.932 L684.854 877.375 L659.735 894.102 L634.616 914.199 L609.497 940.326 L584.378 967.815 
  L559.259 999.656 L534.14 1035.54 L509.021 1074.51 L483.902 1117.04 L458.783 1162.48 L433.664 1210.26 L408.545 1259.62 L383.426 1309.36 L358.307 1357.85 L333.188 1402.55 
  L308.069 1437.87 L282.95 1446.7  Z
  " fill="#009af9" fill-rule="evenodd" fill-opacity="0.3"/>
<polyline clip-path="url(#clip3702)" style="stroke:#009af9; stroke-width:4; stroke-opacity:1; fill:none" points="
  282.95,1659.26 308.069,1645.93 333.188,1606.69 358.307,1557.86 383.426,1505.09 408.545,1451.11 433.664,1397.69 458.783,1346.03 483.902,1297.01 509.021,1251.13 
  534.14,1209.05 559.259,1170.54 584.378,1135.95 609.497,1106 634.616,1078.65 659.735,1055.35 684.854,1037.17 709.973,1019.4 735.092,1006.47 760.211,996.436 
  785.33,988.62 810.449,982.624 835.568,980.506 860.687,978.861 885.806,980.085 910.925,982.765 936.044,986.394 961.163,992.331 986.282,998.026 1011.4,1006.23 
  1036.52,1013.73 1061.64,1023.33 1086.76,1032.59 1111.88,1042.78 1137,1053.74 1162.12,1064.11 1187.23,1076.04 1212.35,1086.81 1237.47,1098.8 1262.59,1110.4 
  1287.71,1121.99 1312.83,1134.12 1337.95,1145.12 1363.07,1157.31 1388.19,1168.83 1413.31,1180.61 1438.42,1191.87 1463.54,1202.91 1488.66,1213.99 1513.78,1224.53 
  1538.9,1235.4 1564.02,1245.64 1589.14,1256.07 1614.26,1266 1639.38,1275.75 1664.5,1285.38 1689.61,1294.5 1714.73,1303.85 1739.85,1312.49 1764.97,1321.34 
  1790.09,1329.63 1815.21,1337.78 1840.33,1345.89 1865.45,1353.37 1890.57,1361.23 1915.69,1368.26 1940.8,1375.56 1965.92,1382.38 1991.04,1388.96 2016.16,1395.74 
  2041.28,1401.69 2066.4,1408.19 2091.52,1413.84 2116.64,1419.71 2141.76,1425.38 2166.88,1430.51 2191.99,1436.18 2217.11,1440.85 2242.23,1446.12 2267.35,1450.74 
  2292.47,1455.2 
  "/>
<polyline clip-path="url(#clip3702)" style="stroke:#e26f46; stroke-width:4; stroke-opacity:1; fill:none" points="
  282.95,1659.26 408.545,1510.53 534.14,1178.15 785.33,969.783 1036.52,1094.4 1287.71,1234.37 1538.9,1357.58 1790.09,1424.12 2041.28,1445.78 2292.47,1467.36 
  
  "/>
<polyline clip-path="url(#clip3702)" style="stroke:#e26f46; stroke-width:4; stroke-opacity:1; fill:none" points="
  282.95,1871.81 282.95,1446.7 
  "/>
<polyline clip-path="url(#clip3702)" style="stroke:#e26f46; stroke-width:4; stroke-opacity:1; fill:none" points="
  408.545,1820.57 408.545,1200.5 
  "/>
<polyline clip-path="url(#clip3702)" style="stroke:#e26f46; stroke-width:4; stroke-opacity:1; fill:none" points="
  534.14,1586.06 534.14,770.237 
  "/>
<polyline clip-path="url(#clip3702)" style="stroke:#e26f46; stroke-width:4; stroke-opacity:1; fill:none" points="
  785.33,1282.44 785.33,657.131 
  "/>
<polyline clip-path="url(#clip3702)" style="stroke:#e26f46; stroke-width:4; stroke-opacity:1; fill:none" points="
  1036.52,1428.63 1036.52,760.176 
  "/>
<polyline clip-path="url(#clip3702)" style="stroke:#e26f46; stroke-width:4; stroke-opacity:1; fill:none" points="
  1287.71,1519.94 1287.71,948.808 
  "/>
<polyline clip-path="url(#clip3702)" style="stroke:#e26f46; stroke-width:4; stroke-opacity:1; fill:none" points="
  1538.9,1637.89 1538.9,1077.27 
  "/>
<polyline clip-path="url(#clip3702)" style="stroke:#e26f46; stroke-width:4; stroke-opacity:1; fill:none" points="
  1790.09,1698.57 1790.09,1149.66 
  "/>
<polyline clip-path="url(#clip3702)" style="stroke:#e26f46; stroke-width:4; stroke-opacity:1; fill:none" points="
  2041.28,1724.08 2041.28,1167.48 
  "/>
<polyline clip-path="url(#clip3702)" style="stroke:#e26f46; stroke-width:4; stroke-opacity:1; fill:none" points="
  2292.47,1765.46 2292.47,1169.26 
  "/>
<line clip-path="url(#clip3702)" x1="302.95" y1="1871.81" x2="262.95" y2="1871.81" style="stroke:#000000; stroke-width:4; stroke-opacity:1"/>
<line clip-path="url(#clip3702)" x1="302.95" y1="1446.7" x2="262.95" y2="1446.7" style="stroke:#000000; stroke-width:4; stroke-opacity:1"/>
<line clip-path="url(#clip3702)" x1="428.545" y1="1820.57" x2="388.545" y2="1820.57" style="stroke:#000000; stroke-width:4; stroke-opacity:1"/>
<line clip-path="url(#clip3702)" x1="428.545" y1="1200.5" x2="388.545" y2="1200.5" style="stroke:#000000; stroke-width:4; stroke-opacity:1"/>
<line clip-path="url(#clip3702)" x1="554.14" y1="1586.06" x2="514.14" y2="1586.06" style="stroke:#000000; stroke-width:4; stroke-opacity:1"/>
<line clip-path="url(#clip3702)" x1="554.14" y1="770.237" x2="514.14" y2="770.237" style="stroke:#000000; stroke-width:4; stroke-opacity:1"/>
<line clip-path="url(#clip3702)" x1="805.33" y1="1282.44" x2="765.33" y2="1282.44" style="stroke:#000000; stroke-width:4; stroke-opacity:1"/>
<line clip-path="url(#clip3702)" x1="805.33" y1="657.131" x2="765.33" y2="657.131" style="stroke:#000000; stroke-width:4; stroke-opacity:1"/>
<line clip-path="url(#clip3702)" x1="1056.52" y1="1428.63" x2="1016.52" y2="1428.63" style="stroke:#000000; stroke-width:4; stroke-opacity:1"/>
<line clip-path="url(#clip3702)" x1="1056.52" y1="760.176" x2="1016.52" y2="760.176" style="stroke:#000000; stroke-width:4; stroke-opacity:1"/>
<line clip-path="url(#clip3702)" x1="1307.71" y1="1519.94" x2="1267.71" y2="1519.94" style="stroke:#000000; stroke-width:4; stroke-opacity:1"/>
<line clip-path="url(#clip3702)" x1="1307.71" y1="948.808" x2="1267.71" y2="948.808" style="stroke:#000000; stroke-width:4; stroke-opacity:1"/>
<line clip-path="url(#clip3702)" x1="1558.9" y1="1637.89" x2="1518.9" y2="1637.89" style="stroke:#000000; stroke-width:4; stroke-opacity:1"/>
<line clip-path="url(#clip3702)" x1="1558.9" y1="1077.27" x2="1518.9" y2="1077.27" style="stroke:#000000; stroke-width:4; stroke-opacity:1"/>
<line clip-path="url(#clip3702)" x1="1810.09" y1="1698.57" x2="1770.09" y2="1698.57" style="stroke:#000000; stroke-width:4; stroke-opacity:1"/>
<line clip-path="url(#clip3702)" x1="1810.09" y1="1149.66" x2="1770.09" y2="1149.66" style="stroke:#000000; stroke-width:4; stroke-opacity:1"/>
<line clip-path="url(#clip3702)" x1="2061.28" y1="1724.08" x2="2021.28" y2="1724.08" style="stroke:#000000; stroke-width:4; stroke-opacity:1"/>
<line clip-path="url(#clip3702)" x1="2061.28" y1="1167.48" x2="2021.28" y2="1167.48" style="stroke:#000000; stroke-width:4; stroke-opacity:1"/>
<line clip-path="url(#clip3702)" x1="2312.47" y1="1765.46" x2="2272.47" y2="1765.46" style="stroke:#000000; stroke-width:4; stroke-opacity:1"/>
<line clip-path="url(#clip3702)" x1="2312.47" y1="1169.26" x2="2272.47" y2="1169.26" style="stroke:#000000; stroke-width:4; stroke-opacity:1"/>
<path clip-path="url(#clip3700)" d="
M1512.11 559.977 L2208.76 559.977 L2208.76 378.537 L1512.11 378.537  Z
  " fill="#ffffff" fill-rule="evenodd" fill-opacity="1"/>
<polyline clip-path="url(#clip3700)" style="stroke:#000000; stroke-width:4; stroke-opacity:1; fill:none" points="
  1512.11,559.977 2208.76,559.977 2208.76,378.537 1512.11,378.537 1512.11,559.977 
  "/>
<polyline clip-path="url(#clip3700)" style="stroke:#009af9; stroke-width:4; stroke-opacity:1; fill:none" points="
  1560.11,439.017 1848.11,439.017 
  "/>
<g clip-path="url(#clip3700)">
<text style="fill:#000000; fill-opacity:1; font-family:Arial,Helvetica Neue,Helvetica,sans-serif; font-size:48px; text-anchor:start;" transform="rotate(0, 1896.11, 456.517)" x="1896.11" y="456.517">simulation</text>
</g>
<polyline clip-path="url(#clip3700)" style="stroke:#e26f46; stroke-width:4; stroke-opacity:1; fill:none" points="
  1560.11,499.497 1848.11,499.497 
  "/>
<g clip-path="url(#clip3700)">
<text style="fill:#000000; fill-opacity:1; font-family:Arial,Helvetica Neue,Helvetica,sans-serif; font-size:48px; text-anchor:start;" transform="rotate(0, 1896.11, 516.997)" x="1896.11" y="516.997">data</text>
</g>
<path clip-path="url(#clip3700)" d="
M2622.66 2153.8 L4752.76 2153.8 L4752.76 151.017 L2622.66 151.017  Z
  " fill="#ffffff" fill-rule="evenodd" fill-opacity="1"/>
<defs>
  <clipPath id="clip3703">
    <rect x="2622" y="151" width="2131" height="2004"/>
  </clipPath>
</defs>
<polyline clip-path="url(#clip3703)" style="stroke:#000000; stroke-width:2; stroke-opacity:0.1; fill:none" points="
  2682.95,2153.8 2682.95,151.017 
  "/>
<polyline clip-path="url(#clip3703)" style="stroke:#000000; stroke-width:2; stroke-opacity:0.1; fill:none" points="
  3185.33,2153.8 3185.33,151.017 
  "/>
<polyline clip-path="url(#clip3703)" style="stroke:#000000; stroke-width:2; stroke-opacity:0.1; fill:none" points="
  3687.71,2153.8 3687.71,151.017 
  "/>
<polyline clip-path="url(#clip3703)" style="stroke:#000000; stroke-width:2; stroke-opacity:0.1; fill:none" points="
  4190.09,2153.8 4190.09,151.017 
  "/>
<polyline clip-path="url(#clip3703)" style="stroke:#000000; stroke-width:2; stroke-opacity:0.1; fill:none" points="
  4692.47,2153.8 4692.47,151.017 
  "/>
<polyline clip-path="url(#clip3703)" style="stroke:#000000; stroke-width:2; stroke-opacity:0.1; fill:none" points="
  2622.66,2153.8 4752.76,2153.8 
  "/>
<polyline clip-path="url(#clip3703)" style="stroke:#000000; stroke-width:2; stroke-opacity:0.1; fill:none" points="
  2622.66,1708.74 4752.76,1708.74 
  "/>
<polyline clip-path="url(#clip3703)" style="stroke:#000000; stroke-width:2; stroke-opacity:0.1; fill:none" points="
  2622.66,1263.67 4752.76,1263.67 
  "/>
<polyline clip-path="url(#clip3703)" style="stroke:#000000; stroke-width:2; stroke-opacity:0.1; fill:none" points="
  2622.66,818.61 4752.76,818.61 
  "/>
<polyline clip-path="url(#clip3703)" style="stroke:#000000; stroke-width:2; stroke-opacity:0.1; fill:none" points="
  2622.66,373.548 4752.76,373.548 
  "/>
<polyline clip-path="url(#clip3700)" style="stroke:#000000; stroke-width:4; stroke-opacity:1; fill:none" points="
  2622.66,2153.8 4752.76,2153.8 
  "/>
<polyline clip-path="url(#clip3700)" style="stroke:#000000; stroke-width:4; stroke-opacity:1; fill:none" points="
  2622.66,2153.8 2622.66,151.017 
  "/>
<polyline clip-path="url(#clip3700)" style="stroke:#000000; stroke-width:4; stroke-opacity:1; fill:none" points="
  2682.95,2153.8 2682.95,2129.76 
  "/>
<polyline clip-path="url(#clip3700)" style="stroke:#000000; stroke-width:4; stroke-opacity:1; fill:none" points="
  3185.33,2153.8 3185.33,2129.76 
  "/>
<polyline clip-path="url(#clip3700)" style="stroke:#000000; stroke-width:4; stroke-opacity:1; fill:none" points="
  3687.71,2153.8 3687.71,2129.76 
  "/>
<polyline clip-path="url(#clip3700)" style="stroke:#000000; stroke-width:4; stroke-opacity:1; fill:none" points="
  4190.09,2153.8 4190.09,2129.76 
  "/>
<polyline clip-path="url(#clip3700)" style="stroke:#000000; stroke-width:4; stroke-opacity:1; fill:none" points="
  4692.47,2153.8 4692.47,2129.76 
  "/>
<polyline clip-path="url(#clip3700)" style="stroke:#000000; stroke-width:4; stroke-opacity:1; fill:none" points="
  2622.66,2153.8 2648.23,2153.8 
  "/>
<polyline clip-path="url(#clip3700)" style="stroke:#000000; stroke-width:4; stroke-opacity:1; fill:none" points="
  2622.66,1708.74 2648.23,1708.74 
  "/>
<polyline clip-path="url(#clip3700)" style="stroke:#000000; stroke-width:4; stroke-opacity:1; fill:none" points="
  2622.66,1263.67 2648.23,1263.67 
  "/>
<polyline clip-path="url(#clip3700)" style="stroke:#000000; stroke-width:4; stroke-opacity:1; fill:none" points="
  2622.66,818.61 2648.23,818.61 
  "/>
<polyline clip-path="url(#clip3700)" style="stroke:#000000; stroke-width:4; stroke-opacity:1; fill:none" points="
  2622.66,373.548 2648.23,373.548 
  "/>
<g clip-path="url(#clip3700)">
<text style="fill:#000000; fill-opacity:1; font-family:Arial,Helvetica Neue,Helvetica,sans-serif; font-size:48px; text-anchor:middle;" transform="rotate(0, 2682.95, 2219.8)" x="2682.95" y="2219.8">0</text>
</g>
<g clip-path="url(#clip3700)">
<text style="fill:#000000; fill-opacity:1; font-family:Arial,Helvetica Neue,Helvetica,sans-serif; font-size:48px; text-anchor:middle;" transform="rotate(0, 3185.33, 2219.8)" x="3185.33" y="2219.8">2</text>
</g>
<g clip-path="url(#clip3700)">
<text style="fill:#000000; fill-opacity:1; font-family:Arial,Helvetica Neue,Helvetica,sans-serif; font-size:48px; text-anchor:middle;" transform="rotate(0, 3687.71, 2219.8)" x="3687.71" y="2219.8">4</text>
</g>
<g clip-path="url(#clip3700)">
<text style="fill:#000000; fill-opacity:1; font-family:Arial,Helvetica Neue,Helvetica,sans-serif; font-size:48px; text-anchor:middle;" transform="rotate(0, 4190.09, 2219.8)" x="4190.09" y="2219.8">6</text>
</g>
<g clip-path="url(#clip3700)">
<text style="fill:#000000; fill-opacity:1; font-family:Arial,Helvetica Neue,Helvetica,sans-serif; font-size:48px; text-anchor:middle;" transform="rotate(0, 4692.47, 2219.8)" x="4692.47" y="2219.8">8</text>
</g>
<g clip-path="url(#clip3700)">
<text style="fill:#000000; fill-opacity:1; font-family:Arial,Helvetica Neue,Helvetica,sans-serif; font-size:48px; text-anchor:end;" transform="rotate(0, 2574.66, 2171.3)" x="2574.66" y="2171.3">0</text>
</g>
<g clip-path="url(#clip3700)">
<text style="fill:#000000; fill-opacity:1; font-family:Arial,Helvetica Neue,Helvetica,sans-serif; font-size:48px; text-anchor:end;" transform="rotate(0, 2574.66, 1726.24)" x="2574.66" y="1726.24">1</text>
</g>
<g clip-path="url(#clip3700)">
<text style="fill:#000000; fill-opacity:1; font-family:Arial,Helvetica Neue,Helvetica,sans-serif; font-size:48px; text-anchor:end;" transform="rotate(0, 2574.66, 1281.17)" x="2574.66" y="1281.17">2</text>
</g>
<g clip-path="url(#clip3700)">
<text style="fill:#000000; fill-opacity:1; font-family:Arial,Helvetica Neue,Helvetica,sans-serif; font-size:48px; text-anchor:end;" transform="rotate(0, 2574.66, 836.11)" x="2574.66" y="836.11">3</text>
</g>
<g clip-path="url(#clip3700)">
<text style="fill:#000000; fill-opacity:1; font-family:Arial,Helvetica Neue,Helvetica,sans-serif; font-size:48px; text-anchor:end;" transform="rotate(0, 2574.66, 391.048)" x="2574.66" y="391.048">4</text>
</g>
<g clip-path="url(#clip3700)">
<text style="fill:#000000; fill-opacity:1; font-family:Arial,Helvetica Neue,Helvetica,sans-serif; font-size:82px; text-anchor:middle;" transform="rotate(0, 3687.71, 72)" x="3687.71" y="72">Normal patient 45 mcg (3 patients)</text>
</g>
<g clip-path="url(#clip3700)">
<text style="fill:#000000; fill-opacity:1; font-family:Arial,Helvetica Neue,Helvetica,sans-serif; font-size:66px; text-anchor:middle;" transform="rotate(0, 3687.71, 2311.66)" x="3687.71" y="2311.66">Time (hours)</text>
</g>
<g clip-path="url(#clip3700)">
<text style="fill:#000000; fill-opacity:1; font-family:Arial,Helvetica Neue,Helvetica,sans-serif; font-size:66px; text-anchor:middle;" transform="rotate(-90, 2488.34, 1152.41)" x="2488.34" y="1152.41">T3 mcg/L</text>
</g>
<path clip-path="url(#clip3703)" d="
M2682.95 1886.44 L2708.07 1866 L2733.19 1811.39 L2758.31 1743.11 L2783.43 1669.01 L2808.55 1593.02 L2833.66 1517.6 L2858.78 1444.54 L2883.9 1375.01 L2909.02 1309.89 
  L2934.14 1249.74 L2959.26 1194.74 L2984.38 1145.32 L3009.5 1101.36 L3034.62 1062.2 L3059.74 1028.61 L3084.85 1001.22 L3109.97 975.797 L3135.09 954.464 L3160.21 943.215 
  L3185.33 928.604 L3210.45 916.532 L3235.57 917.424 L3260.69 908.926 L3285.81 911.532 L3310.93 914.216 L3336.04 916.424 L3361.16 925.353 L3386.28 930.364 L3411.4 942.12 
  L3436.52 951.182 L3461.64 963.456 L3486.76 976.331 L3511.88 988.253 L3537 1004.01 L3562.12 1016.81 L3587.23 1032.75 L3612.35 1048.21 L3637.47 1062.16 L3662.59 1079.94 
  L3687.71 1093.89 L3712.83 1110.67 L3737.95 1126.94 L3763.07 1140.94 L3788.19 1158.82 L3813.31 1172.55 L3838.42 1188.66 L3863.54 1204.49 L3888.66 1218.11 L3913.78 1234.57 
  L3938.9 1247.7 L3964.02 1262.62 L3989.14 1276.87 L4014.26 1289.38 L4039.38 1304.29 L4064.5 1316.06 L4089.61 1329.7 L4114.73 1342.34 L4139.85 1353.56 L4164.97 1366.84 
  L4190.09 1377.09 L4215.21 1389.28 L4240.33 1400.29 L4265.45 1410.16 L4290.57 1421.86 L4315.69 1430.64 L4340.8 1441.44 L4365.92 1450.9 L4391.04 1459.51 L4416.16 1469.72 
  L4441.28 1477.17 L4466.4 1486.68 L4491.52 1494.72 L4516.64 1502.21 L4541.76 1511.06 L4566.88 1517.33 L4591.99 1525.69 L4617.11 1532.48 L4642.23 1538.93 L4667.35 1546.29 
  L4692.47 1552.25 L4692.47 1422.74 L4667.35 1415.13 L4642.23 1409.07 L4617.11 1401.05 L4591.99 1393.16 L4566.88 1386.15 L4541.76 1376.53 L4516.64 1369.54 L4491.52 1359.99 
  L4466.4 1351.2 L4441.28 1342.66 L4416.16 1331.79 L4391.04 1323.54 L4365.92 1312.3 L4340.8 1302.48 L4315.69 1292.19 L4290.57 1280.03 L4265.45 1270.26 L4240.33 1257.2 
  L4215.21 1246.21 L4190.09 1233.98 L4164.97 1220.5 L4139.85 1209.01 L4114.73 1194.1 L4089.61 1181.81 L4064.5 1167.54 L4039.38 1152.76 L4014.26 1139.41 L3989.14 1122.8 
  L3964.02 1109.23 L3938.9 1093.02 L3913.78 1077.3 L3888.66 1062.14 L3863.54 1043.96 L3838.42 1028.91 L3813.31 1010.51 L3788.19 995.191 L3763.07 977.827 L3737.95 959.483 
  L3712.83 944.287 L3687.71 924.474 L3662.59 909.288 L3637.47 891.527 L3612.35 873.772 L3587.23 858.88 L3562.12 840.192 L3537 826.264 L3511.88 810.183 L3486.76 795.142 
  L3461.64 782.681 L3436.52 767.635 L3411.4 758.331 L3386.28 745.97 L3361.16 738.601 L3336.04 731.105 L3310.93 724.816 L3285.81 724.873 L3260.69 718.938 L3235.57 728.418 
  L3210.45 729.118 L3185.33 738.943 L3160.21 756.001 L3135.09 767.088 L3109.97 789.903 L3084.85 817.343 L3059.74 845.887 L3034.62 881.913 L3009.5 923.899 L2984.38 970.764 
  L2959.26 1023.69 L2934.14 1082.67 L2909.02 1147.15 L2883.9 1217.03 L2858.78 1291.68 L2833.66 1370.12 L2808.55 1451.14 L2783.43 1532.79 L2758.31 1612.42 L2733.19 1685.85 
  L2708.07 1744.6 L2682.95 1766.03  Z
  " fill="#009af9" fill-rule="evenodd" fill-opacity="0.3"/>
<polyline clip-path="url(#clip3703)" style="stroke:#009af9; stroke-width:4; stroke-opacity:1; fill:none" points="
  2682.95,1826.23 2708.07,1805.3 2733.19,1748.62 2758.31,1677.76 2783.43,1600.9 2808.55,1522.08 2833.66,1443.86 2858.78,1368.11 2883.9,1296.02 2909.02,1228.52 
  2934.14,1166.2 2959.26,1109.22 2984.38,1058.04 3009.5,1012.63 3034.62,972.057 3059.74,937.246 3084.85,909.283 3109.97,882.85 3135.09,860.776 3160.21,849.608 
  3185.33,833.774 3210.45,822.825 3235.57,822.921 3260.69,813.932 3285.81,818.202 3310.93,819.516 3336.04,823.764 3361.16,831.977 3386.28,838.167 3411.4,850.226 
  3436.52,859.409 3461.64,873.068 3486.76,885.737 3511.88,899.218 3537,915.136 3562.12,928.5 3587.23,945.813 3612.35,960.992 3637.47,976.843 3662.59,994.612 
  3687.71,1009.18 3712.83,1027.48 3737.95,1043.21 3763.07,1059.38 3788.19,1077.01 3813.31,1091.53 3838.42,1108.78 3863.54,1124.23 3888.66,1140.13 3913.78,1155.93 
  3938.9,1170.36 3964.02,1185.93 3989.14,1199.83 4014.26,1214.4 4039.38,1228.52 4064.5,1241.8 4089.61,1255.76 4114.73,1268.22 4139.85,1281.29 4164.97,1293.67 
  4190.09,1305.53 4215.21,1317.75 4240.33,1328.75 4265.45,1340.21 4290.57,1350.95 4315.69,1361.42 4340.8,1371.96 4365.92,1381.6 4391.04,1391.53 4416.16,1400.76 
  4441.28,1409.92 4466.4,1418.94 4491.52,1427.36 4516.64,1435.87 4541.76,1443.8 4566.88,1451.74 4591.99,1459.42 4617.11,1466.77 4642.23,1474 4667.35,1480.71 
  4692.47,1487.49 
  "/>
<polyline clip-path="url(#clip3703)" style="stroke:#e26f46; stroke-width:4; stroke-opacity:1; fill:none" points="
  2682.95,1826.23 2808.55,1720.46 2934.14,1340.22 3185.33,842.792 3436.52,981.355 3687.71,1099.44 3938.9,1158.19 4190.09,1375.09 4441.28,1398.97 4692.47,1478.04 
  
  "/>
<polyline clip-path="url(#clip3703)" style="stroke:#e26f46; stroke-width:4; stroke-opacity:1; fill:none" points="
  2682.95,1886.44 2682.95,1766.03 
  "/>
<polyline clip-path="url(#clip3703)" style="stroke:#e26f46; stroke-width:4; stroke-opacity:1; fill:none" points="
  2808.55,1765.55 2808.55,1675.36 
  "/>
<polyline clip-path="url(#clip3703)" style="stroke:#e26f46; stroke-width:4; stroke-opacity:1; fill:none" points="
  2934.14,1656.11 2934.14,1024.34 
  "/>
<polyline clip-path="url(#clip3703)" style="stroke:#e26f46; stroke-width:4; stroke-opacity:1; fill:none" points="
  3185.33,1310.78 3185.33,374.802 
  "/>
<polyline clip-path="url(#clip3703)" style="stroke:#e26f46; stroke-width:4; stroke-opacity:1; fill:none" points="
  3436.52,1409.35 3436.52,553.358 
  "/>
<polyline clip-path="url(#clip3703)" style="stroke:#e26f46; stroke-width:4; stroke-opacity:1; fill:none" points="
  3687.71,1430.26 3687.71,768.63 
  "/>
<polyline clip-path="url(#clip3703)" style="stroke:#e26f46; stroke-width:4; stroke-opacity:1; fill:none" points="
  3938.9,1389.26 3938.9,927.122 
  "/>
<polyline clip-path="url(#clip3703)" style="stroke:#e26f46; stroke-width:4; stroke-opacity:1; fill:none" points="
  4190.09,1523.13 4190.09,1227.05 
  "/>
<polyline clip-path="url(#clip3703)" style="stroke:#e26f46; stroke-width:4; stroke-opacity:1; fill:none" points="
  4441.28,1568.39 4441.28,1229.55 
  "/>
<polyline clip-path="url(#clip3703)" style="stroke:#e26f46; stroke-width:4; stroke-opacity:1; fill:none" points="
  4692.47,1615.06 4692.47,1341.03 
  "/>
<line clip-path="url(#clip3703)" x1="2702.95" y1="1886.44" x2="2662.95" y2="1886.44" style="stroke:#000000; stroke-width:4; stroke-opacity:1"/>
<line clip-path="url(#clip3703)" x1="2702.95" y1="1766.03" x2="2662.95" y2="1766.03" style="stroke:#000000; stroke-width:4; stroke-opacity:1"/>
<line clip-path="url(#clip3703)" x1="2828.55" y1="1765.55" x2="2788.55" y2="1765.55" style="stroke:#000000; stroke-width:4; stroke-opacity:1"/>
<line clip-path="url(#clip3703)" x1="2828.55" y1="1675.36" x2="2788.55" y2="1675.36" style="stroke:#000000; stroke-width:4; stroke-opacity:1"/>
<line clip-path="url(#clip3703)" x1="2954.14" y1="1656.11" x2="2914.14" y2="1656.11" style="stroke:#000000; stroke-width:4; stroke-opacity:1"/>
<line clip-path="url(#clip3703)" x1="2954.14" y1="1024.34" x2="2914.14" y2="1024.34" style="stroke:#000000; stroke-width:4; stroke-opacity:1"/>
<line clip-path="url(#clip3703)" x1="3205.33" y1="1310.78" x2="3165.33" y2="1310.78" style="stroke:#000000; stroke-width:4; stroke-opacity:1"/>
<line clip-path="url(#clip3703)" x1="3205.33" y1="374.802" x2="3165.33" y2="374.802" style="stroke:#000000; stroke-width:4; stroke-opacity:1"/>
<line clip-path="url(#clip3703)" x1="3456.52" y1="1409.35" x2="3416.52" y2="1409.35" style="stroke:#000000; stroke-width:4; stroke-opacity:1"/>
<line clip-path="url(#clip3703)" x1="3456.52" y1="553.358" x2="3416.52" y2="553.358" style="stroke:#000000; stroke-width:4; stroke-opacity:1"/>
<line clip-path="url(#clip3703)" x1="3707.71" y1="1430.26" x2="3667.71" y2="1430.26" style="stroke:#000000; stroke-width:4; stroke-opacity:1"/>
<line clip-path="url(#clip3703)" x1="3707.71" y1="768.63" x2="3667.71" y2="768.63" style="stroke:#000000; stroke-width:4; stroke-opacity:1"/>
<line clip-path="url(#clip3703)" x1="3958.9" y1="1389.26" x2="3918.9" y2="1389.26" style="stroke:#000000; stroke-width:4; stroke-opacity:1"/>
<line clip-path="url(#clip3703)" x1="3958.9" y1="927.122" x2="3918.9" y2="927.122" style="stroke:#000000; stroke-width:4; stroke-opacity:1"/>
<line clip-path="url(#clip3703)" x1="4210.09" y1="1523.13" x2="4170.09" y2="1523.13" style="stroke:#000000; stroke-width:4; stroke-opacity:1"/>
<line clip-path="url(#clip3703)" x1="4210.09" y1="1227.05" x2="4170.09" y2="1227.05" style="stroke:#000000; stroke-width:4; stroke-opacity:1"/>
<line clip-path="url(#clip3703)" x1="4461.28" y1="1568.39" x2="4421.28" y2="1568.39" style="stroke:#000000; stroke-width:4; stroke-opacity:1"/>
<line clip-path="url(#clip3703)" x1="4461.28" y1="1229.55" x2="4421.28" y2="1229.55" style="stroke:#000000; stroke-width:4; stroke-opacity:1"/>
<line clip-path="url(#clip3703)" x1="4712.47" y1="1615.06" x2="4672.47" y2="1615.06" style="stroke:#000000; stroke-width:4; stroke-opacity:1"/>
<line clip-path="url(#clip3703)" x1="4712.47" y1="1341.03" x2="4672.47" y2="1341.03" style="stroke:#000000; stroke-width:4; stroke-opacity:1"/>
<path clip-path="url(#clip3700)" d="
M3912.11 559.977 L4608.76 559.977 L4608.76 378.537 L3912.11 378.537  Z
  " fill="#ffffff" fill-rule="evenodd" fill-opacity="1"/>
<polyline clip-path="url(#clip3700)" style="stroke:#000000; stroke-width:4; stroke-opacity:1; fill:none" points="
  3912.11,559.977 4608.76,559.977 4608.76,378.537 3912.11,378.537 3912.11,559.977 
  "/>
<polyline clip-path="url(#clip3700)" style="stroke:#009af9; stroke-width:4; stroke-opacity:1; fill:none" points="
  3960.11,439.017 4248.11,439.017 
  "/>
<g clip-path="url(#clip3700)">
<text style="fill:#000000; fill-opacity:1; font-family:Arial,Helvetica Neue,Helvetica,sans-serif; font-size:48px; text-anchor:start;" transform="rotate(0, 4296.11, 456.517)" x="4296.11" y="456.517">simulation</text>
</g>
<polyline clip-path="url(#clip3700)" style="stroke:#e26f46; stroke-width:4; stroke-opacity:1; fill:none" points="
  3960.11,499.497 4248.11,499.497 
  "/>
<g clip-path="url(#clip3700)">
<text style="fill:#000000; fill-opacity:1; font-family:Arial,Helvetica Neue,Helvetica,sans-serif; font-size:48px; text-anchor:start;" transform="rotate(0, 4296.11, 516.997)" x="4296.11" y="516.997">data</text>
</g>
<path clip-path="url(#clip3700)" d="
M222.665 4553.8 L2352.76 4553.8 L2352.76 2551.02 L222.665 2551.02  Z
  " fill="#ffffff" fill-rule="evenodd" fill-opacity="1"/>
<defs>
  <clipPath id="clip3704">
    <rect x="222" y="2551" width="2131" height="2004"/>
  </clipPath>
</defs>
<polyline clip-path="url(#clip3704)" style="stroke:#000000; stroke-width:2; stroke-opacity:0.1; fill:none" points="
  282.95,4553.8 282.95,2551.02 
  "/>
<polyline clip-path="url(#clip3704)" style="stroke:#000000; stroke-width:2; stroke-opacity:0.1; fill:none" points="
  785.33,4553.8 785.33,2551.02 
  "/>
<polyline clip-path="url(#clip3704)" style="stroke:#000000; stroke-width:2; stroke-opacity:0.1; fill:none" points="
  1287.71,4553.8 1287.71,2551.02 
  "/>
<polyline clip-path="url(#clip3704)" style="stroke:#000000; stroke-width:2; stroke-opacity:0.1; fill:none" points="
  1790.09,4553.8 1790.09,2551.02 
  "/>
<polyline clip-path="url(#clip3704)" style="stroke:#000000; stroke-width:2; stroke-opacity:0.1; fill:none" points="
  2292.47,4553.8 2292.47,2551.02 
  "/>
<polyline clip-path="url(#clip3704)" style="stroke:#000000; stroke-width:2; stroke-opacity:0.1; fill:none" points="
  222.665,4553.8 2352.76,4553.8 
  "/>
<polyline clip-path="url(#clip3704)" style="stroke:#000000; stroke-width:2; stroke-opacity:0.1; fill:none" points="
  222.665,4108.74 2352.76,4108.74 
  "/>
<polyline clip-path="url(#clip3704)" style="stroke:#000000; stroke-width:2; stroke-opacity:0.1; fill:none" points="
  222.665,3663.67 2352.76,3663.67 
  "/>
<polyline clip-path="url(#clip3704)" style="stroke:#000000; stroke-width:2; stroke-opacity:0.1; fill:none" points="
  222.665,3218.61 2352.76,3218.61 
  "/>
<polyline clip-path="url(#clip3704)" style="stroke:#000000; stroke-width:2; stroke-opacity:0.1; fill:none" points="
  222.665,2773.55 2352.76,2773.55 
  "/>
<polyline clip-path="url(#clip3700)" style="stroke:#000000; stroke-width:4; stroke-opacity:1; fill:none" points="
  222.665,4553.8 2352.76,4553.8 
  "/>
<polyline clip-path="url(#clip3700)" style="stroke:#000000; stroke-width:4; stroke-opacity:1; fill:none" points="
  222.665,4553.8 222.665,2551.02 
  "/>
<polyline clip-path="url(#clip3700)" style="stroke:#000000; stroke-width:4; stroke-opacity:1; fill:none" points="
  282.95,4553.8 282.95,4529.76 
  "/>
<polyline clip-path="url(#clip3700)" style="stroke:#000000; stroke-width:4; stroke-opacity:1; fill:none" points="
  785.33,4553.8 785.33,4529.76 
  "/>
<polyline clip-path="url(#clip3700)" style="stroke:#000000; stroke-width:4; stroke-opacity:1; fill:none" points="
  1287.71,4553.8 1287.71,4529.76 
  "/>
<polyline clip-path="url(#clip3700)" style="stroke:#000000; stroke-width:4; stroke-opacity:1; fill:none" points="
  1790.09,4553.8 1790.09,4529.76 
  "/>
<polyline clip-path="url(#clip3700)" style="stroke:#000000; stroke-width:4; stroke-opacity:1; fill:none" points="
  2292.47,4553.8 2292.47,4529.76 
  "/>
<polyline clip-path="url(#clip3700)" style="stroke:#000000; stroke-width:4; stroke-opacity:1; fill:none" points="
  222.665,4553.8 248.226,4553.8 
  "/>
<polyline clip-path="url(#clip3700)" style="stroke:#000000; stroke-width:4; stroke-opacity:1; fill:none" points="
  222.665,4108.74 248.226,4108.74 
  "/>
<polyline clip-path="url(#clip3700)" style="stroke:#000000; stroke-width:4; stroke-opacity:1; fill:none" points="
  222.665,3663.67 248.226,3663.67 
  "/>
<polyline clip-path="url(#clip3700)" style="stroke:#000000; stroke-width:4; stroke-opacity:1; fill:none" points="
  222.665,3218.61 248.226,3218.61 
  "/>
<polyline clip-path="url(#clip3700)" style="stroke:#000000; stroke-width:4; stroke-opacity:1; fill:none" points="
  222.665,2773.55 248.226,2773.55 
  "/>
<g clip-path="url(#clip3700)">
<text style="fill:#000000; fill-opacity:1; font-family:Arial,Helvetica Neue,Helvetica,sans-serif; font-size:48px; text-anchor:middle;" transform="rotate(0, 282.95, 4619.8)" x="282.95" y="4619.8">0</text>
</g>
<g clip-path="url(#clip3700)">
<text style="fill:#000000; fill-opacity:1; font-family:Arial,Helvetica Neue,Helvetica,sans-serif; font-size:48px; text-anchor:middle;" transform="rotate(0, 785.33, 4619.8)" x="785.33" y="4619.8">2</text>
</g>
<g clip-path="url(#clip3700)">
<text style="fill:#000000; fill-opacity:1; font-family:Arial,Helvetica Neue,Helvetica,sans-serif; font-size:48px; text-anchor:middle;" transform="rotate(0, 1287.71, 4619.8)" x="1287.71" y="4619.8">4</text>
</g>
<g clip-path="url(#clip3700)">
<text style="fill:#000000; fill-opacity:1; font-family:Arial,Helvetica Neue,Helvetica,sans-serif; font-size:48px; text-anchor:middle;" transform="rotate(0, 1790.09, 4619.8)" x="1790.09" y="4619.8">6</text>
</g>
<g clip-path="url(#clip3700)">
<text style="fill:#000000; fill-opacity:1; font-family:Arial,Helvetica Neue,Helvetica,sans-serif; font-size:48px; text-anchor:middle;" transform="rotate(0, 2292.47, 4619.8)" x="2292.47" y="4619.8">8</text>
</g>
<g clip-path="url(#clip3700)">
<text style="fill:#000000; fill-opacity:1; font-family:Arial,Helvetica Neue,Helvetica,sans-serif; font-size:48px; text-anchor:end;" transform="rotate(0, 174.665, 4571.3)" x="174.665" y="4571.3">0</text>
</g>
<g clip-path="url(#clip3700)">
<text style="fill:#000000; fill-opacity:1; font-family:Arial,Helvetica Neue,Helvetica,sans-serif; font-size:48px; text-anchor:end;" transform="rotate(0, 174.665, 4126.24)" x="174.665" y="4126.24">1</text>
</g>
<g clip-path="url(#clip3700)">
<text style="fill:#000000; fill-opacity:1; font-family:Arial,Helvetica Neue,Helvetica,sans-serif; font-size:48px; text-anchor:end;" transform="rotate(0, 174.665, 3681.17)" x="174.665" y="3681.17">2</text>
</g>
<g clip-path="url(#clip3700)">
<text style="fill:#000000; fill-opacity:1; font-family:Arial,Helvetica Neue,Helvetica,sans-serif; font-size:48px; text-anchor:end;" transform="rotate(0, 174.665, 3236.11)" x="174.665" y="3236.11">3</text>
</g>
<g clip-path="url(#clip3700)">
<text style="fill:#000000; fill-opacity:1; font-family:Arial,Helvetica Neue,Helvetica,sans-serif; font-size:48px; text-anchor:end;" transform="rotate(0, 174.665, 2791.05)" x="174.665" y="2791.05">4</text>
</g>
<g clip-path="url(#clip3700)">
<text style="fill:#000000; fill-opacity:1; font-family:Arial,Helvetica Neue,Helvetica,sans-serif; font-size:82px; text-anchor:middle;" transform="rotate(0, 1287.71, 2472)" x="1287.71" y="2472">Overweight patient 30 mcg (2 patients)</text>
</g>
<g clip-path="url(#clip3700)">
<text style="fill:#000000; fill-opacity:1; font-family:Arial,Helvetica Neue,Helvetica,sans-serif; font-size:66px; text-anchor:middle;" transform="rotate(0, 1287.71, 4711.66)" x="1287.71" y="4711.66">Time (hours)</text>
</g>
<g clip-path="url(#clip3700)">
<text style="fill:#000000; fill-opacity:1; font-family:Arial,Helvetica Neue,Helvetica,sans-serif; font-size:66px; text-anchor:middle;" transform="rotate(-90, 88.3402, 3552.41)" x="88.3402" y="3552.41">T3 mcg/L</text>
</g>
<path clip-path="url(#clip3704)" d="
M282.95 4196.77 L308.069 4182.41 L333.188 4142.6 L358.307 4092.88 L383.426 4038.99 L408.545 3983.75 L433.664 3929 L458.783 3875.97 L483.902 3825.57 L509.021 3778.35 
  L534.14 3735.51 L559.259 3706.32 L584.378 3680.1 L609.497 3657.56 L634.616 3637.06 L659.735 3619.04 L684.854 3606.57 L709.973 3593.52 L735.092 3581.54 L760.211 3578.62 
  L785.33 3569.46 L810.449 3567.03 L835.568 3566.68 L860.687 3563.29 L885.806 3567.93 L910.925 3567.44 L936.044 3573.66 L961.163 3576.77 L986.282 3583.29 L1011.4 3589.46 
  L1036.52 3595.8 L1061.64 3604.55 L1086.76 3610.82 L1111.88 3621.05 L1137 3628.63 L1162.12 3638.09 L1187.23 3647.89 L1212.35 3655.59 L1237.47 3667.23 L1262.59 3674.98 
  L1287.71 3685.88 L1312.83 3695.32 L1337.95 3703.91 L1363.07 3715.18 L1388.19 3722.54 L1413.31 3732.69 L1438.42 3742.23 L1463.54 3752.04 L1488.66 3760.79 L1513.78 3769.59 
  L1538.9 3778.16 L1564.02 3786.41 L1589.14 3795.06 L1614.26 3802.95 L1639.38 3811.25 L1664.5 3819.01 L1689.61 3826.61 L1714.73 3834.32 L1739.85 3841.31 L1764.97 3848.7 
  L1790.09 3855.43 L1815.21 3862.22 L1840.33 3868.92 L1865.45 3875.09 L1890.57 3881.61 L1915.69 3887.4 L1940.8 3893.41 L1965.92 3899.15 L1991.04 3904.56 L2016.16 3910.23 
  L2041.28 3915.2 L2066.4 3920.5 L2091.52 3925.36 L2116.64 3931.03 L2141.76 3935.59 L2166.88 3942.58 L2191.99 3946.52 L2217.11 3952.73 L2242.23 3957.55 L2267.35 3961.72 
  L2292.47 3966.89 L2292.47 3960.2 L2267.35 3956.36 L2242.23 3952.21 L2217.11 3948.02 L2191.99 3943.92 L2166.88 3939.27 L2141.76 3934.99 L2116.64 3930.12 L2091.52 3924.88 
  L2066.4 3918.29 L2041.28 3913.23 L2016.16 3905.18 L1991.04 3900.12 L1965.92 3892.49 L1940.8 3885.55 L1915.69 3879.1 L1890.57 3870.15 L1865.45 3864.25 L1840.33 3855.07 
  L1815.21 3847.73 L1790.09 3839.67 L1764.97 3830 L1739.85 3822.92 L1714.73 3812.22 L1689.61 3804.39 L1664.5 3794.6 L1639.38 3784.39 L1614.26 3775.88 L1589.14 3763.88 
  L1564.02 3755.45 L1538.9 3743.87 L1513.78 3733.35 L1488.66 3723.25 L1463.54 3710.41 L1438.42 3701.37 L1413.31 3688.3 L1388.19 3678.07 L1363.07 3666.17 L1337.95 3653.57 
  L1312.83 3643.64 L1287.71 3629.66 L1262.59 3620 L1237.47 3607.5 L1212.35 3595.71 L1187.23 3585.65 L1162.12 3572.52 L1137 3563.7 L1111.88 3552.21 L1086.76 3542.48 
  L1061.64 3533.78 L1036.52 3523.44 L1011.4 3517.41 L986.282 3508.47 L961.163 3504.1 L936.044 3498.25 L910.925 3494.81 L885.806 3493.86 L860.687 3490.42 L835.568 3496.72 
  L810.449 3495.29 L785.33 3505.05 L760.211 3514.12 L735.092 3521.52 L709.973 3538.86 L684.854 3555.82 L659.735 3574.85 L634.616 3599.85 L609.497 3627.89 L584.378 3659.23 
  L559.259 3695.12 L534.14 3734.87 L509.021 3767.47 L483.902 3802.32 L458.783 3839.58 L433.664 3878.83 L408.545 3919.41 L383.426 3960.33 L358.307 4000.18 L333.188 4036.77 
  L308.069 4065.43 L282.95 4072.77  Z
  " fill="#009af9" fill-rule="evenodd" fill-opacity="0.3"/>
<polyline clip-path="url(#clip3704)" style="stroke:#009af9; stroke-width:4; stroke-opacity:1; fill:none" points="
  282.95,4134.77 308.069,4123.92 333.188,4089.69 358.307,4046.53 383.426,3999.66 408.545,3951.58 433.664,3903.92 458.783,3857.78 483.902,3813.94 509.021,3772.91 
  534.14,3735.19 559.259,3700.72 584.378,3669.67 609.497,3642.73 634.616,3618.46 659.735,3596.95 684.854,3581.2 709.973,3566.19 735.092,3551.53 760.211,3546.37 
  785.33,3537.26 810.449,3531.16 835.568,3531.7 860.687,3526.85 885.806,3530.9 910.925,3531.13 936.044,3535.95 961.163,3540.43 986.282,3545.88 1011.4,3553.44 
  1036.52,3559.62 1061.64,3569.16 1086.76,3576.65 1111.88,3586.63 1137,3596.17 1162.12,3605.31 1187.23,3616.77 1212.35,3625.65 1237.47,3637.37 1262.59,3647.49 
  1287.71,3657.77 1312.83,3669.48 1337.95,3678.74 1363.07,3690.67 1388.19,3700.3 1413.31,3710.5 1438.42,3721.8 1463.54,3731.23 1488.66,3742.02 1513.78,3751.47 
  1538.9,3761.02 1564.02,3770.93 1589.14,3779.47 1614.26,3789.42 1639.38,3797.82 1664.5,3806.81 1689.61,3815.5 1714.73,3823.27 1739.85,3832.11 1764.97,3839.35 
  1790.09,3847.55 1815.21,3854.97 1840.33,3861.99 1865.45,3869.67 1890.57,3875.88 1915.69,3883.25 1940.8,3889.48 1965.92,3895.82 1991.04,3902.34 2016.16,3907.71 
  2041.28,3914.22 2066.4,3919.4 2091.52,3925.12 2116.64,3930.58 2141.76,3935.29 2166.88,3940.93 2191.99,3945.22 2217.11,3950.38 2242.23,3954.88 2267.35,3959.04 
  2292.47,3963.54 
  "/>
<polyline clip-path="url(#clip3704)" style="stroke:#e26f46; stroke-width:4; stroke-opacity:1; fill:none" points="
  282.95,4134.77 408.545,4055.55 534.14,3936.05 785.33,3763.81 1036.52,3817.89 1287.71,3871.29 1538.9,3915.36 1790.09,4011.93 2041.28,4075.58 2292.47,4037.3 
  
  "/>
<polyline clip-path="url(#clip3704)" style="stroke:#e26f46; stroke-width:4; stroke-opacity:1; fill:none" points="
  282.95,4347.33 282.95,3922.22 
  "/>
<polyline clip-path="url(#clip3704)" style="stroke:#e26f46; stroke-width:4; stroke-opacity:1; fill:none" points="
  408.545,4365.58 408.545,3745.52 
  "/>
<polyline clip-path="url(#clip3704)" style="stroke:#e26f46; stroke-width:4; stroke-opacity:1; fill:none" points="
  534.14,4343.96 534.14,3528.14 
  "/>
<polyline clip-path="url(#clip3704)" style="stroke:#e26f46; stroke-width:4; stroke-opacity:1; fill:none" points="
  785.33,4076.46 785.33,3451.16 
  "/>
<polyline clip-path="url(#clip3704)" style="stroke:#e26f46; stroke-width:4; stroke-opacity:1; fill:none" points="
  1036.52,4152.11 1036.52,3483.66 
  "/>
<polyline clip-path="url(#clip3704)" style="stroke:#e26f46; stroke-width:4; stroke-opacity:1; fill:none" points="
  1287.71,4156.86 1287.71,3585.73 
  "/>
<polyline clip-path="url(#clip3704)" style="stroke:#e26f46; stroke-width:4; stroke-opacity:1; fill:none" points="
  1538.9,4195.67 1538.9,3635.04 
  "/>
<polyline clip-path="url(#clip3704)" style="stroke:#e26f46; stroke-width:4; stroke-opacity:1; fill:none" points="
  1790.09,4286.39 1790.09,3737.48 
  "/>
<polyline clip-path="url(#clip3704)" style="stroke:#e26f46; stroke-width:4; stroke-opacity:1; fill:none" points="
  2041.28,4353.88 2041.28,3797.28 
  "/>
<polyline clip-path="url(#clip3704)" style="stroke:#e26f46; stroke-width:4; stroke-opacity:1; fill:none" points="
  2292.47,4335.4 2292.47,3739.2 
  "/>
<line clip-path="url(#clip3704)" x1="302.95" y1="4347.33" x2="262.95" y2="4347.33" style="stroke:#000000; stroke-width:4; stroke-opacity:1"/>
<line clip-path="url(#clip3704)" x1="302.95" y1="3922.22" x2="262.95" y2="3922.22" style="stroke:#000000; stroke-width:4; stroke-opacity:1"/>
<line clip-path="url(#clip3704)" x1="428.545" y1="4365.58" x2="388.545" y2="4365.58" style="stroke:#000000; stroke-width:4; stroke-opacity:1"/>
<line clip-path="url(#clip3704)" x1="428.545" y1="3745.52" x2="388.545" y2="3745.52" style="stroke:#000000; stroke-width:4; stroke-opacity:1"/>
<line clip-path="url(#clip3704)" x1="554.14" y1="4343.96" x2="514.14" y2="4343.96" style="stroke:#000000; stroke-width:4; stroke-opacity:1"/>
<line clip-path="url(#clip3704)" x1="554.14" y1="3528.14" x2="514.14" y2="3528.14" style="stroke:#000000; stroke-width:4; stroke-opacity:1"/>
<line clip-path="url(#clip3704)" x1="805.33" y1="4076.46" x2="765.33" y2="4076.46" style="stroke:#000000; stroke-width:4; stroke-opacity:1"/>
<line clip-path="url(#clip3704)" x1="805.33" y1="3451.16" x2="765.33" y2="3451.16" style="stroke:#000000; stroke-width:4; stroke-opacity:1"/>
<line clip-path="url(#clip3704)" x1="1056.52" y1="4152.11" x2="1016.52" y2="4152.11" style="stroke:#000000; stroke-width:4; stroke-opacity:1"/>
<line clip-path="url(#clip3704)" x1="1056.52" y1="3483.66" x2="1016.52" y2="3483.66" style="stroke:#000000; stroke-width:4; stroke-opacity:1"/>
<line clip-path="url(#clip3704)" x1="1307.71" y1="4156.86" x2="1267.71" y2="4156.86" style="stroke:#000000; stroke-width:4; stroke-opacity:1"/>
<line clip-path="url(#clip3704)" x1="1307.71" y1="3585.73" x2="1267.71" y2="3585.73" style="stroke:#000000; stroke-width:4; stroke-opacity:1"/>
<line clip-path="url(#clip3704)" x1="1558.9" y1="4195.67" x2="1518.9" y2="4195.67" style="stroke:#000000; stroke-width:4; stroke-opacity:1"/>
<line clip-path="url(#clip3704)" x1="1558.9" y1="3635.04" x2="1518.9" y2="3635.04" style="stroke:#000000; stroke-width:4; stroke-opacity:1"/>
<line clip-path="url(#clip3704)" x1="1810.09" y1="4286.39" x2="1770.09" y2="4286.39" style="stroke:#000000; stroke-width:4; stroke-opacity:1"/>
<line clip-path="url(#clip3704)" x1="1810.09" y1="3737.48" x2="1770.09" y2="3737.48" style="stroke:#000000; stroke-width:4; stroke-opacity:1"/>
<line clip-path="url(#clip3704)" x1="2061.28" y1="4353.88" x2="2021.28" y2="4353.88" style="stroke:#000000; stroke-width:4; stroke-opacity:1"/>
<line clip-path="url(#clip3704)" x1="2061.28" y1="3797.28" x2="2021.28" y2="3797.28" style="stroke:#000000; stroke-width:4; stroke-opacity:1"/>
<line clip-path="url(#clip3704)" x1="2312.47" y1="4335.4" x2="2272.47" y2="4335.4" style="stroke:#000000; stroke-width:4; stroke-opacity:1"/>
<line clip-path="url(#clip3704)" x1="2312.47" y1="3739.2" x2="2272.47" y2="3739.2" style="stroke:#000000; stroke-width:4; stroke-opacity:1"/>
<path clip-path="url(#clip3700)" d="
M1512.11 2959.98 L2208.76 2959.98 L2208.76 2778.54 L1512.11 2778.54  Z
  " fill="#ffffff" fill-rule="evenodd" fill-opacity="1"/>
<polyline clip-path="url(#clip3700)" style="stroke:#000000; stroke-width:4; stroke-opacity:1; fill:none" points="
  1512.11,2959.98 2208.76,2959.98 2208.76,2778.54 1512.11,2778.54 1512.11,2959.98 
  "/>
<polyline clip-path="url(#clip3700)" style="stroke:#009af9; stroke-width:4; stroke-opacity:1; fill:none" points="
  1560.11,2839.02 1848.11,2839.02 
  "/>
<g clip-path="url(#clip3700)">
<text style="fill:#000000; fill-opacity:1; font-family:Arial,Helvetica Neue,Helvetica,sans-serif; font-size:48px; text-anchor:start;" transform="rotate(0, 1896.11, 2856.52)" x="1896.11" y="2856.52">simulation</text>
</g>
<polyline clip-path="url(#clip3700)" style="stroke:#e26f46; stroke-width:4; stroke-opacity:1; fill:none" points="
  1560.11,2899.5 1848.11,2899.5 
  "/>
<g clip-path="url(#clip3700)">
<text style="fill:#000000; fill-opacity:1; font-family:Arial,Helvetica Neue,Helvetica,sans-serif; font-size:48px; text-anchor:start;" transform="rotate(0, 1896.11, 2917)" x="1896.11" y="2917">data</text>
</g>
<path clip-path="url(#clip3700)" d="
M2622.66 4553.8 L4752.76 4553.8 L4752.76 2551.02 L2622.66 2551.02  Z
  " fill="#ffffff" fill-rule="evenodd" fill-opacity="1"/>
<defs>
  <clipPath id="clip3705">
    <rect x="2622" y="2551" width="2131" height="2004"/>
  </clipPath>
</defs>
<polyline clip-path="url(#clip3705)" style="stroke:#000000; stroke-width:2; stroke-opacity:0.1; fill:none" points="
  2682.95,4553.8 2682.95,2551.02 
  "/>
<polyline clip-path="url(#clip3705)" style="stroke:#000000; stroke-width:2; stroke-opacity:0.1; fill:none" points="
  3185.33,4553.8 3185.33,2551.02 
  "/>
<polyline clip-path="url(#clip3705)" style="stroke:#000000; stroke-width:2; stroke-opacity:0.1; fill:none" points="
  3687.71,4553.8 3687.71,2551.02 
  "/>
<polyline clip-path="url(#clip3705)" style="stroke:#000000; stroke-width:2; stroke-opacity:0.1; fill:none" points="
  4190.09,4553.8 4190.09,2551.02 
  "/>
<polyline clip-path="url(#clip3705)" style="stroke:#000000; stroke-width:2; stroke-opacity:0.1; fill:none" points="
  4692.47,4553.8 4692.47,2551.02 
  "/>
<polyline clip-path="url(#clip3705)" style="stroke:#000000; stroke-width:2; stroke-opacity:0.1; fill:none" points="
  2622.66,4553.8 4752.76,4553.8 
  "/>
<polyline clip-path="url(#clip3705)" style="stroke:#000000; stroke-width:2; stroke-opacity:0.1; fill:none" points="
  2622.66,4108.74 4752.76,4108.74 
  "/>
<polyline clip-path="url(#clip3705)" style="stroke:#000000; stroke-width:2; stroke-opacity:0.1; fill:none" points="
  2622.66,3663.67 4752.76,3663.67 
  "/>
<polyline clip-path="url(#clip3705)" style="stroke:#000000; stroke-width:2; stroke-opacity:0.1; fill:none" points="
  2622.66,3218.61 4752.76,3218.61 
  "/>
<polyline clip-path="url(#clip3705)" style="stroke:#000000; stroke-width:2; stroke-opacity:0.1; fill:none" points="
  2622.66,2773.55 4752.76,2773.55 
  "/>
<polyline clip-path="url(#clip3700)" style="stroke:#000000; stroke-width:4; stroke-opacity:1; fill:none" points="
  2622.66,4553.8 4752.76,4553.8 
  "/>
<polyline clip-path="url(#clip3700)" style="stroke:#000000; stroke-width:4; stroke-opacity:1; fill:none" points="
  2622.66,4553.8 2622.66,2551.02 
  "/>
<polyline clip-path="url(#clip3700)" style="stroke:#000000; stroke-width:4; stroke-opacity:1; fill:none" points="
  2682.95,4553.8 2682.95,4529.76 
  "/>
<polyline clip-path="url(#clip3700)" style="stroke:#000000; stroke-width:4; stroke-opacity:1; fill:none" points="
  3185.33,4553.8 3185.33,4529.76 
  "/>
<polyline clip-path="url(#clip3700)" style="stroke:#000000; stroke-width:4; stroke-opacity:1; fill:none" points="
  3687.71,4553.8 3687.71,4529.76 
  "/>
<polyline clip-path="url(#clip3700)" style="stroke:#000000; stroke-width:4; stroke-opacity:1; fill:none" points="
  4190.09,4553.8 4190.09,4529.76 
  "/>
<polyline clip-path="url(#clip3700)" style="stroke:#000000; stroke-width:4; stroke-opacity:1; fill:none" points="
  4692.47,4553.8 4692.47,4529.76 
  "/>
<polyline clip-path="url(#clip3700)" style="stroke:#000000; stroke-width:4; stroke-opacity:1; fill:none" points="
  2622.66,4553.8 2648.23,4553.8 
  "/>
<polyline clip-path="url(#clip3700)" style="stroke:#000000; stroke-width:4; stroke-opacity:1; fill:none" points="
  2622.66,4108.74 2648.23,4108.74 
  "/>
<polyline clip-path="url(#clip3700)" style="stroke:#000000; stroke-width:4; stroke-opacity:1; fill:none" points="
  2622.66,3663.67 2648.23,3663.67 
  "/>
<polyline clip-path="url(#clip3700)" style="stroke:#000000; stroke-width:4; stroke-opacity:1; fill:none" points="
  2622.66,3218.61 2648.23,3218.61 
  "/>
<polyline clip-path="url(#clip3700)" style="stroke:#000000; stroke-width:4; stroke-opacity:1; fill:none" points="
  2622.66,2773.55 2648.23,2773.55 
  "/>
<g clip-path="url(#clip3700)">
<text style="fill:#000000; fill-opacity:1; font-family:Arial,Helvetica Neue,Helvetica,sans-serif; font-size:48px; text-anchor:middle;" transform="rotate(0, 2682.95, 4619.8)" x="2682.95" y="4619.8">0</text>
</g>
<g clip-path="url(#clip3700)">
<text style="fill:#000000; fill-opacity:1; font-family:Arial,Helvetica Neue,Helvetica,sans-serif; font-size:48px; text-anchor:middle;" transform="rotate(0, 3185.33, 4619.8)" x="3185.33" y="4619.8">2</text>
</g>
<g clip-path="url(#clip3700)">
<text style="fill:#000000; fill-opacity:1; font-family:Arial,Helvetica Neue,Helvetica,sans-serif; font-size:48px; text-anchor:middle;" transform="rotate(0, 3687.71, 4619.8)" x="3687.71" y="4619.8">4</text>
</g>
<g clip-path="url(#clip3700)">
<text style="fill:#000000; fill-opacity:1; font-family:Arial,Helvetica Neue,Helvetica,sans-serif; font-size:48px; text-anchor:middle;" transform="rotate(0, 4190.09, 4619.8)" x="4190.09" y="4619.8">6</text>
</g>
<g clip-path="url(#clip3700)">
<text style="fill:#000000; fill-opacity:1; font-family:Arial,Helvetica Neue,Helvetica,sans-serif; font-size:48px; text-anchor:middle;" transform="rotate(0, 4692.47, 4619.8)" x="4692.47" y="4619.8">8</text>
</g>
<g clip-path="url(#clip3700)">
<text style="fill:#000000; fill-opacity:1; font-family:Arial,Helvetica Neue,Helvetica,sans-serif; font-size:48px; text-anchor:end;" transform="rotate(0, 2574.66, 4571.3)" x="2574.66" y="4571.3">0</text>
</g>
<g clip-path="url(#clip3700)">
<text style="fill:#000000; fill-opacity:1; font-family:Arial,Helvetica Neue,Helvetica,sans-serif; font-size:48px; text-anchor:end;" transform="rotate(0, 2574.66, 4126.24)" x="2574.66" y="4126.24">1</text>
</g>
<g clip-path="url(#clip3700)">
<text style="fill:#000000; fill-opacity:1; font-family:Arial,Helvetica Neue,Helvetica,sans-serif; font-size:48px; text-anchor:end;" transform="rotate(0, 2574.66, 3681.17)" x="2574.66" y="3681.17">2</text>
</g>
<g clip-path="url(#clip3700)">
<text style="fill:#000000; fill-opacity:1; font-family:Arial,Helvetica Neue,Helvetica,sans-serif; font-size:48px; text-anchor:end;" transform="rotate(0, 2574.66, 3236.11)" x="2574.66" y="3236.11">3</text>
</g>
<g clip-path="url(#clip3700)">
<text style="fill:#000000; fill-opacity:1; font-family:Arial,Helvetica Neue,Helvetica,sans-serif; font-size:48px; text-anchor:end;" transform="rotate(0, 2574.66, 2791.05)" x="2574.66" y="2791.05">4</text>
</g>
<g clip-path="url(#clip3700)">
<text style="fill:#000000; fill-opacity:1; font-family:Arial,Helvetica Neue,Helvetica,sans-serif; font-size:82px; text-anchor:middle;" transform="rotate(0, 3687.71, 2472)" x="3687.71" y="2472">Overweight patient 45 mcg (4 patients)</text>
</g>
<g clip-path="url(#clip3700)">
<text style="fill:#000000; fill-opacity:1; font-family:Arial,Helvetica Neue,Helvetica,sans-serif; font-size:66px; text-anchor:middle;" transform="rotate(0, 3687.71, 4711.66)" x="3687.71" y="4711.66">Time (hours)</text>
</g>
<g clip-path="url(#clip3700)">
<text style="fill:#000000; fill-opacity:1; font-family:Arial,Helvetica Neue,Helvetica,sans-serif; font-size:66px; text-anchor:middle;" transform="rotate(-90, 2488.34, 3552.41)" x="2488.34" y="3552.41">T3 mcg/L</text>
</g>
<path clip-path="url(#clip3705)" d="
M2682.95 4207.33 L2708.07 4187.45 L2733.19 4129.9 L2758.31 4057.27 L2783.43 3978.21 L2808.55 3897.03 L2833.66 3816.39 L2858.78 3738.26 L2883.9 3663.88 L2909.02 3594.26 
  L2934.14 3529.91 L2959.26 3471.15 L2984.38 3418.41 L3009.5 3371.31 L3034.62 3329.66 L3059.74 3294.32 L3084.85 3264.51 L3109.97 3237.49 L3135.09 3216.21 L3160.21 3203.56 
  L3185.33 3187.86 L3210.45 3176.1 L3235.57 3177.13 L3260.69 3168.51 L3285.81 3171.29 L3310.93 3175.01 L3336.04 3177.16 L3361.16 3187.68 L3386.28 3193.29 L3411.4 3206.36 
  L3436.52 3216.85 L3461.64 3230.01 L3486.76 3244.66 L3511.88 3257.55 L3537 3275.05 L3562.12 3289.5 L3587.23 3306.54 L3612.35 3324.12 L3637.47 3338.97 L3662.59 3358.76 
  L3687.71 3374.45 L3712.83 3392.23 L3737.95 3410.9 L3763.07 3425.54 L3788.19 3445.6 L3813.31 3460.93 L3838.42 3478.15 L3863.54 3496.14 L3888.66 3510.31 L3913.78 3529.02 
  L3938.9 3543.3 L3964.02 3559.52 L3989.14 3575.78 L4014.26 3588.78 L4039.38 3605.86 L4064.5 3618.5 L4089.61 3633.42 L4114.73 3647.82 L4139.85 3659.44 L4164.97 3674.81 
  L4190.09 3685.7 L4215.21 3699.14 L4240.33 3711.65 L4265.45 3721.88 L4290.57 3735.54 L4315.69 3744.77 L4340.8 3756.78 L4365.92 3767.48 L4391.04 3776.44 L4416.16 3788.45 
  L4441.28 3796.21 L4466.4 3806.89 L4491.52 3815.92 L4516.64 3823.77 L4541.76 3834.24 L4566.88 3840.73 L4591.99 3850.2 L4617.11 3857.76 L4642.23 3864.61 L4667.35 3873.13 
  L4692.47 3879.68 L4692.47 3750.17 L4667.35 3741.98 L4642.23 3734.75 L4617.11 3726.33 L4591.99 3717.67 L4566.88 3709.55 L4541.76 3699.71 L4516.64 3691.1 L4491.52 3681.19 
  L4466.4 3671.4 L4441.28 3661.7 L4416.16 3650.52 L4391.04 3640.47 L4365.92 3628.88 L4340.8 3617.81 L4315.69 3606.32 L4290.57 3593.7 L4265.45 3581.98 L4240.33 3568.56 
  L4215.21 3556.06 L4190.09 3542.59 L4164.97 3528.46 L4139.85 3514.9 L4114.73 3499.59 L4089.61 3485.53 L4064.5 3469.98 L4039.38 3454.33 L4014.26 3438.8 L3989.14 3421.71 
  L3964.02 3406.13 L3938.9 3388.62 L3913.78 3371.75 L3888.66 3354.33 L3863.54 3335.62 L3838.42 3318.41 L3813.31 3298.89 L3788.19 3281.97 L3763.07 3262.43 L3737.95 3243.44 
  L3712.83 3225.85 L3687.71 3205.04 L3662.59 3188.12 L3637.47 3168.34 L3612.35 3149.68 L3587.23 3132.67 L3562.12 3112.88 L3537 3097.31 L3511.88 3079.48 L3486.76 3063.47 
  L3461.64 3049.23 L3436.52 3033.3 L3411.4 3022.57 L3386.28 3008.9 L3361.16 3000.92 L3336.04 2991.84 L3310.93 2985.61 L3285.81 2984.63 L3260.69 2978.53 L3235.57 2988.13 
  L3210.45 2988.69 L3185.33 2998.2 L3160.21 3016.34 L3135.09 3028.83 L3109.97 3051.6 L3084.85 3080.62 L3059.74 3111.61 L3034.62 3149.37 L3009.5 3193.85 L2984.38 3243.85 
  L2959.26 3300.11 L2934.14 3362.84 L2909.02 3431.52 L2883.9 3505.91 L2858.78 3585.4 L2833.66 3668.92 L2808.55 3755.15 L2783.43 3841.99 L2758.31 3926.58 L2733.19 4004.36 
  L2708.07 4066.05 L2682.95 4086.92  Z
  " fill="#009af9" fill-rule="evenodd" fill-opacity="0.3"/>
<polyline clip-path="url(#clip3705)" style="stroke:#009af9; stroke-width:4; stroke-opacity:1; fill:none" points="
  2682.95,4147.12 2708.07,4126.75 2733.19,4067.13 2758.31,3991.92 2783.43,3910.1 2808.55,3826.09 2833.66,3742.66 2858.78,3661.83 2883.9,3584.9 2909.02,3512.89 
  2934.14,3446.37 2959.26,3385.63 2984.38,3331.13 3009.5,3282.58 3034.62,3239.52 3059.74,3202.97 3084.85,3172.56 3109.97,3144.55 3135.09,3122.52 3160.21,3109.95 
  3185.33,3093.03 3210.45,3082.39 3235.57,3082.63 3260.69,3073.52 3285.81,3077.96 3310.93,3080.31 3336.04,3084.5 3361.16,3094.3 3386.28,3101.09 3411.4,3114.46 
  3436.52,3125.08 3461.64,3139.62 3486.76,3154.06 3511.88,3168.51 3537,3186.18 3562.12,3201.19 3587.23,3219.6 3612.35,3236.9 3637.47,3253.66 3662.59,3273.44 
  3687.71,3289.74 3712.83,3309.04 3737.95,3327.17 3763.07,3343.99 3788.19,3363.79 3813.31,3379.91 3838.42,3398.28 3863.54,3415.88 3888.66,3432.32 3913.78,3450.39 
  3938.9,3465.96 3964.02,3482.83 3989.14,3498.75 4014.26,3513.79 4039.38,3530.09 4064.5,3544.24 4089.61,3559.47 4114.73,3573.7 4139.85,3587.17 4164.97,3601.64 
  4190.09,3614.14 4215.21,3627.6 4240.33,3640.11 4265.45,3651.93 4290.57,3664.62 4315.69,3675.55 4340.8,3687.3 4365.92,3698.18 4391.04,3708.46 4416.16,3719.49 
  4441.28,3728.95 4466.4,3739.15 4491.52,3748.55 4516.64,3757.43 4541.76,3766.97 4566.88,3775.14 4591.99,3783.93 4617.11,3792.05 4642.23,3799.68 4667.35,3807.56 
  4692.47,3814.93 
  "/>
<polyline clip-path="url(#clip3705)" style="stroke:#e26f46; stroke-width:4; stroke-opacity:1; fill:none" points="
  2682.95,4147.12 2808.55,4005.93 2934.14,3297.94 3185.33,2856.33 3436.52,3098.78 3687.71,3254.55 3938.9,3498.22 4190.09,3627.4 4441.28,3743.56 4692.47,3838.58 
  
  "/>
<polyline clip-path="url(#clip3705)" style="stroke:#e26f46; stroke-width:4; stroke-opacity:1; fill:none" points="
  2682.95,4207.33 2682.95,4086.92 
  "/>
<polyline clip-path="url(#clip3705)" style="stroke:#e26f46; stroke-width:4; stroke-opacity:1; fill:none" points="
  2808.55,4051.02 2808.55,3960.83 
  "/>
<polyline clip-path="url(#clip3705)" style="stroke:#e26f46; stroke-width:4; stroke-opacity:1; fill:none" points="
  2934.14,3613.83 2934.14,2982.06 
  "/>
<polyline clip-path="url(#clip3705)" style="stroke:#e26f46; stroke-width:4; stroke-opacity:1; fill:none" points="
  3185.33,3324.32 3185.33,2388.34 
  "/>
<polyline clip-path="url(#clip3705)" style="stroke:#e26f46; stroke-width:4; stroke-opacity:1; fill:none" points="
  3436.52,3526.77 3436.52,2670.78 
  "/>
<polyline clip-path="url(#clip3705)" style="stroke:#e26f46; stroke-width:4; stroke-opacity:1; fill:none" points="
  3687.71,3585.36 3687.71,2923.73 
  "/>
<polyline clip-path="url(#clip3705)" style="stroke:#e26f46; stroke-width:4; stroke-opacity:1; fill:none" points="
  3938.9,3729.29 3938.9,3267.15 
  "/>
<polyline clip-path="url(#clip3705)" style="stroke:#e26f46; stroke-width:4; stroke-opacity:1; fill:none" points="
  4190.09,3775.44 4190.09,3479.36 
  "/>
<polyline clip-path="url(#clip3705)" style="stroke:#e26f46; stroke-width:4; stroke-opacity:1; fill:none" points="
  4441.28,3912.98 4441.28,3574.14 
  "/>
<polyline clip-path="url(#clip3705)" style="stroke:#e26f46; stroke-width:4; stroke-opacity:1; fill:none" points="
  4692.47,3975.6 4692.47,3701.57 
  "/>
<line clip-path="url(#clip3705)" x1="2702.95" y1="4207.33" x2="2662.95" y2="4207.33" style="stroke:#000000; stroke-width:4; stroke-opacity:1"/>
<line clip-path="url(#clip3705)" x1="2702.95" y1="4086.92" x2="2662.95" y2="4086.92" style="stroke:#000000; stroke-width:4; stroke-opacity:1"/>
<line clip-path="url(#clip3705)" x1="2828.55" y1="4051.02" x2="2788.55" y2="4051.02" style="stroke:#000000; stroke-width:4; stroke-opacity:1"/>
<line clip-path="url(#clip3705)" x1="2828.55" y1="3960.83" x2="2788.55" y2="3960.83" style="stroke:#000000; stroke-width:4; stroke-opacity:1"/>
<line clip-path="url(#clip3705)" x1="2954.14" y1="3613.83" x2="2914.14" y2="3613.83" style="stroke:#000000; stroke-width:4; stroke-opacity:1"/>
<line clip-path="url(#clip3705)" x1="2954.14" y1="2982.06" x2="2914.14" y2="2982.06" style="stroke:#000000; stroke-width:4; stroke-opacity:1"/>
<line clip-path="url(#clip3705)" x1="3205.33" y1="3324.32" x2="3165.33" y2="3324.32" style="stroke:#000000; stroke-width:4; stroke-opacity:1"/>
<line clip-path="url(#clip3705)" x1="3456.52" y1="3526.77" x2="3416.52" y2="3526.77" style="stroke:#000000; stroke-width:4; stroke-opacity:1"/>
<line clip-path="url(#clip3705)" x1="3456.52" y1="2670.78" x2="3416.52" y2="2670.78" style="stroke:#000000; stroke-width:4; stroke-opacity:1"/>
<line clip-path="url(#clip3705)" x1="3707.71" y1="3585.36" x2="3667.71" y2="3585.36" style="stroke:#000000; stroke-width:4; stroke-opacity:1"/>
<line clip-path="url(#clip3705)" x1="3707.71" y1="2923.73" x2="3667.71" y2="2923.73" style="stroke:#000000; stroke-width:4; stroke-opacity:1"/>
<line clip-path="url(#clip3705)" x1="3958.9" y1="3729.29" x2="3918.9" y2="3729.29" style="stroke:#000000; stroke-width:4; stroke-opacity:1"/>
<line clip-path="url(#clip3705)" x1="3958.9" y1="3267.15" x2="3918.9" y2="3267.15" style="stroke:#000000; stroke-width:4; stroke-opacity:1"/>
<line clip-path="url(#clip3705)" x1="4210.09" y1="3775.44" x2="4170.09" y2="3775.44" style="stroke:#000000; stroke-width:4; stroke-opacity:1"/>
<line clip-path="url(#clip3705)" x1="4210.09" y1="3479.36" x2="4170.09" y2="3479.36" style="stroke:#000000; stroke-width:4; stroke-opacity:1"/>
<line clip-path="url(#clip3705)" x1="4461.28" y1="3912.98" x2="4421.28" y2="3912.98" style="stroke:#000000; stroke-width:4; stroke-opacity:1"/>
<line clip-path="url(#clip3705)" x1="4461.28" y1="3574.14" x2="4421.28" y2="3574.14" style="stroke:#000000; stroke-width:4; stroke-opacity:1"/>
<line clip-path="url(#clip3705)" x1="4712.47" y1="3975.6" x2="4672.47" y2="3975.6" style="stroke:#000000; stroke-width:4; stroke-opacity:1"/>
<line clip-path="url(#clip3705)" x1="4712.47" y1="3701.57" x2="4672.47" y2="3701.57" style="stroke:#000000; stroke-width:4; stroke-opacity:1"/>
<path clip-path="url(#clip3700)" d="
M3912.11 2959.98 L4608.76 2959.98 L4608.76 2778.54 L3912.11 2778.54  Z
  " fill="#ffffff" fill-rule="evenodd" fill-opacity="1"/>
<polyline clip-path="url(#clip3700)" style="stroke:#000000; stroke-width:4; stroke-opacity:1; fill:none" points="
  3912.11,2959.98 4608.76,2959.98 4608.76,2778.54 3912.11,2778.54 3912.11,2959.98 
  "/>
<polyline clip-path="url(#clip3700)" style="stroke:#009af9; stroke-width:4; stroke-opacity:1; fill:none" points="
  3960.11,2839.02 4248.11,2839.02 
  "/>
<g clip-path="url(#clip3700)">
<text style="fill:#000000; fill-opacity:1; font-family:Arial,Helvetica Neue,Helvetica,sans-serif; font-size:48px; text-anchor:start;" transform="rotate(0, 4296.11, 2856.52)" x="4296.11" y="2856.52">simulation</text>
</g>
<polyline clip-path="url(#clip3700)" style="stroke:#e26f46; stroke-width:4; stroke-opacity:1; fill:none" points="
  3960.11,2899.5 4248.11,2899.5 
  "/>
<g clip-path="url(#clip3700)">
<text style="fill:#000000; fill-opacity:1; font-family:Arial,Helvetica Neue,Helvetica,sans-serif; font-size:48px; text-anchor:start;" transform="rotate(0, 4296.11, 2917)" x="4296.11" y="2917">data</text>
</g>
</svg>
