<?xml version="1.0" encoding="utf-8"?>
<svg xmlns="http://www.w3.org/2000/svg" xmlns:xlink="http://www.w3.org/1999/xlink" width="1200" height="1200" viewBox="0 0 4800 4800">
<defs>
  <clipPath id="clip6000">
    <rect x="0" y="0" width="4800" height="4800"/>
  </clipPath>
</defs>
<path clip-path="url(#clip6000)" d="
M0 4800 L4800 4800 L4800 0 L0 0  Z
  " fill="#ffffff" fill-rule="evenodd" fill-opacity="1"/>
<defs>
  <clipPath id="clip6001">
    <rect x="960" y="480" width="3361" height="3361"/>
  </clipPath>
</defs>
<path clip-path="url(#clip6000)" d="
M275.555 2121.21 L2352.76 2121.21 L2352.76 197.125 L275.555 197.125  Z
  " fill="#ffffff" fill-rule="evenodd" fill-opacity="1"/>
<defs>
  <clipPath id="clip6002">
    <rect x="275" y="197" width="2078" height="1925"/>
  </clipPath>
</defs>
<polyline clip-path="url(#clip6002)" style="stroke:#000000; stroke-width:2; stroke-opacity:0.1; fill:none" points="
  334.344,2121.21 334.344,197.125 
  "/>
<polyline clip-path="url(#clip6002)" style="stroke:#000000; stroke-width:2; stroke-opacity:0.1; fill:none" points="
  824.249,2121.21 824.249,197.125 
  "/>
<polyline clip-path="url(#clip6002)" style="stroke:#000000; stroke-width:2; stroke-opacity:0.1; fill:none" points="
  1314.16,2121.21 1314.16,197.125 
  "/>
<polyline clip-path="url(#clip6002)" style="stroke:#000000; stroke-width:2; stroke-opacity:0.1; fill:none" points="
  1804.06,2121.21 1804.06,197.125 
  "/>
<polyline clip-path="url(#clip6002)" style="stroke:#000000; stroke-width:2; stroke-opacity:0.1; fill:none" points="
  2293.97,2121.21 2293.97,197.125 
  "/>
<polyline clip-path="url(#clip6002)" style="stroke:#000000; stroke-width:2; stroke-opacity:0.1; fill:none" points="
  275.555,2121.21 2352.76,2121.21 
  "/>
<polyline clip-path="url(#clip6002)" style="stroke:#000000; stroke-width:2; stroke-opacity:0.1; fill:none" points="
  275.555,1693.64 2352.76,1693.64 
  "/>
<polyline clip-path="url(#clip6002)" style="stroke:#000000; stroke-width:2; stroke-opacity:0.1; fill:none" points="
  275.555,1266.06 2352.76,1266.06 
  "/>
<polyline clip-path="url(#clip6002)" style="stroke:#000000; stroke-width:2; stroke-opacity:0.1; fill:none" points="
  275.555,838.487 2352.76,838.487 
  "/>
<polyline clip-path="url(#clip6002)" style="stroke:#000000; stroke-width:2; stroke-opacity:0.1; fill:none" points="
  275.555,410.912 2352.76,410.912 
  "/>
<polyline clip-path="url(#clip6000)" style="stroke:#000000; stroke-width:4; stroke-opacity:1; fill:none" points="
  275.555,2121.21 2352.76,2121.21 
  "/>
<polyline clip-path="url(#clip6000)" style="stroke:#000000; stroke-width:4; stroke-opacity:1; fill:none" points="
  275.555,2121.21 275.555,197.125 
  "/>
<polyline clip-path="url(#clip6000)" style="stroke:#000000; stroke-width:4; stroke-opacity:1; fill:none" points="
  334.344,2121.21 334.344,2098.12 
  "/>
<polyline clip-path="url(#clip6000)" style="stroke:#000000; stroke-width:4; stroke-opacity:1; fill:none" points="
  824.249,2121.21 824.249,2098.12 
  "/>
<polyline clip-path="url(#clip6000)" style="stroke:#000000; stroke-width:4; stroke-opacity:1; fill:none" points="
  1314.16,2121.21 1314.16,2098.12 
  "/>
<polyline clip-path="url(#clip6000)" style="stroke:#000000; stroke-width:4; stroke-opacity:1; fill:none" points="
  1804.06,2121.21 1804.06,2098.12 
  "/>
<polyline clip-path="url(#clip6000)" style="stroke:#000000; stroke-width:4; stroke-opacity:1; fill:none" points="
  2293.97,2121.21 2293.97,2098.12 
  "/>
<polyline clip-path="url(#clip6000)" style="stroke:#000000; stroke-width:4; stroke-opacity:1; fill:none" points="
  275.555,2121.21 300.481,2121.21 
  "/>
<polyline clip-path="url(#clip6000)" style="stroke:#000000; stroke-width:4; stroke-opacity:1; fill:none" points="
  275.555,1693.64 300.481,1693.64 
  "/>
<polyline clip-path="url(#clip6000)" style="stroke:#000000; stroke-width:4; stroke-opacity:1; fill:none" points="
  275.555,1266.06 300.481,1266.06 
  "/>
<polyline clip-path="url(#clip6000)" style="stroke:#000000; stroke-width:4; stroke-opacity:1; fill:none" points="
  275.555,838.487 300.481,838.487 
  "/>
<polyline clip-path="url(#clip6000)" style="stroke:#000000; stroke-width:4; stroke-opacity:1; fill:none" points="
  275.555,410.912 300.481,410.912 
  "/>
<g clip-path="url(#clip6000)">
<text style="fill:#000000; fill-opacity:1; font-family:Arial,Helvetica Neue,Helvetica,sans-serif; font-size:107px; text-anchor:middle;" transform="rotate(0, 334.344, 2238.81)" x="334.344" y="2238.81">0</text>
</g>
<g clip-path="url(#clip6000)">
<text style="fill:#000000; fill-opacity:1; font-family:Arial,Helvetica Neue,Helvetica,sans-serif; font-size:107px; text-anchor:middle;" transform="rotate(0, 824.249, 2238.81)" x="824.249" y="2238.81">2</text>
</g>
<g clip-path="url(#clip6000)">
<text style="fill:#000000; fill-opacity:1; font-family:Arial,Helvetica Neue,Helvetica,sans-serif; font-size:107px; text-anchor:middle;" transform="rotate(0, 1314.16, 2238.81)" x="1314.16" y="2238.81">4</text>
</g>
<g clip-path="url(#clip6000)">
<text style="fill:#000000; fill-opacity:1; font-family:Arial,Helvetica Neue,Helvetica,sans-serif; font-size:107px; text-anchor:middle;" transform="rotate(0, 1804.06, 2238.81)" x="1804.06" y="2238.81">6</text>
</g>
<g clip-path="url(#clip6000)">
<text style="fill:#000000; fill-opacity:1; font-family:Arial,Helvetica Neue,Helvetica,sans-serif; font-size:107px; text-anchor:middle;" transform="rotate(0, 2293.97, 2238.81)" x="2293.97" y="2238.81">8</text>
</g>
<g clip-path="url(#clip6000)">
<text style="fill:#000000; fill-opacity:1; font-family:Arial,Helvetica Neue,Helvetica,sans-serif; font-size:107px; text-anchor:end;" transform="rotate(0, 227.555, 2160.21)" x="227.555" y="2160.21">0</text>
</g>
<g clip-path="url(#clip6000)">
<text style="fill:#000000; fill-opacity:1; font-family:Arial,Helvetica Neue,Helvetica,sans-serif; font-size:107px; text-anchor:end;" transform="rotate(0, 227.555, 1732.64)" x="227.555" y="1732.64">1</text>
</g>
<g clip-path="url(#clip6000)">
<text style="fill:#000000; fill-opacity:1; font-family:Arial,Helvetica Neue,Helvetica,sans-serif; font-size:107px; text-anchor:end;" transform="rotate(0, 227.555, 1305.06)" x="227.555" y="1305.06">2</text>
</g>
<g clip-path="url(#clip6000)">
<text style="fill:#000000; fill-opacity:1; font-family:Arial,Helvetica Neue,Helvetica,sans-serif; font-size:107px; text-anchor:end;" transform="rotate(0, 227.555, 877.487)" x="227.555" y="877.487">3</text>
</g>
<g clip-path="url(#clip6000)">
<text style="fill:#000000; fill-opacity:1; font-family:Arial,Helvetica Neue,Helvetica,sans-serif; font-size:107px; text-anchor:end;" transform="rotate(0, 227.555, 449.912)" x="227.555" y="449.912">4</text>
</g>
<g clip-path="url(#clip6000)">
<text style="fill:#000000; fill-opacity:1; font-family:Arial,Helvetica Neue,Helvetica,sans-serif; font-size:189px; text-anchor:middle;" transform="rotate(0, 1314.16, 165.6)" x="1314.16" y="165.6">Normal patient 30 mcg (6 patients)</text>
</g>
<g clip-path="url(#clip6000)">
<text style="fill:#000000; fill-opacity:1; font-family:Arial,Helvetica Neue,Helvetica,sans-serif; font-size:143px; text-anchor:middle;" transform="rotate(0, 1314.16, 2412.48)" x="1314.16" y="2412.48">Time (hours)</text>
</g>
<g clip-path="url(#clip6000)">
<text style="fill:#000000; fill-opacity:1; font-family:Arial,Helvetica Neue,Helvetica,sans-serif; font-size:143px; text-anchor:middle;" transform="rotate(-90, 93.2404, 1159.17)" x="93.2404" y="1159.17">T3 mcg/L</text>
</g>
<path clip-path="url(#clip6002)" d="
M334.344 1850.31 L358.839 1798.87 L383.334 1698.71 L407.829 1599.34 L432.325 1510.97 L456.82 1434.45 L481.315 1368.82 L505.811 1312.85 L530.306 1265.41 L554.801 1225.5 
  L579.297 1192.23 L603.792 1164.81 L628.287 1142.56 L652.782 1124.87 L677.278 1111.19 L701.773 1101.03 L726.268 1093.97 L750.764 1089.64 L775.259 1087.67 L799.754 1087.77 
  L824.249 1089.68 L848.745 1093.13 L873.24 1097.79 L897.735 1103.75 L922.231 1111.04 L946.726 1118.29 L971.221 1125.79 L995.717 1138.23 L1020.21 1147.71 L1044.71 1152.89 
  L1069.2 1168.83 L1093.7 1175.47 L1118.19 1187.17 L1142.69 1197.6 L1167.18 1208.38 L1191.68 1219.27 L1216.17 1230.01 L1240.67 1240.97 L1265.16 1251.28 L1289.66 1262.36 
  L1314.16 1272.08 L1338.65 1283.03 L1363.15 1292.53 L1387.64 1302.78 L1412.14 1312.52 L1436.63 1321.79 L1461.13 1331.52 L1485.62 1340.21 L1510.12 1349.56 L1534.61 1358.03 
  L1559.11 1366.45 L1583.6 1374.93 L1608.1 1382.91 L1632.59 1390.32 L1657.09 1398.49 L1681.58 1405.34 L1706.08 1413.03 L1730.58 1419.94 L1755.07 1426.52 L1779.57 1433.71 
  L1804.06 1439.29 L1828.56 1446.38 L1853.05 1451.71 L1877.55 1457.87 L1902.04 1463.71 L1926.54 1468.58 L1951.03 1474.9 L1975.53 1478.95 L2000.02 1484.94 L2024.52 1489.21 
  L2049.01 1493.91 L2073.51 1498.83 L2098 1502.71 L2122.5 1507.52 L2147 1511.48 L2171.49 1515.6 L2195.99 1519.53 L2220.48 1523.02 L2244.98 1526.98 L2269.47 1530.33 
  L2293.97 1533.79 L2293.97 1287.58 L2269.47 1283.95 L2244.98 1280.29 L2220.48 1276.31 L2195.99 1272.42 L2171.49 1268.31 L2147 1264.06 L2122.5 1259.84 L2098 1255.22 
  L2073.51 1250.66 L2049.01 1245.76 L2024.52 1240.91 L2000.02 1235.86 L1975.53 1230.49 L1951.03 1225.25 L1926.54 1219.47 L1902.04 1213.84 L1877.55 1207.83 L1853.05 1201.69 
  L1828.56 1195.47 L1804.06 1188.83 L1779.57 1182.22 L1755.07 1175.2 L1730.58 1168.07 L1706.08 1160.72 L1681.58 1153.06 L1657.09 1145.38 L1632.59 1137.39 L1608.1 1129.32 
  L1583.6 1121.05 L1559.11 1112.15 L1534.61 1102.95 L1510.12 1093.09 L1485.62 1084.22 L1461.13 1074.88 L1436.63 1064.52 L1412.14 1055.13 L1387.64 1044 L1363.15 1034.04 
  L1338.65 1022.84 L1314.16 1011.89 L1289.66 1001.09 L1265.16 989.143 L1240.67 978.398 L1216.17 966.052 L1191.68 954.981 L1167.18 942.578 L1142.69 931.226 L1118.19 918.796 
  L1093.7 907.604 L1069.2 894.648 L1044.71 885.07 L1020.21 870.782 L995.717 863.568 L971.221 852.866 L946.726 837.418 L922.231 832.913 L897.735 826.697 L873.24 816.617 
  L848.745 809.109 L824.249 803.893 L799.754 799.958 L775.259 797.651 L750.764 797.373 L726.268 799.312 L701.773 803.799 L677.278 811.196 L652.782 821.884 L628.287 836.307 
  L603.792 854.941 L579.297 878.325 L554.801 907.051 L530.306 941.78 L505.811 983.249 L481.315 1032.28 L456.82 1089.79 L432.325 1156.79 L407.829 1234.02 L383.334 1320.64 
  L358.839 1407.01 L334.344 1441.9  Z
  " fill="#009af9" fill-rule="evenodd" fill-opacity="0.3"/>
<polyline clip-path="url(#clip6002)" style="stroke:#009af9; stroke-width:4; stroke-opacity:1; fill:none" points="
  334.344,1646.1 358.839,1602.94 383.334,1509.68 407.829,1416.68 432.325,1333.88 456.82,1262.12 481.315,1200.55 505.811,1148.05 530.306,1103.6 554.801,1066.28 
  579.297,1035.28 603.792,1009.88 628.287,989.435 652.782,973.376 677.278,961.191 701.773,952.415 726.268,946.644 750.764,943.504 775.259,942.66 799.754,943.863 
  824.249,946.787 848.745,951.119 873.24,957.204 897.735,965.222 922.231,971.977 946.726,977.855 971.221,989.326 995.717,1000.9 1020.21,1009.24 1044.71,1018.98 
  1069.2,1031.74 1093.7,1041.54 1118.19,1052.98 1142.69,1064.41 1167.18,1075.48 1191.68,1087.12 1216.17,1098.03 1240.67,1109.69 1265.16,1120.21 1289.66,1131.72 
  1314.16,1141.99 1338.65,1152.94 1363.15,1163.29 1387.64,1173.39 1412.14,1183.83 1436.63,1193.16 1461.13,1203.2 1485.62,1212.22 1510.12,1221.32 1534.61,1230.49 
  1559.11,1239.3 1583.6,1247.99 1608.1,1256.12 1632.59,1263.85 1657.09,1271.93 1681.58,1279.2 1706.08,1286.87 1730.58,1294.01 1755.07,1300.86 1779.57,1307.97 
  1804.06,1314.06 1828.56,1320.93 1853.05,1326.7 1877.55,1332.85 1902.04,1338.78 1926.54,1344.02 1951.03,1350.08 1975.53,1354.72 2000.02,1360.4 2024.52,1365.06 
  2049.01,1369.84 2073.51,1374.74 2098,1378.96 2122.5,1383.68 2147,1387.77 2171.49,1391.96 2195.99,1395.98 2220.48,1399.66 2244.98,1403.63 2269.47,1407.14 
  2293.97,1410.68 
  "/>
<polyline clip-path="url(#clip6002)" style="stroke:#e26f46; stroke-width:4; stroke-opacity:1; fill:none" points="
  334.344,1646.1 456.82,1503.22 579.297,1183.9 824.249,983.72 1069.2,1103.44 1314.16,1237.91 1559.11,1356.28 1804.06,1420.2 2049.01,1441.01 2293.97,1461.75 
  
  "/>
<polyline clip-path="url(#clip6002)" style="stroke:#e26f46; stroke-width:4; stroke-opacity:1; fill:none" points="
  334.344,1850.31 334.344,1441.9 
  "/>
<polyline clip-path="url(#clip6002)" style="stroke:#e26f46; stroke-width:4; stroke-opacity:1; fill:none" points="
  456.82,1801.07 456.82,1205.37 
  "/>
<polyline clip-path="url(#clip6002)" style="stroke:#e26f46; stroke-width:4; stroke-opacity:1; fill:none" points="
  579.297,1575.78 579.297,792.014 
  "/>
<polyline clip-path="url(#clip6002)" style="stroke:#e26f46; stroke-width:4; stroke-opacity:1; fill:none" points="
  824.249,1284.09 824.249,683.352 
  "/>
<polyline clip-path="url(#clip6002)" style="stroke:#e26f46; stroke-width:4; stroke-opacity:1; fill:none" points="
  1069.2,1424.53 1069.2,782.348 
  "/>
<polyline clip-path="url(#clip6002)" style="stroke:#e26f46; stroke-width:4; stroke-opacity:1; fill:none" points="
  1314.16,1512.26 1314.16,963.569 
  "/>
<polyline clip-path="url(#clip6002)" style="stroke:#e26f46; stroke-width:4; stroke-opacity:1; fill:none" points="
  1559.11,1625.58 1559.11,1086.98 
  "/>
<polyline clip-path="url(#clip6002)" style="stroke:#e26f46; stroke-width:4; stroke-opacity:1; fill:none" points="
  1804.06,1683.87 1804.06,1156.53 
  "/>
<polyline clip-path="url(#clip6002)" style="stroke:#e26f46; stroke-width:4; stroke-opacity:1; fill:none" points="
  2049.01,1708.38 2049.01,1173.65 
  "/>
<polyline clip-path="url(#clip6002)" style="stroke:#e26f46; stroke-width:4; stroke-opacity:1; fill:none" points="
  2293.97,1748.13 2293.97,1175.36 
  "/>
<line clip-path="url(#clip6002)" x1="354.344" y1="1850.31" x2="314.344" y2="1850.31" style="stroke:#000000; stroke-width:4; stroke-opacity:1"/>
<line clip-path="url(#clip6002)" x1="354.344" y1="1441.9" x2="314.344" y2="1441.9" style="stroke:#000000; stroke-width:4; stroke-opacity:1"/>
<line clip-path="url(#clip6002)" x1="476.82" y1="1801.07" x2="436.82" y2="1801.07" style="stroke:#000000; stroke-width:4; stroke-opacity:1"/>
<line clip-path="url(#clip6002)" x1="476.82" y1="1205.37" x2="436.82" y2="1205.37" style="stroke:#000000; stroke-width:4; stroke-opacity:1"/>
<line clip-path="url(#clip6002)" x1="599.297" y1="1575.78" x2="559.297" y2="1575.78" style="stroke:#000000; stroke-width:4; stroke-opacity:1"/>
<line clip-path="url(#clip6002)" x1="599.297" y1="792.014" x2="559.297" y2="792.014" style="stroke:#000000; stroke-width:4; stroke-opacity:1"/>
<line clip-path="url(#clip6002)" x1="844.249" y1="1284.09" x2="804.249" y2="1284.09" style="stroke:#000000; stroke-width:4; stroke-opacity:1"/>
<line clip-path="url(#clip6002)" x1="844.249" y1="683.352" x2="804.249" y2="683.352" style="stroke:#000000; stroke-width:4; stroke-opacity:1"/>
<line clip-path="url(#clip6002)" x1="1089.2" y1="1424.53" x2="1049.2" y2="1424.53" style="stroke:#000000; stroke-width:4; stroke-opacity:1"/>
<line clip-path="url(#clip6002)" x1="1089.2" y1="782.348" x2="1049.2" y2="782.348" style="stroke:#000000; stroke-width:4; stroke-opacity:1"/>
<line clip-path="url(#clip6002)" x1="1334.16" y1="1512.26" x2="1294.16" y2="1512.26" style="stroke:#000000; stroke-width:4; stroke-opacity:1"/>
<line clip-path="url(#clip6002)" x1="1334.16" y1="963.569" x2="1294.16" y2="963.569" style="stroke:#000000; stroke-width:4; stroke-opacity:1"/>
<line clip-path="url(#clip6002)" x1="1579.11" y1="1625.58" x2="1539.11" y2="1625.58" style="stroke:#000000; stroke-width:4; stroke-opacity:1"/>
<line clip-path="url(#clip6002)" x1="1579.11" y1="1086.98" x2="1539.11" y2="1086.98" style="stroke:#000000; stroke-width:4; stroke-opacity:1"/>
<line clip-path="url(#clip6002)" x1="1824.06" y1="1683.87" x2="1784.06" y2="1683.87" style="stroke:#000000; stroke-width:4; stroke-opacity:1"/>
<line clip-path="url(#clip6002)" x1="1824.06" y1="1156.53" x2="1784.06" y2="1156.53" style="stroke:#000000; stroke-width:4; stroke-opacity:1"/>
<line clip-path="url(#clip6002)" x1="2069.01" y1="1708.38" x2="2029.01" y2="1708.38" style="stroke:#000000; stroke-width:4; stroke-opacity:1"/>
<line clip-path="url(#clip6002)" x1="2069.01" y1="1173.65" x2="2029.01" y2="1173.65" style="stroke:#000000; stroke-width:4; stroke-opacity:1"/>
<line clip-path="url(#clip6002)" x1="2313.97" y1="1748.13" x2="2273.97" y2="1748.13" style="stroke:#000000; stroke-width:4; stroke-opacity:1"/>
<line clip-path="url(#clip6002)" x1="2313.97" y1="1175.36" x2="2273.97" y2="1175.36" style="stroke:#000000; stroke-width:4; stroke-opacity:1"/>
<path clip-path="url(#clip6000)" d="
M1241.29 757.285 L2208.76 757.285 L2208.76 349.045 L1241.29 349.045  Z
  " fill="#ffffff" fill-rule="evenodd" fill-opacity="1"/>
<polyline clip-path="url(#clip6000)" style="stroke:#000000; stroke-width:4; stroke-opacity:1; fill:none" points="
  1241.29,757.285 2208.76,757.285 2208.76,349.045 1241.29,349.045 1241.29,757.285 
  "/>
<polyline clip-path="url(#clip6000)" style="stroke:#009af9; stroke-width:4; stroke-opacity:1; fill:none" points="
  1289.29,485.125 1577.29,485.125 
  "/>
<g clip-path="url(#clip6000)">
<text style="fill:#000000; fill-opacity:1; font-family:Arial,Helvetica Neue,Helvetica,sans-serif; font-size:107px; text-anchor:start;" transform="rotate(0, 1625.29, 524.125)" x="1625.29" y="524.125">simulation</text>
</g>
<polyline clip-path="url(#clip6000)" style="stroke:#e26f46; stroke-width:4; stroke-opacity:1; fill:none" points="
  1289.29,621.205 1577.29,621.205 
  "/>
<g clip-path="url(#clip6000)">
<text style="fill:#000000; fill-opacity:1; font-family:Arial,Helvetica Neue,Helvetica,sans-serif; font-size:107px; text-anchor:start;" transform="rotate(0, 1625.29, 660.205)" x="1625.29" y="660.205">data</text>
</g>
<path clip-path="url(#clip6000)" d="
M2675.55 2121.21 L4752.76 2121.21 L4752.76 197.125 L2675.55 197.125  Z
  " fill="#ffffff" fill-rule="evenodd" fill-opacity="1"/>
<defs>
  <clipPath id="clip6003">
    <rect x="2675" y="197" width="2078" height="1925"/>
  </clipPath>
</defs>
<polyline clip-path="url(#clip6003)" style="stroke:#000000; stroke-width:2; stroke-opacity:0.1; fill:none" points="
  2734.34,2121.21 2734.34,197.125 
  "/>
<polyline clip-path="url(#clip6003)" style="stroke:#000000; stroke-width:2; stroke-opacity:0.1; fill:none" points="
  3224.25,2121.21 3224.25,197.125 
  "/>
<polyline clip-path="url(#clip6003)" style="stroke:#000000; stroke-width:2; stroke-opacity:0.1; fill:none" points="
  3714.16,2121.21 3714.16,197.125 
  "/>
<polyline clip-path="url(#clip6003)" style="stroke:#000000; stroke-width:2; stroke-opacity:0.1; fill:none" points="
  4204.06,2121.21 4204.06,197.125 
  "/>
<polyline clip-path="url(#clip6003)" style="stroke:#000000; stroke-width:2; stroke-opacity:0.1; fill:none" points="
  4693.97,2121.21 4693.97,197.125 
  "/>
<polyline clip-path="url(#clip6003)" style="stroke:#000000; stroke-width:2; stroke-opacity:0.1; fill:none" points="
  2675.55,2121.21 4752.76,2121.21 
  "/>
<polyline clip-path="url(#clip6003)" style="stroke:#000000; stroke-width:2; stroke-opacity:0.1; fill:none" points="
  2675.55,1693.64 4752.76,1693.64 
  "/>
<polyline clip-path="url(#clip6003)" style="stroke:#000000; stroke-width:2; stroke-opacity:0.1; fill:none" points="
  2675.55,1266.06 4752.76,1266.06 
  "/>
<polyline clip-path="url(#clip6003)" style="stroke:#000000; stroke-width:2; stroke-opacity:0.1; fill:none" points="
  2675.55,838.487 4752.76,838.487 
  "/>
<polyline clip-path="url(#clip6003)" style="stroke:#000000; stroke-width:2; stroke-opacity:0.1; fill:none" points="
  2675.55,410.912 4752.76,410.912 
  "/>
<polyline clip-path="url(#clip6000)" style="stroke:#000000; stroke-width:4; stroke-opacity:1; fill:none" points="
  2675.55,2121.21 4752.76,2121.21 
  "/>
<polyline clip-path="url(#clip6000)" style="stroke:#000000; stroke-width:4; stroke-opacity:1; fill:none" points="
  2675.55,2121.21 2675.55,197.125 
  "/>
<polyline clip-path="url(#clip6000)" style="stroke:#000000; stroke-width:4; stroke-opacity:1; fill:none" points="
  2734.34,2121.21 2734.34,2098.12 
  "/>
<polyline clip-path="url(#clip6000)" style="stroke:#000000; stroke-width:4; stroke-opacity:1; fill:none" points="
  3224.25,2121.21 3224.25,2098.12 
  "/>
<polyline clip-path="url(#clip6000)" style="stroke:#000000; stroke-width:4; stroke-opacity:1; fill:none" points="
  3714.16,2121.21 3714.16,2098.12 
  "/>
<polyline clip-path="url(#clip6000)" style="stroke:#000000; stroke-width:4; stroke-opacity:1; fill:none" points="
  4204.06,2121.21 4204.06,2098.12 
  "/>
<polyline clip-path="url(#clip6000)" style="stroke:#000000; stroke-width:4; stroke-opacity:1; fill:none" points="
  4693.97,2121.21 4693.97,2098.12 
  "/>
<polyline clip-path="url(#clip6000)" style="stroke:#000000; stroke-width:4; stroke-opacity:1; fill:none" points="
  2675.55,2121.21 2700.48,2121.21 
  "/>
<polyline clip-path="url(#clip6000)" style="stroke:#000000; stroke-width:4; stroke-opacity:1; fill:none" points="
  2675.55,1693.64 2700.48,1693.64 
  "/>
<polyline clip-path="url(#clip6000)" style="stroke:#000000; stroke-width:4; stroke-opacity:1; fill:none" points="
  2675.55,1266.06 2700.48,1266.06 
  "/>
<polyline clip-path="url(#clip6000)" style="stroke:#000000; stroke-width:4; stroke-opacity:1; fill:none" points="
  2675.55,838.487 2700.48,838.487 
  "/>
<polyline clip-path="url(#clip6000)" style="stroke:#000000; stroke-width:4; stroke-opacity:1; fill:none" points="
  2675.55,410.912 2700.48,410.912 
  "/>
<g clip-path="url(#clip6000)">
<text style="fill:#000000; fill-opacity:1; font-family:Arial,Helvetica Neue,Helvetica,sans-serif; font-size:107px; text-anchor:middle;" transform="rotate(0, 2734.34, 2238.81)" x="2734.34" y="2238.81">0</text>
</g>
<g clip-path="url(#clip6000)">
<text style="fill:#000000; fill-opacity:1; font-family:Arial,Helvetica Neue,Helvetica,sans-serif; font-size:107px; text-anchor:middle;" transform="rotate(0, 3224.25, 2238.81)" x="3224.25" y="2238.81">2</text>
</g>
<g clip-path="url(#clip6000)">
<text style="fill:#000000; fill-opacity:1; font-family:Arial,Helvetica Neue,Helvetica,sans-serif; font-size:107px; text-anchor:middle;" transform="rotate(0, 3714.16, 2238.81)" x="3714.16" y="2238.81">4</text>
</g>
<g clip-path="url(#clip6000)">
<text style="fill:#000000; fill-opacity:1; font-family:Arial,Helvetica Neue,Helvetica,sans-serif; font-size:107px; text-anchor:middle;" transform="rotate(0, 4204.06, 2238.81)" x="4204.06" y="2238.81">6</text>
</g>
<g clip-path="url(#clip6000)">
<text style="fill:#000000; fill-opacity:1; font-family:Arial,Helvetica Neue,Helvetica,sans-serif; font-size:107px; text-anchor:middle;" transform="rotate(0, 4693.97, 2238.81)" x="4693.97" y="2238.81">8</text>
</g>
<g clip-path="url(#clip6000)">
<text style="fill:#000000; fill-opacity:1; font-family:Arial,Helvetica Neue,Helvetica,sans-serif; font-size:107px; text-anchor:end;" transform="rotate(0, 2627.55, 2160.21)" x="2627.55" y="2160.21">0</text>
</g>
<g clip-path="url(#clip6000)">
<text style="fill:#000000; fill-opacity:1; font-family:Arial,Helvetica Neue,Helvetica,sans-serif; font-size:107px; text-anchor:end;" transform="rotate(0, 2627.55, 1732.64)" x="2627.55" y="1732.64">1</text>
</g>
<g clip-path="url(#clip6000)">
<text style="fill:#000000; fill-opacity:1; font-family:Arial,Helvetica Neue,Helvetica,sans-serif; font-size:107px; text-anchor:end;" transform="rotate(0, 2627.55, 1305.06)" x="2627.55" y="1305.06">2</text>
</g>
<g clip-path="url(#clip6000)">
<text style="fill:#000000; fill-opacity:1; font-family:Arial,Helvetica Neue,Helvetica,sans-serif; font-size:107px; text-anchor:end;" transform="rotate(0, 2627.55, 877.487)" x="2627.55" y="877.487">3</text>
</g>
<g clip-path="url(#clip6000)">
<text style="fill:#000000; fill-opacity:1; font-family:Arial,Helvetica Neue,Helvetica,sans-serif; font-size:107px; text-anchor:end;" transform="rotate(0, 2627.55, 449.912)" x="2627.55" y="449.912">4</text>
</g>
<g clip-path="url(#clip6000)">
<text style="fill:#000000; fill-opacity:1; font-family:Arial,Helvetica Neue,Helvetica,sans-serif; font-size:189px; text-anchor:middle;" transform="rotate(0, 3714.16, 165.6)" x="3714.16" y="165.6">Normal patient 45 mcg (3 patients)</text>
</g>
<g clip-path="url(#clip6000)">
<text style="fill:#000000; fill-opacity:1; font-family:Arial,Helvetica Neue,Helvetica,sans-serif; font-size:143px; text-anchor:middle;" transform="rotate(0, 3714.16, 2412.48)" x="3714.16" y="2412.48">Time (hours)</text>
</g>
<g clip-path="url(#clip6000)">
<text style="fill:#000000; fill-opacity:1; font-family:Arial,Helvetica Neue,Helvetica,sans-serif; font-size:143px; text-anchor:middle;" transform="rotate(-90, 2493.24, 1159.17)" x="2493.24" y="1159.17">T3 mcg/L</text>
</g>
<path clip-path="url(#clip6003)" d="
M2734.34 1864.36 L2758.84 1796.67 L2783.33 1665.07 L2807.83 1533.13 L2832.32 1414.82 L2856.82 1311.68 L2881.32 1222.7 L2905.81 1146.44 L2930.31 1081.45 L2954.8 1026.48 
  L2979.3 980.392 L3003.79 942.185 L3028.29 910.97 L3052.78 885.943 L3077.28 866.4 L3101.77 851.69 L3126.27 841.255 L3150.76 834.581 L3175.26 831.175 L3199.75 830.71 
  L3224.25 832.731 L3248.74 836.75 L3273.24 842.993 L3297.74 851.267 L3322.23 858.859 L3346.73 867.574 L3371.22 881.001 L3395.72 896.667 L3420.21 905.139 L3444.71 921.845 
  L3469.2 933.621 L3493.7 946.931 L3518.19 966.138 L3542.69 976.01 L3567.18 995.476 L3591.68 1006.66 L3616.17 1023.71 L3640.67 1037.27 L3665.16 1051.98 L3689.66 1067.65 
  L3714.16 1080.43 L3738.65 1096.79 L3763.15 1109.2 L3787.64 1123.61 L3812.14 1138.01 L3836.63 1149.66 L3861.13 1165.16 L3885.62 1176.1 L3910.12 1189.32 L3934.61 1202.45 
  L3959.11 1212.59 L3983.6 1226.96 L4008.1 1236.21 L4032.59 1248.44 L4057.09 1260.12 L4081.58 1269.15 L4106.08 1280.67 L4130.58 1289.59 L4155.07 1299.88 L4179.57 1309.83 
  L4204.06 1318.33 L4228.56 1328.64 L4253.05 1336.3 L4277.55 1345.44 L4302.04 1353.65 L4326.54 1361.12 L4351.03 1369.99 L4375.53 1376.47 L4400.02 1384.64 L4424.52 1391.5 
  L4449.01 1398.15 L4473.51 1405.71 L4498 1411.23 L4522.5 1418.47 L4547 1424.14 L4571.49 1430.08 L4595.99 1436.47 L4620.48 1441.23 L4644.98 1447.61 L4669.47 1452.51 
  L4693.97 1457.63 L4693.97 1339.99 L4669.47 1334.9 L4644.98 1328.65 L4620.48 1324.28 L4595.99 1317.66 L4571.49 1312.33 L4547 1306.39 L4522.5 1299.72 L4498 1294.47 
  L4473.51 1286.79 L4449.01 1280.93 L4424.52 1273.55 L4400.02 1266.24 L4375.53 1259.76 L4351.03 1251.04 L4326.54 1244.41 L4302.04 1235.43 L4277.55 1227.37 L4253.05 1219.32 
  L4228.56 1209.53 L4204.06 1201.84 L4179.57 1191.15 L4155.07 1182.23 L4130.58 1172.27 L4106.08 1161.38 L4081.58 1152.27 L4057.09 1139.75 L4032.59 1129.97 L4008.1 1117.68 
  L3983.6 1105.78 L3959.11 1094.82 L3934.61 1080.58 L3910.12 1069.81 L3885.62 1055.09 L3861.13 1042.09 L3836.63 1029.14 L3812.14 1013.47 L3787.64 1000.99 L3763.15 984.935 
  L3738.65 970.313 L3714.16 955.765 L3689.66 939.183 L3665.16 924.903 L3640.67 907.896 L3616.17 892.706 L3591.68 876.25 L3567.18 860.358 L3542.69 844.671 L3518.19 828.046 
  L3493.7 815.115 L3469.2 793.372 L3444.71 790.695 L3420.21 763.78 L3395.72 741.152 L3371.22 736.363 L3346.73 725.054 L3322.23 711.35 L3297.74 700.15 L3273.24 691.839 
  L3248.74 684.234 L3224.25 678.435 L3199.75 675.049 L3175.26 674.288 L3150.76 676.524 L3126.27 682.259 L3101.77 691.952 L3077.28 706.169 L3052.78 725.526 L3028.29 750.706 
  L3003.79 782.485 L2979.3 821.717 L2954.8 869.365 L2930.31 926.511 L2905.81 994.365 L2881.32 1074.3 L2856.82 1167.82 L2832.32 1276.57 L2807.83 1401.67 L2783.33 1541.47 
  L2758.84 1680.72 L2734.34 1748.67  Z
  " fill="#009af9" fill-rule="evenodd" fill-opacity="0.3"/>
<polyline clip-path="url(#clip6003)" style="stroke:#009af9; stroke-width:4; stroke-opacity:1; fill:none" points="
  2734.34,1806.52 2758.84,1738.7 2783.33,1603.27 2807.83,1467.4 2832.32,1345.69 2856.82,1239.75 2881.32,1148.5 2905.81,1070.4 2930.31,1003.98 2954.8,947.922 
  2979.3,901.054 3003.79,862.335 3028.29,830.838 3052.78,805.734 3077.28,786.285 3101.77,771.821 3126.27,761.757 3150.76,755.553 3175.26,752.731 3199.75,752.88 
  3224.25,755.583 3248.74,760.492 3273.24,767.416 3297.74,775.708 3322.23,785.105 3346.73,796.314 3371.22,808.682 3395.72,818.91 3420.21,834.46 3444.71,856.27 
  3469.2,863.496 3493.7,881.023 3518.19,897.092 3542.69,910.341 3567.18,927.917 3591.68,941.456 3616.17,958.209 3640.67,972.585 3665.16,988.444 3689.66,1003.42 
  3714.16,1018.09 3738.65,1033.55 3763.15,1047.07 3787.64,1062.3 3812.14,1075.74 3836.63,1089.4 3861.13,1103.63 3885.62,1115.59 3910.12,1129.56 3934.61,1141.52 
  3959.11,1153.71 3983.6,1166.37 4008.1,1176.94 4032.59,1189.2 4057.09,1199.94 4081.58,1210.71 4106.08,1221.03 4130.58,1230.93 4155.07,1241.05 4179.57,1250.49 
  4204.06,1260.08 4228.56,1269.08 4253.05,1277.81 4277.55,1286.4 4302.04,1294.54 4326.54,1302.76 4351.03,1310.51 4375.53,1318.11 4400.02,1325.44 4424.52,1332.53 
  4449.01,1339.54 4473.51,1346.25 4498,1352.85 4522.5,1359.09 4547,1365.27 4571.49,1371.2 4595.99,1377.06 4620.48,1382.75 4644.98,1388.13 4669.47,1393.7 
  4693.97,1398.81 
  "/>
<polyline clip-path="url(#clip6003)" style="stroke:#e26f46; stroke-width:4; stroke-opacity:1; fill:none" points="
  2734.34,1806.52 2856.82,1704.9 2979.3,1339.6 3224.25,861.718 3469.2,994.837 3714.16,1108.29 3959.11,1164.73 4204.06,1373.1 4449.01,1396.04 4693.97,1472.01 
  
  "/>
<polyline clip-path="url(#clip6003)" style="stroke:#e26f46; stroke-width:4; stroke-opacity:1; fill:none" points="
  2734.34,1864.36 2734.34,1748.67 
  "/>
<polyline clip-path="url(#clip6003)" style="stroke:#e26f46; stroke-width:4; stroke-opacity:1; fill:none" points="
  2856.82,1748.22 2856.82,1661.57 
  "/>
<polyline clip-path="url(#clip6003)" style="stroke:#e26f46; stroke-width:4; stroke-opacity:1; fill:none" points="
  2979.3,1643.08 2979.3,1036.13 
  "/>
<polyline clip-path="url(#clip6003)" style="stroke:#e26f46; stroke-width:4; stroke-opacity:1; fill:none" points="
  3224.25,1311.32 3224.25,412.117 
  "/>
<polyline clip-path="url(#clip6003)" style="stroke:#e26f46; stroke-width:4; stroke-opacity:1; fill:none" points="
  3469.2,1406.02 3469.2,583.657 
  "/>
<polyline clip-path="url(#clip6003)" style="stroke:#e26f46; stroke-width:4; stroke-opacity:1; fill:none" points="
  3714.16,1426.1 3714.16,790.471 
  "/>
<polyline clip-path="url(#clip6003)" style="stroke:#e26f46; stroke-width:4; stroke-opacity:1; fill:none" points="
  3959.11,1386.72 3959.11,942.734 
  "/>
<polyline clip-path="url(#clip6003)" style="stroke:#e26f46; stroke-width:4; stroke-opacity:1; fill:none" points="
  4204.06,1515.32 4204.06,1230.87 
  "/>
<polyline clip-path="url(#clip6003)" style="stroke:#e26f46; stroke-width:4; stroke-opacity:1; fill:none" points="
  4449.01,1558.81 4449.01,1233.28 
  "/>
<polyline clip-path="url(#clip6003)" style="stroke:#e26f46; stroke-width:4; stroke-opacity:1; fill:none" points="
  4693.97,1603.64 4693.97,1340.38 
  "/>
<line clip-path="url(#clip6003)" x1="2754.34" y1="1864.36" x2="2714.34" y2="1864.36" style="stroke:#000000; stroke-width:4; stroke-opacity:1"/>
<line clip-path="url(#clip6003)" x1="2754.34" y1="1748.67" x2="2714.34" y2="1748.67" style="stroke:#000000; stroke-width:4; stroke-opacity:1"/>
<line clip-path="url(#clip6003)" x1="2876.82" y1="1748.22" x2="2836.82" y2="1748.22" style="stroke:#000000; stroke-width:4; stroke-opacity:1"/>
<line clip-path="url(#clip6003)" x1="2876.82" y1="1661.57" x2="2836.82" y2="1661.57" style="stroke:#000000; stroke-width:4; stroke-opacity:1"/>
<line clip-path="url(#clip6003)" x1="2999.3" y1="1643.08" x2="2959.3" y2="1643.08" style="stroke:#000000; stroke-width:4; stroke-opacity:1"/>
<line clip-path="url(#clip6003)" x1="2999.3" y1="1036.13" x2="2959.3" y2="1036.13" style="stroke:#000000; stroke-width:4; stroke-opacity:1"/>
<line clip-path="url(#clip6003)" x1="3244.25" y1="1311.32" x2="3204.25" y2="1311.32" style="stroke:#000000; stroke-width:4; stroke-opacity:1"/>
<line clip-path="url(#clip6003)" x1="3244.25" y1="412.117" x2="3204.25" y2="412.117" style="stroke:#000000; stroke-width:4; stroke-opacity:1"/>
<line clip-path="url(#clip6003)" x1="3489.2" y1="1406.02" x2="3449.2" y2="1406.02" style="stroke:#000000; stroke-width:4; stroke-opacity:1"/>
<line clip-path="url(#clip6003)" x1="3489.2" y1="583.657" x2="3449.2" y2="583.657" style="stroke:#000000; stroke-width:4; stroke-opacity:1"/>
<line clip-path="url(#clip6003)" x1="3734.16" y1="1426.1" x2="3694.16" y2="1426.1" style="stroke:#000000; stroke-width:4; stroke-opacity:1"/>
<line clip-path="url(#clip6003)" x1="3734.16" y1="790.471" x2="3694.16" y2="790.471" style="stroke:#000000; stroke-width:4; stroke-opacity:1"/>
<line clip-path="url(#clip6003)" x1="3979.11" y1="1386.72" x2="3939.11" y2="1386.72" style="stroke:#000000; stroke-width:4; stroke-opacity:1"/>
<line clip-path="url(#clip6003)" x1="3979.11" y1="942.734" x2="3939.11" y2="942.734" style="stroke:#000000; stroke-width:4; stroke-opacity:1"/>
<line clip-path="url(#clip6003)" x1="4224.06" y1="1515.32" x2="4184.06" y2="1515.32" style="stroke:#000000; stroke-width:4; stroke-opacity:1"/>
<line clip-path="url(#clip6003)" x1="4224.06" y1="1230.87" x2="4184.06" y2="1230.87" style="stroke:#000000; stroke-width:4; stroke-opacity:1"/>
<line clip-path="url(#clip6003)" x1="4469.01" y1="1558.81" x2="4429.01" y2="1558.81" style="stroke:#000000; stroke-width:4; stroke-opacity:1"/>
<line clip-path="url(#clip6003)" x1="4469.01" y1="1233.28" x2="4429.01" y2="1233.28" style="stroke:#000000; stroke-width:4; stroke-opacity:1"/>
<line clip-path="url(#clip6003)" x1="4713.97" y1="1603.64" x2="4673.97" y2="1603.64" style="stroke:#000000; stroke-width:4; stroke-opacity:1"/>
<line clip-path="url(#clip6003)" x1="4713.97" y1="1340.38" x2="4673.97" y2="1340.38" style="stroke:#000000; stroke-width:4; stroke-opacity:1"/>
<path clip-path="url(#clip6000)" d="
M3641.29 757.285 L4608.76 757.285 L4608.76 349.045 L3641.29 349.045  Z
  " fill="#ffffff" fill-rule="evenodd" fill-opacity="1"/>
<polyline clip-path="url(#clip6000)" style="stroke:#000000; stroke-width:4; stroke-opacity:1; fill:none" points="
  3641.29,757.285 4608.76,757.285 4608.76,349.045 3641.29,349.045 3641.29,757.285 
  "/>
<polyline clip-path="url(#clip6000)" style="stroke:#009af9; stroke-width:4; stroke-opacity:1; fill:none" points="
  3689.29,485.125 3977.29,485.125 
  "/>
<g clip-path="url(#clip6000)">
<text style="fill:#000000; fill-opacity:1; font-family:Arial,Helvetica Neue,Helvetica,sans-serif; font-size:107px; text-anchor:start;" transform="rotate(0, 4025.29, 524.125)" x="4025.29" y="524.125">simulation</text>
</g>
<polyline clip-path="url(#clip6000)" style="stroke:#e26f46; stroke-width:4; stroke-opacity:1; fill:none" points="
  3689.29,621.205 3977.29,621.205 
  "/>
<g clip-path="url(#clip6000)">
<text style="fill:#000000; fill-opacity:1; font-family:Arial,Helvetica Neue,Helvetica,sans-serif; font-size:107px; text-anchor:start;" transform="rotate(0, 4025.29, 660.205)" x="4025.29" y="660.205">data</text>
</g>
<path clip-path="url(#clip6000)" d="
M275.555 4521.21 L2352.76 4521.21 L2352.76 2597.12 L275.555 2597.12  Z
  " fill="#ffffff" fill-rule="evenodd" fill-opacity="1"/>
<defs>
  <clipPath id="clip6004">
    <rect x="275" y="2597" width="2078" height="1925"/>
  </clipPath>
</defs>
<polyline clip-path="url(#clip6004)" style="stroke:#000000; stroke-width:2; stroke-opacity:0.1; fill:none" points="
  334.344,4521.21 334.344,2597.12 
  "/>
<polyline clip-path="url(#clip6004)" style="stroke:#000000; stroke-width:2; stroke-opacity:0.1; fill:none" points="
  824.249,4521.21 824.249,2597.12 
  "/>
<polyline clip-path="url(#clip6004)" style="stroke:#000000; stroke-width:2; stroke-opacity:0.1; fill:none" points="
  1314.16,4521.21 1314.16,2597.12 
  "/>
<polyline clip-path="url(#clip6004)" style="stroke:#000000; stroke-width:2; stroke-opacity:0.1; fill:none" points="
  1804.06,4521.21 1804.06,2597.12 
  "/>
<polyline clip-path="url(#clip6004)" style="stroke:#000000; stroke-width:2; stroke-opacity:0.1; fill:none" points="
  2293.97,4521.21 2293.97,2597.12 
  "/>
<polyline clip-path="url(#clip6004)" style="stroke:#000000; stroke-width:2; stroke-opacity:0.1; fill:none" points="
  275.555,4521.21 2352.76,4521.21 
  "/>
<polyline clip-path="url(#clip6004)" style="stroke:#000000; stroke-width:2; stroke-opacity:0.1; fill:none" points="
  275.555,4093.64 2352.76,4093.64 
  "/>
<polyline clip-path="url(#clip6004)" style="stroke:#000000; stroke-width:2; stroke-opacity:0.1; fill:none" points="
  275.555,3666.06 2352.76,3666.06 
  "/>
<polyline clip-path="url(#clip6004)" style="stroke:#000000; stroke-width:2; stroke-opacity:0.1; fill:none" points="
  275.555,3238.49 2352.76,3238.49 
  "/>
<polyline clip-path="url(#clip6004)" style="stroke:#000000; stroke-width:2; stroke-opacity:0.1; fill:none" points="
  275.555,2810.91 2352.76,2810.91 
  "/>
<polyline clip-path="url(#clip6000)" style="stroke:#000000; stroke-width:4; stroke-opacity:1; fill:none" points="
  275.555,4521.21 2352.76,4521.21 
  "/>
<polyline clip-path="url(#clip6000)" style="stroke:#000000; stroke-width:4; stroke-opacity:1; fill:none" points="
  275.555,4521.21 275.555,2597.12 
  "/>
<polyline clip-path="url(#clip6000)" style="stroke:#000000; stroke-width:4; stroke-opacity:1; fill:none" points="
  334.344,4521.21 334.344,4498.12 
  "/>
<polyline clip-path="url(#clip6000)" style="stroke:#000000; stroke-width:4; stroke-opacity:1; fill:none" points="
  824.249,4521.21 824.249,4498.12 
  "/>
<polyline clip-path="url(#clip6000)" style="stroke:#000000; stroke-width:4; stroke-opacity:1; fill:none" points="
  1314.16,4521.21 1314.16,4498.12 
  "/>
<polyline clip-path="url(#clip6000)" style="stroke:#000000; stroke-width:4; stroke-opacity:1; fill:none" points="
  1804.06,4521.21 1804.06,4498.12 
  "/>
<polyline clip-path="url(#clip6000)" style="stroke:#000000; stroke-width:4; stroke-opacity:1; fill:none" points="
  2293.97,4521.21 2293.97,4498.12 
  "/>
<polyline clip-path="url(#clip6000)" style="stroke:#000000; stroke-width:4; stroke-opacity:1; fill:none" points="
  275.555,4521.21 300.481,4521.21 
  "/>
<polyline clip-path="url(#clip6000)" style="stroke:#000000; stroke-width:4; stroke-opacity:1; fill:none" points="
  275.555,4093.64 300.481,4093.64 
  "/>
<polyline clip-path="url(#clip6000)" style="stroke:#000000; stroke-width:4; stroke-opacity:1; fill:none" points="
  275.555,3666.06 300.481,3666.06 
  "/>
<polyline clip-path="url(#clip6000)" style="stroke:#000000; stroke-width:4; stroke-opacity:1; fill:none" points="
  275.555,3238.49 300.481,3238.49 
  "/>
<polyline clip-path="url(#clip6000)" style="stroke:#000000; stroke-width:4; stroke-opacity:1; fill:none" points="
  275.555,2810.91 300.481,2810.91 
  "/>
<g clip-path="url(#clip6000)">
<text style="fill:#000000; fill-opacity:1; font-family:Arial,Helvetica Neue,Helvetica,sans-serif; font-size:107px; text-anchor:middle;" transform="rotate(0, 334.344, 4638.81)" x="334.344" y="4638.81">0</text>
</g>
<g clip-path="url(#clip6000)">
<text style="fill:#000000; fill-opacity:1; font-family:Arial,Helvetica Neue,Helvetica,sans-serif; font-size:107px; text-anchor:middle;" transform="rotate(0, 824.249, 4638.81)" x="824.249" y="4638.81">2</text>
</g>
<g clip-path="url(#clip6000)">
<text style="fill:#000000; fill-opacity:1; font-family:Arial,Helvetica Neue,Helvetica,sans-serif; font-size:107px; text-anchor:middle;" transform="rotate(0, 1314.16, 4638.81)" x="1314.16" y="4638.81">4</text>
</g>
<g clip-path="url(#clip6000)">
<text style="fill:#000000; fill-opacity:1; font-family:Arial,Helvetica Neue,Helvetica,sans-serif; font-size:107px; text-anchor:middle;" transform="rotate(0, 1804.06, 4638.81)" x="1804.06" y="4638.81">6</text>
</g>
<g clip-path="url(#clip6000)">
<text style="fill:#000000; fill-opacity:1; font-family:Arial,Helvetica Neue,Helvetica,sans-serif; font-size:107px; text-anchor:middle;" transform="rotate(0, 2293.97, 4638.81)" x="2293.97" y="4638.81">8</text>
</g>
<g clip-path="url(#clip6000)">
<text style="fill:#000000; fill-opacity:1; font-family:Arial,Helvetica Neue,Helvetica,sans-serif; font-size:107px; text-anchor:end;" transform="rotate(0, 227.555, 4560.21)" x="227.555" y="4560.21">0</text>
</g>
<g clip-path="url(#clip6000)">
<text style="fill:#000000; fill-opacity:1; font-family:Arial,Helvetica Neue,Helvetica,sans-serif; font-size:107px; text-anchor:end;" transform="rotate(0, 227.555, 4132.64)" x="227.555" y="4132.64">1</text>
</g>
<g clip-path="url(#clip6000)">
<text style="fill:#000000; fill-opacity:1; font-family:Arial,Helvetica Neue,Helvetica,sans-serif; font-size:107px; text-anchor:end;" transform="rotate(0, 227.555, 3705.06)" x="227.555" y="3705.06">2</text>
</g>
<g clip-path="url(#clip6000)">
<text style="fill:#000000; fill-opacity:1; font-family:Arial,Helvetica Neue,Helvetica,sans-serif; font-size:107px; text-anchor:end;" transform="rotate(0, 227.555, 3277.49)" x="227.555" y="3277.49">3</text>
</g>
<g clip-path="url(#clip6000)">
<text style="fill:#000000; fill-opacity:1; font-family:Arial,Helvetica Neue,Helvetica,sans-serif; font-size:107px; text-anchor:end;" transform="rotate(0, 227.555, 2849.91)" x="227.555" y="2849.91">4</text>
</g>
<g clip-path="url(#clip6000)">
<text style="fill:#000000; fill-opacity:1; font-family:Arial,Helvetica Neue,Helvetica,sans-serif; font-size:189px; text-anchor:middle;" transform="rotate(0, 1314.16, 2565.6)" x="1314.16" y="2565.6">Overweight patient 30 mcg (2 patients)</text>
</g>
<g clip-path="url(#clip6000)">
<text style="fill:#000000; fill-opacity:1; font-family:Arial,Helvetica Neue,Helvetica,sans-serif; font-size:143px; text-anchor:middle;" transform="rotate(0, 1314.16, 4812.48)" x="1314.16" y="4812.48">Time (hours)</text>
</g>
<g clip-path="url(#clip6000)">
<text style="fill:#000000; fill-opacity:1; font-family:Arial,Helvetica Neue,Helvetica,sans-serif; font-size:143px; text-anchor:middle;" transform="rotate(-90, 93.2404, 3559.17)" x="93.2404" y="3559.17">T3 mcg/L</text>
</g>
<path clip-path="url(#clip6004)" d="
M334.344 4178.21 L358.839 4116.67 L383.334 4012.44 L407.829 3909.58 L432.325 3832.8 L456.82 3779.19 L481.315 3733.43 L505.811 3694.67 L530.306 3662.12 L554.801 3635.06 
  L579.297 3612.88 L603.792 3595.01 L628.287 3580.96 L652.782 3570.28 L677.278 3562.57 L701.773 3557.49 L726.268 3554.7 L750.764 3553.93 L775.259 3554.92 L799.754 3557.41 
  L824.249 3561.33 L848.745 3566.39 L873.24 3572.18 L897.735 3579.02 L922.231 3587.49 L946.726 3594.88 L971.221 3602.16 L995.717 3616.01 L1020.21 3626.58 L1044.71 3630.87 
  L1069.2 3635.63 L1093.7 3651.5 L1118.19 3661.29 L1142.69 3668.12 L1167.18 3681.7 L1191.68 3688.88 L1216.17 3701.4 L1240.67 3709.22 L1265.16 3720.77 L1289.66 3729.16 
  L1314.16 3739.45 L1338.65 3748.68 L1363.15 3757.31 L1387.64 3767.38 L1412.14 3774.65 L1436.63 3784.68 L1461.13 3792.38 L1485.62 3800.51 L1510.12 3809.55 L1534.61 3815.59 
  L1559.11 3825.11 L1583.6 3831.18 L1608.1 3839.06 L1632.59 3846.49 L1657.09 3852.19 L1681.58 3860.48 L1706.08 3865.22 L1730.58 3872.96 L1755.07 3878.49 L1779.57 3884.33 
  L1804.06 3890.97 L1828.56 3895.11 L1853.05 3901.13 L1877.55 3906.99 L1902.04 3911.98 L1926.54 3917.33 L1951.03 3921.68 L1975.53 3926.43 L2000.02 3930.9 L2024.52 3935.1 
  L2049.01 3939.69 L2073.51 3943.47 L2098 3947.81 L2122.5 3951.5 L2147 3955.27 L2171.49 3959.03 L2195.99 3962.24 L2220.48 3966 L2244.98 3968.98 L2269.47 3972.26 
  L2293.97 3975.37 L2293.97 3655.76 L2269.47 3652.61 L2244.98 3649.79 L2220.48 3644.54 L2195.99 3643.11 L2171.49 3637.84 L2147 3635.01 L2122.5 3631.5 L2098 3626.66 
  L2073.51 3624.76 L2049.01 3618.71 L2024.52 3616.41 L2000.02 3611.24 L1975.53 3606.99 L1951.03 3603.76 L1926.54 3597.55 L1902.04 3595.21 L1877.55 3588.63 L1853.05 3584.97 
  L1828.56 3580.09 L1804.06 3573.95 L1779.57 3570.76 L1755.07 3563.34 L1730.58 3559.71 L1706.08 3553.03 L1681.58 3547.29 L1657.09 3542.5 L1632.59 3534.64 L1608.1 3530.9 
  L1583.6 3522.29 L1559.11 3517.13 L1534.61 3510.18 L1510.12 3502.4 L1485.62 3497.49 L1461.13 3487.97 L1436.63 3482.73 L1412.14 3474.18 L1387.64 3466.39 L1363.15 3460.05 
  L1338.65 3450.47 L1314.16 3444.42 L1289.66 3435.14 L1265.16 3427.5 L1240.67 3419.87 L1216.17 3410.69 L1191.68 3404.63 L1167.18 3394.12 L1142.69 3389.99 L1118.19 3377.77 
  L1093.7 3375.8 L1069.2 3362.35 L1044.71 3360.58 L1020.21 3350.02 L995.717 3336.9 L971.221 3343.61 L946.726 3331.55 L922.231 3324.01 L897.735 3326.12 L873.24 3323.46 
  L848.745 3321.43 L824.249 3322.36 L799.754 3324.88 L775.259 3328.8 L750.764 3335.06 L726.268 3343.81 L701.773 3355.33 L677.278 3370.1 L652.782 3388.47 L628.287 3410.96 
  L603.792 3438.07 L579.297 3470.41 L554.801 3508.63 L530.306 3553.48 L505.811 3605.78 L481.315 3666.48 L456.82 3736.65 L432.325 3817.38 L407.829 3894.85 L383.334 3964.36 
  L358.839 4032.86 L334.344 4059.09  Z
  " fill="#009af9" fill-rule="evenodd" fill-opacity="0.3"/>
<polyline clip-path="url(#clip6004)" style="stroke:#009af9; stroke-width:4; stroke-opacity:1; fill:none" points="
  334.344,4118.65 358.839,4074.76 383.334,3988.4 407.829,3902.21 432.325,3825.09 456.82,3757.92 481.315,3699.96 505.811,3650.22 530.306,3607.8 554.801,3571.85 
  579.297,3541.65 603.792,3516.54 628.287,3495.96 652.782,3479.37 677.278,3466.34 701.773,3456.41 726.268,3449.25 750.764,3444.49 775.259,3441.86 799.754,3441.15 
  824.249,3441.84 848.745,3443.91 873.24,3447.82 897.735,3452.57 922.231,3455.75 946.726,3463.21 971.221,3472.89 995.717,3476.46 1020.21,3488.3 1044.71,3495.72 
  1069.2,3498.99 1093.7,3513.65 1118.19,3519.53 1142.69,3529.06 1167.18,3537.91 1191.68,3546.76 1216.17,3556.04 1240.67,3564.54 1265.16,3574.13 1289.66,3582.15 
  1314.16,3591.93 1338.65,3599.57 1363.15,3608.68 1387.64,3616.88 1412.14,3624.41 1436.63,3633.7 1461.13,3640.17 1485.62,3649 1510.12,3655.97 1534.61,3662.88 
  1559.11,3671.12 1583.6,3676.74 1608.1,3684.98 1632.59,3690.57 1657.09,3697.35 1681.58,3703.89 1706.08,3709.13 1730.58,3716.33 1755.07,3720.91 1779.57,3727.54 
  1804.06,3732.46 1828.56,3737.6 1853.05,3743.05 1877.55,3747.81 1902.04,3753.6 1926.54,3757.44 1951.03,3762.72 1975.53,3766.71 2000.02,3771.07 2024.52,3775.76 
  2049.01,3779.2 2073.51,3784.11 2098,3787.23 2122.5,3791.5 2147,3795.14 2171.49,3798.43 2195.99,3802.68 2220.48,3805.27 2244.98,3809.38 2269.47,3812.43 
  2293.97,3815.56 
  "/>
<polyline clip-path="url(#clip6004)" style="stroke:#e26f46; stroke-width:4; stroke-opacity:1; fill:none" points="
  334.344,4118.65 456.82,4042.54 579.297,3927.74 824.249,3762.27 1069.2,3814.22 1314.16,3865.53 1559.11,3907.85 1804.06,4000.64 2049.01,4061.78 2293.97,4025.01 
  
  "/>
<polyline clip-path="url(#clip6004)" style="stroke:#e26f46; stroke-width:4; stroke-opacity:1; fill:none" points="
  334.344,4322.85 334.344,3914.45 
  "/>
<polyline clip-path="url(#clip6004)" style="stroke:#e26f46; stroke-width:4; stroke-opacity:1; fill:none" points="
  456.82,4340.39 456.82,3744.69 
  "/>
<polyline clip-path="url(#clip6004)" style="stroke:#e26f46; stroke-width:4; stroke-opacity:1; fill:none" points="
  579.297,4319.62 579.297,3535.86 
  "/>
<polyline clip-path="url(#clip6004)" style="stroke:#e26f46; stroke-width:4; stroke-opacity:1; fill:none" points="
  824.249,4062.63 824.249,3461.9 
  "/>
<polyline clip-path="url(#clip6004)" style="stroke:#e26f46; stroke-width:4; stroke-opacity:1; fill:none" points="
  1069.2,4135.31 1069.2,3493.12 
  "/>
<polyline clip-path="url(#clip6004)" style="stroke:#e26f46; stroke-width:4; stroke-opacity:1; fill:none" points="
  1314.16,4139.87 1314.16,3591.18 
  "/>
<polyline clip-path="url(#clip6004)" style="stroke:#e26f46; stroke-width:4; stroke-opacity:1; fill:none" points="
  1559.11,4177.15 1559.11,3638.56 
  "/>
<polyline clip-path="url(#clip6004)" style="stroke:#e26f46; stroke-width:4; stroke-opacity:1; fill:none" points="
  1804.06,4264.31 1804.06,3736.97 
  "/>
<polyline clip-path="url(#clip6004)" style="stroke:#e26f46; stroke-width:4; stroke-opacity:1; fill:none" points="
  2049.01,4329.15 2049.01,3794.42 
  "/>
<polyline clip-path="url(#clip6004)" style="stroke:#e26f46; stroke-width:4; stroke-opacity:1; fill:none" points="
  2293.97,4311.4 2293.97,3738.62 
  "/>
<line clip-path="url(#clip6004)" x1="354.344" y1="4322.85" x2="314.344" y2="4322.85" style="stroke:#000000; stroke-width:4; stroke-opacity:1"/>
<line clip-path="url(#clip6004)" x1="354.344" y1="3914.45" x2="314.344" y2="3914.45" style="stroke:#000000; stroke-width:4; stroke-opacity:1"/>
<line clip-path="url(#clip6004)" x1="476.82" y1="4340.39" x2="436.82" y2="4340.39" style="stroke:#000000; stroke-width:4; stroke-opacity:1"/>
<line clip-path="url(#clip6004)" x1="476.82" y1="3744.69" x2="436.82" y2="3744.69" style="stroke:#000000; stroke-width:4; stroke-opacity:1"/>
<line clip-path="url(#clip6004)" x1="599.297" y1="4319.62" x2="559.297" y2="4319.62" style="stroke:#000000; stroke-width:4; stroke-opacity:1"/>
<line clip-path="url(#clip6004)" x1="599.297" y1="3535.86" x2="559.297" y2="3535.86" style="stroke:#000000; stroke-width:4; stroke-opacity:1"/>
<line clip-path="url(#clip6004)" x1="844.249" y1="4062.63" x2="804.249" y2="4062.63" style="stroke:#000000; stroke-width:4; stroke-opacity:1"/>
<line clip-path="url(#clip6004)" x1="844.249" y1="3461.9" x2="804.249" y2="3461.9" style="stroke:#000000; stroke-width:4; stroke-opacity:1"/>
<line clip-path="url(#clip6004)" x1="1089.2" y1="4135.31" x2="1049.2" y2="4135.31" style="stroke:#000000; stroke-width:4; stroke-opacity:1"/>
<line clip-path="url(#clip6004)" x1="1089.2" y1="3493.12" x2="1049.2" y2="3493.12" style="stroke:#000000; stroke-width:4; stroke-opacity:1"/>
<line clip-path="url(#clip6004)" x1="1334.16" y1="4139.87" x2="1294.16" y2="4139.87" style="stroke:#000000; stroke-width:4; stroke-opacity:1"/>
<line clip-path="url(#clip6004)" x1="1334.16" y1="3591.18" x2="1294.16" y2="3591.18" style="stroke:#000000; stroke-width:4; stroke-opacity:1"/>
<line clip-path="url(#clip6004)" x1="1579.11" y1="4177.15" x2="1539.11" y2="4177.15" style="stroke:#000000; stroke-width:4; stroke-opacity:1"/>
<line clip-path="url(#clip6004)" x1="1579.11" y1="3638.56" x2="1539.11" y2="3638.56" style="stroke:#000000; stroke-width:4; stroke-opacity:1"/>
<line clip-path="url(#clip6004)" x1="1824.06" y1="4264.31" x2="1784.06" y2="4264.31" style="stroke:#000000; stroke-width:4; stroke-opacity:1"/>
<line clip-path="url(#clip6004)" x1="1824.06" y1="3736.97" x2="1784.06" y2="3736.97" style="stroke:#000000; stroke-width:4; stroke-opacity:1"/>
<line clip-path="url(#clip6004)" x1="2069.01" y1="4329.15" x2="2029.01" y2="4329.15" style="stroke:#000000; stroke-width:4; stroke-opacity:1"/>
<line clip-path="url(#clip6004)" x1="2069.01" y1="3794.42" x2="2029.01" y2="3794.42" style="stroke:#000000; stroke-width:4; stroke-opacity:1"/>
<line clip-path="url(#clip6004)" x1="2313.97" y1="4311.4" x2="2273.97" y2="4311.4" style="stroke:#000000; stroke-width:4; stroke-opacity:1"/>
<line clip-path="url(#clip6004)" x1="2313.97" y1="3738.62" x2="2273.97" y2="3738.62" style="stroke:#000000; stroke-width:4; stroke-opacity:1"/>
<path clip-path="url(#clip6000)" d="
M1241.29 3157.28 L2208.76 3157.28 L2208.76 2749.04 L1241.29 2749.04  Z
  " fill="#ffffff" fill-rule="evenodd" fill-opacity="1"/>
<polyline clip-path="url(#clip6000)" style="stroke:#000000; stroke-width:4; stroke-opacity:1; fill:none" points="
  1241.29,3157.28 2208.76,3157.28 2208.76,2749.04 1241.29,2749.04 1241.29,3157.28 
  "/>
<polyline clip-path="url(#clip6000)" style="stroke:#009af9; stroke-width:4; stroke-opacity:1; fill:none" points="
  1289.29,2885.12 1577.29,2885.12 
  "/>
<g clip-path="url(#clip6000)">
<text style="fill:#000000; fill-opacity:1; font-family:Arial,Helvetica Neue,Helvetica,sans-serif; font-size:107px; text-anchor:start;" transform="rotate(0, 1625.29, 2924.12)" x="1625.29" y="2924.12">simulation</text>
</g>
<polyline clip-path="url(#clip6000)" style="stroke:#e26f46; stroke-width:4; stroke-opacity:1; fill:none" points="
  1289.29,3021.2 1577.29,3021.2 
  "/>
<g clip-path="url(#clip6000)">
<text style="fill:#000000; fill-opacity:1; font-family:Arial,Helvetica Neue,Helvetica,sans-serif; font-size:107px; text-anchor:start;" transform="rotate(0, 1625.29, 3060.2)" x="1625.29" y="3060.2">data</text>
</g>
<path clip-path="url(#clip6000)" d="
M2675.55 4521.21 L4752.76 4521.21 L4752.76 2597.12 L2675.55 2597.12  Z
  " fill="#ffffff" fill-rule="evenodd" fill-opacity="1"/>
<defs>
  <clipPath id="clip6005">
    <rect x="2675" y="2597" width="2078" height="1925"/>
  </clipPath>
</defs>
<polyline clip-path="url(#clip6005)" style="stroke:#000000; stroke-width:2; stroke-opacity:0.1; fill:none" points="
  2734.34,4521.21 2734.34,2597.12 
  "/>
<polyline clip-path="url(#clip6005)" style="stroke:#000000; stroke-width:2; stroke-opacity:0.1; fill:none" points="
  3224.25,4521.21 3224.25,2597.12 
  "/>
<polyline clip-path="url(#clip6005)" style="stroke:#000000; stroke-width:2; stroke-opacity:0.1; fill:none" points="
  3714.16,4521.21 3714.16,2597.12 
  "/>
<polyline clip-path="url(#clip6005)" style="stroke:#000000; stroke-width:2; stroke-opacity:0.1; fill:none" points="
  4204.06,4521.21 4204.06,2597.12 
  "/>
<polyline clip-path="url(#clip6005)" style="stroke:#000000; stroke-width:2; stroke-opacity:0.1; fill:none" points="
  4693.97,4521.21 4693.97,2597.12 
  "/>
<polyline clip-path="url(#clip6005)" style="stroke:#000000; stroke-width:2; stroke-opacity:0.1; fill:none" points="
  2675.55,4521.21 4752.76,4521.21 
  "/>
<polyline clip-path="url(#clip6005)" style="stroke:#000000; stroke-width:2; stroke-opacity:0.1; fill:none" points="
  2675.55,4093.64 4752.76,4093.64 
  "/>
<polyline clip-path="url(#clip6005)" style="stroke:#000000; stroke-width:2; stroke-opacity:0.1; fill:none" points="
  2675.55,3666.06 4752.76,3666.06 
  "/>
<polyline clip-path="url(#clip6005)" style="stroke:#000000; stroke-width:2; stroke-opacity:0.1; fill:none" points="
  2675.55,3238.49 4752.76,3238.49 
  "/>
<polyline clip-path="url(#clip6005)" style="stroke:#000000; stroke-width:2; stroke-opacity:0.1; fill:none" points="
  2675.55,2810.91 4752.76,2810.91 
  "/>
<polyline clip-path="url(#clip6000)" style="stroke:#000000; stroke-width:4; stroke-opacity:1; fill:none" points="
  2675.55,4521.21 4752.76,4521.21 
  "/>
<polyline clip-path="url(#clip6000)" style="stroke:#000000; stroke-width:4; stroke-opacity:1; fill:none" points="
  2675.55,4521.21 2675.55,2597.12 
  "/>
<polyline clip-path="url(#clip6000)" style="stroke:#000000; stroke-width:4; stroke-opacity:1; fill:none" points="
  2734.34,4521.21 2734.34,4498.12 
  "/>
<polyline clip-path="url(#clip6000)" style="stroke:#000000; stroke-width:4; stroke-opacity:1; fill:none" points="
  3224.25,4521.21 3224.25,4498.12 
  "/>
<polyline clip-path="url(#clip6000)" style="stroke:#000000; stroke-width:4; stroke-opacity:1; fill:none" points="
  3714.16,4521.21 3714.16,4498.12 
  "/>
<polyline clip-path="url(#clip6000)" style="stroke:#000000; stroke-width:4; stroke-opacity:1; fill:none" points="
  4204.06,4521.21 4204.06,4498.12 
  "/>
<polyline clip-path="url(#clip6000)" style="stroke:#000000; stroke-width:4; stroke-opacity:1; fill:none" points="
  4693.97,4521.21 4693.97,4498.12 
  "/>
<polyline clip-path="url(#clip6000)" style="stroke:#000000; stroke-width:4; stroke-opacity:1; fill:none" points="
  2675.55,4521.21 2700.48,4521.21 
  "/>
<polyline clip-path="url(#clip6000)" style="stroke:#000000; stroke-width:4; stroke-opacity:1; fill:none" points="
  2675.55,4093.64 2700.48,4093.64 
  "/>
<polyline clip-path="url(#clip6000)" style="stroke:#000000; stroke-width:4; stroke-opacity:1; fill:none" points="
  2675.55,3666.06 2700.48,3666.06 
  "/>
<polyline clip-path="url(#clip6000)" style="stroke:#000000; stroke-width:4; stroke-opacity:1; fill:none" points="
  2675.55,3238.49 2700.48,3238.49 
  "/>
<polyline clip-path="url(#clip6000)" style="stroke:#000000; stroke-width:4; stroke-opacity:1; fill:none" points="
  2675.55,2810.91 2700.48,2810.91 
  "/>
<g clip-path="url(#clip6000)">
<text style="fill:#000000; fill-opacity:1; font-family:Arial,Helvetica Neue,Helvetica,sans-serif; font-size:107px; text-anchor:middle;" transform="rotate(0, 2734.34, 4638.81)" x="2734.34" y="4638.81">0</text>
</g>
<g clip-path="url(#clip6000)">
<text style="fill:#000000; fill-opacity:1; font-family:Arial,Helvetica Neue,Helvetica,sans-serif; font-size:107px; text-anchor:middle;" transform="rotate(0, 3224.25, 4638.81)" x="3224.25" y="4638.81">2</text>
</g>
<g clip-path="url(#clip6000)">
<text style="fill:#000000; fill-opacity:1; font-family:Arial,Helvetica Neue,Helvetica,sans-serif; font-size:107px; text-anchor:middle;" transform="rotate(0, 3714.16, 4638.81)" x="3714.16" y="4638.81">4</text>
</g>
<g clip-path="url(#clip6000)">
<text style="fill:#000000; fill-opacity:1; font-family:Arial,Helvetica Neue,Helvetica,sans-serif; font-size:107px; text-anchor:middle;" transform="rotate(0, 4204.06, 4638.81)" x="4204.06" y="4638.81">6</text>
</g>
<g clip-path="url(#clip6000)">
<text style="fill:#000000; fill-opacity:1; font-family:Arial,Helvetica Neue,Helvetica,sans-serif; font-size:107px; text-anchor:middle;" transform="rotate(0, 4693.97, 4638.81)" x="4693.97" y="4638.81">8</text>
</g>
<g clip-path="url(#clip6000)">
<text style="fill:#000000; fill-opacity:1; font-family:Arial,Helvetica Neue,Helvetica,sans-serif; font-size:107px; text-anchor:end;" transform="rotate(0, 2627.55, 4560.21)" x="2627.55" y="4560.21">0</text>
</g>
<g clip-path="url(#clip6000)">
<text style="fill:#000000; fill-opacity:1; font-family:Arial,Helvetica Neue,Helvetica,sans-serif; font-size:107px; text-anchor:end;" transform="rotate(0, 2627.55, 4132.64)" x="2627.55" y="4132.64">1</text>
</g>
<g clip-path="url(#clip6000)">
<text style="fill:#000000; fill-opacity:1; font-family:Arial,Helvetica Neue,Helvetica,sans-serif; font-size:107px; text-anchor:end;" transform="rotate(0, 2627.55, 3705.06)" x="2627.55" y="3705.06">2</text>
</g>
<g clip-path="url(#clip6000)">
<text style="fill:#000000; fill-opacity:1; font-family:Arial,Helvetica Neue,Helvetica,sans-serif; font-size:107px; text-anchor:end;" transform="rotate(0, 2627.55, 3277.49)" x="2627.55" y="3277.49">3</text>
</g>
<g clip-path="url(#clip6000)">
<text style="fill:#000000; fill-opacity:1; font-family:Arial,Helvetica Neue,Helvetica,sans-serif; font-size:107px; text-anchor:end;" transform="rotate(0, 2627.55, 2849.91)" x="2627.55" y="2849.91">4</text>
</g>
<g clip-path="url(#clip6000)">
<text style="fill:#000000; fill-opacity:1; font-family:Arial,Helvetica Neue,Helvetica,sans-serif; font-size:189px; text-anchor:middle;" transform="rotate(0, 3714.16, 2565.6)" x="3714.16" y="2565.6">Overweight patient 45 mcg (4 patients)</text>
</g>
<g clip-path="url(#clip6000)">
<text style="fill:#000000; fill-opacity:1; font-family:Arial,Helvetica Neue,Helvetica,sans-serif; font-size:143px; text-anchor:middle;" transform="rotate(0, 3714.16, 4812.48)" x="3714.16" y="4812.48">Time (hours)</text>
</g>
<g clip-path="url(#clip6000)">
<text style="fill:#000000; fill-opacity:1; font-family:Arial,Helvetica Neue,Helvetica,sans-serif; font-size:143px; text-anchor:middle;" transform="rotate(-90, 2493.24, 3559.17)" x="2493.24" y="3559.17">T3 mcg/L</text>
</g>
<path clip-path="url(#clip6005)" d="
M2734.34 4188.36 L2758.84 4118.3 L2783.33 3977.85 L2807.83 3836.42 L2832.32 3709.42 L2856.82 3598.73 L2881.32 3503.32 L2905.81 3421.59 L2930.31 3352.03 L2954.8 3293.26 
  L2979.3 3244.07 L3003.79 3203.37 L3028.29 3170.21 L3052.78 3143.72 L3077.28 3123.13 L3101.77 3107.76 L3126.27 3096.98 L3150.76 3090.25 L3175.26 3087.07 L3199.75 3086.99 
  L3224.25 3089.64 L3248.74 3094.56 L3273.24 3101.47 L3297.74 3110.59 L3322.23 3120.47 L3346.73 3131.29 L3371.22 3142.37 L3395.72 3160.25 L3420.21 3175.18 L3444.71 3186.34 
  L3469.2 3202.47 L3493.7 3220.09 L3518.19 3235.43 L3542.69 3252.66 L3567.18 3268.17 L3591.68 3284.18 L3616.17 3301.49 L3640.67 3316.75 L3665.16 3333.63 L3689.66 3349.65 
  L3714.16 3365.25 L3738.65 3381.71 L3763.15 3396.59 L3787.64 3412.02 L3812.14 3427.47 L3836.63 3441.38 L3861.13 3457.01 L3885.62 3470.23 L3910.12 3484.41 L3934.61 3498.34 
  L3959.11 3510.7 L3983.6 3525.03 L4008.1 3536.37 L4032.59 3549.58 L4057.09 3561.87 L4081.58 3572.71 L4106.08 3584.53 L4130.58 3595.11 L4155.07 3606.31 L4179.57 3616.93 
  L4204.06 3626.92 L4228.56 3637.46 L4253.05 3646.56 L4277.55 3656.5 L4302.04 3665.35 L4326.54 3674.17 L4351.03 3683.2 L4375.53 3690.96 L4400.02 3699.84 L4424.52 3707.25 
  L4449.01 3715.17 L4473.51 3722.78 L4498 3729.48 L4522.5 3737.31 L4547 3743.46 L4571.49 3750.62 L4595.99 3756.94 L4620.48 3762.84 L4644.98 3769.65 L4669.47 3774.84 
  L4693.97 3780.95 L4693.97 3663.31 L4669.47 3657.24 L4644.98 3650.69 L4620.48 3645.89 L4595.99 3638.12 L4571.49 3632.86 L4547 3625.7 L4522.5 3618.56 L4498 3612.72 
  L4473.51 3603.86 L4449.01 3597.95 L4424.52 3589.3 L4400.02 3581.45 L4375.53 3574.26 L4351.03 3564.25 L4326.54 3557.46 L4302.04 3547.13 L4277.55 3538.43 L4253.05 3529.58 
  L4228.56 3518.34 L4204.06 3510.43 L4179.57 3498.25 L4155.07 3488.66 L4130.58 3477.79 L4106.08 3465.24 L4081.58 3455.83 L4057.09 3441.5 L4032.59 3431.11 L4008.1 3417.84 
  L3983.6 3403.86 L3959.11 3392.92 L3934.61 3376.47 L3910.12 3364.9 L3885.62 3349.22 L3861.13 3333.95 L3836.63 3320.87 L3812.14 3302.93 L3787.64 3289.4 L3763.15 3272.32 
  L3738.65 3255.23 L3714.16 3240.59 L3689.66 3221.18 L3665.16 3206.55 L3640.67 3187.38 L3616.17 3170.48 L3591.68 3153.76 L3567.18 3133.05 L3542.69 3121.32 L3518.19 3097.34 
  L3493.7 3088.27 L3469.2 3062.22 L3444.71 3055.19 L3420.21 3033.82 L3395.72 3004.74 L3371.22 2997.73 L3346.73 2988.77 L3322.23 2972.96 L3297.74 2959.47 L3273.24 2950.32 
  L3248.74 2942.04 L3224.25 2935.34 L3199.75 2931.33 L3175.26 2930.18 L3150.76 2932.19 L3126.27 2937.98 L3101.77 2948.02 L3077.28 2962.9 L3052.78 2983.3 L3028.29 3009.95 
  L3003.79 3043.67 L2979.3 3085.39 L2954.8 3136.15 L2930.31 3197.09 L2905.81 3269.52 L2881.32 3354.91 L2856.82 3454.88 L2832.32 3571.18 L2807.83 3704.95 L2783.33 3854.25 
  L2758.84 4002.34 L2734.34 4072.67  Z
  " fill="#009af9" fill-rule="evenodd" fill-opacity="0.3"/>
<polyline clip-path="url(#clip6005)" style="stroke:#009af9; stroke-width:4; stroke-opacity:1; fill:none" points="
  2734.34,4130.51 2758.84,4060.32 2783.33,3916.05 2807.83,3770.69 2832.32,3640.3 2856.82,3526.81 2881.32,3429.11 2905.81,3345.56 2930.31,3274.56 2954.8,3214.7 
  2979.3,3164.73 3003.79,3123.52 3028.29,3090.08 3052.78,3063.51 3077.28,3043.01 3101.77,3027.89 3126.27,3017.48 3150.76,3011.22 3175.26,3008.62 3199.75,3009.16 
  3224.25,3012.49 3248.74,3018.3 3273.24,3025.89 3297.74,3035.03 3322.23,3046.71 3346.73,3060.03 3371.22,3070.05 3395.72,3082.5 3420.21,3104.5 3444.71,3120.76 
  3469.2,3132.35 3493.7,3154.18 3518.19,3166.38 3542.69,3186.99 3567.18,3200.61 3591.68,3218.97 3616.17,3235.98 3640.67,3252.07 3665.16,3270.09 3689.66,3285.42 
  3714.16,3302.92 3738.65,3318.47 3763.15,3334.45 3787.64,3350.71 3812.14,3365.2 3836.63,3381.13 3861.13,3395.48 3885.62,3409.72 3910.12,3424.65 3934.61,3437.4 
  3959.11,3451.81 3983.6,3464.45 4008.1,3477.1 4032.59,3490.35 4057.09,3501.68 4081.58,3514.27 4106.08,3524.89 4130.58,3536.45 4155.07,3547.49 4179.57,3557.59 
  4204.06,3568.68 4228.56,3577.9 4253.05,3588.07 4277.55,3597.47 4302.04,3606.24 4326.54,3615.82 4351.03,3623.73 4375.53,3632.61 4400.02,3640.64 4424.52,3648.27 
  4449.01,3656.56 4473.51,3663.32 4498,3671.1 4522.5,3677.94 4547,3684.58 4571.49,3691.74 4595.99,3697.53 4620.48,3704.37 4644.98,3710.17 4669.47,3716.04 
  4693.97,3722.13 
  "/>
<polyline clip-path="url(#clip6005)" style="stroke:#e26f46; stroke-width:4; stroke-opacity:1; fill:none" points="
  2734.34,4130.51 2856.82,3994.87 2979.3,3314.7 3224.25,2890.44 3469.2,3123.36 3714.16,3273.01 3959.11,3507.11 4204.06,3631.21 4449.01,3742.81 4693.97,3834.1 
  
  "/>
<polyline clip-path="url(#clip6005)" style="stroke:#e26f46; stroke-width:4; stroke-opacity:1; fill:none" points="
  2734.34,4188.36 2734.34,4072.67 
  "/>
<polyline clip-path="url(#clip6005)" style="stroke:#e26f46; stroke-width:4; stroke-opacity:1; fill:none" points="
  2856.82,4038.19 2856.82,3951.54 
  "/>
<polyline clip-path="url(#clip6005)" style="stroke:#e26f46; stroke-width:4; stroke-opacity:1; fill:none" points="
  2979.3,3618.17 2979.3,3011.23 
  "/>
<polyline clip-path="url(#clip6005)" style="stroke:#e26f46; stroke-width:4; stroke-opacity:1; fill:none" points="
  3224.25,3340.04 3224.25,2440.84 
  "/>
<polyline clip-path="url(#clip6005)" style="stroke:#e26f46; stroke-width:4; stroke-opacity:1; fill:none" points="
  3469.2,3534.54 3469.2,2712.18 
  "/>
<polyline clip-path="url(#clip6005)" style="stroke:#e26f46; stroke-width:4; stroke-opacity:1; fill:none" points="
  3714.16,3590.83 3714.16,2955.2 
  "/>
<polyline clip-path="url(#clip6005)" style="stroke:#e26f46; stroke-width:4; stroke-opacity:1; fill:none" points="
  3959.11,3729.1 3959.11,3285.12 
  "/>
<polyline clip-path="url(#clip6005)" style="stroke:#e26f46; stroke-width:4; stroke-opacity:1; fill:none" points="
  4204.06,3773.44 4204.06,3488.99 
  "/>
<polyline clip-path="url(#clip6005)" style="stroke:#e26f46; stroke-width:4; stroke-opacity:1; fill:none" points="
  4449.01,3905.58 4449.01,3580.05 
  "/>
<polyline clip-path="url(#clip6005)" style="stroke:#e26f46; stroke-width:4; stroke-opacity:1; fill:none" points="
  4693.97,3965.73 4693.97,3702.47 
  "/>
<line clip-path="url(#clip6005)" x1="2754.34" y1="4188.36" x2="2714.34" y2="4188.36" style="stroke:#000000; stroke-width:4; stroke-opacity:1"/>
<line clip-path="url(#clip6005)" x1="2754.34" y1="4072.67" x2="2714.34" y2="4072.67" style="stroke:#000000; stroke-width:4; stroke-opacity:1"/>
<line clip-path="url(#clip6005)" x1="2876.82" y1="4038.19" x2="2836.82" y2="4038.19" style="stroke:#000000; stroke-width:4; stroke-opacity:1"/>
<line clip-path="url(#clip6005)" x1="2876.82" y1="3951.54" x2="2836.82" y2="3951.54" style="stroke:#000000; stroke-width:4; stroke-opacity:1"/>
<line clip-path="url(#clip6005)" x1="2999.3" y1="3618.17" x2="2959.3" y2="3618.17" style="stroke:#000000; stroke-width:4; stroke-opacity:1"/>
<line clip-path="url(#clip6005)" x1="2999.3" y1="3011.23" x2="2959.3" y2="3011.23" style="stroke:#000000; stroke-width:4; stroke-opacity:1"/>
<line clip-path="url(#clip6005)" x1="3244.25" y1="3340.04" x2="3204.25" y2="3340.04" style="stroke:#000000; stroke-width:4; stroke-opacity:1"/>
<line clip-path="url(#clip6005)" x1="3489.2" y1="3534.54" x2="3449.2" y2="3534.54" style="stroke:#000000; stroke-width:4; stroke-opacity:1"/>
<line clip-path="url(#clip6005)" x1="3489.2" y1="2712.18" x2="3449.2" y2="2712.18" style="stroke:#000000; stroke-width:4; stroke-opacity:1"/>
<line clip-path="url(#clip6005)" x1="3734.16" y1="3590.83" x2="3694.16" y2="3590.83" style="stroke:#000000; stroke-width:4; stroke-opacity:1"/>
<line clip-path="url(#clip6005)" x1="3734.16" y1="2955.2" x2="3694.16" y2="2955.2" style="stroke:#000000; stroke-width:4; stroke-opacity:1"/>
<line clip-path="url(#clip6005)" x1="3979.11" y1="3729.1" x2="3939.11" y2="3729.1" style="stroke:#000000; stroke-width:4; stroke-opacity:1"/>
<line clip-path="url(#clip6005)" x1="3979.11" y1="3285.12" x2="3939.11" y2="3285.12" style="stroke:#000000; stroke-width:4; stroke-opacity:1"/>
<line clip-path="url(#clip6005)" x1="4224.06" y1="3773.44" x2="4184.06" y2="3773.44" style="stroke:#000000; stroke-width:4; stroke-opacity:1"/>
<line clip-path="url(#clip6005)" x1="4224.06" y1="3488.99" x2="4184.06" y2="3488.99" style="stroke:#000000; stroke-width:4; stroke-opacity:1"/>
<line clip-path="url(#clip6005)" x1="4469.01" y1="3905.58" x2="4429.01" y2="3905.58" style="stroke:#000000; stroke-width:4; stroke-opacity:1"/>
<line clip-path="url(#clip6005)" x1="4469.01" y1="3580.05" x2="4429.01" y2="3580.05" style="stroke:#000000; stroke-width:4; stroke-opacity:1"/>
<line clip-path="url(#clip6005)" x1="4713.97" y1="3965.73" x2="4673.97" y2="3965.73" style="stroke:#000000; stroke-width:4; stroke-opacity:1"/>
<line clip-path="url(#clip6005)" x1="4713.97" y1="3702.47" x2="4673.97" y2="3702.47" style="stroke:#000000; stroke-width:4; stroke-opacity:1"/>
<path clip-path="url(#clip6000)" d="
M3641.29 3157.28 L4608.76 3157.28 L4608.76 2749.04 L3641.29 2749.04  Z
  " fill="#ffffff" fill-rule="evenodd" fill-opacity="1"/>
<polyline clip-path="url(#clip6000)" style="stroke:#000000; stroke-width:4; stroke-opacity:1; fill:none" points="
  3641.29,3157.28 4608.76,3157.28 4608.76,2749.04 3641.29,2749.04 3641.29,3157.28 
  "/>
<polyline clip-path="url(#clip6000)" style="stroke:#009af9; stroke-width:4; stroke-opacity:1; fill:none" points="
  3689.29,2885.12 3977.29,2885.12 
  "/>
<g clip-path="url(#clip6000)">
<text style="fill:#000000; fill-opacity:1; font-family:Arial,Helvetica Neue,Helvetica,sans-serif; font-size:107px; text-anchor:start;" transform="rotate(0, 4025.29, 2924.12)" x="4025.29" y="2924.12">simulation</text>
</g>
<polyline clip-path="url(#clip6000)" style="stroke:#e26f46; stroke-width:4; stroke-opacity:1; fill:none" points="
  3689.29,3021.2 3977.29,3021.2 
  "/>
<g clip-path="url(#clip6000)">
<text style="fill:#000000; fill-opacity:1; font-family:Arial,Helvetica Neue,Helvetica,sans-serif; font-size:107px; text-anchor:start;" transform="rotate(0, 4025.29, 3060.2)" x="4025.29" y="3060.2">data</text>
</g>
</svg>
