<?xml version="1.0" encoding="utf-8"?>
<svg xmlns="http://www.w3.org/2000/svg" xmlns:xlink="http://www.w3.org/1999/xlink" width="1200" height="1200" viewBox="0 0 4800 4800">
<defs>
  <clipPath id="clip2600">
    <rect x="0" y="0" width="4800" height="4800"/>
  </clipPath>
</defs>
<path clip-path="url(#clip2600)" d="
M0 4800 L4800 4800 L4800 0 L0 0  Z
  " fill="#ffffff" fill-rule="evenodd" fill-opacity="1"/>
<defs>
  <clipPath id="clip2601">
    <rect x="960" y="480" width="3361" height="3361"/>
  </clipPath>
</defs>
<path clip-path="url(#clip2600)" d="
M267.483 2097.21 L2352.76 2097.21 L2352.76 195.029 L267.483 195.029  Z
  " fill="#ffffff" fill-rule="evenodd" fill-opacity="1"/>
<defs>
  <clipPath id="clip2602">
    <rect x="267" y="195" width="2086" height="1903"/>
  </clipPath>
</defs>
<polyline clip-path="url(#clip2602)" style="stroke:#000000; stroke-width:2; stroke-opacity:0.1; fill:none" points="
  326.5,2097.21 326.5,195.029 
  "/>
<polyline clip-path="url(#clip2602)" style="stroke:#000000; stroke-width:2; stroke-opacity:0.1; fill:none" points="
  818.31,2097.21 818.31,195.029 
  "/>
<polyline clip-path="url(#clip2602)" style="stroke:#000000; stroke-width:2; stroke-opacity:0.1; fill:none" points="
  1310.12,2097.21 1310.12,195.029 
  "/>
<polyline clip-path="url(#clip2602)" style="stroke:#000000; stroke-width:2; stroke-opacity:0.1; fill:none" points="
  1801.93,2097.21 1801.93,195.029 
  "/>
<polyline clip-path="url(#clip2602)" style="stroke:#000000; stroke-width:2; stroke-opacity:0.1; fill:none" points="
  2293.74,2097.21 2293.74,195.029 
  "/>
<polyline clip-path="url(#clip2602)" style="stroke:#000000; stroke-width:2; stroke-opacity:0.1; fill:none" points="
  267.483,2097.21 2352.76,2097.21 
  "/>
<polyline clip-path="url(#clip2602)" style="stroke:#000000; stroke-width:2; stroke-opacity:0.1; fill:none" points="
  267.483,1674.5 2352.76,1674.5 
  "/>
<polyline clip-path="url(#clip2602)" style="stroke:#000000; stroke-width:2; stroke-opacity:0.1; fill:none" points="
  267.483,1251.8 2352.76,1251.8 
  "/>
<polyline clip-path="url(#clip2602)" style="stroke:#000000; stroke-width:2; stroke-opacity:0.1; fill:none" points="
  267.483,829.09 2352.76,829.09 
  "/>
<polyline clip-path="url(#clip2602)" style="stroke:#000000; stroke-width:2; stroke-opacity:0.1; fill:none" points="
  267.483,406.382 2352.76,406.382 
  "/>
<polyline clip-path="url(#clip2600)" style="stroke:#000000; stroke-width:4; stroke-opacity:1; fill:none" points="
  267.483,2097.21 2352.76,2097.21 
  "/>
<polyline clip-path="url(#clip2600)" style="stroke:#000000; stroke-width:4; stroke-opacity:1; fill:none" points="
  267.483,2097.21 267.483,195.029 
  "/>
<polyline clip-path="url(#clip2600)" style="stroke:#000000; stroke-width:4; stroke-opacity:1; fill:none" points="
  326.5,2097.21 326.5,2074.38 
  "/>
<polyline clip-path="url(#clip2600)" style="stroke:#000000; stroke-width:4; stroke-opacity:1; fill:none" points="
  818.31,2097.21 818.31,2074.38 
  "/>
<polyline clip-path="url(#clip2600)" style="stroke:#000000; stroke-width:4; stroke-opacity:1; fill:none" points="
  1310.12,2097.21 1310.12,2074.38 
  "/>
<polyline clip-path="url(#clip2600)" style="stroke:#000000; stroke-width:4; stroke-opacity:1; fill:none" points="
  1801.93,2097.21 1801.93,2074.38 
  "/>
<polyline clip-path="url(#clip2600)" style="stroke:#000000; stroke-width:4; stroke-opacity:1; fill:none" points="
  2293.74,2097.21 2293.74,2074.38 
  "/>
<polyline clip-path="url(#clip2600)" style="stroke:#000000; stroke-width:4; stroke-opacity:1; fill:none" points="
  267.483,2097.21 292.506,2097.21 
  "/>
<polyline clip-path="url(#clip2600)" style="stroke:#000000; stroke-width:4; stroke-opacity:1; fill:none" points="
  267.483,1674.5 292.506,1674.5 
  "/>
<polyline clip-path="url(#clip2600)" style="stroke:#000000; stroke-width:4; stroke-opacity:1; fill:none" points="
  267.483,1251.8 292.506,1251.8 
  "/>
<polyline clip-path="url(#clip2600)" style="stroke:#000000; stroke-width:4; stroke-opacity:1; fill:none" points="
  267.483,829.09 292.506,829.09 
  "/>
<polyline clip-path="url(#clip2600)" style="stroke:#000000; stroke-width:4; stroke-opacity:1; fill:none" points="
  267.483,406.382 292.506,406.382 
  "/>
<g clip-path="url(#clip2600)">
<text style="fill:#000000; fill-opacity:1; font-family:Arial,Helvetica Neue,Helvetica,sans-serif; font-size:71px; text-anchor:middle;" transform="rotate(0, 326.5, 2183.61)" x="326.5" y="2183.61">0</text>
</g>
<g clip-path="url(#clip2600)">
<text style="fill:#000000; fill-opacity:1; font-family:Arial,Helvetica Neue,Helvetica,sans-serif; font-size:71px; text-anchor:middle;" transform="rotate(0, 818.31, 2183.61)" x="818.31" y="2183.61">2</text>
</g>
<g clip-path="url(#clip2600)">
<text style="fill:#000000; fill-opacity:1; font-family:Arial,Helvetica Neue,Helvetica,sans-serif; font-size:71px; text-anchor:middle;" transform="rotate(0, 1310.12, 2183.61)" x="1310.12" y="2183.61">4</text>
</g>
<g clip-path="url(#clip2600)">
<text style="fill:#000000; fill-opacity:1; font-family:Arial,Helvetica Neue,Helvetica,sans-serif; font-size:71px; text-anchor:middle;" transform="rotate(0, 1801.93, 2183.61)" x="1801.93" y="2183.61">6</text>
</g>
<g clip-path="url(#clip2600)">
<text style="fill:#000000; fill-opacity:1; font-family:Arial,Helvetica Neue,Helvetica,sans-serif; font-size:71px; text-anchor:middle;" transform="rotate(0, 2293.74, 2183.61)" x="2293.74" y="2183.61">8</text>
</g>
<g clip-path="url(#clip2600)">
<text style="fill:#000000; fill-opacity:1; font-family:Arial,Helvetica Neue,Helvetica,sans-serif; font-size:71px; text-anchor:end;" transform="rotate(0, 219.483, 2123.21)" x="219.483" y="2123.21">0</text>
</g>
<g clip-path="url(#clip2600)">
<text style="fill:#000000; fill-opacity:1; font-family:Arial,Helvetica Neue,Helvetica,sans-serif; font-size:71px; text-anchor:end;" transform="rotate(0, 219.483, 1700.5)" x="219.483" y="1700.5">1</text>
</g>
<g clip-path="url(#clip2600)">
<text style="fill:#000000; fill-opacity:1; font-family:Arial,Helvetica Neue,Helvetica,sans-serif; font-size:71px; text-anchor:end;" transform="rotate(0, 219.483, 1277.8)" x="219.483" y="1277.8">2</text>
</g>
<g clip-path="url(#clip2600)">
<text style="fill:#000000; fill-opacity:1; font-family:Arial,Helvetica Neue,Helvetica,sans-serif; font-size:71px; text-anchor:end;" transform="rotate(0, 219.483, 855.09)" x="219.483" y="855.09">3</text>
</g>
<g clip-path="url(#clip2600)">
<text style="fill:#000000; fill-opacity:1; font-family:Arial,Helvetica Neue,Helvetica,sans-serif; font-size:71px; text-anchor:end;" transform="rotate(0, 219.483, 432.382)" x="219.483" y="432.382">4</text>
</g>
<g clip-path="url(#clip2600)">
<text style="fill:#000000; fill-opacity:1; font-family:Arial,Helvetica Neue,Helvetica,sans-serif; font-size:125px; text-anchor:middle;" transform="rotate(0, 1310.12, 109.2)" x="1310.12" y="109.2">Normal hypothyroid patient 30 mcg (n = 6)</text>
</g>
<g clip-path="url(#clip2600)">
<text style="fill:#000000; fill-opacity:1; font-family:Arial,Helvetica Neue,Helvetica,sans-serif; font-size:95px; text-anchor:middle;" transform="rotate(0, 1310.12, 2307.46)" x="1310.12" y="2307.46">Time (hours)</text>
</g>
<g clip-path="url(#clip2600)">
<text style="fill:#000000; fill-opacity:1; font-family:Arial,Helvetica Neue,Helvetica,sans-serif; font-size:95px; text-anchor:middle;" transform="rotate(-90, 113.54, 1146.12)" x="113.54" y="1146.12">T3 mcg/L</text>
</g>
<path clip-path="url(#clip2602)" d="
M326.5 1709.93 L351.091 1695.49 L375.681 1655.99 L400.272 1607.72 L424.862 1555.47 L449.453 1502.28 L474.043 1449.7 L498.634 1398.94 L523.224 1350.81 L547.815 1306.02 
  L572.405 1264.61 L596.996 1227.21 L621.586 1193.82 L646.177 1163.45 L670.767 1137.87 L695.357 1116.1 L719.948 1095.54 L744.538 1080.8 L769.129 1068.35 L793.719 1056.7 
  L818.31 1050.59 L842.9 1045.05 L867.491 1041.76 L892.081 1041.57 L916.672 1041.65 L941.262 1044.73 L965.853 1048.08 L990.443 1053.43 L1015.03 1059.57 L1039.62 1066.5 
  L1064.21 1074.74 L1088.81 1082.9 L1113.4 1092.51 L1137.99 1101.86 L1162.58 1112.16 L1187.17 1122.75 L1211.76 1133.17 L1236.35 1144.51 L1260.94 1155.06 L1285.53 1166.51 
  L1310.12 1177.62 L1334.71 1188.75 L1359.3 1200.22 L1383.89 1210.93 L1408.48 1222.31 L1433.07 1232.86 L1457.66 1243.82 L1482.25 1254.5 L1506.84 1264.75 L1531.43 1275.37 
  L1556.02 1284.97 L1580.61 1295.28 L1605.21 1304.56 L1629.8 1314.29 L1654.39 1323.52 L1678.98 1332.3 L1703.57 1341.52 L1728.16 1349.46 L1752.75 1358.53 L1777.34 1366.05 
  L1801.93 1374.43 L1826.52 1381.93 L1851.11 1389.23 L1875.7 1396.96 L1900.29 1403.25 L1924.88 1411.02 L1949.47 1416.87 L1974.06 1423.94 L1998.65 1429.89 L2023.24 1435.83 
  L2047.83 1442.2 L2072.42 1447.13 L2097.01 1453.55 L2121.61 1458.11 L2146.2 1463.86 L2170.79 1468.7 L2195.38 1473.35 L2219.97 1478.58 L2244.56 1482.48 L2269.15 1487.2 
  L2293.74 1491.32 L2293.74 1378.48 L2269.15 1374.35 L2244.56 1370.25 L2219.97 1365.42 L2195.38 1361.2 L2170.79 1355.78 L2146.2 1351.51 L2121.61 1345.61 L2097.01 1340.96 
  L2072.42 1334.99 L2047.83 1329.52 L2023.24 1323.83 L1998.65 1317.37 L1974.06 1311.86 L1949.47 1304.64 L1924.88 1298.86 L1900.29 1291.27 L1875.7 1284.79 L1851.11 1277.33 
  L1826.52 1269.84 L1801.93 1262.54 L1777.34 1254.19 L1752.75 1246.65 L1728.16 1237.79 L1703.57 1229.66 L1678.98 1220.6 L1654.39 1211.71 L1629.8 1202.48 L1605.21 1192.89 
  L1580.61 1183.41 L1556.02 1173.4 L1531.43 1163.45 L1506.84 1153.11 L1482.25 1142.56 L1457.66 1131.98 L1433.07 1120.9 L1408.48 1110.15 L1383.89 1098.85 L1359.3 1087.75 
  L1334.71 1076.5 L1310.12 1064.92 L1285.53 1053.98 L1260.94 1042 L1236.35 1031.54 L1211.76 1019.59 L1187.17 1009.22 L1162.58 998.177 L1137.99 987.595 L1113.4 978.126 
  L1088.81 967.671 L1064.21 959.728 L1039.62 950.282 L1015.03 943.706 L990.443 936.275 L965.853 931.155 L941.262 926.6 L916.672 923.345 L892.081 922.362 L867.491 921.584 
  L842.9 924.936 L818.31 927.732 L793.719 935.804 L769.129 943.107 L744.538 957.066 L719.948 970.026 L695.357 988.429 L670.767 1010.15 L646.177 1033.33 L621.586 1062.07 
  L596.996 1093.82 L572.405 1128.93 L547.815 1168.1 L523.224 1210.42 L498.634 1255.82 L474.043 1303.71 L449.453 1353.22 L424.862 1403.28 L400.272 1452.32 L375.681 1497.53 
  L351.091 1533.95 L326.5 1545.1  Z
  " fill="#009af9" fill-rule="evenodd" fill-opacity="0.3"/>
<polyline clip-path="url(#clip2602)" style="stroke:#009af9; stroke-width:4; stroke-opacity:1; fill:none" points="
  326.5,1627.51 351.091,1614.72 375.681,1576.76 400.272,1530.02 424.862,1479.37 449.453,1427.75 474.043,1376.7 498.634,1327.38 523.224,1280.62 547.815,1237.06 
  572.405,1196.77 596.996,1160.51 621.586,1127.94 646.177,1098.39 670.767,1074.01 695.357,1052.26 719.948,1032.78 744.538,1018.93 769.129,1005.73 793.719,996.253 
  818.31,989.162 842.9,984.995 867.491,981.672 892.081,981.965 916.672,982.498 941.262,985.667 965.853,989.618 990.443,994.853 1015.03,1001.64 1039.62,1008.39 
  1064.21,1017.23 1088.81,1025.29 1113.4,1035.32 1137.99,1044.72 1162.58,1055.17 1187.17,1065.99 1211.76,1076.38 1236.35,1088.02 1260.94,1098.53 1285.53,1110.25 
  1310.12,1121.27 1334.71,1132.63 1359.3,1143.98 1383.89,1154.89 1408.48,1166.23 1433.07,1176.88 1457.66,1187.9 1482.25,1198.53 1506.84,1208.93 1531.43,1219.41 
  1556.02,1229.18 1580.61,1239.34 1605.21,1248.73 1629.8,1258.38 1654.39,1267.62 1678.98,1276.45 1703.57,1285.59 1728.16,1293.62 1752.75,1302.59 1777.34,1310.12 
  1801.93,1318.49 1826.52,1325.89 1851.11,1333.28 1875.7,1340.87 1900.29,1347.26 1924.88,1354.94 1949.47,1360.75 1974.06,1367.9 1998.65,1373.63 2023.24,1379.83 
  2047.83,1385.86 2072.42,1391.06 2097.01,1397.25 2121.61,1401.86 2146.2,1407.68 2170.79,1412.24 2195.38,1417.28 2219.97,1422 2244.56,1426.37 2269.15,1430.77 
  2293.74,1434.9 
  "/>
<polyline clip-path="url(#clip2602)" style="stroke:#e26f46; stroke-width:4; stroke-opacity:1; fill:none" points="
  326.5,1627.51 449.453,1486.26 572.405,1170.57 818.31,972.669 1064.21,1091.03 1310.12,1223.97 1556.02,1340.99 1801.93,1404.18 2047.83,1424.75 2293.74,1445.26 
  
  "/>
<polyline clip-path="url(#clip2602)" style="stroke:#e26f46; stroke-width:4; stroke-opacity:1; fill:none" points="
  326.5,1709.93 326.5,1545.1 
  "/>
<polyline clip-path="url(#clip2602)" style="stroke:#e26f46; stroke-width:4; stroke-opacity:1; fill:none" points="
  449.453,1606.47 449.453,1366.05 
  "/>
<polyline clip-path="url(#clip2602)" style="stroke:#e26f46; stroke-width:4; stroke-opacity:1; fill:none" points="
  572.405,1328.73 572.405,1012.4 
  "/>
<polyline clip-path="url(#clip2602)" style="stroke:#e26f46; stroke-width:4; stroke-opacity:1; fill:none" points="
  818.31,1093.9 818.31,851.441 
  "/>
<polyline clip-path="url(#clip2602)" style="stroke:#e26f46; stroke-width:4; stroke-opacity:1; fill:none" points="
  1064.21,1220.62 1064.21,961.434 
  "/>
<polyline clip-path="url(#clip2602)" style="stroke:#e26f46; stroke-width:4; stroke-opacity:1; fill:none" points="
  1310.12,1334.69 1310.12,1113.24 
  "/>
<polyline clip-path="url(#clip2602)" style="stroke:#e26f46; stroke-width:4; stroke-opacity:1; fill:none" points="
  1556.02,1449.68 1556.02,1232.3 
  "/>
<polyline clip-path="url(#clip2602)" style="stroke:#e26f46; stroke-width:4; stroke-opacity:1; fill:none" points="
  1801.93,1510.6 1801.93,1297.76 
  "/>
<polyline clip-path="url(#clip2602)" style="stroke:#e26f46; stroke-width:4; stroke-opacity:1; fill:none" points="
  2047.83,1532.66 2047.83,1316.85 
  "/>
<polyline clip-path="url(#clip2602)" style="stroke:#e26f46; stroke-width:4; stroke-opacity:1; fill:none" points="
  2293.74,1560.84 2293.74,1329.67 
  "/>
<line clip-path="url(#clip2602)" x1="346.5" y1="1709.93" x2="306.5" y2="1709.93" style="stroke:#000000; stroke-width:4; stroke-opacity:1"/>
<line clip-path="url(#clip2602)" x1="346.5" y1="1545.1" x2="306.5" y2="1545.1" style="stroke:#000000; stroke-width:4; stroke-opacity:1"/>
<line clip-path="url(#clip2602)" x1="469.453" y1="1606.47" x2="429.453" y2="1606.47" style="stroke:#000000; stroke-width:4; stroke-opacity:1"/>
<line clip-path="url(#clip2602)" x1="469.453" y1="1366.05" x2="429.453" y2="1366.05" style="stroke:#000000; stroke-width:4; stroke-opacity:1"/>
<line clip-path="url(#clip2602)" x1="592.405" y1="1328.73" x2="552.405" y2="1328.73" style="stroke:#000000; stroke-width:4; stroke-opacity:1"/>
<line clip-path="url(#clip2602)" x1="592.405" y1="1012.4" x2="552.405" y2="1012.4" style="stroke:#000000; stroke-width:4; stroke-opacity:1"/>
<line clip-path="url(#clip2602)" x1="838.31" y1="1093.9" x2="798.31" y2="1093.9" style="stroke:#000000; stroke-width:4; stroke-opacity:1"/>
<line clip-path="url(#clip2602)" x1="838.31" y1="851.441" x2="798.31" y2="851.441" style="stroke:#000000; stroke-width:4; stroke-opacity:1"/>
<line clip-path="url(#clip2602)" x1="1084.21" y1="1220.62" x2="1044.21" y2="1220.62" style="stroke:#000000; stroke-width:4; stroke-opacity:1"/>
<line clip-path="url(#clip2602)" x1="1084.21" y1="961.434" x2="1044.21" y2="961.434" style="stroke:#000000; stroke-width:4; stroke-opacity:1"/>
<line clip-path="url(#clip2602)" x1="1330.12" y1="1334.69" x2="1290.12" y2="1334.69" style="stroke:#000000; stroke-width:4; stroke-opacity:1"/>
<line clip-path="url(#clip2602)" x1="1330.12" y1="1113.24" x2="1290.12" y2="1113.24" style="stroke:#000000; stroke-width:4; stroke-opacity:1"/>
<line clip-path="url(#clip2602)" x1="1576.02" y1="1449.68" x2="1536.02" y2="1449.68" style="stroke:#000000; stroke-width:4; stroke-opacity:1"/>
<line clip-path="url(#clip2602)" x1="1576.02" y1="1232.3" x2="1536.02" y2="1232.3" style="stroke:#000000; stroke-width:4; stroke-opacity:1"/>
<line clip-path="url(#clip2602)" x1="1821.93" y1="1510.6" x2="1781.93" y2="1510.6" style="stroke:#000000; stroke-width:4; stroke-opacity:1"/>
<line clip-path="url(#clip2602)" x1="1821.93" y1="1297.76" x2="1781.93" y2="1297.76" style="stroke:#000000; stroke-width:4; stroke-opacity:1"/>
<line clip-path="url(#clip2602)" x1="2067.83" y1="1532.66" x2="2027.83" y2="1532.66" style="stroke:#000000; stroke-width:4; stroke-opacity:1"/>
<line clip-path="url(#clip2602)" x1="2067.83" y1="1316.85" x2="2027.83" y2="1316.85" style="stroke:#000000; stroke-width:4; stroke-opacity:1"/>
<line clip-path="url(#clip2602)" x1="2313.74" y1="1560.84" x2="2273.74" y2="1560.84" style="stroke:#000000; stroke-width:4; stroke-opacity:1"/>
<line clip-path="url(#clip2602)" x1="2313.74" y1="1329.67" x2="2273.74" y2="1329.67" style="stroke:#000000; stroke-width:4; stroke-opacity:1"/>
<path clip-path="url(#clip2600)" d="
M1403.78 664.469 L2208.76 664.469 L2208.76 392.309 L1403.78 392.309  Z
  " fill="#ffffff" fill-rule="evenodd" fill-opacity="1"/>
<polyline clip-path="url(#clip2600)" style="stroke:#000000; stroke-width:4; stroke-opacity:1; fill:none" points="
  1403.78,664.469 2208.76,664.469 2208.76,392.309 1403.78,392.309 1403.78,664.469 
  "/>
<polyline clip-path="url(#clip2600)" style="stroke:#009af9; stroke-width:4; stroke-opacity:1; fill:none" points="
  1451.78,483.029 1739.78,483.029 
  "/>
<g clip-path="url(#clip2600)">
<text style="fill:#000000; fill-opacity:1; font-family:Arial,Helvetica Neue,Helvetica,sans-serif; font-size:71px; text-anchor:start;" transform="rotate(0, 1787.78, 509.029)" x="1787.78" y="509.029">simulation</text>
</g>
<polyline clip-path="url(#clip2600)" style="stroke:#e26f46; stroke-width:4; stroke-opacity:1; fill:none" points="
  1451.78,573.749 1739.78,573.749 
  "/>
<g clip-path="url(#clip2600)">
<text style="fill:#000000; fill-opacity:1; font-family:Arial,Helvetica Neue,Helvetica,sans-serif; font-size:71px; text-anchor:start;" transform="rotate(0, 1787.78, 599.749)" x="1787.78" y="599.749">data</text>
</g>
<path clip-path="url(#clip2600)" d="
M2667.48 2097.21 L4752.76 2097.21 L4752.76 195.029 L2667.48 195.029  Z
  " fill="#ffffff" fill-rule="evenodd" fill-opacity="1"/>
<defs>
  <clipPath id="clip2603">
    <rect x="2667" y="195" width="2086" height="1903"/>
  </clipPath>
</defs>
<polyline clip-path="url(#clip2603)" style="stroke:#000000; stroke-width:2; stroke-opacity:0.1; fill:none" points="
  2726.5,2097.21 2726.5,195.029 
  "/>
<polyline clip-path="url(#clip2603)" style="stroke:#000000; stroke-width:2; stroke-opacity:0.1; fill:none" points="
  3218.31,2097.21 3218.31,195.029 
  "/>
<polyline clip-path="url(#clip2603)" style="stroke:#000000; stroke-width:2; stroke-opacity:0.1; fill:none" points="
  3710.12,2097.21 3710.12,195.029 
  "/>
<polyline clip-path="url(#clip2603)" style="stroke:#000000; stroke-width:2; stroke-opacity:0.1; fill:none" points="
  4201.93,2097.21 4201.93,195.029 
  "/>
<polyline clip-path="url(#clip2603)" style="stroke:#000000; stroke-width:2; stroke-opacity:0.1; fill:none" points="
  4693.74,2097.21 4693.74,195.029 
  "/>
<polyline clip-path="url(#clip2603)" style="stroke:#000000; stroke-width:2; stroke-opacity:0.1; fill:none" points="
  2667.48,2097.21 4752.76,2097.21 
  "/>
<polyline clip-path="url(#clip2603)" style="stroke:#000000; stroke-width:2; stroke-opacity:0.1; fill:none" points="
  2667.48,1674.5 4752.76,1674.5 
  "/>
<polyline clip-path="url(#clip2603)" style="stroke:#000000; stroke-width:2; stroke-opacity:0.1; fill:none" points="
  2667.48,1251.8 4752.76,1251.8 
  "/>
<polyline clip-path="url(#clip2603)" style="stroke:#000000; stroke-width:2; stroke-opacity:0.1; fill:none" points="
  2667.48,829.09 4752.76,829.09 
  "/>
<polyline clip-path="url(#clip2603)" style="stroke:#000000; stroke-width:2; stroke-opacity:0.1; fill:none" points="
  2667.48,406.382 4752.76,406.382 
  "/>
<polyline clip-path="url(#clip2600)" style="stroke:#000000; stroke-width:4; stroke-opacity:1; fill:none" points="
  2667.48,2097.21 4752.76,2097.21 
  "/>
<polyline clip-path="url(#clip2600)" style="stroke:#000000; stroke-width:4; stroke-opacity:1; fill:none" points="
  2667.48,2097.21 2667.48,195.029 
  "/>
<polyline clip-path="url(#clip2600)" style="stroke:#000000; stroke-width:4; stroke-opacity:1; fill:none" points="
  2726.5,2097.21 2726.5,2074.38 
  "/>
<polyline clip-path="url(#clip2600)" style="stroke:#000000; stroke-width:4; stroke-opacity:1; fill:none" points="
  3218.31,2097.21 3218.31,2074.38 
  "/>
<polyline clip-path="url(#clip2600)" style="stroke:#000000; stroke-width:4; stroke-opacity:1; fill:none" points="
  3710.12,2097.21 3710.12,2074.38 
  "/>
<polyline clip-path="url(#clip2600)" style="stroke:#000000; stroke-width:4; stroke-opacity:1; fill:none" points="
  4201.93,2097.21 4201.93,2074.38 
  "/>
<polyline clip-path="url(#clip2600)" style="stroke:#000000; stroke-width:4; stroke-opacity:1; fill:none" points="
  4693.74,2097.21 4693.74,2074.38 
  "/>
<polyline clip-path="url(#clip2600)" style="stroke:#000000; stroke-width:4; stroke-opacity:1; fill:none" points="
  2667.48,2097.21 2692.51,2097.21 
  "/>
<polyline clip-path="url(#clip2600)" style="stroke:#000000; stroke-width:4; stroke-opacity:1; fill:none" points="
  2667.48,1674.5 2692.51,1674.5 
  "/>
<polyline clip-path="url(#clip2600)" style="stroke:#000000; stroke-width:4; stroke-opacity:1; fill:none" points="
  2667.48,1251.8 2692.51,1251.8 
  "/>
<polyline clip-path="url(#clip2600)" style="stroke:#000000; stroke-width:4; stroke-opacity:1; fill:none" points="
  2667.48,829.09 2692.51,829.09 
  "/>
<polyline clip-path="url(#clip2600)" style="stroke:#000000; stroke-width:4; stroke-opacity:1; fill:none" points="
  2667.48,406.382 2692.51,406.382 
  "/>
<g clip-path="url(#clip2600)">
<text style="fill:#000000; fill-opacity:1; font-family:Arial,Helvetica Neue,Helvetica,sans-serif; font-size:71px; text-anchor:middle;" transform="rotate(0, 2726.5, 2183.61)" x="2726.5" y="2183.61">0</text>
</g>
<g clip-path="url(#clip2600)">
<text style="fill:#000000; fill-opacity:1; font-family:Arial,Helvetica Neue,Helvetica,sans-serif; font-size:71px; text-anchor:middle;" transform="rotate(0, 3218.31, 2183.61)" x="3218.31" y="2183.61">2</text>
</g>
<g clip-path="url(#clip2600)">
<text style="fill:#000000; fill-opacity:1; font-family:Arial,Helvetica Neue,Helvetica,sans-serif; font-size:71px; text-anchor:middle;" transform="rotate(0, 3710.12, 2183.61)" x="3710.12" y="2183.61">4</text>
</g>
<g clip-path="url(#clip2600)">
<text style="fill:#000000; fill-opacity:1; font-family:Arial,Helvetica Neue,Helvetica,sans-serif; font-size:71px; text-anchor:middle;" transform="rotate(0, 4201.93, 2183.61)" x="4201.93" y="2183.61">6</text>
</g>
<g clip-path="url(#clip2600)">
<text style="fill:#000000; fill-opacity:1; font-family:Arial,Helvetica Neue,Helvetica,sans-serif; font-size:71px; text-anchor:middle;" transform="rotate(0, 4693.74, 2183.61)" x="4693.74" y="2183.61">8</text>
</g>
<g clip-path="url(#clip2600)">
<text style="fill:#000000; fill-opacity:1; font-family:Arial,Helvetica Neue,Helvetica,sans-serif; font-size:71px; text-anchor:end;" transform="rotate(0, 2619.48, 2123.21)" x="2619.48" y="2123.21">0</text>
</g>
<g clip-path="url(#clip2600)">
<text style="fill:#000000; fill-opacity:1; font-family:Arial,Helvetica Neue,Helvetica,sans-serif; font-size:71px; text-anchor:end;" transform="rotate(0, 2619.48, 1700.5)" x="2619.48" y="1700.5">1</text>
</g>
<g clip-path="url(#clip2600)">
<text style="fill:#000000; fill-opacity:1; font-family:Arial,Helvetica Neue,Helvetica,sans-serif; font-size:71px; text-anchor:end;" transform="rotate(0, 2619.48, 1277.8)" x="2619.48" y="1277.8">2</text>
</g>
<g clip-path="url(#clip2600)">
<text style="fill:#000000; fill-opacity:1; font-family:Arial,Helvetica Neue,Helvetica,sans-serif; font-size:71px; text-anchor:end;" transform="rotate(0, 2619.48, 855.09)" x="2619.48" y="855.09">3</text>
</g>
<g clip-path="url(#clip2600)">
<text style="fill:#000000; fill-opacity:1; font-family:Arial,Helvetica Neue,Helvetica,sans-serif; font-size:71px; text-anchor:end;" transform="rotate(0, 2619.48, 432.382)" x="2619.48" y="432.382">4</text>
</g>
<g clip-path="url(#clip2600)">
<text style="fill:#000000; fill-opacity:1; font-family:Arial,Helvetica Neue,Helvetica,sans-serif; font-size:125px; text-anchor:middle;" transform="rotate(0, 3710.12, 109.2)" x="3710.12" y="109.2">Normal hypothyroid patient 45 mcg (n = 3)</text>
</g>
<g clip-path="url(#clip2600)">
<text style="fill:#000000; fill-opacity:1; font-family:Arial,Helvetica Neue,Helvetica,sans-serif; font-size:95px; text-anchor:middle;" transform="rotate(0, 3710.12, 2307.46)" x="3710.12" y="2307.46">Time (hours)</text>
</g>
<g clip-path="url(#clip2600)">
<text style="fill:#000000; fill-opacity:1; font-family:Arial,Helvetica Neue,Helvetica,sans-serif; font-size:95px; text-anchor:middle;" transform="rotate(-90, 2513.54, 1146.12)" x="2513.54" y="1146.12">T3 mcg/L</text>
</g>
<path clip-path="url(#clip2603)" d="
M2726.5 1819.11 L2751.09 1799.67 L2775.68 1746.9 L2800.27 1681.28 L2824.86 1609.91 L2849.45 1536.85 L2874.04 1464.45 L2898.63 1394.32 L2923.22 1327.73 L2947.81 1265.47 
  L2972.41 1207.96 L2997 1155.82 L3021.59 1108.78 L3046.18 1066.74 L3070.77 1030.79 L3095.36 999.493 L3119.95 971.178 L3144.54 950.054 L3169.13 933.756 L3193.72 915.214 
  L3218.31 907.297 L3242.9 901.219 L3267.49 891.763 L3292.08 895.313 L3316.67 892.926 L3341.26 897.57 L3365.85 902.964 L3390.44 908.582 L3415.03 918.833 L3439.62 926.607 
  L3464.21 939.405 L3488.81 950.309 L3513.4 963.421 L3537.99 977.608 L3562.58 990.234 L3587.17 1006.62 L3611.76 1020.36 L3636.35 1036.09 L3660.94 1052.26 L3685.53 1066.26 
  L3710.12 1083.86 L3734.71 1098.32 L3759.3 1114.4 L3783.89 1130.71 L3808.48 1144.67 L3833.07 1161.77 L3857.66 1175.71 L3882.25 1191.19 L3906.84 1206.35 L3931.43 1219.63 
  L3956.02 1235.36 L3980.61 1248.13 L4005.21 1262.46 L4029.8 1276 L4054.39 1288.16 L4078.98 1302.22 L4103.57 1313.56 L4128.16 1326.45 L4152.75 1338.31 L4177.34 1349.13 
  L4201.93 1361.49 L4226.52 1371.37 L4251.11 1382.76 L4275.7 1393 L4300.29 1402.5 L4324.88 1413.23 L4349.47 1421.73 L4374.06 1431.69 L4398.65 1440.45 L4423.24 1448.7 
  L4447.83 1457.94 L4472.42 1465.21 L4497.01 1473.86 L4521.61 1481.31 L4546.2 1488.44 L4570.79 1496.36 L4595.38 1502.54 L4619.97 1510.03 L4644.56 1516.33 L4669.15 1522.32 
  L4693.74 1528.76 L4693.74 1457.14 L4669.15 1451.05 L4644.56 1443.92 L4619.97 1437.71 L4595.38 1430.36 L4570.79 1422.76 L4546.2 1415.93 L4521.61 1407.22 L4497.01 1400.05 
  L4472.42 1391.26 L4447.83 1382.66 L4423.24 1374.46 L4398.65 1364.38 L4374.06 1356.1 L4349.47 1345.68 L4324.88 1335.99 L4300.29 1326.18 L4275.7 1314.64 L4251.11 1305.06 
  L4226.52 1292.85 L4201.93 1281.98 L4177.34 1270.34 L4152.75 1257.34 L4128.16 1246.24 L4103.57 1232.16 L4078.98 1220.05 L4054.39 1206.46 L4029.8 1192.08 L4005.21 1179.33 
  L3980.61 1163.42 L3956.02 1150.15 L3931.43 1134.57 L3906.84 1119.1 L3882.25 1104.73 L3857.66 1087.24 L3833.07 1073.13 L3808.48 1055.8 L3783.89 1039.8 L3759.3 1024.19 
  L3734.71 1005.86 L3710.12 991.419 L3685.53 973.299 L3660.94 957.508 L3636.35 941.773 L3611.76 923.97 L3587.17 910.183 L3562.58 893.173 L3537.99 879.061 L3513.4 865.091 
  L3488.81 850.171 L3464.21 839.358 L3439.62 825.749 L3415.03 817.065 L3390.44 807.154 L3365.85 799.669 L3341.26 795.348 L3316.67 788.757 L3292.08 792.029 L3267.49 788.557 
  L3242.9 796.843 L3218.31 804.552 L3193.72 811.397 L3169.13 831.044 L3144.54 848.116 L3119.95 869.634 L3095.36 899.297 L3070.77 931.731 L3046.18 969.013 L3021.59 1012.83 
  L2997 1061.77 L2972.41 1116.04 L2947.81 1175.97 L2923.22 1240.85 L2898.63 1310.26 L2874.04 1383.37 L2849.45 1458.87 L2824.86 1535.06 L2800.27 1609.52 L2775.68 1677.99 
  L2751.09 1733.07 L2726.5 1753.08  Z
  " fill="#009af9" fill-rule="evenodd" fill-opacity="0.3"/>
<polyline clip-path="url(#clip2603)" style="stroke:#009af9; stroke-width:4; stroke-opacity:1; fill:none" points="
  2726.5,1786.1 2751.09,1766.37 2775.68,1712.44 2800.27,1645.4 2824.86,1572.49 2849.45,1497.86 2874.04,1423.91 2898.63,1352.29 2923.22,1284.29 2947.81,1220.72 
  2972.41,1162 2997,1108.79 3021.59,1060.8 3046.18,1017.88 3070.77,981.262 3095.36,949.395 3119.95,920.406 3144.54,899.085 3169.13,882.4 3193.72,863.305 
  3218.31,855.925 3242.9,849.031 3267.49,840.16 3292.08,843.671 3316.67,840.842 3341.26,846.459 3365.85,851.317 3390.44,857.868 3415.03,867.949 3439.62,876.178 
  3464.21,889.381 3488.81,900.24 3513.4,914.256 3537.99,928.334 3562.58,941.704 3587.17,958.403 3611.76,972.163 3636.35,988.93 3660.94,1004.89 3685.53,1019.78 
  3710.12,1037.64 3734.71,1052.09 3759.3,1069.3 3783.89,1085.25 3808.48,1100.24 3833.07,1117.45 3857.66,1131.48 3882.25,1147.96 3906.84,1162.73 3931.43,1177.1 
  3956.02,1192.76 3980.61,1205.78 4005.21,1220.89 4029.8,1234.04 4054.39,1247.31 4078.98,1261.14 4103.57,1272.86 4128.16,1286.34 4152.75,1297.83 4177.34,1309.74 
  4201.93,1321.74 4226.52,1332.11 4251.11,1343.91 4275.7,1353.82 4300.29,1364.34 4324.88,1374.61 4349.47,1383.7 4374.06,1393.9 4398.65,1402.42 4423.24,1411.58 
  4447.83,1420.3 4472.42,1428.23 4497.01,1436.96 4521.61,1444.26 4546.2,1452.19 4570.79,1459.56 4595.38,1466.45 4619.97,1473.87 4644.56,1480.12 4669.15,1486.69 
  4693.74,1492.95 
  "/>
<polyline clip-path="url(#clip2603)" style="stroke:#e26f46; stroke-width:4; stroke-opacity:1; fill:none" points="
  2726.5,1786.1 2849.45,1685.64 2972.41,1324.5 3218.31,852.057 3464.21,983.659 3710.12,1095.82 3956.02,1151.62 4201.93,1357.61 4447.83,1380.3 4693.74,1455.4 
  
  "/>
<polyline clip-path="url(#clip2603)" style="stroke:#e26f46; stroke-width:4; stroke-opacity:1; fill:none" points="
  2726.5,1819.11 2726.5,1753.08 
  "/>
<polyline clip-path="url(#clip2603)" style="stroke:#e26f46; stroke-width:4; stroke-opacity:1; fill:none" points="
  2849.45,1710.36 2849.45,1660.91 
  "/>
<polyline clip-path="url(#clip2603)" style="stroke:#e26f46; stroke-width:4; stroke-opacity:1; fill:none" points="
  2972.41,1497.72 2972.41,1151.29 
  "/>
<polyline clip-path="url(#clip2603)" style="stroke:#e26f46; stroke-width:4; stroke-opacity:1; fill:none" points="
  3218.31,1108.68 3218.31,595.434 
  "/>
<polyline clip-path="url(#clip2603)" style="stroke:#e26f46; stroke-width:4; stroke-opacity:1; fill:none" points="
  3464.21,1218.35 3464.21,748.967 
  "/>
<polyline clip-path="url(#clip2603)" style="stroke:#e26f46; stroke-width:4; stroke-opacity:1; fill:none" points="
  3710.12,1277.22 3710.12,914.416 
  "/>
<polyline clip-path="url(#clip2603)" style="stroke:#e26f46; stroke-width:4; stroke-opacity:1; fill:none" points="
  3956.02,1278.32 3956.02,1024.91 
  "/>
<polyline clip-path="url(#clip2603)" style="stroke:#e26f46; stroke-width:4; stroke-opacity:1; fill:none" points="
  4201.93,1438.79 4201.93,1276.44 
  "/>
<polyline clip-path="url(#clip2603)" style="stroke:#e26f46; stroke-width:4; stroke-opacity:1; fill:none" points="
  4447.83,1473.2 4447.83,1287.4 
  "/>
<polyline clip-path="url(#clip2603)" style="stroke:#e26f46; stroke-width:4; stroke-opacity:1; fill:none" points="
  4693.74,1530.53 4693.74,1380.27 
  "/>
<line clip-path="url(#clip2603)" x1="2746.5" y1="1819.11" x2="2706.5" y2="1819.11" style="stroke:#000000; stroke-width:4; stroke-opacity:1"/>
<line clip-path="url(#clip2603)" x1="2746.5" y1="1753.08" x2="2706.5" y2="1753.08" style="stroke:#000000; stroke-width:4; stroke-opacity:1"/>
<line clip-path="url(#clip2603)" x1="2869.45" y1="1710.36" x2="2829.45" y2="1710.36" style="stroke:#000000; stroke-width:4; stroke-opacity:1"/>
<line clip-path="url(#clip2603)" x1="2869.45" y1="1660.91" x2="2829.45" y2="1660.91" style="stroke:#000000; stroke-width:4; stroke-opacity:1"/>
<line clip-path="url(#clip2603)" x1="2992.41" y1="1497.72" x2="2952.41" y2="1497.72" style="stroke:#000000; stroke-width:4; stroke-opacity:1"/>
<line clip-path="url(#clip2603)" x1="2992.41" y1="1151.29" x2="2952.41" y2="1151.29" style="stroke:#000000; stroke-width:4; stroke-opacity:1"/>
<line clip-path="url(#clip2603)" x1="3238.31" y1="1108.68" x2="3198.31" y2="1108.68" style="stroke:#000000; stroke-width:4; stroke-opacity:1"/>
<line clip-path="url(#clip2603)" x1="3238.31" y1="595.434" x2="3198.31" y2="595.434" style="stroke:#000000; stroke-width:4; stroke-opacity:1"/>
<line clip-path="url(#clip2603)" x1="3484.21" y1="1218.35" x2="3444.21" y2="1218.35" style="stroke:#000000; stroke-width:4; stroke-opacity:1"/>
<line clip-path="url(#clip2603)" x1="3484.21" y1="748.967" x2="3444.21" y2="748.967" style="stroke:#000000; stroke-width:4; stroke-opacity:1"/>
<line clip-path="url(#clip2603)" x1="3730.12" y1="1277.22" x2="3690.12" y2="1277.22" style="stroke:#000000; stroke-width:4; stroke-opacity:1"/>
<line clip-path="url(#clip2603)" x1="3730.12" y1="914.416" x2="3690.12" y2="914.416" style="stroke:#000000; stroke-width:4; stroke-opacity:1"/>
<line clip-path="url(#clip2603)" x1="3976.02" y1="1278.32" x2="3936.02" y2="1278.32" style="stroke:#000000; stroke-width:4; stroke-opacity:1"/>
<line clip-path="url(#clip2603)" x1="3976.02" y1="1024.91" x2="3936.02" y2="1024.91" style="stroke:#000000; stroke-width:4; stroke-opacity:1"/>
<line clip-path="url(#clip2603)" x1="4221.93" y1="1438.79" x2="4181.93" y2="1438.79" style="stroke:#000000; stroke-width:4; stroke-opacity:1"/>
<line clip-path="url(#clip2603)" x1="4221.93" y1="1276.44" x2="4181.93" y2="1276.44" style="stroke:#000000; stroke-width:4; stroke-opacity:1"/>
<line clip-path="url(#clip2603)" x1="4467.83" y1="1473.2" x2="4427.83" y2="1473.2" style="stroke:#000000; stroke-width:4; stroke-opacity:1"/>
<line clip-path="url(#clip2603)" x1="4467.83" y1="1287.4" x2="4427.83" y2="1287.4" style="stroke:#000000; stroke-width:4; stroke-opacity:1"/>
<line clip-path="url(#clip2603)" x1="4713.74" y1="1530.53" x2="4673.74" y2="1530.53" style="stroke:#000000; stroke-width:4; stroke-opacity:1"/>
<line clip-path="url(#clip2603)" x1="4713.74" y1="1380.27" x2="4673.74" y2="1380.27" style="stroke:#000000; stroke-width:4; stroke-opacity:1"/>
<path clip-path="url(#clip2600)" d="
M3803.78 664.469 L4608.76 664.469 L4608.76 392.309 L3803.78 392.309  Z
  " fill="#ffffff" fill-rule="evenodd" fill-opacity="1"/>
<polyline clip-path="url(#clip2600)" style="stroke:#000000; stroke-width:4; stroke-opacity:1; fill:none" points="
  3803.78,664.469 4608.76,664.469 4608.76,392.309 3803.78,392.309 3803.78,664.469 
  "/>
<polyline clip-path="url(#clip2600)" style="stroke:#009af9; stroke-width:4; stroke-opacity:1; fill:none" points="
  3851.78,483.029 4139.78,483.029 
  "/>
<g clip-path="url(#clip2600)">
<text style="fill:#000000; fill-opacity:1; font-family:Arial,Helvetica Neue,Helvetica,sans-serif; font-size:71px; text-anchor:start;" transform="rotate(0, 4187.78, 509.029)" x="4187.78" y="509.029">simulation</text>
</g>
<polyline clip-path="url(#clip2600)" style="stroke:#e26f46; stroke-width:4; stroke-opacity:1; fill:none" points="
  3851.78,573.749 4139.78,573.749 
  "/>
<g clip-path="url(#clip2600)">
<text style="fill:#000000; fill-opacity:1; font-family:Arial,Helvetica Neue,Helvetica,sans-serif; font-size:71px; text-anchor:start;" transform="rotate(0, 4187.78, 599.749)" x="4187.78" y="599.749">data</text>
</g>
<path clip-path="url(#clip2600)" d="
M267.483 4497.21 L2352.76 4497.21 L2352.76 2595.03 L267.483 2595.03  Z
  " fill="#ffffff" fill-rule="evenodd" fill-opacity="1"/>
<defs>
  <clipPath id="clip2604">
    <rect x="267" y="2595" width="2086" height="1903"/>
  </clipPath>
</defs>
<polyline clip-path="url(#clip2604)" style="stroke:#000000; stroke-width:2; stroke-opacity:0.1; fill:none" points="
  326.5,4497.21 326.5,2595.03 
  "/>
<polyline clip-path="url(#clip2604)" style="stroke:#000000; stroke-width:2; stroke-opacity:0.1; fill:none" points="
  818.31,4497.21 818.31,2595.03 
  "/>
<polyline clip-path="url(#clip2604)" style="stroke:#000000; stroke-width:2; stroke-opacity:0.1; fill:none" points="
  1310.12,4497.21 1310.12,2595.03 
  "/>
<polyline clip-path="url(#clip2604)" style="stroke:#000000; stroke-width:2; stroke-opacity:0.1; fill:none" points="
  1801.93,4497.21 1801.93,2595.03 
  "/>
<polyline clip-path="url(#clip2604)" style="stroke:#000000; stroke-width:2; stroke-opacity:0.1; fill:none" points="
  2293.74,4497.21 2293.74,2595.03 
  "/>
<polyline clip-path="url(#clip2604)" style="stroke:#000000; stroke-width:2; stroke-opacity:0.1; fill:none" points="
  267.483,4497.21 2352.76,4497.21 
  "/>
<polyline clip-path="url(#clip2604)" style="stroke:#000000; stroke-width:2; stroke-opacity:0.1; fill:none" points="
  267.483,4074.5 2352.76,4074.5 
  "/>
<polyline clip-path="url(#clip2604)" style="stroke:#000000; stroke-width:2; stroke-opacity:0.1; fill:none" points="
  267.483,3651.8 2352.76,3651.8 
  "/>
<polyline clip-path="url(#clip2604)" style="stroke:#000000; stroke-width:2; stroke-opacity:0.1; fill:none" points="
  267.483,3229.09 2352.76,3229.09 
  "/>
<polyline clip-path="url(#clip2604)" style="stroke:#000000; stroke-width:2; stroke-opacity:0.1; fill:none" points="
  267.483,2806.38 2352.76,2806.38 
  "/>
<polyline clip-path="url(#clip2600)" style="stroke:#000000; stroke-width:4; stroke-opacity:1; fill:none" points="
  267.483,4497.21 2352.76,4497.21 
  "/>
<polyline clip-path="url(#clip2600)" style="stroke:#000000; stroke-width:4; stroke-opacity:1; fill:none" points="
  267.483,4497.21 267.483,2595.03 
  "/>
<polyline clip-path="url(#clip2600)" style="stroke:#000000; stroke-width:4; stroke-opacity:1; fill:none" points="
  326.5,4497.21 326.5,4474.38 
  "/>
<polyline clip-path="url(#clip2600)" style="stroke:#000000; stroke-width:4; stroke-opacity:1; fill:none" points="
  818.31,4497.21 818.31,4474.38 
  "/>
<polyline clip-path="url(#clip2600)" style="stroke:#000000; stroke-width:4; stroke-opacity:1; fill:none" points="
  1310.12,4497.21 1310.12,4474.38 
  "/>
<polyline clip-path="url(#clip2600)" style="stroke:#000000; stroke-width:4; stroke-opacity:1; fill:none" points="
  1801.93,4497.21 1801.93,4474.38 
  "/>
<polyline clip-path="url(#clip2600)" style="stroke:#000000; stroke-width:4; stroke-opacity:1; fill:none" points="
  2293.74,4497.21 2293.74,4474.38 
  "/>
<polyline clip-path="url(#clip2600)" style="stroke:#000000; stroke-width:4; stroke-opacity:1; fill:none" points="
  267.483,4497.21 292.506,4497.21 
  "/>
<polyline clip-path="url(#clip2600)" style="stroke:#000000; stroke-width:4; stroke-opacity:1; fill:none" points="
  267.483,4074.5 292.506,4074.5 
  "/>
<polyline clip-path="url(#clip2600)" style="stroke:#000000; stroke-width:4; stroke-opacity:1; fill:none" points="
  267.483,3651.8 292.506,3651.8 
  "/>
<polyline clip-path="url(#clip2600)" style="stroke:#000000; stroke-width:4; stroke-opacity:1; fill:none" points="
  267.483,3229.09 292.506,3229.09 
  "/>
<polyline clip-path="url(#clip2600)" style="stroke:#000000; stroke-width:4; stroke-opacity:1; fill:none" points="
  267.483,2806.38 292.506,2806.38 
  "/>
<g clip-path="url(#clip2600)">
<text style="fill:#000000; fill-opacity:1; font-family:Arial,Helvetica Neue,Helvetica,sans-serif; font-size:71px; text-anchor:middle;" transform="rotate(0, 326.5, 4583.61)" x="326.5" y="4583.61">0</text>
</g>
<g clip-path="url(#clip2600)">
<text style="fill:#000000; fill-opacity:1; font-family:Arial,Helvetica Neue,Helvetica,sans-serif; font-size:71px; text-anchor:middle;" transform="rotate(0, 818.31, 4583.61)" x="818.31" y="4583.61">2</text>
</g>
<g clip-path="url(#clip2600)">
<text style="fill:#000000; fill-opacity:1; font-family:Arial,Helvetica Neue,Helvetica,sans-serif; font-size:71px; text-anchor:middle;" transform="rotate(0, 1310.12, 4583.61)" x="1310.12" y="4583.61">4</text>
</g>
<g clip-path="url(#clip2600)">
<text style="fill:#000000; fill-opacity:1; font-family:Arial,Helvetica Neue,Helvetica,sans-serif; font-size:71px; text-anchor:middle;" transform="rotate(0, 1801.93, 4583.61)" x="1801.93" y="4583.61">6</text>
</g>
<g clip-path="url(#clip2600)">
<text style="fill:#000000; fill-opacity:1; font-family:Arial,Helvetica Neue,Helvetica,sans-serif; font-size:71px; text-anchor:middle;" transform="rotate(0, 2293.74, 4583.61)" x="2293.74" y="4583.61">8</text>
</g>
<g clip-path="url(#clip2600)">
<text style="fill:#000000; fill-opacity:1; font-family:Arial,Helvetica Neue,Helvetica,sans-serif; font-size:71px; text-anchor:end;" transform="rotate(0, 219.483, 4523.21)" x="219.483" y="4523.21">0</text>
</g>
<g clip-path="url(#clip2600)">
<text style="fill:#000000; fill-opacity:1; font-family:Arial,Helvetica Neue,Helvetica,sans-serif; font-size:71px; text-anchor:end;" transform="rotate(0, 219.483, 4100.5)" x="219.483" y="4100.5">1</text>
</g>
<g clip-path="url(#clip2600)">
<text style="fill:#000000; fill-opacity:1; font-family:Arial,Helvetica Neue,Helvetica,sans-serif; font-size:71px; text-anchor:end;" transform="rotate(0, 219.483, 3677.8)" x="219.483" y="3677.8">2</text>
</g>
<g clip-path="url(#clip2600)">
<text style="fill:#000000; fill-opacity:1; font-family:Arial,Helvetica Neue,Helvetica,sans-serif; font-size:71px; text-anchor:end;" transform="rotate(0, 219.483, 3255.09)" x="219.483" y="3255.09">3</text>
</g>
<g clip-path="url(#clip2600)">
<text style="fill:#000000; fill-opacity:1; font-family:Arial,Helvetica Neue,Helvetica,sans-serif; font-size:71px; text-anchor:end;" transform="rotate(0, 219.483, 2832.38)" x="219.483" y="2832.38">4</text>
</g>
<g clip-path="url(#clip2600)">
<text style="fill:#000000; fill-opacity:1; font-family:Arial,Helvetica Neue,Helvetica,sans-serif; font-size:125px; text-anchor:middle;" transform="rotate(0, 1310.12, 2509.2)" x="1310.12" y="2509.2">Overweight hypothyroid patient 30 mcg (n = 2)</text>
</g>
<g clip-path="url(#clip2600)">
<text style="fill:#000000; fill-opacity:1; font-family:Arial,Helvetica Neue,Helvetica,sans-serif; font-size:95px; text-anchor:middle;" transform="rotate(0, 1310.12, 4707.46)" x="1310.12" y="4707.46">Time (hours)</text>
</g>
<g clip-path="url(#clip2600)">
<text style="fill:#000000; fill-opacity:1; font-family:Arial,Helvetica Neue,Helvetica,sans-serif; font-size:95px; text-anchor:middle;" transform="rotate(-90, 113.54, 3546.12)" x="113.54" y="3546.12">T3 mcg/L</text>
</g>
<path clip-path="url(#clip2604)" d="
M326.5 4140.87 L351.091 4128.27 L375.681 4091.81 L400.272 4046.47 L424.862 3997.15 L449.453 3946.75 L474.043 3896.81 L498.634 3848.51 L523.224 3802.63 L547.815 3759.86 
  L572.405 3720.85 L596.996 3692.16 L621.586 3666.54 L646.177 3643.29 L670.767 3623.9 L695.357 3607.79 L719.948 3591.66 L744.538 3581.18 L769.129 3573.21 L793.719 3562.11 
  L818.31 3560.96 L842.9 3555.77 L867.491 3554.32 L892.081 3555.77 L916.672 3555.17 L941.262 3560.19 L965.853 3562.02 L990.443 3568.68 L1015.03 3573.35 L1039.62 3580.4 
  L1064.21 3587.7 L1088.81 3594.51 L1113.4 3603.99 L1137.99 3610.99 L1162.58 3621.22 L1187.17 3629.72 L1211.76 3638.82 L1236.35 3649.27 L1260.94 3657.15 L1285.53 3668.53 
  L1310.12 3676.97 L1334.71 3687.13 L1359.3 3697.07 L1383.89 3705.43 L1408.48 3716.42 L1433.07 3724.2 L1457.66 3734.68 L1482.25 3743.27 L1506.84 3751.99 L1531.43 3761.63 
  L1556.02 3768.83 L1580.61 3778.78 L1605.21 3785.95 L1629.8 3794.66 L1654.39 3802.68 L1678.98 3809.58 L1703.57 3818.33 L1728.16 3824.31 L1752.75 3832.65 L1777.34 3839.08 
  L1801.93 3845.78 L1826.52 3853.07 L1851.11 3858.27 L1875.7 3865.85 L1900.29 3870.9 L1924.88 3877.41 L1949.47 3883.2 L1974.06 3888.08 L1998.65 3894.54 L2023.24 3899.81 
  L2047.83 3904.74 L2072.42 3911.37 L2097.01 3916.18 L2121.61 3921.73 L2146.2 3927.36 L2170.79 3931.39 L2195.38 3937.46 L2219.97 3941.22 L2244.56 3946.41 L2269.15 3950.9 
  L2293.74 3954.52 L2293.74 3947.55 L2269.15 3943.42 L2244.56 3940.21 L2219.97 3936.18 L2195.38 3931.48 L2170.79 3928.18 L2146.2 3922.59 L2121.61 3919.16 L2097.01 3913.93 
  L2072.42 3909.16 L2047.83 3904.46 L2023.24 3898.56 L1998.65 3892.94 L1974.06 3886.98 L1949.47 3880.91 L1924.88 3873.26 L1900.29 3867.7 L1875.7 3859.51 L1851.11 3853.06 
  L1826.52 3845.56 L1801.93 3837.24 L1777.34 3830.5 L1752.75 3821.02 L1728.16 3813.95 L1703.57 3804.89 L1678.98 3796 L1654.39 3787.86 L1629.8 3777.29 L1605.21 3769.39 
  L1580.61 3758.78 L1556.02 3749.44 L1531.43 3739.8 L1506.84 3728.48 L1482.25 3719.64 L1457.66 3707.61 L1433.07 3698.1 L1408.48 3687.02 L1383.89 3675.49 L1359.3 3665.8 
  L1334.71 3652.93 L1310.12 3643.53 L1285.53 3631.59 L1260.94 3620.52 L1236.35 3610.48 L1211.76 3597.99 L1187.17 3589.1 L1162.58 3577.61 L1137.99 3567.95 L1113.4 3558.8 
  L1088.81 3548.37 L1064.21 3541.36 L1039.62 3531.99 L1015.03 3526.08 L990.443 3519.43 L965.853 3514.05 L941.262 3511.21 L916.672 3506.41 L892.081 3508.49 L867.491 3505.69 
  L842.9 3511.55 L818.31 3515.49 L793.719 3520.55 L769.129 3533.87 L744.538 3543.27 L719.948 3558.58 L695.357 3578.3 L670.767 3598.6 L646.177 3623.52 L621.586 3652.49 
  L596.996 3684.46 L572.405 3720.3 L547.815 3752.72 L523.224 3787.22 L498.634 3824.26 L474.043 3863.32 L449.453 3903.71 L424.862 3944.48 L400.272 3984.33 L375.681 4020.83 
  L351.091 4049.64 L326.5 4057.6  Z
  " fill="#009af9" fill-rule="evenodd" fill-opacity="0.3"/>
<polyline clip-path="url(#clip2604)" style="stroke:#009af9; stroke-width:4; stroke-opacity:1; fill:none" points="
  326.5,4099.23 351.091,4088.95 375.681,4056.32 400.272,4015.4 424.862,3970.82 449.453,3925.23 474.043,3880.07 498.634,3836.38 523.224,3794.92 547.815,3756.29 
  572.405,3720.58 596.996,3688.31 621.586,3659.51 646.177,3633.41 670.767,3611.25 695.357,3593.04 719.948,3575.12 744.538,3562.23 769.129,3553.54 793.719,3541.33 
  818.31,3538.23 842.9,3533.66 867.491,3530 892.081,3532.13 916.672,3530.79 941.262,3535.7 965.853,3538.03 990.443,3544.06 1015.03,3549.72 1039.62,3556.19 
  1064.21,3564.53 1088.81,3571.44 1113.4,3581.4 1137.99,3589.47 1162.58,3599.41 1187.17,3609.41 1211.76,3618.41 1236.35,3629.88 1260.94,3638.83 1285.53,3650.06 
  1310.12,3660.25 1334.71,3670.03 1359.3,3681.43 1383.89,3690.46 1408.48,3701.72 1433.07,3711.15 1457.66,3721.15 1482.25,3731.46 1506.84,3740.23 1531.43,3750.72 
  1556.02,3759.14 1580.61,3768.78 1605.21,3777.67 1629.8,3785.98 1654.39,3795.27 1678.98,3802.79 1703.57,3811.61 1728.16,3819.13 1752.75,3826.83 1777.34,3834.79 
  1801.93,3841.51 1826.52,3849.31 1851.11,3855.67 1875.7,3862.68 1900.29,3869.3 1924.88,3875.34 1949.47,3882.06 1974.06,3887.53 1998.65,3893.74 2023.24,3899.19 
  2047.83,3904.6 2072.42,3910.26 2097.01,3915.05 2121.61,3920.44 2146.2,3924.97 2170.79,3929.78 2195.38,3934.47 2219.97,3938.7 2244.56,3943.31 2269.15,3947.16 
  2293.74,3951.03 
  "/>
<polyline clip-path="url(#clip2604)" style="stroke:#e26f46; stroke-width:4; stroke-opacity:1; fill:none" points="
  326.5,4099.23 449.453,4023.99 572.405,3910.49 818.31,3746.91 1064.21,3798.26 1310.12,3848.99 1556.02,3890.84 1801.93,3982.56 2047.83,4043.01 2293.74,4006.66 
  
  "/>
<polyline clip-path="url(#clip2604)" style="stroke:#e26f46; stroke-width:4; stroke-opacity:1; fill:none" points="
  326.5,4181.65 326.5,4016.82 
  "/>
<polyline clip-path="url(#clip2604)" style="stroke:#e26f46; stroke-width:4; stroke-opacity:1; fill:none" points="
  449.453,4144.2 449.453,3903.78 
  "/>
<polyline clip-path="url(#clip2604)" style="stroke:#e26f46; stroke-width:4; stroke-opacity:1; fill:none" points="
  572.405,4068.66 572.405,3752.33 
  "/>
<polyline clip-path="url(#clip2604)" style="stroke:#e26f46; stroke-width:4; stroke-opacity:1; fill:none" points="
  818.31,3868.13 818.31,3625.68 
  "/>
<polyline clip-path="url(#clip2604)" style="stroke:#e26f46; stroke-width:4; stroke-opacity:1; fill:none" points="
  1064.21,3927.86 1064.21,3668.67 
  "/>
<polyline clip-path="url(#clip2604)" style="stroke:#e26f46; stroke-width:4; stroke-opacity:1; fill:none" points="
  1310.12,3959.71 1310.12,3738.26 
  "/>
<polyline clip-path="url(#clip2604)" style="stroke:#e26f46; stroke-width:4; stroke-opacity:1; fill:none" points="
  1556.02,3999.53 1556.02,3782.15 
  "/>
<polyline clip-path="url(#clip2604)" style="stroke:#e26f46; stroke-width:4; stroke-opacity:1; fill:none" points="
  1801.93,4088.98 1801.93,3876.15 
  "/>
<polyline clip-path="url(#clip2604)" style="stroke:#e26f46; stroke-width:4; stroke-opacity:1; fill:none" points="
  2047.83,4150.92 2047.83,3935.1 
  "/>
<polyline clip-path="url(#clip2604)" style="stroke:#e26f46; stroke-width:4; stroke-opacity:1; fill:none" points="
  2293.74,4122.25 2293.74,3891.07 
  "/>
<line clip-path="url(#clip2604)" x1="346.5" y1="4181.65" x2="306.5" y2="4181.65" style="stroke:#000000; stroke-width:4; stroke-opacity:1"/>
<line clip-path="url(#clip2604)" x1="346.5" y1="4016.82" x2="306.5" y2="4016.82" style="stroke:#000000; stroke-width:4; stroke-opacity:1"/>
<line clip-path="url(#clip2604)" x1="469.453" y1="4144.2" x2="429.453" y2="4144.2" style="stroke:#000000; stroke-width:4; stroke-opacity:1"/>
<line clip-path="url(#clip2604)" x1="469.453" y1="3903.78" x2="429.453" y2="3903.78" style="stroke:#000000; stroke-width:4; stroke-opacity:1"/>
<line clip-path="url(#clip2604)" x1="592.405" y1="4068.66" x2="552.405" y2="4068.66" style="stroke:#000000; stroke-width:4; stroke-opacity:1"/>
<line clip-path="url(#clip2604)" x1="592.405" y1="3752.33" x2="552.405" y2="3752.33" style="stroke:#000000; stroke-width:4; stroke-opacity:1"/>
<line clip-path="url(#clip2604)" x1="838.31" y1="3868.13" x2="798.31" y2="3868.13" style="stroke:#000000; stroke-width:4; stroke-opacity:1"/>
<line clip-path="url(#clip2604)" x1="838.31" y1="3625.68" x2="798.31" y2="3625.68" style="stroke:#000000; stroke-width:4; stroke-opacity:1"/>
<line clip-path="url(#clip2604)" x1="1084.21" y1="3927.86" x2="1044.21" y2="3927.86" style="stroke:#000000; stroke-width:4; stroke-opacity:1"/>
<line clip-path="url(#clip2604)" x1="1084.21" y1="3668.67" x2="1044.21" y2="3668.67" style="stroke:#000000; stroke-width:4; stroke-opacity:1"/>
<line clip-path="url(#clip2604)" x1="1330.12" y1="3959.71" x2="1290.12" y2="3959.71" style="stroke:#000000; stroke-width:4; stroke-opacity:1"/>
<line clip-path="url(#clip2604)" x1="1330.12" y1="3738.26" x2="1290.12" y2="3738.26" style="stroke:#000000; stroke-width:4; stroke-opacity:1"/>
<line clip-path="url(#clip2604)" x1="1576.02" y1="3999.53" x2="1536.02" y2="3999.53" style="stroke:#000000; stroke-width:4; stroke-opacity:1"/>
<line clip-path="url(#clip2604)" x1="1576.02" y1="3782.15" x2="1536.02" y2="3782.15" style="stroke:#000000; stroke-width:4; stroke-opacity:1"/>
<line clip-path="url(#clip2604)" x1="1821.93" y1="4088.98" x2="1781.93" y2="4088.98" style="stroke:#000000; stroke-width:4; stroke-opacity:1"/>
<line clip-path="url(#clip2604)" x1="1821.93" y1="3876.15" x2="1781.93" y2="3876.15" style="stroke:#000000; stroke-width:4; stroke-opacity:1"/>
<line clip-path="url(#clip2604)" x1="2067.83" y1="4150.92" x2="2027.83" y2="4150.92" style="stroke:#000000; stroke-width:4; stroke-opacity:1"/>
<line clip-path="url(#clip2604)" x1="2067.83" y1="3935.1" x2="2027.83" y2="3935.1" style="stroke:#000000; stroke-width:4; stroke-opacity:1"/>
<line clip-path="url(#clip2604)" x1="2313.74" y1="4122.25" x2="2273.74" y2="4122.25" style="stroke:#000000; stroke-width:4; stroke-opacity:1"/>
<line clip-path="url(#clip2604)" x1="2313.74" y1="3891.07" x2="2273.74" y2="3891.07" style="stroke:#000000; stroke-width:4; stroke-opacity:1"/>
<path clip-path="url(#clip2600)" d="
M1403.78 3064.47 L2208.76 3064.47 L2208.76 2792.31 L1403.78 2792.31  Z
  " fill="#ffffff" fill-rule="evenodd" fill-opacity="1"/>
<polyline clip-path="url(#clip2600)" style="stroke:#000000; stroke-width:4; stroke-opacity:1; fill:none" points="
  1403.78,3064.47 2208.76,3064.47 2208.76,2792.31 1403.78,2792.31 1403.78,3064.47 
  "/>
<polyline clip-path="url(#clip2600)" style="stroke:#009af9; stroke-width:4; stroke-opacity:1; fill:none" points="
  1451.78,2883.03 1739.78,2883.03 
  "/>
<g clip-path="url(#clip2600)">
<text style="fill:#000000; fill-opacity:1; font-family:Arial,Helvetica Neue,Helvetica,sans-serif; font-size:71px; text-anchor:start;" transform="rotate(0, 1787.78, 2909.03)" x="1787.78" y="2909.03">simulation</text>
</g>
<polyline clip-path="url(#clip2600)" style="stroke:#e26f46; stroke-width:4; stroke-opacity:1; fill:none" points="
  1451.78,2973.75 1739.78,2973.75 
  "/>
<g clip-path="url(#clip2600)">
<text style="fill:#000000; fill-opacity:1; font-family:Arial,Helvetica Neue,Helvetica,sans-serif; font-size:71px; text-anchor:start;" transform="rotate(0, 1787.78, 2999.75)" x="1787.78" y="2999.75">data</text>
</g>
<path clip-path="url(#clip2600)" d="
M2667.48 4497.21 L4752.76 4497.21 L4752.76 2595.03 L2667.48 2595.03  Z
  " fill="#ffffff" fill-rule="evenodd" fill-opacity="1"/>
<defs>
  <clipPath id="clip2605">
    <rect x="2667" y="2595" width="2086" height="1903"/>
  </clipPath>
</defs>
<polyline clip-path="url(#clip2605)" style="stroke:#000000; stroke-width:2; stroke-opacity:0.1; fill:none" points="
  2726.5,4497.21 2726.5,2595.03 
  "/>
<polyline clip-path="url(#clip2605)" style="stroke:#000000; stroke-width:2; stroke-opacity:0.1; fill:none" points="
  3218.31,4497.21 3218.31,2595.03 
  "/>
<polyline clip-path="url(#clip2605)" style="stroke:#000000; stroke-width:2; stroke-opacity:0.1; fill:none" points="
  3710.12,4497.21 3710.12,2595.03 
  "/>
<polyline clip-path="url(#clip2605)" style="stroke:#000000; stroke-width:2; stroke-opacity:0.1; fill:none" points="
  4201.93,4497.21 4201.93,2595.03 
  "/>
<polyline clip-path="url(#clip2605)" style="stroke:#000000; stroke-width:2; stroke-opacity:0.1; fill:none" points="
  4693.74,4497.21 4693.74,2595.03 
  "/>
<polyline clip-path="url(#clip2605)" style="stroke:#000000; stroke-width:2; stroke-opacity:0.1; fill:none" points="
  2667.48,4497.21 4752.76,4497.21 
  "/>
<polyline clip-path="url(#clip2605)" style="stroke:#000000; stroke-width:2; stroke-opacity:0.1; fill:none" points="
  2667.48,4074.5 4752.76,4074.5 
  "/>
<polyline clip-path="url(#clip2605)" style="stroke:#000000; stroke-width:2; stroke-opacity:0.1; fill:none" points="
  2667.48,3651.8 4752.76,3651.8 
  "/>
<polyline clip-path="url(#clip2605)" style="stroke:#000000; stroke-width:2; stroke-opacity:0.1; fill:none" points="
  2667.48,3229.09 4752.76,3229.09 
  "/>
<polyline clip-path="url(#clip2605)" style="stroke:#000000; stroke-width:2; stroke-opacity:0.1; fill:none" points="
  2667.48,2806.38 4752.76,2806.38 
  "/>
<polyline clip-path="url(#clip2600)" style="stroke:#000000; stroke-width:4; stroke-opacity:1; fill:none" points="
  2667.48,4497.21 4752.76,4497.21 
  "/>
<polyline clip-path="url(#clip2600)" style="stroke:#000000; stroke-width:4; stroke-opacity:1; fill:none" points="
  2667.48,4497.21 2667.48,2595.03 
  "/>
<polyline clip-path="url(#clip2600)" style="stroke:#000000; stroke-width:4; stroke-opacity:1; fill:none" points="
  2726.5,4497.21 2726.5,4474.38 
  "/>
<polyline clip-path="url(#clip2600)" style="stroke:#000000; stroke-width:4; stroke-opacity:1; fill:none" points="
  3218.31,4497.21 3218.31,4474.38 
  "/>
<polyline clip-path="url(#clip2600)" style="stroke:#000000; stroke-width:4; stroke-opacity:1; fill:none" points="
  3710.12,4497.21 3710.12,4474.38 
  "/>
<polyline clip-path="url(#clip2600)" style="stroke:#000000; stroke-width:4; stroke-opacity:1; fill:none" points="
  4201.93,4497.21 4201.93,4474.38 
  "/>
<polyline clip-path="url(#clip2600)" style="stroke:#000000; stroke-width:4; stroke-opacity:1; fill:none" points="
  4693.74,4497.21 4693.74,4474.38 
  "/>
<polyline clip-path="url(#clip2600)" style="stroke:#000000; stroke-width:4; stroke-opacity:1; fill:none" points="
  2667.48,4497.21 2692.51,4497.21 
  "/>
<polyline clip-path="url(#clip2600)" style="stroke:#000000; stroke-width:4; stroke-opacity:1; fill:none" points="
  2667.48,4074.5 2692.51,4074.5 
  "/>
<polyline clip-path="url(#clip2600)" style="stroke:#000000; stroke-width:4; stroke-opacity:1; fill:none" points="
  2667.48,3651.8 2692.51,3651.8 
  "/>
<polyline clip-path="url(#clip2600)" style="stroke:#000000; stroke-width:4; stroke-opacity:1; fill:none" points="
  2667.48,3229.09 2692.51,3229.09 
  "/>
<polyline clip-path="url(#clip2600)" style="stroke:#000000; stroke-width:4; stroke-opacity:1; fill:none" points="
  2667.48,2806.38 2692.51,2806.38 
  "/>
<g clip-path="url(#clip2600)">
<text style="fill:#000000; fill-opacity:1; font-family:Arial,Helvetica Neue,Helvetica,sans-serif; font-size:71px; text-anchor:middle;" transform="rotate(0, 2726.5, 4583.61)" x="2726.5" y="4583.61">0</text>
</g>
<g clip-path="url(#clip2600)">
<text style="fill:#000000; fill-opacity:1; font-family:Arial,Helvetica Neue,Helvetica,sans-serif; font-size:71px; text-anchor:middle;" transform="rotate(0, 3218.31, 4583.61)" x="3218.31" y="4583.61">2</text>
</g>
<g clip-path="url(#clip2600)">
<text style="fill:#000000; fill-opacity:1; font-family:Arial,Helvetica Neue,Helvetica,sans-serif; font-size:71px; text-anchor:middle;" transform="rotate(0, 3710.12, 4583.61)" x="3710.12" y="4583.61">4</text>
</g>
<g clip-path="url(#clip2600)">
<text style="fill:#000000; fill-opacity:1; font-family:Arial,Helvetica Neue,Helvetica,sans-serif; font-size:71px; text-anchor:middle;" transform="rotate(0, 4201.93, 4583.61)" x="4201.93" y="4583.61">6</text>
</g>
<g clip-path="url(#clip2600)">
<text style="fill:#000000; fill-opacity:1; font-family:Arial,Helvetica Neue,Helvetica,sans-serif; font-size:71px; text-anchor:middle;" transform="rotate(0, 4693.74, 4583.61)" x="4693.74" y="4583.61">8</text>
</g>
<g clip-path="url(#clip2600)">
<text style="fill:#000000; fill-opacity:1; font-family:Arial,Helvetica Neue,Helvetica,sans-serif; font-size:71px; text-anchor:end;" transform="rotate(0, 2619.48, 4523.21)" x="2619.48" y="4523.21">0</text>
</g>
<g clip-path="url(#clip2600)">
<text style="fill:#000000; fill-opacity:1; font-family:Arial,Helvetica Neue,Helvetica,sans-serif; font-size:71px; text-anchor:end;" transform="rotate(0, 2619.48, 4100.5)" x="2619.48" y="4100.5">1</text>
</g>
<g clip-path="url(#clip2600)">
<text style="fill:#000000; fill-opacity:1; font-family:Arial,Helvetica Neue,Helvetica,sans-serif; font-size:71px; text-anchor:end;" transform="rotate(0, 2619.48, 3677.8)" x="2619.48" y="3677.8">2</text>
</g>
<g clip-path="url(#clip2600)">
<text style="fill:#000000; fill-opacity:1; font-family:Arial,Helvetica Neue,Helvetica,sans-serif; font-size:71px; text-anchor:end;" transform="rotate(0, 2619.48, 3255.09)" x="2619.48" y="3255.09">3</text>
</g>
<g clip-path="url(#clip2600)">
<text style="fill:#000000; fill-opacity:1; font-family:Arial,Helvetica Neue,Helvetica,sans-serif; font-size:71px; text-anchor:end;" transform="rotate(0, 2619.48, 2832.38)" x="2619.48" y="2832.38">4</text>
</g>
<g clip-path="url(#clip2600)">
<text style="fill:#000000; fill-opacity:1; font-family:Arial,Helvetica Neue,Helvetica,sans-serif; font-size:125px; text-anchor:middle;" transform="rotate(0, 3710.12, 2509.2)" x="3710.12" y="2509.2">Overweight hypothyroid patient 45 mcg (n = 4)</text>
</g>
<g clip-path="url(#clip2600)">
<text style="fill:#000000; fill-opacity:1; font-family:Arial,Helvetica Neue,Helvetica,sans-serif; font-size:95px; text-anchor:middle;" transform="rotate(0, 3710.12, 4707.46)" x="3710.12" y="4707.46">Time (hours)</text>
</g>
<g clip-path="url(#clip2600)">
<text style="fill:#000000; fill-opacity:1; font-family:Arial,Helvetica Neue,Helvetica,sans-serif; font-size:95px; text-anchor:middle;" transform="rotate(-90, 2513.54, 3546.12)" x="2513.54" y="3546.12">T3 mcg/L</text>
</g>
<path clip-path="url(#clip2605)" d="
M2726.5 4143.98 L2751.09 4125.09 L2775.68 4069.78 L2800.27 4000.18 L2824.86 3924.31 L2849.45 3846.49 L2874.04 3769.3 L2898.63 3694.54 L2923.22 3623.53 L2947.81 3557.14 
  L2972.41 3495.87 L2997 3440.26 L3021.59 3390.21 L3046.18 3345.64 L3070.77 3307.23 L3095.36 3274.01 L3119.95 3244.76 L3144.54 3221.74 L3169.13 3204.4 L3193.72 3187 
  L3218.31 3176.43 L3242.9 3171.52 L3267.49 3162.51 L3292.08 3164.47 L3316.67 3165.18 L3341.26 3168.27 L3365.85 3176.02 L3390.44 3181.69 L3415.03 3193.24 L3439.62 3202.65 
  L3464.21 3215.82 L3488.81 3229.32 L3513.4 3242.62 L3537.99 3259.04 L3562.58 3272.96 L3587.17 3290.32 L3611.76 3306.89 L3636.35 3322.7 L3660.94 3341.51 L3685.53 3356.77 
  L3710.12 3375.34 L3734.71 3392.86 L3759.3 3408.8 L3783.89 3427.94 L3808.48 3442.92 L3833.07 3461.11 L3857.66 3477.92 L3882.25 3493.22 L3906.84 3511.26 L3931.43 3525.17 
  L3956.02 3542.23 L3980.61 3557.41 L4005.21 3571.63 L4029.8 3587.99 L4054.39 3600.42 L4078.98 3615.98 L4103.57 3629.3 L4128.16 3642.11 L4152.75 3656.66 L4177.34 3667.49 
  L4201.93 3681.42 L4226.52 3692.89 L4251.11 3704.25 L4275.7 3717 L4300.29 3726.3 L4324.88 3738.64 L4349.47 3748.38 L4374.06 3758.36 L4398.65 3769.39 L4423.24 3777.34 
  L4447.83 3788.19 L4472.42 3796.38 L4497.01 3805.12 L4521.61 3814.58 L4546.2 3821.36 L4570.79 3830.86 L4595.38 3837.69 L4619.97 3845.34 L4644.56 3853.42 L4669.15 3859.22 
  L4693.74 3866.63 L4693.74 3795.02 L4669.15 3787.94 L4644.56 3781.01 L4619.97 3773.02 L4595.38 3765.51 L4570.79 3757.26 L4546.2 3748.84 L4521.61 3740.49 L4497.01 3731.31 
  L4472.42 3722.42 L4447.83 3712.91 L4423.24 3703.1 L4398.65 3693.32 L4374.06 3682.77 L4349.47 3672.33 L4324.88 3661.41 L4300.29 3649.98 L4275.7 3638.64 L4251.11 3626.55 
  L4226.52 3614.37 L4201.93 3601.91 L4177.34 3588.7 L4152.75 3575.7 L4128.16 3561.9 L4103.57 3547.9 L4078.98 3533.81 L4054.39 3518.73 L4029.8 3504.07 L4005.21 3488.5 
  L3980.61 3472.7 L3956.02 3457.02 L3931.43 3440.11 L3906.84 3424.01 L3882.25 3406.75 L3857.66 3389.45 L3833.07 3372.47 L3808.48 3354.05 L3783.89 3337.03 L3759.3 3318.59 
  L3734.71 3300.4 L3710.12 3282.9 L3685.53 3263.8 L3660.94 3246.76 L3636.35 3228.39 L3611.76 3210.5 L3587.17 3193.88 L3562.58 3175.9 L3537.99 3160.49 L3513.4 3144.29 
  L3488.81 3129.18 L3464.21 3115.78 L3439.62 3101.8 L3415.03 3091.47 L3390.44 3080.26 L3365.85 3072.73 L3341.26 3066.05 L3316.67 3061.02 L3292.08 3061.18 L3267.49 3059.31 
  L3242.9 3067.14 L3218.31 3073.69 L3193.72 3083.18 L3169.13 3101.69 L3144.54 3119.8 L3119.95 3143.21 L3095.36 3173.81 L3070.77 3208.17 L3046.18 3247.92 L3021.59 3294.26 
  L2997 3346.21 L2972.41 3403.96 L2947.81 3467.64 L2923.22 3536.65 L2898.63 3610.47 L2874.04 3688.23 L2849.45 3768.5 L2824.86 3849.46 L2800.27 3928.42 L2775.68 4000.88 
  L2751.09 4058.49 L2726.5 4077.95  Z
  " fill="#009af9" fill-rule="evenodd" fill-opacity="0.3"/>
<polyline clip-path="url(#clip2605)" style="stroke:#009af9; stroke-width:4; stroke-opacity:1; fill:none" points="
  2726.5,4110.96 2751.09,4091.79 2775.68,4035.33 2800.27,3964.3 2824.86,3886.88 2849.45,3807.49 2874.04,3728.76 2898.63,3652.51 2923.22,3580.09 2947.81,3512.39 
  2972.41,3449.91 2997,3393.24 3021.59,3342.23 3046.18,3296.78 3070.77,3257.7 3095.36,3223.91 3119.95,3193.99 3144.54,3170.77 3169.13,3153.04 3193.72,3135.09 
  3218.31,3125.06 3242.9,3119.33 3267.49,3110.91 3292.08,3112.83 3316.67,3113.1 3341.26,3117.16 3365.85,3124.38 3390.44,3130.98 3415.03,3142.36 3439.62,3152.22 
  3464.21,3165.8 3488.81,3179.25 3513.4,3193.45 3537.99,3209.77 3562.58,3224.43 3587.17,3242.1 3611.76,3258.7 3636.35,3275.55 3660.94,3294.14 3685.53,3310.29 
  3710.12,3329.12 3734.71,3346.63 3759.3,3363.69 3783.89,3382.48 3808.48,3398.49 3833.07,3416.79 3857.66,3433.68 3882.25,3449.98 3906.84,3467.64 3931.43,3482.64 
  3956.02,3499.62 3980.61,3515.06 4005.21,3530.06 4029.8,3546.03 4054.39,3559.57 4078.98,3574.89 4103.57,3588.6 4128.16,3602.01 4152.75,3616.18 4177.34,3628.1 
  4201.93,3641.67 4226.52,3653.63 4251.11,3665.4 4275.7,3677.82 4300.29,3688.14 4324.88,3700.02 4349.47,3710.35 4374.06,3720.57 4398.65,3731.35 4423.24,3740.22 
  4447.83,3750.55 4472.42,3759.4 4497.01,3768.21 4521.61,3777.53 4546.2,3785.1 4570.79,3794.06 4595.38,3801.6 4619.97,3809.18 4644.56,3817.21 4669.15,3823.58 
  4693.74,3830.83 
  "/>
<polyline clip-path="url(#clip2605)" style="stroke:#e26f46; stroke-width:4; stroke-opacity:1; fill:none" points="
  2726.5,4110.96 2849.45,3976.86 2972.41,3304.44 3218.31,2885.01 3464.21,3115.28 3710.12,3263.22 3956.02,3494.66 4201.93,3617.35 4447.83,3727.67 4693.74,3817.92 
  
  "/>
<polyline clip-path="url(#clip2605)" style="stroke:#e26f46; stroke-width:4; stroke-opacity:1; fill:none" points="
  2726.5,4143.98 2726.5,4077.95 
  "/>
<polyline clip-path="url(#clip2605)" style="stroke:#e26f46; stroke-width:4; stroke-opacity:1; fill:none" points="
  2849.45,4001.59 2849.45,3952.13 
  "/>
<polyline clip-path="url(#clip2605)" style="stroke:#e26f46; stroke-width:4; stroke-opacity:1; fill:none" points="
  2972.41,3477.65 2972.41,3131.22 
  "/>
<polyline clip-path="url(#clip2605)" style="stroke:#e26f46; stroke-width:4; stroke-opacity:1; fill:none" points="
  3218.31,3141.63 3218.31,2628.38 
  "/>
<polyline clip-path="url(#clip2605)" style="stroke:#e26f46; stroke-width:4; stroke-opacity:1; fill:none" points="
  3464.21,3349.97 3464.21,2880.58 
  "/>
<polyline clip-path="url(#clip2605)" style="stroke:#e26f46; stroke-width:4; stroke-opacity:1; fill:none" points="
  3710.12,3444.63 3710.12,3081.82 
  "/>
<polyline clip-path="url(#clip2605)" style="stroke:#e26f46; stroke-width:4; stroke-opacity:1; fill:none" points="
  3956.02,3621.36 3956.02,3367.95 
  "/>
<polyline clip-path="url(#clip2605)" style="stroke:#e26f46; stroke-width:4; stroke-opacity:1; fill:none" points="
  4201.93,3698.52 4201.93,3536.17 
  "/>
<polyline clip-path="url(#clip2605)" style="stroke:#e26f46; stroke-width:4; stroke-opacity:1; fill:none" points="
  4447.83,3820.57 4447.83,3634.77 
  "/>
<polyline clip-path="url(#clip2605)" style="stroke:#e26f46; stroke-width:4; stroke-opacity:1; fill:none" points="
  4693.74,3893.05 4693.74,3742.79 
  "/>
<line clip-path="url(#clip2605)" x1="2746.5" y1="4143.98" x2="2706.5" y2="4143.98" style="stroke:#000000; stroke-width:4; stroke-opacity:1"/>
<line clip-path="url(#clip2605)" x1="2746.5" y1="4077.95" x2="2706.5" y2="4077.95" style="stroke:#000000; stroke-width:4; stroke-opacity:1"/>
<line clip-path="url(#clip2605)" x1="2869.45" y1="4001.59" x2="2829.45" y2="4001.59" style="stroke:#000000; stroke-width:4; stroke-opacity:1"/>
<line clip-path="url(#clip2605)" x1="2869.45" y1="3952.13" x2="2829.45" y2="3952.13" style="stroke:#000000; stroke-width:4; stroke-opacity:1"/>
<line clip-path="url(#clip2605)" x1="2992.41" y1="3477.65" x2="2952.41" y2="3477.65" style="stroke:#000000; stroke-width:4; stroke-opacity:1"/>
<line clip-path="url(#clip2605)" x1="2992.41" y1="3131.22" x2="2952.41" y2="3131.22" style="stroke:#000000; stroke-width:4; stroke-opacity:1"/>
<line clip-path="url(#clip2605)" x1="3238.31" y1="3141.63" x2="3198.31" y2="3141.63" style="stroke:#000000; stroke-width:4; stroke-opacity:1"/>
<line clip-path="url(#clip2605)" x1="3238.31" y1="2628.38" x2="3198.31" y2="2628.38" style="stroke:#000000; stroke-width:4; stroke-opacity:1"/>
<line clip-path="url(#clip2605)" x1="3484.21" y1="3349.97" x2="3444.21" y2="3349.97" style="stroke:#000000; stroke-width:4; stroke-opacity:1"/>
<line clip-path="url(#clip2605)" x1="3484.21" y1="2880.58" x2="3444.21" y2="2880.58" style="stroke:#000000; stroke-width:4; stroke-opacity:1"/>
<line clip-path="url(#clip2605)" x1="3730.12" y1="3444.63" x2="3690.12" y2="3444.63" style="stroke:#000000; stroke-width:4; stroke-opacity:1"/>
<line clip-path="url(#clip2605)" x1="3730.12" y1="3081.82" x2="3690.12" y2="3081.82" style="stroke:#000000; stroke-width:4; stroke-opacity:1"/>
<line clip-path="url(#clip2605)" x1="3976.02" y1="3621.36" x2="3936.02" y2="3621.36" style="stroke:#000000; stroke-width:4; stroke-opacity:1"/>
<line clip-path="url(#clip2605)" x1="3976.02" y1="3367.95" x2="3936.02" y2="3367.95" style="stroke:#000000; stroke-width:4; stroke-opacity:1"/>
<line clip-path="url(#clip2605)" x1="4221.93" y1="3698.52" x2="4181.93" y2="3698.52" style="stroke:#000000; stroke-width:4; stroke-opacity:1"/>
<line clip-path="url(#clip2605)" x1="4221.93" y1="3536.17" x2="4181.93" y2="3536.17" style="stroke:#000000; stroke-width:4; stroke-opacity:1"/>
<line clip-path="url(#clip2605)" x1="4467.83" y1="3820.57" x2="4427.83" y2="3820.57" style="stroke:#000000; stroke-width:4; stroke-opacity:1"/>
<line clip-path="url(#clip2605)" x1="4467.83" y1="3634.77" x2="4427.83" y2="3634.77" style="stroke:#000000; stroke-width:4; stroke-opacity:1"/>
<line clip-path="url(#clip2605)" x1="4713.74" y1="3893.05" x2="4673.74" y2="3893.05" style="stroke:#000000; stroke-width:4; stroke-opacity:1"/>
<line clip-path="url(#clip2605)" x1="4713.74" y1="3742.79" x2="4673.74" y2="3742.79" style="stroke:#000000; stroke-width:4; stroke-opacity:1"/>
<path clip-path="url(#clip2600)" d="
M3803.78 3064.47 L4608.76 3064.47 L4608.76 2792.31 L3803.78 2792.31  Z
  " fill="#ffffff" fill-rule="evenodd" fill-opacity="1"/>
<polyline clip-path="url(#clip2600)" style="stroke:#000000; stroke-width:4; stroke-opacity:1; fill:none" points="
  3803.78,3064.47 4608.76,3064.47 4608.76,2792.31 3803.78,2792.31 3803.78,3064.47 
  "/>
<polyline clip-path="url(#clip2600)" style="stroke:#009af9; stroke-width:4; stroke-opacity:1; fill:none" points="
  3851.78,2883.03 4139.78,2883.03 
  "/>
<g clip-path="url(#clip2600)">
<text style="fill:#000000; fill-opacity:1; font-family:Arial,Helvetica Neue,Helvetica,sans-serif; font-size:71px; text-anchor:start;" transform="rotate(0, 4187.78, 2909.03)" x="4187.78" y="2909.03">simulation</text>
</g>
<polyline clip-path="url(#clip2600)" style="stroke:#e26f46; stroke-width:4; stroke-opacity:1; fill:none" points="
  3851.78,2973.75 4139.78,2973.75 
  "/>
<g clip-path="url(#clip2600)">
<text style="fill:#000000; fill-opacity:1; font-family:Arial,Helvetica Neue,Helvetica,sans-serif; font-size:71px; text-anchor:start;" transform="rotate(0, 4187.78, 2999.75)" x="4187.78" y="2999.75">data</text>
</g>
</svg>
