<?xml version="1.0" encoding="utf-8"?>
<svg xmlns="http://www.w3.org/2000/svg" xmlns:xlink="http://www.w3.org/1999/xlink" width="1200" height="1200" viewBox="0 0 4800 4800">
<defs>
  <clipPath id="clip0100">
    <rect x="0" y="0" width="4800" height="4800"/>
  </clipPath>
</defs>
<path clip-path="url(#clip0100)" d="
M0 4800 L4800 4800 L4800 0 L0 0  Z
  " fill="#ffffff" fill-rule="evenodd" fill-opacity="1"/>
<defs>
  <clipPath id="clip0101">
    <rect x="960" y="480" width="3361" height="3361"/>
  </clipPath>
</defs>
<path clip-path="url(#clip0100)" d="
M337.855 2009.19 L2352.76 2009.19 L2352.76 264.191 L337.855 264.191  Z
  " fill="#ffffff" fill-rule="evenodd" fill-opacity="1"/>
<defs>
  <clipPath id="clip0102">
    <rect x="337" y="264" width="2016" height="1746"/>
  </clipPath>
</defs>
<polyline clip-path="url(#clip0102)" style="stroke:#000000; stroke-width:2; stroke-opacity:0.1; fill:none" points="
  394.88,2009.19 394.88,264.191 
  "/>
<polyline clip-path="url(#clip0102)" style="stroke:#000000; stroke-width:2; stroke-opacity:0.1; fill:none" points="
  870.093,2009.19 870.093,264.191 
  "/>
<polyline clip-path="url(#clip0102)" style="stroke:#000000; stroke-width:2; stroke-opacity:0.1; fill:none" points="
  1345.31,2009.19 1345.31,264.191 
  "/>
<polyline clip-path="url(#clip0102)" style="stroke:#000000; stroke-width:2; stroke-opacity:0.1; fill:none" points="
  1820.52,2009.19 1820.52,264.191 
  "/>
<polyline clip-path="url(#clip0102)" style="stroke:#000000; stroke-width:2; stroke-opacity:0.1; fill:none" points="
  2295.73,2009.19 2295.73,264.191 
  "/>
<polyline clip-path="url(#clip0102)" style="stroke:#000000; stroke-width:2; stroke-opacity:0.1; fill:none" points="
  337.855,2009.19 2352.76,2009.19 
  "/>
<polyline clip-path="url(#clip0102)" style="stroke:#000000; stroke-width:2; stroke-opacity:0.1; fill:none" points="
  337.855,1621.41 2352.76,1621.41 
  "/>
<polyline clip-path="url(#clip0102)" style="stroke:#000000; stroke-width:2; stroke-opacity:0.1; fill:none" points="
  337.855,1233.63 2352.76,1233.63 
  "/>
<polyline clip-path="url(#clip0102)" style="stroke:#000000; stroke-width:2; stroke-opacity:0.1; fill:none" points="
  337.855,845.856 2352.76,845.856 
  "/>
<polyline clip-path="url(#clip0102)" style="stroke:#000000; stroke-width:2; stroke-opacity:0.1; fill:none" points="
  337.855,458.079 2352.76,458.079 
  "/>
<polyline clip-path="url(#clip0100)" style="stroke:#000000; stroke-width:4; stroke-opacity:1; fill:none" points="
  337.855,2009.19 2352.76,2009.19 
  "/>
<polyline clip-path="url(#clip0100)" style="stroke:#000000; stroke-width:4; stroke-opacity:1; fill:none" points="
  337.855,2009.19 337.855,264.191 
  "/>
<polyline clip-path="url(#clip0100)" style="stroke:#000000; stroke-width:4; stroke-opacity:1; fill:none" points="
  394.88,2009.19 394.88,1988.25 
  "/>
<polyline clip-path="url(#clip0100)" style="stroke:#000000; stroke-width:4; stroke-opacity:1; fill:none" points="
  870.093,2009.19 870.093,1988.25 
  "/>
<polyline clip-path="url(#clip0100)" style="stroke:#000000; stroke-width:4; stroke-opacity:1; fill:none" points="
  1345.31,2009.19 1345.31,1988.25 
  "/>
<polyline clip-path="url(#clip0100)" style="stroke:#000000; stroke-width:4; stroke-opacity:1; fill:none" points="
  1820.52,2009.19 1820.52,1988.25 
  "/>
<polyline clip-path="url(#clip0100)" style="stroke:#000000; stroke-width:4; stroke-opacity:1; fill:none" points="
  2295.73,2009.19 2295.73,1988.25 
  "/>
<polyline clip-path="url(#clip0100)" style="stroke:#000000; stroke-width:4; stroke-opacity:1; fill:none" points="
  337.855,2009.19 362.033,2009.19 
  "/>
<polyline clip-path="url(#clip0100)" style="stroke:#000000; stroke-width:4; stroke-opacity:1; fill:none" points="
  337.855,1621.41 362.033,1621.41 
  "/>
<polyline clip-path="url(#clip0100)" style="stroke:#000000; stroke-width:4; stroke-opacity:1; fill:none" points="
  337.855,1233.63 362.033,1233.63 
  "/>
<polyline clip-path="url(#clip0100)" style="stroke:#000000; stroke-width:4; stroke-opacity:1; fill:none" points="
  337.855,845.856 362.033,845.856 
  "/>
<polyline clip-path="url(#clip0100)" style="stroke:#000000; stroke-width:4; stroke-opacity:1; fill:none" points="
  337.855,458.079 362.033,458.079 
  "/>
<g clip-path="url(#clip0100)">
<text style="fill:#000000; fill-opacity:1; font-family:Arial,Helvetica Neue,Helvetica,sans-serif; font-size:107px; text-anchor:middle;" transform="rotate(0, 394.88, 2126.79)" x="394.88" y="2126.79">0</text>
</g>
<g clip-path="url(#clip0100)">
<text style="fill:#000000; fill-opacity:1; font-family:Arial,Helvetica Neue,Helvetica,sans-serif; font-size:107px; text-anchor:middle;" transform="rotate(0, 870.093, 2126.79)" x="870.093" y="2126.79">2</text>
</g>
<g clip-path="url(#clip0100)">
<text style="fill:#000000; fill-opacity:1; font-family:Arial,Helvetica Neue,Helvetica,sans-serif; font-size:107px; text-anchor:middle;" transform="rotate(0, 1345.31, 2126.79)" x="1345.31" y="2126.79">4</text>
</g>
<g clip-path="url(#clip0100)">
<text style="fill:#000000; fill-opacity:1; font-family:Arial,Helvetica Neue,Helvetica,sans-serif; font-size:107px; text-anchor:middle;" transform="rotate(0, 1820.52, 2126.79)" x="1820.52" y="2126.79">6</text>
</g>
<g clip-path="url(#clip0100)">
<text style="fill:#000000; fill-opacity:1; font-family:Arial,Helvetica Neue,Helvetica,sans-serif; font-size:107px; text-anchor:middle;" transform="rotate(0, 2295.73, 2126.79)" x="2295.73" y="2126.79">8</text>
</g>
<g clip-path="url(#clip0100)">
<text style="fill:#000000; fill-opacity:1; font-family:Arial,Helvetica Neue,Helvetica,sans-serif; font-size:107px; text-anchor:end;" transform="rotate(0, 289.855, 2048.19)" x="289.855" y="2048.19">0</text>
</g>
<g clip-path="url(#clip0100)">
<text style="fill:#000000; fill-opacity:1; font-family:Arial,Helvetica Neue,Helvetica,sans-serif; font-size:107px; text-anchor:end;" transform="rotate(0, 289.855, 1660.41)" x="289.855" y="1660.41">1</text>
</g>
<g clip-path="url(#clip0100)">
<text style="fill:#000000; fill-opacity:1; font-family:Arial,Helvetica Neue,Helvetica,sans-serif; font-size:107px; text-anchor:end;" transform="rotate(0, 289.855, 1272.63)" x="289.855" y="1272.63">2</text>
</g>
<g clip-path="url(#clip0100)">
<text style="fill:#000000; fill-opacity:1; font-family:Arial,Helvetica Neue,Helvetica,sans-serif; font-size:107px; text-anchor:end;" transform="rotate(0, 289.855, 884.856)" x="289.855" y="884.856">3</text>
</g>
<g clip-path="url(#clip0100)">
<text style="fill:#000000; fill-opacity:1; font-family:Arial,Helvetica Neue,Helvetica,sans-serif; font-size:107px; text-anchor:end;" transform="rotate(0, 289.855, 497.079)" x="289.855" y="497.079">4</text>
</g>
<g clip-path="url(#clip0100)">
<text style="fill:#000000; fill-opacity:1; font-family:Arial,Helvetica Neue,Helvetica,sans-serif; font-size:189px; text-anchor:middle;" transform="rotate(0, 1345.31, 165.6)" x="1345.31" y="165.6">Normal hypothyroid patient 30 mcg (n = 6)</text>
</g>
<g clip-path="url(#clip0100)">
<text style="fill:#000000; fill-opacity:1; font-family:Arial,Helvetica Neue,Helvetica,sans-serif; font-size:143px; text-anchor:middle;" transform="rotate(0, 1345.31, 2300.46)" x="1345.31" y="2300.46">Time (hours)</text>
</g>
<g clip-path="url(#clip0100)">
<text style="fill:#000000; fill-opacity:1; font-family:Arial,Helvetica Neue,Helvetica,sans-serif; font-size:143px; text-anchor:middle;" transform="rotate(-90, 155.54, 1136.69)" x="155.54" y="1136.69">T3 mcg/L</text>
</g>
<path clip-path="url(#clip0102)" d="
M394.88 1653.91 L418.641 1649.79 L442.401 1620.08 L466.162 1581.29 L489.923 1538.94 L513.683 1495.64 L537.444 1452.92 L561.204 1411.88 L584.965 1373.27 L608.726 1337.65 
  L632.486 1305.17 L656.247 1276.28 L680.008 1250.87 L703.768 1228.47 L727.529 1210.22 L751.29 1195.13 L775.05 1181.34 L798.811 1172.8 L822.571 1166.3 L846.332 1159.76 
  L870.093 1158.87 L893.853 1158.05 L917.614 1158.73 L941.375 1162.83 L965.135 1166.49 L988.896 1173.04 L1012.66 1179.69 L1036.42 1187.82 L1060.18 1196.69 L1083.94 1205.99 
  L1107.7 1216.41 L1131.46 1226.62 L1155.22 1237.97 L1178.98 1249.03 L1202.74 1260.72 L1226.5 1272.62 L1250.26 1284.17 L1274.02 1296.51 L1297.78 1307.98 L1321.54 1320.16 
  L1345.31 1331.93 L1369.07 1343.49 L1392.83 1355.49 L1416.59 1366.48 L1440.35 1378.2 L1464.11 1388.89 L1487.87 1399.95 L1511.63 1410.67 L1535.39 1420.85 L1559.15 1431.44 
  L1582.91 1440.87 L1606.67 1451.04 L1630.43 1460.04 L1654.19 1469.5 L1677.95 1478.38 L1701.71 1486.9 L1725.48 1495.64 L1749.24 1503.28 L1773 1511.73 L1796.76 1518.86 
  L1820.52 1526.76 L1844.28 1533.66 L1868.04 1540.68 L1891.8 1547.51 L1915.56 1553.63 L1939.32 1560.41 L1963.08 1565.89 L1986.84 1572.32 L2010.6 1577.51 L2034.36 1583.23 
  L2058.12 1588.41 L2081.88 1593.29 L2105.65 1598.56 L2129.41 1602.77 L2153.17 1607.83 L2176.93 1611.75 L2200.69 1616.25 L2224.45 1620.23 L2248.21 1624.02 L2271.97 1627.9 
  L2295.73 1631.29 L2295.73 1568.37 L2271.97 1564.76 L2248.21 1561.43 L2224.45 1557.02 L2200.69 1553.59 L2176.93 1548.76 L2153.17 1545 L2129.41 1540.01 L2105.65 1535.57 
  L2081.88 1530.65 L2058.12 1525.33 L2034.36 1520.56 L2010.6 1514.43 L1986.84 1509.53 L1963.08 1502.9 L1939.32 1497.48 L1915.56 1490.69 L1891.8 1484.42 L1868.04 1477.67 
  L1844.28 1470.42 L1820.52 1463.6 L1796.76 1455.53 L1773 1448.39 L1749.24 1439.79 L1725.48 1432.06 L1701.71 1423.12 L1677.95 1414.54 L1654.19 1405.38 L1630.43 1395.9 
  L1606.67 1386.56 L1582.91 1376.3 L1559.15 1366.59 L1535.39 1355.73 L1511.63 1345.38 L1487.87 1334.18 L1464.11 1323.04 L1440.35 1311.7 L1416.59 1299.8 L1392.83 1288.26 
  L1369.07 1275.9 L1345.31 1263.95 L1321.54 1251.59 L1297.78 1239.01 L1274.02 1226.9 L1250.26 1213.89 L1226.5 1201.86 L1202.74 1189.06 L1178.98 1176.91 L1155.22 1164.99 
  L1131.46 1152.84 L1107.7 1141.97 L1083.94 1130.39 L1060.18 1120.6 L1036.42 1110.27 L1012.66 1101.79 L988.896 1093.36 L965.135 1086.56 L941.375 1080.83 L917.614 1076.29 
  L893.853 1073.82 L870.093 1073.06 L846.332 1073.68 L822.571 1076.83 L798.811 1083.49 L775.05 1089.31 L751.29 1101.22 L727.529 1114.7 L703.768 1130.23 L680.008 1150.25 
  L656.247 1172.99 L632.486 1198.82 L608.726 1228.06 L584.965 1260.15 L561.204 1294.94 L537.444 1331.88 L513.683 1370.25 L489.923 1409 L466.162 1446.67 L442.401 1480.69 
  L418.641 1505.45 L394.88 1502.7  Z
  " fill="#009af9" fill-rule="evenodd" fill-opacity="0.3"/>
<polyline clip-path="url(#clip0102)" style="stroke:#009af9; stroke-width:4; stroke-opacity:1; fill:none" points="
  394.88,1578.3 418.641,1577.62 442.401,1550.39 466.162,1513.98 489.923,1473.97 513.683,1432.94 537.444,1392.4 561.204,1353.41 584.965,1316.71 608.726,1282.85 
  632.486,1251.99 656.247,1224.64 680.008,1200.56 703.768,1179.35 727.529,1162.46 751.29,1148.18 775.05,1135.32 798.811,1128.15 822.571,1121.56 846.332,1116.72 
  870.093,1115.97 893.853,1115.93 917.614,1117.51 941.375,1121.83 965.135,1126.52 988.896,1133.2 1012.66,1140.74 1036.42,1149.04 1060.18,1158.64 1083.94,1168.19 
  1107.7,1179.19 1131.46,1189.73 1155.22,1201.48 1178.98,1212.97 1202.74,1224.89 1226.5,1237.24 1250.26,1249.03 1274.02,1261.71 1297.78,1273.49 1321.54,1285.88 
  1345.31,1297.94 1369.07,1309.7 1392.83,1321.87 1416.59,1333.14 1440.35,1344.95 1464.11,1355.97 1487.87,1367.06 1511.63,1378.02 1535.39,1388.29 1559.15,1399.01 
  1582.91,1408.58 1606.67,1418.8 1630.43,1427.97 1654.19,1437.44 1677.95,1446.46 1701.71,1455.01 1725.48,1463.85 1749.24,1471.54 1773,1480.06 1796.76,1487.2 
  1820.52,1495.18 1844.28,1502.04 1868.04,1509.18 1891.8,1515.96 1915.56,1522.16 1939.32,1528.94 1963.08,1534.39 1986.84,1540.93 2010.6,1545.97 2034.36,1551.89 
  2058.12,1556.87 2081.88,1561.97 2105.65,1567.07 2129.41,1571.39 2153.17,1576.42 2176.93,1580.26 2200.69,1584.92 2224.45,1588.62 2248.21,1592.72 2271.97,1596.33 
  2295.73,1599.83 
  "/>
<polyline clip-path="url(#clip0102)" style="stroke:#e26f46; stroke-width:4; stroke-opacity:1; fill:none" points="
  394.88,1578.3 513.683,1448.72 632.486,1159.12 870.093,977.571 1107.7,1086.15 1345.31,1208.1 1582.91,1315.45 1820.52,1373.43 2058.12,1392.3 2295.73,1411.11 
  
  "/>
<polyline clip-path="url(#clip0102)" style="stroke:#e26f46; stroke-width:4; stroke-opacity:1; fill:none" points="
  394.88,1653.91 394.88,1502.7 
  "/>
<polyline clip-path="url(#clip0102)" style="stroke:#e26f46; stroke-width:4; stroke-opacity:1; fill:none" points="
  513.683,1559 513.683,1338.44 
  "/>
<polyline clip-path="url(#clip0102)" style="stroke:#e26f46; stroke-width:4; stroke-opacity:1; fill:none" points="
  632.486,1304.21 632.486,1014.02 
  "/>
<polyline clip-path="url(#clip0102)" style="stroke:#e26f46; stroke-width:4; stroke-opacity:1; fill:none" points="
  870.093,1088.78 870.093,866.36 
  "/>
<polyline clip-path="url(#clip0102)" style="stroke:#e26f46; stroke-width:4; stroke-opacity:1; fill:none" points="
  1107.7,1205.03 1107.7,967.264 
  "/>
<polyline clip-path="url(#clip0102)" style="stroke:#e26f46; stroke-width:4; stroke-opacity:1; fill:none" points="
  1345.31,1309.68 1345.31,1106.53 
  "/>
<polyline clip-path="url(#clip0102)" style="stroke:#e26f46; stroke-width:4; stroke-opacity:1; fill:none" points="
  1582.91,1415.16 1582.91,1215.75 
  "/>
<polyline clip-path="url(#clip0102)" style="stroke:#e26f46; stroke-width:4; stroke-opacity:1; fill:none" points="
  1820.52,1471.05 1820.52,1275.8 
  "/>
<polyline clip-path="url(#clip0102)" style="stroke:#e26f46; stroke-width:4; stroke-opacity:1; fill:none" points="
  2058.12,1491.29 2058.12,1293.31 
  "/>
<polyline clip-path="url(#clip0102)" style="stroke:#e26f46; stroke-width:4; stroke-opacity:1; fill:none" points="
  2295.73,1517.14 2295.73,1305.07 
  "/>
<line clip-path="url(#clip0102)" x1="414.88" y1="1653.91" x2="374.88" y2="1653.91" style="stroke:#000000; stroke-width:4; stroke-opacity:1"/>
<line clip-path="url(#clip0102)" x1="414.88" y1="1502.7" x2="374.88" y2="1502.7" style="stroke:#000000; stroke-width:4; stroke-opacity:1"/>
<line clip-path="url(#clip0102)" x1="533.683" y1="1559" x2="493.683" y2="1559" style="stroke:#000000; stroke-width:4; stroke-opacity:1"/>
<line clip-path="url(#clip0102)" x1="533.683" y1="1338.44" x2="493.683" y2="1338.44" style="stroke:#000000; stroke-width:4; stroke-opacity:1"/>
<line clip-path="url(#clip0102)" x1="652.486" y1="1304.21" x2="612.486" y2="1304.21" style="stroke:#000000; stroke-width:4; stroke-opacity:1"/>
<line clip-path="url(#clip0102)" x1="652.486" y1="1014.02" x2="612.486" y2="1014.02" style="stroke:#000000; stroke-width:4; stroke-opacity:1"/>
<line clip-path="url(#clip0102)" x1="890.093" y1="1088.78" x2="850.093" y2="1088.78" style="stroke:#000000; stroke-width:4; stroke-opacity:1"/>
<line clip-path="url(#clip0102)" x1="890.093" y1="866.36" x2="850.093" y2="866.36" style="stroke:#000000; stroke-width:4; stroke-opacity:1"/>
<line clip-path="url(#clip0102)" x1="1127.7" y1="1205.03" x2="1087.7" y2="1205.03" style="stroke:#000000; stroke-width:4; stroke-opacity:1"/>
<line clip-path="url(#clip0102)" x1="1127.7" y1="967.264" x2="1087.7" y2="967.264" style="stroke:#000000; stroke-width:4; stroke-opacity:1"/>
<line clip-path="url(#clip0102)" x1="1365.31" y1="1309.68" x2="1325.31" y2="1309.68" style="stroke:#000000; stroke-width:4; stroke-opacity:1"/>
<line clip-path="url(#clip0102)" x1="1365.31" y1="1106.53" x2="1325.31" y2="1106.53" style="stroke:#000000; stroke-width:4; stroke-opacity:1"/>
<line clip-path="url(#clip0102)" x1="1602.91" y1="1415.16" x2="1562.91" y2="1415.16" style="stroke:#000000; stroke-width:4; stroke-opacity:1"/>
<line clip-path="url(#clip0102)" x1="1602.91" y1="1215.75" x2="1562.91" y2="1215.75" style="stroke:#000000; stroke-width:4; stroke-opacity:1"/>
<line clip-path="url(#clip0102)" x1="1840.52" y1="1471.05" x2="1800.52" y2="1471.05" style="stroke:#000000; stroke-width:4; stroke-opacity:1"/>
<line clip-path="url(#clip0102)" x1="1840.52" y1="1275.8" x2="1800.52" y2="1275.8" style="stroke:#000000; stroke-width:4; stroke-opacity:1"/>
<line clip-path="url(#clip0102)" x1="2078.12" y1="1491.29" x2="2038.12" y2="1491.29" style="stroke:#000000; stroke-width:4; stroke-opacity:1"/>
<line clip-path="url(#clip0102)" x1="2078.12" y1="1293.31" x2="2038.12" y2="1293.31" style="stroke:#000000; stroke-width:4; stroke-opacity:1"/>
<line clip-path="url(#clip0102)" x1="2315.73" y1="1517.14" x2="2275.73" y2="1517.14" style="stroke:#000000; stroke-width:4; stroke-opacity:1"/>
<line clip-path="url(#clip0102)" x1="2315.73" y1="1305.07" x2="2275.73" y2="1305.07" style="stroke:#000000; stroke-width:4; stroke-opacity:1"/>
<path clip-path="url(#clip0100)" d="
M1241.29 824.351 L2208.76 824.351 L2208.76 416.111 L1241.29 416.111  Z
  " fill="#ffffff" fill-rule="evenodd" fill-opacity="1"/>
<polyline clip-path="url(#clip0100)" style="stroke:#000000; stroke-width:4; stroke-opacity:1; fill:none" points="
  1241.29,824.351 2208.76,824.351 2208.76,416.111 1241.29,416.111 1241.29,824.351 
  "/>
<polyline clip-path="url(#clip0100)" style="stroke:#009af9; stroke-width:4; stroke-opacity:1; fill:none" points="
  1289.29,552.191 1577.29,552.191 
  "/>
<g clip-path="url(#clip0100)">
<text style="fill:#000000; fill-opacity:1; font-family:Arial,Helvetica Neue,Helvetica,sans-serif; font-size:107px; text-anchor:start;" transform="rotate(0, 1625.29, 591.191)" x="1625.29" y="591.191">simulation</text>
</g>
<polyline clip-path="url(#clip0100)" style="stroke:#e26f46; stroke-width:4; stroke-opacity:1; fill:none" points="
  1289.29,688.271 1577.29,688.271 
  "/>
<g clip-path="url(#clip0100)">
<text style="fill:#000000; fill-opacity:1; font-family:Arial,Helvetica Neue,Helvetica,sans-serif; font-size:107px; text-anchor:start;" transform="rotate(0, 1625.29, 727.271)" x="1625.29" y="727.271">data</text>
</g>
<path clip-path="url(#clip0100)" d="
M2737.85 2009.19 L4752.76 2009.19 L4752.76 264.191 L2737.85 264.191  Z
  " fill="#ffffff" fill-rule="evenodd" fill-opacity="1"/>
<defs>
  <clipPath id="clip0103">
    <rect x="2737" y="264" width="2016" height="1746"/>
  </clipPath>
</defs>
<polyline clip-path="url(#clip0103)" style="stroke:#000000; stroke-width:2; stroke-opacity:0.1; fill:none" points="
  2794.88,2009.19 2794.88,264.191 
  "/>
<polyline clip-path="url(#clip0103)" style="stroke:#000000; stroke-width:2; stroke-opacity:0.1; fill:none" points="
  3270.09,2009.19 3270.09,264.191 
  "/>
<polyline clip-path="url(#clip0103)" style="stroke:#000000; stroke-width:2; stroke-opacity:0.1; fill:none" points="
  3745.31,2009.19 3745.31,264.191 
  "/>
<polyline clip-path="url(#clip0103)" style="stroke:#000000; stroke-width:2; stroke-opacity:0.1; fill:none" points="
  4220.52,2009.19 4220.52,264.191 
  "/>
<polyline clip-path="url(#clip0103)" style="stroke:#000000; stroke-width:2; stroke-opacity:0.1; fill:none" points="
  4695.73,2009.19 4695.73,264.191 
  "/>
<polyline clip-path="url(#clip0103)" style="stroke:#000000; stroke-width:2; stroke-opacity:0.1; fill:none" points="
  2737.85,2009.19 4752.76,2009.19 
  "/>
<polyline clip-path="url(#clip0103)" style="stroke:#000000; stroke-width:2; stroke-opacity:0.1; fill:none" points="
  2737.85,1621.41 4752.76,1621.41 
  "/>
<polyline clip-path="url(#clip0103)" style="stroke:#000000; stroke-width:2; stroke-opacity:0.1; fill:none" points="
  2737.85,1233.63 4752.76,1233.63 
  "/>
<polyline clip-path="url(#clip0103)" style="stroke:#000000; stroke-width:2; stroke-opacity:0.1; fill:none" points="
  2737.85,845.856 4752.76,845.856 
  "/>
<polyline clip-path="url(#clip0103)" style="stroke:#000000; stroke-width:2; stroke-opacity:0.1; fill:none" points="
  2737.85,458.079 4752.76,458.079 
  "/>
<polyline clip-path="url(#clip0100)" style="stroke:#000000; stroke-width:4; stroke-opacity:1; fill:none" points="
  2737.85,2009.19 4752.76,2009.19 
  "/>
<polyline clip-path="url(#clip0100)" style="stroke:#000000; stroke-width:4; stroke-opacity:1; fill:none" points="
  2737.85,2009.19 2737.85,264.191 
  "/>
<polyline clip-path="url(#clip0100)" style="stroke:#000000; stroke-width:4; stroke-opacity:1; fill:none" points="
  2794.88,2009.19 2794.88,1988.25 
  "/>
<polyline clip-path="url(#clip0100)" style="stroke:#000000; stroke-width:4; stroke-opacity:1; fill:none" points="
  3270.09,2009.19 3270.09,1988.25 
  "/>
<polyline clip-path="url(#clip0100)" style="stroke:#000000; stroke-width:4; stroke-opacity:1; fill:none" points="
  3745.31,2009.19 3745.31,1988.25 
  "/>
<polyline clip-path="url(#clip0100)" style="stroke:#000000; stroke-width:4; stroke-opacity:1; fill:none" points="
  4220.52,2009.19 4220.52,1988.25 
  "/>
<polyline clip-path="url(#clip0100)" style="stroke:#000000; stroke-width:4; stroke-opacity:1; fill:none" points="
  4695.73,2009.19 4695.73,1988.25 
  "/>
<polyline clip-path="url(#clip0100)" style="stroke:#000000; stroke-width:4; stroke-opacity:1; fill:none" points="
  2737.85,2009.19 2762.03,2009.19 
  "/>
<polyline clip-path="url(#clip0100)" style="stroke:#000000; stroke-width:4; stroke-opacity:1; fill:none" points="
  2737.85,1621.41 2762.03,1621.41 
  "/>
<polyline clip-path="url(#clip0100)" style="stroke:#000000; stroke-width:4; stroke-opacity:1; fill:none" points="
  2737.85,1233.63 2762.03,1233.63 
  "/>
<polyline clip-path="url(#clip0100)" style="stroke:#000000; stroke-width:4; stroke-opacity:1; fill:none" points="
  2737.85,845.856 2762.03,845.856 
  "/>
<polyline clip-path="url(#clip0100)" style="stroke:#000000; stroke-width:4; stroke-opacity:1; fill:none" points="
  2737.85,458.079 2762.03,458.079 
  "/>
<g clip-path="url(#clip0100)">
<text style="fill:#000000; fill-opacity:1; font-family:Arial,Helvetica Neue,Helvetica,sans-serif; font-size:107px; text-anchor:middle;" transform="rotate(0, 2794.88, 2126.79)" x="2794.88" y="2126.79">0</text>
</g>
<g clip-path="url(#clip0100)">
<text style="fill:#000000; fill-opacity:1; font-family:Arial,Helvetica Neue,Helvetica,sans-serif; font-size:107px; text-anchor:middle;" transform="rotate(0, 3270.09, 2126.79)" x="3270.09" y="2126.79">2</text>
</g>
<g clip-path="url(#clip0100)">
<text style="fill:#000000; fill-opacity:1; font-family:Arial,Helvetica Neue,Helvetica,sans-serif; font-size:107px; text-anchor:middle;" transform="rotate(0, 3745.31, 2126.79)" x="3745.31" y="2126.79">4</text>
</g>
<g clip-path="url(#clip0100)">
<text style="fill:#000000; fill-opacity:1; font-family:Arial,Helvetica Neue,Helvetica,sans-serif; font-size:107px; text-anchor:middle;" transform="rotate(0, 4220.52, 2126.79)" x="4220.52" y="2126.79">6</text>
</g>
<g clip-path="url(#clip0100)">
<text style="fill:#000000; fill-opacity:1; font-family:Arial,Helvetica Neue,Helvetica,sans-serif; font-size:107px; text-anchor:middle;" transform="rotate(0, 4695.73, 2126.79)" x="4695.73" y="2126.79">8</text>
</g>
<g clip-path="url(#clip0100)">
<text style="fill:#000000; fill-opacity:1; font-family:Arial,Helvetica Neue,Helvetica,sans-serif; font-size:107px; text-anchor:end;" transform="rotate(0, 2689.85, 2048.19)" x="2689.85" y="2048.19">0</text>
</g>
<g clip-path="url(#clip0100)">
<text style="fill:#000000; fill-opacity:1; font-family:Arial,Helvetica Neue,Helvetica,sans-serif; font-size:107px; text-anchor:end;" transform="rotate(0, 2689.85, 1660.41)" x="2689.85" y="1660.41">1</text>
</g>
<g clip-path="url(#clip0100)">
<text style="fill:#000000; fill-opacity:1; font-family:Arial,Helvetica Neue,Helvetica,sans-serif; font-size:107px; text-anchor:end;" transform="rotate(0, 2689.85, 1272.63)" x="2689.85" y="1272.63">2</text>
</g>
<g clip-path="url(#clip0100)">
<text style="fill:#000000; fill-opacity:1; font-family:Arial,Helvetica Neue,Helvetica,sans-serif; font-size:107px; text-anchor:end;" transform="rotate(0, 2689.85, 884.856)" x="2689.85" y="884.856">3</text>
</g>
<g clip-path="url(#clip0100)">
<text style="fill:#000000; fill-opacity:1; font-family:Arial,Helvetica Neue,Helvetica,sans-serif; font-size:107px; text-anchor:end;" transform="rotate(0, 2689.85, 497.079)" x="2689.85" y="497.079">4</text>
</g>
<g clip-path="url(#clip0100)">
<text style="fill:#000000; fill-opacity:1; font-family:Arial,Helvetica Neue,Helvetica,sans-serif; font-size:189px; text-anchor:middle;" transform="rotate(0, 3745.31, 165.6)" x="3745.31" y="165.6">Normal hypothyroid patient 45 mcg (n = 3)</text>
</g>
<g clip-path="url(#clip0100)">
<text style="fill:#000000; fill-opacity:1; font-family:Arial,Helvetica Neue,Helvetica,sans-serif; font-size:143px; text-anchor:middle;" transform="rotate(0, 3745.31, 2300.46)" x="3745.31" y="2300.46">Time (hours)</text>
</g>
<g clip-path="url(#clip0100)">
<text style="fill:#000000; fill-opacity:1; font-family:Arial,Helvetica Neue,Helvetica,sans-serif; font-size:143px; text-anchor:middle;" transform="rotate(-90, 2555.54, 1136.69)" x="2555.54" y="1136.69">T3 mcg/L</text>
</g>
<path clip-path="url(#clip0103)" d="
M2794.88 1754.07 L2818.64 1742.17 L2842.4 1698.04 L2866.16 1641.56 L2889.92 1580.03 L2913.68 1517.04 L2937.44 1454.78 L2961.2 1394.78 L2984.97 1338.12 L3008.73 1285.51 
  L3032.49 1237.35 L3056.25 1194.06 L3080.01 1155.57 L3103.77 1121.75 L3127.53 1093.13 L3151.29 1069 L3175.05 1048.01 L3198.81 1032.25 L3222.57 1022.23 L3246.33 1010.52 
  L3270.09 1004.61 L3293.85 1005.94 L3317.61 1000.38 L3341.37 1005.83 L3365.14 1010.11 L3388.9 1014.69 L3412.66 1025.15 L3436.42 1032.26 L3460.18 1045.23 L3483.94 1055.74 
  L3507.7 1069.49 L3531.46 1082.98 L3555.22 1096.72 L3578.98 1112.54 L3602.74 1126.44 L3626.5 1143.16 L3650.26 1158.36 L3674.02 1173.98 L3697.78 1190.92 L3721.54 1205.47 
  L3745.31 1222.69 L3769.07 1237.93 L3792.83 1253.37 L3816.59 1269.82 L3840.35 1283.79 L3864.11 1300.12 L3887.87 1314.28 L3911.63 1328.82 L3935.39 1343.69 L3959.15 1356.57 
  L3982.91 1371.32 L4006.67 1383.89 L4030.43 1397.12 L4054.19 1410.06 L4077.95 1421.56 L4101.71 1434.5 L4125.48 1445.37 L4149.24 1457.07 L4173 1468.13 L4196.76 1478.16 
  L4220.52 1489.29 L4244.28 1498.54 L4268.04 1508.7 L4291.8 1518.02 L4315.56 1526.65 L4339.32 1536.09 L4363.08 1543.87 L4386.84 1552.59 L4410.6 1560.36 L4434.36 1567.73 
  L4458.12 1575.66 L4481.88 1582.16 L4505.65 1589.58 L4529.41 1596.01 L4553.17 1602.28 L4576.93 1608.88 L4600.69 1614.29 L4624.45 1620.58 L4648.21 1625.86 L4671.97 1631.05 
  L4695.73 1636.33 L4695.73 1593.19 L4671.97 1588.21 L4648.21 1582.32 L4624.45 1576.77 L4600.69 1570.76 L4576.93 1564.19 L4553.17 1558.26 L4529.41 1550.99 L4505.65 1544.49 
  L4481.88 1537.07 L4458.12 1529.44 L4434.36 1522.19 L4410.6 1513.53 L4386.84 1505.89 L4363.08 1496.85 L4339.32 1488.05 L4315.56 1479.2 L4291.8 1469.01 L4268.04 1460.01 
  L4244.28 1449.17 L4220.52 1439.06 L4196.76 1428.34 L4173 1416.57 L4149.24 1405.95 L4125.48 1393.16 L4101.71 1381.63 L4077.95 1368.83 L4054.19 1355.53 L4030.43 1343.05 
  L4006.67 1328.3 L3982.91 1315.34 L3959.15 1300.33 L3935.39 1285.7 L3911.63 1271.26 L3887.87 1254.74 L3864.11 1240.49 L3840.35 1223.42 L3816.59 1207.89 L3792.83 1191.71 
  L3769.07 1174.07 L3745.31 1158.83 L3721.54 1140.52 L3697.78 1124.61 L3674.02 1107.64 L3650.26 1089.95 L3626.5 1074.59 L3602.74 1056.65 L3578.98 1041.59 L3555.22 1025.49 
  L3531.46 1009.85 L3507.7 996.292 L3483.94 980.911 L3460.18 969.935 L3436.42 956.417 L3412.66 947.678 L3388.9 937.877 L3365.14 930.472 L3341.37 927.591 L3317.61 919.966 
  L3293.85 925.525 L3270.09 924.861 L3246.33 929.26 L3222.57 941.616 L3198.81 951.587 L3175.05 967.303 L3151.29 988.883 L3127.53 1013.46 L3103.77 1042.73 L3080.01 1077.51 
  L3056.25 1117.1 L3032.49 1161.69 L3008.73 1211.36 L2984.97 1265.66 L2961.2 1324.18 L2937.44 1386.17 L2913.68 1450.49 L2889.92 1515.56 L2866.16 1579.1 L2842.4 1637.35 
  L2818.64 1682.6 L2794.88 1693.5  Z
  " fill="#009af9" fill-rule="evenodd" fill-opacity="0.3"/>
<polyline clip-path="url(#clip0103)" style="stroke:#009af9; stroke-width:4; stroke-opacity:1; fill:none" points="
  2794.88,1723.78 2818.64,1712.39 2842.4,1667.69 2866.16,1610.33 2889.92,1547.8 2913.68,1483.77 2937.44,1420.47 2961.2,1359.48 2984.97,1301.89 3008.73,1248.43 
  3032.49,1199.52 3056.25,1155.58 3080.01,1116.54 3103.77,1082.24 3127.53,1053.3 3151.29,1028.94 3175.05,1007.66 3198.81,991.92 3222.57,981.925 3246.33,969.892 
  3270.09,964.736 3293.85,965.733 3317.61,960.172 3341.37,966.71 3365.14,970.291 3388.9,976.284 3412.66,986.416 3436.42,994.339 3460.18,1007.58 3483.94,1018.32 
  3507.7,1032.89 3531.46,1046.42 3555.22,1061.1 3578.98,1077.07 3602.74,1091.54 3626.5,1108.87 3650.26,1124.16 3674.02,1140.81 3697.78,1157.76 3721.54,1172.99 
  3745.31,1190.76 3769.07,1206 3792.83,1222.54 3816.59,1238.86 3840.35,1253.61 3864.11,1270.31 3887.87,1284.51 3911.63,1300.04 3935.39,1314.7 3959.15,1328.45 
  3982.91,1343.33 4006.67,1356.09 4030.43,1370.08 4054.19,1382.8 4077.95,1395.2 4101.71,1408.07 4125.48,1419.26 4149.24,1431.51 4173,1442.35 4196.76,1453.25 
  4220.52,1464.17 4244.28,1473.85 4268.04,1484.35 4291.8,1493.51 4315.56,1502.92 4339.32,1512.07 4363.08,1520.36 4386.84,1529.24 4410.6,1536.95 4434.36,1544.96 
  4458.12,1552.55 4481.88,1559.62 4505.65,1567.03 4529.41,1573.5 4553.17,1580.27 4576.93,1586.54 4600.69,1592.52 4624.45,1598.67 4648.21,1604.09 4671.97,1609.63 
  4695.73,1614.76 
  "/>
<polyline clip-path="url(#clip0103)" style="stroke:#e26f46; stroke-width:4; stroke-opacity:1; fill:none" points="
  2794.88,1723.78 2913.68,1631.62 3032.49,1300.33 3270.09,866.925 3507.7,987.653 3745.31,1090.54 3982.91,1141.73 4220.52,1330.71 4458.12,1351.52 4695.73,1420.41 
  
  "/>
<polyline clip-path="url(#clip0103)" style="stroke:#e26f46; stroke-width:4; stroke-opacity:1; fill:none" points="
  2794.88,1754.07 2794.88,1693.5 
  "/>
<polyline clip-path="url(#clip0103)" style="stroke:#e26f46; stroke-width:4; stroke-opacity:1; fill:none" points="
  2913.68,1654.31 2913.68,1608.94 
  "/>
<polyline clip-path="url(#clip0103)" style="stroke:#e26f46; stroke-width:4; stroke-opacity:1; fill:none" points="
  3032.49,1459.23 3032.49,1141.43 
  "/>
<polyline clip-path="url(#clip0103)" style="stroke:#e26f46; stroke-width:4; stroke-opacity:1; fill:none" points="
  3270.09,1102.34 3270.09,631.509 
  "/>
<polyline clip-path="url(#clip0103)" style="stroke:#e26f46; stroke-width:4; stroke-opacity:1; fill:none" points="
  3507.7,1202.95 3507.7,772.355 
  "/>
<polyline clip-path="url(#clip0103)" style="stroke:#e26f46; stroke-width:4; stroke-opacity:1; fill:none" points="
  3745.31,1256.96 3745.31,924.131 
  "/>
<polyline clip-path="url(#clip0103)" style="stroke:#e26f46; stroke-width:4; stroke-opacity:1; fill:none" points="
  3982.91,1257.97 3982.91,1025.49 
  "/>
<polyline clip-path="url(#clip0103)" style="stroke:#e26f46; stroke-width:4; stroke-opacity:1; fill:none" points="
  4220.52,1405.18 4220.52,1256.24 
  "/>
<polyline clip-path="url(#clip0103)" style="stroke:#e26f46; stroke-width:4; stroke-opacity:1; fill:none" points="
  4458.12,1436.74 4458.12,1266.29 
  "/>
<polyline clip-path="url(#clip0103)" style="stroke:#e26f46; stroke-width:4; stroke-opacity:1; fill:none" points="
  4695.73,1489.34 4695.73,1351.49 
  "/>
<line clip-path="url(#clip0103)" x1="2814.88" y1="1754.07" x2="2774.88" y2="1754.07" style="stroke:#000000; stroke-width:4; stroke-opacity:1"/>
<line clip-path="url(#clip0103)" x1="2814.88" y1="1693.5" x2="2774.88" y2="1693.5" style="stroke:#000000; stroke-width:4; stroke-opacity:1"/>
<line clip-path="url(#clip0103)" x1="2933.68" y1="1654.31" x2="2893.68" y2="1654.31" style="stroke:#000000; stroke-width:4; stroke-opacity:1"/>
<line clip-path="url(#clip0103)" x1="2933.68" y1="1608.94" x2="2893.68" y2="1608.94" style="stroke:#000000; stroke-width:4; stroke-opacity:1"/>
<line clip-path="url(#clip0103)" x1="3052.49" y1="1459.23" x2="3012.49" y2="1459.23" style="stroke:#000000; stroke-width:4; stroke-opacity:1"/>
<line clip-path="url(#clip0103)" x1="3052.49" y1="1141.43" x2="3012.49" y2="1141.43" style="stroke:#000000; stroke-width:4; stroke-opacity:1"/>
<line clip-path="url(#clip0103)" x1="3290.09" y1="1102.34" x2="3250.09" y2="1102.34" style="stroke:#000000; stroke-width:4; stroke-opacity:1"/>
<line clip-path="url(#clip0103)" x1="3290.09" y1="631.509" x2="3250.09" y2="631.509" style="stroke:#000000; stroke-width:4; stroke-opacity:1"/>
<line clip-path="url(#clip0103)" x1="3527.7" y1="1202.95" x2="3487.7" y2="1202.95" style="stroke:#000000; stroke-width:4; stroke-opacity:1"/>
<line clip-path="url(#clip0103)" x1="3527.7" y1="772.355" x2="3487.7" y2="772.355" style="stroke:#000000; stroke-width:4; stroke-opacity:1"/>
<line clip-path="url(#clip0103)" x1="3765.31" y1="1256.96" x2="3725.31" y2="1256.96" style="stroke:#000000; stroke-width:4; stroke-opacity:1"/>
<line clip-path="url(#clip0103)" x1="3765.31" y1="924.131" x2="3725.31" y2="924.131" style="stroke:#000000; stroke-width:4; stroke-opacity:1"/>
<line clip-path="url(#clip0103)" x1="4002.91" y1="1257.97" x2="3962.91" y2="1257.97" style="stroke:#000000; stroke-width:4; stroke-opacity:1"/>
<line clip-path="url(#clip0103)" x1="4002.91" y1="1025.49" x2="3962.91" y2="1025.49" style="stroke:#000000; stroke-width:4; stroke-opacity:1"/>
<line clip-path="url(#clip0103)" x1="4240.52" y1="1405.18" x2="4200.52" y2="1405.18" style="stroke:#000000; stroke-width:4; stroke-opacity:1"/>
<line clip-path="url(#clip0103)" x1="4240.52" y1="1256.24" x2="4200.52" y2="1256.24" style="stroke:#000000; stroke-width:4; stroke-opacity:1"/>
<line clip-path="url(#clip0103)" x1="4478.12" y1="1436.74" x2="4438.12" y2="1436.74" style="stroke:#000000; stroke-width:4; stroke-opacity:1"/>
<line clip-path="url(#clip0103)" x1="4478.12" y1="1266.29" x2="4438.12" y2="1266.29" style="stroke:#000000; stroke-width:4; stroke-opacity:1"/>
<line clip-path="url(#clip0103)" x1="4715.73" y1="1489.34" x2="4675.73" y2="1489.34" style="stroke:#000000; stroke-width:4; stroke-opacity:1"/>
<line clip-path="url(#clip0103)" x1="4715.73" y1="1351.49" x2="4675.73" y2="1351.49" style="stroke:#000000; stroke-width:4; stroke-opacity:1"/>
<path clip-path="url(#clip0100)" d="
M3641.29 824.351 L4608.76 824.351 L4608.76 416.111 L3641.29 416.111  Z
  " fill="#ffffff" fill-rule="evenodd" fill-opacity="1"/>
<polyline clip-path="url(#clip0100)" style="stroke:#000000; stroke-width:4; stroke-opacity:1; fill:none" points="
  3641.29,824.351 4608.76,824.351 4608.76,416.111 3641.29,416.111 3641.29,824.351 
  "/>
<polyline clip-path="url(#clip0100)" style="stroke:#009af9; stroke-width:4; stroke-opacity:1; fill:none" points="
  3689.29,552.191 3977.29,552.191 
  "/>
<g clip-path="url(#clip0100)">
<text style="fill:#000000; fill-opacity:1; font-family:Arial,Helvetica Neue,Helvetica,sans-serif; font-size:107px; text-anchor:start;" transform="rotate(0, 4025.29, 591.191)" x="4025.29" y="591.191">simulation</text>
</g>
<polyline clip-path="url(#clip0100)" style="stroke:#e26f46; stroke-width:4; stroke-opacity:1; fill:none" points="
  3689.29,688.271 3977.29,688.271 
  "/>
<g clip-path="url(#clip0100)">
<text style="fill:#000000; fill-opacity:1; font-family:Arial,Helvetica Neue,Helvetica,sans-serif; font-size:107px; text-anchor:start;" transform="rotate(0, 4025.29, 727.271)" x="4025.29" y="727.271">data</text>
</g>
<path clip-path="url(#clip0100)" d="
M337.855 4409.19 L2352.76 4409.19 L2352.76 2664.19 L337.855 2664.19  Z
  " fill="#ffffff" fill-rule="evenodd" fill-opacity="1"/>
<defs>
  <clipPath id="clip0104">
    <rect x="337" y="2664" width="2016" height="1746"/>
  </clipPath>
</defs>
<polyline clip-path="url(#clip0104)" style="stroke:#000000; stroke-width:2; stroke-opacity:0.1; fill:none" points="
  394.88,4409.19 394.88,2664.19 
  "/>
<polyline clip-path="url(#clip0104)" style="stroke:#000000; stroke-width:2; stroke-opacity:0.1; fill:none" points="
  870.093,4409.19 870.093,2664.19 
  "/>
<polyline clip-path="url(#clip0104)" style="stroke:#000000; stroke-width:2; stroke-opacity:0.1; fill:none" points="
  1345.31,4409.19 1345.31,2664.19 
  "/>
<polyline clip-path="url(#clip0104)" style="stroke:#000000; stroke-width:2; stroke-opacity:0.1; fill:none" points="
  1820.52,4409.19 1820.52,2664.19 
  "/>
<polyline clip-path="url(#clip0104)" style="stroke:#000000; stroke-width:2; stroke-opacity:0.1; fill:none" points="
  2295.73,4409.19 2295.73,2664.19 
  "/>
<polyline clip-path="url(#clip0104)" style="stroke:#000000; stroke-width:2; stroke-opacity:0.1; fill:none" points="
  337.855,4409.19 2352.76,4409.19 
  "/>
<polyline clip-path="url(#clip0104)" style="stroke:#000000; stroke-width:2; stroke-opacity:0.1; fill:none" points="
  337.855,4021.41 2352.76,4021.41 
  "/>
<polyline clip-path="url(#clip0104)" style="stroke:#000000; stroke-width:2; stroke-opacity:0.1; fill:none" points="
  337.855,3633.63 2352.76,3633.63 
  "/>
<polyline clip-path="url(#clip0104)" style="stroke:#000000; stroke-width:2; stroke-opacity:0.1; fill:none" points="
  337.855,3245.86 2352.76,3245.86 
  "/>
<polyline clip-path="url(#clip0104)" style="stroke:#000000; stroke-width:2; stroke-opacity:0.1; fill:none" points="
  337.855,2858.08 2352.76,2858.08 
  "/>
<polyline clip-path="url(#clip0100)" style="stroke:#000000; stroke-width:4; stroke-opacity:1; fill:none" points="
  337.855,4409.19 2352.76,4409.19 
  "/>
<polyline clip-path="url(#clip0100)" style="stroke:#000000; stroke-width:4; stroke-opacity:1; fill:none" points="
  337.855,4409.19 337.855,2664.19 
  "/>
<polyline clip-path="url(#clip0100)" style="stroke:#000000; stroke-width:4; stroke-opacity:1; fill:none" points="
  394.88,4409.19 394.88,4388.25 
  "/>
<polyline clip-path="url(#clip0100)" style="stroke:#000000; stroke-width:4; stroke-opacity:1; fill:none" points="
  870.093,4409.19 870.093,4388.25 
  "/>
<polyline clip-path="url(#clip0100)" style="stroke:#000000; stroke-width:4; stroke-opacity:1; fill:none" points="
  1345.31,4409.19 1345.31,4388.25 
  "/>
<polyline clip-path="url(#clip0100)" style="stroke:#000000; stroke-width:4; stroke-opacity:1; fill:none" points="
  1820.52,4409.19 1820.52,4388.25 
  "/>
<polyline clip-path="url(#clip0100)" style="stroke:#000000; stroke-width:4; stroke-opacity:1; fill:none" points="
  2295.73,4409.19 2295.73,4388.25 
  "/>
<polyline clip-path="url(#clip0100)" style="stroke:#000000; stroke-width:4; stroke-opacity:1; fill:none" points="
  337.855,4409.19 362.033,4409.19 
  "/>
<polyline clip-path="url(#clip0100)" style="stroke:#000000; stroke-width:4; stroke-opacity:1; fill:none" points="
  337.855,4021.41 362.033,4021.41 
  "/>
<polyline clip-path="url(#clip0100)" style="stroke:#000000; stroke-width:4; stroke-opacity:1; fill:none" points="
  337.855,3633.63 362.033,3633.63 
  "/>
<polyline clip-path="url(#clip0100)" style="stroke:#000000; stroke-width:4; stroke-opacity:1; fill:none" points="
  337.855,3245.86 362.033,3245.86 
  "/>
<polyline clip-path="url(#clip0100)" style="stroke:#000000; stroke-width:4; stroke-opacity:1; fill:none" points="
  337.855,2858.08 362.033,2858.08 
  "/>
<g clip-path="url(#clip0100)">
<text style="fill:#000000; fill-opacity:1; font-family:Arial,Helvetica Neue,Helvetica,sans-serif; font-size:107px; text-anchor:middle;" transform="rotate(0, 394.88, 4526.79)" x="394.88" y="4526.79">0</text>
</g>
<g clip-path="url(#clip0100)">
<text style="fill:#000000; fill-opacity:1; font-family:Arial,Helvetica Neue,Helvetica,sans-serif; font-size:107px; text-anchor:middle;" transform="rotate(0, 870.093, 4526.79)" x="870.093" y="4526.79">2</text>
</g>
<g clip-path="url(#clip0100)">
<text style="fill:#000000; fill-opacity:1; font-family:Arial,Helvetica Neue,Helvetica,sans-serif; font-size:107px; text-anchor:middle;" transform="rotate(0, 1345.31, 4526.79)" x="1345.31" y="4526.79">4</text>
</g>
<g clip-path="url(#clip0100)">
<text style="fill:#000000; fill-opacity:1; font-family:Arial,Helvetica Neue,Helvetica,sans-serif; font-size:107px; text-anchor:middle;" transform="rotate(0, 1820.52, 4526.79)" x="1820.52" y="4526.79">6</text>
</g>
<g clip-path="url(#clip0100)">
<text style="fill:#000000; fill-opacity:1; font-family:Arial,Helvetica Neue,Helvetica,sans-serif; font-size:107px; text-anchor:middle;" transform="rotate(0, 2295.73, 4526.79)" x="2295.73" y="4526.79">8</text>
</g>
<g clip-path="url(#clip0100)">
<text style="fill:#000000; fill-opacity:1; font-family:Arial,Helvetica Neue,Helvetica,sans-serif; font-size:107px; text-anchor:end;" transform="rotate(0, 289.855, 4448.19)" x="289.855" y="4448.19">0</text>
</g>
<g clip-path="url(#clip0100)">
<text style="fill:#000000; fill-opacity:1; font-family:Arial,Helvetica Neue,Helvetica,sans-serif; font-size:107px; text-anchor:end;" transform="rotate(0, 289.855, 4060.41)" x="289.855" y="4060.41">1</text>
</g>
<g clip-path="url(#clip0100)">
<text style="fill:#000000; fill-opacity:1; font-family:Arial,Helvetica Neue,Helvetica,sans-serif; font-size:107px; text-anchor:end;" transform="rotate(0, 289.855, 3672.63)" x="289.855" y="3672.63">2</text>
</g>
<g clip-path="url(#clip0100)">
<text style="fill:#000000; fill-opacity:1; font-family:Arial,Helvetica Neue,Helvetica,sans-serif; font-size:107px; text-anchor:end;" transform="rotate(0, 289.855, 3284.86)" x="289.855" y="3284.86">3</text>
</g>
<g clip-path="url(#clip0100)">
<text style="fill:#000000; fill-opacity:1; font-family:Arial,Helvetica Neue,Helvetica,sans-serif; font-size:107px; text-anchor:end;" transform="rotate(0, 289.855, 2897.08)" x="289.855" y="2897.08">4</text>
</g>
<g clip-path="url(#clip0100)">
<text style="fill:#000000; fill-opacity:1; font-family:Arial,Helvetica Neue,Helvetica,sans-serif; font-size:189px; text-anchor:middle;" transform="rotate(0, 1345.31, 2565.6)" x="1345.31" y="2565.6">Overweight hypothyroid patient 30 mcg (n = 2)</text>
</g>
<g clip-path="url(#clip0100)">
<text style="fill:#000000; fill-opacity:1; font-family:Arial,Helvetica Neue,Helvetica,sans-serif; font-size:143px; text-anchor:middle;" transform="rotate(0, 1345.31, 4700.46)" x="1345.31" y="4700.46">Time (hours)</text>
</g>
<g clip-path="url(#clip0100)">
<text style="fill:#000000; fill-opacity:1; font-family:Arial,Helvetica Neue,Helvetica,sans-serif; font-size:143px; text-anchor:middle;" transform="rotate(-90, 155.54, 3536.69)" x="155.54" y="3536.69">T3 mcg/L</text>
</g>
<path clip-path="url(#clip0104)" d="
M394.88 4082.29 L418.641 4078.67 L442.401 4050.7 L466.162 4013.79 L489.923 3973.28 L513.683 3931.72 L537.444 3890.6 L561.204 3851.01 L584.965 3813.66 L608.726 3779.1 
  L632.486 3754.32 L656.247 3732.79 L680.008 3714.06 L703.768 3697.63 L727.529 3684.08 L751.29 3673.85 L775.05 3664.11 L798.811 3657.32 L822.571 3655.34 L846.332 3649.8 
  L870.093 3650.23 L893.853 3652.13 L917.614 3651.3 L941.375 3657.96 L965.135 3660.07 L988.896 3667.73 L1012.66 3673.29 L1036.42 3681.21 L1060.18 3689.26 L1083.94 3697.36 
  L1107.7 3707.21 L1131.46 3715.48 L1155.22 3726.4 L1178.98 3735.47 L1202.74 3746.1 L1226.5 3756.48 L1250.26 3766.02 L1274.02 3777.53 L1297.78 3786.6 L1321.54 3797.95 
  L1345.31 3807.74 L1369.07 3817.66 L1392.83 3828.39 L1416.59 3837.04 L1440.35 3847.99 L1464.11 3856.56 L1487.87 3866.47 L1511.63 3875.6 L1535.39 3884 L1559.15 3893.59 
  L1582.91 3901.02 L1606.67 3910.32 L1630.43 3917.78 L1654.19 3925.84 L1677.95 3933.74 L1701.71 3940.42 L1725.48 3948.54 L1749.24 3954.6 L1773 3962.09 L1796.76 3968.36 
  L1820.52 3974.55 L1844.28 3981.22 L1868.04 3986.29 L1891.8 3992.95 L1915.56 3997.82 L1939.32 4003.58 L1963.08 4008.81 L1986.84 4013.36 L2010.6 4018.9 L2034.36 4022.73 
  L2058.12 4027.99 L2081.88 4031.93 L2105.65 4036.18 L2129.41 4040.54 L2153.17 4043.77 L2176.93 4048.32 L2200.69 4051.25 L2224.45 4055.25 L2248.21 4058.5 L2271.97 4061.42 
  L2295.73 4064.76 L2295.73 4064.58 L2271.97 4061.19 L2248.21 4057.72 L2224.45 4053.18 L2200.69 4049.91 L2176.93 4045.04 L2153.17 4041.15 L2129.41 4036.61 L2105.65 4031.54 
  L2081.88 4027.36 L2058.12 4021.49 L2034.36 4017.05 L2010.6 4011.28 L1986.84 4005.67 L1963.08 4000.32 L1939.32 3993.5 L1915.56 3988.22 L1891.8 3981.09 L1868.04 3974.87 
  L1844.28 3968.1 L1820.52 3960.44 L1796.76 3953.98 L1773 3945.45 L1749.24 3938.48 L1725.48 3930.12 L1701.71 3921.66 L1677.95 3913.75 L1654.19 3903.95 L1630.43 3896 
  L1606.67 3885.96 L1582.91 3876.81 L1559.15 3867.25 L1535.39 3856.46 L1511.63 3847.32 L1487.87 3835.68 L1464.11 3826.01 L1440.35 3814.76 L1416.59 3803.45 L1392.83 3793.07 
  L1369.07 3780.36 L1345.31 3770.27 L1321.54 3757.8 L1297.78 3746.47 L1274.02 3735.26 L1250.26 3722.52 L1226.5 3712.25 L1202.74 3699.73 L1178.98 3689.12 L1155.22 3678.14 
  L1131.46 3666.81 L1107.7 3657.55 L1083.94 3646.43 L1060.18 3638.64 L1036.42 3629.09 L1012.66 3622.28 L988.896 3615.39 L965.135 3609.2 L941.375 3606.75 L917.614 3600.56 
  L893.853 3603.7 L870.093 3601.51 L846.332 3604.45 L822.571 3611.66 L798.811 3616.08 L775.05 3626.37 L751.29 3639.65 L727.529 3654.18 L703.768 3672.61 L680.008 3694.47 
  L656.247 3719.3 L632.486 3747.55 L608.726 3778.55 L584.965 3805.19 L561.204 3834.09 L537.444 3864.77 L513.683 3896.65 L489.923 3928.83 L466.162 3960.04 L442.401 3988.1 
  L418.641 4008.23 L394.88 4005.9  Z
  " fill="#009af9" fill-rule="evenodd" fill-opacity="0.3"/>
<polyline clip-path="url(#clip0104)" style="stroke:#009af9; stroke-width:4; stroke-opacity:1; fill:none" points="
  394.88,4044.09 418.641,4043.45 442.401,4019.4 466.162,3986.91 489.923,3951.05 513.683,3914.19 537.444,3877.68 561.204,3842.55 584.965,3809.42 608.726,3778.83 
  632.486,3750.93 656.247,3726.04 680.008,3704.26 703.768,3685.12 727.529,3669.13 751.29,3656.75 775.05,3645.24 798.811,3636.7 822.571,3633.5 846.332,3627.13 
  870.093,3625.87 893.853,3627.92 917.614,3625.93 941.375,3632.36 965.135,3634.63 988.896,3641.56 1012.66,3647.78 1036.42,3655.15 1060.18,3663.95 1083.94,3671.9 
  1107.7,3682.38 1131.46,3691.14 1155.22,3702.27 1178.98,3712.3 1202.74,3722.92 1226.5,3734.37 1250.26,3744.27 1274.02,3756.39 1297.78,3766.54 1321.54,3777.87 
  1345.31,3789 1369.07,3799.01 1392.83,3810.73 1416.59,3820.24 1440.35,3831.38 1464.11,3841.28 1487.87,3851.07 1511.63,3861.46 1535.39,3870.23 1559.15,3880.42 
  1582.91,3888.91 1606.67,3898.14 1630.43,3906.89 1654.19,3914.89 1677.95,3923.75 1701.71,3931.04 1725.48,3939.33 1749.24,3946.54 1773,3953.77 1796.76,3961.17 
  1820.52,3967.49 1844.28,3974.66 1868.04,3980.58 1891.8,3987.02 1915.56,3993.02 1939.32,3998.54 1963.08,4004.56 1986.84,4009.51 2010.6,4015.09 2034.36,4019.89 
  2058.12,4024.74 2081.88,4029.65 2105.65,4033.86 2129.41,4038.57 2153.17,4042.46 2176.93,4046.68 2200.69,4050.58 2224.45,4054.21 2248.21,4058.11 2271.97,4061.31 
  2295.73,4064.67 
  "/>
<polyline clip-path="url(#clip0104)" style="stroke:#e26f46; stroke-width:4; stroke-opacity:1; fill:none" points="
  394.88,4044.09 513.683,3975.07 632.486,3870.95 870.093,3720.88 1107.7,3768 1345.31,3814.53 1582.91,3852.92 1820.52,3937.07 2058.12,3992.52 2295.73,3959.17 
  
  "/>
<polyline clip-path="url(#clip0104)" style="stroke:#e26f46; stroke-width:4; stroke-opacity:1; fill:none" points="
  394.88,4119.7 394.88,3968.49 
  "/>
<polyline clip-path="url(#clip0104)" style="stroke:#e26f46; stroke-width:4; stroke-opacity:1; fill:none" points="
  513.683,4085.35 513.683,3864.79 
  "/>
<polyline clip-path="url(#clip0104)" style="stroke:#e26f46; stroke-width:4; stroke-opacity:1; fill:none" points="
  632.486,4016.05 632.486,3725.86 
  "/>
<polyline clip-path="url(#clip0104)" style="stroke:#e26f46; stroke-width:4; stroke-opacity:1; fill:none" points="
  870.093,3832.09 870.093,3609.67 
  "/>
<polyline clip-path="url(#clip0104)" style="stroke:#e26f46; stroke-width:4; stroke-opacity:1; fill:none" points="
  1107.7,3886.88 1107.7,3649.11 
  "/>
<polyline clip-path="url(#clip0104)" style="stroke:#e26f46; stroke-width:4; stroke-opacity:1; fill:none" points="
  1345.31,3916.11 1345.31,3712.96 
  "/>
<polyline clip-path="url(#clip0104)" style="stroke:#e26f46; stroke-width:4; stroke-opacity:1; fill:none" points="
  1582.91,3952.63 1582.91,3753.21 
  "/>
<polyline clip-path="url(#clip0104)" style="stroke:#e26f46; stroke-width:4; stroke-opacity:1; fill:none" points="
  1820.52,4034.69 1820.52,3839.44 
  "/>
<polyline clip-path="url(#clip0104)" style="stroke:#e26f46; stroke-width:4; stroke-opacity:1; fill:none" points="
  2058.12,4091.51 2058.12,3893.53 
  "/>
<polyline clip-path="url(#clip0104)" style="stroke:#e26f46; stroke-width:4; stroke-opacity:1; fill:none" points="
  2295.73,4065.21 2295.73,3853.14 
  "/>
<line clip-path="url(#clip0104)" x1="414.88" y1="4119.7" x2="374.88" y2="4119.7" style="stroke:#000000; stroke-width:4; stroke-opacity:1"/>
<line clip-path="url(#clip0104)" x1="414.88" y1="3968.49" x2="374.88" y2="3968.49" style="stroke:#000000; stroke-width:4; stroke-opacity:1"/>
<line clip-path="url(#clip0104)" x1="533.683" y1="4085.35" x2="493.683" y2="4085.35" style="stroke:#000000; stroke-width:4; stroke-opacity:1"/>
<line clip-path="url(#clip0104)" x1="533.683" y1="3864.79" x2="493.683" y2="3864.79" style="stroke:#000000; stroke-width:4; stroke-opacity:1"/>
<line clip-path="url(#clip0104)" x1="652.486" y1="4016.05" x2="612.486" y2="4016.05" style="stroke:#000000; stroke-width:4; stroke-opacity:1"/>
<line clip-path="url(#clip0104)" x1="652.486" y1="3725.86" x2="612.486" y2="3725.86" style="stroke:#000000; stroke-width:4; stroke-opacity:1"/>
<line clip-path="url(#clip0104)" x1="890.093" y1="3832.09" x2="850.093" y2="3832.09" style="stroke:#000000; stroke-width:4; stroke-opacity:1"/>
<line clip-path="url(#clip0104)" x1="890.093" y1="3609.67" x2="850.093" y2="3609.67" style="stroke:#000000; stroke-width:4; stroke-opacity:1"/>
<line clip-path="url(#clip0104)" x1="1127.7" y1="3886.88" x2="1087.7" y2="3886.88" style="stroke:#000000; stroke-width:4; stroke-opacity:1"/>
<line clip-path="url(#clip0104)" x1="1127.7" y1="3649.11" x2="1087.7" y2="3649.11" style="stroke:#000000; stroke-width:4; stroke-opacity:1"/>
<line clip-path="url(#clip0104)" x1="1365.31" y1="3916.11" x2="1325.31" y2="3916.11" style="stroke:#000000; stroke-width:4; stroke-opacity:1"/>
<line clip-path="url(#clip0104)" x1="1365.31" y1="3712.96" x2="1325.31" y2="3712.96" style="stroke:#000000; stroke-width:4; stroke-opacity:1"/>
<line clip-path="url(#clip0104)" x1="1602.91" y1="3952.63" x2="1562.91" y2="3952.63" style="stroke:#000000; stroke-width:4; stroke-opacity:1"/>
<line clip-path="url(#clip0104)" x1="1602.91" y1="3753.21" x2="1562.91" y2="3753.21" style="stroke:#000000; stroke-width:4; stroke-opacity:1"/>
<line clip-path="url(#clip0104)" x1="1840.52" y1="4034.69" x2="1800.52" y2="4034.69" style="stroke:#000000; stroke-width:4; stroke-opacity:1"/>
<line clip-path="url(#clip0104)" x1="1840.52" y1="3839.44" x2="1800.52" y2="3839.44" style="stroke:#000000; stroke-width:4; stroke-opacity:1"/>
<line clip-path="url(#clip0104)" x1="2078.12" y1="4091.51" x2="2038.12" y2="4091.51" style="stroke:#000000; stroke-width:4; stroke-opacity:1"/>
<line clip-path="url(#clip0104)" x1="2078.12" y1="3893.53" x2="2038.12" y2="3893.53" style="stroke:#000000; stroke-width:4; stroke-opacity:1"/>
<line clip-path="url(#clip0104)" x1="2315.73" y1="4065.21" x2="2275.73" y2="4065.21" style="stroke:#000000; stroke-width:4; stroke-opacity:1"/>
<line clip-path="url(#clip0104)" x1="2315.73" y1="3853.14" x2="2275.73" y2="3853.14" style="stroke:#000000; stroke-width:4; stroke-opacity:1"/>
<path clip-path="url(#clip0100)" d="
M1241.29 3224.35 L2208.76 3224.35 L2208.76 2816.11 L1241.29 2816.11  Z
  " fill="#ffffff" fill-rule="evenodd" fill-opacity="1"/>
<polyline clip-path="url(#clip0100)" style="stroke:#000000; stroke-width:4; stroke-opacity:1; fill:none" points="
  1241.29,3224.35 2208.76,3224.35 2208.76,2816.11 1241.29,2816.11 1241.29,3224.35 
  "/>
<polyline clip-path="url(#clip0100)" style="stroke:#009af9; stroke-width:4; stroke-opacity:1; fill:none" points="
  1289.29,2952.19 1577.29,2952.19 
  "/>
<g clip-path="url(#clip0100)">
<text style="fill:#000000; fill-opacity:1; font-family:Arial,Helvetica Neue,Helvetica,sans-serif; font-size:107px; text-anchor:start;" transform="rotate(0, 1625.29, 2991.19)" x="1625.29" y="2991.19">simulation</text>
</g>
<polyline clip-path="url(#clip0100)" style="stroke:#e26f46; stroke-width:4; stroke-opacity:1; fill:none" points="
  1289.29,3088.27 1577.29,3088.27 
  "/>
<g clip-path="url(#clip0100)">
<text style="fill:#000000; fill-opacity:1; font-family:Arial,Helvetica Neue,Helvetica,sans-serif; font-size:107px; text-anchor:start;" transform="rotate(0, 1625.29, 3127.27)" x="1625.29" y="3127.27">data</text>
</g>
<path clip-path="url(#clip0100)" d="
M2737.85 4409.19 L4752.76 4409.19 L4752.76 2664.19 L2737.85 2664.19  Z
  " fill="#ffffff" fill-rule="evenodd" fill-opacity="1"/>
<defs>
  <clipPath id="clip0105">
    <rect x="2737" y="2664" width="2016" height="1746"/>
  </clipPath>
</defs>
<polyline clip-path="url(#clip0105)" style="stroke:#000000; stroke-width:2; stroke-opacity:0.1; fill:none" points="
  2794.88,4409.19 2794.88,2664.19 
  "/>
<polyline clip-path="url(#clip0105)" style="stroke:#000000; stroke-width:2; stroke-opacity:0.1; fill:none" points="
  3270.09,4409.19 3270.09,2664.19 
  "/>
<polyline clip-path="url(#clip0105)" style="stroke:#000000; stroke-width:2; stroke-opacity:0.1; fill:none" points="
  3745.31,4409.19 3745.31,2664.19 
  "/>
<polyline clip-path="url(#clip0105)" style="stroke:#000000; stroke-width:2; stroke-opacity:0.1; fill:none" points="
  4220.52,4409.19 4220.52,2664.19 
  "/>
<polyline clip-path="url(#clip0105)" style="stroke:#000000; stroke-width:2; stroke-opacity:0.1; fill:none" points="
  4695.73,4409.19 4695.73,2664.19 
  "/>
<polyline clip-path="url(#clip0105)" style="stroke:#000000; stroke-width:2; stroke-opacity:0.1; fill:none" points="
  2737.85,4409.19 4752.76,4409.19 
  "/>
<polyline clip-path="url(#clip0105)" style="stroke:#000000; stroke-width:2; stroke-opacity:0.1; fill:none" points="
  2737.85,4021.41 4752.76,4021.41 
  "/>
<polyline clip-path="url(#clip0105)" style="stroke:#000000; stroke-width:2; stroke-opacity:0.1; fill:none" points="
  2737.85,3633.63 4752.76,3633.63 
  "/>
<polyline clip-path="url(#clip0105)" style="stroke:#000000; stroke-width:2; stroke-opacity:0.1; fill:none" points="
  2737.85,3245.86 4752.76,3245.86 
  "/>
<polyline clip-path="url(#clip0105)" style="stroke:#000000; stroke-width:2; stroke-opacity:0.1; fill:none" points="
  2737.85,2858.08 4752.76,2858.08 
  "/>
<polyline clip-path="url(#clip0100)" style="stroke:#000000; stroke-width:4; stroke-opacity:1; fill:none" points="
  2737.85,4409.19 4752.76,4409.19 
  "/>
<polyline clip-path="url(#clip0100)" style="stroke:#000000; stroke-width:4; stroke-opacity:1; fill:none" points="
  2737.85,4409.19 2737.85,2664.19 
  "/>
<polyline clip-path="url(#clip0100)" style="stroke:#000000; stroke-width:4; stroke-opacity:1; fill:none" points="
  2794.88,4409.19 2794.88,4388.25 
  "/>
<polyline clip-path="url(#clip0100)" style="stroke:#000000; stroke-width:4; stroke-opacity:1; fill:none" points="
  3270.09,4409.19 3270.09,4388.25 
  "/>
<polyline clip-path="url(#clip0100)" style="stroke:#000000; stroke-width:4; stroke-opacity:1; fill:none" points="
  3745.31,4409.19 3745.31,4388.25 
  "/>
<polyline clip-path="url(#clip0100)" style="stroke:#000000; stroke-width:4; stroke-opacity:1; fill:none" points="
  4220.52,4409.19 4220.52,4388.25 
  "/>
<polyline clip-path="url(#clip0100)" style="stroke:#000000; stroke-width:4; stroke-opacity:1; fill:none" points="
  4695.73,4409.19 4695.73,4388.25 
  "/>
<polyline clip-path="url(#clip0100)" style="stroke:#000000; stroke-width:4; stroke-opacity:1; fill:none" points="
  2737.85,4409.19 2762.03,4409.19 
  "/>
<polyline clip-path="url(#clip0100)" style="stroke:#000000; stroke-width:4; stroke-opacity:1; fill:none" points="
  2737.85,4021.41 2762.03,4021.41 
  "/>
<polyline clip-path="url(#clip0100)" style="stroke:#000000; stroke-width:4; stroke-opacity:1; fill:none" points="
  2737.85,3633.63 2762.03,3633.63 
  "/>
<polyline clip-path="url(#clip0100)" style="stroke:#000000; stroke-width:4; stroke-opacity:1; fill:none" points="
  2737.85,3245.86 2762.03,3245.86 
  "/>
<polyline clip-path="url(#clip0100)" style="stroke:#000000; stroke-width:4; stroke-opacity:1; fill:none" points="
  2737.85,2858.08 2762.03,2858.08 
  "/>
<g clip-path="url(#clip0100)">
<text style="fill:#000000; fill-opacity:1; font-family:Arial,Helvetica Neue,Helvetica,sans-serif; font-size:107px; text-anchor:middle;" transform="rotate(0, 2794.88, 4526.79)" x="2794.88" y="4526.79">0</text>
</g>
<g clip-path="url(#clip0100)">
<text style="fill:#000000; fill-opacity:1; font-family:Arial,Helvetica Neue,Helvetica,sans-serif; font-size:107px; text-anchor:middle;" transform="rotate(0, 3270.09, 4526.79)" x="3270.09" y="4526.79">2</text>
</g>
<g clip-path="url(#clip0100)">
<text style="fill:#000000; fill-opacity:1; font-family:Arial,Helvetica Neue,Helvetica,sans-serif; font-size:107px; text-anchor:middle;" transform="rotate(0, 3745.31, 4526.79)" x="3745.31" y="4526.79">4</text>
</g>
<g clip-path="url(#clip0100)">
<text style="fill:#000000; fill-opacity:1; font-family:Arial,Helvetica Neue,Helvetica,sans-serif; font-size:107px; text-anchor:middle;" transform="rotate(0, 4220.52, 4526.79)" x="4220.52" y="4526.79">6</text>
</g>
<g clip-path="url(#clip0100)">
<text style="fill:#000000; fill-opacity:1; font-family:Arial,Helvetica Neue,Helvetica,sans-serif; font-size:107px; text-anchor:middle;" transform="rotate(0, 4695.73, 4526.79)" x="4695.73" y="4526.79">8</text>
</g>
<g clip-path="url(#clip0100)">
<text style="fill:#000000; fill-opacity:1; font-family:Arial,Helvetica Neue,Helvetica,sans-serif; font-size:107px; text-anchor:end;" transform="rotate(0, 2689.85, 4448.19)" x="2689.85" y="4448.19">0</text>
</g>
<g clip-path="url(#clip0100)">
<text style="fill:#000000; fill-opacity:1; font-family:Arial,Helvetica Neue,Helvetica,sans-serif; font-size:107px; text-anchor:end;" transform="rotate(0, 2689.85, 4060.41)" x="2689.85" y="4060.41">1</text>
</g>
<g clip-path="url(#clip0100)">
<text style="fill:#000000; fill-opacity:1; font-family:Arial,Helvetica Neue,Helvetica,sans-serif; font-size:107px; text-anchor:end;" transform="rotate(0, 2689.85, 3672.63)" x="2689.85" y="3672.63">2</text>
</g>
<g clip-path="url(#clip0100)">
<text style="fill:#000000; fill-opacity:1; font-family:Arial,Helvetica Neue,Helvetica,sans-serif; font-size:107px; text-anchor:end;" transform="rotate(0, 2689.85, 3284.86)" x="2689.85" y="3284.86">3</text>
</g>
<g clip-path="url(#clip0100)">
<text style="fill:#000000; fill-opacity:1; font-family:Arial,Helvetica Neue,Helvetica,sans-serif; font-size:107px; text-anchor:end;" transform="rotate(0, 2689.85, 2897.08)" x="2689.85" y="2897.08">4</text>
</g>
<g clip-path="url(#clip0100)">
<text style="fill:#000000; fill-opacity:1; font-family:Arial,Helvetica Neue,Helvetica,sans-serif; font-size:189px; text-anchor:middle;" transform="rotate(0, 3745.31, 2565.6)" x="3745.31" y="2565.6">Overweight hypothyroid patient 45 mcg (n = 4)</text>
</g>
<g clip-path="url(#clip0100)">
<text style="fill:#000000; fill-opacity:1; font-family:Arial,Helvetica Neue,Helvetica,sans-serif; font-size:143px; text-anchor:middle;" transform="rotate(0, 3745.31, 4700.46)" x="3745.31" y="4700.46">Time (hours)</text>
</g>
<g clip-path="url(#clip0100)">
<text style="fill:#000000; fill-opacity:1; font-family:Arial,Helvetica Neue,Helvetica,sans-serif; font-size:143px; text-anchor:middle;" transform="rotate(-90, 2555.54, 3536.69)" x="2555.54" y="3536.69">T3 mcg/L</text>
</g>
<path clip-path="url(#clip0105)" d="
M2794.88 4085.14 L2818.64 4074.98 L2842.4 4029.15 L2866.16 3969.64 L2889.92 3904.51 L2913.68 3837.7 L2937.44 3771.61 L2961.2 3707.88 L2984.97 3647.7 L3008.73 3591.83 
  L3032.49 3540.73 L3056.25 3494.82 L3080.01 3454.05 L3103.77 3418.32 L3127.53 3388.09 L3151.29 3362.67 L3175.05 3340.81 L3198.81 3324.27 L3222.57 3314.07 L3246.33 3302.51 
  L3270.09 3295.52 L3293.85 3298.55 L3317.61 3293.35 L3341.37 3298.11 L3365.14 3305.18 L3388.9 3308.49 L3412.66 3321.62 L3436.42 3329.15 L3460.18 3343.64 L3483.94 3355.88 
  L3507.7 3370.36 L3531.46 3386.14 L3555.22 3400.48 L3578.98 3418.52 L3602.74 3433.81 L3626.5 3451.82 L3650.26 3469.37 L3674.02 3485.53 L3697.78 3504.92 L3721.54 3520.76 
  L3745.31 3539.26 L3769.07 3556.96 L3792.83 3572.69 L3816.59 3591.71 L3840.35 3606.71 L3864.11 3624.37 L3887.87 3640.76 L3911.63 3655.55 L3935.39 3672.92 L3959.15 3686.46 
  L3982.91 3702.7 L4006.67 3717.04 L4030.43 3730.62 L4054.19 3745.86 L4077.95 3757.73 L4101.71 3772.24 L4125.48 3784.45 L4149.24 3796.58 L4173 3809.69 L4196.76 3819.88 
  L4220.52 3832.59 L4244.28 3842.8 L4268.04 3853.45 L4291.8 3864.54 L4315.56 3873.21 L4339.32 3884.2 L4363.08 3892.61 L4386.84 3901.89 L4410.6 3911.12 L4434.36 3918.49 
  L4458.12 3927.88 L4481.88 3934.75 L4505.65 3942.8 L4529.41 3950.38 L4553.17 3956.65 L4576.93 3964.6 L4600.69 3970.19 L4624.45 3977.15 L4648.21 3983.31 L4671.97 3988.54 
  L4695.73 3994.78 L4695.73 3951.64 L4671.97 3945.71 L4648.21 3939.78 L4624.45 3933.35 L4600.69 3926.66 L4576.93 3919.9 L4553.17 3912.63 L4529.41 3905.36 L4505.65 3897.71 
  L4481.88 3889.66 L4458.12 3881.66 L4434.36 3872.94 L4410.6 3864.28 L4386.84 3855.19 L4363.08 3845.6 L4339.32 3836.15 L4315.56 3825.76 L4291.8 3815.53 L4268.04 3804.77 
  L4244.28 3793.43 L4220.52 3782.36 L4196.76 3770.05 L4173 3758.13 L4149.24 3745.46 L4125.48 3732.24 L4101.71 3719.38 L4077.95 3704.99 L4054.19 3691.33 L4030.43 3676.55 
  L4006.67 3661.45 L3982.91 3646.72 L3959.15 3630.22 L3935.39 3614.92 L3911.63 3597.99 L3887.87 3581.23 L3864.11 3564.74 L3840.35 3546.34 L3816.59 3529.78 L3792.83 3511.03 
  L3769.07 3493.1 L3745.31 3475.41 L3721.54 3455.81 L3697.78 3438.61 L3674.02 3419.19 L3650.26 3400.96 L3626.5 3383.26 L3602.74 3364.03 L3578.98 3347.57 L3555.22 3329.25 
  L3531.46 3313.02 L3507.7 3297.17 L3483.94 3281.06 L3460.18 3268.35 L3436.42 3253.3 L3412.66 3244.14 L3388.9 3231.68 L3365.14 3225.55 L3341.37 3219.87 L3317.61 3212.94 
  L3293.85 3218.13 L3270.09 3215.77 L3246.33 3221.25 L3222.57 3233.45 L3198.81 3243.6 L3175.05 3260.11 L3151.29 3282.55 L3127.53 3308.42 L3103.77 3339.29 L3080.01 3375.98 
  L3056.25 3417.85 L3032.49 3465.06 L3008.73 3517.68 L2984.97 3575.24 L2961.2 3637.28 L2937.44 3702.99 L2913.68 3771.15 L2889.92 3840.04 L2866.16 3907.18 L2842.4 3968.46 
  L2818.64 4015.41 L2794.88 4024.57  Z
  " fill="#009af9" fill-rule="evenodd" fill-opacity="0.3"/>
<polyline clip-path="url(#clip0105)" style="stroke:#009af9; stroke-width:4; stroke-opacity:1; fill:none" points="
  2794.88,4054.86 2818.64,4045.2 2842.4,3998.8 2866.16,3938.41 2889.92,3872.27 2913.68,3804.43 2937.44,3737.3 2961.2,3672.58 2984.97,3611.47 3008.73,3554.75 
  3032.49,3502.9 3056.25,3456.34 3080.01,3415.01 3103.77,3378.8 3127.53,3348.25 3151.29,3322.61 3175.05,3300.46 3198.81,3283.93 3222.57,3273.76 3246.33,3261.88 
  3270.09,3255.64 3293.85,3258.34 3317.61,3253.15 3341.37,3258.99 3365.14,3265.36 3388.9,3270.08 3412.66,3282.88 3436.42,3291.22 3460.18,3306 3483.94,3318.47 
  3507.7,3333.76 3531.46,3349.58 3555.22,3364.86 3578.98,3383.05 3602.74,3398.92 3626.5,3417.54 3650.26,3435.17 3674.02,3452.36 3697.78,3471.77 3721.54,3488.29 
  3745.31,3507.33 3769.07,3525.03 3792.83,3541.86 3816.59,3560.75 3840.35,3576.52 3864.11,3594.55 3887.87,3610.99 3911.63,3626.77 3935.39,3643.92 3959.15,3658.34 
  3982.91,3674.71 4006.67,3689.25 4030.43,3703.59 4054.19,3718.59 4077.95,3731.36 4101.71,3745.81 4125.48,3758.35 4149.24,3771.02 4173,3783.91 4196.76,3794.96 
  4220.52,3807.48 4244.28,3818.11 4268.04,3829.11 4291.8,3840.04 4315.56,3849.48 4339.32,3860.17 4363.08,3869.1 4386.84,3878.54 4410.6,3887.7 4434.36,3895.71 
  4458.12,3904.77 4481.88,3912.21 4505.65,3920.26 4529.41,3927.87 4553.17,3934.64 4576.93,3942.25 4600.69,3948.42 4624.45,3955.25 4648.21,3961.55 4671.97,3967.13 
  4695.73,3973.21 
  "/>
<polyline clip-path="url(#clip0105)" style="stroke:#e26f46; stroke-width:4; stroke-opacity:1; fill:none" points="
  2794.88,4054.86 2913.68,3931.83 3032.49,3314.98 3270.09,2930.21 3507.7,3141.45 3745.31,3277.17 3982.91,3489.48 4220.52,3602.03 4458.12,3703.24 4695.73,3786.03 
  
  "/>
<polyline clip-path="url(#clip0105)" style="stroke:#e26f46; stroke-width:4; stroke-opacity:1; fill:none" points="
  2794.88,4085.14 2794.88,4024.57 
  "/>
<polyline clip-path="url(#clip0105)" style="stroke:#e26f46; stroke-width:4; stroke-opacity:1; fill:none" points="
  2913.68,3954.52 2913.68,3909.15 
  "/>
<polyline clip-path="url(#clip0105)" style="stroke:#e26f46; stroke-width:4; stroke-opacity:1; fill:none" points="
  3032.49,3473.88 3032.49,3156.08 
  "/>
<polyline clip-path="url(#clip0105)" style="stroke:#e26f46; stroke-width:4; stroke-opacity:1; fill:none" points="
  3270.09,3165.62 3270.09,2694.79 
  "/>
<polyline clip-path="url(#clip0105)" style="stroke:#e26f46; stroke-width:4; stroke-opacity:1; fill:none" points="
  3507.7,3356.75 3507.7,2926.15 
  "/>
<polyline clip-path="url(#clip0105)" style="stroke:#e26f46; stroke-width:4; stroke-opacity:1; fill:none" points="
  3745.31,3443.58 3745.31,3110.76 
  "/>
<polyline clip-path="url(#clip0105)" style="stroke:#e26f46; stroke-width:4; stroke-opacity:1; fill:none" points="
  3982.91,3605.71 3982.91,3373.24 
  "/>
<polyline clip-path="url(#clip0105)" style="stroke:#e26f46; stroke-width:4; stroke-opacity:1; fill:none" points="
  4220.52,3676.5 4220.52,3527.56 
  "/>
<polyline clip-path="url(#clip0105)" style="stroke:#e26f46; stroke-width:4; stroke-opacity:1; fill:none" points="
  4458.12,3788.46 4458.12,3618.01 
  "/>
<polyline clip-path="url(#clip0105)" style="stroke:#e26f46; stroke-width:4; stroke-opacity:1; fill:none" points="
  4695.73,3854.95 4695.73,3717.1 
  "/>
<line clip-path="url(#clip0105)" x1="2814.88" y1="4085.14" x2="2774.88" y2="4085.14" style="stroke:#000000; stroke-width:4; stroke-opacity:1"/>
<line clip-path="url(#clip0105)" x1="2814.88" y1="4024.57" x2="2774.88" y2="4024.57" style="stroke:#000000; stroke-width:4; stroke-opacity:1"/>
<line clip-path="url(#clip0105)" x1="2933.68" y1="3954.52" x2="2893.68" y2="3954.52" style="stroke:#000000; stroke-width:4; stroke-opacity:1"/>
<line clip-path="url(#clip0105)" x1="2933.68" y1="3909.15" x2="2893.68" y2="3909.15" style="stroke:#000000; stroke-width:4; stroke-opacity:1"/>
<line clip-path="url(#clip0105)" x1="3052.49" y1="3473.88" x2="3012.49" y2="3473.88" style="stroke:#000000; stroke-width:4; stroke-opacity:1"/>
<line clip-path="url(#clip0105)" x1="3052.49" y1="3156.08" x2="3012.49" y2="3156.08" style="stroke:#000000; stroke-width:4; stroke-opacity:1"/>
<line clip-path="url(#clip0105)" x1="3290.09" y1="3165.62" x2="3250.09" y2="3165.62" style="stroke:#000000; stroke-width:4; stroke-opacity:1"/>
<line clip-path="url(#clip0105)" x1="3290.09" y1="2694.79" x2="3250.09" y2="2694.79" style="stroke:#000000; stroke-width:4; stroke-opacity:1"/>
<line clip-path="url(#clip0105)" x1="3527.7" y1="3356.75" x2="3487.7" y2="3356.75" style="stroke:#000000; stroke-width:4; stroke-opacity:1"/>
<line clip-path="url(#clip0105)" x1="3527.7" y1="2926.15" x2="3487.7" y2="2926.15" style="stroke:#000000; stroke-width:4; stroke-opacity:1"/>
<line clip-path="url(#clip0105)" x1="3765.31" y1="3443.58" x2="3725.31" y2="3443.58" style="stroke:#000000; stroke-width:4; stroke-opacity:1"/>
<line clip-path="url(#clip0105)" x1="3765.31" y1="3110.76" x2="3725.31" y2="3110.76" style="stroke:#000000; stroke-width:4; stroke-opacity:1"/>
<line clip-path="url(#clip0105)" x1="4002.91" y1="3605.71" x2="3962.91" y2="3605.71" style="stroke:#000000; stroke-width:4; stroke-opacity:1"/>
<line clip-path="url(#clip0105)" x1="4002.91" y1="3373.24" x2="3962.91" y2="3373.24" style="stroke:#000000; stroke-width:4; stroke-opacity:1"/>
<line clip-path="url(#clip0105)" x1="4240.52" y1="3676.5" x2="4200.52" y2="3676.5" style="stroke:#000000; stroke-width:4; stroke-opacity:1"/>
<line clip-path="url(#clip0105)" x1="4240.52" y1="3527.56" x2="4200.52" y2="3527.56" style="stroke:#000000; stroke-width:4; stroke-opacity:1"/>
<line clip-path="url(#clip0105)" x1="4478.12" y1="3788.46" x2="4438.12" y2="3788.46" style="stroke:#000000; stroke-width:4; stroke-opacity:1"/>
<line clip-path="url(#clip0105)" x1="4478.12" y1="3618.01" x2="4438.12" y2="3618.01" style="stroke:#000000; stroke-width:4; stroke-opacity:1"/>
<line clip-path="url(#clip0105)" x1="4715.73" y1="3854.95" x2="4675.73" y2="3854.95" style="stroke:#000000; stroke-width:4; stroke-opacity:1"/>
<line clip-path="url(#clip0105)" x1="4715.73" y1="3717.1" x2="4675.73" y2="3717.1" style="stroke:#000000; stroke-width:4; stroke-opacity:1"/>
<path clip-path="url(#clip0100)" d="
M3641.29 3224.35 L4608.76 3224.35 L4608.76 2816.11 L3641.29 2816.11  Z
  " fill="#ffffff" fill-rule="evenodd" fill-opacity="1"/>
<polyline clip-path="url(#clip0100)" style="stroke:#000000; stroke-width:4; stroke-opacity:1; fill:none" points="
  3641.29,3224.35 4608.76,3224.35 4608.76,2816.11 3641.29,2816.11 3641.29,3224.35 
  "/>
<polyline clip-path="url(#clip0100)" style="stroke:#009af9; stroke-width:4; stroke-opacity:1; fill:none" points="
  3689.29,2952.19 3977.29,2952.19 
  "/>
<g clip-path="url(#clip0100)">
<text style="fill:#000000; fill-opacity:1; font-family:Arial,Helvetica Neue,Helvetica,sans-serif; font-size:107px; text-anchor:start;" transform="rotate(0, 4025.29, 2991.19)" x="4025.29" y="2991.19">simulation</text>
</g>
<polyline clip-path="url(#clip0100)" style="stroke:#e26f46; stroke-width:4; stroke-opacity:1; fill:none" points="
  3689.29,3088.27 3977.29,3088.27 
  "/>
<g clip-path="url(#clip0100)">
<text style="fill:#000000; fill-opacity:1; font-family:Arial,Helvetica Neue,Helvetica,sans-serif; font-size:107px; text-anchor:start;" transform="rotate(0, 4025.29, 3127.27)" x="4025.29" y="3127.27">data</text>
</g>
</svg>
