<?xml version="1.0" encoding="utf-8"?>
<svg xmlns="http://www.w3.org/2000/svg" xmlns:xlink="http://www.w3.org/1999/xlink" width="600" height="400" viewBox="0 0 2400 1600">
<defs>
  <clipPath id="clip7900">
    <rect x="0" y="0" width="2400" height="1600"/>
  </clipPath>
</defs>
<polygon clip-path="url(#clip7900)" points="
0,1600 2400,1600 2400,0 0,0 
  " fill="#ffffff" fill-rule="evenodd" fill-opacity="1"/>
<defs>
  <clipPath id="clip7901">
    <rect x="480" y="0" width="1681" height="1600"/>
  </clipPath>
</defs>
<polygon clip-path="url(#clip7900)" points="
290.237,1387.89 2352.76,1387.89 2352.76,151.017 290.237,151.017 
  " fill="#ffffff" fill-rule="evenodd" fill-opacity="1"/>
<defs>
  <clipPath id="clip7902">
    <rect x="290" y="151" width="2064" height="1238"/>
  </clipPath>
</defs>
<polyline clip-path="url(#clip7902)" style="stroke:#000000; stroke-width:2; stroke-opacity:0.1; fill:none" points="
  403.679,1387.89 403.679,151.017 
  "/>
<polyline clip-path="url(#clip7902)" style="stroke:#000000; stroke-width:2; stroke-opacity:0.1; fill:none" points="
  802.73,1387.89 802.73,151.017 
  "/>
<polyline clip-path="url(#clip7902)" style="stroke:#000000; stroke-width:2; stroke-opacity:0.1; fill:none" points="
  1201.78,1387.89 1201.78,151.017 
  "/>
<polyline clip-path="url(#clip7902)" style="stroke:#000000; stroke-width:2; stroke-opacity:0.1; fill:none" points="
  1600.83,1387.89 1600.83,151.017 
  "/>
<polyline clip-path="url(#clip7902)" style="stroke:#000000; stroke-width:2; stroke-opacity:0.1; fill:none" points="
  1999.88,1387.89 1999.88,151.017 
  "/>
<polyline clip-path="url(#clip7902)" style="stroke:#000000; stroke-width:2; stroke-opacity:0.1; fill:none" points="
  290.237,1352.89 2352.76,1352.89 
  "/>
<polyline clip-path="url(#clip7902)" style="stroke:#000000; stroke-width:2; stroke-opacity:0.1; fill:none" points="
  290.237,1090.08 2352.76,1090.08 
  "/>
<polyline clip-path="url(#clip7902)" style="stroke:#000000; stroke-width:2; stroke-opacity:0.1; fill:none" points="
  290.237,827.273 2352.76,827.273 
  "/>
<polyline clip-path="url(#clip7902)" style="stroke:#000000; stroke-width:2; stroke-opacity:0.1; fill:none" points="
  290.237,564.465 2352.76,564.465 
  "/>
<polyline clip-path="url(#clip7902)" style="stroke:#000000; stroke-width:2; stroke-opacity:0.1; fill:none" points="
  290.237,301.658 2352.76,301.658 
  "/>
<polyline clip-path="url(#clip7900)" style="stroke:#000000; stroke-width:4; stroke-opacity:1; fill:none" points="
  290.237,1387.89 2352.76,1387.89 
  "/>
<polyline clip-path="url(#clip7900)" style="stroke:#000000; stroke-width:4; stroke-opacity:1; fill:none" points="
  290.237,1387.89 290.237,151.017 
  "/>
<polyline clip-path="url(#clip7900)" style="stroke:#000000; stroke-width:4; stroke-opacity:1; fill:none" points="
  403.679,1387.89 403.679,1369.34 
  "/>
<polyline clip-path="url(#clip7900)" style="stroke:#000000; stroke-width:4; stroke-opacity:1; fill:none" points="
  802.73,1387.89 802.73,1369.34 
  "/>
<polyline clip-path="url(#clip7900)" style="stroke:#000000; stroke-width:4; stroke-opacity:1; fill:none" points="
  1201.78,1387.89 1201.78,1369.34 
  "/>
<polyline clip-path="url(#clip7900)" style="stroke:#000000; stroke-width:4; stroke-opacity:1; fill:none" points="
  1600.83,1387.89 1600.83,1369.34 
  "/>
<polyline clip-path="url(#clip7900)" style="stroke:#000000; stroke-width:4; stroke-opacity:1; fill:none" points="
  1999.88,1387.89 1999.88,1369.34 
  "/>
<polyline clip-path="url(#clip7900)" style="stroke:#000000; stroke-width:4; stroke-opacity:1; fill:none" points="
  290.237,1352.89 321.175,1352.89 
  "/>
<polyline clip-path="url(#clip7900)" style="stroke:#000000; stroke-width:4; stroke-opacity:1; fill:none" points="
  290.237,1090.08 321.175,1090.08 
  "/>
<polyline clip-path="url(#clip7900)" style="stroke:#000000; stroke-width:4; stroke-opacity:1; fill:none" points="
  290.237,827.273 321.175,827.273 
  "/>
<polyline clip-path="url(#clip7900)" style="stroke:#000000; stroke-width:4; stroke-opacity:1; fill:none" points="
  290.237,564.465 321.175,564.465 
  "/>
<polyline clip-path="url(#clip7900)" style="stroke:#000000; stroke-width:4; stroke-opacity:1; fill:none" points="
  290.237,301.658 321.175,301.658 
  "/>
<g clip-path="url(#clip7900)">
<text style="fill:#000000; fill-opacity:1; font-family:Arial,Helvetica Neue,Helvetica,sans-serif; font-size:71px; text-anchor:middle;" transform="rotate(0, 403.679, 1462.29)" x="403.679" y="1462.29">50</text>
</g>
<g clip-path="url(#clip7900)">
<text style="fill:#000000; fill-opacity:1; font-family:Arial,Helvetica Neue,Helvetica,sans-serif; font-size:71px; text-anchor:middle;" transform="rotate(0, 802.73, 1462.29)" x="802.73" y="1462.29">100</text>
</g>
<g clip-path="url(#clip7900)">
<text style="fill:#000000; fill-opacity:1; font-family:Arial,Helvetica Neue,Helvetica,sans-serif; font-size:71px; text-anchor:middle;" transform="rotate(0, 1201.78, 1462.29)" x="1201.78" y="1462.29">150</text>
</g>
<g clip-path="url(#clip7900)">
<text style="fill:#000000; fill-opacity:1; font-family:Arial,Helvetica Neue,Helvetica,sans-serif; font-size:71px; text-anchor:middle;" transform="rotate(0, 1600.83, 1462.29)" x="1600.83" y="1462.29">200</text>
</g>
<g clip-path="url(#clip7900)">
<text style="fill:#000000; fill-opacity:1; font-family:Arial,Helvetica Neue,Helvetica,sans-serif; font-size:71px; text-anchor:middle;" transform="rotate(0, 1999.88, 1462.29)" x="1999.88" y="1462.29">250</text>
</g>
<g clip-path="url(#clip7900)">
<text style="fill:#000000; fill-opacity:1; font-family:Arial,Helvetica Neue,Helvetica,sans-serif; font-size:71px; text-anchor:end;" transform="rotate(0, 266.237, 1378.89)" x="266.237" y="1378.89">0</text>
</g>
<g clip-path="url(#clip7900)">
<text style="fill:#000000; fill-opacity:1; font-family:Arial,Helvetica Neue,Helvetica,sans-serif; font-size:71px; text-anchor:end;" transform="rotate(0, 266.237, 1116.08)" x="266.237" y="1116.08">25</text>
</g>
<g clip-path="url(#clip7900)">
<text style="fill:#000000; fill-opacity:1; font-family:Arial,Helvetica Neue,Helvetica,sans-serif; font-size:71px; text-anchor:end;" transform="rotate(0, 266.237, 853.273)" x="266.237" y="853.273">50</text>
</g>
<g clip-path="url(#clip7900)">
<text style="fill:#000000; fill-opacity:1; font-family:Arial,Helvetica Neue,Helvetica,sans-serif; font-size:71px; text-anchor:end;" transform="rotate(0, 266.237, 590.465)" x="266.237" y="590.465">75</text>
</g>
<g clip-path="url(#clip7900)">
<text style="fill:#000000; fill-opacity:1; font-family:Arial,Helvetica Neue,Helvetica,sans-serif; font-size:71px; text-anchor:end;" transform="rotate(0, 266.237, 327.658)" x="266.237" y="327.658">100</text>
</g>
<g clip-path="url(#clip7900)">
<text style="fill:#000000; fill-opacity:1; font-family:Arial,Helvetica Neue,Helvetica,sans-serif; font-size:125px; text-anchor:middle;" transform="rotate(0, 1321.5, 109.2)" x="1321.5" y="109.2">Average passing dose</text>
</g>
<g clip-path="url(#clip7900)">
<text style="fill:#000000; fill-opacity:1; font-family:Arial,Helvetica Neue,Helvetica,sans-serif; font-size:95px; text-anchor:middle;" transform="rotate(0, 1321.5, 1574.14)" x="1321.5" y="1574.14">T4 dose (mcg)</text>
</g>
<g clip-path="url(#clip7900)">
<text style="fill:#000000; fill-opacity:1; font-family:Arial,Helvetica Neue,Helvetica,sans-serif; font-size:95px; text-anchor:middle;" transform="rotate(-90, 104.007, 769.455)" x="104.007" y="769.455">Count</text>
</g>
<polygon clip-path="url(#clip7902)" points="
1042.16,1289.81 1042.16,1352.89 1082.07,1352.89 1082.07,1289.81 1042.16,1289.81 1042.16,1289.81 
  " fill="#009af9" fill-rule="evenodd" fill-opacity="1"/>
<polyline clip-path="url(#clip7902)" style="stroke:#000000; stroke-width:4; stroke-opacity:1; fill:none" points="
  1042.16,1289.81 1042.16,1352.89 1082.07,1352.89 1082.07,1289.81 1042.16,1289.81 
  "/>
<polygon clip-path="url(#clip7902)" points="
1082.07,1268.79 1082.07,1352.89 1121.97,1352.89 1121.97,1268.79 1082.07,1268.79 1082.07,1268.79 
  " fill="#009af9" fill-rule="evenodd" fill-opacity="1"/>
<polyline clip-path="url(#clip7902)" style="stroke:#000000; stroke-width:4; stroke-opacity:1; fill:none" points="
  1082.07,1268.79 1082.07,1352.89 1121.97,1352.89 1121.97,1268.79 1082.07,1268.79 
  "/>
<polygon clip-path="url(#clip7902)" points="
1121.97,1163.67 1121.97,1352.89 1161.88,1352.89 1161.88,1163.67 1121.97,1163.67 1121.97,1163.67 
  " fill="#009af9" fill-rule="evenodd" fill-opacity="1"/>
<polyline clip-path="url(#clip7902)" style="stroke:#000000; stroke-width:4; stroke-opacity:1; fill:none" points="
  1121.97,1163.67 1121.97,1352.89 1161.88,1352.89 1161.88,1163.67 1121.97,1163.67 
  "/>
<polygon clip-path="url(#clip7902)" points="
1161.88,1352.89 1161.88,1352.89 1201.78,1352.89 1201.78,1352.89 1161.88,1352.89 1161.88,1352.89 
  " fill="#009af9" fill-rule="evenodd" fill-opacity="1"/>
<polyline clip-path="url(#clip7902)" style="stroke:#000000; stroke-width:4; stroke-opacity:1; fill:none" points="
  1161.88,1352.89 1161.88,1352.89 1201.78,1352.89 1161.88,1352.89 
  "/>
<polygon clip-path="url(#clip7902)" points="
1201.78,1016.49 1201.78,1352.89 1241.69,1352.89 1241.69,1016.49 1201.78,1016.49 1201.78,1016.49 
  " fill="#009af9" fill-rule="evenodd" fill-opacity="1"/>
<polyline clip-path="url(#clip7902)" style="stroke:#000000; stroke-width:4; stroke-opacity:1; fill:none" points="
  1201.78,1016.49 1201.78,1352.89 1241.69,1352.89 1241.69,1016.49 1201.78,1016.49 
  "/>
<polygon clip-path="url(#clip7902)" points="
1241.69,1342.38 1241.69,1352.89 1281.59,1352.89 1281.59,1342.38 1241.69,1342.38 1241.69,1342.38 
  " fill="#009af9" fill-rule="evenodd" fill-opacity="1"/>
<polyline clip-path="url(#clip7902)" style="stroke:#000000; stroke-width:4; stroke-opacity:1; fill:none" points="
  1241.69,1342.38 1241.69,1352.89 1281.59,1352.89 1281.59,1342.38 1241.69,1342.38 
  "/>
<polygon clip-path="url(#clip7902)" points="
1281.59,1079.57 1281.59,1352.89 1321.5,1352.89 1321.5,1079.57 1281.59,1079.57 1281.59,1079.57 
  " fill="#009af9" fill-rule="evenodd" fill-opacity="1"/>
<polyline clip-path="url(#clip7902)" style="stroke:#000000; stroke-width:4; stroke-opacity:1; fill:none" points="
  1281.59,1079.57 1281.59,1352.89 1321.5,1352.89 1321.5,1079.57 1281.59,1079.57 
  "/>
<polygon clip-path="url(#clip7902)" points="
1321.5,974.445 1321.5,1352.89 1361.4,1352.89 1361.4,974.445 1321.5,974.445 1321.5,974.445 
  " fill="#009af9" fill-rule="evenodd" fill-opacity="1"/>
<polyline clip-path="url(#clip7902)" style="stroke:#000000; stroke-width:4; stroke-opacity:1; fill:none" points="
  1321.5,974.445 1321.5,1352.89 1361.4,1352.89 1361.4,974.445 1321.5,974.445 
  "/>
<polygon clip-path="url(#clip7902)" points="
1361.4,1352.89 1361.4,1352.89 1401.31,1352.89 1401.31,1352.89 1361.4,1352.89 1361.4,1352.89 
  " fill="#009af9" fill-rule="evenodd" fill-opacity="1"/>
<polyline clip-path="url(#clip7902)" style="stroke:#000000; stroke-width:4; stroke-opacity:1; fill:none" points="
  1361.4,1352.89 1361.4,1352.89 1401.31,1352.89 1361.4,1352.89 
  "/>
<polygon clip-path="url(#clip7902)" points="
1401.31,795.736 1401.31,1352.89 1441.21,1352.89 1441.21,795.736 1401.31,795.736 1401.31,795.736 
  " fill="#009af9" fill-rule="evenodd" fill-opacity="1"/>
<polyline clip-path="url(#clip7902)" style="stroke:#000000; stroke-width:4; stroke-opacity:1; fill:none" points="
  1401.31,795.736 1401.31,1352.89 1441.21,1352.89 1441.21,795.736 1401.31,795.736 
  "/>
<polygon clip-path="url(#clip7902)" points="
1441.21,596.002 1441.21,1352.89 1481.12,1352.89 1481.12,596.002 1441.21,596.002 1441.21,596.002 
  " fill="#009af9" fill-rule="evenodd" fill-opacity="1"/>
<polyline clip-path="url(#clip7902)" style="stroke:#000000; stroke-width:4; stroke-opacity:1; fill:none" points="
  1441.21,596.002 1441.21,1352.89 1481.12,1352.89 1481.12,596.002 1441.21,596.002 
  "/>
<polygon clip-path="url(#clip7902)" points="
1481.12,1048.03 1481.12,1352.89 1521.02,1352.89 1521.02,1048.03 1481.12,1048.03 1481.12,1048.03 
  " fill="#009af9" fill-rule="evenodd" fill-opacity="1"/>
<polyline clip-path="url(#clip7902)" style="stroke:#000000; stroke-width:4; stroke-opacity:1; fill:none" points="
  1481.12,1048.03 1481.12,1352.89 1521.02,1352.89 1521.02,1048.03 1481.12,1048.03 
  "/>
<polygon clip-path="url(#clip7902)" points="
1521.02,501.392 1521.02,1352.89 1560.93,1352.89 1560.93,501.392 1521.02,501.392 1521.02,501.392 
  " fill="#009af9" fill-rule="evenodd" fill-opacity="1"/>
<polyline clip-path="url(#clip7902)" style="stroke:#000000; stroke-width:4; stroke-opacity:1; fill:none" points="
  1521.02,501.392 1521.02,1352.89 1560.93,1352.89 1560.93,501.392 1521.02,501.392 
  "/>
<polygon clip-path="url(#clip7902)" points="
1560.93,1352.89 1560.93,1352.89 1600.83,1352.89 1600.83,1352.89 1560.93,1352.89 1560.93,1352.89 
  " fill="#009af9" fill-rule="evenodd" fill-opacity="1"/>
<polyline clip-path="url(#clip7902)" style="stroke:#000000; stroke-width:4; stroke-opacity:1; fill:none" points="
  1560.93,1352.89 1560.93,1352.89 1600.83,1352.89 1560.93,1352.89 
  "/>
<polygon clip-path="url(#clip7902)" points="
1600.83,490.879 1600.83,1352.89 1640.74,1352.89 1640.74,490.879 1600.83,490.879 1600.83,490.879 
  " fill="#009af9" fill-rule="evenodd" fill-opacity="1"/>
<polyline clip-path="url(#clip7902)" style="stroke:#000000; stroke-width:4; stroke-opacity:1; fill:none" points="
  1600.83,490.879 1600.83,1352.89 1640.74,1352.89 1640.74,490.879 1600.83,490.879 
  "/>
<polygon clip-path="url(#clip7902)" points="
1640.74,291.146 1640.74,1352.89 1680.64,1352.89 1680.64,291.146 1640.74,291.146 1640.74,291.146 
  " fill="#009af9" fill-rule="evenodd" fill-opacity="1"/>
<polyline clip-path="url(#clip7902)" style="stroke:#000000; stroke-width:4; stroke-opacity:1; fill:none" points="
  1640.74,291.146 1640.74,1352.89 1680.64,1352.89 1680.64,291.146 1640.74,291.146 
  "/>
<polygon clip-path="url(#clip7902)" points="
1680.64,1258.28 1680.64,1352.89 1720.55,1352.89 1720.55,1258.28 1680.64,1258.28 1680.64,1258.28 
  " fill="#009af9" fill-rule="evenodd" fill-opacity="1"/>
<polyline clip-path="url(#clip7902)" style="stroke:#000000; stroke-width:4; stroke-opacity:1; fill:none" points="
  1680.64,1258.28 1680.64,1352.89 1720.55,1352.89 1720.55,1258.28 1680.64,1258.28 
  "/>
<polygon clip-path="url(#clip7902)" points="
403.679,1310.84 403.679,1352.89 483.489,1352.89 483.489,1310.84 403.679,1310.84 403.679,1310.84 
  " fill="#e26f46" fill-rule="evenodd" fill-opacity="1"/>
<polyline clip-path="url(#clip7902)" style="stroke:#000000; stroke-width:4; stroke-opacity:1; fill:none" points="
  403.679,1310.84 403.679,1352.89 483.489,1352.89 483.489,1310.84 403.679,1310.84 
  "/>
<polygon clip-path="url(#clip7902)" points="
483.489,1352.89 483.489,1352.89 563.3,1352.89 563.3,1352.89 483.489,1352.89 483.489,1352.89 
  " fill="#e26f46" fill-rule="evenodd" fill-opacity="1"/>
<polyline clip-path="url(#clip7902)" style="stroke:#000000; stroke-width:4; stroke-opacity:1; fill:none" points="
  483.489,1352.89 483.489,1352.89 563.3,1352.89 483.489,1352.89 
  "/>
<polygon clip-path="url(#clip7902)" points="
563.3,1142.64 563.3,1352.89 643.11,1352.89 643.11,1142.64 563.3,1142.64 563.3,1142.64 
  " fill="#e26f46" fill-rule="evenodd" fill-opacity="1"/>
<polyline clip-path="url(#clip7902)" style="stroke:#000000; stroke-width:4; stroke-opacity:1; fill:none" points="
  563.3,1142.64 563.3,1352.89 643.11,1352.89 643.11,1142.64 563.3,1142.64 
  "/>
<polygon clip-path="url(#clip7902)" points="
643.11,963.933 643.11,1352.89 722.92,1352.89 722.92,963.933 643.11,963.933 643.11,963.933 
  " fill="#e26f46" fill-rule="evenodd" fill-opacity="1"/>
<polyline clip-path="url(#clip7902)" style="stroke:#000000; stroke-width:4; stroke-opacity:1; fill:none" points="
  643.11,963.933 643.11,1352.89 722.92,1352.89 722.92,963.933 643.11,963.933 
  "/>
<polygon clip-path="url(#clip7902)" points="
722.92,1279.3 722.92,1352.89 802.73,1352.89 802.73,1279.3 722.92,1279.3 722.92,1279.3 
  " fill="#e26f46" fill-rule="evenodd" fill-opacity="1"/>
<polyline clip-path="url(#clip7902)" style="stroke:#000000; stroke-width:4; stroke-opacity:1; fill:none" points="
  722.92,1279.3 722.92,1352.89 802.73,1352.89 802.73,1279.3 722.92,1279.3 
  "/>
<polygon clip-path="url(#clip7902)" points="
802.73,396.269 802.73,1352.89 882.54,1352.89 882.54,396.269 802.73,396.269 802.73,396.269 
  " fill="#e26f46" fill-rule="evenodd" fill-opacity="1"/>
<polyline clip-path="url(#clip7902)" style="stroke:#000000; stroke-width:4; stroke-opacity:1; fill:none" points="
  802.73,396.269 802.73,1352.89 882.54,1352.89 882.54,396.269 802.73,396.269 
  "/>
<polygon clip-path="url(#clip7902)" points="
882.54,638.051 882.54,1352.89 962.351,1352.89 962.351,638.051 882.54,638.051 882.54,638.051 
  " fill="#e26f46" fill-rule="evenodd" fill-opacity="1"/>
<polyline clip-path="url(#clip7902)" style="stroke:#000000; stroke-width:4; stroke-opacity:1; fill:none" points="
  882.54,638.051 882.54,1352.89 962.351,1352.89 962.351,638.051 882.54,638.051 
  "/>
<polygon clip-path="url(#clip7902)" points="
962.351,186.023 962.351,1352.89 1042.16,1352.89 1042.16,186.023 962.351,186.023 962.351,186.023 
  " fill="#e26f46" fill-rule="evenodd" fill-opacity="1"/>
<polyline clip-path="url(#clip7902)" style="stroke:#000000; stroke-width:4; stroke-opacity:1; fill:none" points="
  962.351,186.023 962.351,1352.89 1042.16,1352.89 1042.16,186.023 962.351,186.023 
  "/>
<polygon clip-path="url(#clip7902)" points="
1042.16,680.101 1042.16,1352.89 1121.97,1352.89 1121.97,680.101 1042.16,680.101 1042.16,680.101 
  " fill="#e26f46" fill-rule="evenodd" fill-opacity="1"/>
<polyline clip-path="url(#clip7902)" style="stroke:#000000; stroke-width:4; stroke-opacity:1; fill:none" points="
  1042.16,680.101 1042.16,1352.89 1121.97,1352.89 1121.97,680.101 1042.16,680.101 
  "/>
<polygon clip-path="url(#clip7902)" points="
1121.97,1342.38 1121.97,1352.89 1201.78,1352.89 1201.78,1342.38 1121.97,1342.38 1121.97,1342.38 
  " fill="#e26f46" fill-rule="evenodd" fill-opacity="1"/>
<polyline clip-path="url(#clip7902)" style="stroke:#000000; stroke-width:4; stroke-opacity:1; fill:none" points="
  1121.97,1342.38 1121.97,1352.89 1201.78,1352.89 1201.78,1342.38 1121.97,1342.38 
  "/>
<polygon clip-path="url(#clip7902)" points="
1201.78,564.465 1201.78,1352.89 1281.59,1352.89 1281.59,564.465 1201.78,564.465 1201.78,564.465 
  " fill="#e26f46" fill-rule="evenodd" fill-opacity="1"/>
<polyline clip-path="url(#clip7902)" style="stroke:#000000; stroke-width:4; stroke-opacity:1; fill:none" points="
  1201.78,564.465 1201.78,1352.89 1281.59,1352.89 1281.59,564.465 1201.78,564.465 
  "/>
<polygon clip-path="url(#clip7902)" points="
1281.59,1289.81 1281.59,1352.89 1361.4,1352.89 1361.4,1289.81 1281.59,1289.81 1281.59,1289.81 
  " fill="#e26f46" fill-rule="evenodd" fill-opacity="1"/>
<polyline clip-path="url(#clip7902)" style="stroke:#000000; stroke-width:4; stroke-opacity:1; fill:none" points="
  1281.59,1289.81 1281.59,1352.89 1361.4,1352.89 1361.4,1289.81 1281.59,1289.81 
  "/>
<polygon clip-path="url(#clip7902)" points="
1361.4,974.445 1361.4,1352.89 1441.21,1352.89 1441.21,974.445 1361.4,974.445 1361.4,974.445 
  " fill="#e26f46" fill-rule="evenodd" fill-opacity="1"/>
<polyline clip-path="url(#clip7902)" style="stroke:#000000; stroke-width:4; stroke-opacity:1; fill:none" points="
  1361.4,974.445 1361.4,1352.89 1441.21,1352.89 1441.21,974.445 1361.4,974.445 
  "/>
<polygon clip-path="url(#clip7902)" points="
1441.21,1321.35 1441.21,1352.89 1521.02,1352.89 1521.02,1321.35 1441.21,1321.35 1441.21,1321.35 
  " fill="#e26f46" fill-rule="evenodd" fill-opacity="1"/>
<polyline clip-path="url(#clip7902)" style="stroke:#000000; stroke-width:4; stroke-opacity:1; fill:none" points="
  1441.21,1321.35 1441.21,1352.89 1521.02,1352.89 1521.02,1321.35 1441.21,1321.35 
  "/>
<polygon clip-path="url(#clip7902)" points="
1521.02,1352.89 1521.02,1352.89 1600.83,1352.89 1600.83,1352.89 1521.02,1352.89 1521.02,1352.89 
  " fill="#e26f46" fill-rule="evenodd" fill-opacity="1"/>
<polyline clip-path="url(#clip7902)" style="stroke:#000000; stroke-width:4; stroke-opacity:1; fill:none" points="
  1521.02,1352.89 1521.02,1352.89 1600.83,1352.89 1521.02,1352.89 
  "/>
<polygon clip-path="url(#clip7902)" points="
1600.83,1153.15 1600.83,1352.89 1680.64,1352.89 1680.64,1153.15 1600.83,1153.15 1600.83,1153.15 
  " fill="#e26f46" fill-rule="evenodd" fill-opacity="1"/>
<polyline clip-path="url(#clip7902)" style="stroke:#000000; stroke-width:4; stroke-opacity:1; fill:none" points="
  1600.83,1153.15 1600.83,1352.89 1680.64,1352.89 1680.64,1153.15 1600.83,1153.15 
  "/>
<polygon clip-path="url(#clip7902)" points="
1680.64,1342.38 1680.64,1352.89 1760.45,1352.89 1760.45,1342.38 1680.64,1342.38 1680.64,1342.38 
  " fill="#e26f46" fill-rule="evenodd" fill-opacity="1"/>
<polyline clip-path="url(#clip7902)" style="stroke:#000000; stroke-width:4; stroke-opacity:1; fill:none" points="
  1680.64,1342.38 1680.64,1352.89 1760.45,1352.89 1760.45,1342.38 1680.64,1342.38 
  "/>
<polygon clip-path="url(#clip7902)" points="
1760.45,1289.81 1760.45,1352.89 1840.26,1352.89 1840.26,1289.81 1760.45,1289.81 1760.45,1289.81 
  " fill="#e26f46" fill-rule="evenodd" fill-opacity="1"/>
<polyline clip-path="url(#clip7902)" style="stroke:#000000; stroke-width:4; stroke-opacity:1; fill:none" points="
  1760.45,1289.81 1760.45,1352.89 1840.26,1352.89 1840.26,1289.81 1760.45,1289.81 
  "/>
<polygon clip-path="url(#clip7902)" points="
1840.26,1352.89 1840.26,1352.89 1920.07,1352.89 1920.07,1352.89 1840.26,1352.89 1840.26,1352.89 
  " fill="#e26f46" fill-rule="evenodd" fill-opacity="1"/>
<polyline clip-path="url(#clip7902)" style="stroke:#000000; stroke-width:4; stroke-opacity:1; fill:none" points="
  1840.26,1352.89 1840.26,1352.89 1920.07,1352.89 1840.26,1352.89 
  "/>
<polygon clip-path="url(#clip7902)" points="
1920.07,1352.89 1920.07,1352.89 1999.88,1352.89 1999.88,1352.89 1920.07,1352.89 1920.07,1352.89 
  " fill="#e26f46" fill-rule="evenodd" fill-opacity="1"/>
<polyline clip-path="url(#clip7902)" style="stroke:#000000; stroke-width:4; stroke-opacity:1; fill:none" points="
  1920.07,1352.89 1920.07,1352.89 1999.88,1352.89 1920.07,1352.89 
  "/>
<polygon clip-path="url(#clip7902)" points="
1999.88,1331.86 1999.88,1352.89 2079.69,1352.89 2079.69,1331.86 1999.88,1331.86 1999.88,1331.86 
  " fill="#e26f46" fill-rule="evenodd" fill-opacity="1"/>
<polyline clip-path="url(#clip7902)" style="stroke:#000000; stroke-width:4; stroke-opacity:1; fill:none" points="
  1999.88,1331.86 1999.88,1352.89 2079.69,1352.89 2079.69,1331.86 1999.88,1331.86 
  "/>
<polygon clip-path="url(#clip7902)" points="
2079.69,1352.89 2079.69,1352.89 2159.5,1352.89 2159.5,1352.89 2079.69,1352.89 2079.69,1352.89 
  " fill="#e26f46" fill-rule="evenodd" fill-opacity="1"/>
<polyline clip-path="url(#clip7902)" style="stroke:#000000; stroke-width:4; stroke-opacity:1; fill:none" points="
  2079.69,1352.89 2079.69,1352.89 2159.5,1352.89 2079.69,1352.89 
  "/>
<polygon clip-path="url(#clip7902)" points="
2159.5,1321.35 2159.5,1352.89 2239.31,1352.89 2239.31,1321.35 2159.5,1321.35 2159.5,1321.35 
  " fill="#e26f46" fill-rule="evenodd" fill-opacity="1"/>
<polyline clip-path="url(#clip7902)" style="stroke:#000000; stroke-width:4; stroke-opacity:1; fill:none" points="
  2159.5,1321.35 2159.5,1352.89 2239.31,1352.89 2239.31,1321.35 2159.5,1321.35 
  "/>
<polygon clip-path="url(#clip7900)" points="
1454.85,476.457 2280.76,476.457 2280.76,204.297 1454.85,204.297 
  " fill="#ffffff" fill-rule="evenodd" fill-opacity="1"/>
<polyline clip-path="url(#clip7900)" style="stroke:#000000; stroke-width:4; stroke-opacity:1; fill:none" points="
  1454.85,476.457 2280.76,476.457 2280.76,204.297 1454.85,204.297 1454.85,476.457 
  "/>
<polygon clip-path="url(#clip7900)" points="
1478.85,331.305 1622.85,331.305 1622.85,258.729 1478.85,258.729 1478.85,331.305 
  " fill="#009af9" fill-rule="evenodd" fill-opacity="1"/>
<polyline clip-path="url(#clip7900)" style="stroke:#000000; stroke-width:4; stroke-opacity:1; fill:none" points="
  1478.85,331.305 1622.85,331.305 1622.85,258.729 1478.85,258.729 1478.85,331.305 
  "/>
<g clip-path="url(#clip7900)">
<text style="fill:#000000; fill-opacity:1; font-family:Arial,Helvetica Neue,Helvetica,sans-serif; font-size:71px; text-anchor:start;" transform="rotate(0, 1646.85, 321.017)" x="1646.85" y="321.017">Predicted T4 dose</text>
</g>
<polygon clip-path="url(#clip7900)" points="
1478.85,422.025 1622.85,422.025 1622.85,349.449 1478.85,349.449 1478.85,422.025 
  " fill="#e26f46" fill-rule="evenodd" fill-opacity="1"/>
<polyline clip-path="url(#clip7900)" style="stroke:#000000; stroke-width:4; stroke-opacity:1; fill:none" points="
  1478.85,422.025 1622.85,422.025 1622.85,349.449 1478.85,349.449 1478.85,422.025 
  "/>
<g clip-path="url(#clip7900)">
<text style="fill:#000000; fill-opacity:1; font-family:Arial,Helvetica Neue,Helvetica,sans-serif; font-size:71px; text-anchor:start;" transform="rotate(0, 1646.85, 411.737)" x="1646.85" y="411.737">Actual T4 dose</text>
</g>
</svg>
