<?xml version="1.0" encoding="utf-8"?>
<svg xmlns="http://www.w3.org/2000/svg" xmlns:xlink="http://www.w3.org/1999/xlink" width="1800" height="1200" viewBox="0 0 7200 4800">
<defs>
  <clipPath id="clip9800">
    <rect x="0" y="0" width="7200" height="4800"/>
  </clipPath>
</defs>
<polygon clip-path="url(#clip9800)" points="
0,4800 7200,4800 7200,0 0,0 
  " fill="#ffffff" fill-rule="evenodd" fill-opacity="1"/>
<defs>
  <clipPath id="clip9801">
    <rect x="1440" y="0" width="5041" height="4800"/>
  </clipPath>
</defs>
<polygon clip-path="url(#clip9800)" points="
687.406,4276.86 7058.27,4276.86 7058.27,365.025 687.406,365.025 
  " fill="#ffffff" fill-rule="evenodd" fill-opacity="1"/>
<defs>
  <clipPath id="clip9802">
    <rect x="687" y="365" width="6372" height="3913"/>
  </clipPath>
</defs>
<polyline clip-path="url(#clip9802)" style="stroke:#000000; stroke-width:6; stroke-opacity:0.1; fill:none" points="
  1037.81,4276.86 1037.81,365.025 
  "/>
<polyline clip-path="url(#clip9802)" style="stroke:#000000; stroke-width:6; stroke-opacity:0.1; fill:none" points="
  2270.43,4276.86 2270.43,365.025 
  "/>
<polyline clip-path="url(#clip9802)" style="stroke:#000000; stroke-width:6; stroke-opacity:0.1; fill:none" points="
  3503.05,4276.86 3503.05,365.025 
  "/>
<polyline clip-path="url(#clip9802)" style="stroke:#000000; stroke-width:6; stroke-opacity:0.1; fill:none" points="
  4735.67,4276.86 4735.67,365.025 
  "/>
<polyline clip-path="url(#clip9802)" style="stroke:#000000; stroke-width:6; stroke-opacity:0.1; fill:none" points="
  5968.29,4276.86 5968.29,365.025 
  "/>
<polyline clip-path="url(#clip9802)" style="stroke:#000000; stroke-width:6; stroke-opacity:0.1; fill:none" points="
  687.406,4166.14 7058.27,4166.14 
  "/>
<polyline clip-path="url(#clip9802)" style="stroke:#000000; stroke-width:6; stroke-opacity:0.1; fill:none" points="
  687.406,3500.01 7058.27,3500.01 
  "/>
<polyline clip-path="url(#clip9802)" style="stroke:#000000; stroke-width:6; stroke-opacity:0.1; fill:none" points="
  687.406,2833.87 7058.27,2833.87 
  "/>
<polyline clip-path="url(#clip9802)" style="stroke:#000000; stroke-width:6; stroke-opacity:0.1; fill:none" points="
  687.406,2167.73 7058.27,2167.73 
  "/>
<polyline clip-path="url(#clip9802)" style="stroke:#000000; stroke-width:6; stroke-opacity:0.1; fill:none" points="
  687.406,1501.59 7058.27,1501.59 
  "/>
<polyline clip-path="url(#clip9802)" style="stroke:#000000; stroke-width:6; stroke-opacity:0.1; fill:none" points="
  687.406,835.452 7058.27,835.452 
  "/>
<polyline clip-path="url(#clip9800)" style="stroke:#000000; stroke-width:12; stroke-opacity:1; fill:none" points="
  687.406,4276.86 7058.27,4276.86 
  "/>
<polyline clip-path="url(#clip9800)" style="stroke:#000000; stroke-width:12; stroke-opacity:1; fill:none" points="
  687.406,4276.86 687.406,365.025 
  "/>
<polyline clip-path="url(#clip9800)" style="stroke:#000000; stroke-width:12; stroke-opacity:1; fill:none" points="
  1037.81,4276.86 1037.81,4218.18 
  "/>
<polyline clip-path="url(#clip9800)" style="stroke:#000000; stroke-width:12; stroke-opacity:1; fill:none" points="
  2270.43,4276.86 2270.43,4218.18 
  "/>
<polyline clip-path="url(#clip9800)" style="stroke:#000000; stroke-width:12; stroke-opacity:1; fill:none" points="
  3503.05,4276.86 3503.05,4218.18 
  "/>
<polyline clip-path="url(#clip9800)" style="stroke:#000000; stroke-width:12; stroke-opacity:1; fill:none" points="
  4735.67,4276.86 4735.67,4218.18 
  "/>
<polyline clip-path="url(#clip9800)" style="stroke:#000000; stroke-width:12; stroke-opacity:1; fill:none" points="
  5968.29,4276.86 5968.29,4218.18 
  "/>
<polyline clip-path="url(#clip9800)" style="stroke:#000000; stroke-width:12; stroke-opacity:1; fill:none" points="
  687.406,4166.14 782.969,4166.14 
  "/>
<polyline clip-path="url(#clip9800)" style="stroke:#000000; stroke-width:12; stroke-opacity:1; fill:none" points="
  687.406,3500.01 782.969,3500.01 
  "/>
<polyline clip-path="url(#clip9800)" style="stroke:#000000; stroke-width:12; stroke-opacity:1; fill:none" points="
  687.406,2833.87 782.969,2833.87 
  "/>
<polyline clip-path="url(#clip9800)" style="stroke:#000000; stroke-width:12; stroke-opacity:1; fill:none" points="
  687.406,2167.73 782.969,2167.73 
  "/>
<polyline clip-path="url(#clip9800)" style="stroke:#000000; stroke-width:12; stroke-opacity:1; fill:none" points="
  687.406,1501.59 782.969,1501.59 
  "/>
<polyline clip-path="url(#clip9800)" style="stroke:#000000; stroke-width:12; stroke-opacity:1; fill:none" points="
  687.406,835.452 782.969,835.452 
  "/>
<g clip-path="url(#clip9800)">
<text style="fill:#000000; fill-opacity:1; font-family:Arial,Helvetica Neue,Helvetica,sans-serif; font-size:143px; text-anchor:middle;" transform="rotate(0, 1037.81, 4437.66)" x="1037.81" y="4437.66">50</text>
</g>
<g clip-path="url(#clip9800)">
<text style="fill:#000000; fill-opacity:1; font-family:Arial,Helvetica Neue,Helvetica,sans-serif; font-size:143px; text-anchor:middle;" transform="rotate(0, 2270.43, 4437.66)" x="2270.43" y="4437.66">100</text>
</g>
<g clip-path="url(#clip9800)">
<text style="fill:#000000; fill-opacity:1; font-family:Arial,Helvetica Neue,Helvetica,sans-serif; font-size:143px; text-anchor:middle;" transform="rotate(0, 3503.05, 4437.66)" x="3503.05" y="4437.66">150</text>
</g>
<g clip-path="url(#clip9800)">
<text style="fill:#000000; fill-opacity:1; font-family:Arial,Helvetica Neue,Helvetica,sans-serif; font-size:143px; text-anchor:middle;" transform="rotate(0, 4735.67, 4437.66)" x="4735.67" y="4437.66">200</text>
</g>
<g clip-path="url(#clip9800)">
<text style="fill:#000000; fill-opacity:1; font-family:Arial,Helvetica Neue,Helvetica,sans-serif; font-size:143px; text-anchor:middle;" transform="rotate(0, 5968.29, 4437.66)" x="5968.29" y="4437.66">250</text>
</g>
<g clip-path="url(#clip9800)">
<text style="fill:#000000; fill-opacity:1; font-family:Arial,Helvetica Neue,Helvetica,sans-serif; font-size:143px; text-anchor:end;" transform="rotate(0, 615.406, 4218.14)" x="615.406" y="4218.14">0</text>
</g>
<g clip-path="url(#clip9800)">
<text style="fill:#000000; fill-opacity:1; font-family:Arial,Helvetica Neue,Helvetica,sans-serif; font-size:143px; text-anchor:end;" transform="rotate(0, 615.406, 3552.01)" x="615.406" y="3552.01">100</text>
</g>
<g clip-path="url(#clip9800)">
<text style="fill:#000000; fill-opacity:1; font-family:Arial,Helvetica Neue,Helvetica,sans-serif; font-size:143px; text-anchor:end;" transform="rotate(0, 615.406, 2885.87)" x="615.406" y="2885.87">200</text>
</g>
<g clip-path="url(#clip9800)">
<text style="fill:#000000; fill-opacity:1; font-family:Arial,Helvetica Neue,Helvetica,sans-serif; font-size:143px; text-anchor:end;" transform="rotate(0, 615.406, 2219.73)" x="615.406" y="2219.73">300</text>
</g>
<g clip-path="url(#clip9800)">
<text style="fill:#000000; fill-opacity:1; font-family:Arial,Helvetica Neue,Helvetica,sans-serif; font-size:143px; text-anchor:end;" transform="rotate(0, 615.406, 1553.59)" x="615.406" y="1553.59">400</text>
</g>
<g clip-path="url(#clip9800)">
<text style="fill:#000000; fill-opacity:1; font-family:Arial,Helvetica Neue,Helvetica,sans-serif; font-size:143px; text-anchor:end;" transform="rotate(0, 615.406, 887.452)" x="615.406" y="887.452">500</text>
</g>
<g clip-path="url(#clip9800)">
<text style="fill:#000000; fill-opacity:1; font-family:Arial,Helvetica Neue,Helvetica,sans-serif; font-size:248px; text-anchor:middle;" transform="rotate(0, 3872.84, 217.2)" x="3872.84" y="217.2">Give a range of doses, see which ones work</text>
</g>
<g clip-path="url(#clip9800)">
<text style="fill:#000000; fill-opacity:1; font-family:Arial,Helvetica Neue,Helvetica,sans-serif; font-size:196px; text-anchor:middle;" transform="rotate(0, 3872.84, 4678.64)" x="3872.84" y="4678.64">T4 dose (mcg)</text>
</g>
<g clip-path="url(#clip9800)">
<text style="fill:#000000; fill-opacity:1; font-family:Arial,Helvetica Neue,Helvetica,sans-serif; font-size:196px; text-anchor:middle;" transform="rotate(-90, 266.658, 2320.94)" x="266.658" y="2320.94">Count</text>
</g>
<polygon clip-path="url(#clip9802)" points="
1654.12,4159.48 1654.12,4166.14 1777.39,4166.14 1777.39,4159.48 1654.12,4159.48 1654.12,4159.48 
  " fill="#009af9" fill-rule="evenodd" fill-opacity="1"/>
<polyline clip-path="url(#clip9802)" style="stroke:#000000; stroke-width:12; stroke-opacity:1; fill:none" points="
  1654.12,4159.48 1654.12,4166.14 1777.39,4166.14 1777.39,4159.48 1654.12,4159.48 
  "/>
<polygon clip-path="url(#clip9802)" points="
1777.39,4166.14 1777.39,4166.14 1900.65,4166.14 1900.65,4166.14 1777.39,4166.14 1777.39,4166.14 
  " fill="#009af9" fill-rule="evenodd" fill-opacity="1"/>
<polyline clip-path="url(#clip9802)" style="stroke:#000000; stroke-width:12; stroke-opacity:1; fill:none" points="
  1777.39,4166.14 1777.39,4166.14 1900.65,4166.14 1777.39,4166.14 
  "/>
<polygon clip-path="url(#clip9802)" points="
1900.65,475.738 1900.65,4166.14 2023.91,4166.14 2023.91,475.738 1900.65,475.738 1900.65,475.738 
  " fill="#009af9" fill-rule="evenodd" fill-opacity="1"/>
<polyline clip-path="url(#clip9802)" style="stroke:#000000; stroke-width:12; stroke-opacity:1; fill:none" points="
  1900.65,475.738 1900.65,4166.14 2023.91,4166.14 2023.91,475.738 1900.65,475.738 
  "/>
<polygon clip-path="url(#clip9802)" points="
2023.91,4166.14 2023.91,4166.14 2147.17,4166.14 2147.17,4166.14 2023.91,4166.14 2023.91,4166.14 
  " fill="#009af9" fill-rule="evenodd" fill-opacity="1"/>
<polyline clip-path="url(#clip9802)" style="stroke:#000000; stroke-width:12; stroke-opacity:1; fill:none" points="
  2023.91,4166.14 2023.91,4166.14 2147.17,4166.14 2023.91,4166.14 
  "/>
<polygon clip-path="url(#clip9802)" points="
2147.17,4166.14 2147.17,4166.14 2270.43,4166.14 2270.43,4166.14 2147.17,4166.14 2147.17,4166.14 
  " fill="#009af9" fill-rule="evenodd" fill-opacity="1"/>
<polyline clip-path="url(#clip9802)" style="stroke:#000000; stroke-width:12; stroke-opacity:1; fill:none" points="
  2147.17,4166.14 2147.17,4166.14 2270.43,4166.14 2147.17,4166.14 
  "/>
<polygon clip-path="url(#clip9802)" points="
2270.43,475.738 2270.43,4166.14 2393.69,4166.14 2393.69,475.738 2270.43,475.738 2270.43,475.738 
  " fill="#009af9" fill-rule="evenodd" fill-opacity="1"/>
<polyline clip-path="url(#clip9802)" style="stroke:#000000; stroke-width:12; stroke-opacity:1; fill:none" points="
  2270.43,475.738 2270.43,4166.14 2393.69,4166.14 2393.69,475.738 2270.43,475.738 
  "/>
<polygon clip-path="url(#clip9802)" points="
2393.69,4166.14 2393.69,4166.14 2516.96,4166.14 2516.96,4166.14 2393.69,4166.14 2393.69,4166.14 
  " fill="#009af9" fill-rule="evenodd" fill-opacity="1"/>
<polyline clip-path="url(#clip9802)" style="stroke:#000000; stroke-width:12; stroke-opacity:1; fill:none" points="
  2393.69,4166.14 2393.69,4166.14 2516.96,4166.14 2393.69,4166.14 
  "/>
<polygon clip-path="url(#clip9802)" points="
2516.96,475.738 2516.96,4166.14 2640.22,4166.14 2640.22,475.738 2516.96,475.738 2516.96,475.738 
  " fill="#009af9" fill-rule="evenodd" fill-opacity="1"/>
<polyline clip-path="url(#clip9802)" style="stroke:#000000; stroke-width:12; stroke-opacity:1; fill:none" points="
  2516.96,475.738 2516.96,4166.14 2640.22,4166.14 2640.22,475.738 2516.96,475.738 
  "/>
<polygon clip-path="url(#clip9802)" points="
2640.22,4166.14 2640.22,4166.14 2763.48,4166.14 2763.48,4166.14 2640.22,4166.14 2640.22,4166.14 
  " fill="#009af9" fill-rule="evenodd" fill-opacity="1"/>
<polyline clip-path="url(#clip9802)" style="stroke:#000000; stroke-width:12; stroke-opacity:1; fill:none" points="
  2640.22,4166.14 2640.22,4166.14 2763.48,4166.14 2640.22,4166.14 
  "/>
<polygon clip-path="url(#clip9802)" points="
2763.48,4166.14 2763.48,4166.14 2886.74,4166.14 2886.74,4166.14 2763.48,4166.14 2763.48,4166.14 
  " fill="#009af9" fill-rule="evenodd" fill-opacity="1"/>
<polyline clip-path="url(#clip9802)" style="stroke:#000000; stroke-width:12; stroke-opacity:1; fill:none" points="
  2763.48,4166.14 2763.48,4166.14 2886.74,4166.14 2763.48,4166.14 
  "/>
<polygon clip-path="url(#clip9802)" points="
2886.74,475.738 2886.74,4166.14 3010,4166.14 3010,475.738 2886.74,475.738 2886.74,475.738 
  " fill="#009af9" fill-rule="evenodd" fill-opacity="1"/>
<polyline clip-path="url(#clip9802)" style="stroke:#000000; stroke-width:12; stroke-opacity:1; fill:none" points="
  2886.74,475.738 2886.74,4166.14 3010,4166.14 3010,475.738 2886.74,475.738 
  "/>
<polygon clip-path="url(#clip9802)" points="
3010,4166.14 3010,4166.14 3133.27,4166.14 3133.27,4166.14 3010,4166.14 3010,4166.14 
  " fill="#009af9" fill-rule="evenodd" fill-opacity="1"/>
<polyline clip-path="url(#clip9802)" style="stroke:#000000; stroke-width:12; stroke-opacity:1; fill:none" points="
  3010,4166.14 3010,4166.14 3133.27,4166.14 3010,4166.14 
  "/>
<polygon clip-path="url(#clip9802)" points="
3133.27,475.738 3133.27,4166.14 3256.53,4166.14 3256.53,475.738 3133.27,475.738 3133.27,475.738 
  " fill="#009af9" fill-rule="evenodd" fill-opacity="1"/>
<polyline clip-path="url(#clip9802)" style="stroke:#000000; stroke-width:12; stroke-opacity:1; fill:none" points="
  3133.27,475.738 3133.27,4166.14 3256.53,4166.14 3256.53,475.738 3133.27,475.738 
  "/>
<polygon clip-path="url(#clip9802)" points="
3256.53,4166.14 3256.53,4166.14 3379.79,4166.14 3379.79,4166.14 3256.53,4166.14 3256.53,4166.14 
  " fill="#009af9" fill-rule="evenodd" fill-opacity="1"/>
<polyline clip-path="url(#clip9802)" style="stroke:#000000; stroke-width:12; stroke-opacity:1; fill:none" points="
  3256.53,4166.14 3256.53,4166.14 3379.79,4166.14 3256.53,4166.14 
  "/>
<polygon clip-path="url(#clip9802)" points="
3379.79,4166.14 3379.79,4166.14 3503.05,4166.14 3503.05,4166.14 3379.79,4166.14 3379.79,4166.14 
  " fill="#009af9" fill-rule="evenodd" fill-opacity="1"/>
<polyline clip-path="url(#clip9802)" style="stroke:#000000; stroke-width:12; stroke-opacity:1; fill:none" points="
  3379.79,4166.14 3379.79,4166.14 3503.05,4166.14 3379.79,4166.14 
  "/>
<polygon clip-path="url(#clip9802)" points="
3503.05,475.738 3503.05,4166.14 3626.31,4166.14 3626.31,475.738 3503.05,475.738 3503.05,475.738 
  " fill="#009af9" fill-rule="evenodd" fill-opacity="1"/>
<polyline clip-path="url(#clip9802)" style="stroke:#000000; stroke-width:12; stroke-opacity:1; fill:none" points="
  3503.05,475.738 3503.05,4166.14 3626.31,4166.14 3626.31,475.738 3503.05,475.738 
  "/>
<polygon clip-path="url(#clip9802)" points="
3626.31,4166.14 3626.31,4166.14 3749.57,4166.14 3749.57,4166.14 3626.31,4166.14 3626.31,4166.14 
  " fill="#009af9" fill-rule="evenodd" fill-opacity="1"/>
<polyline clip-path="url(#clip9802)" style="stroke:#000000; stroke-width:12; stroke-opacity:1; fill:none" points="
  3626.31,4166.14 3626.31,4166.14 3749.57,4166.14 3626.31,4166.14 
  "/>
<polygon clip-path="url(#clip9802)" points="
3749.57,475.738 3749.57,4166.14 3872.84,4166.14 3872.84,475.738 3749.57,475.738 3749.57,475.738 
  " fill="#009af9" fill-rule="evenodd" fill-opacity="1"/>
<polyline clip-path="url(#clip9802)" style="stroke:#000000; stroke-width:12; stroke-opacity:1; fill:none" points="
  3749.57,475.738 3749.57,4166.14 3872.84,4166.14 3872.84,475.738 3749.57,475.738 
  "/>
<polygon clip-path="url(#clip9802)" points="
3872.84,4166.14 3872.84,4166.14 3996.1,4166.14 3996.1,4166.14 3872.84,4166.14 3872.84,4166.14 
  " fill="#009af9" fill-rule="evenodd" fill-opacity="1"/>
<polyline clip-path="url(#clip9802)" style="stroke:#000000; stroke-width:12; stroke-opacity:1; fill:none" points="
  3872.84,4166.14 3872.84,4166.14 3996.1,4166.14 3872.84,4166.14 
  "/>
<polygon clip-path="url(#clip9802)" points="
3996.1,4166.14 3996.1,4166.14 4119.36,4166.14 4119.36,4166.14 3996.1,4166.14 3996.1,4166.14 
  " fill="#009af9" fill-rule="evenodd" fill-opacity="1"/>
<polyline clip-path="url(#clip9802)" style="stroke:#000000; stroke-width:12; stroke-opacity:1; fill:none" points="
  3996.1,4166.14 3996.1,4166.14 4119.36,4166.14 3996.1,4166.14 
  "/>
<polygon clip-path="url(#clip9802)" points="
4119.36,3586.6 4119.36,4166.14 4242.62,4166.14 4242.62,3586.6 4119.36,3586.6 4119.36,3586.6 
  " fill="#009af9" fill-rule="evenodd" fill-opacity="1"/>
<polyline clip-path="url(#clip9802)" style="stroke:#000000; stroke-width:12; stroke-opacity:1; fill:none" points="
  4119.36,3586.6 4119.36,4166.14 4242.62,4166.14 4242.62,3586.6 4119.36,3586.6 
  "/>
<polygon clip-path="url(#clip9802)" points="
4242.62,4166.14 4242.62,4166.14 4365.88,4166.14 4365.88,4166.14 4242.62,4166.14 4242.62,4166.14 
  " fill="#009af9" fill-rule="evenodd" fill-opacity="1"/>
<polyline clip-path="url(#clip9802)" style="stroke:#000000; stroke-width:12; stroke-opacity:1; fill:none" points="
  4242.62,4166.14 4242.62,4166.14 4365.88,4166.14 4242.62,4166.14 
  "/>
<polygon clip-path="url(#clip9802)" points="
4365.88,4159.48 4365.88,4166.14 4489.15,4166.14 4489.15,4159.48 4365.88,4159.48 4365.88,4159.48 
  " fill="#009af9" fill-rule="evenodd" fill-opacity="1"/>
<polyline clip-path="url(#clip9802)" style="stroke:#000000; stroke-width:12; stroke-opacity:1; fill:none" points="
  4365.88,4159.48 4365.88,4166.14 4489.15,4166.14 4489.15,4159.48 4365.88,4159.48 
  "/>
<polygon clip-path="url(#clip9802)" points="
4489.15,4166.14 4489.15,4166.14 4612.41,4166.14 4612.41,4166.14 4489.15,4166.14 4489.15,4166.14 
  " fill="#009af9" fill-rule="evenodd" fill-opacity="1"/>
<polyline clip-path="url(#clip9802)" style="stroke:#000000; stroke-width:12; stroke-opacity:1; fill:none" points="
  4489.15,4166.14 4489.15,4166.14 4612.41,4166.14 4489.15,4166.14 
  "/>
<polygon clip-path="url(#clip9802)" points="
4612.41,4166.14 4612.41,4166.14 4735.67,4166.14 4735.67,4166.14 4612.41,4166.14 4612.41,4166.14 
  " fill="#009af9" fill-rule="evenodd" fill-opacity="1"/>
<polyline clip-path="url(#clip9802)" style="stroke:#000000; stroke-width:12; stroke-opacity:1; fill:none" points="
  4612.41,4166.14 4612.41,4166.14 4735.67,4166.14 4612.41,4166.14 
  "/>
<polygon clip-path="url(#clip9802)" points="
4735.67,4159.48 4735.67,4166.14 4858.93,4166.14 4858.93,4159.48 4735.67,4159.48 4735.67,4159.48 
  " fill="#009af9" fill-rule="evenodd" fill-opacity="1"/>
<polyline clip-path="url(#clip9802)" style="stroke:#000000; stroke-width:12; stroke-opacity:1; fill:none" points="
  4735.67,4159.48 4735.67,4166.14 4858.93,4166.14 4858.93,4159.48 4735.67,4159.48 
  "/>
<polygon clip-path="url(#clip9802)" points="
1037.81,4139.5 1037.81,4166.14 1284.34,4166.14 1284.34,4139.5 1037.81,4139.5 1037.81,4139.5 
  " fill="#e26f46" fill-rule="evenodd" fill-opacity="1"/>
<polyline clip-path="url(#clip9802)" style="stroke:#000000; stroke-width:12; stroke-opacity:1; fill:none" points="
  1037.81,4139.5 1037.81,4166.14 1284.34,4166.14 1284.34,4139.5 1037.81,4139.5 
  "/>
<polygon clip-path="url(#clip9802)" points="
1284.34,4166.14 1284.34,4166.14 1530.86,4166.14 1530.86,4166.14 1284.34,4166.14 1284.34,4166.14 
  " fill="#e26f46" fill-rule="evenodd" fill-opacity="1"/>
<polyline clip-path="url(#clip9802)" style="stroke:#000000; stroke-width:12; stroke-opacity:1; fill:none" points="
  1284.34,4166.14 1284.34,4166.14 1530.86,4166.14 1284.34,4166.14 
  "/>
<polygon clip-path="url(#clip9802)" points="
1530.86,4032.92 1530.86,4166.14 1777.39,4166.14 1777.39,4032.92 1530.86,4032.92 1530.86,4032.92 
  " fill="#e26f46" fill-rule="evenodd" fill-opacity="1"/>
<polyline clip-path="url(#clip9802)" style="stroke:#000000; stroke-width:12; stroke-opacity:1; fill:none" points="
  1530.86,4032.92 1530.86,4166.14 1777.39,4166.14 1777.39,4032.92 1530.86,4032.92 
  "/>
<polygon clip-path="url(#clip9802)" points="
1777.39,3919.67 1777.39,4166.14 2023.91,4166.14 2023.91,3919.67 1777.39,3919.67 1777.39,3919.67 
  " fill="#e26f46" fill-rule="evenodd" fill-opacity="1"/>
<polyline clip-path="url(#clip9802)" style="stroke:#000000; stroke-width:12; stroke-opacity:1; fill:none" points="
  1777.39,3919.67 1777.39,4166.14 2023.91,4166.14 2023.91,3919.67 1777.39,3919.67 
  "/>
<polygon clip-path="url(#clip9802)" points="
2023.91,4119.51 2023.91,4166.14 2270.43,4166.14 2270.43,4119.51 2023.91,4119.51 2023.91,4119.51 
  " fill="#e26f46" fill-rule="evenodd" fill-opacity="1"/>
<polyline clip-path="url(#clip9802)" style="stroke:#000000; stroke-width:12; stroke-opacity:1; fill:none" points="
  2023.91,4119.51 2023.91,4166.14 2270.43,4166.14 2270.43,4119.51 2023.91,4119.51 
  "/>
<polygon clip-path="url(#clip9802)" points="
2270.43,3559.96 2270.43,4166.14 2516.96,4166.14 2516.96,3559.96 2270.43,3559.96 2270.43,3559.96 
  " fill="#e26f46" fill-rule="evenodd" fill-opacity="1"/>
<polyline clip-path="url(#clip9802)" style="stroke:#000000; stroke-width:12; stroke-opacity:1; fill:none" points="
  2270.43,3559.96 2270.43,4166.14 2516.96,4166.14 2516.96,3559.96 2270.43,3559.96 
  "/>
<polygon clip-path="url(#clip9802)" points="
2516.96,3713.17 2516.96,4166.14 2763.48,4166.14 2763.48,3713.17 2516.96,3713.17 2516.96,3713.17 
  " fill="#e26f46" fill-rule="evenodd" fill-opacity="1"/>
<polyline clip-path="url(#clip9802)" style="stroke:#000000; stroke-width:12; stroke-opacity:1; fill:none" points="
  2516.96,3713.17 2516.96,4166.14 2763.48,4166.14 2763.48,3713.17 2516.96,3713.17 
  "/>
<polygon clip-path="url(#clip9802)" points="
2763.48,3426.73 2763.48,4166.14 3010,4166.14 3010,3426.73 2763.48,3426.73 2763.48,3426.73 
  " fill="#e26f46" fill-rule="evenodd" fill-opacity="1"/>
<polyline clip-path="url(#clip9802)" style="stroke:#000000; stroke-width:12; stroke-opacity:1; fill:none" points="
  2763.48,3426.73 2763.48,4166.14 3010,4166.14 3010,3426.73 2763.48,3426.73 
  "/>
<polygon clip-path="url(#clip9802)" points="
3010,3739.82 3010,4166.14 3256.53,4166.14 3256.53,3739.82 3010,3739.82 3010,3739.82 
  " fill="#e26f46" fill-rule="evenodd" fill-opacity="1"/>
<polyline clip-path="url(#clip9802)" style="stroke:#000000; stroke-width:12; stroke-opacity:1; fill:none" points="
  3010,3739.82 3010,4166.14 3256.53,4166.14 3256.53,3739.82 3010,3739.82 
  "/>
<polygon clip-path="url(#clip9802)" points="
3256.53,4159.48 3256.53,4166.14 3503.05,4166.14 3503.05,4159.48 3256.53,4159.48 3256.53,4159.48 
  " fill="#e26f46" fill-rule="evenodd" fill-opacity="1"/>
<polyline clip-path="url(#clip9802)" style="stroke:#000000; stroke-width:12; stroke-opacity:1; fill:none" points="
  3256.53,4159.48 3256.53,4166.14 3503.05,4166.14 3503.05,4159.48 3256.53,4159.48 
  "/>
<polygon clip-path="url(#clip9802)" points="
3503.05,3666.54 3503.05,4166.14 3749.57,4166.14 3749.57,3666.54 3503.05,3666.54 3503.05,3666.54 
  " fill="#e26f46" fill-rule="evenodd" fill-opacity="1"/>
<polyline clip-path="url(#clip9802)" style="stroke:#000000; stroke-width:12; stroke-opacity:1; fill:none" points="
  3503.05,3666.54 3503.05,4166.14 3749.57,4166.14 3749.57,3666.54 3503.05,3666.54 
  "/>
<polygon clip-path="url(#clip9802)" points="
3749.57,4126.18 3749.57,4166.14 3996.1,4166.14 3996.1,4126.18 3749.57,4126.18 3749.57,4126.18 
  " fill="#e26f46" fill-rule="evenodd" fill-opacity="1"/>
<polyline clip-path="url(#clip9802)" style="stroke:#000000; stroke-width:12; stroke-opacity:1; fill:none" points="
  3749.57,4126.18 3749.57,4166.14 3996.1,4166.14 3996.1,4126.18 3749.57,4126.18 
  "/>
<polygon clip-path="url(#clip9802)" points="
3996.1,3926.33 3996.1,4166.14 4242.62,4166.14 4242.62,3926.33 3996.1,3926.33 3996.1,3926.33 
  " fill="#e26f46" fill-rule="evenodd" fill-opacity="1"/>
<polyline clip-path="url(#clip9802)" style="stroke:#000000; stroke-width:12; stroke-opacity:1; fill:none" points="
  3996.1,3926.33 3996.1,4166.14 4242.62,4166.14 4242.62,3926.33 3996.1,3926.33 
  "/>
<polygon clip-path="url(#clip9802)" points="
4242.62,4146.16 4242.62,4166.14 4489.15,4166.14 4489.15,4146.16 4242.62,4146.16 4242.62,4146.16 
  " fill="#e26f46" fill-rule="evenodd" fill-opacity="1"/>
<polyline clip-path="url(#clip9802)" style="stroke:#000000; stroke-width:12; stroke-opacity:1; fill:none" points="
  4242.62,4146.16 4242.62,4166.14 4489.15,4166.14 4489.15,4146.16 4242.62,4146.16 
  "/>
<polygon clip-path="url(#clip9802)" points="
4489.15,4166.14 4489.15,4166.14 4735.67,4166.14 4735.67,4166.14 4489.15,4166.14 4489.15,4166.14 
  " fill="#e26f46" fill-rule="evenodd" fill-opacity="1"/>
<polyline clip-path="url(#clip9802)" style="stroke:#000000; stroke-width:12; stroke-opacity:1; fill:none" points="
  4489.15,4166.14 4489.15,4166.14 4735.67,4166.14 4489.15,4166.14 
  "/>
<polygon clip-path="url(#clip9802)" points="
4735.67,4039.58 4735.67,4166.14 4982.19,4166.14 4982.19,4039.58 4735.67,4039.58 4735.67,4039.58 
  " fill="#e26f46" fill-rule="evenodd" fill-opacity="1"/>
<polyline clip-path="url(#clip9802)" style="stroke:#000000; stroke-width:12; stroke-opacity:1; fill:none" points="
  4735.67,4039.58 4735.67,4166.14 4982.19,4166.14 4982.19,4039.58 4735.67,4039.58 
  "/>
<polygon clip-path="url(#clip9802)" points="
4982.19,4159.48 4982.19,4166.14 5228.72,4166.14 5228.72,4159.48 4982.19,4159.48 4982.19,4159.48 
  " fill="#e26f46" fill-rule="evenodd" fill-opacity="1"/>
<polyline clip-path="url(#clip9802)" style="stroke:#000000; stroke-width:12; stroke-opacity:1; fill:none" points="
  4982.19,4159.48 4982.19,4166.14 5228.72,4166.14 5228.72,4159.48 4982.19,4159.48 
  "/>
<polygon clip-path="url(#clip9802)" points="
5228.72,4126.18 5228.72,4166.14 5475.24,4166.14 5475.24,4126.18 5228.72,4126.18 5228.72,4126.18 
  " fill="#e26f46" fill-rule="evenodd" fill-opacity="1"/>
<polyline clip-path="url(#clip9802)" style="stroke:#000000; stroke-width:12; stroke-opacity:1; fill:none" points="
  5228.72,4126.18 5228.72,4166.14 5475.24,4166.14 5475.24,4126.18 5228.72,4126.18 
  "/>
<polygon clip-path="url(#clip9802)" points="
5475.24,4166.14 5475.24,4166.14 5721.76,4166.14 5721.76,4166.14 5475.24,4166.14 5475.24,4166.14 
  " fill="#e26f46" fill-rule="evenodd" fill-opacity="1"/>
<polyline clip-path="url(#clip9802)" style="stroke:#000000; stroke-width:12; stroke-opacity:1; fill:none" points="
  5475.24,4166.14 5475.24,4166.14 5721.76,4166.14 5475.24,4166.14 
  "/>
<polygon clip-path="url(#clip9802)" points="
5721.76,4166.14 5721.76,4166.14 5968.29,4166.14 5968.29,4166.14 5721.76,4166.14 5721.76,4166.14 
  " fill="#e26f46" fill-rule="evenodd" fill-opacity="1"/>
<polyline clip-path="url(#clip9802)" style="stroke:#000000; stroke-width:12; stroke-opacity:1; fill:none" points="
  5721.76,4166.14 5721.76,4166.14 5968.29,4166.14 5721.76,4166.14 
  "/>
<polygon clip-path="url(#clip9802)" points="
5968.29,4152.82 5968.29,4166.14 6214.81,4166.14 6214.81,4152.82 5968.29,4152.82 5968.29,4152.82 
  " fill="#e26f46" fill-rule="evenodd" fill-opacity="1"/>
<polyline clip-path="url(#clip9802)" style="stroke:#000000; stroke-width:12; stroke-opacity:1; fill:none" points="
  5968.29,4152.82 5968.29,4166.14 6214.81,4166.14 6214.81,4152.82 5968.29,4152.82 
  "/>
<polygon clip-path="url(#clip9802)" points="
6214.81,4166.14 6214.81,4166.14 6461.34,4166.14 6461.34,4166.14 6214.81,4166.14 6214.81,4166.14 
  " fill="#e26f46" fill-rule="evenodd" fill-opacity="1"/>
<polyline clip-path="url(#clip9802)" style="stroke:#000000; stroke-width:12; stroke-opacity:1; fill:none" points="
  6214.81,4166.14 6214.81,4166.14 6461.34,4166.14 6214.81,4166.14 
  "/>
<polygon clip-path="url(#clip9802)" points="
6461.34,4146.16 6461.34,4166.14 6707.86,4166.14 6707.86,4146.16 6461.34,4146.16 6461.34,4146.16 
  " fill="#e26f46" fill-rule="evenodd" fill-opacity="1"/>
<polyline clip-path="url(#clip9802)" style="stroke:#000000; stroke-width:12; stroke-opacity:1; fill:none" points="
  6461.34,4146.16 6461.34,4166.14 6707.86,4166.14 6707.86,4146.16 6461.34,4146.16 
  "/>
<polygon clip-path="url(#clip9800)" points="
4950.45,1159.91 6842.27,1159.91 6842.27,615.585 4950.45,615.585 
  " fill="#ffffff" fill-rule="evenodd" fill-opacity="1"/>
<polyline clip-path="url(#clip9800)" style="stroke:#000000; stroke-width:12; stroke-opacity:1; fill:none" points="
  4950.45,1159.91 6842.27,1159.91 6842.27,615.585 4950.45,615.585 4950.45,1159.91 
  "/>
<polygon clip-path="url(#clip9800)" points="
5022.45,869.601 5454.45,869.601 5454.45,724.449 5022.45,724.449 5022.45,869.601 
  " fill="#009af9" fill-rule="evenodd" fill-opacity="1"/>
<polyline clip-path="url(#clip9800)" style="stroke:#000000; stroke-width:12; stroke-opacity:1; fill:none" points="
  5022.45,869.601 5454.45,869.601 5454.45,724.449 5022.45,724.449 5022.45,869.601 
  "/>
<g clip-path="url(#clip9800)">
<text style="fill:#000000; fill-opacity:1; font-family:Arial,Helvetica Neue,Helvetica,sans-serif; font-size:143px; text-anchor:start;" transform="rotate(0, 5526.45, 849.025)" x="5526.45" y="849.025">Predicted T4 dose</text>
</g>
<polygon clip-path="url(#clip9800)" points="
5022.45,1051.04 5454.45,1051.04 5454.45,905.889 5022.45,905.889 5022.45,1051.04 
  " fill="#e26f46" fill-rule="evenodd" fill-opacity="1"/>
<polyline clip-path="url(#clip9800)" style="stroke:#000000; stroke-width:12; stroke-opacity:1; fill:none" points="
  5022.45,1051.04 5454.45,1051.04 5454.45,905.889 5022.45,905.889 5022.45,1051.04 
  "/>
<g clip-path="url(#clip9800)">
<text style="fill:#000000; fill-opacity:1; font-family:Arial,Helvetica Neue,Helvetica,sans-serif; font-size:143px; text-anchor:start;" transform="rotate(0, 5526.45, 1030.47)" x="5526.45" y="1030.47">Actual T4 dose</text>
</g>
</svg>
