<?xml version="1.0" encoding="utf-8"?>
<svg xmlns="http://www.w3.org/2000/svg" xmlns:xlink="http://www.w3.org/1999/xlink" width="600" height="400" viewBox="0 0 2400 1600">
<defs>
  <clipPath id="clip2200">
    <rect x="0" y="0" width="2400" height="1600"/>
  </clipPath>
</defs>
<polygon clip-path="url(#clip2200)" points="
0,1600 2400,1600 2400,0 0,0 
  " fill="#ffffff" fill-rule="evenodd" fill-opacity="1"/>
<defs>
  <clipPath id="clip2201">
    <rect x="480" y="0" width="1681" height="1600"/>
  </clipPath>
</defs>
<polygon clip-path="url(#clip2200)" points="
290.237,1387.89 2352.76,1387.89 2352.76,151.017 290.237,151.017 
  " fill="#ffffff" fill-rule="evenodd" fill-opacity="1"/>
<defs>
  <clipPath id="clip2202">
    <rect x="290" y="151" width="2064" height="1238"/>
  </clipPath>
</defs>
<polyline clip-path="url(#clip2202)" style="stroke:#000000; stroke-width:2; stroke-opacity:0.1; fill:none" points="
  403.679,1387.89 403.679,151.017 
  "/>
<polyline clip-path="url(#clip2202)" style="stroke:#000000; stroke-width:2; stroke-opacity:0.1; fill:none" points="
  802.73,1387.89 802.73,151.017 
  "/>
<polyline clip-path="url(#clip2202)" style="stroke:#000000; stroke-width:2; stroke-opacity:0.1; fill:none" points="
  1201.78,1387.89 1201.78,151.017 
  "/>
<polyline clip-path="url(#clip2202)" style="stroke:#000000; stroke-width:2; stroke-opacity:0.1; fill:none" points="
  1600.83,1387.89 1600.83,151.017 
  "/>
<polyline clip-path="url(#clip2202)" style="stroke:#000000; stroke-width:2; stroke-opacity:0.1; fill:none" points="
  1999.88,1387.89 1999.88,151.017 
  "/>
<polyline clip-path="url(#clip2202)" style="stroke:#000000; stroke-width:2; stroke-opacity:0.1; fill:none" points="
  290.237,1352.89 2352.76,1352.89 
  "/>
<polyline clip-path="url(#clip2202)" style="stroke:#000000; stroke-width:2; stroke-opacity:0.1; fill:none" points="
  290.237,1028.76 2352.76,1028.76 
  "/>
<polyline clip-path="url(#clip2202)" style="stroke:#000000; stroke-width:2; stroke-opacity:0.1; fill:none" points="
  290.237,704.629 2352.76,704.629 
  "/>
<polyline clip-path="url(#clip2202)" style="stroke:#000000; stroke-width:2; stroke-opacity:0.1; fill:none" points="
  290.237,380.5 2352.76,380.5 
  "/>
<polyline clip-path="url(#clip2200)" style="stroke:#000000; stroke-width:4; stroke-opacity:1; fill:none" points="
  290.237,1387.89 2352.76,1387.89 
  "/>
<polyline clip-path="url(#clip2200)" style="stroke:#000000; stroke-width:4; stroke-opacity:1; fill:none" points="
  290.237,1387.89 290.237,151.017 
  "/>
<polyline clip-path="url(#clip2200)" style="stroke:#000000; stroke-width:4; stroke-opacity:1; fill:none" points="
  403.679,1387.89 403.679,1369.34 
  "/>
<polyline clip-path="url(#clip2200)" style="stroke:#000000; stroke-width:4; stroke-opacity:1; fill:none" points="
  802.73,1387.89 802.73,1369.34 
  "/>
<polyline clip-path="url(#clip2200)" style="stroke:#000000; stroke-width:4; stroke-opacity:1; fill:none" points="
  1201.78,1387.89 1201.78,1369.34 
  "/>
<polyline clip-path="url(#clip2200)" style="stroke:#000000; stroke-width:4; stroke-opacity:1; fill:none" points="
  1600.83,1387.89 1600.83,1369.34 
  "/>
<polyline clip-path="url(#clip2200)" style="stroke:#000000; stroke-width:4; stroke-opacity:1; fill:none" points="
  1999.88,1387.89 1999.88,1369.34 
  "/>
<polyline clip-path="url(#clip2200)" style="stroke:#000000; stroke-width:4; stroke-opacity:1; fill:none" points="
  290.237,1352.89 321.175,1352.89 
  "/>
<polyline clip-path="url(#clip2200)" style="stroke:#000000; stroke-width:4; stroke-opacity:1; fill:none" points="
  290.237,1028.76 321.175,1028.76 
  "/>
<polyline clip-path="url(#clip2200)" style="stroke:#000000; stroke-width:4; stroke-opacity:1; fill:none" points="
  290.237,704.629 321.175,704.629 
  "/>
<polyline clip-path="url(#clip2200)" style="stroke:#000000; stroke-width:4; stroke-opacity:1; fill:none" points="
  290.237,380.5 321.175,380.5 
  "/>
<g clip-path="url(#clip2200)">
<text style="fill:#000000; fill-opacity:1; font-family:Arial,Helvetica Neue,Helvetica,sans-serif; font-size:71px; text-anchor:middle;" transform="rotate(0, 403.679, 1462.29)" x="403.679" y="1462.29">50</text>
</g>
<g clip-path="url(#clip2200)">
<text style="fill:#000000; fill-opacity:1; font-family:Arial,Helvetica Neue,Helvetica,sans-serif; font-size:71px; text-anchor:middle;" transform="rotate(0, 802.73, 1462.29)" x="802.73" y="1462.29">100</text>
</g>
<g clip-path="url(#clip2200)">
<text style="fill:#000000; fill-opacity:1; font-family:Arial,Helvetica Neue,Helvetica,sans-serif; font-size:71px; text-anchor:middle;" transform="rotate(0, 1201.78, 1462.29)" x="1201.78" y="1462.29">150</text>
</g>
<g clip-path="url(#clip2200)">
<text style="fill:#000000; fill-opacity:1; font-family:Arial,Helvetica Neue,Helvetica,sans-serif; font-size:71px; text-anchor:middle;" transform="rotate(0, 1600.83, 1462.29)" x="1600.83" y="1462.29">200</text>
</g>
<g clip-path="url(#clip2200)">
<text style="fill:#000000; fill-opacity:1; font-family:Arial,Helvetica Neue,Helvetica,sans-serif; font-size:71px; text-anchor:middle;" transform="rotate(0, 1999.88, 1462.29)" x="1999.88" y="1462.29">250</text>
</g>
<g clip-path="url(#clip2200)">
<text style="fill:#000000; fill-opacity:1; font-family:Arial,Helvetica Neue,Helvetica,sans-serif; font-size:71px; text-anchor:end;" transform="rotate(0, 266.237, 1378.89)" x="266.237" y="1378.89">0</text>
</g>
<g clip-path="url(#clip2200)">
<text style="fill:#000000; fill-opacity:1; font-family:Arial,Helvetica Neue,Helvetica,sans-serif; font-size:71px; text-anchor:end;" transform="rotate(0, 266.237, 1054.76)" x="266.237" y="1054.76">50</text>
</g>
<g clip-path="url(#clip2200)">
<text style="fill:#000000; fill-opacity:1; font-family:Arial,Helvetica Neue,Helvetica,sans-serif; font-size:71px; text-anchor:end;" transform="rotate(0, 266.237, 730.629)" x="266.237" y="730.629">100</text>
</g>
<g clip-path="url(#clip2200)">
<text style="fill:#000000; fill-opacity:1; font-family:Arial,Helvetica Neue,Helvetica,sans-serif; font-size:71px; text-anchor:end;" transform="rotate(0, 266.237, 406.5)" x="266.237" y="406.5">150</text>
</g>
<g clip-path="url(#clip2200)">
<text style="fill:#000000; fill-opacity:1; font-family:Arial,Helvetica Neue,Helvetica,sans-serif; font-size:125px; text-anchor:middle;" transform="rotate(0, 1321.5, 109.2)" x="1321.5" y="109.2">Average passing dose</text>
</g>
<g clip-path="url(#clip2200)">
<text style="fill:#000000; fill-opacity:1; font-family:Arial,Helvetica Neue,Helvetica,sans-serif; font-size:95px; text-anchor:middle;" transform="rotate(0, 1321.5, 1574.14)" x="1321.5" y="1574.14">T4 dose (mcg)</text>
</g>
<g clip-path="url(#clip2200)">
<text style="fill:#000000; fill-opacity:1; font-family:Arial,Helvetica Neue,Helvetica,sans-serif; font-size:95px; text-anchor:middle;" transform="rotate(-90, 104.007, 769.455)" x="104.007" y="769.455">Count</text>
</g>
<polygon clip-path="url(#clip2202)" points="
770.806,1333.44 770.806,1352.89 850.616,1352.89 850.616,1333.44 770.806,1333.44 770.806,1333.44 
  " fill="#009af9" fill-rule="evenodd" fill-opacity="1"/>
<polyline clip-path="url(#clip2202)" style="stroke:#000000; stroke-width:4; stroke-opacity:1; fill:none" points="
  770.806,1333.44 770.806,1352.89 850.616,1352.89 850.616,1333.44 770.806,1333.44 
  "/>
<polygon clip-path="url(#clip2202)" points="
786.768,1352.89 786.768,1352.89 866.578,1352.89 866.578,1352.89 786.768,1352.89 786.768,1352.89 
  " fill="#009af9" fill-rule="evenodd" fill-opacity="1"/>
<polyline clip-path="url(#clip2202)" style="stroke:#000000; stroke-width:4; stroke-opacity:1; fill:none" points="
  786.768,1352.89 786.768,1352.89 866.578,1352.89 786.768,1352.89 
  "/>
<polygon clip-path="url(#clip2202)" points="
802.73,1352.89 802.73,1352.89 882.54,1352.89 882.54,1352.89 802.73,1352.89 802.73,1352.89 
  " fill="#009af9" fill-rule="evenodd" fill-opacity="1"/>
<polyline clip-path="url(#clip2202)" style="stroke:#000000; stroke-width:4; stroke-opacity:1; fill:none" points="
  802.73,1352.89 802.73,1352.89 882.54,1352.89 802.73,1352.89 
  "/>
<polygon clip-path="url(#clip2202)" points="
818.692,1164.89 818.692,1352.89 898.502,1352.89 898.502,1164.89 818.692,1164.89 818.692,1164.89 
  " fill="#009af9" fill-rule="evenodd" fill-opacity="1"/>
<polyline clip-path="url(#clip2202)" style="stroke:#000000; stroke-width:4; stroke-opacity:1; fill:none" points="
  818.692,1164.89 818.692,1352.89 898.502,1352.89 898.502,1164.89 818.692,1164.89 
  "/>
<polygon clip-path="url(#clip2202)" points="
834.654,1352.89 834.654,1352.89 914.464,1352.89 914.464,1352.89 834.654,1352.89 834.654,1352.89 
  " fill="#009af9" fill-rule="evenodd" fill-opacity="1"/>
<polyline clip-path="url(#clip2202)" style="stroke:#000000; stroke-width:4; stroke-opacity:1; fill:none" points="
  834.654,1352.89 834.654,1352.89 914.464,1352.89 834.654,1352.89 
  "/>
<polygon clip-path="url(#clip2202)" points="
850.616,1352.89 850.616,1352.89 930.426,1352.89 930.426,1352.89 850.616,1352.89 850.616,1352.89 
  " fill="#009af9" fill-rule="evenodd" fill-opacity="1"/>
<polyline clip-path="url(#clip2202)" style="stroke:#000000; stroke-width:4; stroke-opacity:1; fill:none" points="
  850.616,1352.89 850.616,1352.89 930.426,1352.89 850.616,1352.89 
  "/>
<polygon clip-path="url(#clip2202)" points="
866.578,989.863 866.578,1352.89 946.389,1352.89 946.389,989.863 866.578,989.863 866.578,989.863 
  " fill="#009af9" fill-rule="evenodd" fill-opacity="1"/>
<polyline clip-path="url(#clip2202)" style="stroke:#000000; stroke-width:4; stroke-opacity:1; fill:none" points="
  866.578,989.863 866.578,1352.89 946.389,1352.89 946.389,989.863 866.578,989.863 
  "/>
<polygon clip-path="url(#clip2202)" points="
882.54,1352.89 882.54,1352.89 962.351,1352.89 962.351,1352.89 882.54,1352.89 882.54,1352.89 
  " fill="#009af9" fill-rule="evenodd" fill-opacity="1"/>
<polyline clip-path="url(#clip2202)" style="stroke:#000000; stroke-width:4; stroke-opacity:1; fill:none" points="
  882.54,1352.89 882.54,1352.89 962.351,1352.89 882.54,1352.89 
  "/>
<polygon clip-path="url(#clip2202)" points="
898.502,1352.89 898.502,1352.89 978.313,1352.89 978.313,1352.89 898.502,1352.89 898.502,1352.89 
  " fill="#009af9" fill-rule="evenodd" fill-opacity="1"/>
<polyline clip-path="url(#clip2202)" style="stroke:#000000; stroke-width:4; stroke-opacity:1; fill:none" points="
  898.502,1352.89 898.502,1352.89 978.313,1352.89 898.502,1352.89 
  "/>
<polygon clip-path="url(#clip2202)" points="
914.464,665.734 914.464,1352.89 994.275,1352.89 994.275,665.734 914.464,665.734 914.464,665.734 
  " fill="#009af9" fill-rule="evenodd" fill-opacity="1"/>
<polyline clip-path="url(#clip2202)" style="stroke:#000000; stroke-width:4; stroke-opacity:1; fill:none" points="
  914.464,665.734 914.464,1352.89 994.275,1352.89 994.275,665.734 914.464,665.734 
  "/>
<polygon clip-path="url(#clip2202)" points="
930.426,1352.89 930.426,1352.89 1010.24,1352.89 1010.24,1352.89 930.426,1352.89 930.426,1352.89 
  " fill="#009af9" fill-rule="evenodd" fill-opacity="1"/>
<polyline clip-path="url(#clip2202)" style="stroke:#000000; stroke-width:4; stroke-opacity:1; fill:none" points="
  930.426,1352.89 930.426,1352.89 1010.24,1352.89 930.426,1352.89 
  "/>
<polygon clip-path="url(#clip2202)" points="
946.389,1352.89 946.389,1352.89 1026.2,1352.89 1026.2,1352.89 946.389,1352.89 946.389,1352.89 
  " fill="#009af9" fill-rule="evenodd" fill-opacity="1"/>
<polyline clip-path="url(#clip2202)" style="stroke:#000000; stroke-width:4; stroke-opacity:1; fill:none" points="
  946.389,1352.89 946.389,1352.89 1026.2,1352.89 946.389,1352.89 
  "/>
<polygon clip-path="url(#clip2202)" points="
962.351,186.023 962.351,1352.89 1042.16,1352.89 1042.16,186.023 962.351,186.023 962.351,186.023 
  " fill="#009af9" fill-rule="evenodd" fill-opacity="1"/>
<polyline clip-path="url(#clip2202)" style="stroke:#000000; stroke-width:4; stroke-opacity:1; fill:none" points="
  962.351,186.023 962.351,1352.89 1042.16,1352.89 1042.16,186.023 962.351,186.023 
  "/>
<polygon clip-path="url(#clip2202)" points="
978.313,1352.89 978.313,1352.89 1058.12,1352.89 1058.12,1352.89 978.313,1352.89 978.313,1352.89 
  " fill="#009af9" fill-rule="evenodd" fill-opacity="1"/>
<polyline clip-path="url(#clip2202)" style="stroke:#000000; stroke-width:4; stroke-opacity:1; fill:none" points="
  978.313,1352.89 978.313,1352.89 1058.12,1352.89 978.313,1352.89 
  "/>
<polygon clip-path="url(#clip2202)" points="
994.275,1352.89 994.275,1352.89 1074.08,1352.89 1074.08,1352.89 994.275,1352.89 994.275,1352.89 
  " fill="#009af9" fill-rule="evenodd" fill-opacity="1"/>
<polyline clip-path="url(#clip2202)" style="stroke:#000000; stroke-width:4; stroke-opacity:1; fill:none" points="
  994.275,1352.89 994.275,1352.89 1074.08,1352.89 994.275,1352.89 
  "/>
<polygon clip-path="url(#clip2202)" points="
1010.24,1022.28 1010.24,1352.89 1090.05,1352.89 1090.05,1022.28 1010.24,1022.28 1010.24,1022.28 
  " fill="#009af9" fill-rule="evenodd" fill-opacity="1"/>
<polyline clip-path="url(#clip2202)" style="stroke:#000000; stroke-width:4; stroke-opacity:1; fill:none" points="
  1010.24,1022.28 1010.24,1352.89 1090.05,1352.89 1090.05,1022.28 1010.24,1022.28 
  "/>
<polygon clip-path="url(#clip2202)" points="
1026.2,1352.89 1026.2,1352.89 1106.01,1352.89 1106.01,1352.89 1026.2,1352.89 1026.2,1352.89 
  " fill="#009af9" fill-rule="evenodd" fill-opacity="1"/>
<polyline clip-path="url(#clip2202)" style="stroke:#000000; stroke-width:4; stroke-opacity:1; fill:none" points="
  1026.2,1352.89 1026.2,1352.89 1106.01,1352.89 1026.2,1352.89 
  "/>
<polygon clip-path="url(#clip2202)" points="
1042.16,1352.89 1042.16,1352.89 1121.97,1352.89 1121.97,1352.89 1042.16,1352.89 1042.16,1352.89 
  " fill="#009af9" fill-rule="evenodd" fill-opacity="1"/>
<polyline clip-path="url(#clip2202)" style="stroke:#000000; stroke-width:4; stroke-opacity:1; fill:none" points="
  1042.16,1352.89 1042.16,1352.89 1121.97,1352.89 1042.16,1352.89 
  "/>
<polygon clip-path="url(#clip2202)" points="
1058.12,704.629 1058.12,1352.89 1137.93,1352.89 1137.93,704.629 1058.12,704.629 1058.12,704.629 
  " fill="#009af9" fill-rule="evenodd" fill-opacity="1"/>
<polyline clip-path="url(#clip2202)" style="stroke:#000000; stroke-width:4; stroke-opacity:1; fill:none" points="
  1058.12,704.629 1058.12,1352.89 1137.93,1352.89 1137.93,704.629 1058.12,704.629 
  "/>
<polygon clip-path="url(#clip2202)" points="
1074.08,1352.89 1074.08,1352.89 1153.9,1352.89 1153.9,1352.89 1074.08,1352.89 1074.08,1352.89 
  " fill="#009af9" fill-rule="evenodd" fill-opacity="1"/>
<polyline clip-path="url(#clip2202)" style="stroke:#000000; stroke-width:4; stroke-opacity:1; fill:none" points="
  1074.08,1352.89 1074.08,1352.89 1153.9,1352.89 1074.08,1352.89 
  "/>
<polygon clip-path="url(#clip2202)" points="
1090.05,1352.89 1090.05,1352.89 1169.86,1352.89 1169.86,1352.89 1090.05,1352.89 1090.05,1352.89 
  " fill="#009af9" fill-rule="evenodd" fill-opacity="1"/>
<polyline clip-path="url(#clip2202)" style="stroke:#000000; stroke-width:4; stroke-opacity:1; fill:none" points="
  1090.05,1352.89 1090.05,1352.89 1169.86,1352.89 1090.05,1352.89 
  "/>
<polygon clip-path="url(#clip2202)" points="
1106.01,1177.86 1106.01,1352.89 1185.82,1352.89 1185.82,1177.86 1106.01,1177.86 1106.01,1177.86 
  " fill="#009af9" fill-rule="evenodd" fill-opacity="1"/>
<polyline clip-path="url(#clip2202)" style="stroke:#000000; stroke-width:4; stroke-opacity:1; fill:none" points="
  1106.01,1177.86 1106.01,1352.89 1185.82,1352.89 1185.82,1177.86 1106.01,1177.86 
  "/>
<polygon clip-path="url(#clip2202)" points="
1121.97,1352.89 1121.97,1352.89 1201.78,1352.89 1201.78,1352.89 1121.97,1352.89 1121.97,1352.89 
  " fill="#009af9" fill-rule="evenodd" fill-opacity="1"/>
<polyline clip-path="url(#clip2202)" style="stroke:#000000; stroke-width:4; stroke-opacity:1; fill:none" points="
  1121.97,1352.89 1121.97,1352.89 1201.78,1352.89 1121.97,1352.89 
  "/>
<polygon clip-path="url(#clip2202)" points="
1137.93,1352.89 1137.93,1352.89 1217.74,1352.89 1217.74,1352.89 1137.93,1352.89 1137.93,1352.89 
  " fill="#009af9" fill-rule="evenodd" fill-opacity="1"/>
<polyline clip-path="url(#clip2202)" style="stroke:#000000; stroke-width:4; stroke-opacity:1; fill:none" points="
  1137.93,1352.89 1137.93,1352.89 1217.74,1352.89 1137.93,1352.89 
  "/>
<polygon clip-path="url(#clip2202)" points="
1153.9,1352.89 1153.9,1352.89 1233.71,1352.89 1233.71,1352.89 1153.9,1352.89 1153.9,1352.89 
  " fill="#009af9" fill-rule="evenodd" fill-opacity="1"/>
<polyline clip-path="url(#clip2202)" style="stroke:#000000; stroke-width:4; stroke-opacity:1; fill:none" points="
  1153.9,1352.89 1153.9,1352.89 1233.71,1352.89 1153.9,1352.89 
  "/>
<polygon clip-path="url(#clip2202)" points="
1169.86,1339.92 1169.86,1352.89 1249.67,1352.89 1249.67,1339.92 1169.86,1339.92 1169.86,1339.92 
  " fill="#009af9" fill-rule="evenodd" fill-opacity="1"/>
<polyline clip-path="url(#clip2202)" style="stroke:#000000; stroke-width:4; stroke-opacity:1; fill:none" points="
  1169.86,1339.92 1169.86,1352.89 1249.67,1352.89 1249.67,1339.92 1169.86,1339.92 
  "/>
<polygon clip-path="url(#clip2202)" points="
403.679,1326.96 403.679,1352.89 483.489,1352.89 483.489,1326.96 403.679,1326.96 403.679,1326.96 
  " fill="#e26f46" fill-rule="evenodd" fill-opacity="0.5"/>
<polyline clip-path="url(#clip2202)" style="stroke:#000000; stroke-width:4; stroke-opacity:1; fill:none" points="
  403.679,1326.96 403.679,1352.89 483.489,1352.89 483.489,1326.96 403.679,1326.96 
  "/>
<polygon clip-path="url(#clip2202)" points="
483.489,1352.89 483.489,1352.89 563.3,1352.89 563.3,1352.89 483.489,1352.89 483.489,1352.89 
  " fill="#e26f46" fill-rule="evenodd" fill-opacity="0.5"/>
<polyline clip-path="url(#clip2202)" style="stroke:#000000; stroke-width:4; stroke-opacity:1; fill:none" points="
  483.489,1352.89 483.489,1352.89 563.3,1352.89 483.489,1352.89 
  "/>
<polygon clip-path="url(#clip2202)" points="
563.3,1223.24 563.3,1352.89 643.11,1352.89 643.11,1223.24 563.3,1223.24 563.3,1223.24 
  " fill="#e26f46" fill-rule="evenodd" fill-opacity="0.5"/>
<polyline clip-path="url(#clip2202)" style="stroke:#000000; stroke-width:4; stroke-opacity:1; fill:none" points="
  563.3,1223.24 563.3,1352.89 643.11,1352.89 643.11,1223.24 563.3,1223.24 
  "/>
<polygon clip-path="url(#clip2202)" points="
643.11,1113.03 643.11,1352.89 722.92,1352.89 722.92,1113.03 643.11,1113.03 643.11,1113.03 
  " fill="#e26f46" fill-rule="evenodd" fill-opacity="0.5"/>
<polyline clip-path="url(#clip2202)" style="stroke:#000000; stroke-width:4; stroke-opacity:1; fill:none" points="
  643.11,1113.03 643.11,1352.89 722.92,1352.89 722.92,1113.03 643.11,1113.03 
  "/>
<polygon clip-path="url(#clip2202)" points="
722.92,1307.51 722.92,1352.89 802.73,1352.89 802.73,1307.51 722.92,1307.51 722.92,1307.51 
  " fill="#e26f46" fill-rule="evenodd" fill-opacity="0.5"/>
<polyline clip-path="url(#clip2202)" style="stroke:#000000; stroke-width:4; stroke-opacity:1; fill:none" points="
  722.92,1307.51 722.92,1352.89 802.73,1352.89 802.73,1307.51 722.92,1307.51 
  "/>
<polygon clip-path="url(#clip2202)" points="
802.73,762.973 802.73,1352.89 882.54,1352.89 882.54,762.973 802.73,762.973 802.73,762.973 
  " fill="#e26f46" fill-rule="evenodd" fill-opacity="0.5"/>
<polyline clip-path="url(#clip2202)" style="stroke:#000000; stroke-width:4; stroke-opacity:1; fill:none" points="
  802.73,762.973 802.73,1352.89 882.54,1352.89 882.54,762.973 802.73,762.973 
  "/>
<polygon clip-path="url(#clip2202)" points="
882.54,912.072 882.54,1352.89 962.351,1352.89 962.351,912.072 882.54,912.072 882.54,912.072 
  " fill="#e26f46" fill-rule="evenodd" fill-opacity="0.5"/>
<polyline clip-path="url(#clip2202)" style="stroke:#000000; stroke-width:4; stroke-opacity:1; fill:none" points="
  882.54,912.072 882.54,1352.89 962.351,1352.89 962.351,912.072 882.54,912.072 
  "/>
<polygon clip-path="url(#clip2202)" points="
962.351,633.321 962.351,1352.89 1042.16,1352.89 1042.16,633.321 962.351,633.321 962.351,633.321 
  " fill="#e26f46" fill-rule="evenodd" fill-opacity="0.5"/>
<polyline clip-path="url(#clip2202)" style="stroke:#000000; stroke-width:4; stroke-opacity:1; fill:none" points="
  962.351,633.321 962.351,1352.89 1042.16,1352.89 1042.16,633.321 962.351,633.321 
  "/>
<polygon clip-path="url(#clip2202)" points="
1042.16,938.002 1042.16,1352.89 1121.97,1352.89 1121.97,938.002 1042.16,938.002 1042.16,938.002 
  " fill="#e26f46" fill-rule="evenodd" fill-opacity="0.5"/>
<polyline clip-path="url(#clip2202)" style="stroke:#000000; stroke-width:4; stroke-opacity:1; fill:none" points="
  1042.16,938.002 1042.16,1352.89 1121.97,1352.89 1121.97,938.002 1042.16,938.002 
  "/>
<polygon clip-path="url(#clip2202)" points="
1121.97,1346.41 1121.97,1352.89 1201.78,1352.89 1201.78,1346.41 1121.97,1346.41 1121.97,1346.41 
  " fill="#e26f46" fill-rule="evenodd" fill-opacity="0.5"/>
<polyline clip-path="url(#clip2202)" style="stroke:#000000; stroke-width:4; stroke-opacity:1; fill:none" points="
  1121.97,1346.41 1121.97,1352.89 1201.78,1352.89 1201.78,1346.41 1121.97,1346.41 
  "/>
<polygon clip-path="url(#clip2202)" points="
1201.78,866.694 1201.78,1352.89 1281.59,1352.89 1281.59,866.694 1201.78,866.694 1201.78,866.694 
  " fill="#e26f46" fill-rule="evenodd" fill-opacity="0.5"/>
<polyline clip-path="url(#clip2202)" style="stroke:#000000; stroke-width:4; stroke-opacity:1; fill:none" points="
  1201.78,866.694 1201.78,1352.89 1281.59,1352.89 1281.59,866.694 1201.78,866.694 
  "/>
<polygon clip-path="url(#clip2202)" points="
1281.59,1313.99 1281.59,1352.89 1361.4,1352.89 1361.4,1313.99 1281.59,1313.99 1281.59,1313.99 
  " fill="#e26f46" fill-rule="evenodd" fill-opacity="0.5"/>
<polyline clip-path="url(#clip2202)" style="stroke:#000000; stroke-width:4; stroke-opacity:1; fill:none" points="
  1281.59,1313.99 1281.59,1352.89 1361.4,1352.89 1361.4,1313.99 1281.59,1313.99 
  "/>
<polygon clip-path="url(#clip2202)" points="
1361.4,1119.51 1361.4,1352.89 1441.21,1352.89 1441.21,1119.51 1361.4,1119.51 1361.4,1119.51 
  " fill="#e26f46" fill-rule="evenodd" fill-opacity="0.5"/>
<polyline clip-path="url(#clip2202)" style="stroke:#000000; stroke-width:4; stroke-opacity:1; fill:none" points="
  1361.4,1119.51 1361.4,1352.89 1441.21,1352.89 1441.21,1119.51 1361.4,1119.51 
  "/>
<polygon clip-path="url(#clip2202)" points="
1441.21,1333.44 1441.21,1352.89 1521.02,1352.89 1521.02,1333.44 1441.21,1333.44 1441.21,1333.44 
  " fill="#e26f46" fill-rule="evenodd" fill-opacity="0.5"/>
<polyline clip-path="url(#clip2202)" style="stroke:#000000; stroke-width:4; stroke-opacity:1; fill:none" points="
  1441.21,1333.44 1441.21,1352.89 1521.02,1352.89 1521.02,1333.44 1441.21,1333.44 
  "/>
<polygon clip-path="url(#clip2202)" points="
1521.02,1352.89 1521.02,1352.89 1600.83,1352.89 1600.83,1352.89 1521.02,1352.89 1521.02,1352.89 
  " fill="#e26f46" fill-rule="evenodd" fill-opacity="0.5"/>
<polyline clip-path="url(#clip2202)" style="stroke:#000000; stroke-width:4; stroke-opacity:1; fill:none" points="
  1521.02,1352.89 1521.02,1352.89 1600.83,1352.89 1521.02,1352.89 
  "/>
<polygon clip-path="url(#clip2202)" points="
1600.83,1229.72 1600.83,1352.89 1680.64,1352.89 1680.64,1229.72 1600.83,1229.72 1600.83,1229.72 
  " fill="#e26f46" fill-rule="evenodd" fill-opacity="0.5"/>
<polyline clip-path="url(#clip2202)" style="stroke:#000000; stroke-width:4; stroke-opacity:1; fill:none" points="
  1600.83,1229.72 1600.83,1352.89 1680.64,1352.89 1680.64,1229.72 1600.83,1229.72 
  "/>
<polygon clip-path="url(#clip2202)" points="
1680.64,1346.41 1680.64,1352.89 1760.45,1352.89 1760.45,1346.41 1680.64,1346.41 1680.64,1346.41 
  " fill="#e26f46" fill-rule="evenodd" fill-opacity="0.5"/>
<polyline clip-path="url(#clip2202)" style="stroke:#000000; stroke-width:4; stroke-opacity:1; fill:none" points="
  1680.64,1346.41 1680.64,1352.89 1760.45,1352.89 1760.45,1346.41 1680.64,1346.41 
  "/>
<polygon clip-path="url(#clip2202)" points="
1760.45,1313.99 1760.45,1352.89 1840.26,1352.89 1840.26,1313.99 1760.45,1313.99 1760.45,1313.99 
  " fill="#e26f46" fill-rule="evenodd" fill-opacity="0.5"/>
<polyline clip-path="url(#clip2202)" style="stroke:#000000; stroke-width:4; stroke-opacity:1; fill:none" points="
  1760.45,1313.99 1760.45,1352.89 1840.26,1352.89 1840.26,1313.99 1760.45,1313.99 
  "/>
<polygon clip-path="url(#clip2202)" points="
1840.26,1352.89 1840.26,1352.89 1920.07,1352.89 1920.07,1352.89 1840.26,1352.89 1840.26,1352.89 
  " fill="#e26f46" fill-rule="evenodd" fill-opacity="0.5"/>
<polyline clip-path="url(#clip2202)" style="stroke:#000000; stroke-width:4; stroke-opacity:1; fill:none" points="
  1840.26,1352.89 1840.26,1352.89 1920.07,1352.89 1840.26,1352.89 
  "/>
<polygon clip-path="url(#clip2202)" points="
1920.07,1352.89 1920.07,1352.89 1999.88,1352.89 1999.88,1352.89 1920.07,1352.89 1920.07,1352.89 
  " fill="#e26f46" fill-rule="evenodd" fill-opacity="0.5"/>
<polyline clip-path="url(#clip2202)" style="stroke:#000000; stroke-width:4; stroke-opacity:1; fill:none" points="
  1920.07,1352.89 1920.07,1352.89 1999.88,1352.89 1920.07,1352.89 
  "/>
<polygon clip-path="url(#clip2202)" points="
1999.88,1339.92 1999.88,1352.89 2079.69,1352.89 2079.69,1339.92 1999.88,1339.92 1999.88,1339.92 
  " fill="#e26f46" fill-rule="evenodd" fill-opacity="0.5"/>
<polyline clip-path="url(#clip2202)" style="stroke:#000000; stroke-width:4; stroke-opacity:1; fill:none" points="
  1999.88,1339.92 1999.88,1352.89 2079.69,1352.89 2079.69,1339.92 1999.88,1339.92 
  "/>
<polygon clip-path="url(#clip2202)" points="
2079.69,1352.89 2079.69,1352.89 2159.5,1352.89 2159.5,1352.89 2079.69,1352.89 2079.69,1352.89 
  " fill="#e26f46" fill-rule="evenodd" fill-opacity="0.5"/>
<polyline clip-path="url(#clip2202)" style="stroke:#000000; stroke-width:4; stroke-opacity:1; fill:none" points="
  2079.69,1352.89 2079.69,1352.89 2159.5,1352.89 2079.69,1352.89 
  "/>
<polygon clip-path="url(#clip2202)" points="
2159.5,1333.44 2159.5,1352.89 2239.31,1352.89 2239.31,1333.44 2159.5,1333.44 2159.5,1333.44 
  " fill="#e26f46" fill-rule="evenodd" fill-opacity="0.5"/>
<polyline clip-path="url(#clip2202)" style="stroke:#000000; stroke-width:4; stroke-opacity:1; fill:none" points="
  2159.5,1333.44 2159.5,1352.89 2239.31,1352.89 2239.31,1333.44 2159.5,1333.44 
  "/>
<polygon clip-path="url(#clip2200)" points="
1454.85,476.457 2280.76,476.457 2280.76,204.297 1454.85,204.297 
  " fill="#ffffff" fill-rule="evenodd" fill-opacity="1"/>
<polyline clip-path="url(#clip2200)" style="stroke:#000000; stroke-width:4; stroke-opacity:1; fill:none" points="
  1454.85,476.457 2280.76,476.457 2280.76,204.297 1454.85,204.297 1454.85,476.457 
  "/>
<polygon clip-path="url(#clip2200)" points="
1478.85,331.305 1622.85,331.305 1622.85,258.729 1478.85,258.729 1478.85,331.305 
  " fill="#009af9" fill-rule="evenodd" fill-opacity="1"/>
<polyline clip-path="url(#clip2200)" style="stroke:#000000; stroke-width:4; stroke-opacity:1; fill:none" points="
  1478.85,331.305 1622.85,331.305 1622.85,258.729 1478.85,258.729 1478.85,331.305 
  "/>
<g clip-path="url(#clip2200)">
<text style="fill:#000000; fill-opacity:1; font-family:Arial,Helvetica Neue,Helvetica,sans-serif; font-size:71px; text-anchor:start;" transform="rotate(0, 1646.85, 321.017)" x="1646.85" y="321.017">Predicted T4 dose</text>
</g>
<polygon clip-path="url(#clip2200)" points="
1478.85,422.025 1622.85,422.025 1622.85,349.449 1478.85,349.449 1478.85,422.025 
  " fill="#e26f46" fill-rule="evenodd" fill-opacity="0.5"/>
<polyline clip-path="url(#clip2200)" style="stroke:#000000; stroke-width:4; stroke-opacity:1; fill:none" points="
  1478.85,422.025 1622.85,422.025 1622.85,349.449 1478.85,349.449 1478.85,422.025 
  "/>
<g clip-path="url(#clip2200)">
<text style="fill:#000000; fill-opacity:1; font-family:Arial,Helvetica Neue,Helvetica,sans-serif; font-size:71px; text-anchor:start;" transform="rotate(0, 1646.85, 411.737)" x="1646.85" y="411.737">Actual T4 dose</text>
</g>
</svg>
