<?xml version="1.0" encoding="utf-8"?>
<svg xmlns="http://www.w3.org/2000/svg" xmlns:xlink="http://www.w3.org/1999/xlink" width="600" height="400" viewBox="0 0 2400 1600">
<defs>
  <clipPath id="clip2600">
    <rect x="0" y="0" width="2400" height="1600"/>
  </clipPath>
</defs>
<polygon clip-path="url(#clip2600)" points="
0,1600 2400,1600 2400,0 0,0 
  " fill="#ffffff" fill-rule="evenodd" fill-opacity="1"/>
<defs>
  <clipPath id="clip2601">
    <rect x="480" y="0" width="1681" height="1600"/>
  </clipPath>
</defs>
<polygon clip-path="url(#clip2600)" points="
229.135,1425.62 2352.76,1425.62 2352.76,121.675 229.135,121.675 
  " fill="#ffffff" fill-rule="evenodd" fill-opacity="1"/>
<defs>
  <clipPath id="clip2602">
    <rect x="229" y="121" width="2125" height="1305"/>
  </clipPath>
</defs>
<polyline clip-path="url(#clip2602)" style="stroke:#000000; stroke-width:2; stroke-opacity:0.1; fill:none" points="
  345.938,1425.62 345.938,121.675 
  "/>
<polyline clip-path="url(#clip2602)" style="stroke:#000000; stroke-width:2; stroke-opacity:0.1; fill:none" points="
  756.811,1425.62 756.811,121.675 
  "/>
<polyline clip-path="url(#clip2602)" style="stroke:#000000; stroke-width:2; stroke-opacity:0.1; fill:none" points="
  1167.68,1425.62 1167.68,121.675 
  "/>
<polyline clip-path="url(#clip2602)" style="stroke:#000000; stroke-width:2; stroke-opacity:0.1; fill:none" points="
  1578.56,1425.62 1578.56,121.675 
  "/>
<polyline clip-path="url(#clip2602)" style="stroke:#000000; stroke-width:2; stroke-opacity:0.1; fill:none" points="
  1989.43,1425.62 1989.43,121.675 
  "/>
<polyline clip-path="url(#clip2602)" style="stroke:#000000; stroke-width:2; stroke-opacity:0.1; fill:none" points="
  229.135,1388.71 2352.76,1388.71 
  "/>
<polyline clip-path="url(#clip2602)" style="stroke:#000000; stroke-width:2; stroke-opacity:0.1; fill:none" points="
  229.135,1047.01 2352.76,1047.01 
  "/>
<polyline clip-path="url(#clip2602)" style="stroke:#000000; stroke-width:2; stroke-opacity:0.1; fill:none" points="
  229.135,705.306 2352.76,705.306 
  "/>
<polyline clip-path="url(#clip2602)" style="stroke:#000000; stroke-width:2; stroke-opacity:0.1; fill:none" points="
  229.135,363.602 2352.76,363.602 
  "/>
<polyline clip-path="url(#clip2600)" style="stroke:#000000; stroke-width:4; stroke-opacity:1; fill:none" points="
  229.135,1425.62 2352.76,1425.62 
  "/>
<polyline clip-path="url(#clip2600)" style="stroke:#000000; stroke-width:4; stroke-opacity:1; fill:none" points="
  229.135,1425.62 229.135,121.675 
  "/>
<polyline clip-path="url(#clip2600)" style="stroke:#000000; stroke-width:4; stroke-opacity:1; fill:none" points="
  345.938,1425.62 345.938,1406.06 
  "/>
<polyline clip-path="url(#clip2600)" style="stroke:#000000; stroke-width:4; stroke-opacity:1; fill:none" points="
  756.811,1425.62 756.811,1406.06 
  "/>
<polyline clip-path="url(#clip2600)" style="stroke:#000000; stroke-width:4; stroke-opacity:1; fill:none" points="
  1167.68,1425.62 1167.68,1406.06 
  "/>
<polyline clip-path="url(#clip2600)" style="stroke:#000000; stroke-width:4; stroke-opacity:1; fill:none" points="
  1578.56,1425.62 1578.56,1406.06 
  "/>
<polyline clip-path="url(#clip2600)" style="stroke:#000000; stroke-width:4; stroke-opacity:1; fill:none" points="
  1989.43,1425.62 1989.43,1406.06 
  "/>
<polyline clip-path="url(#clip2600)" style="stroke:#000000; stroke-width:4; stroke-opacity:1; fill:none" points="
  229.135,1388.71 260.99,1388.71 
  "/>
<polyline clip-path="url(#clip2600)" style="stroke:#000000; stroke-width:4; stroke-opacity:1; fill:none" points="
  229.135,1047.01 260.99,1047.01 
  "/>
<polyline clip-path="url(#clip2600)" style="stroke:#000000; stroke-width:4; stroke-opacity:1; fill:none" points="
  229.135,705.306 260.99,705.306 
  "/>
<polyline clip-path="url(#clip2600)" style="stroke:#000000; stroke-width:4; stroke-opacity:1; fill:none" points="
  229.135,363.602 260.99,363.602 
  "/>
<g clip-path="url(#clip2600)">
<text style="fill:#000000; fill-opacity:1; font-family:Arial,Helvetica Neue,Helvetica,sans-serif; font-size:48px; text-anchor:middle;" transform="rotate(0, 345.938, 1479.62)" x="345.938" y="1479.62">50</text>
</g>
<g clip-path="url(#clip2600)">
<text style="fill:#000000; fill-opacity:1; font-family:Arial,Helvetica Neue,Helvetica,sans-serif; font-size:48px; text-anchor:middle;" transform="rotate(0, 756.811, 1479.62)" x="756.811" y="1479.62">100</text>
</g>
<g clip-path="url(#clip2600)">
<text style="fill:#000000; fill-opacity:1; font-family:Arial,Helvetica Neue,Helvetica,sans-serif; font-size:48px; text-anchor:middle;" transform="rotate(0, 1167.68, 1479.62)" x="1167.68" y="1479.62">150</text>
</g>
<g clip-path="url(#clip2600)">
<text style="fill:#000000; fill-opacity:1; font-family:Arial,Helvetica Neue,Helvetica,sans-serif; font-size:48px; text-anchor:middle;" transform="rotate(0, 1578.56, 1479.62)" x="1578.56" y="1479.62">200</text>
</g>
<g clip-path="url(#clip2600)">
<text style="fill:#000000; fill-opacity:1; font-family:Arial,Helvetica Neue,Helvetica,sans-serif; font-size:48px; text-anchor:middle;" transform="rotate(0, 1989.43, 1479.62)" x="1989.43" y="1479.62">250</text>
</g>
<g clip-path="url(#clip2600)">
<text style="fill:#000000; fill-opacity:1; font-family:Arial,Helvetica Neue,Helvetica,sans-serif; font-size:48px; text-anchor:end;" transform="rotate(0, 205.135, 1406.21)" x="205.135" y="1406.21">0</text>
</g>
<g clip-path="url(#clip2600)">
<text style="fill:#000000; fill-opacity:1; font-family:Arial,Helvetica Neue,Helvetica,sans-serif; font-size:48px; text-anchor:end;" transform="rotate(0, 205.135, 1064.51)" x="205.135" y="1064.51">50</text>
</g>
<g clip-path="url(#clip2600)">
<text style="fill:#000000; fill-opacity:1; font-family:Arial,Helvetica Neue,Helvetica,sans-serif; font-size:48px; text-anchor:end;" transform="rotate(0, 205.135, 722.806)" x="205.135" y="722.806">100</text>
</g>
<g clip-path="url(#clip2600)">
<text style="fill:#000000; fill-opacity:1; font-family:Arial,Helvetica Neue,Helvetica,sans-serif; font-size:48px; text-anchor:end;" transform="rotate(0, 205.135, 381.102)" x="205.135" y="381.102">150</text>
</g>
<g clip-path="url(#clip2600)">
<text style="fill:#000000; fill-opacity:1; font-family:Arial,Helvetica Neue,Helvetica,sans-serif; font-size:84px; text-anchor:middle;" transform="rotate(0, 1290.95, 73.2)" x="1290.95" y="73.2">Average passing dose</text>
</g>
<g clip-path="url(#clip2600)">
<text style="fill:#000000; fill-opacity:1; font-family:Arial,Helvetica Neue,Helvetica,sans-serif; font-size:66px; text-anchor:middle;" transform="rotate(0, 1290.95, 1559.48)" x="1290.95" y="1559.48">T4 dose (mcg)</text>
</g>
<g clip-path="url(#clip2600)">
<text style="fill:#000000; fill-opacity:1; font-family:Arial,Helvetica Neue,Helvetica,sans-serif; font-size:66px; text-anchor:middle;" transform="rotate(-90, 89.2861, 773.647)" x="89.2861" y="773.647">Count</text>
</g>
<polygon clip-path="url(#clip2602)" points="
756.811,1368.21 756.811,1388.71 773.246,1388.71 773.246,1368.21 756.811,1368.21 756.811,1368.21 
  " fill="#009af9" fill-rule="evenodd" fill-opacity="1"/>
<polyline clip-path="url(#clip2602)" style="stroke:#000000; stroke-width:4; stroke-opacity:1; fill:none" points="
  756.811,1368.21 756.811,1388.71 773.246,1388.71 773.246,1368.21 756.811,1368.21 
  "/>
<polygon clip-path="url(#clip2602)" points="
773.246,1388.71 773.246,1388.71 789.681,1388.71 789.681,1388.71 773.246,1388.71 773.246,1388.71 
  " fill="#009af9" fill-rule="evenodd" fill-opacity="1"/>
<polyline clip-path="url(#clip2602)" style="stroke:#000000; stroke-width:4; stroke-opacity:1; fill:none" points="
  773.246,1388.71 773.246,1388.71 789.681,1388.71 773.246,1388.71 
  "/>
<polygon clip-path="url(#clip2602)" points="
789.681,1388.71 789.681,1388.71 806.116,1388.71 806.116,1388.71 789.681,1388.71 789.681,1388.71 
  " fill="#009af9" fill-rule="evenodd" fill-opacity="1"/>
<polyline clip-path="url(#clip2602)" style="stroke:#000000; stroke-width:4; stroke-opacity:1; fill:none" points="
  789.681,1388.71 789.681,1388.71 806.116,1388.71 789.681,1388.71 
  "/>
<polygon clip-path="url(#clip2602)" points="
806.116,1190.53 806.116,1388.71 822.551,1388.71 822.551,1190.53 806.116,1190.53 806.116,1190.53 
  " fill="#009af9" fill-rule="evenodd" fill-opacity="1"/>
<polyline clip-path="url(#clip2602)" style="stroke:#000000; stroke-width:4; stroke-opacity:1; fill:none" points="
  806.116,1190.53 806.116,1388.71 822.551,1388.71 822.551,1190.53 806.116,1190.53 
  "/>
<polygon clip-path="url(#clip2602)" points="
822.551,1388.71 822.551,1388.71 838.986,1388.71 838.986,1388.71 822.551,1388.71 822.551,1388.71 
  " fill="#009af9" fill-rule="evenodd" fill-opacity="1"/>
<polyline clip-path="url(#clip2602)" style="stroke:#000000; stroke-width:4; stroke-opacity:1; fill:none" points="
  822.551,1388.71 822.551,1388.71 838.986,1388.71 822.551,1388.71 
  "/>
<polygon clip-path="url(#clip2602)" points="
838.986,1388.71 838.986,1388.71 855.42,1388.71 855.42,1388.71 838.986,1388.71 838.986,1388.71 
  " fill="#009af9" fill-rule="evenodd" fill-opacity="1"/>
<polyline clip-path="url(#clip2602)" style="stroke:#000000; stroke-width:4; stroke-opacity:1; fill:none" points="
  838.986,1388.71 838.986,1388.71 855.42,1388.71 838.986,1388.71 
  "/>
<polygon clip-path="url(#clip2602)" points="
855.42,1006.01 855.42,1388.71 871.855,1388.71 871.855,1006.01 855.42,1006.01 855.42,1006.01 
  " fill="#009af9" fill-rule="evenodd" fill-opacity="1"/>
<polyline clip-path="url(#clip2602)" style="stroke:#000000; stroke-width:4; stroke-opacity:1; fill:none" points="
  855.42,1006.01 855.42,1388.71 871.855,1388.71 871.855,1006.01 855.42,1006.01 
  "/>
<polygon clip-path="url(#clip2602)" points="
871.855,1388.71 871.855,1388.71 888.29,1388.71 888.29,1388.71 871.855,1388.71 871.855,1388.71 
  " fill="#009af9" fill-rule="evenodd" fill-opacity="1"/>
<polyline clip-path="url(#clip2602)" style="stroke:#000000; stroke-width:4; stroke-opacity:1; fill:none" points="
  871.855,1388.71 871.855,1388.71 888.29,1388.71 871.855,1388.71 
  "/>
<polygon clip-path="url(#clip2602)" points="
888.29,1388.71 888.29,1388.71 904.725,1388.71 904.725,1388.71 888.29,1388.71 888.29,1388.71 
  " fill="#009af9" fill-rule="evenodd" fill-opacity="1"/>
<polyline clip-path="url(#clip2602)" style="stroke:#000000; stroke-width:4; stroke-opacity:1; fill:none" points="
  888.29,1388.71 888.29,1388.71 904.725,1388.71 888.29,1388.71 
  "/>
<polygon clip-path="url(#clip2602)" points="
904.725,664.302 904.725,1388.71 921.16,1388.71 921.16,664.302 904.725,664.302 904.725,664.302 
  " fill="#009af9" fill-rule="evenodd" fill-opacity="1"/>
<polyline clip-path="url(#clip2602)" style="stroke:#000000; stroke-width:4; stroke-opacity:1; fill:none" points="
  904.725,664.302 904.725,1388.71 921.16,1388.71 921.16,664.302 904.725,664.302 
  "/>
<polygon clip-path="url(#clip2602)" points="
921.16,1388.71 921.16,1388.71 937.595,1388.71 937.595,1388.71 921.16,1388.71 921.16,1388.71 
  " fill="#009af9" fill-rule="evenodd" fill-opacity="1"/>
<polyline clip-path="url(#clip2602)" style="stroke:#000000; stroke-width:4; stroke-opacity:1; fill:none" points="
  921.16,1388.71 921.16,1388.71 937.595,1388.71 921.16,1388.71 
  "/>
<polygon clip-path="url(#clip2602)" points="
937.595,1388.71 937.595,1388.71 954.03,1388.71 954.03,1388.71 937.595,1388.71 937.595,1388.71 
  " fill="#009af9" fill-rule="evenodd" fill-opacity="1"/>
<polyline clip-path="url(#clip2602)" style="stroke:#000000; stroke-width:4; stroke-opacity:1; fill:none" points="
  937.595,1388.71 937.595,1388.71 954.03,1388.71 937.595,1388.71 
  "/>
<polygon clip-path="url(#clip2602)" points="
954.03,158.579 954.03,1388.71 970.465,1388.71 970.465,158.579 954.03,158.579 954.03,158.579 
  " fill="#009af9" fill-rule="evenodd" fill-opacity="1"/>
<polyline clip-path="url(#clip2602)" style="stroke:#000000; stroke-width:4; stroke-opacity:1; fill:none" points="
  954.03,158.579 954.03,1388.71 970.465,1388.71 970.465,158.579 954.03,158.579 
  "/>
<polygon clip-path="url(#clip2602)" points="
970.465,1388.71 970.465,1388.71 986.9,1388.71 986.9,1388.71 970.465,1388.71 970.465,1388.71 
  " fill="#009af9" fill-rule="evenodd" fill-opacity="1"/>
<polyline clip-path="url(#clip2602)" style="stroke:#000000; stroke-width:4; stroke-opacity:1; fill:none" points="
  970.465,1388.71 970.465,1388.71 986.9,1388.71 970.465,1388.71 
  "/>
<polygon clip-path="url(#clip2602)" points="
986.9,1388.71 986.9,1388.71 1003.33,1388.71 1003.33,1388.71 986.9,1388.71 986.9,1388.71 
  " fill="#009af9" fill-rule="evenodd" fill-opacity="1"/>
<polyline clip-path="url(#clip2602)" style="stroke:#000000; stroke-width:4; stroke-opacity:1; fill:none" points="
  986.9,1388.71 986.9,1388.71 1003.33,1388.71 986.9,1388.71 
  "/>
<polygon clip-path="url(#clip2602)" points="
1003.33,1040.18 1003.33,1388.71 1019.77,1388.71 1019.77,1040.18 1003.33,1040.18 1003.33,1040.18 
  " fill="#009af9" fill-rule="evenodd" fill-opacity="1"/>
<polyline clip-path="url(#clip2602)" style="stroke:#000000; stroke-width:4; stroke-opacity:1; fill:none" points="
  1003.33,1040.18 1003.33,1388.71 1019.77,1388.71 1019.77,1040.18 1003.33,1040.18 
  "/>
<polygon clip-path="url(#clip2602)" points="
1019.77,1388.71 1019.77,1388.71 1036.2,1388.71 1036.2,1388.71 1019.77,1388.71 1019.77,1388.71 
  " fill="#009af9" fill-rule="evenodd" fill-opacity="1"/>
<polyline clip-path="url(#clip2602)" style="stroke:#000000; stroke-width:4; stroke-opacity:1; fill:none" points="
  1019.77,1388.71 1019.77,1388.71 1036.2,1388.71 1019.77,1388.71 
  "/>
<polygon clip-path="url(#clip2602)" points="
1036.2,1388.71 1036.2,1388.71 1052.64,1388.71 1052.64,1388.71 1036.2,1388.71 1036.2,1388.71 
  " fill="#009af9" fill-rule="evenodd" fill-opacity="1"/>
<polyline clip-path="url(#clip2602)" style="stroke:#000000; stroke-width:4; stroke-opacity:1; fill:none" points="
  1036.2,1388.71 1036.2,1388.71 1052.64,1388.71 1036.2,1388.71 
  "/>
<polygon clip-path="url(#clip2602)" points="
1052.64,705.306 1052.64,1388.71 1069.07,1388.71 1069.07,705.306 1052.64,705.306 1052.64,705.306 
  " fill="#009af9" fill-rule="evenodd" fill-opacity="1"/>
<polyline clip-path="url(#clip2602)" style="stroke:#000000; stroke-width:4; stroke-opacity:1; fill:none" points="
  1052.64,705.306 1052.64,1388.71 1069.07,1388.71 1069.07,705.306 1052.64,705.306 
  "/>
<polygon clip-path="url(#clip2602)" points="
1069.07,1388.71 1069.07,1388.71 1085.51,1388.71 1085.51,1388.71 1069.07,1388.71 1069.07,1388.71 
  " fill="#009af9" fill-rule="evenodd" fill-opacity="1"/>
<polyline clip-path="url(#clip2602)" style="stroke:#000000; stroke-width:4; stroke-opacity:1; fill:none" points="
  1069.07,1388.71 1069.07,1388.71 1085.51,1388.71 1069.07,1388.71 
  "/>
<polygon clip-path="url(#clip2602)" points="
1085.51,1388.71 1085.51,1388.71 1101.94,1388.71 1101.94,1388.71 1085.51,1388.71 1085.51,1388.71 
  " fill="#009af9" fill-rule="evenodd" fill-opacity="1"/>
<polyline clip-path="url(#clip2602)" style="stroke:#000000; stroke-width:4; stroke-opacity:1; fill:none" points="
  1085.51,1388.71 1085.51,1388.71 1101.94,1388.71 1085.51,1388.71 
  "/>
<polygon clip-path="url(#clip2602)" points="
1101.94,1204.19 1101.94,1388.71 1118.38,1388.71 1118.38,1204.19 1101.94,1204.19 1101.94,1204.19 
  " fill="#009af9" fill-rule="evenodd" fill-opacity="1"/>
<polyline clip-path="url(#clip2602)" style="stroke:#000000; stroke-width:4; stroke-opacity:1; fill:none" points="
  1101.94,1204.19 1101.94,1388.71 1118.38,1388.71 1118.38,1204.19 1101.94,1204.19 
  "/>
<polygon clip-path="url(#clip2602)" points="
1118.38,1388.71 1118.38,1388.71 1134.81,1388.71 1134.81,1388.71 1118.38,1388.71 1118.38,1388.71 
  " fill="#009af9" fill-rule="evenodd" fill-opacity="1"/>
<polyline clip-path="url(#clip2602)" style="stroke:#000000; stroke-width:4; stroke-opacity:1; fill:none" points="
  1118.38,1388.71 1118.38,1388.71 1134.81,1388.71 1118.38,1388.71 
  "/>
<polygon clip-path="url(#clip2602)" points="
1134.81,1388.71 1134.81,1388.71 1151.25,1388.71 1151.25,1388.71 1134.81,1388.71 1134.81,1388.71 
  " fill="#009af9" fill-rule="evenodd" fill-opacity="1"/>
<polyline clip-path="url(#clip2602)" style="stroke:#000000; stroke-width:4; stroke-opacity:1; fill:none" points="
  1134.81,1388.71 1134.81,1388.71 1151.25,1388.71 1134.81,1388.71 
  "/>
<polygon clip-path="url(#clip2602)" points="
1151.25,1388.71 1151.25,1388.71 1167.68,1388.71 1167.68,1388.71 1151.25,1388.71 1151.25,1388.71 
  " fill="#009af9" fill-rule="evenodd" fill-opacity="1"/>
<polyline clip-path="url(#clip2602)" style="stroke:#000000; stroke-width:4; stroke-opacity:1; fill:none" points="
  1151.25,1388.71 1151.25,1388.71 1167.68,1388.71 1151.25,1388.71 
  "/>
<polygon clip-path="url(#clip2602)" points="
1167.68,1375.05 1167.68,1388.71 1184.12,1388.71 1184.12,1375.05 1167.68,1375.05 1167.68,1375.05 
  " fill="#009af9" fill-rule="evenodd" fill-opacity="1"/>
<polyline clip-path="url(#clip2602)" style="stroke:#000000; stroke-width:4; stroke-opacity:1; fill:none" points="
  1167.68,1375.05 1167.68,1388.71 1184.12,1388.71 1184.12,1375.05 1167.68,1375.05 
  "/>
<polygon clip-path="url(#clip2602)" points="
345.938,1361.38 345.938,1388.71 428.113,1388.71 428.113,1361.38 345.938,1361.38 345.938,1361.38 
  " fill="#e26f46" fill-rule="evenodd" fill-opacity="1"/>
<polyline clip-path="url(#clip2602)" style="stroke:#000000; stroke-width:4; stroke-opacity:1; fill:none" points="
  345.938,1361.38 345.938,1388.71 428.113,1388.71 428.113,1361.38 345.938,1361.38 
  "/>
<polygon clip-path="url(#clip2602)" points="
428.113,1388.71 428.113,1388.71 510.287,1388.71 510.287,1388.71 428.113,1388.71 428.113,1388.71 
  " fill="#e26f46" fill-rule="evenodd" fill-opacity="1"/>
<polyline clip-path="url(#clip2602)" style="stroke:#000000; stroke-width:4; stroke-opacity:1; fill:none" points="
  428.113,1388.71 428.113,1388.71 510.287,1388.71 428.113,1388.71 
  "/>
<polygon clip-path="url(#clip2602)" points="
510.287,1252.03 510.287,1388.71 592.462,1388.71 592.462,1252.03 510.287,1252.03 510.287,1252.03 
  " fill="#e26f46" fill-rule="evenodd" fill-opacity="1"/>
<polyline clip-path="url(#clip2602)" style="stroke:#000000; stroke-width:4; stroke-opacity:1; fill:none" points="
  510.287,1252.03 510.287,1388.71 592.462,1388.71 592.462,1252.03 510.287,1252.03 
  "/>
<polygon clip-path="url(#clip2602)" points="
592.462,1135.85 592.462,1388.71 674.636,1388.71 674.636,1135.85 592.462,1135.85 592.462,1135.85 
  " fill="#e26f46" fill-rule="evenodd" fill-opacity="1"/>
<polyline clip-path="url(#clip2602)" style="stroke:#000000; stroke-width:4; stroke-opacity:1; fill:none" points="
  592.462,1135.85 592.462,1388.71 674.636,1388.71 674.636,1135.85 592.462,1135.85 
  "/>
<polygon clip-path="url(#clip2602)" points="
674.636,1340.88 674.636,1388.71 756.811,1388.71 756.811,1340.88 674.636,1340.88 674.636,1340.88 
  " fill="#e26f46" fill-rule="evenodd" fill-opacity="1"/>
<polyline clip-path="url(#clip2602)" style="stroke:#000000; stroke-width:4; stroke-opacity:1; fill:none" points="
  674.636,1340.88 674.636,1388.71 756.811,1388.71 756.811,1340.88 674.636,1340.88 
  "/>
<polygon clip-path="url(#clip2602)" points="
756.811,766.813 756.811,1388.71 838.986,1388.71 838.986,766.813 756.811,766.813 756.811,766.813 
  " fill="#e26f46" fill-rule="evenodd" fill-opacity="1"/>
<polyline clip-path="url(#clip2602)" style="stroke:#000000; stroke-width:4; stroke-opacity:1; fill:none" points="
  756.811,766.813 756.811,1388.71 838.986,1388.71 838.986,766.813 756.811,766.813 
  "/>
<polygon clip-path="url(#clip2602)" points="
838.986,923.997 838.986,1388.71 921.16,1388.71 921.16,923.997 838.986,923.997 838.986,923.997 
  " fill="#e26f46" fill-rule="evenodd" fill-opacity="1"/>
<polyline clip-path="url(#clip2602)" style="stroke:#000000; stroke-width:4; stroke-opacity:1; fill:none" points="
  838.986,923.997 838.986,1388.71 921.16,1388.71 921.16,923.997 838.986,923.997 
  "/>
<polygon clip-path="url(#clip2602)" points="
921.16,630.131 921.16,1388.71 1003.33,1388.71 1003.33,630.131 921.16,630.131 921.16,630.131 
  " fill="#e26f46" fill-rule="evenodd" fill-opacity="1"/>
<polyline clip-path="url(#clip2602)" style="stroke:#000000; stroke-width:4; stroke-opacity:1; fill:none" points="
  921.16,630.131 921.16,1388.71 1003.33,1388.71 1003.33,630.131 921.16,630.131 
  "/>
<polygon clip-path="url(#clip2602)" points="
1003.33,951.333 1003.33,1388.71 1085.51,1388.71 1085.51,951.333 1003.33,951.333 1003.33,951.333 
  " fill="#e26f46" fill-rule="evenodd" fill-opacity="1"/>
<polyline clip-path="url(#clip2602)" style="stroke:#000000; stroke-width:4; stroke-opacity:1; fill:none" points="
  1003.33,951.333 1003.33,1388.71 1085.51,1388.71 1085.51,951.333 1003.33,951.333 
  "/>
<polygon clip-path="url(#clip2602)" points="
1085.51,1381.88 1085.51,1388.71 1167.68,1388.71 1167.68,1381.88 1085.51,1381.88 1085.51,1381.88 
  " fill="#e26f46" fill-rule="evenodd" fill-opacity="1"/>
<polyline clip-path="url(#clip2602)" style="stroke:#000000; stroke-width:4; stroke-opacity:1; fill:none" points="
  1085.51,1381.88 1085.51,1388.71 1167.68,1388.71 1167.68,1381.88 1085.51,1381.88 
  "/>
<polygon clip-path="url(#clip2602)" points="
1167.68,876.158 1167.68,1388.71 1249.86,1388.71 1249.86,876.158 1167.68,876.158 1167.68,876.158 
  " fill="#e26f46" fill-rule="evenodd" fill-opacity="1"/>
<polyline clip-path="url(#clip2602)" style="stroke:#000000; stroke-width:4; stroke-opacity:1; fill:none" points="
  1167.68,876.158 1167.68,1388.71 1249.86,1388.71 1249.86,876.158 1167.68,876.158 
  "/>
<polygon clip-path="url(#clip2602)" points="
1249.86,1347.71 1249.86,1388.71 1332.03,1388.71 1332.03,1347.71 1249.86,1347.71 1249.86,1347.71 
  " fill="#e26f46" fill-rule="evenodd" fill-opacity="1"/>
<polyline clip-path="url(#clip2602)" style="stroke:#000000; stroke-width:4; stroke-opacity:1; fill:none" points="
  1249.86,1347.71 1249.86,1388.71 1332.03,1388.71 1332.03,1347.71 1249.86,1347.71 
  "/>
<polygon clip-path="url(#clip2602)" points="
1332.03,1142.69 1332.03,1388.71 1414.21,1388.71 1414.21,1142.69 1332.03,1142.69 1332.03,1142.69 
  " fill="#e26f46" fill-rule="evenodd" fill-opacity="1"/>
<polyline clip-path="url(#clip2602)" style="stroke:#000000; stroke-width:4; stroke-opacity:1; fill:none" points="
  1332.03,1142.69 1332.03,1388.71 1414.21,1388.71 1414.21,1142.69 1332.03,1142.69 
  "/>
<polygon clip-path="url(#clip2602)" points="
1414.21,1368.21 1414.21,1388.71 1496.38,1388.71 1496.38,1368.21 1414.21,1368.21 1414.21,1368.21 
  " fill="#e26f46" fill-rule="evenodd" fill-opacity="1"/>
<polyline clip-path="url(#clip2602)" style="stroke:#000000; stroke-width:4; stroke-opacity:1; fill:none" points="
  1414.21,1368.21 1414.21,1388.71 1496.38,1388.71 1496.38,1368.21 1414.21,1368.21 
  "/>
<polygon clip-path="url(#clip2602)" points="
1496.38,1388.71 1496.38,1388.71 1578.56,1388.71 1578.56,1388.71 1496.38,1388.71 1496.38,1388.71 
  " fill="#e26f46" fill-rule="evenodd" fill-opacity="1"/>
<polyline clip-path="url(#clip2602)" style="stroke:#000000; stroke-width:4; stroke-opacity:1; fill:none" points="
  1496.38,1388.71 1496.38,1388.71 1578.56,1388.71 1496.38,1388.71 
  "/>
<polygon clip-path="url(#clip2602)" points="
1578.56,1258.87 1578.56,1388.71 1660.73,1388.71 1660.73,1258.87 1578.56,1258.87 1578.56,1258.87 
  " fill="#e26f46" fill-rule="evenodd" fill-opacity="1"/>
<polyline clip-path="url(#clip2602)" style="stroke:#000000; stroke-width:4; stroke-opacity:1; fill:none" points="
  1578.56,1258.87 1578.56,1388.71 1660.73,1388.71 1660.73,1258.87 1578.56,1258.87 
  "/>
<polygon clip-path="url(#clip2602)" points="
1660.73,1381.88 1660.73,1388.71 1742.91,1388.71 1742.91,1381.88 1660.73,1381.88 1660.73,1381.88 
  " fill="#e26f46" fill-rule="evenodd" fill-opacity="1"/>
<polyline clip-path="url(#clip2602)" style="stroke:#000000; stroke-width:4; stroke-opacity:1; fill:none" points="
  1660.73,1381.88 1660.73,1388.71 1742.91,1388.71 1742.91,1381.88 1660.73,1381.88 
  "/>
<polygon clip-path="url(#clip2602)" points="
1742.91,1347.71 1742.91,1388.71 1825.08,1388.71 1825.08,1347.71 1742.91,1347.71 1742.91,1347.71 
  " fill="#e26f46" fill-rule="evenodd" fill-opacity="1"/>
<polyline clip-path="url(#clip2602)" style="stroke:#000000; stroke-width:4; stroke-opacity:1; fill:none" points="
  1742.91,1347.71 1742.91,1388.71 1825.08,1388.71 1825.08,1347.71 1742.91,1347.71 
  "/>
<polygon clip-path="url(#clip2602)" points="
1825.08,1388.71 1825.08,1388.71 1907.25,1388.71 1907.25,1388.71 1825.08,1388.71 1825.08,1388.71 
  " fill="#e26f46" fill-rule="evenodd" fill-opacity="1"/>
<polyline clip-path="url(#clip2602)" style="stroke:#000000; stroke-width:4; stroke-opacity:1; fill:none" points="
  1825.08,1388.71 1825.08,1388.71 1907.25,1388.71 1825.08,1388.71 
  "/>
<polygon clip-path="url(#clip2602)" points="
1907.25,1388.71 1907.25,1388.71 1989.43,1388.71 1989.43,1388.71 1907.25,1388.71 1907.25,1388.71 
  " fill="#e26f46" fill-rule="evenodd" fill-opacity="1"/>
<polyline clip-path="url(#clip2602)" style="stroke:#000000; stroke-width:4; stroke-opacity:1; fill:none" points="
  1907.25,1388.71 1907.25,1388.71 1989.43,1388.71 1907.25,1388.71 
  "/>
<polygon clip-path="url(#clip2602)" points="
1989.43,1375.05 1989.43,1388.71 2071.6,1388.71 2071.6,1375.05 1989.43,1375.05 1989.43,1375.05 
  " fill="#e26f46" fill-rule="evenodd" fill-opacity="1"/>
<polyline clip-path="url(#clip2602)" style="stroke:#000000; stroke-width:4; stroke-opacity:1; fill:none" points="
  1989.43,1375.05 1989.43,1388.71 2071.6,1388.71 2071.6,1375.05 1989.43,1375.05 
  "/>
<polygon clip-path="url(#clip2602)" points="
2071.6,1388.71 2071.6,1388.71 2153.78,1388.71 2153.78,1388.71 2071.6,1388.71 2071.6,1388.71 
  " fill="#e26f46" fill-rule="evenodd" fill-opacity="1"/>
<polyline clip-path="url(#clip2602)" style="stroke:#000000; stroke-width:4; stroke-opacity:1; fill:none" points="
  2071.6,1388.71 2071.6,1388.71 2153.78,1388.71 2071.6,1388.71 
  "/>
<polygon clip-path="url(#clip2602)" points="
2153.78,1368.21 2153.78,1388.71 2235.95,1388.71 2235.95,1368.21 2153.78,1368.21 2153.78,1368.21 
  " fill="#e26f46" fill-rule="evenodd" fill-opacity="1"/>
<polyline clip-path="url(#clip2602)" style="stroke:#000000; stroke-width:4; stroke-opacity:1; fill:none" points="
  2153.78,1368.21 2153.78,1388.71 2235.95,1388.71 2235.95,1368.21 2153.78,1368.21 
  "/>
<polygon clip-path="url(#clip2600)" points="
1650.15,386.635 2280.76,386.635 2280.76,205.195 1650.15,205.195 
  " fill="#ffffff" fill-rule="evenodd" fill-opacity="1"/>
<polyline clip-path="url(#clip2600)" style="stroke:#000000; stroke-width:4; stroke-opacity:1; fill:none" points="
  1650.15,386.635 2280.76,386.635 2280.76,205.195 1650.15,205.195 1650.15,386.635 
  "/>
<polygon clip-path="url(#clip2600)" points="
1674.15,289.867 1818.15,289.867 1818.15,241.483 1674.15,241.483 1674.15,289.867 
  " fill="#009af9" fill-rule="evenodd" fill-opacity="1"/>
<polyline clip-path="url(#clip2600)" style="stroke:#000000; stroke-width:4; stroke-opacity:1; fill:none" points="
  1674.15,289.867 1818.15,289.867 1818.15,241.483 1674.15,241.483 1674.15,289.867 
  "/>
<g clip-path="url(#clip2600)">
<text style="fill:#000000; fill-opacity:1; font-family:Arial,Helvetica Neue,Helvetica,sans-serif; font-size:48px; text-anchor:start;" transform="rotate(0, 1842.15, 283.175)" x="1842.15" y="283.175">Predicted T4 dose</text>
</g>
<polygon clip-path="url(#clip2600)" points="
1674.15,350.347 1818.15,350.347 1818.15,301.963 1674.15,301.963 1674.15,350.347 
  " fill="#e26f46" fill-rule="evenodd" fill-opacity="1"/>
<polyline clip-path="url(#clip2600)" style="stroke:#000000; stroke-width:4; stroke-opacity:1; fill:none" points="
  1674.15,350.347 1818.15,350.347 1818.15,301.963 1674.15,301.963 1674.15,350.347 
  "/>
<g clip-path="url(#clip2600)">
<text style="fill:#000000; fill-opacity:1; font-family:Arial,Helvetica Neue,Helvetica,sans-serif; font-size:48px; text-anchor:start;" transform="rotate(0, 1842.15, 343.655)" x="1842.15" y="343.655">Actual T4 dose</text>
</g>
</svg>
