<?xml version="1.0" encoding="utf-8"?>
<svg xmlns="http://www.w3.org/2000/svg" xmlns:xlink="http://www.w3.org/1999/xlink" width="600" height="400" viewBox="0 0 2400 1600">
<defs>
  <clipPath id="clip4400">
    <rect x="0" y="0" width="2400" height="1600"/>
  </clipPath>
</defs>
<path clip-path="url(#clip4400)" d="
M0 1600 L2400 1600 L2400 0 L0 0  Z
  " fill="#ffffff" fill-rule="evenodd" fill-opacity="1"/>
<defs>
  <clipPath id="clip4401">
    <rect x="480" y="0" width="1681" height="1600"/>
  </clipPath>
</defs>
<path clip-path="url(#clip4400)" d="
M202.373 1425.62 L2352.76 1425.62 L2352.76 121.675 L202.373 121.675  Z
  " fill="#ffffff" fill-rule="evenodd" fill-opacity="1"/>
<defs>
  <clipPath id="clip4402">
    <rect x="202" y="121" width="2151" height="1305"/>
  </clipPath>
</defs>
<polyline clip-path="url(#clip4402)" style="stroke:#000000; stroke-width:2; stroke-opacity:0.1; fill:none" points="
  473.754,1425.62 473.754,121.675 
  "/>
<polyline clip-path="url(#clip4402)" style="stroke:#000000; stroke-width:2; stroke-opacity:0.1; fill:none" points="
  856.521,1425.62 856.521,121.675 
  "/>
<polyline clip-path="url(#clip4402)" style="stroke:#000000; stroke-width:2; stroke-opacity:0.1; fill:none" points="
  1239.29,1425.62 1239.29,121.675 
  "/>
<polyline clip-path="url(#clip4402)" style="stroke:#000000; stroke-width:2; stroke-opacity:0.1; fill:none" points="
  1622.05,1425.62 1622.05,121.675 
  "/>
<polyline clip-path="url(#clip4402)" style="stroke:#000000; stroke-width:2; stroke-opacity:0.1; fill:none" points="
  2004.82,1425.62 2004.82,121.675 
  "/>
<polyline clip-path="url(#clip4402)" style="stroke:#000000; stroke-width:2; stroke-opacity:0.1; fill:none" points="
  202.373,1388.71 2352.76,1388.71 
  "/>
<polyline clip-path="url(#clip4402)" style="stroke:#000000; stroke-width:2; stroke-opacity:0.1; fill:none" points="
  202.373,1115.35 2352.76,1115.35 
  "/>
<polyline clip-path="url(#clip4402)" style="stroke:#000000; stroke-width:2; stroke-opacity:0.1; fill:none" points="
  202.373,841.988 2352.76,841.988 
  "/>
<polyline clip-path="url(#clip4402)" style="stroke:#000000; stroke-width:2; stroke-opacity:0.1; fill:none" points="
  202.373,568.624 2352.76,568.624 
  "/>
<polyline clip-path="url(#clip4402)" style="stroke:#000000; stroke-width:2; stroke-opacity:0.1; fill:none" points="
  202.373,295.261 2352.76,295.261 
  "/>
<polyline clip-path="url(#clip4400)" style="stroke:#000000; stroke-width:4; stroke-opacity:1; fill:none" points="
  202.373,1425.62 2352.76,1425.62 
  "/>
<polyline clip-path="url(#clip4400)" style="stroke:#000000; stroke-width:4; stroke-opacity:1; fill:none" points="
  202.373,1425.62 202.373,121.675 
  "/>
<polyline clip-path="url(#clip4400)" style="stroke:#000000; stroke-width:4; stroke-opacity:1; fill:none" points="
  473.754,1425.62 473.754,1409.97 
  "/>
<polyline clip-path="url(#clip4400)" style="stroke:#000000; stroke-width:4; stroke-opacity:1; fill:none" points="
  856.521,1425.62 856.521,1409.97 
  "/>
<polyline clip-path="url(#clip4400)" style="stroke:#000000; stroke-width:4; stroke-opacity:1; fill:none" points="
  1239.29,1425.62 1239.29,1409.97 
  "/>
<polyline clip-path="url(#clip4400)" style="stroke:#000000; stroke-width:4; stroke-opacity:1; fill:none" points="
  1622.05,1425.62 1622.05,1409.97 
  "/>
<polyline clip-path="url(#clip4400)" style="stroke:#000000; stroke-width:4; stroke-opacity:1; fill:none" points="
  2004.82,1425.62 2004.82,1409.97 
  "/>
<polyline clip-path="url(#clip4400)" style="stroke:#000000; stroke-width:4; stroke-opacity:1; fill:none" points="
  202.373,1388.71 228.178,1388.71 
  "/>
<polyline clip-path="url(#clip4400)" style="stroke:#000000; stroke-width:4; stroke-opacity:1; fill:none" points="
  202.373,1115.35 228.178,1115.35 
  "/>
<polyline clip-path="url(#clip4400)" style="stroke:#000000; stroke-width:4; stroke-opacity:1; fill:none" points="
  202.373,841.988 228.178,841.988 
  "/>
<polyline clip-path="url(#clip4400)" style="stroke:#000000; stroke-width:4; stroke-opacity:1; fill:none" points="
  202.373,568.624 228.178,568.624 
  "/>
<polyline clip-path="url(#clip4400)" style="stroke:#000000; stroke-width:4; stroke-opacity:1; fill:none" points="
  202.373,295.261 228.178,295.261 
  "/>
<g clip-path="url(#clip4400)">
<text style="fill:#000000; fill-opacity:1; font-family:Arial,Helvetica Neue,Helvetica,sans-serif; font-size:48px; text-anchor:middle;" transform="rotate(0, 473.754, 1479.62)" x="473.754" y="1479.62">1</text>
</g>
<g clip-path="url(#clip4400)">
<text style="fill:#000000; fill-opacity:1; font-family:Arial,Helvetica Neue,Helvetica,sans-serif; font-size:48px; text-anchor:middle;" transform="rotate(0, 856.521, 1479.62)" x="856.521" y="1479.62">2</text>
</g>
<g clip-path="url(#clip4400)">
<text style="fill:#000000; fill-opacity:1; font-family:Arial,Helvetica Neue,Helvetica,sans-serif; font-size:48px; text-anchor:middle;" transform="rotate(0, 1239.29, 1479.62)" x="1239.29" y="1479.62">3</text>
</g>
<g clip-path="url(#clip4400)">
<text style="fill:#000000; fill-opacity:1; font-family:Arial,Helvetica Neue,Helvetica,sans-serif; font-size:48px; text-anchor:middle;" transform="rotate(0, 1622.05, 1479.62)" x="1622.05" y="1479.62">4</text>
</g>
<g clip-path="url(#clip4400)">
<text style="fill:#000000; fill-opacity:1; font-family:Arial,Helvetica Neue,Helvetica,sans-serif; font-size:48px; text-anchor:middle;" transform="rotate(0, 2004.82, 1479.62)" x="2004.82" y="1479.62">5</text>
</g>
<g clip-path="url(#clip4400)">
<text style="fill:#000000; fill-opacity:1; font-family:Arial,Helvetica Neue,Helvetica,sans-serif; font-size:48px; text-anchor:end;" transform="rotate(0, 178.373, 1406.21)" x="178.373" y="1406.21">0</text>
</g>
<g clip-path="url(#clip4400)">
<text style="fill:#000000; fill-opacity:1; font-family:Arial,Helvetica Neue,Helvetica,sans-serif; font-size:48px; text-anchor:end;" transform="rotate(0, 178.373, 1132.85)" x="178.373" y="1132.85">20</text>
</g>
<g clip-path="url(#clip4400)">
<text style="fill:#000000; fill-opacity:1; font-family:Arial,Helvetica Neue,Helvetica,sans-serif; font-size:48px; text-anchor:end;" transform="rotate(0, 178.373, 859.488)" x="178.373" y="859.488">40</text>
</g>
<g clip-path="url(#clip4400)">
<text style="fill:#000000; fill-opacity:1; font-family:Arial,Helvetica Neue,Helvetica,sans-serif; font-size:48px; text-anchor:end;" transform="rotate(0, 178.373, 586.124)" x="178.373" y="586.124">60</text>
</g>
<g clip-path="url(#clip4400)">
<text style="fill:#000000; fill-opacity:1; font-family:Arial,Helvetica Neue,Helvetica,sans-serif; font-size:48px; text-anchor:end;" transform="rotate(0, 178.373, 312.761)" x="178.373" y="312.761">80</text>
</g>
<g clip-path="url(#clip4400)">
<text style="fill:#000000; fill-opacity:1; font-family:Arial,Helvetica Neue,Helvetica,sans-serif; font-size:84px; text-anchor:middle;" transform="rotate(0, 1277.56, 73.2)" x="1277.56" y="73.2">All patients (n = 598)</text>
</g>
<g clip-path="url(#clip4400)">
<text style="fill:#000000; fill-opacity:1; font-family:Arial,Helvetica Neue,Helvetica,sans-serif; font-size:66px; text-anchor:middle;" transform="rotate(0, 1277.56, 1559.48)" x="1277.56" y="1559.48">ug/kg</text>
</g>
<g clip-path="url(#clip4400)">
<text style="fill:#000000; fill-opacity:1; font-family:Arial,Helvetica Neue,Helvetica,sans-serif; font-size:66px; text-anchor:middle;" transform="rotate(-90, 89.2861, 773.647)" x="89.2861" y="773.647">count</text>
</g>
<path clip-path="url(#clip4402)" d="
M320.648 1361.38 L320.648 1388.71 L358.924 1388.71 L358.924 1361.38 L320.648 1361.38 L320.648 1361.38  Z
  " fill="#009af9" fill-rule="evenodd" fill-opacity="1"/>
<polyline clip-path="url(#clip4402)" style="stroke:#000000; stroke-width:4; stroke-opacity:1; fill:none" points="
  320.648,1361.38 320.648,1388.71 358.924,1388.71 358.924,1361.38 320.648,1361.38 
  "/>
<path clip-path="url(#clip4402)" d="
M358.924 1334.04 L358.924 1388.71 L397.201 1388.71 L397.201 1334.04 L358.924 1334.04 L358.924 1334.04  Z
  " fill="#009af9" fill-rule="evenodd" fill-opacity="1"/>
<polyline clip-path="url(#clip4402)" style="stroke:#000000; stroke-width:4; stroke-opacity:1; fill:none" points="
  358.924,1334.04 358.924,1388.71 397.201,1388.71 397.201,1334.04 358.924,1334.04 
  "/>
<path clip-path="url(#clip4402)" d="
M397.201 1252.03 L397.201 1388.71 L435.478 1388.71 L435.478 1252.03 L397.201 1252.03 L397.201 1252.03  Z
  " fill="#009af9" fill-rule="evenodd" fill-opacity="1"/>
<polyline clip-path="url(#clip4402)" style="stroke:#000000; stroke-width:4; stroke-opacity:1; fill:none" points="
  397.201,1252.03 397.201,1388.71 435.478,1388.71 435.478,1252.03 397.201,1252.03 
  "/>
<path clip-path="url(#clip4402)" d="
M435.478 1211.03 L435.478 1388.71 L473.754 1388.71 L473.754 1211.03 L435.478 1211.03 L435.478 1211.03  Z
  " fill="#009af9" fill-rule="evenodd" fill-opacity="1"/>
<polyline clip-path="url(#clip4402)" style="stroke:#000000; stroke-width:4; stroke-opacity:1; fill:none" points="
  435.478,1211.03 435.478,1388.71 473.754,1388.71 473.754,1211.03 435.478,1211.03 
  "/>
<path clip-path="url(#clip4402)" d="
M473.754 1088.01 L473.754 1388.71 L512.031 1388.71 L512.031 1088.01 L473.754 1088.01 L473.754 1088.01  Z
  " fill="#009af9" fill-rule="evenodd" fill-opacity="1"/>
<polyline clip-path="url(#clip4402)" style="stroke:#000000; stroke-width:4; stroke-opacity:1; fill:none" points="
  473.754,1088.01 473.754,1388.71 512.031,1388.71 512.031,1088.01 473.754,1088.01 
  "/>
<path clip-path="url(#clip4402)" d="
M512.031 664.302 L512.031 1388.71 L550.308 1388.71 L550.308 664.302 L512.031 664.302 L512.031 664.302  Z
  " fill="#009af9" fill-rule="evenodd" fill-opacity="1"/>
<polyline clip-path="url(#clip4402)" style="stroke:#000000; stroke-width:4; stroke-opacity:1; fill:none" points="
  512.031,664.302 512.031,1388.71 550.308,1388.71 550.308,664.302 512.031,664.302 
  "/>
<path clip-path="url(#clip4402)" d="
M550.308 472.947 L550.308 1388.71 L588.584 1388.71 L588.584 472.947 L550.308 472.947 L550.308 472.947  Z
  " fill="#009af9" fill-rule="evenodd" fill-opacity="1"/>
<polyline clip-path="url(#clip4402)" style="stroke:#000000; stroke-width:4; stroke-opacity:1; fill:none" points="
  550.308,472.947 550.308,1388.71 588.584,1388.71 588.584,472.947 550.308,472.947 
  "/>
<path clip-path="url(#clip4402)" d="
M588.584 322.597 L588.584 1388.71 L626.861 1388.71 L626.861 322.597 L588.584 322.597 L588.584 322.597  Z
  " fill="#009af9" fill-rule="evenodd" fill-opacity="1"/>
<polyline clip-path="url(#clip4402)" style="stroke:#000000; stroke-width:4; stroke-opacity:1; fill:none" points="
  588.584,322.597 588.584,1388.71 626.861,1388.71 626.861,322.597 588.584,322.597 
  "/>
<path clip-path="url(#clip4402)" d="
M626.861 158.579 L626.861 1388.71 L665.138 1388.71 L665.138 158.579 L626.861 158.579 L626.861 158.579  Z
  " fill="#009af9" fill-rule="evenodd" fill-opacity="1"/>
<polyline clip-path="url(#clip4402)" style="stroke:#000000; stroke-width:4; stroke-opacity:1; fill:none" points="
  626.861,158.579 626.861,1388.71 665.138,1388.71 665.138,158.579 626.861,158.579 
  "/>
<path clip-path="url(#clip4402)" d="
M665.138 418.274 L665.138 1388.71 L703.414 1388.71 L703.414 418.274 L665.138 418.274 L665.138 418.274  Z
  " fill="#009af9" fill-rule="evenodd" fill-opacity="1"/>
<polyline clip-path="url(#clip4402)" style="stroke:#000000; stroke-width:4; stroke-opacity:1; fill:none" points="
  665.138,418.274 665.138,1388.71 703.414,1388.71 703.414,418.274 665.138,418.274 
  "/>
<path clip-path="url(#clip4402)" d="
M703.414 636.965 L703.414 1388.71 L741.691 1388.71 L741.691 636.965 L703.414 636.965 L703.414 636.965  Z
  " fill="#009af9" fill-rule="evenodd" fill-opacity="1"/>
<polyline clip-path="url(#clip4402)" style="stroke:#000000; stroke-width:4; stroke-opacity:1; fill:none" points="
  703.414,636.965 703.414,1388.71 741.691,1388.71 741.691,636.965 703.414,636.965 
  "/>
<path clip-path="url(#clip4402)" d="
M741.691 691.638 L741.691 1388.71 L779.968 1388.71 L779.968 691.638 L741.691 691.638 L741.691 691.638  Z
  " fill="#009af9" fill-rule="evenodd" fill-opacity="1"/>
<polyline clip-path="url(#clip4402)" style="stroke:#000000; stroke-width:4; stroke-opacity:1; fill:none" points="
  741.691,691.638 741.691,1388.71 779.968,1388.71 779.968,691.638 741.691,691.638 
  "/>
<path clip-path="url(#clip4402)" d="
M779.968 1019.67 L779.968 1388.71 L818.244 1388.71 L818.244 1019.67 L779.968 1019.67 L779.968 1019.67  Z
  " fill="#009af9" fill-rule="evenodd" fill-opacity="1"/>
<polyline clip-path="url(#clip4402)" style="stroke:#000000; stroke-width:4; stroke-opacity:1; fill:none" points="
  779.968,1019.67 779.968,1388.71 818.244,1388.71 818.244,1019.67 779.968,1019.67 
  "/>
<path clip-path="url(#clip4402)" d="
M818.244 1129.02 L818.244 1388.71 L856.521 1388.71 L856.521 1129.02 L818.244 1129.02 L818.244 1129.02  Z
  " fill="#009af9" fill-rule="evenodd" fill-opacity="1"/>
<polyline clip-path="url(#clip4402)" style="stroke:#000000; stroke-width:4; stroke-opacity:1; fill:none" points="
  818.244,1129.02 818.244,1388.71 856.521,1388.71 856.521,1129.02 818.244,1129.02 
  "/>
<path clip-path="url(#clip4402)" d="
M856.521 1183.69 L856.521 1388.71 L894.798 1388.71 L894.798 1183.69 L856.521 1183.69 L856.521 1183.69  Z
  " fill="#009af9" fill-rule="evenodd" fill-opacity="1"/>
<polyline clip-path="url(#clip4402)" style="stroke:#000000; stroke-width:4; stroke-opacity:1; fill:none" points="
  856.521,1183.69 856.521,1388.71 894.798,1388.71 894.798,1183.69 856.521,1183.69 
  "/>
<path clip-path="url(#clip4402)" d="
M894.798 1211.03 L894.798 1388.71 L933.074 1388.71 L933.074 1211.03 L894.798 1211.03 L894.798 1211.03  Z
  " fill="#009af9" fill-rule="evenodd" fill-opacity="1"/>
<polyline clip-path="url(#clip4402)" style="stroke:#000000; stroke-width:4; stroke-opacity:1; fill:none" points="
  894.798,1211.03 894.798,1388.71 933.074,1388.71 933.074,1211.03 894.798,1211.03 
  "/>
<path clip-path="url(#clip4402)" d="
M933.074 1334.04 L933.074 1388.71 L971.351 1388.71 L971.351 1334.04 L933.074 1334.04 L933.074 1334.04  Z
  " fill="#009af9" fill-rule="evenodd" fill-opacity="1"/>
<polyline clip-path="url(#clip4402)" style="stroke:#000000; stroke-width:4; stroke-opacity:1; fill:none" points="
  933.074,1334.04 933.074,1388.71 971.351,1388.71 971.351,1334.04 933.074,1334.04 
  "/>
<path clip-path="url(#clip4402)" d="
M971.351 1388.71 L971.351 1388.71 L1009.63 1388.71 L1009.63 1388.71 L971.351 1388.71 L971.351 1388.71  Z
  " fill="#009af9" fill-rule="evenodd" fill-opacity="1"/>
<polyline clip-path="url(#clip4402)" style="stroke:#000000; stroke-width:4; stroke-opacity:1; fill:none" points="
  971.351,1388.71 971.351,1388.71 1009.63,1388.71 971.351,1388.71 
  "/>
<path clip-path="url(#clip4402)" d="
M1009.63 1361.38 L1009.63 1388.71 L1047.9 1388.71 L1047.9 1361.38 L1009.63 1361.38 L1009.63 1361.38  Z
  " fill="#009af9" fill-rule="evenodd" fill-opacity="1"/>
<polyline clip-path="url(#clip4402)" style="stroke:#000000; stroke-width:4; stroke-opacity:1; fill:none" points="
  1009.63,1361.38 1009.63,1388.71 1047.9,1388.71 1047.9,1361.38 1009.63,1361.38 
  "/>
<path clip-path="url(#clip4402)" d="
M1047.9 1388.71 L1047.9 1388.71 L1086.18 1388.71 L1086.18 1388.71 L1047.9 1388.71 L1047.9 1388.71  Z
  " fill="#009af9" fill-rule="evenodd" fill-opacity="1"/>
<polyline clip-path="url(#clip4402)" style="stroke:#000000; stroke-width:4; stroke-opacity:1; fill:none" points="
  1047.9,1388.71 1047.9,1388.71 1086.18,1388.71 1047.9,1388.71 
  "/>
<path clip-path="url(#clip4402)" d="
M1086.18 1375.05 L1086.18 1388.71 L1124.46 1388.71 L1124.46 1375.05 L1086.18 1375.05 L1086.18 1375.05  Z
  " fill="#009af9" fill-rule="evenodd" fill-opacity="1"/>
<polyline clip-path="url(#clip4402)" style="stroke:#000000; stroke-width:4; stroke-opacity:1; fill:none" points="
  1086.18,1375.05 1086.18,1388.71 1124.46,1388.71 1124.46,1375.05 1086.18,1375.05 
  "/>
<path clip-path="url(#clip4402)" d="
M1124.46 1388.71 L1124.46 1388.71 L1162.73 1388.71 L1162.73 1388.71 L1124.46 1388.71 L1124.46 1388.71  Z
  " fill="#009af9" fill-rule="evenodd" fill-opacity="1"/>
<polyline clip-path="url(#clip4402)" style="stroke:#000000; stroke-width:4; stroke-opacity:1; fill:none" points="
  1124.46,1388.71 1124.46,1388.71 1162.73,1388.71 1124.46,1388.71 
  "/>
<path clip-path="url(#clip4402)" d="
M1162.73 1388.71 L1162.73 1388.71 L1201.01 1388.71 L1201.01 1388.71 L1162.73 1388.71 L1162.73 1388.71  Z
  " fill="#009af9" fill-rule="evenodd" fill-opacity="1"/>
<polyline clip-path="url(#clip4402)" style="stroke:#000000; stroke-width:4; stroke-opacity:1; fill:none" points="
  1162.73,1388.71 1162.73,1388.71 1201.01,1388.71 1162.73,1388.71 
  "/>
<path clip-path="url(#clip4402)" d="
M1201.01 1375.05 L1201.01 1388.71 L1239.29 1388.71 L1239.29 1375.05 L1201.01 1375.05 L1201.01 1375.05  Z
  " fill="#009af9" fill-rule="evenodd" fill-opacity="1"/>
<polyline clip-path="url(#clip4402)" style="stroke:#000000; stroke-width:4; stroke-opacity:1; fill:none" points="
  1201.01,1375.05 1201.01,1388.71 1239.29,1388.71 1239.29,1375.05 1201.01,1375.05 
  "/>
<path clip-path="url(#clip4402)" d="
M320.648 1361.38 L320.648 1388.71 L358.924 1388.71 L358.924 1361.38 L320.648 1361.38 L320.648 1361.38  Z
  " fill="#e26f46" fill-rule="evenodd" fill-opacity="0.8"/>
<polyline clip-path="url(#clip4402)" style="stroke:#000000; stroke-width:4; stroke-opacity:0.8; fill:none" points="
  320.648,1361.38 320.648,1388.71 358.924,1388.71 358.924,1361.38 320.648,1361.38 
  "/>
<path clip-path="url(#clip4402)" d="
M358.924 1293.04 L358.924 1388.71 L397.201 1388.71 L397.201 1293.04 L358.924 1293.04 L358.924 1293.04  Z
  " fill="#e26f46" fill-rule="evenodd" fill-opacity="0.8"/>
<polyline clip-path="url(#clip4402)" style="stroke:#000000; stroke-width:4; stroke-opacity:0.8; fill:none" points="
  358.924,1293.04 358.924,1388.71 397.201,1388.71 397.201,1293.04 358.924,1293.04 
  "/>
<path clip-path="url(#clip4402)" d="
M397.201 1279.37 L397.201 1388.71 L435.478 1388.71 L435.478 1279.37 L397.201 1279.37 L397.201 1279.37  Z
  " fill="#e26f46" fill-rule="evenodd" fill-opacity="0.8"/>
<polyline clip-path="url(#clip4402)" style="stroke:#000000; stroke-width:4; stroke-opacity:0.8; fill:none" points="
  397.201,1279.37 397.201,1388.71 435.478,1388.71 435.478,1279.37 397.201,1279.37 
  "/>
<path clip-path="url(#clip4402)" d="
M435.478 1224.7 L435.478 1388.71 L473.754 1388.71 L473.754 1224.7 L435.478 1224.7 L435.478 1224.7  Z
  " fill="#e26f46" fill-rule="evenodd" fill-opacity="0.8"/>
<polyline clip-path="url(#clip4402)" style="stroke:#000000; stroke-width:4; stroke-opacity:0.8; fill:none" points="
  435.478,1224.7 435.478,1388.71 473.754,1388.71 473.754,1224.7 435.478,1224.7 
  "/>
<path clip-path="url(#clip4402)" d="
M473.754 1033.34 L473.754 1388.71 L512.031 1388.71 L512.031 1033.34 L473.754 1033.34 L473.754 1033.34  Z
  " fill="#e26f46" fill-rule="evenodd" fill-opacity="0.8"/>
<polyline clip-path="url(#clip4402)" style="stroke:#000000; stroke-width:4; stroke-opacity:0.8; fill:none" points="
  473.754,1033.34 473.754,1388.71 512.031,1388.71 512.031,1033.34 473.754,1033.34 
  "/>
<path clip-path="url(#clip4402)" d="
M512.031 965.001 L512.031 1388.71 L550.308 1388.71 L550.308 965.001 L512.031 965.001 L512.031 965.001  Z
  " fill="#e26f46" fill-rule="evenodd" fill-opacity="0.8"/>
<polyline clip-path="url(#clip4402)" style="stroke:#000000; stroke-width:4; stroke-opacity:0.8; fill:none" points="
  512.031,965.001 512.031,1388.71 550.308,1388.71 550.308,965.001 512.031,965.001 
  "/>
<path clip-path="url(#clip4402)" d="
M550.308 732.642 L550.308 1388.71 L588.584 1388.71 L588.584 732.642 L550.308 732.642 L550.308 732.642  Z
  " fill="#e26f46" fill-rule="evenodd" fill-opacity="0.8"/>
<polyline clip-path="url(#clip4402)" style="stroke:#000000; stroke-width:4; stroke-opacity:0.8; fill:none" points="
  550.308,732.642 550.308,1388.71 588.584,1388.71 588.584,732.642 550.308,732.642 
  "/>
<path clip-path="url(#clip4402)" d="
M588.584 459.279 L588.584 1388.71 L626.861 1388.71 L626.861 459.279 L588.584 459.279 L588.584 459.279  Z
  " fill="#e26f46" fill-rule="evenodd" fill-opacity="0.8"/>
<polyline clip-path="url(#clip4402)" style="stroke:#000000; stroke-width:4; stroke-opacity:0.8; fill:none" points="
  588.584,459.279 588.584,1388.71 626.861,1388.71 626.861,459.279 588.584,459.279 
  "/>
<path clip-path="url(#clip4402)" d="
M626.861 486.615 L626.861 1388.71 L665.138 1388.71 L665.138 486.615 L626.861 486.615 L626.861 486.615  Z
  " fill="#e26f46" fill-rule="evenodd" fill-opacity="0.8"/>
<polyline clip-path="url(#clip4402)" style="stroke:#000000; stroke-width:4; stroke-opacity:0.8; fill:none" points="
  626.861,486.615 626.861,1388.71 665.138,1388.71 665.138,486.615 626.861,486.615 
  "/>
<path clip-path="url(#clip4402)" d="
M665.138 322.597 L665.138 1388.71 L703.414 1388.71 L703.414 322.597 L665.138 322.597 L665.138 322.597  Z
  " fill="#e26f46" fill-rule="evenodd" fill-opacity="0.8"/>
<polyline clip-path="url(#clip4402)" style="stroke:#000000; stroke-width:4; stroke-opacity:0.8; fill:none" points="
  665.138,322.597 665.138,1388.71 703.414,1388.71 703.414,322.597 665.138,322.597 
  "/>
<path clip-path="url(#clip4402)" d="
M703.414 500.283 L703.414 1388.71 L741.691 1388.71 L741.691 500.283 L703.414 500.283 L703.414 500.283  Z
  " fill="#e26f46" fill-rule="evenodd" fill-opacity="0.8"/>
<polyline clip-path="url(#clip4402)" style="stroke:#000000; stroke-width:4; stroke-opacity:0.8; fill:none" points="
  703.414,500.283 703.414,1388.71 741.691,1388.71 741.691,500.283 703.414,500.283 
  "/>
<path clip-path="url(#clip4402)" d="
M741.691 459.279 L741.691 1388.71 L779.968 1388.71 L779.968 459.279 L741.691 459.279 L741.691 459.279  Z
  " fill="#e26f46" fill-rule="evenodd" fill-opacity="0.8"/>
<polyline clip-path="url(#clip4402)" style="stroke:#000000; stroke-width:4; stroke-opacity:0.8; fill:none" points="
  741.691,459.279 741.691,1388.71 779.968,1388.71 779.968,459.279 741.691,459.279 
  "/>
<path clip-path="url(#clip4402)" d="
M779.968 882.992 L779.968 1388.71 L818.244 1388.71 L818.244 882.992 L779.968 882.992 L779.968 882.992  Z
  " fill="#e26f46" fill-rule="evenodd" fill-opacity="0.8"/>
<polyline clip-path="url(#clip4402)" style="stroke:#000000; stroke-width:4; stroke-opacity:0.8; fill:none" points="
  779.968,882.992 779.968,1388.71 818.244,1388.71 818.244,882.992 779.968,882.992 
  "/>
<path clip-path="url(#clip4402)" d="
M818.244 1006.01 L818.244 1388.71 L856.521 1388.71 L856.521 1006.01 L818.244 1006.01 L818.244 1006.01  Z
  " fill="#e26f46" fill-rule="evenodd" fill-opacity="0.8"/>
<polyline clip-path="url(#clip4402)" style="stroke:#000000; stroke-width:4; stroke-opacity:0.8; fill:none" points="
  818.244,1006.01 818.244,1388.71 856.521,1388.71 856.521,1006.01 818.244,1006.01 
  "/>
<path clip-path="url(#clip4402)" d="
M856.521 1183.69 L856.521 1388.71 L894.798 1388.71 L894.798 1183.69 L856.521 1183.69 L856.521 1183.69  Z
  " fill="#e26f46" fill-rule="evenodd" fill-opacity="0.8"/>
<polyline clip-path="url(#clip4402)" style="stroke:#000000; stroke-width:4; stroke-opacity:0.8; fill:none" points="
  856.521,1183.69 856.521,1388.71 894.798,1388.71 894.798,1183.69 856.521,1183.69 
  "/>
<path clip-path="url(#clip4402)" d="
M894.798 1265.7 L894.798 1388.71 L933.074 1388.71 L933.074 1265.7 L894.798 1265.7 L894.798 1265.7  Z
  " fill="#e26f46" fill-rule="evenodd" fill-opacity="0.8"/>
<polyline clip-path="url(#clip4402)" style="stroke:#000000; stroke-width:4; stroke-opacity:0.8; fill:none" points="
  894.798,1265.7 894.798,1388.71 933.074,1388.71 933.074,1265.7 894.798,1265.7 
  "/>
<path clip-path="url(#clip4402)" d="
M933.074 1279.37 L933.074 1388.71 L971.351 1388.71 L971.351 1279.37 L933.074 1279.37 L933.074 1279.37  Z
  " fill="#e26f46" fill-rule="evenodd" fill-opacity="0.8"/>
<polyline clip-path="url(#clip4402)" style="stroke:#000000; stroke-width:4; stroke-opacity:0.8; fill:none" points="
  933.074,1279.37 933.074,1388.71 971.351,1388.71 971.351,1279.37 933.074,1279.37 
  "/>
<path clip-path="url(#clip4402)" d="
M971.351 1320.37 L971.351 1388.71 L1009.63 1388.71 L1009.63 1320.37 L971.351 1320.37 L971.351 1320.37  Z
  " fill="#e26f46" fill-rule="evenodd" fill-opacity="0.8"/>
<polyline clip-path="url(#clip4402)" style="stroke:#000000; stroke-width:4; stroke-opacity:0.8; fill:none" points="
  971.351,1320.37 971.351,1388.71 1009.63,1388.71 1009.63,1320.37 971.351,1320.37 
  "/>
<path clip-path="url(#clip4402)" d="
M1009.63 1293.04 L1009.63 1388.71 L1047.9 1388.71 L1047.9 1293.04 L1009.63 1293.04 L1009.63 1293.04  Z
  " fill="#e26f46" fill-rule="evenodd" fill-opacity="0.8"/>
<polyline clip-path="url(#clip4402)" style="stroke:#000000; stroke-width:4; stroke-opacity:0.8; fill:none" points="
  1009.63,1293.04 1009.63,1388.71 1047.9,1388.71 1047.9,1293.04 1009.63,1293.04 
  "/>
<path clip-path="url(#clip4402)" d="
M1047.9 1375.05 L1047.9 1388.71 L1086.18 1388.71 L1086.18 1375.05 L1047.9 1375.05 L1047.9 1375.05  Z
  " fill="#e26f46" fill-rule="evenodd" fill-opacity="0.8"/>
<polyline clip-path="url(#clip4402)" style="stroke:#000000; stroke-width:4; stroke-opacity:0.8; fill:none" points="
  1047.9,1375.05 1047.9,1388.71 1086.18,1388.71 1086.18,1375.05 1047.9,1375.05 
  "/>
<path clip-path="url(#clip4402)" d="
M1086.18 1375.05 L1086.18 1388.71 L1124.46 1388.71 L1124.46 1375.05 L1086.18 1375.05 L1086.18 1375.05  Z
  " fill="#e26f46" fill-rule="evenodd" fill-opacity="0.8"/>
<polyline clip-path="url(#clip4402)" style="stroke:#000000; stroke-width:4; stroke-opacity:0.8; fill:none" points="
  1086.18,1375.05 1086.18,1388.71 1124.46,1388.71 1124.46,1375.05 1086.18,1375.05 
  "/>
<path clip-path="url(#clip4402)" d="
M1124.46 1347.71 L1124.46 1388.71 L1162.73 1388.71 L1162.73 1347.71 L1124.46 1347.71 L1124.46 1347.71  Z
  " fill="#e26f46" fill-rule="evenodd" fill-opacity="0.8"/>
<polyline clip-path="url(#clip4402)" style="stroke:#000000; stroke-width:4; stroke-opacity:0.8; fill:none" points="
  1124.46,1347.71 1124.46,1388.71 1162.73,1388.71 1162.73,1347.71 1124.46,1347.71 
  "/>
<path clip-path="url(#clip4402)" d="
M1162.73 1361.38 L1162.73 1388.71 L1201.01 1388.71 L1201.01 1361.38 L1162.73 1361.38 L1162.73 1361.38  Z
  " fill="#e26f46" fill-rule="evenodd" fill-opacity="0.8"/>
<polyline clip-path="url(#clip4402)" style="stroke:#000000; stroke-width:4; stroke-opacity:0.8; fill:none" points="
  1162.73,1361.38 1162.73,1388.71 1201.01,1388.71 1201.01,1361.38 1162.73,1361.38 
  "/>
<path clip-path="url(#clip4402)" d="
M1201.01 1388.71 L1201.01 1388.71 L1239.29 1388.71 L1239.29 1388.71 L1201.01 1388.71 L1201.01 1388.71  Z
  " fill="#e26f46" fill-rule="evenodd" fill-opacity="0.8"/>
<polyline clip-path="url(#clip4402)" style="stroke:#000000; stroke-width:4; stroke-opacity:0.8; fill:none" points="
  1201.01,1388.71 1201.01,1388.71 1239.29,1388.71 1201.01,1388.71 
  "/>
<path clip-path="url(#clip4402)" d="
M1239.29 1388.71 L1239.29 1388.71 L1277.56 1388.71 L1277.56 1388.71 L1239.29 1388.71 L1239.29 1388.71  Z
  " fill="#e26f46" fill-rule="evenodd" fill-opacity="0.8"/>
<polyline clip-path="url(#clip4402)" style="stroke:#000000; stroke-width:4; stroke-opacity:0.8; fill:none" points="
  1239.29,1388.71 1239.29,1388.71 1277.56,1388.71 1239.29,1388.71 
  "/>
<path clip-path="url(#clip4402)" d="
M1277.56 1388.71 L1277.56 1388.71 L1315.84 1388.71 L1315.84 1388.71 L1277.56 1388.71 L1277.56 1388.71  Z
  " fill="#e26f46" fill-rule="evenodd" fill-opacity="0.8"/>
<polyline clip-path="url(#clip4402)" style="stroke:#000000; stroke-width:4; stroke-opacity:0.8; fill:none" points="
  1277.56,1388.71 1277.56,1388.71 1315.84,1388.71 1277.56,1388.71 
  "/>
<path clip-path="url(#clip4402)" d="
M1315.84 1388.71 L1315.84 1388.71 L1354.12 1388.71 L1354.12 1388.71 L1315.84 1388.71 L1315.84 1388.71  Z
  " fill="#e26f46" fill-rule="evenodd" fill-opacity="0.8"/>
<polyline clip-path="url(#clip4402)" style="stroke:#000000; stroke-width:4; stroke-opacity:0.8; fill:none" points="
  1315.84,1388.71 1315.84,1388.71 1354.12,1388.71 1315.84,1388.71 
  "/>
<path clip-path="url(#clip4402)" d="
M1354.12 1388.71 L1354.12 1388.71 L1392.39 1388.71 L1392.39 1388.71 L1354.12 1388.71 L1354.12 1388.71  Z
  " fill="#e26f46" fill-rule="evenodd" fill-opacity="0.8"/>
<polyline clip-path="url(#clip4402)" style="stroke:#000000; stroke-width:4; stroke-opacity:0.8; fill:none" points="
  1354.12,1388.71 1354.12,1388.71 1392.39,1388.71 1354.12,1388.71 
  "/>
<path clip-path="url(#clip4402)" d="
M1392.39 1375.05 L1392.39 1388.71 L1430.67 1388.71 L1430.67 1375.05 L1392.39 1375.05 L1392.39 1375.05  Z
  " fill="#e26f46" fill-rule="evenodd" fill-opacity="0.8"/>
<polyline clip-path="url(#clip4402)" style="stroke:#000000; stroke-width:4; stroke-opacity:0.8; fill:none" points="
  1392.39,1375.05 1392.39,1388.71 1430.67,1388.71 1430.67,1375.05 1392.39,1375.05 
  "/>
<path clip-path="url(#clip4402)" d="
M1430.67 1388.71 L1430.67 1388.71 L1468.95 1388.71 L1468.95 1388.71 L1430.67 1388.71 L1430.67 1388.71  Z
  " fill="#e26f46" fill-rule="evenodd" fill-opacity="0.8"/>
<polyline clip-path="url(#clip4402)" style="stroke:#000000; stroke-width:4; stroke-opacity:0.8; fill:none" points="
  1430.67,1388.71 1430.67,1388.71 1468.95,1388.71 1430.67,1388.71 
  "/>
<path clip-path="url(#clip4402)" d="
M1468.95 1388.71 L1468.95 1388.71 L1507.22 1388.71 L1507.22 1388.71 L1468.95 1388.71 L1468.95 1388.71  Z
  " fill="#e26f46" fill-rule="evenodd" fill-opacity="0.8"/>
<polyline clip-path="url(#clip4402)" style="stroke:#000000; stroke-width:4; stroke-opacity:0.8; fill:none" points="
  1468.95,1388.71 1468.95,1388.71 1507.22,1388.71 1468.95,1388.71 
  "/>
<path clip-path="url(#clip4402)" d="
M1507.22 1388.71 L1507.22 1388.71 L1545.5 1388.71 L1545.5 1388.71 L1507.22 1388.71 L1507.22 1388.71  Z
  " fill="#e26f46" fill-rule="evenodd" fill-opacity="0.8"/>
<polyline clip-path="url(#clip4402)" style="stroke:#000000; stroke-width:4; stroke-opacity:0.8; fill:none" points="
  1507.22,1388.71 1507.22,1388.71 1545.5,1388.71 1507.22,1388.71 
  "/>
<path clip-path="url(#clip4402)" d="
M1545.5 1388.71 L1545.5 1388.71 L1583.78 1388.71 L1583.78 1388.71 L1545.5 1388.71 L1545.5 1388.71  Z
  " fill="#e26f46" fill-rule="evenodd" fill-opacity="0.8"/>
<polyline clip-path="url(#clip4402)" style="stroke:#000000; stroke-width:4; stroke-opacity:0.8; fill:none" points="
  1545.5,1388.71 1545.5,1388.71 1583.78,1388.71 1545.5,1388.71 
  "/>
<path clip-path="url(#clip4402)" d="
M1583.78 1388.71 L1583.78 1388.71 L1622.05 1388.71 L1622.05 1388.71 L1583.78 1388.71 L1583.78 1388.71  Z
  " fill="#e26f46" fill-rule="evenodd" fill-opacity="0.8"/>
<polyline clip-path="url(#clip4402)" style="stroke:#000000; stroke-width:4; stroke-opacity:0.8; fill:none" points="
  1583.78,1388.71 1583.78,1388.71 1622.05,1388.71 1583.78,1388.71 
  "/>
<path clip-path="url(#clip4402)" d="
M1622.05 1388.71 L1622.05 1388.71 L1660.33 1388.71 L1660.33 1388.71 L1622.05 1388.71 L1622.05 1388.71  Z
  " fill="#e26f46" fill-rule="evenodd" fill-opacity="0.8"/>
<polyline clip-path="url(#clip4402)" style="stroke:#000000; stroke-width:4; stroke-opacity:0.8; fill:none" points="
  1622.05,1388.71 1622.05,1388.71 1660.33,1388.71 1622.05,1388.71 
  "/>
<path clip-path="url(#clip4402)" d="
M1660.33 1388.71 L1660.33 1388.71 L1698.61 1388.71 L1698.61 1388.71 L1660.33 1388.71 L1660.33 1388.71  Z
  " fill="#e26f46" fill-rule="evenodd" fill-opacity="0.8"/>
<polyline clip-path="url(#clip4402)" style="stroke:#000000; stroke-width:4; stroke-opacity:0.8; fill:none" points="
  1660.33,1388.71 1660.33,1388.71 1698.61,1388.71 1660.33,1388.71 
  "/>
<path clip-path="url(#clip4402)" d="
M1698.61 1388.71 L1698.61 1388.71 L1736.88 1388.71 L1736.88 1388.71 L1698.61 1388.71 L1698.61 1388.71  Z
  " fill="#e26f46" fill-rule="evenodd" fill-opacity="0.8"/>
<polyline clip-path="url(#clip4402)" style="stroke:#000000; stroke-width:4; stroke-opacity:0.8; fill:none" points="
  1698.61,1388.71 1698.61,1388.71 1736.88,1388.71 1698.61,1388.71 
  "/>
<path clip-path="url(#clip4402)" d="
M1736.88 1388.71 L1736.88 1388.71 L1775.16 1388.71 L1775.16 1388.71 L1736.88 1388.71 L1736.88 1388.71  Z
  " fill="#e26f46" fill-rule="evenodd" fill-opacity="0.8"/>
<polyline clip-path="url(#clip4402)" style="stroke:#000000; stroke-width:4; stroke-opacity:0.8; fill:none" points="
  1736.88,1388.71 1736.88,1388.71 1775.16,1388.71 1736.88,1388.71 
  "/>
<path clip-path="url(#clip4402)" d="
M1775.16 1388.71 L1775.16 1388.71 L1813.44 1388.71 L1813.44 1388.71 L1775.16 1388.71 L1775.16 1388.71  Z
  " fill="#e26f46" fill-rule="evenodd" fill-opacity="0.8"/>
<polyline clip-path="url(#clip4402)" style="stroke:#000000; stroke-width:4; stroke-opacity:0.8; fill:none" points="
  1775.16,1388.71 1775.16,1388.71 1813.44,1388.71 1775.16,1388.71 
  "/>
<path clip-path="url(#clip4402)" d="
M1813.44 1388.71 L1813.44 1388.71 L1851.71 1388.71 L1851.71 1388.71 L1813.44 1388.71 L1813.44 1388.71  Z
  " fill="#e26f46" fill-rule="evenodd" fill-opacity="0.8"/>
<polyline clip-path="url(#clip4402)" style="stroke:#000000; stroke-width:4; stroke-opacity:0.8; fill:none" points="
  1813.44,1388.71 1813.44,1388.71 1851.71,1388.71 1813.44,1388.71 
  "/>
<path clip-path="url(#clip4402)" d="
M1851.71 1388.71 L1851.71 1388.71 L1889.99 1388.71 L1889.99 1388.71 L1851.71 1388.71 L1851.71 1388.71  Z
  " fill="#e26f46" fill-rule="evenodd" fill-opacity="0.8"/>
<polyline clip-path="url(#clip4402)" style="stroke:#000000; stroke-width:4; stroke-opacity:0.8; fill:none" points="
  1851.71,1388.71 1851.71,1388.71 1889.99,1388.71 1851.71,1388.71 
  "/>
<path clip-path="url(#clip4402)" d="
M1889.99 1388.71 L1889.99 1388.71 L1928.27 1388.71 L1928.27 1388.71 L1889.99 1388.71 L1889.99 1388.71  Z
  " fill="#e26f46" fill-rule="evenodd" fill-opacity="0.8"/>
<polyline clip-path="url(#clip4402)" style="stroke:#000000; stroke-width:4; stroke-opacity:0.8; fill:none" points="
  1889.99,1388.71 1889.99,1388.71 1928.27,1388.71 1889.99,1388.71 
  "/>
<path clip-path="url(#clip4402)" d="
M1928.27 1388.71 L1928.27 1388.71 L1966.54 1388.71 L1966.54 1388.71 L1928.27 1388.71 L1928.27 1388.71  Z
  " fill="#e26f46" fill-rule="evenodd" fill-opacity="0.8"/>
<polyline clip-path="url(#clip4402)" style="stroke:#000000; stroke-width:4; stroke-opacity:0.8; fill:none" points="
  1928.27,1388.71 1928.27,1388.71 1966.54,1388.71 1928.27,1388.71 
  "/>
<path clip-path="url(#clip4402)" d="
M1966.54 1375.05 L1966.54 1388.71 L2004.82 1388.71 L2004.82 1375.05 L1966.54 1375.05 L1966.54 1375.05  Z
  " fill="#e26f46" fill-rule="evenodd" fill-opacity="0.8"/>
<polyline clip-path="url(#clip4402)" style="stroke:#000000; stroke-width:4; stroke-opacity:0.8; fill:none" points="
  1966.54,1375.05 1966.54,1388.71 2004.82,1388.71 2004.82,1375.05 1966.54,1375.05 
  "/>
<path clip-path="url(#clip4402)" d="
M2004.82 1388.71 L2004.82 1388.71 L2043.1 1388.71 L2043.1 1388.71 L2004.82 1388.71 L2004.82 1388.71  Z
  " fill="#e26f46" fill-rule="evenodd" fill-opacity="0.8"/>
<polyline clip-path="url(#clip4402)" style="stroke:#000000; stroke-width:4; stroke-opacity:0.8; fill:none" points="
  2004.82,1388.71 2004.82,1388.71 2043.1,1388.71 2004.82,1388.71 
  "/>
<path clip-path="url(#clip4402)" d="
M2043.1 1388.71 L2043.1 1388.71 L2081.37 1388.71 L2081.37 1388.71 L2043.1 1388.71 L2043.1 1388.71  Z
  " fill="#e26f46" fill-rule="evenodd" fill-opacity="0.8"/>
<polyline clip-path="url(#clip4402)" style="stroke:#000000; stroke-width:4; stroke-opacity:0.8; fill:none" points="
  2043.1,1388.71 2043.1,1388.71 2081.37,1388.71 2043.1,1388.71 
  "/>
<path clip-path="url(#clip4402)" d="
M2081.37 1388.71 L2081.37 1388.71 L2119.65 1388.71 L2119.65 1388.71 L2081.37 1388.71 L2081.37 1388.71  Z
  " fill="#e26f46" fill-rule="evenodd" fill-opacity="0.8"/>
<polyline clip-path="url(#clip4402)" style="stroke:#000000; stroke-width:4; stroke-opacity:0.8; fill:none" points="
  2081.37,1388.71 2081.37,1388.71 2119.65,1388.71 2081.37,1388.71 
  "/>
<path clip-path="url(#clip4402)" d="
M2119.65 1388.71 L2119.65 1388.71 L2157.93 1388.71 L2157.93 1388.71 L2119.65 1388.71 L2119.65 1388.71  Z
  " fill="#e26f46" fill-rule="evenodd" fill-opacity="0.8"/>
<polyline clip-path="url(#clip4402)" style="stroke:#000000; stroke-width:4; stroke-opacity:0.8; fill:none" points="
  2119.65,1388.71 2119.65,1388.71 2157.93,1388.71 2119.65,1388.71 
  "/>
<path clip-path="url(#clip4402)" d="
M2157.93 1388.71 L2157.93 1388.71 L2196.2 1388.71 L2196.2 1388.71 L2157.93 1388.71 L2157.93 1388.71  Z
  " fill="#e26f46" fill-rule="evenodd" fill-opacity="0.8"/>
<polyline clip-path="url(#clip4402)" style="stroke:#000000; stroke-width:4; stroke-opacity:0.8; fill:none" points="
  2157.93,1388.71 2157.93,1388.71 2196.2,1388.71 2157.93,1388.71 
  "/>
<path clip-path="url(#clip4402)" d="
M2196.2 1375.05 L2196.2 1388.71 L2234.48 1388.71 L2234.48 1375.05 L2196.2 1375.05 L2196.2 1375.05  Z
  " fill="#e26f46" fill-rule="evenodd" fill-opacity="0.8"/>
<polyline clip-path="url(#clip4402)" style="stroke:#000000; stroke-width:4; stroke-opacity:0.8; fill:none" points="
  2196.2,1375.05 2196.2,1388.71 2234.48,1388.71 2234.48,1375.05 2196.2,1375.05 
  "/>
<path clip-path="url(#clip4400)" d="
M1577.9 386.635 L2280.76 386.635 L2280.76 205.195 L1577.9 205.195  Z
  " fill="#ffffff" fill-rule="evenodd" fill-opacity="1"/>
<polyline clip-path="url(#clip4400)" style="stroke:#000000; stroke-width:4; stroke-opacity:1; fill:none" points="
  1577.9,386.635 2280.76,386.635 2280.76,205.195 1577.9,205.195 1577.9,386.635 
  "/>
<path clip-path="url(#clip4400)" d="
M1601.9 289.867 L1745.9 289.867 L1745.9 241.483 L1601.9 241.483 L1601.9 289.867  Z
  " fill="#009af9" fill-rule="evenodd" fill-opacity="1"/>
<polyline clip-path="url(#clip4400)" style="stroke:#000000; stroke-width:4; stroke-opacity:1; fill:none" points="
  1601.9,289.867 1745.9,289.867 1745.9,241.483 1601.9,241.483 1601.9,289.867 
  "/>
<g clip-path="url(#clip4400)">
<text style="fill:#000000; fill-opacity:1; font-family:Arial,Helvetica Neue,Helvetica,sans-serif; font-size:48px; text-anchor:start;" transform="rotate(0, 1769.9, 283.175)" x="1769.9" y="283.175">Avg Predicted dose</text>
</g>
<path clip-path="url(#clip4400)" d="
M1601.9 350.347 L1745.9 350.347 L1745.9 301.963 L1601.9 301.963 L1601.9 350.347  Z
  " fill="#e26f46" fill-rule="evenodd" fill-opacity="0.8"/>
<polyline clip-path="url(#clip4400)" style="stroke:#000000; stroke-width:4; stroke-opacity:1; fill:none" points="
  1601.9,350.347 1745.9,350.347 1745.9,301.963 1601.9,301.963 1601.9,350.347 
  "/>
<g clip-path="url(#clip4400)">
<text style="fill:#000000; fill-opacity:1; font-family:Arial,Helvetica Neue,Helvetica,sans-serif; font-size:48px; text-anchor:start;" transform="rotate(0, 1769.9, 343.655)" x="1769.9" y="343.655">Actual euthyroid dose</text>
</g>
</svg>
