<?xml version="1.0" encoding="utf-8"?>
<svg xmlns="http://www.w3.org/2000/svg" xmlns:xlink="http://www.w3.org/1999/xlink" width="600" height="400" viewBox="0 0 2400 1600">
<defs>
  <clipPath id="clip1900">
    <rect x="0" y="0" width="2400" height="1600"/>
  </clipPath>
</defs>
<path clip-path="url(#clip1900)" d="
M0 1600 L2400 1600 L2400 0 L0 0  Z
  " fill="#ffffff" fill-rule="evenodd" fill-opacity="1"/>
<defs>
  <clipPath id="clip1901">
    <rect x="480" y="0" width="1681" height="1600"/>
  </clipPath>
</defs>
<path clip-path="url(#clip1900)" d="
M202.373 1425.62 L1152.76 1425.62 L1152.76 121.675 L202.373 121.675  Z
  " fill="#ffffff" fill-rule="evenodd" fill-opacity="1"/>
<defs>
  <clipPath id="clip1902">
    <rect x="202" y="121" width="951" height="1305"/>
  </clipPath>
</defs>
<polyline clip-path="url(#clip1902)" style="stroke:#000000; stroke-width:2; stroke-opacity:0.1; fill:none" points="
  318.689,1425.62 318.689,121.675 
  "/>
<polyline clip-path="url(#clip1902)" style="stroke:#000000; stroke-width:2; stroke-opacity:0.1; fill:none" points="
  514.639,1425.62 514.639,121.675 
  "/>
<polyline clip-path="url(#clip1902)" style="stroke:#000000; stroke-width:2; stroke-opacity:0.1; fill:none" points="
  710.59,1425.62 710.59,121.675 
  "/>
<polyline clip-path="url(#clip1902)" style="stroke:#000000; stroke-width:2; stroke-opacity:0.1; fill:none" points="
  906.54,1425.62 906.54,121.675 
  "/>
<polyline clip-path="url(#clip1902)" style="stroke:#000000; stroke-width:2; stroke-opacity:0.1; fill:none" points="
  1102.49,1425.62 1102.49,121.675 
  "/>
<polyline clip-path="url(#clip1902)" style="stroke:#000000; stroke-width:2; stroke-opacity:0.1; fill:none" points="
  202.373,1425.62 1152.76,1425.62 
  "/>
<polyline clip-path="url(#clip1902)" style="stroke:#000000; stroke-width:2; stroke-opacity:0.1; fill:none" points="
  202.373,1164.83 1152.76,1164.83 
  "/>
<polyline clip-path="url(#clip1902)" style="stroke:#000000; stroke-width:2; stroke-opacity:0.1; fill:none" points="
  202.373,904.041 1152.76,904.041 
  "/>
<polyline clip-path="url(#clip1902)" style="stroke:#000000; stroke-width:2; stroke-opacity:0.1; fill:none" points="
  202.373,643.253 1152.76,643.253 
  "/>
<polyline clip-path="url(#clip1902)" style="stroke:#000000; stroke-width:2; stroke-opacity:0.1; fill:none" points="
  202.373,382.464 1152.76,382.464 
  "/>
<polyline clip-path="url(#clip1902)" style="stroke:#000000; stroke-width:2; stroke-opacity:0.1; fill:none" points="
  202.373,121.675 1152.76,121.675 
  "/>
<polyline clip-path="url(#clip1900)" style="stroke:#000000; stroke-width:4; stroke-opacity:1; fill:none" points="
  202.373,1425.62 1152.76,1425.62 
  "/>
<polyline clip-path="url(#clip1900)" style="stroke:#000000; stroke-width:4; stroke-opacity:1; fill:none" points="
  202.373,1425.62 202.373,121.675 
  "/>
<polyline clip-path="url(#clip1900)" style="stroke:#000000; stroke-width:4; stroke-opacity:1; fill:none" points="
  318.689,1425.62 318.689,1409.97 
  "/>
<polyline clip-path="url(#clip1900)" style="stroke:#000000; stroke-width:4; stroke-opacity:1; fill:none" points="
  514.639,1425.62 514.639,1409.97 
  "/>
<polyline clip-path="url(#clip1900)" style="stroke:#000000; stroke-width:4; stroke-opacity:1; fill:none" points="
  710.59,1425.62 710.59,1409.97 
  "/>
<polyline clip-path="url(#clip1900)" style="stroke:#000000; stroke-width:4; stroke-opacity:1; fill:none" points="
  906.54,1425.62 906.54,1409.97 
  "/>
<polyline clip-path="url(#clip1900)" style="stroke:#000000; stroke-width:4; stroke-opacity:1; fill:none" points="
  1102.49,1425.62 1102.49,1409.97 
  "/>
<polyline clip-path="url(#clip1900)" style="stroke:#000000; stroke-width:4; stroke-opacity:1; fill:none" points="
  202.373,1425.62 213.778,1425.62 
  "/>
<polyline clip-path="url(#clip1900)" style="stroke:#000000; stroke-width:4; stroke-opacity:1; fill:none" points="
  202.373,1164.83 213.778,1164.83 
  "/>
<polyline clip-path="url(#clip1900)" style="stroke:#000000; stroke-width:4; stroke-opacity:1; fill:none" points="
  202.373,904.041 213.778,904.041 
  "/>
<polyline clip-path="url(#clip1900)" style="stroke:#000000; stroke-width:4; stroke-opacity:1; fill:none" points="
  202.373,643.253 213.778,643.253 
  "/>
<polyline clip-path="url(#clip1900)" style="stroke:#000000; stroke-width:4; stroke-opacity:1; fill:none" points="
  202.373,382.464 213.778,382.464 
  "/>
<polyline clip-path="url(#clip1900)" style="stroke:#000000; stroke-width:4; stroke-opacity:1; fill:none" points="
  202.373,121.675 213.778,121.675 
  "/>
<g clip-path="url(#clip1900)">
<text style="fill:#000000; fill-opacity:1; font-family:Arial,Helvetica Neue,Helvetica,sans-serif; font-size:48px; text-anchor:middle;" transform="rotate(0, 318.689, 1479.62)" x="318.689" y="1479.62">20</text>
</g>
<g clip-path="url(#clip1900)">
<text style="fill:#000000; fill-opacity:1; font-family:Arial,Helvetica Neue,Helvetica,sans-serif; font-size:48px; text-anchor:middle;" transform="rotate(0, 514.639, 1479.62)" x="514.639" y="1479.62">25</text>
</g>
<g clip-path="url(#clip1900)">
<text style="fill:#000000; fill-opacity:1; font-family:Arial,Helvetica Neue,Helvetica,sans-serif; font-size:48px; text-anchor:middle;" transform="rotate(0, 710.59, 1479.62)" x="710.59" y="1479.62">30</text>
</g>
<g clip-path="url(#clip1900)">
<text style="fill:#000000; fill-opacity:1; font-family:Arial,Helvetica Neue,Helvetica,sans-serif; font-size:48px; text-anchor:middle;" transform="rotate(0, 906.54, 1479.62)" x="906.54" y="1479.62">35</text>
</g>
<g clip-path="url(#clip1900)">
<text style="fill:#000000; fill-opacity:1; font-family:Arial,Helvetica Neue,Helvetica,sans-serif; font-size:48px; text-anchor:middle;" transform="rotate(0, 1102.49, 1479.62)" x="1102.49" y="1479.62">40</text>
</g>
<g clip-path="url(#clip1900)">
<text style="fill:#000000; fill-opacity:1; font-family:Arial,Helvetica Neue,Helvetica,sans-serif; font-size:48px; text-anchor:end;" transform="rotate(0, 178.373, 1443.12)" x="178.373" y="1443.12">0</text>
</g>
<g clip-path="url(#clip1900)">
<text style="fill:#000000; fill-opacity:1; font-family:Arial,Helvetica Neue,Helvetica,sans-serif; font-size:48px; text-anchor:end;" transform="rotate(0, 178.373, 1182.33)" x="178.373" y="1182.33">2</text>
</g>
<g clip-path="url(#clip1900)">
<text style="fill:#000000; fill-opacity:1; font-family:Arial,Helvetica Neue,Helvetica,sans-serif; font-size:48px; text-anchor:end;" transform="rotate(0, 178.373, 921.541)" x="178.373" y="921.541">4</text>
</g>
<g clip-path="url(#clip1900)">
<text style="fill:#000000; fill-opacity:1; font-family:Arial,Helvetica Neue,Helvetica,sans-serif; font-size:48px; text-anchor:end;" transform="rotate(0, 178.373, 660.753)" x="178.373" y="660.753">6</text>
</g>
<g clip-path="url(#clip1900)">
<text style="fill:#000000; fill-opacity:1; font-family:Arial,Helvetica Neue,Helvetica,sans-serif; font-size:48px; text-anchor:end;" transform="rotate(0, 178.373, 399.964)" x="178.373" y="399.964">8</text>
</g>
<g clip-path="url(#clip1900)">
<text style="fill:#000000; fill-opacity:1; font-family:Arial,Helvetica Neue,Helvetica,sans-serif; font-size:48px; text-anchor:end;" transform="rotate(0, 178.373, 139.175)" x="178.373" y="139.175">10</text>
</g>
<g clip-path="url(#clip1900)">
<text style="fill:#000000; fill-opacity:1; font-family:Arial,Helvetica Neue,Helvetica,sans-serif; font-size:84px; text-anchor:middle;" transform="rotate(0, 677.564, 73.2)" x="677.564" y="73.2">Data Time 1</text>
</g>
<g clip-path="url(#clip1900)">
<text style="fill:#000000; fill-opacity:1; font-family:Arial,Helvetica Neue,Helvetica,sans-serif; font-size:66px; text-anchor:middle;" transform="rotate(0, 677.564, 1559.48)" x="677.564" y="1559.48">BMI</text>
</g>
<g clip-path="url(#clip1900)">
<text style="fill:#000000; fill-opacity:1; font-family:Arial,Helvetica Neue,Helvetica,sans-serif; font-size:66px; text-anchor:middle;" transform="rotate(-90, 89.2861, 773.647)" x="89.2861" y="773.647">TSH</text>
</g>
<circle clip-path="url(#clip1902)" style="fill:#000000; stroke:none; fill-opacity:1" cx="353.555" cy="1334.34" r="18"/>
<circle clip-path="url(#clip1902)" style="fill:#0000ff; stroke:none; fill-opacity:1" cx="353.555" cy="1334.34" r="14"/>
<circle clip-path="url(#clip1902)" style="fill:#000000; stroke:none; fill-opacity:1" cx="569.56" cy="1230.03" r="18"/>
<circle clip-path="url(#clip1902)" style="fill:#0000ff; stroke:none; fill-opacity:1" cx="569.56" cy="1230.03" r="14"/>
<circle clip-path="url(#clip1902)" style="fill:#000000; stroke:none; fill-opacity:1" cx="714.219" cy="1269.15" r="18"/>
<circle clip-path="url(#clip1902)" style="fill:#0000ff; stroke:none; fill-opacity:1" cx="714.219" cy="1269.15" r="14"/>
<circle clip-path="url(#clip1902)" style="fill:#000000; stroke:none; fill-opacity:1" cx="586.384" cy="1343.47" r="18"/>
<circle clip-path="url(#clip1902)" style="fill:#0000ff; stroke:none; fill-opacity:1" cx="586.384" cy="1343.47" r="14"/>
<circle clip-path="url(#clip1902)" style="fill:#000000; stroke:none; fill-opacity:1" cx="603.461" cy="1243.07" r="18"/>
<circle clip-path="url(#clip1902)" style="fill:#0000ff; stroke:none; fill-opacity:1" cx="603.461" cy="1243.07" r="14"/>
<circle clip-path="url(#clip1902)" style="fill:#000000; stroke:none; fill-opacity:1" cx="631.4" cy="1351.29" r="18"/>
<circle clip-path="url(#clip1902)" style="fill:#0000ff; stroke:none; fill-opacity:1" cx="631.4" cy="1351.29" r="14"/>
<circle clip-path="url(#clip1902)" style="fill:#000000; stroke:none; fill-opacity:1" cx="707.473" cy="1099.63" r="18"/>
<circle clip-path="url(#clip1902)" style="fill:#0000ff; stroke:none; fill-opacity:1" cx="707.473" cy="1099.63" r="14"/>
<circle clip-path="url(#clip1902)" style="fill:#000000; stroke:none; fill-opacity:1" cx="397.127" cy="1177.87" r="18"/>
<circle clip-path="url(#clip1902)" style="fill:#0000ff; stroke:none; fill-opacity:1" cx="397.127" cy="1177.87" r="14"/>
<circle clip-path="url(#clip1902)" style="fill:#000000; stroke:none; fill-opacity:1" cx="490.146" cy="1262.63" r="18"/>
<circle clip-path="url(#clip1902)" style="fill:#0000ff; stroke:none; fill-opacity:1" cx="490.146" cy="1262.63" r="14"/>
<circle clip-path="url(#clip1902)" style="fill:#000000; stroke:none; fill-opacity:1" cx="552.307" cy="1284.79" r="18"/>
<circle clip-path="url(#clip1902)" style="fill:#0000ff; stroke:none; fill-opacity:1" cx="552.307" cy="1284.79" r="14"/>
<circle clip-path="url(#clip1902)" style="fill:#000000; stroke:none; fill-opacity:1" cx="535.44" cy="1316.09" r="18"/>
<circle clip-path="url(#clip1902)" style="fill:#0000ff; stroke:none; fill-opacity:1" cx="535.44" cy="1316.09" r="14"/>
<circle clip-path="url(#clip1902)" style="fill:#000000; stroke:none; fill-opacity:1" cx="516.17" cy="1216.99" r="18"/>
<circle clip-path="url(#clip1902)" style="fill:#ff0000; stroke:none; fill-opacity:1" cx="516.17" cy="1216.99" r="14"/>
<circle clip-path="url(#clip1902)" style="fill:#000000; stroke:none; fill-opacity:1" cx="841.764" cy="1283.49" r="18"/>
<circle clip-path="url(#clip1902)" style="fill:#ff0000; stroke:none; fill-opacity:1" cx="841.764" cy="1283.49" r="14"/>
<circle clip-path="url(#clip1902)" style="fill:#000000; stroke:none; fill-opacity:1" cx="731.385" cy="1340.86" r="18"/>
<circle clip-path="url(#clip1902)" style="fill:#ff0000; stroke:none; fill-opacity:1" cx="731.385" cy="1340.86" r="14"/>
<circle clip-path="url(#clip1902)" style="fill:#000000; stroke:none; fill-opacity:1" cx="623.795" cy="1379.98" r="18"/>
<circle clip-path="url(#clip1902)" style="fill:#ff0000; stroke:none; fill-opacity:1" cx="623.795" cy="1379.98" r="14"/>
<circle clip-path="url(#clip1902)" style="fill:#000000; stroke:none; fill-opacity:1" cx="774.288" cy="1349.99" r="18"/>
<circle clip-path="url(#clip1902)" style="fill:#ff0000; stroke:none; fill-opacity:1" cx="774.288" cy="1349.99" r="14"/>
<circle clip-path="url(#clip1902)" style="fill:#000000; stroke:none; fill-opacity:1" cx="603.417" cy="1296.53" r="18"/>
<circle clip-path="url(#clip1902)" style="fill:#ff0000; stroke:none; fill-opacity:1" cx="603.417" cy="1296.53" r="14"/>
<circle clip-path="url(#clip1902)" style="fill:#000000; stroke:none; fill-opacity:1" cx="287.5" cy="1342.17" r="18"/>
<circle clip-path="url(#clip1902)" style="fill:#ff0000; stroke:none; fill-opacity:1" cx="287.5" cy="1342.17" r="14"/>
<circle clip-path="url(#clip1902)" style="fill:#000000; stroke:none; fill-opacity:1" cx="229.271" cy="1177.87" r="18"/>
<circle clip-path="url(#clip1902)" style="fill:#ff0000; stroke:none; fill-opacity:1" cx="229.271" cy="1177.87" r="14"/>
<circle clip-path="url(#clip1902)" style="fill:#000000; stroke:none; fill-opacity:1" cx="524.72" cy="1282.18" r="18"/>
<circle clip-path="url(#clip1902)" style="fill:#ff0000; stroke:none; fill-opacity:1" cx="524.72" cy="1282.18" r="14"/>
<circle clip-path="url(#clip1902)" style="fill:#000000; stroke:none; fill-opacity:1" cx="454.099" cy="1138.75" r="18"/>
<circle clip-path="url(#clip1902)" style="fill:#ff0000; stroke:none; fill-opacity:1" cx="454.099" cy="1138.75" r="14"/>
<circle clip-path="url(#clip1902)" style="fill:#000000; stroke:none; fill-opacity:1" cx="393.118" cy="1162.22" r="18"/>
<circle clip-path="url(#clip1902)" style="fill:#ff0000; stroke:none; fill-opacity:1" cx="393.118" cy="1162.22" r="14"/>
<circle clip-path="url(#clip1902)" style="fill:#000000; stroke:none; fill-opacity:1" cx="993.441" cy="1369.55" r="18"/>
<circle clip-path="url(#clip1902)" style="fill:#ff0000; stroke:none; fill-opacity:1" cx="993.441" cy="1369.55" r="14"/>
<circle clip-path="url(#clip1902)" style="fill:#000000; stroke:none; fill-opacity:1" cx="513.359" cy="1167.44" r="18"/>
<circle clip-path="url(#clip1902)" style="fill:#ff0000; stroke:none; fill-opacity:1" cx="513.359" cy="1167.44" r="14"/>
<circle clip-path="url(#clip1902)" style="fill:#000000; stroke:none; fill-opacity:1" cx="569.482" cy="1356.51" r="18"/>
<circle clip-path="url(#clip1902)" style="fill:#ff0000; stroke:none; fill-opacity:1" cx="569.482" cy="1356.51" r="14"/>
<circle clip-path="url(#clip1902)" style="fill:#000000; stroke:none; fill-opacity:1" cx="512.3" cy="943.16" r="18"/>
<circle clip-path="url(#clip1902)" style="fill:#ff0000; stroke:none; fill-opacity:1" cx="512.3" cy="943.16" r="14"/>
<circle clip-path="url(#clip1902)" style="fill:#000000; stroke:none; fill-opacity:1" cx="681.503" cy="1256.11" r="18"/>
<circle clip-path="url(#clip1902)" style="fill:#ff0000; stroke:none; fill-opacity:1" cx="681.503" cy="1256.11" r="14"/>
<circle clip-path="url(#clip1902)" style="fill:#000000; stroke:none; fill-opacity:1" cx="1125.86" cy="1269.15" r="18"/>
<circle clip-path="url(#clip1902)" style="fill:#ff0000; stroke:none; fill-opacity:1" cx="1125.86" cy="1269.15" r="14"/>
<circle clip-path="url(#clip1902)" style="fill:#000000; stroke:none; fill-opacity:1" cx="335.013" cy="1282.18" r="18"/>
<circle clip-path="url(#clip1902)" style="fill:#ff0000; stroke:none; fill-opacity:1" cx="335.013" cy="1282.18" r="14"/>
<circle clip-path="url(#clip1902)" style="fill:#000000; stroke:none; fill-opacity:1" cx="464.995" cy="1308.26" r="18"/>
<circle clip-path="url(#clip1902)" style="fill:#ff0000; stroke:none; fill-opacity:1" cx="464.995" cy="1308.26" r="14"/>
<circle clip-path="url(#clip1902)" style="fill:#000000; stroke:none; fill-opacity:1" cx="512.3" cy="1321.3" r="18"/>
<circle clip-path="url(#clip1902)" style="fill:#ff0000; stroke:none; fill-opacity:1" cx="512.3" cy="1321.3" r="14"/>
<circle clip-path="url(#clip1902)" style="fill:#000000; stroke:none; fill-opacity:1" cx="619.035" cy="1235.24" r="18"/>
<circle clip-path="url(#clip1902)" style="fill:#ff0000; stroke:none; fill-opacity:1" cx="619.035" cy="1235.24" r="14"/>
<circle clip-path="url(#clip1902)" style="fill:#000000; stroke:none; fill-opacity:1" cx="723.905" cy="1243.07" r="18"/>
<circle clip-path="url(#clip1902)" style="fill:#ff0000; stroke:none; fill-opacity:1" cx="723.905" cy="1243.07" r="14"/>
<circle clip-path="url(#clip1902)" style="fill:#000000; stroke:none; fill-opacity:1" cx="702.172" cy="1310.87" r="18"/>
<circle clip-path="url(#clip1902)" style="fill:#ff0000; stroke:none; fill-opacity:1" cx="702.172" cy="1310.87" r="14"/>
<circle clip-path="url(#clip1902)" style="fill:#000000; stroke:none; fill-opacity:1" cx="791.561" cy="1309.57" r="18"/>
<circle clip-path="url(#clip1902)" style="fill:#ff0000; stroke:none; fill-opacity:1" cx="791.561" cy="1309.57" r="14"/>
<circle clip-path="url(#clip1902)" style="fill:#000000; stroke:none; fill-opacity:1" cx="737.403" cy="1243.07" r="18"/>
<circle clip-path="url(#clip1902)" style="fill:#ff0000; stroke:none; fill-opacity:1" cx="737.403" cy="1243.07" r="14"/>
<circle clip-path="url(#clip1902)" style="fill:#000000; stroke:none; fill-opacity:1" cx="709.51" cy="1339.56" r="18"/>
<circle clip-path="url(#clip1902)" style="fill:#ff0000; stroke:none; fill-opacity:1" cx="709.51" cy="1339.56" r="14"/>
<circle clip-path="url(#clip1902)" style="fill:#000000; stroke:none; fill-opacity:1" cx="394.174" cy="1283.49" r="18"/>
<circle clip-path="url(#clip1902)" style="fill:#ff0000; stroke:none; fill-opacity:1" cx="394.174" cy="1283.49" r="14"/>
<circle clip-path="url(#clip1902)" style="fill:#000000; stroke:none; fill-opacity:1" cx="775.503" cy="1373.46" r="18"/>
<circle clip-path="url(#clip1902)" style="fill:#ff0000; stroke:none; fill-opacity:1" cx="775.503" cy="1373.46" r="14"/>
<circle clip-path="url(#clip1902)" style="fill:#000000; stroke:none; fill-opacity:1" cx="631.938" cy="1273.06" r="18"/>
<circle clip-path="url(#clip1902)" style="fill:#ff0000; stroke:none; fill-opacity:1" cx="631.938" cy="1273.06" r="14"/>
<circle clip-path="url(#clip1902)" style="fill:#000000; stroke:none; fill-opacity:1" cx="375.545" cy="1269.15" r="18"/>
<circle clip-path="url(#clip1902)" style="fill:#ff0000; stroke:none; fill-opacity:1" cx="375.545" cy="1269.15" r="14"/>
<circle clip-path="url(#clip1902)" style="fill:#000000; stroke:none; fill-opacity:1" cx="724.152" cy="1353.9" r="18"/>
<circle clip-path="url(#clip1902)" style="fill:#ff0000; stroke:none; fill-opacity:1" cx="724.152" cy="1353.9" r="14"/>
<circle clip-path="url(#clip1902)" style="fill:#000000; stroke:none; fill-opacity:1" cx="576.352" cy="1297.83" r="18"/>
<circle clip-path="url(#clip1902)" style="fill:#ff0000; stroke:none; fill-opacity:1" cx="576.352" cy="1297.83" r="14"/>
<circle clip-path="url(#clip1902)" style="fill:#000000; stroke:none; fill-opacity:1" cx="344.118" cy="1295.22" r="18"/>
<circle clip-path="url(#clip1902)" style="fill:#ff0000; stroke:none; fill-opacity:1" cx="344.118" cy="1295.22" r="14"/>
<circle clip-path="url(#clip1902)" style="fill:#000000; stroke:none; fill-opacity:1" cx="526.886" cy="1381.28" r="18"/>
<circle clip-path="url(#clip1902)" style="fill:#ff0000; stroke:none; fill-opacity:1" cx="526.886" cy="1381.28" r="14"/>
<circle clip-path="url(#clip1902)" style="fill:#000000; stroke:none; fill-opacity:1" cx="703.762" cy="1304.35" r="18"/>
<circle clip-path="url(#clip1902)" style="fill:#ff0000; stroke:none; fill-opacity:1" cx="703.762" cy="1304.35" r="14"/>
<circle clip-path="url(#clip1902)" style="fill:#000000; stroke:none; fill-opacity:1" cx="708.464" cy="1243.07" r="18"/>
<circle clip-path="url(#clip1902)" style="fill:#ff0000; stroke:none; fill-opacity:1" cx="708.464" cy="1243.07" r="14"/>
<circle clip-path="url(#clip1902)" style="fill:#000000; stroke:none; fill-opacity:1" cx="593.327" cy="1282.18" r="18"/>
<circle clip-path="url(#clip1902)" style="fill:#ff0000; stroke:none; fill-opacity:1" cx="593.327" cy="1282.18" r="14"/>
<circle clip-path="url(#clip1902)" style="fill:#000000; stroke:none; fill-opacity:1" cx="644.391" cy="1314.78" r="18"/>
<circle clip-path="url(#clip1902)" style="fill:#ff0000; stroke:none; fill-opacity:1" cx="644.391" cy="1314.78" r="14"/>
<circle clip-path="url(#clip1902)" style="fill:#000000; stroke:none; fill-opacity:1" cx="336.074" cy="1308.26" r="18"/>
<circle clip-path="url(#clip1902)" style="fill:#ff0000; stroke:none; fill-opacity:1" cx="336.074" cy="1308.26" r="14"/>
<path clip-path="url(#clip1900)" d="
M515.709 386.635 L1080.76 386.635 L1080.76 205.195 L515.709 205.195  Z
  " fill="#ffffff" fill-rule="evenodd" fill-opacity="1"/>
<polyline clip-path="url(#clip1900)" style="stroke:#000000; stroke-width:4; stroke-opacity:1; fill:none" points="
  515.709,386.635 1080.76,386.635 1080.76,205.195 515.709,205.195 515.709,386.635 
  "/>
<circle clip-path="url(#clip1900)" style="fill:#000000; stroke:none; fill-opacity:1" cx="623.709" cy="265.675" r="25"/>
<circle clip-path="url(#clip1900)" style="fill:#0000ff; stroke:none; fill-opacity:1" cx="623.709" cy="265.675" r="21"/>
<g clip-path="url(#clip1900)">
<text style="fill:#000000; fill-opacity:1; font-family:Arial,Helvetica Neue,Helvetica,sans-serif; font-size:48px; text-anchor:start;" transform="rotate(0, 707.709, 283.175)" x="707.709" y="283.175">male (n = 11)</text>
</g>
<circle clip-path="url(#clip1900)" style="fill:#000000; stroke:none; fill-opacity:1" cx="623.709" cy="326.155" r="25"/>
<circle clip-path="url(#clip1900)" style="fill:#ff0000; stroke:none; fill-opacity:1" cx="623.709" cy="326.155" r="21"/>
<g clip-path="url(#clip1900)">
<text style="fill:#000000; fill-opacity:1; font-family:Arial,Helvetica Neue,Helvetica,sans-serif; font-size:48px; text-anchor:start;" transform="rotate(0, 707.709, 343.655)" x="707.709" y="343.655">female (n = 39)</text>
</g>
<path clip-path="url(#clip1900)" d="
M1402.37 1425.62 L2352.76 1425.62 L2352.76 121.675 L1402.37 121.675  Z
  " fill="#ffffff" fill-rule="evenodd" fill-opacity="1"/>
<defs>
  <clipPath id="clip1903">
    <rect x="1402" y="121" width="951" height="1305"/>
  </clipPath>
</defs>
<polyline clip-path="url(#clip1903)" style="stroke:#000000; stroke-width:2; stroke-opacity:0.1; fill:none" points="
  1518.69,1425.62 1518.69,121.675 
  "/>
<polyline clip-path="url(#clip1903)" style="stroke:#000000; stroke-width:2; stroke-opacity:0.1; fill:none" points="
  1714.64,1425.62 1714.64,121.675 
  "/>
<polyline clip-path="url(#clip1903)" style="stroke:#000000; stroke-width:2; stroke-opacity:0.1; fill:none" points="
  1910.59,1425.62 1910.59,121.675 
  "/>
<polyline clip-path="url(#clip1903)" style="stroke:#000000; stroke-width:2; stroke-opacity:0.1; fill:none" points="
  2106.54,1425.62 2106.54,121.675 
  "/>
<polyline clip-path="url(#clip1903)" style="stroke:#000000; stroke-width:2; stroke-opacity:0.1; fill:none" points="
  2302.49,1425.62 2302.49,121.675 
  "/>
<polyline clip-path="url(#clip1903)" style="stroke:#000000; stroke-width:2; stroke-opacity:0.1; fill:none" points="
  1402.37,1425.62 2352.76,1425.62 
  "/>
<polyline clip-path="url(#clip1903)" style="stroke:#000000; stroke-width:2; stroke-opacity:0.1; fill:none" points="
  1402.37,1164.83 2352.76,1164.83 
  "/>
<polyline clip-path="url(#clip1903)" style="stroke:#000000; stroke-width:2; stroke-opacity:0.1; fill:none" points="
  1402.37,904.041 2352.76,904.041 
  "/>
<polyline clip-path="url(#clip1903)" style="stroke:#000000; stroke-width:2; stroke-opacity:0.1; fill:none" points="
  1402.37,643.253 2352.76,643.253 
  "/>
<polyline clip-path="url(#clip1903)" style="stroke:#000000; stroke-width:2; stroke-opacity:0.1; fill:none" points="
  1402.37,382.464 2352.76,382.464 
  "/>
<polyline clip-path="url(#clip1903)" style="stroke:#000000; stroke-width:2; stroke-opacity:0.1; fill:none" points="
  1402.37,121.675 2352.76,121.675 
  "/>
<polyline clip-path="url(#clip1900)" style="stroke:#000000; stroke-width:4; stroke-opacity:1; fill:none" points="
  1402.37,1425.62 2352.76,1425.62 
  "/>
<polyline clip-path="url(#clip1900)" style="stroke:#000000; stroke-width:4; stroke-opacity:1; fill:none" points="
  1402.37,1425.62 1402.37,121.675 
  "/>
<polyline clip-path="url(#clip1900)" style="stroke:#000000; stroke-width:4; stroke-opacity:1; fill:none" points="
  1518.69,1425.62 1518.69,1409.97 
  "/>
<polyline clip-path="url(#clip1900)" style="stroke:#000000; stroke-width:4; stroke-opacity:1; fill:none" points="
  1714.64,1425.62 1714.64,1409.97 
  "/>
<polyline clip-path="url(#clip1900)" style="stroke:#000000; stroke-width:4; stroke-opacity:1; fill:none" points="
  1910.59,1425.62 1910.59,1409.97 
  "/>
<polyline clip-path="url(#clip1900)" style="stroke:#000000; stroke-width:4; stroke-opacity:1; fill:none" points="
  2106.54,1425.62 2106.54,1409.97 
  "/>
<polyline clip-path="url(#clip1900)" style="stroke:#000000; stroke-width:4; stroke-opacity:1; fill:none" points="
  2302.49,1425.62 2302.49,1409.97 
  "/>
<polyline clip-path="url(#clip1900)" style="stroke:#000000; stroke-width:4; stroke-opacity:1; fill:none" points="
  1402.37,1425.62 1413.78,1425.62 
  "/>
<polyline clip-path="url(#clip1900)" style="stroke:#000000; stroke-width:4; stroke-opacity:1; fill:none" points="
  1402.37,1164.83 1413.78,1164.83 
  "/>
<polyline clip-path="url(#clip1900)" style="stroke:#000000; stroke-width:4; stroke-opacity:1; fill:none" points="
  1402.37,904.041 1413.78,904.041 
  "/>
<polyline clip-path="url(#clip1900)" style="stroke:#000000; stroke-width:4; stroke-opacity:1; fill:none" points="
  1402.37,643.253 1413.78,643.253 
  "/>
<polyline clip-path="url(#clip1900)" style="stroke:#000000; stroke-width:4; stroke-opacity:1; fill:none" points="
  1402.37,382.464 1413.78,382.464 
  "/>
<polyline clip-path="url(#clip1900)" style="stroke:#000000; stroke-width:4; stroke-opacity:1; fill:none" points="
  1402.37,121.675 1413.78,121.675 
  "/>
<g clip-path="url(#clip1900)">
<text style="fill:#000000; fill-opacity:1; font-family:Arial,Helvetica Neue,Helvetica,sans-serif; font-size:48px; text-anchor:middle;" transform="rotate(0, 1518.69, 1479.62)" x="1518.69" y="1479.62">20</text>
</g>
<g clip-path="url(#clip1900)">
<text style="fill:#000000; fill-opacity:1; font-family:Arial,Helvetica Neue,Helvetica,sans-serif; font-size:48px; text-anchor:middle;" transform="rotate(0, 1714.64, 1479.62)" x="1714.64" y="1479.62">25</text>
</g>
<g clip-path="url(#clip1900)">
<text style="fill:#000000; fill-opacity:1; font-family:Arial,Helvetica Neue,Helvetica,sans-serif; font-size:48px; text-anchor:middle;" transform="rotate(0, 1910.59, 1479.62)" x="1910.59" y="1479.62">30</text>
</g>
<g clip-path="url(#clip1900)">
<text style="fill:#000000; fill-opacity:1; font-family:Arial,Helvetica Neue,Helvetica,sans-serif; font-size:48px; text-anchor:middle;" transform="rotate(0, 2106.54, 1479.62)" x="2106.54" y="1479.62">35</text>
</g>
<g clip-path="url(#clip1900)">
<text style="fill:#000000; fill-opacity:1; font-family:Arial,Helvetica Neue,Helvetica,sans-serif; font-size:48px; text-anchor:middle;" transform="rotate(0, 2302.49, 1479.62)" x="2302.49" y="1479.62">40</text>
</g>
<g clip-path="url(#clip1900)">
<text style="fill:#000000; fill-opacity:1; font-family:Arial,Helvetica Neue,Helvetica,sans-serif; font-size:48px; text-anchor:end;" transform="rotate(0, 1378.37, 1443.12)" x="1378.37" y="1443.12">0</text>
</g>
<g clip-path="url(#clip1900)">
<text style="fill:#000000; fill-opacity:1; font-family:Arial,Helvetica Neue,Helvetica,sans-serif; font-size:48px; text-anchor:end;" transform="rotate(0, 1378.37, 1182.33)" x="1378.37" y="1182.33">2</text>
</g>
<g clip-path="url(#clip1900)">
<text style="fill:#000000; fill-opacity:1; font-family:Arial,Helvetica Neue,Helvetica,sans-serif; font-size:48px; text-anchor:end;" transform="rotate(0, 1378.37, 921.541)" x="1378.37" y="921.541">4</text>
</g>
<g clip-path="url(#clip1900)">
<text style="fill:#000000; fill-opacity:1; font-family:Arial,Helvetica Neue,Helvetica,sans-serif; font-size:48px; text-anchor:end;" transform="rotate(0, 1378.37, 660.753)" x="1378.37" y="660.753">6</text>
</g>
<g clip-path="url(#clip1900)">
<text style="fill:#000000; fill-opacity:1; font-family:Arial,Helvetica Neue,Helvetica,sans-serif; font-size:48px; text-anchor:end;" transform="rotate(0, 1378.37, 399.964)" x="1378.37" y="399.964">8</text>
</g>
<g clip-path="url(#clip1900)">
<text style="fill:#000000; fill-opacity:1; font-family:Arial,Helvetica Neue,Helvetica,sans-serif; font-size:48px; text-anchor:end;" transform="rotate(0, 1378.37, 139.175)" x="1378.37" y="139.175">10</text>
</g>
<g clip-path="url(#clip1900)">
<text style="fill:#000000; fill-opacity:1; font-family:Arial,Helvetica Neue,Helvetica,sans-serif; font-size:84px; text-anchor:middle;" transform="rotate(0, 1877.56, 73.2)" x="1877.56" y="73.2">Predicted Time 1</text>
</g>
<g clip-path="url(#clip1900)">
<text style="fill:#000000; fill-opacity:1; font-family:Arial,Helvetica Neue,Helvetica,sans-serif; font-size:66px; text-anchor:middle;" transform="rotate(0, 1877.56, 1559.48)" x="1877.56" y="1559.48">BMI</text>
</g>
<g clip-path="url(#clip1900)">
<text style="fill:#000000; fill-opacity:1; font-family:Arial,Helvetica Neue,Helvetica,sans-serif; font-size:66px; text-anchor:middle;" transform="rotate(-90, 1289.29, 773.647)" x="1289.29" y="773.647">TSH</text>
</g>
<circle clip-path="url(#clip1903)" style="fill:#000000; stroke:none; fill-opacity:1" cx="1553.56" cy="1206.77" r="18"/>
<circle clip-path="url(#clip1903)" style="fill:#0000ff; stroke:none; fill-opacity:1" cx="1553.56" cy="1206.77" r="14"/>
<circle clip-path="url(#clip1903)" style="fill:#000000; stroke:none; fill-opacity:1" cx="1769.56" cy="1200.47" r="18"/>
<circle clip-path="url(#clip1903)" style="fill:#0000ff; stroke:none; fill-opacity:1" cx="1769.56" cy="1200.47" r="14"/>
<circle clip-path="url(#clip1903)" style="fill:#000000; stroke:none; fill-opacity:1" cx="1914.22" cy="1182.43" r="18"/>
<circle clip-path="url(#clip1903)" style="fill:#0000ff; stroke:none; fill-opacity:1" cx="1914.22" cy="1182.43" r="14"/>
<circle clip-path="url(#clip1903)" style="fill:#000000; stroke:none; fill-opacity:1" cx="1786.38" cy="1185.45" r="18"/>
<circle clip-path="url(#clip1903)" style="fill:#0000ff; stroke:none; fill-opacity:1" cx="1786.38" cy="1185.45" r="14"/>
<circle clip-path="url(#clip1903)" style="fill:#000000; stroke:none; fill-opacity:1" cx="1803.46" cy="1199.31" r="18"/>
<circle clip-path="url(#clip1903)" style="fill:#0000ff; stroke:none; fill-opacity:1" cx="1803.46" cy="1199.31" r="14"/>
<circle clip-path="url(#clip1903)" style="fill:#000000; stroke:none; fill-opacity:1" cx="1831.4" cy="1181.15" r="18"/>
<circle clip-path="url(#clip1903)" style="fill:#0000ff; stroke:none; fill-opacity:1" cx="1831.4" cy="1181.15" r="14"/>
<circle clip-path="url(#clip1903)" style="fill:#000000; stroke:none; fill-opacity:1" cx="1907.47" cy="1185.24" r="18"/>
<circle clip-path="url(#clip1903)" style="fill:#0000ff; stroke:none; fill-opacity:1" cx="1907.47" cy="1185.24" r="14"/>
<circle clip-path="url(#clip1903)" style="fill:#000000; stroke:none; fill-opacity:1" cx="1597.13" cy="1187.62" r="18"/>
<circle clip-path="url(#clip1903)" style="fill:#0000ff; stroke:none; fill-opacity:1" cx="1597.13" cy="1187.62" r="14"/>
<circle clip-path="url(#clip1903)" style="fill:#000000; stroke:none; fill-opacity:1" cx="1690.15" cy="1191.56" r="18"/>
<circle clip-path="url(#clip1903)" style="fill:#0000ff; stroke:none; fill-opacity:1" cx="1690.15" cy="1191.56" r="14"/>
<circle clip-path="url(#clip1903)" style="fill:#000000; stroke:none; fill-opacity:1" cx="1752.31" cy="1195.84" r="18"/>
<circle clip-path="url(#clip1903)" style="fill:#0000ff; stroke:none; fill-opacity:1" cx="1752.31" cy="1195.84" r="14"/>
<circle clip-path="url(#clip1903)" style="fill:#000000; stroke:none; fill-opacity:1" cx="1735.44" cy="1184.66" r="18"/>
<circle clip-path="url(#clip1903)" style="fill:#0000ff; stroke:none; fill-opacity:1" cx="1735.44" cy="1184.66" r="14"/>
<circle clip-path="url(#clip1903)" style="fill:#000000; stroke:none; fill-opacity:1" cx="1716.17" cy="1197.21" r="18"/>
<circle clip-path="url(#clip1903)" style="fill:#ff0000; stroke:none; fill-opacity:1" cx="1716.17" cy="1197.21" r="14"/>
<circle clip-path="url(#clip1903)" style="fill:#000000; stroke:none; fill-opacity:1" cx="2041.76" cy="1182.47" r="18"/>
<circle clip-path="url(#clip1903)" style="fill:#ff0000; stroke:none; fill-opacity:1" cx="2041.76" cy="1182.47" r="14"/>
<circle clip-path="url(#clip1903)" style="fill:#000000; stroke:none; fill-opacity:1" cx="1931.38" cy="1170.66" r="18"/>
<circle clip-path="url(#clip1903)" style="fill:#ff0000; stroke:none; fill-opacity:1" cx="1931.38" cy="1170.66" r="14"/>
<circle clip-path="url(#clip1903)" style="fill:#000000; stroke:none; fill-opacity:1" cx="1823.8" cy="1177.76" r="18"/>
<circle clip-path="url(#clip1903)" style="fill:#ff0000; stroke:none; fill-opacity:1" cx="1823.8" cy="1177.76" r="14"/>
<circle clip-path="url(#clip1903)" style="fill:#000000; stroke:none; fill-opacity:1" cx="1974.29" cy="1179.22" r="18"/>
<circle clip-path="url(#clip1903)" style="fill:#ff0000; stroke:none; fill-opacity:1" cx="1974.29" cy="1179.22" r="14"/>
<circle clip-path="url(#clip1903)" style="fill:#000000; stroke:none; fill-opacity:1" cx="1803.42" cy="1174.28" r="18"/>
<circle clip-path="url(#clip1903)" style="fill:#ff0000; stroke:none; fill-opacity:1" cx="1803.42" cy="1174.28" r="14"/>
<circle clip-path="url(#clip1903)" style="fill:#000000; stroke:none; fill-opacity:1" cx="1487.5" cy="1194.26" r="18"/>
<circle clip-path="url(#clip1903)" style="fill:#ff0000; stroke:none; fill-opacity:1" cx="1487.5" cy="1194.26" r="14"/>
<circle clip-path="url(#clip1903)" style="fill:#000000; stroke:none; fill-opacity:1" cx="1429.27" cy="1207.65" r="18"/>
<circle clip-path="url(#clip1903)" style="fill:#ff0000; stroke:none; fill-opacity:1" cx="1429.27" cy="1207.65" r="14"/>
<circle clip-path="url(#clip1903)" style="fill:#000000; stroke:none; fill-opacity:1" cx="1724.72" cy="1204.41" r="18"/>
<circle clip-path="url(#clip1903)" style="fill:#ff0000; stroke:none; fill-opacity:1" cx="1724.72" cy="1204.41" r="14"/>
<circle clip-path="url(#clip1903)" style="fill:#000000; stroke:none; fill-opacity:1" cx="1654.1" cy="1189.33" r="18"/>
<circle clip-path="url(#clip1903)" style="fill:#ff0000; stroke:none; fill-opacity:1" cx="1654.1" cy="1189.33" r="14"/>
<circle clip-path="url(#clip1903)" style="fill:#000000; stroke:none; fill-opacity:1" cx="1593.12" cy="1197.24" r="18"/>
<circle clip-path="url(#clip1903)" style="fill:#ff0000; stroke:none; fill-opacity:1" cx="1593.12" cy="1197.24" r="14"/>
<circle clip-path="url(#clip1903)" style="fill:#000000; stroke:none; fill-opacity:1" cx="2193.44" cy="1177.11" r="18"/>
<circle clip-path="url(#clip1903)" style="fill:#ff0000; stroke:none; fill-opacity:1" cx="2193.44" cy="1177.11" r="14"/>
<circle clip-path="url(#clip1903)" style="fill:#000000; stroke:none; fill-opacity:1" cx="1713.36" cy="1189.58" r="18"/>
<circle clip-path="url(#clip1903)" style="fill:#ff0000; stroke:none; fill-opacity:1" cx="1713.36" cy="1189.58" r="14"/>
<circle clip-path="url(#clip1903)" style="fill:#000000; stroke:none; fill-opacity:1" cx="1769.48" cy="1179.66" r="18"/>
<circle clip-path="url(#clip1903)" style="fill:#ff0000; stroke:none; fill-opacity:1" cx="1769.48" cy="1179.66" r="14"/>
<circle clip-path="url(#clip1903)" style="fill:#000000; stroke:none; fill-opacity:1" cx="1712.3" cy="1190.86" r="18"/>
<circle clip-path="url(#clip1903)" style="fill:#ff0000; stroke:none; fill-opacity:1" cx="1712.3" cy="1190.86" r="14"/>
<circle clip-path="url(#clip1903)" style="fill:#000000; stroke:none; fill-opacity:1" cx="1881.5" cy="1191.47" r="18"/>
<circle clip-path="url(#clip1903)" style="fill:#ff0000; stroke:none; fill-opacity:1" cx="1881.5" cy="1191.47" r="14"/>
<circle clip-path="url(#clip1903)" style="fill:#000000; stroke:none; fill-opacity:1" cx="2325.86" cy="1164.34" r="18"/>
<circle clip-path="url(#clip1903)" style="fill:#ff0000; stroke:none; fill-opacity:1" cx="2325.86" cy="1164.34" r="14"/>
<circle clip-path="url(#clip1903)" style="fill:#000000; stroke:none; fill-opacity:1" cx="1535.01" cy="1190.67" r="18"/>
<circle clip-path="url(#clip1903)" style="fill:#ff0000; stroke:none; fill-opacity:1" cx="1535.01" cy="1190.67" r="14"/>
<circle clip-path="url(#clip1903)" style="fill:#000000; stroke:none; fill-opacity:1" cx="1664.99" cy="1200.3" r="18"/>
<circle clip-path="url(#clip1903)" style="fill:#ff0000; stroke:none; fill-opacity:1" cx="1664.99" cy="1200.3" r="14"/>
<circle clip-path="url(#clip1903)" style="fill:#000000; stroke:none; fill-opacity:1" cx="1712.3" cy="1190.77" r="18"/>
<circle clip-path="url(#clip1903)" style="fill:#ff0000; stroke:none; fill-opacity:1" cx="1712.3" cy="1190.77" r="14"/>
<circle clip-path="url(#clip1903)" style="fill:#000000; stroke:none; fill-opacity:1" cx="1819.03" cy="1189.36" r="18"/>
<circle clip-path="url(#clip1903)" style="fill:#ff0000; stroke:none; fill-opacity:1" cx="1819.03" cy="1189.36" r="14"/>
<circle clip-path="url(#clip1903)" style="fill:#000000; stroke:none; fill-opacity:1" cx="1923.91" cy="1183.26" r="18"/>
<circle clip-path="url(#clip1903)" style="fill:#ff0000; stroke:none; fill-opacity:1" cx="1923.91" cy="1183.26" r="14"/>
<circle clip-path="url(#clip1903)" style="fill:#000000; stroke:none; fill-opacity:1" cx="1902.17" cy="1191.42" r="18"/>
<circle clip-path="url(#clip1903)" style="fill:#ff0000; stroke:none; fill-opacity:1" cx="1902.17" cy="1191.42" r="14"/>
<circle clip-path="url(#clip1903)" style="fill:#000000; stroke:none; fill-opacity:1" cx="1991.56" cy="1181.45" r="18"/>
<circle clip-path="url(#clip1903)" style="fill:#ff0000; stroke:none; fill-opacity:1" cx="1991.56" cy="1181.45" r="14"/>
<circle clip-path="url(#clip1903)" style="fill:#000000; stroke:none; fill-opacity:1" cx="1937.4" cy="1191.91" r="18"/>
<circle clip-path="url(#clip1903)" style="fill:#ff0000; stroke:none; fill-opacity:1" cx="1937.4" cy="1191.91" r="14"/>
<circle clip-path="url(#clip1903)" style="fill:#000000; stroke:none; fill-opacity:1" cx="1909.51" cy="1183.83" r="18"/>
<circle clip-path="url(#clip1903)" style="fill:#ff0000; stroke:none; fill-opacity:1" cx="1909.51" cy="1183.83" r="14"/>
<circle clip-path="url(#clip1903)" style="fill:#000000; stroke:none; fill-opacity:1" cx="1594.17" cy="1209.69" r="18"/>
<circle clip-path="url(#clip1903)" style="fill:#ff0000; stroke:none; fill-opacity:1" cx="1594.17" cy="1209.69" r="14"/>
<circle clip-path="url(#clip1903)" style="fill:#000000; stroke:none; fill-opacity:1" cx="1975.5" cy="1165.44" r="18"/>
<circle clip-path="url(#clip1903)" style="fill:#ff0000; stroke:none; fill-opacity:1" cx="1975.5" cy="1165.44" r="14"/>
<circle clip-path="url(#clip1903)" style="fill:#000000; stroke:none; fill-opacity:1" cx="1831.94" cy="1179.92" r="18"/>
<circle clip-path="url(#clip1903)" style="fill:#ff0000; stroke:none; fill-opacity:1" cx="1831.94" cy="1179.92" r="14"/>
<circle clip-path="url(#clip1903)" style="fill:#000000; stroke:none; fill-opacity:1" cx="1575.54" cy="1186.11" r="18"/>
<circle clip-path="url(#clip1903)" style="fill:#ff0000; stroke:none; fill-opacity:1" cx="1575.54" cy="1186.11" r="14"/>
<circle clip-path="url(#clip1903)" style="fill:#000000; stroke:none; fill-opacity:1" cx="1924.15" cy="1193.56" r="18"/>
<circle clip-path="url(#clip1903)" style="fill:#ff0000; stroke:none; fill-opacity:1" cx="1924.15" cy="1193.56" r="14"/>
<circle clip-path="url(#clip1903)" style="fill:#000000; stroke:none; fill-opacity:1" cx="1776.35" cy="1183.39" r="18"/>
<circle clip-path="url(#clip1903)" style="fill:#ff0000; stroke:none; fill-opacity:1" cx="1776.35" cy="1183.39" r="14"/>
<circle clip-path="url(#clip1903)" style="fill:#000000; stroke:none; fill-opacity:1" cx="1544.12" cy="1196.74" r="18"/>
<circle clip-path="url(#clip1903)" style="fill:#ff0000; stroke:none; fill-opacity:1" cx="1544.12" cy="1196.74" r="14"/>
<circle clip-path="url(#clip1903)" style="fill:#000000; stroke:none; fill-opacity:1" cx="1726.89" cy="1196.7" r="18"/>
<circle clip-path="url(#clip1903)" style="fill:#ff0000; stroke:none; fill-opacity:1" cx="1726.89" cy="1196.7" r="14"/>
<circle clip-path="url(#clip1903)" style="fill:#000000; stroke:none; fill-opacity:1" cx="1903.76" cy="1167.62" r="18"/>
<circle clip-path="url(#clip1903)" style="fill:#ff0000; stroke:none; fill-opacity:1" cx="1903.76" cy="1167.62" r="14"/>
<circle clip-path="url(#clip1903)" style="fill:#000000; stroke:none; fill-opacity:1" cx="1908.46" cy="1199.14" r="18"/>
<circle clip-path="url(#clip1903)" style="fill:#ff0000; stroke:none; fill-opacity:1" cx="1908.46" cy="1199.14" r="14"/>
<circle clip-path="url(#clip1903)" style="fill:#000000; stroke:none; fill-opacity:1" cx="1793.33" cy="1178.81" r="18"/>
<circle clip-path="url(#clip1903)" style="fill:#ff0000; stroke:none; fill-opacity:1" cx="1793.33" cy="1178.81" r="14"/>
<circle clip-path="url(#clip1903)" style="fill:#000000; stroke:none; fill-opacity:1" cx="1844.39" cy="1169.47" r="18"/>
<circle clip-path="url(#clip1903)" style="fill:#ff0000; stroke:none; fill-opacity:1" cx="1844.39" cy="1169.47" r="14"/>
<circle clip-path="url(#clip1903)" style="fill:#000000; stroke:none; fill-opacity:1" cx="1536.07" cy="1194.48" r="18"/>
<circle clip-path="url(#clip1903)" style="fill:#ff0000; stroke:none; fill-opacity:1" cx="1536.07" cy="1194.48" r="14"/>
<path clip-path="url(#clip1900)" d="
M1715.71 386.635 L2280.76 386.635 L2280.76 205.195 L1715.71 205.195  Z
  " fill="#ffffff" fill-rule="evenodd" fill-opacity="1"/>
<polyline clip-path="url(#clip1900)" style="stroke:#000000; stroke-width:4; stroke-opacity:1; fill:none" points="
  1715.71,386.635 2280.76,386.635 2280.76,205.195 1715.71,205.195 1715.71,386.635 
  "/>
<circle clip-path="url(#clip1900)" style="fill:#000000; stroke:none; fill-opacity:1" cx="1823.71" cy="265.675" r="25"/>
<circle clip-path="url(#clip1900)" style="fill:#0000ff; stroke:none; fill-opacity:1" cx="1823.71" cy="265.675" r="21"/>
<g clip-path="url(#clip1900)">
<text style="fill:#000000; fill-opacity:1; font-family:Arial,Helvetica Neue,Helvetica,sans-serif; font-size:48px; text-anchor:start;" transform="rotate(0, 1907.71, 283.175)" x="1907.71" y="283.175">male (n = 11)</text>
</g>
<circle clip-path="url(#clip1900)" style="fill:#000000; stroke:none; fill-opacity:1" cx="1823.71" cy="326.155" r="25"/>
<circle clip-path="url(#clip1900)" style="fill:#ff0000; stroke:none; fill-opacity:1" cx="1823.71" cy="326.155" r="21"/>
<g clip-path="url(#clip1900)">
<text style="fill:#000000; fill-opacity:1; font-family:Arial,Helvetica Neue,Helvetica,sans-serif; font-size:48px; text-anchor:start;" transform="rotate(0, 1907.71, 343.655)" x="1907.71" y="343.655">female (n = 39)</text>
</g>
</svg>
