<?xml version="1.0" encoding="utf-8"?>
<svg xmlns="http://www.w3.org/2000/svg" xmlns:xlink="http://www.w3.org/1999/xlink" width="600" height="400" viewBox="0 0 2400 1600">
<defs>
  <clipPath id="clip8000">
    <rect x="0" y="0" width="2400" height="1600"/>
  </clipPath>
</defs>
<path clip-path="url(#clip8000)" d="
M0 1600 L2400 1600 L2400 0 L0 0  Z
  " fill="#ffffff" fill-rule="evenodd" fill-opacity="1"/>
<defs>
  <clipPath id="clip8001">
    <rect x="480" y="0" width="1681" height="1600"/>
  </clipPath>
</defs>
<path clip-path="url(#clip8000)" d="
M215.754 1425.62 L1139.37 1425.62 L1139.37 121.675 L215.754 121.675  Z
  " fill="#ffffff" fill-rule="evenodd" fill-opacity="1"/>
<defs>
  <clipPath id="clip8002">
    <rect x="215" y="121" width="925" height="1305"/>
  </clipPath>
</defs>
<polyline clip-path="url(#clip8002)" style="stroke:#000000; stroke-width:2; stroke-opacity:0.1; fill:none" points="
  240.995,1425.62 240.995,121.675 
  "/>
<polyline clip-path="url(#clip8002)" style="stroke:#000000; stroke-width:2; stroke-opacity:0.1; fill:none" points="
  420.838,1425.62 420.838,121.675 
  "/>
<polyline clip-path="url(#clip8002)" style="stroke:#000000; stroke-width:2; stroke-opacity:0.1; fill:none" points="
  600.681,1425.62 600.681,121.675 
  "/>
<polyline clip-path="url(#clip8002)" style="stroke:#000000; stroke-width:2; stroke-opacity:0.1; fill:none" points="
  780.525,1425.62 780.525,121.675 
  "/>
<polyline clip-path="url(#clip8002)" style="stroke:#000000; stroke-width:2; stroke-opacity:0.1; fill:none" points="
  960.368,1425.62 960.368,121.675 
  "/>
<polyline clip-path="url(#clip8002)" style="stroke:#000000; stroke-width:2; stroke-opacity:0.1; fill:none" points="
  215.754,1425.62 1139.37,1425.62 
  "/>
<polyline clip-path="url(#clip8002)" style="stroke:#000000; stroke-width:2; stroke-opacity:0.1; fill:none" points="
  215.754,1099.63 1139.37,1099.63 
  "/>
<polyline clip-path="url(#clip8002)" style="stroke:#000000; stroke-width:2; stroke-opacity:0.1; fill:none" points="
  215.754,773.647 1139.37,773.647 
  "/>
<polyline clip-path="url(#clip8002)" style="stroke:#000000; stroke-width:2; stroke-opacity:0.1; fill:none" points="
  215.754,447.661 1139.37,447.661 
  "/>
<polyline clip-path="url(#clip8002)" style="stroke:#000000; stroke-width:2; stroke-opacity:0.1; fill:none" points="
  215.754,121.675 1139.37,121.675 
  "/>
<polyline clip-path="url(#clip8000)" style="stroke:#000000; stroke-width:4; stroke-opacity:1; fill:none" points="
  215.754,1425.62 1139.37,1425.62 
  "/>
<polyline clip-path="url(#clip8000)" style="stroke:#000000; stroke-width:4; stroke-opacity:1; fill:none" points="
  215.754,1425.62 215.754,121.675 
  "/>
<polyline clip-path="url(#clip8000)" style="stroke:#000000; stroke-width:4; stroke-opacity:1; fill:none" points="
  240.995,1425.62 240.995,1409.97 
  "/>
<polyline clip-path="url(#clip8000)" style="stroke:#000000; stroke-width:4; stroke-opacity:1; fill:none" points="
  420.838,1425.62 420.838,1409.97 
  "/>
<polyline clip-path="url(#clip8000)" style="stroke:#000000; stroke-width:4; stroke-opacity:1; fill:none" points="
  600.681,1425.62 600.681,1409.97 
  "/>
<polyline clip-path="url(#clip8000)" style="stroke:#000000; stroke-width:4; stroke-opacity:1; fill:none" points="
  780.525,1425.62 780.525,1409.97 
  "/>
<polyline clip-path="url(#clip8000)" style="stroke:#000000; stroke-width:4; stroke-opacity:1; fill:none" points="
  960.368,1425.62 960.368,1409.97 
  "/>
<polyline clip-path="url(#clip8000)" style="stroke:#000000; stroke-width:4; stroke-opacity:1; fill:none" points="
  215.754,1425.62 226.838,1425.62 
  "/>
<polyline clip-path="url(#clip8000)" style="stroke:#000000; stroke-width:4; stroke-opacity:1; fill:none" points="
  215.754,1099.63 226.838,1099.63 
  "/>
<polyline clip-path="url(#clip8000)" style="stroke:#000000; stroke-width:4; stroke-opacity:1; fill:none" points="
  215.754,773.647 226.838,773.647 
  "/>
<polyline clip-path="url(#clip8000)" style="stroke:#000000; stroke-width:4; stroke-opacity:1; fill:none" points="
  215.754,447.661 226.838,447.661 
  "/>
<polyline clip-path="url(#clip8000)" style="stroke:#000000; stroke-width:4; stroke-opacity:1; fill:none" points="
  215.754,121.675 226.838,121.675 
  "/>
<g clip-path="url(#clip8000)">
<text style="fill:#000000; fill-opacity:1; font-family:Arial,Helvetica Neue,Helvetica,sans-serif; font-size:48px; text-anchor:middle;" transform="rotate(0, 240.995, 1479.62)" x="240.995" y="1479.62">0</text>
</g>
<g clip-path="url(#clip8000)">
<text style="fill:#000000; fill-opacity:1; font-family:Arial,Helvetica Neue,Helvetica,sans-serif; font-size:48px; text-anchor:middle;" transform="rotate(0, 420.838, 1479.62)" x="420.838" y="1479.62">2</text>
</g>
<g clip-path="url(#clip8000)">
<text style="fill:#000000; fill-opacity:1; font-family:Arial,Helvetica Neue,Helvetica,sans-serif; font-size:48px; text-anchor:middle;" transform="rotate(0, 600.681, 1479.62)" x="600.681" y="1479.62">4</text>
</g>
<g clip-path="url(#clip8000)">
<text style="fill:#000000; fill-opacity:1; font-family:Arial,Helvetica Neue,Helvetica,sans-serif; font-size:48px; text-anchor:middle;" transform="rotate(0, 780.525, 1479.62)" x="780.525" y="1479.62">6</text>
</g>
<g clip-path="url(#clip8000)">
<text style="fill:#000000; fill-opacity:1; font-family:Arial,Helvetica Neue,Helvetica,sans-serif; font-size:48px; text-anchor:middle;" transform="rotate(0, 960.368, 1479.62)" x="960.368" y="1479.62">8</text>
</g>
<g clip-path="url(#clip8000)">
<text style="fill:#000000; fill-opacity:1; font-family:Arial,Helvetica Neue,Helvetica,sans-serif; font-size:48px; text-anchor:end;" transform="rotate(0, 191.754, 1443.12)" x="191.754" y="1443.12">0.0</text>
</g>
<g clip-path="url(#clip8000)">
<text style="fill:#000000; fill-opacity:1; font-family:Arial,Helvetica Neue,Helvetica,sans-serif; font-size:48px; text-anchor:end;" transform="rotate(0, 191.754, 1117.13)" x="191.754" y="1117.13">0.5</text>
</g>
<g clip-path="url(#clip8000)">
<text style="fill:#000000; fill-opacity:1; font-family:Arial,Helvetica Neue,Helvetica,sans-serif; font-size:48px; text-anchor:end;" transform="rotate(0, 191.754, 791.147)" x="191.754" y="791.147">1.0</text>
</g>
<g clip-path="url(#clip8000)">
<text style="fill:#000000; fill-opacity:1; font-family:Arial,Helvetica Neue,Helvetica,sans-serif; font-size:48px; text-anchor:end;" transform="rotate(0, 191.754, 465.161)" x="191.754" y="465.161">1.5</text>
</g>
<g clip-path="url(#clip8000)">
<text style="fill:#000000; fill-opacity:1; font-family:Arial,Helvetica Neue,Helvetica,sans-serif; font-size:48px; text-anchor:end;" transform="rotate(0, 191.754, 139.175)" x="191.754" y="139.175">2.0</text>
</g>
<g clip-path="url(#clip8000)">
<text style="fill:#000000; fill-opacity:1; font-family:Arial,Helvetica Neue,Helvetica,sans-serif; font-size:84px; text-anchor:middle;" transform="rotate(0, 677.564, 73.2)" x="677.564" y="73.2">Data Time 3</text>
</g>
<g clip-path="url(#clip8000)">
<text style="fill:#000000; fill-opacity:1; font-family:Arial,Helvetica Neue,Helvetica,sans-serif; font-size:66px; text-anchor:middle;" transform="rotate(0, 677.564, 1559.48)" x="677.564" y="1559.48">TSH</text>
</g>
<g clip-path="url(#clip8000)">
<text style="fill:#000000; fill-opacity:1; font-family:Arial,Helvetica Neue,Helvetica,sans-serif; font-size:66px; text-anchor:middle;" transform="rotate(-90, 89.2861, 773.647)" x="89.2861" y="773.647">TT3 / FT4</text>
</g>
<circle clip-path="url(#clip8002)" style="fill:#000000; stroke:none; fill-opacity:1" cx="321.925" cy="858.254" r="18"/>
<circle clip-path="url(#clip8002)" style="fill:#0000ff; stroke:none; fill-opacity:1" cx="321.925" cy="858.254" r="14"/>
<circle clip-path="url(#clip8002)" style="fill:#000000; stroke:none; fill-opacity:1" cx="1113.23" cy="1130.31" r="18"/>
<circle clip-path="url(#clip8002)" style="fill:#0000ff; stroke:none; fill-opacity:1" cx="1113.23" cy="1130.31" r="14"/>
<circle clip-path="url(#clip8002)" style="fill:#000000; stroke:none; fill-opacity:1" cx="474.791" cy="806.245" r="18"/>
<circle clip-path="url(#clip8002)" style="fill:#0000ff; stroke:none; fill-opacity:1" cx="474.791" cy="806.245" r="14"/>
<circle clip-path="url(#clip8002)" style="fill:#000000; stroke:none; fill-opacity:1" cx="277.863" cy="920.104" r="18"/>
<circle clip-path="url(#clip8002)" style="fill:#0000ff; stroke:none; fill-opacity:1" cx="277.863" cy="920.104" r="14"/>
<circle clip-path="url(#clip8002)" style="fill:#000000; stroke:none; fill-opacity:1" cx="244.592" cy="654.272" r="18"/>
<circle clip-path="url(#clip8002)" style="fill:#0000ff; stroke:none; fill-opacity:1" cx="244.592" cy="654.272" r="14"/>
<circle clip-path="url(#clip8002)" style="fill:#000000; stroke:none; fill-opacity:1" cx="309.335" cy="797.269" r="18"/>
<circle clip-path="url(#clip8002)" style="fill:#0000ff; stroke:none; fill-opacity:1" cx="309.335" cy="797.269" r="14"/>
<circle clip-path="url(#clip8002)" style="fill:#000000; stroke:none; fill-opacity:1" cx="292.25" cy="1046.57" r="18"/>
<circle clip-path="url(#clip8002)" style="fill:#0000ff; stroke:none; fill-opacity:1" cx="292.25" cy="1046.57" r="14"/>
<circle clip-path="url(#clip8002)" style="fill:#000000; stroke:none; fill-opacity:1" cx="591.689" cy="1034.44" r="18"/>
<circle clip-path="url(#clip8002)" style="fill:#0000ff; stroke:none; fill-opacity:1" cx="591.689" cy="1034.44" r="14"/>
<circle clip-path="url(#clip8002)" style="fill:#000000; stroke:none; fill-opacity:1" cx="564.713" cy="797.141" r="18"/>
<circle clip-path="url(#clip8002)" style="fill:#0000ff; stroke:none; fill-opacity:1" cx="564.713" cy="797.141" r="14"/>
<circle clip-path="url(#clip8002)" style="fill:#000000; stroke:none; fill-opacity:1" cx="249.987" cy="888.701" r="18"/>
<circle clip-path="url(#clip8002)" style="fill:#0000ff; stroke:none; fill-opacity:1" cx="249.987" cy="888.701" r="14"/>
<circle clip-path="url(#clip8002)" style="fill:#000000; stroke:none; fill-opacity:1" cx="241.894" cy="811.749" r="18"/>
<circle clip-path="url(#clip8002)" style="fill:#0000ff; stroke:none; fill-opacity:1" cx="241.894" cy="811.749" r="14"/>
<circle clip-path="url(#clip8002)" style="fill:#000000; stroke:none; fill-opacity:1" cx="281.46" cy="862.736" r="18"/>
<circle clip-path="url(#clip8002)" style="fill:#ff0000; stroke:none; fill-opacity:1" cx="281.46" cy="862.736" r="14"/>
<circle clip-path="url(#clip8002)" style="fill:#000000; stroke:none; fill-opacity:1" cx="274.266" cy="313.08" r="18"/>
<circle clip-path="url(#clip8002)" style="fill:#ff0000; stroke:none; fill-opacity:1" cx="274.266" cy="313.08" r="14"/>
<circle clip-path="url(#clip8002)" style="fill:#000000; stroke:none; fill-opacity:1" cx="499.969" cy="1106.64" r="18"/>
<circle clip-path="url(#clip8002)" style="fill:#ff0000; stroke:none; fill-opacity:1" cx="499.969" cy="1106.64" r="14"/>
<circle clip-path="url(#clip8002)" style="fill:#000000; stroke:none; fill-opacity:1" cx="308.436" cy="834.498" r="18"/>
<circle clip-path="url(#clip8002)" style="fill:#ff0000; stroke:none; fill-opacity:1" cx="308.436" cy="834.498" r="14"/>
<circle clip-path="url(#clip8002)" style="fill:#000000; stroke:none; fill-opacity:1" cx="249.987" cy="800.336" r="18"/>
<circle clip-path="url(#clip8002)" style="fill:#ff0000; stroke:none; fill-opacity:1" cx="249.987" cy="800.336" r="14"/>
<circle clip-path="url(#clip8002)" style="fill:#000000; stroke:none; fill-opacity:1" cx="537.736" cy="1127.46" r="18"/>
<circle clip-path="url(#clip8002)" style="fill:#ff0000; stroke:none; fill-opacity:1" cx="537.736" cy="1127.46" r="14"/>
<circle clip-path="url(#clip8002)" style="fill:#000000; stroke:none; fill-opacity:1" cx="241.894" cy="941.193" r="18"/>
<circle clip-path="url(#clip8002)" style="fill:#ff0000; stroke:none; fill-opacity:1" cx="241.894" cy="941.193" r="14"/>
<circle clip-path="url(#clip8002)" style="fill:#000000; stroke:none; fill-opacity:1" cx="284.157" cy="708.45" r="18"/>
<circle clip-path="url(#clip8002)" style="fill:#ff0000; stroke:none; fill-opacity:1" cx="284.157" cy="708.45" r="14"/>
<circle clip-path="url(#clip8002)" style="fill:#000000; stroke:none; fill-opacity:1" cx="375.877" cy="601.763" r="18"/>
<circle clip-path="url(#clip8002)" style="fill:#ff0000; stroke:none; fill-opacity:1" cx="375.877" cy="601.763" r="14"/>
<circle clip-path="url(#clip8002)" style="fill:#000000; stroke:none; fill-opacity:1" cx="320.126" cy="989.613" r="18"/>
<circle clip-path="url(#clip8002)" style="fill:#ff0000; stroke:none; fill-opacity:1" cx="320.126" cy="989.613" r="14"/>
<circle clip-path="url(#clip8002)" style="fill:#000000; stroke:none; fill-opacity:1" cx="297.646" cy="846.088" r="18"/>
<circle clip-path="url(#clip8002)" style="fill:#ff0000; stroke:none; fill-opacity:1" cx="297.646" cy="846.088" r="14"/>
<circle clip-path="url(#clip8002)" style="fill:#000000; stroke:none; fill-opacity:1" cx="243.693" cy="1074.81" r="18"/>
<circle clip-path="url(#clip8002)" style="fill:#ff0000; stroke:none; fill-opacity:1" cx="243.693" cy="1074.81" r="14"/>
<circle clip-path="url(#clip8002)" style="fill:#000000; stroke:none; fill-opacity:1" cx="306.638" cy="1000.08" r="18"/>
<circle clip-path="url(#clip8002)" style="fill:#ff0000; stroke:none; fill-opacity:1" cx="306.638" cy="1000.08" r="14"/>
<circle clip-path="url(#clip8002)" style="fill:#000000; stroke:none; fill-opacity:1" cx="244.592" cy="883.667" r="18"/>
<circle clip-path="url(#clip8002)" style="fill:#ff0000; stroke:none; fill-opacity:1" cx="244.592" cy="883.667" r="14"/>
<circle clip-path="url(#clip8002)" style="fill:#000000; stroke:none; fill-opacity:1" cx="371.381" cy="921.822" r="18"/>
<circle clip-path="url(#clip8002)" style="fill:#ff0000; stroke:none; fill-opacity:1" cx="371.381" cy="921.822" r="14"/>
<circle clip-path="url(#clip8002)" style="fill:#000000; stroke:none; fill-opacity:1" cx="698.696" cy="900.726" r="18"/>
<circle clip-path="url(#clip8002)" style="fill:#ff0000; stroke:none; fill-opacity:1" cx="698.696" cy="900.726" r="14"/>
<circle clip-path="url(#clip8002)" style="fill:#000000; stroke:none; fill-opacity:1" cx="276.964" cy="829.371" r="18"/>
<circle clip-path="url(#clip8002)" style="fill:#ff0000; stroke:none; fill-opacity:1" cx="276.964" cy="829.371" r="14"/>
<circle clip-path="url(#clip8002)" style="fill:#000000; stroke:none; fill-opacity:1" cx="318.328" cy="537.588" r="18"/>
<circle clip-path="url(#clip8002)" style="fill:#ff0000; stroke:none; fill-opacity:1" cx="318.328" cy="537.588" r="14"/>
<circle clip-path="url(#clip8002)" style="fill:#000000; stroke:none; fill-opacity:1" cx="366.885" cy="865.33" r="18"/>
<circle clip-path="url(#clip8002)" style="fill:#ff0000; stroke:none; fill-opacity:1" cx="366.885" cy="865.33" r="14"/>
<circle clip-path="url(#clip8002)" style="fill:#000000; stroke:none; fill-opacity:1" cx="573.705" cy="880.435" r="18"/>
<circle clip-path="url(#clip8002)" style="fill:#ff0000; stroke:none; fill-opacity:1" cx="573.705" cy="880.435" r="14"/>
<circle clip-path="url(#clip8002)" style="fill:#000000; stroke:none; fill-opacity:1" cx="241.894" cy="995.317" r="18"/>
<circle clip-path="url(#clip8002)" style="fill:#ff0000; stroke:none; fill-opacity:1" cx="241.894" cy="995.317" r="14"/>
<circle clip-path="url(#clip8002)" style="fill:#000000; stroke:none; fill-opacity:1" cx="241.894" cy="926.324" r="18"/>
<circle clip-path="url(#clip8002)" style="fill:#ff0000; stroke:none; fill-opacity:1" cx="241.894" cy="926.324" r="14"/>
<circle clip-path="url(#clip8002)" style="fill:#000000; stroke:none; fill-opacity:1" cx="564.713" cy="787.519" r="18"/>
<circle clip-path="url(#clip8002)" style="fill:#ff0000; stroke:none; fill-opacity:1" cx="564.713" cy="787.519" r="14"/>
<circle clip-path="url(#clip8002)" style="fill:#000000; stroke:none; fill-opacity:1" cx="241.894" cy="752.784" r="18"/>
<circle clip-path="url(#clip8002)" style="fill:#ff0000; stroke:none; fill-opacity:1" cx="241.894" cy="752.784" r="14"/>
<circle clip-path="url(#clip8002)" style="fill:#000000; stroke:none; fill-opacity:1" cx="244.592" cy="692.36" r="18"/>
<circle clip-path="url(#clip8002)" style="fill:#ff0000; stroke:none; fill-opacity:1" cx="244.592" cy="692.36" r="14"/>
<circle clip-path="url(#clip8002)" style="fill:#000000; stroke:none; fill-opacity:1" cx="243.693" cy="651.402" r="18"/>
<circle clip-path="url(#clip8002)" style="fill:#ff0000; stroke:none; fill-opacity:1" cx="243.693" cy="651.402" r="14"/>
<circle clip-path="url(#clip8002)" style="fill:#000000; stroke:none; fill-opacity:1" cx="256.282" cy="816.167" r="18"/>
<circle clip-path="url(#clip8002)" style="fill:#ff0000; stroke:none; fill-opacity:1" cx="256.282" cy="816.167" r="14"/>
<circle clip-path="url(#clip8002)" style="fill:#000000; stroke:none; fill-opacity:1" cx="294.049" cy="798.25" r="18"/>
<circle clip-path="url(#clip8002)" style="fill:#ff0000; stroke:none; fill-opacity:1" cx="294.049" cy="798.25" r="14"/>
<circle clip-path="url(#clip8002)" style="fill:#000000; stroke:none; fill-opacity:1" cx="564.713" cy="950.453" r="18"/>
<circle clip-path="url(#clip8002)" style="fill:#ff0000; stroke:none; fill-opacity:1" cx="564.713" cy="950.453" r="14"/>
<circle clip-path="url(#clip8002)" style="fill:#000000; stroke:none; fill-opacity:1" cx="245.491" cy="850.651" r="18"/>
<circle clip-path="url(#clip8002)" style="fill:#ff0000; stroke:none; fill-opacity:1" cx="245.491" cy="850.651" r="14"/>
<circle clip-path="url(#clip8002)" style="fill:#000000; stroke:none; fill-opacity:1" cx="241.894" cy="701.705" r="18"/>
<circle clip-path="url(#clip8002)" style="fill:#ff0000; stroke:none; fill-opacity:1" cx="241.894" cy="701.705" r="14"/>
<circle clip-path="url(#clip8002)" style="fill:#000000; stroke:none; fill-opacity:1" cx="254.483" cy="671.377" r="18"/>
<circle clip-path="url(#clip8002)" style="fill:#ff0000; stroke:none; fill-opacity:1" cx="254.483" cy="671.377" r="14"/>
<circle clip-path="url(#clip8002)" style="fill:#000000; stroke:none; fill-opacity:1" cx="357.893" cy="815.042" r="18"/>
<circle clip-path="url(#clip8002)" style="fill:#ff0000; stroke:none; fill-opacity:1" cx="357.893" cy="815.042" r="14"/>
<circle clip-path="url(#clip8002)" style="fill:#000000; stroke:none; fill-opacity:1" cx="279.661" cy="739.69" r="18"/>
<circle clip-path="url(#clip8002)" style="fill:#ff0000; stroke:none; fill-opacity:1" cx="279.661" cy="739.69" r="14"/>
<circle clip-path="url(#clip8002)" style="fill:#000000; stroke:none; fill-opacity:1" cx="251.786" cy="538.06" r="18"/>
<circle clip-path="url(#clip8002)" style="fill:#ff0000; stroke:none; fill-opacity:1" cx="251.786" cy="538.06" r="14"/>
<circle clip-path="url(#clip8002)" style="fill:#000000; stroke:none; fill-opacity:1" cx="243.423" cy="827.19" r="18"/>
<circle clip-path="url(#clip8002)" style="fill:#ff0000; stroke:none; fill-opacity:1" cx="243.423" cy="827.19" r="14"/>
<circle clip-path="url(#clip8002)" style="fill:#000000; stroke:none; fill-opacity:1" cx="735.564" cy="773.647" r="18"/>
<circle clip-path="url(#clip8002)" style="fill:#ff0000; stroke:none; fill-opacity:1" cx="735.564" cy="773.647" r="14"/>
<circle clip-path="url(#clip8002)" style="fill:#000000; stroke:none; fill-opacity:1" cx="303.94" cy="913.355" r="18"/>
<circle clip-path="url(#clip8002)" style="fill:#ff0000; stroke:none; fill-opacity:1" cx="303.94" cy="913.355" r="14"/>
<circle clip-path="url(#clip8002)" style="fill:#000000; stroke:none; fill-opacity:1" cx="348.901" cy="860.576" r="18"/>
<circle clip-path="url(#clip8002)" style="fill:#ff0000; stroke:none; fill-opacity:1" cx="348.901" cy="860.576" r="14"/>
<path clip-path="url(#clip8000)" d="
M502.328 386.635 L1067.37 386.635 L1067.37 205.195 L502.328 205.195  Z
  " fill="#ffffff" fill-rule="evenodd" fill-opacity="1"/>
<polyline clip-path="url(#clip8000)" style="stroke:#000000; stroke-width:4; stroke-opacity:1; fill:none" points="
  502.328,386.635 1067.37,386.635 1067.37,205.195 502.328,205.195 502.328,386.635 
  "/>
<circle clip-path="url(#clip8000)" style="fill:#000000; stroke:none; fill-opacity:1" cx="610.328" cy="265.675" r="25"/>
<circle clip-path="url(#clip8000)" style="fill:#0000ff; stroke:none; fill-opacity:1" cx="610.328" cy="265.675" r="21"/>
<g clip-path="url(#clip8000)">
<text style="fill:#000000; fill-opacity:1; font-family:Arial,Helvetica Neue,Helvetica,sans-serif; font-size:48px; text-anchor:start;" transform="rotate(0, 694.328, 283.175)" x="694.328" y="283.175">male (n = 11)</text>
</g>
<circle clip-path="url(#clip8000)" style="fill:#000000; stroke:none; fill-opacity:1" cx="610.328" cy="326.155" r="25"/>
<circle clip-path="url(#clip8000)" style="fill:#ff0000; stroke:none; fill-opacity:1" cx="610.328" cy="326.155" r="21"/>
<g clip-path="url(#clip8000)">
<text style="fill:#000000; fill-opacity:1; font-family:Arial,Helvetica Neue,Helvetica,sans-serif; font-size:48px; text-anchor:start;" transform="rotate(0, 694.328, 343.655)" x="694.328" y="343.655">female (n = 39)</text>
</g>
<path clip-path="url(#clip8000)" d="
M1429.14 1425.62 L2352.76 1425.62 L2352.76 121.675 L1429.14 121.675  Z
  " fill="#ffffff" fill-rule="evenodd" fill-opacity="1"/>
<defs>
  <clipPath id="clip8003">
    <rect x="1429" y="121" width="925" height="1305"/>
  </clipPath>
</defs>
<polyline clip-path="url(#clip8003)" style="stroke:#000000; stroke-width:2; stroke-opacity:0.1; fill:none" points="
  1454.38,1425.62 1454.38,121.675 
  "/>
<polyline clip-path="url(#clip8003)" style="stroke:#000000; stroke-width:2; stroke-opacity:0.1; fill:none" points="
  1634.22,1425.62 1634.22,121.675 
  "/>
<polyline clip-path="url(#clip8003)" style="stroke:#000000; stroke-width:2; stroke-opacity:0.1; fill:none" points="
  1814.06,1425.62 1814.06,121.675 
  "/>
<polyline clip-path="url(#clip8003)" style="stroke:#000000; stroke-width:2; stroke-opacity:0.1; fill:none" points="
  1993.91,1425.62 1993.91,121.675 
  "/>
<polyline clip-path="url(#clip8003)" style="stroke:#000000; stroke-width:2; stroke-opacity:0.1; fill:none" points="
  2173.75,1425.62 2173.75,121.675 
  "/>
<polyline clip-path="url(#clip8003)" style="stroke:#000000; stroke-width:2; stroke-opacity:0.1; fill:none" points="
  1429.14,1197.86 2352.76,1197.86 
  "/>
<polyline clip-path="url(#clip8003)" style="stroke:#000000; stroke-width:2; stroke-opacity:0.1; fill:none" points="
  1429.14,900.421 2352.76,900.421 
  "/>
<polyline clip-path="url(#clip8003)" style="stroke:#000000; stroke-width:2; stroke-opacity:0.1; fill:none" points="
  1429.14,602.98 2352.76,602.98 
  "/>
<polyline clip-path="url(#clip8003)" style="stroke:#000000; stroke-width:2; stroke-opacity:0.1; fill:none" points="
  1429.14,305.539 2352.76,305.539 
  "/>
<polyline clip-path="url(#clip8000)" style="stroke:#000000; stroke-width:4; stroke-opacity:1; fill:none" points="
  1429.14,1425.62 2352.76,1425.62 
  "/>
<polyline clip-path="url(#clip8000)" style="stroke:#000000; stroke-width:4; stroke-opacity:1; fill:none" points="
  1429.14,1425.62 1429.14,121.675 
  "/>
<polyline clip-path="url(#clip8000)" style="stroke:#000000; stroke-width:4; stroke-opacity:1; fill:none" points="
  1454.38,1425.62 1454.38,1409.97 
  "/>
<polyline clip-path="url(#clip8000)" style="stroke:#000000; stroke-width:4; stroke-opacity:1; fill:none" points="
  1634.22,1425.62 1634.22,1409.97 
  "/>
<polyline clip-path="url(#clip8000)" style="stroke:#000000; stroke-width:4; stroke-opacity:1; fill:none" points="
  1814.06,1425.62 1814.06,1409.97 
  "/>
<polyline clip-path="url(#clip8000)" style="stroke:#000000; stroke-width:4; stroke-opacity:1; fill:none" points="
  1993.91,1425.62 1993.91,1409.97 
  "/>
<polyline clip-path="url(#clip8000)" style="stroke:#000000; stroke-width:4; stroke-opacity:1; fill:none" points="
  2173.75,1425.62 2173.75,1409.97 
  "/>
<polyline clip-path="url(#clip8000)" style="stroke:#000000; stroke-width:4; stroke-opacity:1; fill:none" points="
  1429.14,1197.86 1440.22,1197.86 
  "/>
<polyline clip-path="url(#clip8000)" style="stroke:#000000; stroke-width:4; stroke-opacity:1; fill:none" points="
  1429.14,900.421 1440.22,900.421 
  "/>
<polyline clip-path="url(#clip8000)" style="stroke:#000000; stroke-width:4; stroke-opacity:1; fill:none" points="
  1429.14,602.98 1440.22,602.98 
  "/>
<polyline clip-path="url(#clip8000)" style="stroke:#000000; stroke-width:4; stroke-opacity:1; fill:none" points="
  1429.14,305.539 1440.22,305.539 
  "/>
<g clip-path="url(#clip8000)">
<text style="fill:#000000; fill-opacity:1; font-family:Arial,Helvetica Neue,Helvetica,sans-serif; font-size:48px; text-anchor:middle;" transform="rotate(0, 1454.38, 1479.62)" x="1454.38" y="1479.62">0</text>
</g>
<g clip-path="url(#clip8000)">
<text style="fill:#000000; fill-opacity:1; font-family:Arial,Helvetica Neue,Helvetica,sans-serif; font-size:48px; text-anchor:middle;" transform="rotate(0, 1634.22, 1479.62)" x="1634.22" y="1479.62">2</text>
</g>
<g clip-path="url(#clip8000)">
<text style="fill:#000000; fill-opacity:1; font-family:Arial,Helvetica Neue,Helvetica,sans-serif; font-size:48px; text-anchor:middle;" transform="rotate(0, 1814.06, 1479.62)" x="1814.06" y="1479.62">4</text>
</g>
<g clip-path="url(#clip8000)">
<text style="fill:#000000; fill-opacity:1; font-family:Arial,Helvetica Neue,Helvetica,sans-serif; font-size:48px; text-anchor:middle;" transform="rotate(0, 1993.91, 1479.62)" x="1993.91" y="1479.62">6</text>
</g>
<g clip-path="url(#clip8000)">
<text style="fill:#000000; fill-opacity:1; font-family:Arial,Helvetica Neue,Helvetica,sans-serif; font-size:48px; text-anchor:middle;" transform="rotate(0, 2173.75, 1479.62)" x="2173.75" y="1479.62">8</text>
</g>
<g clip-path="url(#clip8000)">
<text style="fill:#000000; fill-opacity:1; font-family:Arial,Helvetica Neue,Helvetica,sans-serif; font-size:48px; text-anchor:end;" transform="rotate(0, 1405.14, 1215.36)" x="1405.14" y="1215.36">0.75</text>
</g>
<g clip-path="url(#clip8000)">
<text style="fill:#000000; fill-opacity:1; font-family:Arial,Helvetica Neue,Helvetica,sans-serif; font-size:48px; text-anchor:end;" transform="rotate(0, 1405.14, 917.921)" x="1405.14" y="917.921">1.00</text>
</g>
<g clip-path="url(#clip8000)">
<text style="fill:#000000; fill-opacity:1; font-family:Arial,Helvetica Neue,Helvetica,sans-serif; font-size:48px; text-anchor:end;" transform="rotate(0, 1405.14, 620.48)" x="1405.14" y="620.48">1.25</text>
</g>
<g clip-path="url(#clip8000)">
<text style="fill:#000000; fill-opacity:1; font-family:Arial,Helvetica Neue,Helvetica,sans-serif; font-size:48px; text-anchor:end;" transform="rotate(0, 1405.14, 323.039)" x="1405.14" y="323.039">1.50</text>
</g>
<g clip-path="url(#clip8000)">
<text style="fill:#000000; fill-opacity:1; font-family:Arial,Helvetica Neue,Helvetica,sans-serif; font-size:84px; text-anchor:middle;" transform="rotate(0, 1890.95, 73.2)" x="1890.95" y="73.2">Predicted Time 3</text>
</g>
<g clip-path="url(#clip8000)">
<text style="fill:#000000; fill-opacity:1; font-family:Arial,Helvetica Neue,Helvetica,sans-serif; font-size:66px; text-anchor:middle;" transform="rotate(0, 1890.95, 1559.48)" x="1890.95" y="1559.48">TSH</text>
</g>
<g clip-path="url(#clip8000)">
<text style="fill:#000000; fill-opacity:1; font-family:Arial,Helvetica Neue,Helvetica,sans-serif; font-size:66px; text-anchor:middle;" transform="rotate(-90, 1275.9, 773.647)" x="1275.9" y="773.647">TT3 / TT4</text>
</g>
<circle clip-path="url(#clip8003)" style="fill:#000000; stroke:none; fill-opacity:1" cx="1535.31" cy="785.451" r="18"/>
<circle clip-path="url(#clip8003)" style="fill:#0000ff; stroke:none; fill-opacity:1" cx="1535.31" cy="785.451" r="14"/>
<circle clip-path="url(#clip8003)" style="fill:#000000; stroke:none; fill-opacity:1" cx="2326.62" cy="1124.78" r="18"/>
<circle clip-path="url(#clip8003)" style="fill:#0000ff; stroke:none; fill-opacity:1" cx="2326.62" cy="1124.78" r="14"/>
<circle clip-path="url(#clip8003)" style="fill:#000000; stroke:none; fill-opacity:1" cx="1688.17" cy="1178.22" r="18"/>
<circle clip-path="url(#clip8003)" style="fill:#0000ff; stroke:none; fill-opacity:1" cx="1688.17" cy="1178.22" r="14"/>
<circle clip-path="url(#clip8003)" style="fill:#000000; stroke:none; fill-opacity:1" cx="1491.24" cy="1169.19" r="18"/>
<circle clip-path="url(#clip8003)" style="fill:#0000ff; stroke:none; fill-opacity:1" cx="1491.24" cy="1169.19" r="14"/>
<circle clip-path="url(#clip8003)" style="fill:#000000; stroke:none; fill-opacity:1" cx="1457.97" cy="1043.24" r="18"/>
<circle clip-path="url(#clip8003)" style="fill:#0000ff; stroke:none; fill-opacity:1" cx="1457.97" cy="1043.24" r="14"/>
<circle clip-path="url(#clip8003)" style="fill:#000000; stroke:none; fill-opacity:1" cx="1522.72" cy="1180.51" r="18"/>
<circle clip-path="url(#clip8003)" style="fill:#0000ff; stroke:none; fill-opacity:1" cx="1522.72" cy="1180.51" r="14"/>
<circle clip-path="url(#clip8003)" style="fill:#000000; stroke:none; fill-opacity:1" cx="1505.63" cy="1221.08" r="18"/>
<circle clip-path="url(#clip8003)" style="fill:#0000ff; stroke:none; fill-opacity:1" cx="1505.63" cy="1221.08" r="14"/>
<circle clip-path="url(#clip8003)" style="fill:#000000; stroke:none; fill-opacity:1" cx="1805.07" cy="1004.3" r="18"/>
<circle clip-path="url(#clip8003)" style="fill:#0000ff; stroke:none; fill-opacity:1" cx="1805.07" cy="1004.3" r="14"/>
<circle clip-path="url(#clip8003)" style="fill:#000000; stroke:none; fill-opacity:1" cx="1778.09" cy="1099.59" r="18"/>
<circle clip-path="url(#clip8003)" style="fill:#0000ff; stroke:none; fill-opacity:1" cx="1778.09" cy="1099.59" r="14"/>
<circle clip-path="url(#clip8003)" style="fill:#000000; stroke:none; fill-opacity:1" cx="1463.37" cy="1229.78" r="18"/>
<circle clip-path="url(#clip8003)" style="fill:#0000ff; stroke:none; fill-opacity:1" cx="1463.37" cy="1229.78" r="14"/>
<circle clip-path="url(#clip8003)" style="fill:#000000; stroke:none; fill-opacity:1" cx="1455.28" cy="1248.88" r="18"/>
<circle clip-path="url(#clip8003)" style="fill:#0000ff; stroke:none; fill-opacity:1" cx="1455.28" cy="1248.88" r="14"/>
<circle clip-path="url(#clip8003)" style="fill:#000000; stroke:none; fill-opacity:1" cx="1494.84" cy="895.085" r="18"/>
<circle clip-path="url(#clip8003)" style="fill:#ff0000; stroke:none; fill-opacity:1" cx="1494.84" cy="895.085" r="14"/>
<circle clip-path="url(#clip8003)" style="fill:#000000; stroke:none; fill-opacity:1" cx="1487.65" cy="1222.67" r="18"/>
<circle clip-path="url(#clip8003)" style="fill:#ff0000; stroke:none; fill-opacity:1" cx="1487.65" cy="1222.67" r="14"/>
<circle clip-path="url(#clip8003)" style="fill:#000000; stroke:none; fill-opacity:1" cx="1713.35" cy="1177.75" r="18"/>
<circle clip-path="url(#clip8003)" style="fill:#ff0000; stroke:none; fill-opacity:1" cx="1713.35" cy="1177.75" r="14"/>
<circle clip-path="url(#clip8003)" style="fill:#000000; stroke:none; fill-opacity:1" cx="1521.82" cy="980.963" r="18"/>
<circle clip-path="url(#clip8003)" style="fill:#ff0000; stroke:none; fill-opacity:1" cx="1521.82" cy="980.963" r="14"/>
<circle clip-path="url(#clip8003)" style="fill:#000000; stroke:none; fill-opacity:1" cx="1463.37" cy="1321.3" r="18"/>
<circle clip-path="url(#clip8003)" style="fill:#ff0000; stroke:none; fill-opacity:1" cx="1463.37" cy="1321.3" r="14"/>
<circle clip-path="url(#clip8003)" style="fill:#000000; stroke:none; fill-opacity:1" cx="1751.12" cy="986.921" r="18"/>
<circle clip-path="url(#clip8003)" style="fill:#ff0000; stroke:none; fill-opacity:1" cx="1751.12" cy="986.921" r="14"/>
<circle clip-path="url(#clip8003)" style="fill:#000000; stroke:none; fill-opacity:1" cx="1455.28" cy="1338.25" r="18"/>
<circle clip-path="url(#clip8003)" style="fill:#ff0000; stroke:none; fill-opacity:1" cx="1455.28" cy="1338.25" r="14"/>
<circle clip-path="url(#clip8003)" style="fill:#000000; stroke:none; fill-opacity:1" cx="1497.54" cy="158.579" r="18"/>
<circle clip-path="url(#clip8003)" style="fill:#ff0000; stroke:none; fill-opacity:1" cx="1497.54" cy="158.579" r="14"/>
<circle clip-path="url(#clip8003)" style="fill:#000000; stroke:none; fill-opacity:1" cx="1589.26" cy="792.433" r="18"/>
<circle clip-path="url(#clip8003)" style="fill:#ff0000; stroke:none; fill-opacity:1" cx="1589.26" cy="792.433" r="14"/>
<circle clip-path="url(#clip8003)" style="fill:#000000; stroke:none; fill-opacity:1" cx="1533.51" cy="617.319" r="18"/>
<circle clip-path="url(#clip8003)" style="fill:#ff0000; stroke:none; fill-opacity:1" cx="1533.51" cy="617.319" r="14"/>
<circle clip-path="url(#clip8003)" style="fill:#000000; stroke:none; fill-opacity:1" cx="1511.03" cy="458.559" r="18"/>
<circle clip-path="url(#clip8003)" style="fill:#ff0000; stroke:none; fill-opacity:1" cx="1511.03" cy="458.559" r="14"/>
<circle clip-path="url(#clip8003)" style="fill:#000000; stroke:none; fill-opacity:1" cx="1457.07" cy="1340.32" r="18"/>
<circle clip-path="url(#clip8003)" style="fill:#ff0000; stroke:none; fill-opacity:1" cx="1457.07" cy="1340.32" r="14"/>
<circle clip-path="url(#clip8003)" style="fill:#000000; stroke:none; fill-opacity:1" cx="1520.02" cy="1073.83" r="18"/>
<circle clip-path="url(#clip8003)" style="fill:#ff0000; stroke:none; fill-opacity:1" cx="1520.02" cy="1073.83" r="14"/>
<circle clip-path="url(#clip8003)" style="fill:#000000; stroke:none; fill-opacity:1" cx="1457.97" cy="1183.43" r="18"/>
<circle clip-path="url(#clip8003)" style="fill:#ff0000; stroke:none; fill-opacity:1" cx="1457.97" cy="1183.43" r="14"/>
<circle clip-path="url(#clip8003)" style="fill:#000000; stroke:none; fill-opacity:1" cx="1584.76" cy="1052.21" r="18"/>
<circle clip-path="url(#clip8003)" style="fill:#ff0000; stroke:none; fill-opacity:1" cx="1584.76" cy="1052.21" r="14"/>
<circle clip-path="url(#clip8003)" style="fill:#000000; stroke:none; fill-opacity:1" cx="1912.08" cy="997.773" r="18"/>
<circle clip-path="url(#clip8003)" style="fill:#ff0000; stroke:none; fill-opacity:1" cx="1912.08" cy="997.773" r="14"/>
<circle clip-path="url(#clip8003)" style="fill:#000000; stroke:none; fill-opacity:1" cx="1490.34" cy="1388.71" r="18"/>
<circle clip-path="url(#clip8003)" style="fill:#ff0000; stroke:none; fill-opacity:1" cx="1490.34" cy="1388.71" r="14"/>
<circle clip-path="url(#clip8003)" style="fill:#000000; stroke:none; fill-opacity:1" cx="1531.71" cy="828.126" r="18"/>
<circle clip-path="url(#clip8003)" style="fill:#ff0000; stroke:none; fill-opacity:1" cx="1531.71" cy="828.126" r="14"/>
<circle clip-path="url(#clip8003)" style="fill:#000000; stroke:none; fill-opacity:1" cx="1580.27" cy="966.524" r="18"/>
<circle clip-path="url(#clip8003)" style="fill:#ff0000; stroke:none; fill-opacity:1" cx="1580.27" cy="966.524" r="14"/>
<circle clip-path="url(#clip8003)" style="fill:#000000; stroke:none; fill-opacity:1" cx="1787.09" cy="980.771" r="18"/>
<circle clip-path="url(#clip8003)" style="fill:#ff0000; stroke:none; fill-opacity:1" cx="1787.09" cy="980.771" r="14"/>
<circle clip-path="url(#clip8003)" style="fill:#000000; stroke:none; fill-opacity:1" cx="1455.28" cy="1225.77" r="18"/>
<circle clip-path="url(#clip8003)" style="fill:#ff0000; stroke:none; fill-opacity:1" cx="1455.28" cy="1225.77" r="14"/>
<circle clip-path="url(#clip8003)" style="fill:#000000; stroke:none; fill-opacity:1" cx="1455.28" cy="1089.93" r="18"/>
<circle clip-path="url(#clip8003)" style="fill:#ff0000; stroke:none; fill-opacity:1" cx="1455.28" cy="1089.93" r="14"/>
<circle clip-path="url(#clip8003)" style="fill:#000000; stroke:none; fill-opacity:1" cx="1778.09" cy="987.734" r="18"/>
<circle clip-path="url(#clip8003)" style="fill:#ff0000; stroke:none; fill-opacity:1" cx="1778.09" cy="987.734" r="14"/>
<circle clip-path="url(#clip8003)" style="fill:#000000; stroke:none; fill-opacity:1" cx="1455.28" cy="1226.54" r="18"/>
<circle clip-path="url(#clip8003)" style="fill:#ff0000; stroke:none; fill-opacity:1" cx="1455.28" cy="1226.54" r="14"/>
<circle clip-path="url(#clip8003)" style="fill:#000000; stroke:none; fill-opacity:1" cx="1457.97" cy="1226.21" r="18"/>
<circle clip-path="url(#clip8003)" style="fill:#ff0000; stroke:none; fill-opacity:1" cx="1457.97" cy="1226.21" r="14"/>
<circle clip-path="url(#clip8003)" style="fill:#000000; stroke:none; fill-opacity:1" cx="1457.07" cy="1217.11" r="18"/>
<circle clip-path="url(#clip8003)" style="fill:#ff0000; stroke:none; fill-opacity:1" cx="1457.07" cy="1217.11" r="14"/>
<circle clip-path="url(#clip8003)" style="fill:#000000; stroke:none; fill-opacity:1" cx="1469.66" cy="932.833" r="18"/>
<circle clip-path="url(#clip8003)" style="fill:#ff0000; stroke:none; fill-opacity:1" cx="1469.66" cy="932.833" r="14"/>
<circle clip-path="url(#clip8003)" style="fill:#000000; stroke:none; fill-opacity:1" cx="1507.43" cy="979.915" r="18"/>
<circle clip-path="url(#clip8003)" style="fill:#ff0000; stroke:none; fill-opacity:1" cx="1507.43" cy="979.915" r="14"/>
<circle clip-path="url(#clip8003)" style="fill:#000000; stroke:none; fill-opacity:1" cx="1778.09" cy="857.573" r="18"/>
<circle clip-path="url(#clip8003)" style="fill:#ff0000; stroke:none; fill-opacity:1" cx="1778.09" cy="857.573" r="14"/>
<circle clip-path="url(#clip8003)" style="fill:#000000; stroke:none; fill-opacity:1" cx="1458.87" cy="1115.65" r="18"/>
<circle clip-path="url(#clip8003)" style="fill:#ff0000; stroke:none; fill-opacity:1" cx="1458.87" cy="1115.65" r="14"/>
<circle clip-path="url(#clip8003)" style="fill:#000000; stroke:none; fill-opacity:1" cx="1455.28" cy="1041.76" r="18"/>
<circle clip-path="url(#clip8003)" style="fill:#ff0000; stroke:none; fill-opacity:1" cx="1455.28" cy="1041.76" r="14"/>
<circle clip-path="url(#clip8003)" style="fill:#000000; stroke:none; fill-opacity:1" cx="1467.86" cy="1176.3" r="18"/>
<circle clip-path="url(#clip8003)" style="fill:#ff0000; stroke:none; fill-opacity:1" cx="1467.86" cy="1176.3" r="14"/>
<circle clip-path="url(#clip8003)" style="fill:#000000; stroke:none; fill-opacity:1" cx="1571.27" cy="921.134" r="18"/>
<circle clip-path="url(#clip8003)" style="fill:#ff0000; stroke:none; fill-opacity:1" cx="1571.27" cy="921.134" r="14"/>
<circle clip-path="url(#clip8003)" style="fill:#000000; stroke:none; fill-opacity:1" cx="1493.04" cy="665.896" r="18"/>
<circle clip-path="url(#clip8003)" style="fill:#ff0000; stroke:none; fill-opacity:1" cx="1493.04" cy="665.896" r="14"/>
<circle clip-path="url(#clip8003)" style="fill:#000000; stroke:none; fill-opacity:1" cx="1465.17" cy="1227.45" r="18"/>
<circle clip-path="url(#clip8003)" style="fill:#ff0000; stroke:none; fill-opacity:1" cx="1465.17" cy="1227.45" r="14"/>
<circle clip-path="url(#clip8003)" style="fill:#000000; stroke:none; fill-opacity:1" cx="1456.8" cy="960.507" r="18"/>
<circle clip-path="url(#clip8003)" style="fill:#ff0000; stroke:none; fill-opacity:1" cx="1456.8" cy="960.507" r="14"/>
<circle clip-path="url(#clip8003)" style="fill:#000000; stroke:none; fill-opacity:1" cx="1948.95" cy="999.934" r="18"/>
<circle clip-path="url(#clip8003)" style="fill:#ff0000; stroke:none; fill-opacity:1" cx="1948.95" cy="999.934" r="14"/>
<circle clip-path="url(#clip8003)" style="fill:#000000; stroke:none; fill-opacity:1" cx="1517.32" cy="1169.39" r="18"/>
<circle clip-path="url(#clip8003)" style="fill:#ff0000; stroke:none; fill-opacity:1" cx="1517.32" cy="1169.39" r="14"/>
<circle clip-path="url(#clip8003)" style="fill:#000000; stroke:none; fill-opacity:1" cx="1562.28" cy="817.028" r="18"/>
<circle clip-path="url(#clip8003)" style="fill:#ff0000; stroke:none; fill-opacity:1" cx="1562.28" cy="817.028" r="14"/>
<path clip-path="url(#clip8000)" d="
M1715.71 386.635 L2280.76 386.635 L2280.76 205.195 L1715.71 205.195  Z
  " fill="#ffffff" fill-rule="evenodd" fill-opacity="1"/>
<polyline clip-path="url(#clip8000)" style="stroke:#000000; stroke-width:4; stroke-opacity:1; fill:none" points="
  1715.71,386.635 2280.76,386.635 2280.76,205.195 1715.71,205.195 1715.71,386.635 
  "/>
<circle clip-path="url(#clip8000)" style="fill:#000000; stroke:none; fill-opacity:1" cx="1823.71" cy="265.675" r="25"/>
<circle clip-path="url(#clip8000)" style="fill:#0000ff; stroke:none; fill-opacity:1" cx="1823.71" cy="265.675" r="21"/>
<g clip-path="url(#clip8000)">
<text style="fill:#000000; fill-opacity:1; font-family:Arial,Helvetica Neue,Helvetica,sans-serif; font-size:48px; text-anchor:start;" transform="rotate(0, 1907.71, 283.175)" x="1907.71" y="283.175">male (n = 11)</text>
</g>
<circle clip-path="url(#clip8000)" style="fill:#000000; stroke:none; fill-opacity:1" cx="1823.71" cy="326.155" r="25"/>
<circle clip-path="url(#clip8000)" style="fill:#ff0000; stroke:none; fill-opacity:1" cx="1823.71" cy="326.155" r="21"/>
<g clip-path="url(#clip8000)">
<text style="fill:#000000; fill-opacity:1; font-family:Arial,Helvetica Neue,Helvetica,sans-serif; font-size:48px; text-anchor:start;" transform="rotate(0, 1907.71, 343.655)" x="1907.71" y="343.655">female (n = 39)</text>
</g>
</svg>
