<?xml version="1.0" encoding="utf-8"?>
<svg xmlns="http://www.w3.org/2000/svg" xmlns:xlink="http://www.w3.org/1999/xlink" width="600" height="400" viewBox="0 0 2400 1600">
<defs>
  <clipPath id="clip4300">
    <rect x="0" y="0" width="2400" height="1600"/>
  </clipPath>
</defs>
<path clip-path="url(#clip4300)" d="
M0 1600 L2400 1600 L2400 0 L0 0  Z
  " fill="#ffffff" fill-rule="evenodd" fill-opacity="1"/>
<defs>
  <clipPath id="clip4301">
    <rect x="480" y="0" width="1681" height="1600"/>
  </clipPath>
</defs>
<path clip-path="url(#clip4300)" d="
M215.754 1425.62 L1152.76 1425.62 L1152.76 121.675 L215.754 121.675  Z
  " fill="#ffffff" fill-rule="evenodd" fill-opacity="1"/>
<defs>
  <clipPath id="clip4302">
    <rect x="215" y="121" width="938" height="1305"/>
  </clipPath>
</defs>
<polyline clip-path="url(#clip4302)" style="stroke:#000000; stroke-width:2; stroke-opacity:0.1; fill:none" points="
  330.433,1425.62 330.433,121.675 
  "/>
<polyline clip-path="url(#clip4302)" style="stroke:#000000; stroke-width:2; stroke-opacity:0.1; fill:none" points="
  523.624,1425.62 523.624,121.675 
  "/>
<polyline clip-path="url(#clip4302)" style="stroke:#000000; stroke-width:2; stroke-opacity:0.1; fill:none" points="
  716.815,1425.62 716.815,121.675 
  "/>
<polyline clip-path="url(#clip4302)" style="stroke:#000000; stroke-width:2; stroke-opacity:0.1; fill:none" points="
  910.007,1425.62 910.007,121.675 
  "/>
<polyline clip-path="url(#clip4302)" style="stroke:#000000; stroke-width:2; stroke-opacity:0.1; fill:none" points="
  1103.2,1425.62 1103.2,121.675 
  "/>
<polyline clip-path="url(#clip4302)" style="stroke:#000000; stroke-width:2; stroke-opacity:0.1; fill:none" points="
  215.754,1425.62 1152.76,1425.62 
  "/>
<polyline clip-path="url(#clip4302)" style="stroke:#000000; stroke-width:2; stroke-opacity:0.1; fill:none" points="
  215.754,1099.63 1152.76,1099.63 
  "/>
<polyline clip-path="url(#clip4302)" style="stroke:#000000; stroke-width:2; stroke-opacity:0.1; fill:none" points="
  215.754,773.647 1152.76,773.647 
  "/>
<polyline clip-path="url(#clip4302)" style="stroke:#000000; stroke-width:2; stroke-opacity:0.1; fill:none" points="
  215.754,447.661 1152.76,447.661 
  "/>
<polyline clip-path="url(#clip4302)" style="stroke:#000000; stroke-width:2; stroke-opacity:0.1; fill:none" points="
  215.754,121.675 1152.76,121.675 
  "/>
<polyline clip-path="url(#clip4300)" style="stroke:#000000; stroke-width:4; stroke-opacity:1; fill:none" points="
  215.754,1425.62 1152.76,1425.62 
  "/>
<polyline clip-path="url(#clip4300)" style="stroke:#000000; stroke-width:4; stroke-opacity:1; fill:none" points="
  215.754,1425.62 215.754,121.675 
  "/>
<polyline clip-path="url(#clip4300)" style="stroke:#000000; stroke-width:4; stroke-opacity:1; fill:none" points="
  330.433,1425.62 330.433,1409.97 
  "/>
<polyline clip-path="url(#clip4300)" style="stroke:#000000; stroke-width:4; stroke-opacity:1; fill:none" points="
  523.624,1425.62 523.624,1409.97 
  "/>
<polyline clip-path="url(#clip4300)" style="stroke:#000000; stroke-width:4; stroke-opacity:1; fill:none" points="
  716.815,1425.62 716.815,1409.97 
  "/>
<polyline clip-path="url(#clip4300)" style="stroke:#000000; stroke-width:4; stroke-opacity:1; fill:none" points="
  910.007,1425.62 910.007,1409.97 
  "/>
<polyline clip-path="url(#clip4300)" style="stroke:#000000; stroke-width:4; stroke-opacity:1; fill:none" points="
  1103.2,1425.62 1103.2,1409.97 
  "/>
<polyline clip-path="url(#clip4300)" style="stroke:#000000; stroke-width:4; stroke-opacity:1; fill:none" points="
  215.754,1425.62 226.998,1425.62 
  "/>
<polyline clip-path="url(#clip4300)" style="stroke:#000000; stroke-width:4; stroke-opacity:1; fill:none" points="
  215.754,1099.63 226.998,1099.63 
  "/>
<polyline clip-path="url(#clip4300)" style="stroke:#000000; stroke-width:4; stroke-opacity:1; fill:none" points="
  215.754,773.647 226.998,773.647 
  "/>
<polyline clip-path="url(#clip4300)" style="stroke:#000000; stroke-width:4; stroke-opacity:1; fill:none" points="
  215.754,447.661 226.998,447.661 
  "/>
<polyline clip-path="url(#clip4300)" style="stroke:#000000; stroke-width:4; stroke-opacity:1; fill:none" points="
  215.754,121.675 226.998,121.675 
  "/>
<g clip-path="url(#clip4300)">
<text style="fill:#000000; fill-opacity:1; font-family:Arial,Helvetica Neue,Helvetica,sans-serif; font-size:48px; text-anchor:middle;" transform="rotate(0, 330.433, 1479.62)" x="330.433" y="1479.62">20</text>
</g>
<g clip-path="url(#clip4300)">
<text style="fill:#000000; fill-opacity:1; font-family:Arial,Helvetica Neue,Helvetica,sans-serif; font-size:48px; text-anchor:middle;" transform="rotate(0, 523.624, 1479.62)" x="523.624" y="1479.62">25</text>
</g>
<g clip-path="url(#clip4300)">
<text style="fill:#000000; fill-opacity:1; font-family:Arial,Helvetica Neue,Helvetica,sans-serif; font-size:48px; text-anchor:middle;" transform="rotate(0, 716.815, 1479.62)" x="716.815" y="1479.62">30</text>
</g>
<g clip-path="url(#clip4300)">
<text style="fill:#000000; fill-opacity:1; font-family:Arial,Helvetica Neue,Helvetica,sans-serif; font-size:48px; text-anchor:middle;" transform="rotate(0, 910.007, 1479.62)" x="910.007" y="1479.62">35</text>
</g>
<g clip-path="url(#clip4300)">
<text style="fill:#000000; fill-opacity:1; font-family:Arial,Helvetica Neue,Helvetica,sans-serif; font-size:48px; text-anchor:middle;" transform="rotate(0, 1103.2, 1479.62)" x="1103.2" y="1479.62">40</text>
</g>
<g clip-path="url(#clip4300)">
<text style="fill:#000000; fill-opacity:1; font-family:Arial,Helvetica Neue,Helvetica,sans-serif; font-size:48px; text-anchor:end;" transform="rotate(0, 191.754, 1443.12)" x="191.754" y="1443.12">0.0</text>
</g>
<g clip-path="url(#clip4300)">
<text style="fill:#000000; fill-opacity:1; font-family:Arial,Helvetica Neue,Helvetica,sans-serif; font-size:48px; text-anchor:end;" transform="rotate(0, 191.754, 1117.13)" x="191.754" y="1117.13">0.5</text>
</g>
<g clip-path="url(#clip4300)">
<text style="fill:#000000; fill-opacity:1; font-family:Arial,Helvetica Neue,Helvetica,sans-serif; font-size:48px; text-anchor:end;" transform="rotate(0, 191.754, 791.147)" x="191.754" y="791.147">1.0</text>
</g>
<g clip-path="url(#clip4300)">
<text style="fill:#000000; fill-opacity:1; font-family:Arial,Helvetica Neue,Helvetica,sans-serif; font-size:48px; text-anchor:end;" transform="rotate(0, 191.754, 465.161)" x="191.754" y="465.161">1.5</text>
</g>
<g clip-path="url(#clip4300)">
<text style="fill:#000000; fill-opacity:1; font-family:Arial,Helvetica Neue,Helvetica,sans-serif; font-size:48px; text-anchor:end;" transform="rotate(0, 191.754, 139.175)" x="191.754" y="139.175">2.0</text>
</g>
<g clip-path="url(#clip4300)">
<text style="fill:#000000; fill-opacity:1; font-family:Arial,Helvetica Neue,Helvetica,sans-serif; font-size:84px; text-anchor:middle;" transform="rotate(0, 684.255, 73.2)" x="684.255" y="73.2">Data Time 3</text>
</g>
<g clip-path="url(#clip4300)">
<text style="fill:#000000; fill-opacity:1; font-family:Arial,Helvetica Neue,Helvetica,sans-serif; font-size:66px; text-anchor:middle;" transform="rotate(0, 684.255, 1559.48)" x="684.255" y="1559.48">BMI</text>
</g>
<g clip-path="url(#clip4300)">
<text style="fill:#000000; fill-opacity:1; font-family:Arial,Helvetica Neue,Helvetica,sans-serif; font-size:66px; text-anchor:middle;" transform="rotate(-90, 89.2861, 773.647)" x="89.2861" y="773.647">FT4 (ng/dL)</text>
</g>
<circle clip-path="url(#clip4302)" style="fill:#000000; stroke:none; fill-opacity:1" cx="364.808" cy="571.536" r="18"/>
<circle clip-path="url(#clip4302)" style="fill:#0000ff; stroke:none; fill-opacity:1" cx="364.808" cy="571.536" r="14"/>
<circle clip-path="url(#clip4302)" style="fill:#000000; stroke:none; fill-opacity:1" cx="577.771" cy="317.267" r="18"/>
<circle clip-path="url(#clip4302)" style="fill:#0000ff; stroke:none; fill-opacity:1" cx="577.771" cy="317.267" r="14"/>
<circle clip-path="url(#clip4302)" style="fill:#000000; stroke:none; fill-opacity:1" cx="720.393" cy="773.647" r="18"/>
<circle clip-path="url(#clip4302)" style="fill:#0000ff; stroke:none; fill-opacity:1" cx="720.393" cy="773.647" r="14"/>
<circle clip-path="url(#clip4302)" style="fill:#000000; stroke:none; fill-opacity:1" cx="594.358" cy="525.898" r="18"/>
<circle clip-path="url(#clip4302)" style="fill:#0000ff; stroke:none; fill-opacity:1" cx="594.358" cy="525.898" r="14"/>
<circle clip-path="url(#clip4302)" style="fill:#000000; stroke:none; fill-opacity:1" cx="611.195" cy="499.819" r="18"/>
<circle clip-path="url(#clip4302)" style="fill:#0000ff; stroke:none; fill-opacity:1" cx="611.195" cy="499.819" r="14"/>
<circle clip-path="url(#clip4302)" style="fill:#000000; stroke:none; fill-opacity:1" cx="638.74" cy="525.898" r="18"/>
<circle clip-path="url(#clip4302)" style="fill:#0000ff; stroke:none; fill-opacity:1" cx="638.74" cy="525.898" r="14"/>
<circle clip-path="url(#clip4302)" style="fill:#000000; stroke:none; fill-opacity:1" cx="713.742" cy="304.227" r="18"/>
<circle clip-path="url(#clip4302)" style="fill:#0000ff; stroke:none; fill-opacity:1" cx="713.742" cy="304.227" r="14"/>
<circle clip-path="url(#clip4302)" style="fill:#000000; stroke:none; fill-opacity:1" cx="407.766" cy="447.661" r="18"/>
<circle clip-path="url(#clip4302)" style="fill:#0000ff; stroke:none; fill-opacity:1" cx="407.766" cy="447.661" r="14"/>
<circle clip-path="url(#clip4302)" style="fill:#000000; stroke:none; fill-opacity:1" cx="499.476" cy="701.93" r="18"/>
<circle clip-path="url(#clip4302)" style="fill:#0000ff; stroke:none; fill-opacity:1" cx="499.476" cy="701.93" r="14"/>
<circle clip-path="url(#clip4302)" style="fill:#000000; stroke:none; fill-opacity:1" cx="560.761" cy="317.267" r="18"/>
<circle clip-path="url(#clip4302)" style="fill:#0000ff; stroke:none; fill-opacity:1" cx="560.761" cy="317.267" r="14"/>
<circle clip-path="url(#clip4302)" style="fill:#000000; stroke:none; fill-opacity:1" cx="544.132" cy="421.582" r="18"/>
<circle clip-path="url(#clip4302)" style="fill:#0000ff; stroke:none; fill-opacity:1" cx="544.132" cy="421.582" r="14"/>
<circle clip-path="url(#clip4302)" style="fill:#000000; stroke:none; fill-opacity:1" cx="525.133" cy="375.944" r="18"/>
<circle clip-path="url(#clip4302)" style="fill:#ff0000; stroke:none; fill-opacity:1" cx="525.133" cy="375.944" r="14"/>
<circle clip-path="url(#clip4302)" style="fill:#000000; stroke:none; fill-opacity:1" cx="846.143" cy="714.969" r="18"/>
<circle clip-path="url(#clip4302)" style="fill:#ff0000; stroke:none; fill-opacity:1" cx="846.143" cy="714.969" r="14"/>
<circle clip-path="url(#clip4302)" style="fill:#000000; stroke:none; fill-opacity:1" cx="737.317" cy="212.951" r="18"/>
<circle clip-path="url(#clip4302)" style="fill:#ff0000; stroke:none; fill-opacity:1" cx="737.317" cy="212.951" r="14"/>
<circle clip-path="url(#clip4302)" style="fill:#000000; stroke:none; fill-opacity:1" cx="631.243" cy="447.661" r="18"/>
<circle clip-path="url(#clip4302)" style="fill:#ff0000; stroke:none; fill-opacity:1" cx="631.243" cy="447.661" r="14"/>
<circle clip-path="url(#clip4302)" style="fill:#000000; stroke:none; fill-opacity:1" cx="779.617" cy="310.747" r="18"/>
<circle clip-path="url(#clip4302)" style="fill:#ff0000; stroke:none; fill-opacity:1" cx="779.617" cy="310.747" r="14"/>
<circle clip-path="url(#clip4302)" style="fill:#000000; stroke:none; fill-opacity:1" cx="611.152" cy="356.385" r="18"/>
<circle clip-path="url(#clip4302)" style="fill:#ff0000; stroke:none; fill-opacity:1" cx="611.152" cy="356.385" r="14"/>
<circle clip-path="url(#clip4302)" style="fill:#000000; stroke:none; fill-opacity:1" cx="299.682" cy="258.589" r="18"/>
<circle clip-path="url(#clip4302)" style="fill:#ff0000; stroke:none; fill-opacity:1" cx="299.682" cy="258.589" r="14"/>
<circle clip-path="url(#clip4302)" style="fill:#000000; stroke:none; fill-opacity:1" cx="242.273" cy="382.464" r="18"/>
<circle clip-path="url(#clip4302)" style="fill:#ff0000; stroke:none; fill-opacity:1" cx="242.273" cy="382.464" r="14"/>
<circle clip-path="url(#clip4302)" style="fill:#000000; stroke:none; fill-opacity:1" cx="533.562" cy="708.45" r="18"/>
<circle clip-path="url(#clip4302)" style="fill:#ff0000; stroke:none; fill-opacity:1" cx="533.562" cy="708.45" r="14"/>
<circle clip-path="url(#clip4302)" style="fill:#000000; stroke:none; fill-opacity:1" cx="463.936" cy="382.464" r="18"/>
<circle clip-path="url(#clip4302)" style="fill:#ff0000; stroke:none; fill-opacity:1" cx="463.936" cy="382.464" r="14"/>
<circle clip-path="url(#clip4302)" style="fill:#000000; stroke:none; fill-opacity:1" cx="403.813" cy="662.812" r="18"/>
<circle clip-path="url(#clip4302)" style="fill:#ff0000; stroke:none; fill-opacity:1" cx="403.813" cy="662.812" r="14"/>
<circle clip-path="url(#clip4302)" style="fill:#000000; stroke:none; fill-opacity:1" cx="995.684" cy="141.234" r="18"/>
<circle clip-path="url(#clip4302)" style="fill:#ff0000; stroke:none; fill-opacity:1" cx="995.684" cy="141.234" r="14"/>
<circle clip-path="url(#clip4302)" style="fill:#000000; stroke:none; fill-opacity:1" cx="522.362" cy="336.826" r="18"/>
<circle clip-path="url(#clip4302)" style="fill:#ff0000; stroke:none; fill-opacity:1" cx="522.362" cy="336.826" r="14"/>
<circle clip-path="url(#clip4302)" style="fill:#000000; stroke:none; fill-opacity:1" cx="577.695" cy="382.464" r="18"/>
<circle clip-path="url(#clip4302)" style="fill:#ff0000; stroke:none; fill-opacity:1" cx="577.695" cy="382.464" r="14"/>
<circle clip-path="url(#clip4302)" style="fill:#000000; stroke:none; fill-opacity:1" cx="521.318" cy="565.016" r="18"/>
<circle clip-path="url(#clip4302)" style="fill:#ff0000; stroke:none; fill-opacity:1" cx="521.318" cy="565.016" r="14"/>
<circle clip-path="url(#clip4302)" style="fill:#000000; stroke:none; fill-opacity:1" cx="688.139" cy="656.292" r="18"/>
<circle clip-path="url(#clip4302)" style="fill:#ff0000; stroke:none; fill-opacity:1" cx="688.139" cy="656.292" r="14"/>
<circle clip-path="url(#clip4302)" style="fill:#000000; stroke:none; fill-opacity:1" cx="1126.24" cy="662.812" r="18"/>
<circle clip-path="url(#clip4302)" style="fill:#ff0000; stroke:none; fill-opacity:1" cx="1126.24" cy="662.812" r="14"/>
<circle clip-path="url(#clip4302)" style="fill:#000000; stroke:none; fill-opacity:1" cx="346.527" cy="669.331" r="18"/>
<circle clip-path="url(#clip4302)" style="fill:#ff0000; stroke:none; fill-opacity:1" cx="346.527" cy="669.331" r="14"/>
<circle clip-path="url(#clip4302)" style="fill:#000000; stroke:none; fill-opacity:1" cx="474.679" cy="591.095" r="18"/>
<circle clip-path="url(#clip4302)" style="fill:#ff0000; stroke:none; fill-opacity:1" cx="474.679" cy="591.095" r="14"/>
<circle clip-path="url(#clip4302)" style="fill:#000000; stroke:none; fill-opacity:1" cx="521.318" cy="669.331" r="18"/>
<circle clip-path="url(#clip4302)" style="fill:#ff0000; stroke:none; fill-opacity:1" cx="521.318" cy="669.331" r="14"/>
<circle clip-path="url(#clip4302)" style="fill:#000000; stroke:none; fill-opacity:1" cx="626.549" cy="121.675" r="18"/>
<circle clip-path="url(#clip4302)" style="fill:#ff0000; stroke:none; fill-opacity:1" cx="626.549" cy="121.675" r="14"/>
<circle clip-path="url(#clip4302)" style="fill:#000000; stroke:none; fill-opacity:1" cx="729.943" cy="395.503" r="18"/>
<circle clip-path="url(#clip4302)" style="fill:#ff0000; stroke:none; fill-opacity:1" cx="729.943" cy="395.503" r="14"/>
<circle clip-path="url(#clip4302)" style="fill:#000000; stroke:none; fill-opacity:1" cx="708.516" cy="812.765" r="18"/>
<circle clip-path="url(#clip4302)" style="fill:#ff0000; stroke:none; fill-opacity:1" cx="708.516" cy="812.765" r="14"/>
<circle clip-path="url(#clip4302)" style="fill:#000000; stroke:none; fill-opacity:1" cx="796.647" cy="610.654" r="18"/>
<circle clip-path="url(#clip4302)" style="fill:#ff0000; stroke:none; fill-opacity:1" cx="796.647" cy="610.654" r="14"/>
<circle clip-path="url(#clip4302)" style="fill:#000000; stroke:none; fill-opacity:1" cx="743.251" cy="411.151" r="18"/>
<circle clip-path="url(#clip4302)" style="fill:#ff0000; stroke:none; fill-opacity:1" cx="743.251" cy="411.151" r="14"/>
<circle clip-path="url(#clip4302)" style="fill:#000000; stroke:none; fill-opacity:1" cx="715.751" cy="591.095" r="18"/>
<circle clip-path="url(#clip4302)" style="fill:#ff0000; stroke:none; fill-opacity:1" cx="715.751" cy="591.095" r="14"/>
<circle clip-path="url(#clip4302)" style="fill:#000000; stroke:none; fill-opacity:1" cx="404.855" cy="525.898" r="18"/>
<circle clip-path="url(#clip4302)" style="fill:#ff0000; stroke:none; fill-opacity:1" cx="404.855" cy="525.898" r="14"/>
<circle clip-path="url(#clip4302)" style="fill:#000000; stroke:none; fill-opacity:1" cx="780.814" cy="734.529" r="18"/>
<circle clip-path="url(#clip4302)" style="fill:#ff0000; stroke:none; fill-opacity:1" cx="780.814" cy="734.529" r="14"/>
<circle clip-path="url(#clip4302)" style="fill:#000000; stroke:none; fill-opacity:1" cx="639.271" cy="656.292" r="18"/>
<circle clip-path="url(#clip4302)" style="fill:#ff0000; stroke:none; fill-opacity:1" cx="639.271" cy="656.292" r="14"/>
<circle clip-path="url(#clip4302)" style="fill:#000000; stroke:none; fill-opacity:1" cx="386.488" cy="597.615" r="18"/>
<circle clip-path="url(#clip4302)" style="fill:#ff0000; stroke:none; fill-opacity:1" cx="386.488" cy="597.615" r="14"/>
<circle clip-path="url(#clip4302)" style="fill:#000000; stroke:none; fill-opacity:1" cx="730.187" cy="480.26" r="18"/>
<circle clip-path="url(#clip4302)" style="fill:#ff0000; stroke:none; fill-opacity:1" cx="730.187" cy="480.26" r="14"/>
<circle clip-path="url(#clip4302)" style="fill:#000000; stroke:none; fill-opacity:1" cx="584.468" cy="760.607" r="18"/>
<circle clip-path="url(#clip4302)" style="fill:#ff0000; stroke:none; fill-opacity:1" cx="584.468" cy="760.607" r="14"/>
<circle clip-path="url(#clip4302)" style="fill:#000000; stroke:none; fill-opacity:1" cx="355.503" cy="604.134" r="18"/>
<circle clip-path="url(#clip4302)" style="fill:#ff0000; stroke:none; fill-opacity:1" cx="355.503" cy="604.134" r="14"/>
<circle clip-path="url(#clip4302)" style="fill:#000000; stroke:none; fill-opacity:1" cx="535.698" cy="799.726" r="18"/>
<circle clip-path="url(#clip4302)" style="fill:#ff0000; stroke:none; fill-opacity:1" cx="535.698" cy="799.726" r="14"/>
<circle clip-path="url(#clip4302)" style="fill:#000000; stroke:none; fill-opacity:1" cx="710.084" cy="649.772" r="18"/>
<circle clip-path="url(#clip4302)" style="fill:#ff0000; stroke:none; fill-opacity:1" cx="710.084" cy="649.772" r="14"/>
<circle clip-path="url(#clip4302)" style="fill:#000000; stroke:none; fill-opacity:1" cx="601.204" cy="819.285" r="18"/>
<circle clip-path="url(#clip4302)" style="fill:#ff0000; stroke:none; fill-opacity:1" cx="601.204" cy="819.285" r="14"/>
<circle clip-path="url(#clip4302)" style="fill:#000000; stroke:none; fill-opacity:1" cx="651.548" cy="512.858" r="18"/>
<circle clip-path="url(#clip4302)" style="fill:#ff0000; stroke:none; fill-opacity:1" cx="651.548" cy="512.858" r="14"/>
<circle clip-path="url(#clip4302)" style="fill:#000000; stroke:none; fill-opacity:1" cx="347.572" cy="252.069" r="18"/>
<circle clip-path="url(#clip4302)" style="fill:#ff0000; stroke:none; fill-opacity:1" cx="347.572" cy="252.069" r="14"/>
<path clip-path="url(#clip4300)" d="
M515.709 386.635 L1080.76 386.635 L1080.76 205.195 L515.709 205.195  Z
  " fill="#ffffff" fill-rule="evenodd" fill-opacity="1"/>
<polyline clip-path="url(#clip4300)" style="stroke:#000000; stroke-width:4; stroke-opacity:1; fill:none" points="
  515.709,386.635 1080.76,386.635 1080.76,205.195 515.709,205.195 515.709,386.635 
  "/>
<circle clip-path="url(#clip4300)" style="fill:#000000; stroke:none; fill-opacity:1" cx="623.709" cy="265.675" r="25"/>
<circle clip-path="url(#clip4300)" style="fill:#0000ff; stroke:none; fill-opacity:1" cx="623.709" cy="265.675" r="21"/>
<g clip-path="url(#clip4300)">
<text style="fill:#000000; fill-opacity:1; font-family:Arial,Helvetica Neue,Helvetica,sans-serif; font-size:48px; text-anchor:start;" transform="rotate(0, 707.709, 283.175)" x="707.709" y="283.175">male (n = 11)</text>
</g>
<circle clip-path="url(#clip4300)" style="fill:#000000; stroke:none; fill-opacity:1" cx="623.709" cy="326.155" r="25"/>
<circle clip-path="url(#clip4300)" style="fill:#ff0000; stroke:none; fill-opacity:1" cx="623.709" cy="326.155" r="21"/>
<g clip-path="url(#clip4300)">
<text style="fill:#000000; fill-opacity:1; font-family:Arial,Helvetica Neue,Helvetica,sans-serif; font-size:48px; text-anchor:start;" transform="rotate(0, 707.709, 343.655)" x="707.709" y="343.655">female (n = 39)</text>
</g>
<path clip-path="url(#clip4300)" d="
M1415.75 1425.62 L2352.76 1425.62 L2352.76 121.675 L1415.75 121.675  Z
  " fill="#ffffff" fill-rule="evenodd" fill-opacity="1"/>
<defs>
  <clipPath id="clip4303">
    <rect x="1415" y="121" width="938" height="1305"/>
  </clipPath>
</defs>
<polyline clip-path="url(#clip4303)" style="stroke:#000000; stroke-width:2; stroke-opacity:0.1; fill:none" points="
  1530.43,1425.62 1530.43,121.675 
  "/>
<polyline clip-path="url(#clip4303)" style="stroke:#000000; stroke-width:2; stroke-opacity:0.1; fill:none" points="
  1723.62,1425.62 1723.62,121.675 
  "/>
<polyline clip-path="url(#clip4303)" style="stroke:#000000; stroke-width:2; stroke-opacity:0.1; fill:none" points="
  1916.82,1425.62 1916.82,121.675 
  "/>
<polyline clip-path="url(#clip4303)" style="stroke:#000000; stroke-width:2; stroke-opacity:0.1; fill:none" points="
  2110.01,1425.62 2110.01,121.675 
  "/>
<polyline clip-path="url(#clip4303)" style="stroke:#000000; stroke-width:2; stroke-opacity:0.1; fill:none" points="
  2303.2,1425.62 2303.2,121.675 
  "/>
<polyline clip-path="url(#clip4303)" style="stroke:#000000; stroke-width:2; stroke-opacity:0.1; fill:none" points="
  1415.75,1425.62 2352.76,1425.62 
  "/>
<polyline clip-path="url(#clip4303)" style="stroke:#000000; stroke-width:2; stroke-opacity:0.1; fill:none" points="
  1415.75,1099.63 2352.76,1099.63 
  "/>
<polyline clip-path="url(#clip4303)" style="stroke:#000000; stroke-width:2; stroke-opacity:0.1; fill:none" points="
  1415.75,773.647 2352.76,773.647 
  "/>
<polyline clip-path="url(#clip4303)" style="stroke:#000000; stroke-width:2; stroke-opacity:0.1; fill:none" points="
  1415.75,447.661 2352.76,447.661 
  "/>
<polyline clip-path="url(#clip4303)" style="stroke:#000000; stroke-width:2; stroke-opacity:0.1; fill:none" points="
  1415.75,121.675 2352.76,121.675 
  "/>
<polyline clip-path="url(#clip4300)" style="stroke:#000000; stroke-width:4; stroke-opacity:1; fill:none" points="
  1415.75,1425.62 2352.76,1425.62 
  "/>
<polyline clip-path="url(#clip4300)" style="stroke:#000000; stroke-width:4; stroke-opacity:1; fill:none" points="
  1415.75,1425.62 1415.75,121.675 
  "/>
<polyline clip-path="url(#clip4300)" style="stroke:#000000; stroke-width:4; stroke-opacity:1; fill:none" points="
  1530.43,1425.62 1530.43,1409.97 
  "/>
<polyline clip-path="url(#clip4300)" style="stroke:#000000; stroke-width:4; stroke-opacity:1; fill:none" points="
  1723.62,1425.62 1723.62,1409.97 
  "/>
<polyline clip-path="url(#clip4300)" style="stroke:#000000; stroke-width:4; stroke-opacity:1; fill:none" points="
  1916.82,1425.62 1916.82,1409.97 
  "/>
<polyline clip-path="url(#clip4300)" style="stroke:#000000; stroke-width:4; stroke-opacity:1; fill:none" points="
  2110.01,1425.62 2110.01,1409.97 
  "/>
<polyline clip-path="url(#clip4300)" style="stroke:#000000; stroke-width:4; stroke-opacity:1; fill:none" points="
  2303.2,1425.62 2303.2,1409.97 
  "/>
<polyline clip-path="url(#clip4300)" style="stroke:#000000; stroke-width:4; stroke-opacity:1; fill:none" points="
  1415.75,1425.62 1427,1425.62 
  "/>
<polyline clip-path="url(#clip4300)" style="stroke:#000000; stroke-width:4; stroke-opacity:1; fill:none" points="
  1415.75,1099.63 1427,1099.63 
  "/>
<polyline clip-path="url(#clip4300)" style="stroke:#000000; stroke-width:4; stroke-opacity:1; fill:none" points="
  1415.75,773.647 1427,773.647 
  "/>
<polyline clip-path="url(#clip4300)" style="stroke:#000000; stroke-width:4; stroke-opacity:1; fill:none" points="
  1415.75,447.661 1427,447.661 
  "/>
<polyline clip-path="url(#clip4300)" style="stroke:#000000; stroke-width:4; stroke-opacity:1; fill:none" points="
  1415.75,121.675 1427,121.675 
  "/>
<g clip-path="url(#clip4300)">
<text style="fill:#000000; fill-opacity:1; font-family:Arial,Helvetica Neue,Helvetica,sans-serif; font-size:48px; text-anchor:middle;" transform="rotate(0, 1530.43, 1479.62)" x="1530.43" y="1479.62">20</text>
</g>
<g clip-path="url(#clip4300)">
<text style="fill:#000000; fill-opacity:1; font-family:Arial,Helvetica Neue,Helvetica,sans-serif; font-size:48px; text-anchor:middle;" transform="rotate(0, 1723.62, 1479.62)" x="1723.62" y="1479.62">25</text>
</g>
<g clip-path="url(#clip4300)">
<text style="fill:#000000; fill-opacity:1; font-family:Arial,Helvetica Neue,Helvetica,sans-serif; font-size:48px; text-anchor:middle;" transform="rotate(0, 1916.82, 1479.62)" x="1916.82" y="1479.62">30</text>
</g>
<g clip-path="url(#clip4300)">
<text style="fill:#000000; fill-opacity:1; font-family:Arial,Helvetica Neue,Helvetica,sans-serif; font-size:48px; text-anchor:middle;" transform="rotate(0, 2110.01, 1479.62)" x="2110.01" y="1479.62">35</text>
</g>
<g clip-path="url(#clip4300)">
<text style="fill:#000000; fill-opacity:1; font-family:Arial,Helvetica Neue,Helvetica,sans-serif; font-size:48px; text-anchor:middle;" transform="rotate(0, 2303.2, 1479.62)" x="2303.2" y="1479.62">40</text>
</g>
<g clip-path="url(#clip4300)">
<text style="fill:#000000; fill-opacity:1; font-family:Arial,Helvetica Neue,Helvetica,sans-serif; font-size:48px; text-anchor:end;" transform="rotate(0, 1391.75, 1443.12)" x="1391.75" y="1443.12">0.0</text>
</g>
<g clip-path="url(#clip4300)">
<text style="fill:#000000; fill-opacity:1; font-family:Arial,Helvetica Neue,Helvetica,sans-serif; font-size:48px; text-anchor:end;" transform="rotate(0, 1391.75, 1117.13)" x="1391.75" y="1117.13">0.5</text>
</g>
<g clip-path="url(#clip4300)">
<text style="fill:#000000; fill-opacity:1; font-family:Arial,Helvetica Neue,Helvetica,sans-serif; font-size:48px; text-anchor:end;" transform="rotate(0, 1391.75, 791.147)" x="1391.75" y="791.147">1.0</text>
</g>
<g clip-path="url(#clip4300)">
<text style="fill:#000000; fill-opacity:1; font-family:Arial,Helvetica Neue,Helvetica,sans-serif; font-size:48px; text-anchor:end;" transform="rotate(0, 1391.75, 465.161)" x="1391.75" y="465.161">1.5</text>
</g>
<g clip-path="url(#clip4300)">
<text style="fill:#000000; fill-opacity:1; font-family:Arial,Helvetica Neue,Helvetica,sans-serif; font-size:48px; text-anchor:end;" transform="rotate(0, 1391.75, 139.175)" x="1391.75" y="139.175">2.0</text>
</g>
<g clip-path="url(#clip4300)">
<text style="fill:#000000; fill-opacity:1; font-family:Arial,Helvetica Neue,Helvetica,sans-serif; font-size:84px; text-anchor:middle;" transform="rotate(0, 1884.25, 73.2)" x="1884.25" y="73.2">Predicted Time 3</text>
</g>
<g clip-path="url(#clip4300)">
<text style="fill:#000000; fill-opacity:1; font-family:Arial,Helvetica Neue,Helvetica,sans-serif; font-size:66px; text-anchor:middle;" transform="rotate(0, 1884.25, 1559.48)" x="1884.25" y="1559.48">BMI</text>
</g>
<g clip-path="url(#clip4300)">
<text style="fill:#000000; fill-opacity:1; font-family:Arial,Helvetica Neue,Helvetica,sans-serif; font-size:66px; text-anchor:middle;" transform="rotate(-90, 1289.29, 773.647)" x="1289.29" y="773.647">FT4 (ng/dL)</text>
</g>
<circle clip-path="url(#clip4303)" style="fill:#000000; stroke:none; fill-opacity:1" cx="1564.81" cy="849.42" r="18"/>
<circle clip-path="url(#clip4303)" style="fill:#0000ff; stroke:none; fill-opacity:1" cx="1564.81" cy="849.42" r="14"/>
<circle clip-path="url(#clip4303)" style="fill:#000000; stroke:none; fill-opacity:1" cx="1777.77" cy="508.333" r="18"/>
<circle clip-path="url(#clip4303)" style="fill:#0000ff; stroke:none; fill-opacity:1" cx="1777.77" cy="508.333" r="14"/>
<circle clip-path="url(#clip4303)" style="fill:#000000; stroke:none; fill-opacity:1" cx="1920.39" cy="454.686" r="18"/>
<circle clip-path="url(#clip4303)" style="fill:#0000ff; stroke:none; fill-opacity:1" cx="1920.39" cy="454.686" r="14"/>
<circle clip-path="url(#clip4303)" style="fill:#000000; stroke:none; fill-opacity:1" cx="1794.36" cy="464.41" r="18"/>
<circle clip-path="url(#clip4303)" style="fill:#0000ff; stroke:none; fill-opacity:1" cx="1794.36" cy="464.41" r="14"/>
<circle clip-path="url(#clip4303)" style="fill:#000000; stroke:none; fill-opacity:1" cx="1811.2" cy="504.686" r="18"/>
<circle clip-path="url(#clip4303)" style="fill:#0000ff; stroke:none; fill-opacity:1" cx="1811.2" cy="504.686" r="14"/>
<circle clip-path="url(#clip4303)" style="fill:#000000; stroke:none; fill-opacity:1" cx="1838.74" cy="451.502" r="18"/>
<circle clip-path="url(#clip4303)" style="fill:#0000ff; stroke:none; fill-opacity:1" cx="1838.74" cy="451.502" r="14"/>
<circle clip-path="url(#clip4303)" style="fill:#000000; stroke:none; fill-opacity:1" cx="1913.74" cy="280.784" r="18"/>
<circle clip-path="url(#clip4303)" style="fill:#0000ff; stroke:none; fill-opacity:1" cx="1913.74" cy="280.784" r="14"/>
<circle clip-path="url(#clip4303)" style="fill:#000000; stroke:none; fill-opacity:1" cx="1607.77" cy="650.386" r="18"/>
<circle clip-path="url(#clip4303)" style="fill:#0000ff; stroke:none; fill-opacity:1" cx="1607.77" cy="650.386" r="14"/>
<circle clip-path="url(#clip4303)" style="fill:#000000; stroke:none; fill-opacity:1" cx="1699.48" cy="575.337" r="18"/>
<circle clip-path="url(#clip4303)" style="fill:#0000ff; stroke:none; fill-opacity:1" cx="1699.48" cy="575.337" r="14"/>
<circle clip-path="url(#clip4303)" style="fill:#000000; stroke:none; fill-opacity:1" cx="1760.76" cy="495.803" r="18"/>
<circle clip-path="url(#clip4303)" style="fill:#0000ff; stroke:none; fill-opacity:1" cx="1760.76" cy="495.803" r="14"/>
<circle clip-path="url(#clip4303)" style="fill:#000000; stroke:none; fill-opacity:1" cx="1744.13" cy="278.632" r="18"/>
<circle clip-path="url(#clip4303)" style="fill:#0000ff; stroke:none; fill-opacity:1" cx="1744.13" cy="278.632" r="14"/>
<circle clip-path="url(#clip4303)" style="fill:#000000; stroke:none; fill-opacity:1" cx="1725.13" cy="757.154" r="18"/>
<circle clip-path="url(#clip4303)" style="fill:#ff0000; stroke:none; fill-opacity:1" cx="1725.13" cy="757.154" r="14"/>
<circle clip-path="url(#clip4303)" style="fill:#000000; stroke:none; fill-opacity:1" cx="2046.14" cy="454.932" r="18"/>
<circle clip-path="url(#clip4303)" style="fill:#ff0000; stroke:none; fill-opacity:1" cx="2046.14" cy="454.932" r="14"/>
<circle clip-path="url(#clip4303)" style="fill:#000000; stroke:none; fill-opacity:1" cx="1937.32" cy="410.199" r="18"/>
<circle clip-path="url(#clip4303)" style="fill:#ff0000; stroke:none; fill-opacity:1" cx="1937.32" cy="410.199" r="14"/>
<circle clip-path="url(#clip4303)" style="fill:#000000; stroke:none; fill-opacity:1" cx="1831.24" cy="627.318" r="18"/>
<circle clip-path="url(#clip4303)" style="fill:#ff0000; stroke:none; fill-opacity:1" cx="1831.24" cy="627.318" r="14"/>
<circle clip-path="url(#clip4303)" style="fill:#000000; stroke:none; fill-opacity:1" cx="1979.62" cy="445.433" r="18"/>
<circle clip-path="url(#clip4303)" style="fill:#ff0000; stroke:none; fill-opacity:1" cx="1979.62" cy="445.433" r="14"/>
<circle clip-path="url(#clip4303)" style="fill:#000000; stroke:none; fill-opacity:1" cx="1811.15" cy="620.798" r="18"/>
<circle clip-path="url(#clip4303)" style="fill:#ff0000; stroke:none; fill-opacity:1" cx="1811.15" cy="620.798" r="14"/>
<circle clip-path="url(#clip4303)" style="fill:#000000; stroke:none; fill-opacity:1" cx="1499.68" cy="142.411" r="18"/>
<circle clip-path="url(#clip4303)" style="fill:#ff0000; stroke:none; fill-opacity:1" cx="1499.68" cy="142.411" r="14"/>
<circle clip-path="url(#clip4303)" style="fill:#000000; stroke:none; fill-opacity:1" cx="1442.27" cy="1011.7" r="18"/>
<circle clip-path="url(#clip4303)" style="fill:#ff0000; stroke:none; fill-opacity:1" cx="1442.27" cy="1011.7" r="14"/>
<circle clip-path="url(#clip4303)" style="fill:#000000; stroke:none; fill-opacity:1" cx="1733.56" cy="846.547" r="18"/>
<circle clip-path="url(#clip4303)" style="fill:#ff0000; stroke:none; fill-opacity:1" cx="1733.56" cy="846.547" r="14"/>
<circle clip-path="url(#clip4303)" style="fill:#000000; stroke:none; fill-opacity:1" cx="1663.94" cy="744.668" r="18"/>
<circle clip-path="url(#clip4303)" style="fill:#ff0000; stroke:none; fill-opacity:1" cx="1663.94" cy="744.668" r="14"/>
<circle clip-path="url(#clip4303)" style="fill:#000000; stroke:none; fill-opacity:1" cx="1603.81" cy="668.866" r="18"/>
<circle clip-path="url(#clip4303)" style="fill:#ff0000; stroke:none; fill-opacity:1" cx="1603.81" cy="668.866" r="14"/>
<circle clip-path="url(#clip4303)" style="fill:#000000; stroke:none; fill-opacity:1" cx="2195.68" cy="243.864" r="18"/>
<circle clip-path="url(#clip4303)" style="fill:#ff0000; stroke:none; fill-opacity:1" cx="2195.68" cy="243.864" r="14"/>
<circle clip-path="url(#clip4303)" style="fill:#000000; stroke:none; fill-opacity:1" cx="1722.36" cy="477.024" r="18"/>
<circle clip-path="url(#clip4303)" style="fill:#ff0000; stroke:none; fill-opacity:1" cx="1722.36" cy="477.024" r="14"/>
<circle clip-path="url(#clip4303)" style="fill:#000000; stroke:none; fill-opacity:1" cx="1777.69" cy="543.133" r="18"/>
<circle clip-path="url(#clip4303)" style="fill:#ff0000; stroke:none; fill-opacity:1" cx="1777.69" cy="543.133" r="14"/>
<circle clip-path="url(#clip4303)" style="fill:#000000; stroke:none; fill-opacity:1" cx="1721.32" cy="572.827" r="18"/>
<circle clip-path="url(#clip4303)" style="fill:#ff0000; stroke:none; fill-opacity:1" cx="1721.32" cy="572.827" r="14"/>
<circle clip-path="url(#clip4303)" style="fill:#000000; stroke:none; fill-opacity:1" cx="1888.14" cy="656.699" r="18"/>
<circle clip-path="url(#clip4303)" style="fill:#ff0000; stroke:none; fill-opacity:1" cx="1888.14" cy="656.699" r="14"/>
<circle clip-path="url(#clip4303)" style="fill:#000000; stroke:none; fill-opacity:1" cx="1546.53" cy="830.051" r="18"/>
<circle clip-path="url(#clip4303)" style="fill:#ff0000; stroke:none; fill-opacity:1" cx="1546.53" cy="830.051" r="14"/>
<circle clip-path="url(#clip4303)" style="fill:#000000; stroke:none; fill-opacity:1" cx="1674.68" cy="675.958" r="18"/>
<circle clip-path="url(#clip4303)" style="fill:#ff0000; stroke:none; fill-opacity:1" cx="1674.68" cy="675.958" r="14"/>
<circle clip-path="url(#clip4303)" style="fill:#000000; stroke:none; fill-opacity:1" cx="1721.32" cy="747.423" r="18"/>
<circle clip-path="url(#clip4303)" style="fill:#ff0000; stroke:none; fill-opacity:1" cx="1721.32" cy="747.423" r="14"/>
<circle clip-path="url(#clip4303)" style="fill:#000000; stroke:none; fill-opacity:1" cx="1826.55" cy="400.042" r="18"/>
<circle clip-path="url(#clip4303)" style="fill:#ff0000; stroke:none; fill-opacity:1" cx="1826.55" cy="400.042" r="14"/>
<circle clip-path="url(#clip4303)" style="fill:#000000; stroke:none; fill-opacity:1" cx="1929.94" cy="459.672" r="18"/>
<circle clip-path="url(#clip4303)" style="fill:#ff0000; stroke:none; fill-opacity:1" cx="1929.94" cy="459.672" r="14"/>
<circle clip-path="url(#clip4303)" style="fill:#000000; stroke:none; fill-opacity:1" cx="1908.52" cy="659.766" r="18"/>
<circle clip-path="url(#clip4303)" style="fill:#ff0000; stroke:none; fill-opacity:1" cx="1908.52" cy="659.766" r="14"/>
<circle clip-path="url(#clip4303)" style="fill:#000000; stroke:none; fill-opacity:1" cx="1996.65" cy="450.969" r="18"/>
<circle clip-path="url(#clip4303)" style="fill:#ff0000; stroke:none; fill-opacity:1" cx="1996.65" cy="450.969" r="14"/>
<circle clip-path="url(#clip4303)" style="fill:#000000; stroke:none; fill-opacity:1" cx="1943.25" cy="308.627" r="18"/>
<circle clip-path="url(#clip4303)" style="fill:#ff0000; stroke:none; fill-opacity:1" cx="1943.25" cy="308.627" r="14"/>
<circle clip-path="url(#clip4303)" style="fill:#000000; stroke:none; fill-opacity:1" cx="1915.75" cy="460.448" r="18"/>
<circle clip-path="url(#clip4303)" style="fill:#ff0000; stroke:none; fill-opacity:1" cx="1915.75" cy="460.448" r="14"/>
<circle clip-path="url(#clip4303)" style="fill:#000000; stroke:none; fill-opacity:1" cx="1604.85" cy="775.535" r="18"/>
<circle clip-path="url(#clip4303)" style="fill:#ff0000; stroke:none; fill-opacity:1" cx="1604.85" cy="775.535" r="14"/>
<circle clip-path="url(#clip4303)" style="fill:#000000; stroke:none; fill-opacity:1" cx="1980.81" cy="789.714" r="18"/>
<circle clip-path="url(#clip4303)" style="fill:#ff0000; stroke:none; fill-opacity:1" cx="1980.81" cy="789.714" r="14"/>
<circle clip-path="url(#clip4303)" style="fill:#000000; stroke:none; fill-opacity:1" cx="1839.27" cy="814.884" r="18"/>
<circle clip-path="url(#clip4303)" style="fill:#ff0000; stroke:none; fill-opacity:1" cx="1839.27" cy="814.884" r="14"/>
<circle clip-path="url(#clip4303)" style="fill:#000000; stroke:none; fill-opacity:1" cx="1586.49" cy="561.444" r="18"/>
<circle clip-path="url(#clip4303)" style="fill:#ff0000; stroke:none; fill-opacity:1" cx="1586.49" cy="561.444" r="14"/>
<circle clip-path="url(#clip4303)" style="fill:#000000; stroke:none; fill-opacity:1" cx="1930.19" cy="662.513" r="18"/>
<circle clip-path="url(#clip4303)" style="fill:#ff0000; stroke:none; fill-opacity:1" cx="1930.19" cy="662.513" r="14"/>
<circle clip-path="url(#clip4303)" style="fill:#000000; stroke:none; fill-opacity:1" cx="1784.47" cy="457.233" r="18"/>
<circle clip-path="url(#clip4303)" style="fill:#ff0000; stroke:none; fill-opacity:1" cx="1784.47" cy="457.233" r="14"/>
<circle clip-path="url(#clip4303)" style="fill:#000000; stroke:none; fill-opacity:1" cx="1555.5" cy="668.679" r="18"/>
<circle clip-path="url(#clip4303)" style="fill:#ff0000; stroke:none; fill-opacity:1" cx="1555.5" cy="668.679" r="14"/>
<circle clip-path="url(#clip4303)" style="fill:#000000; stroke:none; fill-opacity:1" cx="1735.7" cy="1004.4" r="18"/>
<circle clip-path="url(#clip4303)" style="fill:#ff0000; stroke:none; fill-opacity:1" cx="1735.7" cy="1004.4" r="14"/>
<circle clip-path="url(#clip4303)" style="fill:#000000; stroke:none; fill-opacity:1" cx="1910.08" cy="399.219" r="18"/>
<circle clip-path="url(#clip4303)" style="fill:#ff0000; stroke:none; fill-opacity:1" cx="1910.08" cy="399.219" r="14"/>
<circle clip-path="url(#clip4303)" style="fill:#000000; stroke:none; fill-opacity:1" cx="1914.72" cy="760.13" r="18"/>
<circle clip-path="url(#clip4303)" style="fill:#ff0000; stroke:none; fill-opacity:1" cx="1914.72" cy="760.13" r="14"/>
<circle clip-path="url(#clip4303)" style="fill:#000000; stroke:none; fill-opacity:1" cx="1801.2" cy="540.68" r="18"/>
<circle clip-path="url(#clip4303)" style="fill:#ff0000; stroke:none; fill-opacity:1" cx="1801.2" cy="540.68" r="14"/>
<circle clip-path="url(#clip4303)" style="fill:#000000; stroke:none; fill-opacity:1" cx="1851.55" cy="511.043" r="18"/>
<circle clip-path="url(#clip4303)" style="fill:#ff0000; stroke:none; fill-opacity:1" cx="1851.55" cy="511.043" r="14"/>
<circle clip-path="url(#clip4303)" style="fill:#000000; stroke:none; fill-opacity:1" cx="1547.57" cy="835.068" r="18"/>
<circle clip-path="url(#clip4303)" style="fill:#ff0000; stroke:none; fill-opacity:1" cx="1547.57" cy="835.068" r="14"/>
<path clip-path="url(#clip4300)" d="
M1715.71 386.635 L2280.76 386.635 L2280.76 205.195 L1715.71 205.195  Z
  " fill="#ffffff" fill-rule="evenodd" fill-opacity="1"/>
<polyline clip-path="url(#clip4300)" style="stroke:#000000; stroke-width:4; stroke-opacity:1; fill:none" points="
  1715.71,386.635 2280.76,386.635 2280.76,205.195 1715.71,205.195 1715.71,386.635 
  "/>
<circle clip-path="url(#clip4300)" style="fill:#000000; stroke:none; fill-opacity:1" cx="1823.71" cy="265.675" r="25"/>
<circle clip-path="url(#clip4300)" style="fill:#0000ff; stroke:none; fill-opacity:1" cx="1823.71" cy="265.675" r="21"/>
<g clip-path="url(#clip4300)">
<text style="fill:#000000; fill-opacity:1; font-family:Arial,Helvetica Neue,Helvetica,sans-serif; font-size:48px; text-anchor:start;" transform="rotate(0, 1907.71, 283.175)" x="1907.71" y="283.175">male (n = 11)</text>
</g>
<circle clip-path="url(#clip4300)" style="fill:#000000; stroke:none; fill-opacity:1" cx="1823.71" cy="326.155" r="25"/>
<circle clip-path="url(#clip4300)" style="fill:#ff0000; stroke:none; fill-opacity:1" cx="1823.71" cy="326.155" r="21"/>
<g clip-path="url(#clip4300)">
<text style="fill:#000000; fill-opacity:1; font-family:Arial,Helvetica Neue,Helvetica,sans-serif; font-size:48px; text-anchor:start;" transform="rotate(0, 1907.71, 343.655)" x="1907.71" y="343.655">female (n = 39)</text>
</g>
</svg>
