<?xml version="1.0" encoding="utf-8"?>
<svg xmlns="http://www.w3.org/2000/svg" xmlns:xlink="http://www.w3.org/1999/xlink" width="600" height="400" viewBox="0 0 2400 1600">
<defs>
  <clipPath id="clip3600">
    <rect x="0" y="0" width="2400" height="1600"/>
  </clipPath>
</defs>
<path clip-path="url(#clip3600)" d="
M0 1600 L2400 1600 L2400 0 L0 0  Z
  " fill="#ffffff" fill-rule="evenodd" fill-opacity="1"/>
<defs>
  <clipPath id="clip3601">
    <rect x="480" y="0" width="1681" height="1600"/>
  </clipPath>
</defs>
<path clip-path="url(#clip3600)" d="
M202.373 1425.62 L1152.76 1425.62 L1152.76 121.675 L202.373 121.675  Z
  " fill="#ffffff" fill-rule="evenodd" fill-opacity="1"/>
<defs>
  <clipPath id="clip3602">
    <rect x="202" y="121" width="951" height="1305"/>
  </clipPath>
</defs>
<polyline clip-path="url(#clip3602)" style="stroke:#000000; stroke-width:2; stroke-opacity:0.1; fill:none" points="
  229.271,1425.62 229.271,121.675 
  "/>
<polyline clip-path="url(#clip3602)" style="stroke:#000000; stroke-width:2; stroke-opacity:0.1; fill:none" points="
  424.181,1425.62 424.181,121.675 
  "/>
<polyline clip-path="url(#clip3602)" style="stroke:#000000; stroke-width:2; stroke-opacity:0.1; fill:none" points="
  619.091,1425.62 619.091,121.675 
  "/>
<polyline clip-path="url(#clip3602)" style="stroke:#000000; stroke-width:2; stroke-opacity:0.1; fill:none" points="
  814.002,1425.62 814.002,121.675 
  "/>
<polyline clip-path="url(#clip3602)" style="stroke:#000000; stroke-width:2; stroke-opacity:0.1; fill:none" points="
  1008.91,1425.62 1008.91,121.675 
  "/>
<polyline clip-path="url(#clip3602)" style="stroke:#000000; stroke-width:2; stroke-opacity:0.1; fill:none" points="
  202.373,1425.62 1152.76,1425.62 
  "/>
<polyline clip-path="url(#clip3602)" style="stroke:#000000; stroke-width:2; stroke-opacity:0.1; fill:none" points="
  202.373,1164.83 1152.76,1164.83 
  "/>
<polyline clip-path="url(#clip3602)" style="stroke:#000000; stroke-width:2; stroke-opacity:0.1; fill:none" points="
  202.373,904.041 1152.76,904.041 
  "/>
<polyline clip-path="url(#clip3602)" style="stroke:#000000; stroke-width:2; stroke-opacity:0.1; fill:none" points="
  202.373,643.253 1152.76,643.253 
  "/>
<polyline clip-path="url(#clip3602)" style="stroke:#000000; stroke-width:2; stroke-opacity:0.1; fill:none" points="
  202.373,382.464 1152.76,382.464 
  "/>
<polyline clip-path="url(#clip3602)" style="stroke:#000000; stroke-width:2; stroke-opacity:0.1; fill:none" points="
  202.373,121.675 1152.76,121.675 
  "/>
<polyline clip-path="url(#clip3600)" style="stroke:#000000; stroke-width:4; stroke-opacity:1; fill:none" points="
  202.373,1425.62 1152.76,1425.62 
  "/>
<polyline clip-path="url(#clip3600)" style="stroke:#000000; stroke-width:4; stroke-opacity:1; fill:none" points="
  202.373,1425.62 202.373,121.675 
  "/>
<polyline clip-path="url(#clip3600)" style="stroke:#000000; stroke-width:4; stroke-opacity:1; fill:none" points="
  229.271,1425.62 229.271,1409.97 
  "/>
<polyline clip-path="url(#clip3600)" style="stroke:#000000; stroke-width:4; stroke-opacity:1; fill:none" points="
  424.181,1425.62 424.181,1409.97 
  "/>
<polyline clip-path="url(#clip3600)" style="stroke:#000000; stroke-width:4; stroke-opacity:1; fill:none" points="
  619.091,1425.62 619.091,1409.97 
  "/>
<polyline clip-path="url(#clip3600)" style="stroke:#000000; stroke-width:4; stroke-opacity:1; fill:none" points="
  814.002,1425.62 814.002,1409.97 
  "/>
<polyline clip-path="url(#clip3600)" style="stroke:#000000; stroke-width:4; stroke-opacity:1; fill:none" points="
  1008.91,1425.62 1008.91,1409.97 
  "/>
<polyline clip-path="url(#clip3600)" style="stroke:#000000; stroke-width:4; stroke-opacity:1; fill:none" points="
  202.373,1425.62 213.778,1425.62 
  "/>
<polyline clip-path="url(#clip3600)" style="stroke:#000000; stroke-width:4; stroke-opacity:1; fill:none" points="
  202.373,1164.83 213.778,1164.83 
  "/>
<polyline clip-path="url(#clip3600)" style="stroke:#000000; stroke-width:4; stroke-opacity:1; fill:none" points="
  202.373,904.041 213.778,904.041 
  "/>
<polyline clip-path="url(#clip3600)" style="stroke:#000000; stroke-width:4; stroke-opacity:1; fill:none" points="
  202.373,643.253 213.778,643.253 
  "/>
<polyline clip-path="url(#clip3600)" style="stroke:#000000; stroke-width:4; stroke-opacity:1; fill:none" points="
  202.373,382.464 213.778,382.464 
  "/>
<polyline clip-path="url(#clip3600)" style="stroke:#000000; stroke-width:4; stroke-opacity:1; fill:none" points="
  202.373,121.675 213.778,121.675 
  "/>
<g clip-path="url(#clip3600)">
<text style="fill:#000000; fill-opacity:1; font-family:Arial,Helvetica Neue,Helvetica,sans-serif; font-size:48px; text-anchor:middle;" transform="rotate(0, 229.271, 1479.62)" x="229.271" y="1479.62">0.75</text>
</g>
<g clip-path="url(#clip3600)">
<text style="fill:#000000; fill-opacity:1; font-family:Arial,Helvetica Neue,Helvetica,sans-serif; font-size:48px; text-anchor:middle;" transform="rotate(0, 424.181, 1479.62)" x="424.181" y="1479.62">1.00</text>
</g>
<g clip-path="url(#clip3600)">
<text style="fill:#000000; fill-opacity:1; font-family:Arial,Helvetica Neue,Helvetica,sans-serif; font-size:48px; text-anchor:middle;" transform="rotate(0, 619.091, 1479.62)" x="619.091" y="1479.62">1.25</text>
</g>
<g clip-path="url(#clip3600)">
<text style="fill:#000000; fill-opacity:1; font-family:Arial,Helvetica Neue,Helvetica,sans-serif; font-size:48px; text-anchor:middle;" transform="rotate(0, 814.002, 1479.62)" x="814.002" y="1479.62">1.50</text>
</g>
<g clip-path="url(#clip3600)">
<text style="fill:#000000; fill-opacity:1; font-family:Arial,Helvetica Neue,Helvetica,sans-serif; font-size:48px; text-anchor:middle;" transform="rotate(0, 1008.91, 1479.62)" x="1008.91" y="1479.62">1.75</text>
</g>
<g clip-path="url(#clip3600)">
<text style="fill:#000000; fill-opacity:1; font-family:Arial,Helvetica Neue,Helvetica,sans-serif; font-size:48px; text-anchor:end;" transform="rotate(0, 178.373, 1443.12)" x="178.373" y="1443.12">0</text>
</g>
<g clip-path="url(#clip3600)">
<text style="fill:#000000; fill-opacity:1; font-family:Arial,Helvetica Neue,Helvetica,sans-serif; font-size:48px; text-anchor:end;" transform="rotate(0, 178.373, 1182.33)" x="178.373" y="1182.33">2</text>
</g>
<g clip-path="url(#clip3600)">
<text style="fill:#000000; fill-opacity:1; font-family:Arial,Helvetica Neue,Helvetica,sans-serif; font-size:48px; text-anchor:end;" transform="rotate(0, 178.373, 921.541)" x="178.373" y="921.541">4</text>
</g>
<g clip-path="url(#clip3600)">
<text style="fill:#000000; fill-opacity:1; font-family:Arial,Helvetica Neue,Helvetica,sans-serif; font-size:48px; text-anchor:end;" transform="rotate(0, 178.373, 660.753)" x="178.373" y="660.753">6</text>
</g>
<g clip-path="url(#clip3600)">
<text style="fill:#000000; fill-opacity:1; font-family:Arial,Helvetica Neue,Helvetica,sans-serif; font-size:48px; text-anchor:end;" transform="rotate(0, 178.373, 399.964)" x="178.373" y="399.964">8</text>
</g>
<g clip-path="url(#clip3600)">
<text style="fill:#000000; fill-opacity:1; font-family:Arial,Helvetica Neue,Helvetica,sans-serif; font-size:48px; text-anchor:end;" transform="rotate(0, 178.373, 139.175)" x="178.373" y="139.175">10</text>
</g>
<g clip-path="url(#clip3600)">
<text style="fill:#000000; fill-opacity:1; font-family:Arial,Helvetica Neue,Helvetica,sans-serif; font-size:84px; text-anchor:middle;" transform="rotate(0, 677.564, 73.2)" x="677.564" y="73.2">Data Time 3</text>
</g>
<g clip-path="url(#clip3600)">
<text style="fill:#000000; fill-opacity:1; font-family:Arial,Helvetica Neue,Helvetica,sans-serif; font-size:66px; text-anchor:middle;" transform="rotate(0, 677.564, 1559.48)" x="677.564" y="1559.48">T3</text>
</g>
<g clip-path="url(#clip3600)">
<text style="fill:#000000; fill-opacity:1; font-family:Arial,Helvetica Neue,Helvetica,sans-serif; font-size:66px; text-anchor:middle;" transform="rotate(-90, 89.2861, 773.647)" x="89.2861" y="773.647">TSH</text>
</g>
<circle clip-path="url(#clip3602)" style="fill:#000000; stroke:none; fill-opacity:1" cx="533.331" cy="1308.26" r="18"/>
<circle clip-path="url(#clip3602)" style="fill:#0000ff; stroke:none; fill-opacity:1" cx="533.331" cy="1308.26" r="14"/>
<circle clip-path="url(#clip3602)" style="fill:#000000; stroke:none; fill-opacity:1" cx="244.863" cy="160.793" r="18"/>
<circle clip-path="url(#clip3602)" style="fill:#0000ff; stroke:none; fill-opacity:1" cx="244.863" cy="160.793" r="14"/>
<circle clip-path="url(#clip3602)" style="fill:#000000; stroke:none; fill-opacity:1" cx="385.199" cy="1086.59" r="18"/>
<circle clip-path="url(#clip3602)" style="fill:#0000ff; stroke:none; fill-opacity:1" cx="385.199" cy="1086.59" r="14"/>
<circle clip-path="url(#clip3602)" style="fill:#000000; stroke:none; fill-opacity:1" cx="478.756" cy="1372.16" r="18"/>
<circle clip-path="url(#clip3602)" style="fill:#0000ff; stroke:none; fill-opacity:1" cx="478.756" cy="1372.16" r="14"/>
<circle clip-path="url(#clip3602)" style="fill:#000000; stroke:none; fill-opacity:1" cx="954.337" cy="1420.4" r="18"/>
<circle clip-path="url(#clip3602)" style="fill:#0000ff; stroke:none; fill-opacity:1" cx="954.337" cy="1420.4" r="14"/>
<circle clip-path="url(#clip3602)" style="fill:#000000; stroke:none; fill-opacity:1" cx="681.463" cy="1326.52" r="18"/>
<circle clip-path="url(#clip3602)" style="fill:#0000ff; stroke:none; fill-opacity:1" cx="681.463" cy="1326.52" r="14"/>
<circle clip-path="url(#clip3602)" style="fill:#000000; stroke:none; fill-opacity:1" cx="424.181" cy="1351.29" r="18"/>
<circle clip-path="url(#clip3602)" style="fill:#0000ff; stroke:none; fill-opacity:1" cx="424.181" cy="1351.29" r="14"/>
<circle clip-path="url(#clip3602)" style="fill:#000000; stroke:none; fill-opacity:1" cx="346.217" cy="917.081" r="18"/>
<circle clip-path="url(#clip3602)" style="fill:#0000ff; stroke:none; fill-opacity:1" cx="346.217" cy="917.081" r="14"/>
<circle clip-path="url(#clip3602)" style="fill:#000000; stroke:none; fill-opacity:1" cx="478.756" cy="956.199" r="18"/>
<circle clip-path="url(#clip3602)" style="fill:#0000ff; stroke:none; fill-opacity:1" cx="478.756" cy="956.199" r="14"/>
<circle clip-path="url(#clip3602)" style="fill:#000000; stroke:none; fill-opacity:1" cx="736.038" cy="1412.58" r="18"/>
<circle clip-path="url(#clip3602)" style="fill:#0000ff; stroke:none; fill-opacity:1" cx="736.038" cy="1412.58" r="14"/>
<circle clip-path="url(#clip3602)" style="fill:#000000; stroke:none; fill-opacity:1" cx="775.02" cy="1424.31" r="18"/>
<circle clip-path="url(#clip3602)" style="fill:#0000ff; stroke:none; fill-opacity:1" cx="775.02" cy="1424.31" r="14"/>
<circle clip-path="url(#clip3602)" style="fill:#000000; stroke:none; fill-opacity:1" cx="728.241" cy="1366.94" r="18"/>
<circle clip-path="url(#clip3602)" style="fill:#ff0000; stroke:none; fill-opacity:1" cx="728.241" cy="1366.94" r="14"/>
<circle clip-path="url(#clip3602)" style="fill:#000000; stroke:none; fill-opacity:1" cx="1094.67" cy="1377.37" r="18"/>
<circle clip-path="url(#clip3602)" style="fill:#ff0000; stroke:none; fill-opacity:1" cx="1094.67" cy="1377.37" r="14"/>
<circle clip-path="url(#clip3602)" style="fill:#000000; stroke:none; fill-opacity:1" cx="354.013" cy="1050.08" r="18"/>
<circle clip-path="url(#clip3602)" style="fill:#ff0000; stroke:none; fill-opacity:1" cx="354.013" cy="1050.08" r="14"/>
<circle clip-path="url(#clip3602)" style="fill:#000000; stroke:none; fill-opacity:1" cx="704.852" cy="1327.82" r="18"/>
<circle clip-path="url(#clip3602)" style="fill:#ff0000; stroke:none; fill-opacity:1" cx="704.852" cy="1327.82" r="14"/>
<circle clip-path="url(#clip3602)" style="fill:#000000; stroke:none; fill-opacity:1" cx="923.151" cy="1412.58" r="18"/>
<circle clip-path="url(#clip3602)" style="fill:#ff0000; stroke:none; fill-opacity:1" cx="923.151" cy="1412.58" r="14"/>
<circle clip-path="url(#clip3602)" style="fill:#000000; stroke:none; fill-opacity:1" cx="229.271" cy="995.317" r="18"/>
<circle clip-path="url(#clip3602)" style="fill:#ff0000; stroke:none; fill-opacity:1" cx="229.271" cy="995.317" r="14"/>
<circle clip-path="url(#clip3602)" style="fill:#000000; stroke:none; fill-opacity:1" cx="681.463" cy="1424.31" r="18"/>
<circle clip-path="url(#clip3602)" style="fill:#ff0000; stroke:none; fill-opacity:1" cx="681.463" cy="1424.31" r="14"/>
<circle clip-path="url(#clip3602)" style="fill:#000000; stroke:none; fill-opacity:1" cx="1016.71" cy="1363.03" r="18"/>
<circle clip-path="url(#clip3602)" style="fill:#ff0000; stroke:none; fill-opacity:1" cx="1016.71" cy="1363.03" r="14"/>
<circle clip-path="url(#clip3602)" style="fill:#000000; stroke:none; fill-opacity:1" cx="728.241" cy="1230.03" r="18"/>
<circle clip-path="url(#clip3602)" style="fill:#ff0000; stroke:none; fill-opacity:1" cx="728.241" cy="1230.03" r="14"/>
<circle clip-path="url(#clip3602)" style="fill:#000000; stroke:none; fill-opacity:1" cx="478.756" cy="1310.87" r="18"/>
<circle clip-path="url(#clip3602)" style="fill:#ff0000; stroke:none; fill-opacity:1" cx="478.756" cy="1310.87" r="14"/>
<circle clip-path="url(#clip3602)" style="fill:#000000; stroke:none; fill-opacity:1" cx="455.367" cy="1343.47" r="18"/>
<circle clip-path="url(#clip3602)" style="fill:#ff0000; stroke:none; fill-opacity:1" cx="455.367" cy="1343.47" r="14"/>
<circle clip-path="url(#clip3602)" style="fill:#000000; stroke:none; fill-opacity:1" cx="470.959" cy="1421.71" r="18"/>
<circle clip-path="url(#clip3602)" style="fill:#ff0000; stroke:none; fill-opacity:1" cx="470.959" cy="1421.71" r="14"/>
<circle clip-path="url(#clip3602)" style="fill:#000000; stroke:none; fill-opacity:1" cx="494.349" cy="1330.43" r="18"/>
<circle clip-path="url(#clip3602)" style="fill:#ff0000; stroke:none; fill-opacity:1" cx="494.349" cy="1330.43" r="14"/>
<circle clip-path="url(#clip3602)" style="fill:#000000; stroke:none; fill-opacity:1" cx="681.463" cy="1420.4" r="18"/>
<circle clip-path="url(#clip3602)" style="fill:#ff0000; stroke:none; fill-opacity:1" cx="681.463" cy="1420.4" r="14"/>
<circle clip-path="url(#clip3602)" style="fill:#000000; stroke:none; fill-opacity:1" cx="439.774" cy="1236.55" r="18"/>
<circle clip-path="url(#clip3602)" style="fill:#ff0000; stroke:none; fill-opacity:1" cx="439.774" cy="1236.55" r="14"/>
<circle clip-path="url(#clip3602)" style="fill:#000000; stroke:none; fill-opacity:1" cx="385.199" cy="761.911" r="18"/>
<circle clip-path="url(#clip3602)" style="fill:#ff0000; stroke:none; fill-opacity:1" cx="385.199" cy="761.911" r="14"/>
<circle clip-path="url(#clip3602)" style="fill:#000000; stroke:none; fill-opacity:1" cx="478.756" cy="1373.46" r="18"/>
<circle clip-path="url(#clip3602)" style="fill:#ff0000; stroke:none; fill-opacity:1" cx="478.756" cy="1373.46" r="14"/>
<circle clip-path="url(#clip3602)" style="fill:#000000; stroke:none; fill-opacity:1" cx="876.373" cy="1313.48" r="18"/>
<circle clip-path="url(#clip3602)" style="fill:#ff0000; stroke:none; fill-opacity:1" cx="876.373" cy="1313.48" r="14"/>
<circle clip-path="url(#clip3602)" style="fill:#000000; stroke:none; fill-opacity:1" cx="502.145" cy="1243.07" r="18"/>
<circle clip-path="url(#clip3602)" style="fill:#ff0000; stroke:none; fill-opacity:1" cx="502.145" cy="1243.07" r="14"/>
<circle clip-path="url(#clip3602)" style="fill:#000000; stroke:none; fill-opacity:1" cx="400.792" cy="943.16" r="18"/>
<circle clip-path="url(#clip3602)" style="fill:#ff0000; stroke:none; fill-opacity:1" cx="400.792" cy="943.16" r="14"/>
<circle clip-path="url(#clip3602)" style="fill:#000000; stroke:none; fill-opacity:1" cx="673.666" cy="1424.31" r="18"/>
<circle clip-path="url(#clip3602)" style="fill:#ff0000; stroke:none; fill-opacity:1" cx="673.666" cy="1424.31" r="14"/>
<circle clip-path="url(#clip3602)" style="fill:#000000; stroke:none; fill-opacity:1" cx="587.906" cy="1424.31" r="18"/>
<circle clip-path="url(#clip3602)" style="fill:#ff0000; stroke:none; fill-opacity:1" cx="587.906" cy="1424.31" r="14"/>
<circle clip-path="url(#clip3602)" style="fill:#000000; stroke:none; fill-opacity:1" cx="361.81" cy="956.199" r="18"/>
<circle clip-path="url(#clip3602)" style="fill:#ff0000; stroke:none; fill-opacity:1" cx="361.81" cy="956.199" r="14"/>
<circle clip-path="url(#clip3602)" style="fill:#000000; stroke:none; fill-opacity:1" cx="650.277" cy="1424.31" r="18"/>
<circle clip-path="url(#clip3602)" style="fill:#ff0000; stroke:none; fill-opacity:1" cx="650.277" cy="1424.31" r="14"/>
<circle clip-path="url(#clip3602)" style="fill:#000000; stroke:none; fill-opacity:1" cx="1008.91" cy="1420.4" r="18"/>
<circle clip-path="url(#clip3602)" style="fill:#ff0000; stroke:none; fill-opacity:1" cx="1008.91" cy="1420.4" r="14"/>
<circle clip-path="url(#clip3602)" style="fill:#000000; stroke:none; fill-opacity:1" cx="829.595" cy="1421.71" r="18"/>
<circle clip-path="url(#clip3602)" style="fill:#ff0000; stroke:none; fill-opacity:1" cx="829.595" cy="1421.71" r="14"/>
<circle clip-path="url(#clip3602)" style="fill:#000000; stroke:none; fill-opacity:1" cx="650.277" cy="1403.45" r="18"/>
<circle clip-path="url(#clip3602)" style="fill:#ff0000; stroke:none; fill-opacity:1" cx="650.277" cy="1403.45" r="14"/>
<circle clip-path="url(#clip3602)" style="fill:#000000; stroke:none; fill-opacity:1" cx="439.774" cy="1348.69" r="18"/>
<circle clip-path="url(#clip3602)" style="fill:#ff0000; stroke:none; fill-opacity:1" cx="439.774" cy="1348.69" r="14"/>
<circle clip-path="url(#clip3602)" style="fill:#000000; stroke:none; fill-opacity:1" cx="315.031" cy="956.199" r="18"/>
<circle clip-path="url(#clip3602)" style="fill:#ff0000; stroke:none; fill-opacity:1" cx="315.031" cy="956.199" r="14"/>
<circle clip-path="url(#clip3602)" style="fill:#000000; stroke:none; fill-opacity:1" cx="517.738" cy="1419.1" r="18"/>
<circle clip-path="url(#clip3602)" style="fill:#ff0000; stroke:none; fill-opacity:1" cx="517.738" cy="1419.1" r="14"/>
<circle clip-path="url(#clip3602)" style="fill:#000000; stroke:none; fill-opacity:1" cx="899.762" cy="1424.31" r="18"/>
<circle clip-path="url(#clip3602)" style="fill:#ff0000; stroke:none; fill-opacity:1" cx="899.762" cy="1424.31" r="14"/>
<circle clip-path="url(#clip3602)" style="fill:#000000; stroke:none; fill-opacity:1" cx="564.516" cy="1406.06" r="18"/>
<circle clip-path="url(#clip3602)" style="fill:#ff0000; stroke:none; fill-opacity:1" cx="564.516" cy="1406.06" r="14"/>
<circle clip-path="url(#clip3602)" style="fill:#000000; stroke:none; fill-opacity:1" cx="564.516" cy="1256.11" r="18"/>
<circle clip-path="url(#clip3602)" style="fill:#ff0000; stroke:none; fill-opacity:1" cx="564.516" cy="1256.11" r="14"/>
<circle clip-path="url(#clip3602)" style="fill:#000000; stroke:none; fill-opacity:1" cx="431.977" cy="1369.55" r="18"/>
<circle clip-path="url(#clip3602)" style="fill:#ff0000; stroke:none; fill-opacity:1" cx="431.977" cy="1369.55" r="14"/>
<circle clip-path="url(#clip3602)" style="fill:#000000; stroke:none; fill-opacity:1" cx="907.559" cy="1409.97" r="18"/>
<circle clip-path="url(#clip3602)" style="fill:#ff0000; stroke:none; fill-opacity:1" cx="907.559" cy="1409.97" r="14"/>
<circle clip-path="url(#clip3602)" style="fill:#000000; stroke:none; fill-opacity:1" cx="1125.86" cy="1422.1" r="18"/>
<circle clip-path="url(#clip3602)" style="fill:#ff0000; stroke:none; fill-opacity:1" cx="1125.86" cy="1422.1" r="14"/>
<circle clip-path="url(#clip3602)" style="fill:#000000; stroke:none; fill-opacity:1" cx="369.606" cy="708.45" r="18"/>
<circle clip-path="url(#clip3602)" style="fill:#ff0000; stroke:none; fill-opacity:1" cx="369.606" cy="708.45" r="14"/>
<circle clip-path="url(#clip3602)" style="fill:#000000; stroke:none; fill-opacity:1" cx="502.145" cy="1334.34" r="18"/>
<circle clip-path="url(#clip3602)" style="fill:#ff0000; stroke:none; fill-opacity:1" cx="502.145" cy="1334.34" r="14"/>
<circle clip-path="url(#clip3602)" style="fill:#000000; stroke:none; fill-opacity:1" cx="860.78" cy="1269.15" r="18"/>
<circle clip-path="url(#clip3602)" style="fill:#ff0000; stroke:none; fill-opacity:1" cx="860.78" cy="1269.15" r="14"/>
<path clip-path="url(#clip3600)" d="
M515.709 386.635 L1080.76 386.635 L1080.76 205.195 L515.709 205.195  Z
  " fill="#ffffff" fill-rule="evenodd" fill-opacity="1"/>
<polyline clip-path="url(#clip3600)" style="stroke:#000000; stroke-width:4; stroke-opacity:1; fill:none" points="
  515.709,386.635 1080.76,386.635 1080.76,205.195 515.709,205.195 515.709,386.635 
  "/>
<circle clip-path="url(#clip3600)" style="fill:#000000; stroke:none; fill-opacity:1" cx="623.709" cy="265.675" r="25"/>
<circle clip-path="url(#clip3600)" style="fill:#0000ff; stroke:none; fill-opacity:1" cx="623.709" cy="265.675" r="21"/>
<g clip-path="url(#clip3600)">
<text style="fill:#000000; fill-opacity:1; font-family:Arial,Helvetica Neue,Helvetica,sans-serif; font-size:48px; text-anchor:start;" transform="rotate(0, 707.709, 283.175)" x="707.709" y="283.175">male (n = 11)</text>
</g>
<circle clip-path="url(#clip3600)" style="fill:#000000; stroke:none; fill-opacity:1" cx="623.709" cy="326.155" r="25"/>
<circle clip-path="url(#clip3600)" style="fill:#ff0000; stroke:none; fill-opacity:1" cx="623.709" cy="326.155" r="21"/>
<g clip-path="url(#clip3600)">
<text style="fill:#000000; fill-opacity:1; font-family:Arial,Helvetica Neue,Helvetica,sans-serif; font-size:48px; text-anchor:start;" transform="rotate(0, 707.709, 343.655)" x="707.709" y="343.655">female (n = 39)</text>
</g>
<path clip-path="url(#clip3600)" d="
M1402.37 1425.62 L2352.76 1425.62 L2352.76 121.675 L1402.37 121.675  Z
  " fill="#ffffff" fill-rule="evenodd" fill-opacity="1"/>
<defs>
  <clipPath id="clip3603">
    <rect x="1402" y="121" width="951" height="1305"/>
  </clipPath>
</defs>
<polyline clip-path="url(#clip3603)" style="stroke:#000000; stroke-width:2; stroke-opacity:0.1; fill:none" points="
  1458.39,1425.62 1458.39,121.675 
  "/>
<polyline clip-path="url(#clip3603)" style="stroke:#000000; stroke-width:2; stroke-opacity:0.1; fill:none" points="
  1677.51,1425.62 1677.51,121.675 
  "/>
<polyline clip-path="url(#clip3603)" style="stroke:#000000; stroke-width:2; stroke-opacity:0.1; fill:none" points="
  1896.62,1425.62 1896.62,121.675 
  "/>
<polyline clip-path="url(#clip3603)" style="stroke:#000000; stroke-width:2; stroke-opacity:0.1; fill:none" points="
  2115.74,1425.62 2115.74,121.675 
  "/>
<polyline clip-path="url(#clip3603)" style="stroke:#000000; stroke-width:2; stroke-opacity:0.1; fill:none" points="
  2334.86,1425.62 2334.86,121.675 
  "/>
<polyline clip-path="url(#clip3603)" style="stroke:#000000; stroke-width:2; stroke-opacity:0.1; fill:none" points="
  1402.37,1425.62 2352.76,1425.62 
  "/>
<polyline clip-path="url(#clip3603)" style="stroke:#000000; stroke-width:2; stroke-opacity:0.1; fill:none" points="
  1402.37,1164.83 2352.76,1164.83 
  "/>
<polyline clip-path="url(#clip3603)" style="stroke:#000000; stroke-width:2; stroke-opacity:0.1; fill:none" points="
  1402.37,904.041 2352.76,904.041 
  "/>
<polyline clip-path="url(#clip3603)" style="stroke:#000000; stroke-width:2; stroke-opacity:0.1; fill:none" points="
  1402.37,643.253 2352.76,643.253 
  "/>
<polyline clip-path="url(#clip3603)" style="stroke:#000000; stroke-width:2; stroke-opacity:0.1; fill:none" points="
  1402.37,382.464 2352.76,382.464 
  "/>
<polyline clip-path="url(#clip3603)" style="stroke:#000000; stroke-width:2; stroke-opacity:0.1; fill:none" points="
  1402.37,121.675 2352.76,121.675 
  "/>
<polyline clip-path="url(#clip3600)" style="stroke:#000000; stroke-width:4; stroke-opacity:1; fill:none" points="
  1402.37,1425.62 2352.76,1425.62 
  "/>
<polyline clip-path="url(#clip3600)" style="stroke:#000000; stroke-width:4; stroke-opacity:1; fill:none" points="
  1402.37,1425.62 1402.37,121.675 
  "/>
<polyline clip-path="url(#clip3600)" style="stroke:#000000; stroke-width:4; stroke-opacity:1; fill:none" points="
  1458.39,1425.62 1458.39,1409.97 
  "/>
<polyline clip-path="url(#clip3600)" style="stroke:#000000; stroke-width:4; stroke-opacity:1; fill:none" points="
  1677.51,1425.62 1677.51,1409.97 
  "/>
<polyline clip-path="url(#clip3600)" style="stroke:#000000; stroke-width:4; stroke-opacity:1; fill:none" points="
  1896.62,1425.62 1896.62,1409.97 
  "/>
<polyline clip-path="url(#clip3600)" style="stroke:#000000; stroke-width:4; stroke-opacity:1; fill:none" points="
  2115.74,1425.62 2115.74,1409.97 
  "/>
<polyline clip-path="url(#clip3600)" style="stroke:#000000; stroke-width:4; stroke-opacity:1; fill:none" points="
  2334.86,1425.62 2334.86,1409.97 
  "/>
<polyline clip-path="url(#clip3600)" style="stroke:#000000; stroke-width:4; stroke-opacity:1; fill:none" points="
  1402.37,1425.62 1413.78,1425.62 
  "/>
<polyline clip-path="url(#clip3600)" style="stroke:#000000; stroke-width:4; stroke-opacity:1; fill:none" points="
  1402.37,1164.83 1413.78,1164.83 
  "/>
<polyline clip-path="url(#clip3600)" style="stroke:#000000; stroke-width:4; stroke-opacity:1; fill:none" points="
  1402.37,904.041 1413.78,904.041 
  "/>
<polyline clip-path="url(#clip3600)" style="stroke:#000000; stroke-width:4; stroke-opacity:1; fill:none" points="
  1402.37,643.253 1413.78,643.253 
  "/>
<polyline clip-path="url(#clip3600)" style="stroke:#000000; stroke-width:4; stroke-opacity:1; fill:none" points="
  1402.37,382.464 1413.78,382.464 
  "/>
<polyline clip-path="url(#clip3600)" style="stroke:#000000; stroke-width:4; stroke-opacity:1; fill:none" points="
  1402.37,121.675 1413.78,121.675 
  "/>
<g clip-path="url(#clip3600)">
<text style="fill:#000000; fill-opacity:1; font-family:Arial,Helvetica Neue,Helvetica,sans-serif; font-size:48px; text-anchor:middle;" transform="rotate(0, 1458.39, 1479.62)" x="1458.39" y="1479.62">0.8</text>
</g>
<g clip-path="url(#clip3600)">
<text style="fill:#000000; fill-opacity:1; font-family:Arial,Helvetica Neue,Helvetica,sans-serif; font-size:48px; text-anchor:middle;" transform="rotate(0, 1677.51, 1479.62)" x="1677.51" y="1479.62">1.0</text>
</g>
<g clip-path="url(#clip3600)">
<text style="fill:#000000; fill-opacity:1; font-family:Arial,Helvetica Neue,Helvetica,sans-serif; font-size:48px; text-anchor:middle;" transform="rotate(0, 1896.62, 1479.62)" x="1896.62" y="1479.62">1.2</text>
</g>
<g clip-path="url(#clip3600)">
<text style="fill:#000000; fill-opacity:1; font-family:Arial,Helvetica Neue,Helvetica,sans-serif; font-size:48px; text-anchor:middle;" transform="rotate(0, 2115.74, 1479.62)" x="2115.74" y="1479.62">1.4</text>
</g>
<g clip-path="url(#clip3600)">
<text style="fill:#000000; fill-opacity:1; font-family:Arial,Helvetica Neue,Helvetica,sans-serif; font-size:48px; text-anchor:middle;" transform="rotate(0, 2334.86, 1479.62)" x="2334.86" y="1479.62">1.6</text>
</g>
<g clip-path="url(#clip3600)">
<text style="fill:#000000; fill-opacity:1; font-family:Arial,Helvetica Neue,Helvetica,sans-serif; font-size:48px; text-anchor:end;" transform="rotate(0, 1378.37, 1443.12)" x="1378.37" y="1443.12">0</text>
</g>
<g clip-path="url(#clip3600)">
<text style="fill:#000000; fill-opacity:1; font-family:Arial,Helvetica Neue,Helvetica,sans-serif; font-size:48px; text-anchor:end;" transform="rotate(0, 1378.37, 1182.33)" x="1378.37" y="1182.33">2</text>
</g>
<g clip-path="url(#clip3600)">
<text style="fill:#000000; fill-opacity:1; font-family:Arial,Helvetica Neue,Helvetica,sans-serif; font-size:48px; text-anchor:end;" transform="rotate(0, 1378.37, 921.541)" x="1378.37" y="921.541">4</text>
</g>
<g clip-path="url(#clip3600)">
<text style="fill:#000000; fill-opacity:1; font-family:Arial,Helvetica Neue,Helvetica,sans-serif; font-size:48px; text-anchor:end;" transform="rotate(0, 1378.37, 660.753)" x="1378.37" y="660.753">6</text>
</g>
<g clip-path="url(#clip3600)">
<text style="fill:#000000; fill-opacity:1; font-family:Arial,Helvetica Neue,Helvetica,sans-serif; font-size:48px; text-anchor:end;" transform="rotate(0, 1378.37, 399.964)" x="1378.37" y="399.964">8</text>
</g>
<g clip-path="url(#clip3600)">
<text style="fill:#000000; fill-opacity:1; font-family:Arial,Helvetica Neue,Helvetica,sans-serif; font-size:48px; text-anchor:end;" transform="rotate(0, 1378.37, 139.175)" x="1378.37" y="139.175">10</text>
</g>
<g clip-path="url(#clip3600)">
<text style="fill:#000000; fill-opacity:1; font-family:Arial,Helvetica Neue,Helvetica,sans-serif; font-size:84px; text-anchor:middle;" transform="rotate(0, 1877.56, 73.2)" x="1877.56" y="73.2">Predicted Time 3</text>
</g>
<g clip-path="url(#clip3600)">
<text style="fill:#000000; fill-opacity:1; font-family:Arial,Helvetica Neue,Helvetica,sans-serif; font-size:66px; text-anchor:middle;" transform="rotate(0, 1877.56, 1559.48)" x="1877.56" y="1559.48">T3</text>
</g>
<g clip-path="url(#clip3600)">
<text style="fill:#000000; fill-opacity:1; font-family:Arial,Helvetica Neue,Helvetica,sans-serif; font-size:66px; text-anchor:middle;" transform="rotate(-90, 1289.29, 773.647)" x="1289.29" y="773.647">TSH</text>
</g>
<circle clip-path="url(#clip3603)" style="fill:#000000; stroke:none; fill-opacity:1" cx="1643.74" cy="1193.22" r="18"/>
<circle clip-path="url(#clip3603)" style="fill:#0000ff; stroke:none; fill-opacity:1" cx="1643.74" cy="1193.22" r="14"/>
<circle clip-path="url(#clip3603)" style="fill:#000000; stroke:none; fill-opacity:1" cx="1832.67" cy="1252.94" r="18"/>
<circle clip-path="url(#clip3603)" style="fill:#0000ff; stroke:none; fill-opacity:1" cx="1832.67" cy="1252.94" r="14"/>
<circle clip-path="url(#clip3603)" style="fill:#000000; stroke:none; fill-opacity:1" cx="1832.54" cy="1238.97" r="18"/>
<circle clip-path="url(#clip3603)" style="fill:#0000ff; stroke:none; fill-opacity:1" cx="1832.54" cy="1238.97" r="14"/>
<circle clip-path="url(#clip3603)" style="fill:#000000; stroke:none; fill-opacity:1" cx="1832.27" cy="1240.94" r="18"/>
<circle clip-path="url(#clip3603)" style="fill:#0000ff; stroke:none; fill-opacity:1" cx="1832.27" cy="1240.94" r="14"/>
<circle clip-path="url(#clip3603)" style="fill:#000000; stroke:none; fill-opacity:1" cx="1943.71" cy="1278.77" r="18"/>
<circle clip-path="url(#clip3603)" style="fill:#0000ff; stroke:none; fill-opacity:1" cx="1943.71" cy="1278.77" r="14"/>
<circle clip-path="url(#clip3603)" style="fill:#000000; stroke:none; fill-opacity:1" cx="1833.49" cy="1239.09" r="18"/>
<circle clip-path="url(#clip3603)" style="fill:#0000ff; stroke:none; fill-opacity:1" cx="1833.49" cy="1239.09" r="14"/>
<circle clip-path="url(#clip3603)" style="fill:#000000; stroke:none; fill-opacity:1" cx="1987.22" cy="1280.01" r="18"/>
<circle clip-path="url(#clip3603)" style="fill:#0000ff; stroke:none; fill-opacity:1" cx="1987.22" cy="1280.01" r="14"/>
<circle clip-path="url(#clip3603)" style="fill:#000000; stroke:none; fill-opacity:1" cx="1770.9" cy="1224.14" r="18"/>
<circle clip-path="url(#clip3603)" style="fill:#0000ff; stroke:none; fill-opacity:1" cx="1770.9" cy="1224.14" r="14"/>
<circle clip-path="url(#clip3603)" style="fill:#000000; stroke:none; fill-opacity:1" cx="1771.57" cy="1228.23" r="18"/>
<circle clip-path="url(#clip3603)" style="fill:#0000ff; stroke:none; fill-opacity:1" cx="1771.57" cy="1228.23" r="14"/>
<circle clip-path="url(#clip3603)" style="fill:#000000; stroke:none; fill-opacity:1" cx="1711.86" cy="1210.34" r="18"/>
<circle clip-path="url(#clip3603)" style="fill:#0000ff; stroke:none; fill-opacity:1" cx="1711.86" cy="1210.34" r="14"/>
<circle clip-path="url(#clip3603)" style="fill:#000000; stroke:none; fill-opacity:1" cx="1944.83" cy="1270.11" r="18"/>
<circle clip-path="url(#clip3603)" style="fill:#0000ff; stroke:none; fill-opacity:1" cx="1944.83" cy="1270.11" r="14"/>
<circle clip-path="url(#clip3603)" style="fill:#000000; stroke:none; fill-opacity:1" cx="1710.26" cy="1209.77" r="18"/>
<circle clip-path="url(#clip3603)" style="fill:#ff0000; stroke:none; fill-opacity:1" cx="1710.26" cy="1209.77" r="14"/>
<circle clip-path="url(#clip3603)" style="fill:#000000; stroke:none; fill-opacity:1" cx="1771.28" cy="1219.85" r="18"/>
<circle clip-path="url(#clip3603)" style="fill:#ff0000; stroke:none; fill-opacity:1" cx="1771.28" cy="1219.85" r="14"/>
<circle clip-path="url(#clip3603)" style="fill:#000000; stroke:none; fill-opacity:1" cx="1890.51" cy="1246.06" r="18"/>
<circle clip-path="url(#clip3603)" style="fill:#ff0000; stroke:none; fill-opacity:1" cx="1890.51" cy="1246.06" r="14"/>
<circle clip-path="url(#clip3603)" style="fill:#000000; stroke:none; fill-opacity:1" cx="1832.59" cy="1235.88" r="18"/>
<circle clip-path="url(#clip3603)" style="fill:#ff0000; stroke:none; fill-opacity:1" cx="1832.59" cy="1235.88" r="14"/>
<circle clip-path="url(#clip3603)" style="fill:#000000; stroke:none; fill-opacity:1" cx="1646.37" cy="1167.56" r="18"/>
<circle clip-path="url(#clip3603)" style="fill:#ff0000; stroke:none; fill-opacity:1" cx="1646.37" cy="1167.56" r="14"/>
<circle clip-path="url(#clip3603)" style="fill:#000000; stroke:none; fill-opacity:1" cx="1836.03" cy="1237.13" r="18"/>
<circle clip-path="url(#clip3603)" style="fill:#ff0000; stroke:none; fill-opacity:1" cx="1836.03" cy="1237.13" r="14"/>
<circle clip-path="url(#clip3603)" style="fill:#000000; stroke:none; fill-opacity:1" cx="1944.72" cy="1275.95" r="18"/>
<circle clip-path="url(#clip3603)" style="fill:#ff0000; stroke:none; fill-opacity:1" cx="1944.72" cy="1275.95" r="14"/>
<circle clip-path="url(#clip3603)" style="fill:#000000; stroke:none; fill-opacity:1" cx="1711.17" cy="1221.62" r="18"/>
<circle clip-path="url(#clip3603)" style="fill:#ff0000; stroke:none; fill-opacity:1" cx="1711.17" cy="1221.62" r="14"/>
<circle clip-path="url(#clip3603)" style="fill:#000000; stroke:none; fill-opacity:1" cx="1643.33" cy="1189.91" r="18"/>
<circle clip-path="url(#clip3603)" style="fill:#ff0000; stroke:none; fill-opacity:1" cx="1643.33" cy="1189.91" r="14"/>
<circle clip-path="url(#clip3603)" style="fill:#000000; stroke:none; fill-opacity:1" cx="1998.48" cy="1284.57" r="18"/>
<circle clip-path="url(#clip3603)" style="fill:#ff0000; stroke:none; fill-opacity:1" cx="1998.48" cy="1284.57" r="14"/>
<circle clip-path="url(#clip3603)" style="fill:#000000; stroke:none; fill-opacity:1" cx="2325.86" cy="1344.22" r="18"/>
<circle clip-path="url(#clip3603)" style="fill:#ff0000; stroke:none; fill-opacity:1" cx="2325.86" cy="1344.22" r="14"/>
<circle clip-path="url(#clip3603)" style="fill:#000000; stroke:none; fill-opacity:1" cx="1833.52" cy="1235.53" r="18"/>
<circle clip-path="url(#clip3603)" style="fill:#ff0000; stroke:none; fill-opacity:1" cx="1833.52" cy="1235.53" r="14"/>
<circle clip-path="url(#clip3603)" style="fill:#000000; stroke:none; fill-opacity:1" cx="1943.62" cy="1272.4" r="18"/>
<circle clip-path="url(#clip3603)" style="fill:#ff0000; stroke:none; fill-opacity:1" cx="1943.62" cy="1272.4" r="14"/>
<circle clip-path="url(#clip3603)" style="fill:#000000; stroke:none; fill-opacity:1" cx="1712.12" cy="1195.87" r="18"/>
<circle clip-path="url(#clip3603)" style="fill:#ff0000; stroke:none; fill-opacity:1" cx="1712.12" cy="1195.87" r="14"/>
<circle clip-path="url(#clip3603)" style="fill:#000000; stroke:none; fill-opacity:1" cx="1832.14" cy="1245.1" r="18"/>
<circle clip-path="url(#clip3603)" style="fill:#ff0000; stroke:none; fill-opacity:1" cx="1832.14" cy="1245.1" r="14"/>
<circle clip-path="url(#clip3603)" style="fill:#000000; stroke:none; fill-opacity:1" cx="1768.3" cy="1223.8" r="18"/>
<circle clip-path="url(#clip3603)" style="fill:#ff0000; stroke:none; fill-opacity:1" cx="1768.3" cy="1223.8" r="14"/>
<circle clip-path="url(#clip3603)" style="fill:#000000; stroke:none; fill-opacity:1" cx="2045.47" cy="1278.84" r="18"/>
<circle clip-path="url(#clip3603)" style="fill:#ff0000; stroke:none; fill-opacity:1" cx="2045.47" cy="1278.84" r="14"/>
<circle clip-path="url(#clip3603)" style="fill:#000000; stroke:none; fill-opacity:1" cx="1643.54" cy="1175.79" r="18"/>
<circle clip-path="url(#clip3603)" style="fill:#ff0000; stroke:none; fill-opacity:1" cx="1643.54" cy="1175.79" r="14"/>
<circle clip-path="url(#clip3603)" style="fill:#000000; stroke:none; fill-opacity:1" cx="1771.68" cy="1236.01" r="18"/>
<circle clip-path="url(#clip3603)" style="fill:#ff0000; stroke:none; fill-opacity:1" cx="1771.68" cy="1236.01" r="14"/>
<circle clip-path="url(#clip3603)" style="fill:#000000; stroke:none; fill-opacity:1" cx="1644.61" cy="1177.79" r="18"/>
<circle clip-path="url(#clip3603)" style="fill:#ff0000; stroke:none; fill-opacity:1" cx="1644.61" cy="1177.79" r="14"/>
<circle clip-path="url(#clip3603)" style="fill:#000000; stroke:none; fill-opacity:1" cx="1834.05" cy="1245.9" r="18"/>
<circle clip-path="url(#clip3603)" style="fill:#ff0000; stroke:none; fill-opacity:1" cx="1834.05" cy="1245.9" r="14"/>
<circle clip-path="url(#clip3603)" style="fill:#000000; stroke:none; fill-opacity:1" cx="1946.57" cy="1271.09" r="18"/>
<circle clip-path="url(#clip3603)" style="fill:#ff0000; stroke:none; fill-opacity:1" cx="1946.57" cy="1271.09" r="14"/>
<circle clip-path="url(#clip3603)" style="fill:#000000; stroke:none; fill-opacity:1" cx="1774.43" cy="1232.22" r="18"/>
<circle clip-path="url(#clip3603)" style="fill:#ff0000; stroke:none; fill-opacity:1" cx="1774.43" cy="1232.22" r="14"/>
<circle clip-path="url(#clip3603)" style="fill:#000000; stroke:none; fill-opacity:1" cx="1770.8" cy="1218.34" r="18"/>
<circle clip-path="url(#clip3603)" style="fill:#ff0000; stroke:none; fill-opacity:1" cx="1770.8" cy="1218.34" r="14"/>
<circle clip-path="url(#clip3603)" style="fill:#000000; stroke:none; fill-opacity:1" cx="1944.96" cy="1274.93" r="18"/>
<circle clip-path="url(#clip3603)" style="fill:#ff0000; stroke:none; fill-opacity:1" cx="1944.96" cy="1274.93" r="14"/>
<circle clip-path="url(#clip3603)" style="fill:#000000; stroke:none; fill-opacity:1" cx="1772.11" cy="1222.13" r="18"/>
<circle clip-path="url(#clip3603)" style="fill:#ff0000; stroke:none; fill-opacity:1" cx="1772.11" cy="1222.13" r="14"/>
<circle clip-path="url(#clip3603)" style="fill:#000000; stroke:none; fill-opacity:1" cx="1644.58" cy="1197.78" r="18"/>
<circle clip-path="url(#clip3603)" style="fill:#ff0000; stroke:none; fill-opacity:1" cx="1644.58" cy="1197.78" r="14"/>
<circle clip-path="url(#clip3603)" style="fill:#000000; stroke:none; fill-opacity:1" cx="1579.11" cy="1111.77" r="18"/>
<circle clip-path="url(#clip3603)" style="fill:#ff0000; stroke:none; fill-opacity:1" cx="1579.11" cy="1111.77" r="14"/>
<circle clip-path="url(#clip3603)" style="fill:#000000; stroke:none; fill-opacity:1" cx="1645.17" cy="1167.8" r="18"/>
<circle clip-path="url(#clip3603)" style="fill:#ff0000; stroke:none; fill-opacity:1" cx="1645.17" cy="1167.8" r="14"/>
<circle clip-path="url(#clip3603)" style="fill:#000000; stroke:none; fill-opacity:1" cx="1771.4" cy="1223.37" r="18"/>
<circle clip-path="url(#clip3603)" style="fill:#ff0000; stroke:none; fill-opacity:1" cx="1771.4" cy="1223.37" r="14"/>
<circle clip-path="url(#clip3603)" style="fill:#000000; stroke:none; fill-opacity:1" cx="1711.93" cy="1208.88" r="18"/>
<circle clip-path="url(#clip3603)" style="fill:#ff0000; stroke:none; fill-opacity:1" cx="1711.93" cy="1208.88" r="14"/>
<circle clip-path="url(#clip3603)" style="fill:#000000; stroke:none; fill-opacity:1" cx="1831.88" cy="1238.9" r="18"/>
<circle clip-path="url(#clip3603)" style="fill:#ff0000; stroke:none; fill-opacity:1" cx="1831.88" cy="1238.9" r="14"/>
<circle clip-path="url(#clip3603)" style="fill:#000000; stroke:none; fill-opacity:1" cx="1831.75" cy="1249.21" r="18"/>
<circle clip-path="url(#clip3603)" style="fill:#ff0000; stroke:none; fill-opacity:1" cx="1831.75" cy="1249.21" r="14"/>
<circle clip-path="url(#clip3603)" style="fill:#000000; stroke:none; fill-opacity:1" cx="1429.27" cy="1017.37" r="18"/>
<circle clip-path="url(#clip3603)" style="fill:#ff0000; stroke:none; fill-opacity:1" cx="1429.27" cy="1017.37" r="14"/>
<circle clip-path="url(#clip3603)" style="fill:#000000; stroke:none; fill-opacity:1" cx="1832.61" cy="1227.72" r="18"/>
<circle clip-path="url(#clip3603)" style="fill:#ff0000; stroke:none; fill-opacity:1" cx="1832.61" cy="1227.72" r="14"/>
<circle clip-path="url(#clip3603)" style="fill:#000000; stroke:none; fill-opacity:1" cx="1643.75" cy="1184.92" r="18"/>
<circle clip-path="url(#clip3603)" style="fill:#ff0000; stroke:none; fill-opacity:1" cx="1643.75" cy="1184.92" r="14"/>
<circle clip-path="url(#clip3603)" style="fill:#000000; stroke:none; fill-opacity:1" cx="1944.61" cy="1266.6" r="18"/>
<circle clip-path="url(#clip3603)" style="fill:#ff0000; stroke:none; fill-opacity:1" cx="1944.61" cy="1266.6" r="14"/>
<circle clip-path="url(#clip3603)" style="fill:#000000; stroke:none; fill-opacity:1" cx="1771.35" cy="1209.23" r="18"/>
<circle clip-path="url(#clip3603)" style="fill:#ff0000; stroke:none; fill-opacity:1" cx="1771.35" cy="1209.23" r="14"/>
<circle clip-path="url(#clip3603)" style="fill:#000000; stroke:none; fill-opacity:1" cx="1643.85" cy="1180.45" r="18"/>
<circle clip-path="url(#clip3603)" style="fill:#ff0000; stroke:none; fill-opacity:1" cx="1643.85" cy="1180.45" r="14"/>
<path clip-path="url(#clip3600)" d="
M1715.71 386.635 L2280.76 386.635 L2280.76 205.195 L1715.71 205.195  Z
  " fill="#ffffff" fill-rule="evenodd" fill-opacity="1"/>
<polyline clip-path="url(#clip3600)" style="stroke:#000000; stroke-width:4; stroke-opacity:1; fill:none" points="
  1715.71,386.635 2280.76,386.635 2280.76,205.195 1715.71,205.195 1715.71,386.635 
  "/>
<circle clip-path="url(#clip3600)" style="fill:#000000; stroke:none; fill-opacity:1" cx="1823.71" cy="265.675" r="25"/>
<circle clip-path="url(#clip3600)" style="fill:#0000ff; stroke:none; fill-opacity:1" cx="1823.71" cy="265.675" r="21"/>
<g clip-path="url(#clip3600)">
<text style="fill:#000000; fill-opacity:1; font-family:Arial,Helvetica Neue,Helvetica,sans-serif; font-size:48px; text-anchor:start;" transform="rotate(0, 1907.71, 283.175)" x="1907.71" y="283.175">male (n = 11)</text>
</g>
<circle clip-path="url(#clip3600)" style="fill:#000000; stroke:none; fill-opacity:1" cx="1823.71" cy="326.155" r="25"/>
<circle clip-path="url(#clip3600)" style="fill:#ff0000; stroke:none; fill-opacity:1" cx="1823.71" cy="326.155" r="21"/>
<g clip-path="url(#clip3600)">
<text style="fill:#000000; fill-opacity:1; font-family:Arial,Helvetica Neue,Helvetica,sans-serif; font-size:48px; text-anchor:start;" transform="rotate(0, 1907.71, 343.655)" x="1907.71" y="343.655">female (n = 39)</text>
</g>
</svg>
