<?xml version="1.0" encoding="utf-8"?>
<svg xmlns="http://www.w3.org/2000/svg" xmlns:xlink="http://www.w3.org/1999/xlink" width="600" height="400" viewBox="0 0 2400 1600">
<defs>
  <clipPath id="clip1100">
    <rect x="0" y="0" width="2400" height="1600"/>
  </clipPath>
</defs>
<path clip-path="url(#clip1100)" d="
M0 1600 L2400 1600 L2400 0 L0 0  Z
  " fill="#ffffff" fill-rule="evenodd" fill-opacity="1"/>
<defs>
  <clipPath id="clip1101">
    <rect x="480" y="0" width="1681" height="1600"/>
  </clipPath>
</defs>
<path clip-path="url(#clip1100)" d="
M203.721 1425.62 L2352.76 1425.62 L2352.76 121.675 L203.721 121.675  Z
  " fill="#ffffff" fill-rule="evenodd" fill-opacity="1"/>
<defs>
  <clipPath id="clip1102">
    <rect x="203" y="121" width="2150" height="1305"/>
  </clipPath>
</defs>
<polyline clip-path="url(#clip1102)" style="stroke:#000000; stroke-width:2; stroke-opacity:0.1; fill:none" points="
  466.738,1425.62 466.738,121.675 
  "/>
<polyline clip-path="url(#clip1102)" style="stroke:#000000; stroke-width:2; stroke-opacity:0.1; fill:none" points="
  909.827,1425.62 909.827,121.675 
  "/>
<polyline clip-path="url(#clip1102)" style="stroke:#000000; stroke-width:2; stroke-opacity:0.1; fill:none" points="
  1352.92,1425.62 1352.92,121.675 
  "/>
<polyline clip-path="url(#clip1102)" style="stroke:#000000; stroke-width:2; stroke-opacity:0.1; fill:none" points="
  1796.01,1425.62 1796.01,121.675 
  "/>
<polyline clip-path="url(#clip1102)" style="stroke:#000000; stroke-width:2; stroke-opacity:0.1; fill:none" points="
  2239.09,1425.62 2239.09,121.675 
  "/>
<polyline clip-path="url(#clip1102)" style="stroke:#000000; stroke-width:2; stroke-opacity:0.1; fill:none" points="
  203.721,1425.62 2352.76,1425.62 
  "/>
<polyline clip-path="url(#clip1102)" style="stroke:#000000; stroke-width:2; stroke-opacity:0.1; fill:none" points="
  203.721,1099.63 2352.76,1099.63 
  "/>
<polyline clip-path="url(#clip1102)" style="stroke:#000000; stroke-width:2; stroke-opacity:0.1; fill:none" points="
  203.721,773.647 2352.76,773.647 
  "/>
<polyline clip-path="url(#clip1102)" style="stroke:#000000; stroke-width:2; stroke-opacity:0.1; fill:none" points="
  203.721,447.661 2352.76,447.661 
  "/>
<polyline clip-path="url(#clip1102)" style="stroke:#000000; stroke-width:2; stroke-opacity:0.1; fill:none" points="
  203.721,121.675 2352.76,121.675 
  "/>
<polyline clip-path="url(#clip1100)" style="stroke:#000000; stroke-width:4; stroke-opacity:1; fill:none" points="
  203.721,1425.62 2352.76,1425.62 
  "/>
<polyline clip-path="url(#clip1100)" style="stroke:#000000; stroke-width:4; stroke-opacity:1; fill:none" points="
  203.721,1425.62 203.721,121.675 
  "/>
<polyline clip-path="url(#clip1100)" style="stroke:#000000; stroke-width:4; stroke-opacity:1; fill:none" points="
  466.738,1425.62 466.738,1409.97 
  "/>
<polyline clip-path="url(#clip1100)" style="stroke:#000000; stroke-width:4; stroke-opacity:1; fill:none" points="
  909.827,1425.62 909.827,1409.97 
  "/>
<polyline clip-path="url(#clip1100)" style="stroke:#000000; stroke-width:4; stroke-opacity:1; fill:none" points="
  1352.92,1425.62 1352.92,1409.97 
  "/>
<polyline clip-path="url(#clip1100)" style="stroke:#000000; stroke-width:4; stroke-opacity:1; fill:none" points="
  1796.01,1425.62 1796.01,1409.97 
  "/>
<polyline clip-path="url(#clip1100)" style="stroke:#000000; stroke-width:4; stroke-opacity:1; fill:none" points="
  2239.09,1425.62 2239.09,1409.97 
  "/>
<polyline clip-path="url(#clip1100)" style="stroke:#000000; stroke-width:4; stroke-opacity:1; fill:none" points="
  203.721,1425.62 229.509,1425.62 
  "/>
<polyline clip-path="url(#clip1100)" style="stroke:#000000; stroke-width:4; stroke-opacity:1; fill:none" points="
  203.721,1099.63 229.509,1099.63 
  "/>
<polyline clip-path="url(#clip1100)" style="stroke:#000000; stroke-width:4; stroke-opacity:1; fill:none" points="
  203.721,773.647 229.509,773.647 
  "/>
<polyline clip-path="url(#clip1100)" style="stroke:#000000; stroke-width:4; stroke-opacity:1; fill:none" points="
  203.721,447.661 229.509,447.661 
  "/>
<polyline clip-path="url(#clip1100)" style="stroke:#000000; stroke-width:4; stroke-opacity:1; fill:none" points="
  203.721,121.675 229.509,121.675 
  "/>
<g clip-path="url(#clip1100)">
<text style="fill:#000000; fill-opacity:1; font-family:Arial,Helvetica Neue,Helvetica,sans-serif; font-size:48px; text-anchor:middle;" transform="rotate(0, 466.738, 1479.62)" x="466.738" y="1479.62">20</text>
</g>
<g clip-path="url(#clip1100)">
<text style="fill:#000000; fill-opacity:1; font-family:Arial,Helvetica Neue,Helvetica,sans-serif; font-size:48px; text-anchor:middle;" transform="rotate(0, 909.827, 1479.62)" x="909.827" y="1479.62">25</text>
</g>
<g clip-path="url(#clip1100)">
<text style="fill:#000000; fill-opacity:1; font-family:Arial,Helvetica Neue,Helvetica,sans-serif; font-size:48px; text-anchor:middle;" transform="rotate(0, 1352.92, 1479.62)" x="1352.92" y="1479.62">30</text>
</g>
<g clip-path="url(#clip1100)">
<text style="fill:#000000; fill-opacity:1; font-family:Arial,Helvetica Neue,Helvetica,sans-serif; font-size:48px; text-anchor:middle;" transform="rotate(0, 1796.01, 1479.62)" x="1796.01" y="1479.62">35</text>
</g>
<g clip-path="url(#clip1100)">
<text style="fill:#000000; fill-opacity:1; font-family:Arial,Helvetica Neue,Helvetica,sans-serif; font-size:48px; text-anchor:middle;" transform="rotate(0, 2239.09, 1479.62)" x="2239.09" y="1479.62">40</text>
</g>
<g clip-path="url(#clip1100)">
<text style="fill:#000000; fill-opacity:1; font-family:Arial,Helvetica Neue,Helvetica,sans-serif; font-size:48px; text-anchor:end;" transform="rotate(0, 179.721, 1443.12)" x="179.721" y="1443.12">-2</text>
</g>
<g clip-path="url(#clip1100)">
<text style="fill:#000000; fill-opacity:1; font-family:Arial,Helvetica Neue,Helvetica,sans-serif; font-size:48px; text-anchor:end;" transform="rotate(0, 179.721, 1117.13)" x="179.721" y="1117.13">-1</text>
</g>
<g clip-path="url(#clip1100)">
<text style="fill:#000000; fill-opacity:1; font-family:Arial,Helvetica Neue,Helvetica,sans-serif; font-size:48px; text-anchor:end;" transform="rotate(0, 179.721, 791.147)" x="179.721" y="791.147">0</text>
</g>
<g clip-path="url(#clip1100)">
<text style="fill:#000000; fill-opacity:1; font-family:Arial,Helvetica Neue,Helvetica,sans-serif; font-size:48px; text-anchor:end;" transform="rotate(0, 179.721, 465.161)" x="179.721" y="465.161">1</text>
</g>
<g clip-path="url(#clip1100)">
<text style="fill:#000000; fill-opacity:1; font-family:Arial,Helvetica Neue,Helvetica,sans-serif; font-size:48px; text-anchor:end;" transform="rotate(0, 179.721, 139.175)" x="179.721" y="139.175">2</text>
</g>
<g clip-path="url(#clip1100)">
<text style="fill:#000000; fill-opacity:1; font-family:Arial,Helvetica Neue,Helvetica,sans-serif; font-size:84px; text-anchor:middle;" transform="rotate(0, 1278.24, 73.2)" x="1278.24" y="73.2">Data Time 3</text>
</g>
<g clip-path="url(#clip1100)">
<text style="fill:#000000; fill-opacity:1; font-family:Arial,Helvetica Neue,Helvetica,sans-serif; font-size:66px; text-anchor:middle;" transform="rotate(0, 1278.24, 1559.48)" x="1278.24" y="1559.48">BMI</text>
</g>
<g clip-path="url(#clip1100)">
<text style="fill:#000000; fill-opacity:1; font-family:Arial,Helvetica Neue,Helvetica,sans-serif; font-size:66px; text-anchor:middle;" transform="rotate(-90, 89.2861, 773.647)" x="89.2861" y="773.647">Predicted - actual FT4 (ng/dL)</text>
</g>
<circle clip-path="url(#clip1102)" style="fill:#000000; stroke:none; fill-opacity:1" cx="545.579" cy="912.589" r="18"/>
<circle clip-path="url(#clip1102)" style="fill:#0000ff; stroke:none; fill-opacity:1" cx="545.579" cy="912.589" r="14"/>
<circle clip-path="url(#clip1102)" style="fill:#000000; stroke:none; fill-opacity:1" cx="1034.01" cy="869.18" r="18"/>
<circle clip-path="url(#clip1102)" style="fill:#0000ff; stroke:none; fill-opacity:1" cx="1034.01" cy="869.18" r="14"/>
<circle clip-path="url(#clip1102)" style="fill:#000000; stroke:none; fill-opacity:1" cx="1361.12" cy="614.167" r="18"/>
<circle clip-path="url(#clip1102)" style="fill:#0000ff; stroke:none; fill-opacity:1" cx="1361.12" cy="614.167" r="14"/>
<circle clip-path="url(#clip1102)" style="fill:#000000; stroke:none; fill-opacity:1" cx="1072.06" cy="742.903" r="18"/>
<circle clip-path="url(#clip1102)" style="fill:#0000ff; stroke:none; fill-opacity:1" cx="1072.06" cy="742.903" r="14"/>
<circle clip-path="url(#clip1102)" style="fill:#000000; stroke:none; fill-opacity:1" cx="1110.67" cy="776.081" r="18"/>
<circle clip-path="url(#clip1102)" style="fill:#0000ff; stroke:none; fill-opacity:1" cx="1110.67" cy="776.081" r="14"/>
<circle clip-path="url(#clip1102)" style="fill:#000000; stroke:none; fill-opacity:1" cx="1173.85" cy="736.449" r="18"/>
<circle clip-path="url(#clip1102)" style="fill:#0000ff; stroke:none; fill-opacity:1" cx="1173.85" cy="736.449" r="14"/>
<circle clip-path="url(#clip1102)" style="fill:#000000; stroke:none; fill-opacity:1" cx="1345.87" cy="761.925" r="18"/>
<circle clip-path="url(#clip1102)" style="fill:#0000ff; stroke:none; fill-opacity:1" cx="1345.87" cy="761.925" r="14"/>
<circle clip-path="url(#clip1102)" style="fill:#000000; stroke:none; fill-opacity:1" cx="644.103" cy="875.009" r="18"/>
<circle clip-path="url(#clip1102)" style="fill:#0000ff; stroke:none; fill-opacity:1" cx="644.103" cy="875.009" r="14"/>
<circle clip-path="url(#clip1102)" style="fill:#000000; stroke:none; fill-opacity:1" cx="854.443" cy="710.351" r="18"/>
<circle clip-path="url(#clip1102)" style="fill:#0000ff; stroke:none; fill-opacity:1" cx="854.443" cy="710.351" r="14"/>
<circle clip-path="url(#clip1102)" style="fill:#000000; stroke:none; fill-opacity:1" cx="995.003" cy="862.915" r="18"/>
<circle clip-path="url(#clip1102)" style="fill:#0000ff; stroke:none; fill-opacity:1" cx="995.003" cy="862.915" r="14"/>
<circle clip-path="url(#clip1102)" style="fill:#000000; stroke:none; fill-opacity:1" cx="956.863" cy="702.172" r="18"/>
<circle clip-path="url(#clip1102)" style="fill:#0000ff; stroke:none; fill-opacity:1" cx="956.863" cy="702.172" r="14"/>
<circle clip-path="url(#clip1102)" style="fill:#000000; stroke:none; fill-opacity:1" cx="913.289" cy="964.252" r="18"/>
<circle clip-path="url(#clip1102)" style="fill:#ff0000; stroke:none; fill-opacity:1" cx="913.289" cy="964.252" r="14"/>
<circle clip-path="url(#clip1102)" style="fill:#000000; stroke:none; fill-opacity:1" cx="1649.53" cy="643.628" r="18"/>
<circle clip-path="url(#clip1102)" style="fill:#ff0000; stroke:none; fill-opacity:1" cx="1649.53" cy="643.628" r="14"/>
<circle clip-path="url(#clip1102)" style="fill:#000000; stroke:none; fill-opacity:1" cx="1399.94" cy="872.271" r="18"/>
<circle clip-path="url(#clip1102)" style="fill:#ff0000; stroke:none; fill-opacity:1" cx="1399.94" cy="872.271" r="14"/>
<circle clip-path="url(#clip1102)" style="fill:#000000; stroke:none; fill-opacity:1" cx="1156.65" cy="863.475" r="18"/>
<circle clip-path="url(#clip1102)" style="fill:#ff0000; stroke:none; fill-opacity:1" cx="1156.65" cy="863.475" r="14"/>
<circle clip-path="url(#clip1102)" style="fill:#000000; stroke:none; fill-opacity:1" cx="1496.95" cy="840.99" r="18"/>
<circle clip-path="url(#clip1102)" style="fill:#ff0000; stroke:none; fill-opacity:1" cx="1496.95" cy="840.99" r="14"/>
<circle clip-path="url(#clip1102)" style="fill:#000000; stroke:none; fill-opacity:1" cx="1110.57" cy="905.853" r="18"/>
<circle clip-path="url(#clip1102)" style="fill:#ff0000; stroke:none; fill-opacity:1" cx="1110.57" cy="905.853" r="14"/>
<circle clip-path="url(#clip1102)" style="fill:#000000; stroke:none; fill-opacity:1" cx="396.212" cy="715.558" r="18"/>
<circle clip-path="url(#clip1102)" style="fill:#ff0000; stroke:none; fill-opacity:1" cx="396.212" cy="715.558" r="14"/>
<circle clip-path="url(#clip1102)" style="fill:#000000; stroke:none; fill-opacity:1" cx="264.542" cy="1088.27" r="18"/>
<circle clip-path="url(#clip1102)" style="fill:#ff0000; stroke:none; fill-opacity:1" cx="264.542" cy="1088.27" r="14"/>
<circle clip-path="url(#clip1102)" style="fill:#000000; stroke:none; fill-opacity:1" cx="932.621" cy="842.695" r="18"/>
<circle clip-path="url(#clip1102)" style="fill:#ff0000; stroke:none; fill-opacity:1" cx="932.621" cy="842.695" r="14"/>
<circle clip-path="url(#clip1102)" style="fill:#000000; stroke:none; fill-opacity:1" cx="772.932" cy="954.749" r="18"/>
<circle clip-path="url(#clip1102)" style="fill:#ff0000; stroke:none; fill-opacity:1" cx="772.932" cy="954.749" r="14"/>
<circle clip-path="url(#clip1102)" style="fill:#000000; stroke:none; fill-opacity:1" cx="635.038" cy="776.674" r="18"/>
<circle clip-path="url(#clip1102)" style="fill:#ff0000; stroke:none; fill-opacity:1" cx="635.038" cy="776.674" r="14"/>
<circle clip-path="url(#clip1102)" style="fill:#000000; stroke:none; fill-opacity:1" cx="1992.51" cy="824.962" r="18"/>
<circle clip-path="url(#clip1102)" style="fill:#ff0000; stroke:none; fill-opacity:1" cx="1992.51" cy="824.962" r="14"/>
<circle clip-path="url(#clip1102)" style="fill:#000000; stroke:none; fill-opacity:1" cx="906.933" cy="843.746" r="18"/>
<circle clip-path="url(#clip1102)" style="fill:#ff0000; stroke:none; fill-opacity:1" cx="906.933" cy="843.746" r="14"/>
<circle clip-path="url(#clip1102)" style="fill:#000000; stroke:none; fill-opacity:1" cx="1033.84" cy="853.981" r="18"/>
<circle clip-path="url(#clip1102)" style="fill:#ff0000; stroke:none; fill-opacity:1" cx="1033.84" cy="853.981" r="14"/>
<circle clip-path="url(#clip1102)" style="fill:#000000; stroke:none; fill-opacity:1" cx="904.538" cy="777.553" r="18"/>
<circle clip-path="url(#clip1102)" style="fill:#ff0000; stroke:none; fill-opacity:1" cx="904.538" cy="777.553" r="14"/>
<circle clip-path="url(#clip1102)" style="fill:#000000; stroke:none; fill-opacity:1" cx="1287.15" cy="773.851" r="18"/>
<circle clip-path="url(#clip1102)" style="fill:#ff0000; stroke:none; fill-opacity:1" cx="1287.15" cy="773.851" r="14"/>
<circle clip-path="url(#clip1102)" style="fill:#000000; stroke:none; fill-opacity:1" cx="2291.93" cy="416.445" r="18"/>
<circle clip-path="url(#clip1102)" style="fill:#ff0000; stroke:none; fill-opacity:1" cx="2291.93" cy="416.445" r="14"/>
<circle clip-path="url(#clip1102)" style="fill:#000000; stroke:none; fill-opacity:1" cx="503.651" cy="854.007" r="18"/>
<circle clip-path="url(#clip1102)" style="fill:#ff0000; stroke:none; fill-opacity:1" cx="503.651" cy="854.007" r="14"/>
<circle clip-path="url(#clip1102)" style="fill:#000000; stroke:none; fill-opacity:1" cx="797.57" cy="816.078" r="18"/>
<circle clip-path="url(#clip1102)" style="fill:#ff0000; stroke:none; fill-opacity:1" cx="797.57" cy="816.078" r="14"/>
<circle clip-path="url(#clip1102)" style="fill:#000000; stroke:none; fill-opacity:1" cx="904.538" cy="812.693" r="18"/>
<circle clip-path="url(#clip1102)" style="fill:#ff0000; stroke:none; fill-opacity:1" cx="904.538" cy="812.693" r="14"/>
<circle clip-path="url(#clip1102)" style="fill:#000000; stroke:none; fill-opacity:1" cx="1145.89" cy="912.83" r="18"/>
<circle clip-path="url(#clip1102)" style="fill:#ff0000; stroke:none; fill-opacity:1" cx="1145.89" cy="912.83" r="14"/>
<circle clip-path="url(#clip1102)" style="fill:#000000; stroke:none; fill-opacity:1" cx="1383.03" cy="805.731" r="18"/>
<circle clip-path="url(#clip1102)" style="fill:#ff0000; stroke:none; fill-opacity:1" cx="1383.03" cy="805.731" r="14"/>
<circle clip-path="url(#clip1102)" style="fill:#000000; stroke:none; fill-opacity:1" cx="1333.88" cy="697.148" r="18"/>
<circle clip-path="url(#clip1102)" style="fill:#ff0000; stroke:none; fill-opacity:1" cx="1333.88" cy="697.148" r="14"/>
<circle clip-path="url(#clip1102)" style="fill:#000000; stroke:none; fill-opacity:1" cx="1536.01" cy="693.804" r="18"/>
<circle clip-path="url(#clip1102)" style="fill:#ff0000; stroke:none; fill-opacity:1" cx="1536.01" cy="693.804" r="14"/>
<circle clip-path="url(#clip1102)" style="fill:#000000; stroke:none; fill-opacity:1" cx="1413.55" cy="722.385" r="18"/>
<circle clip-path="url(#clip1102)" style="fill:#ff0000; stroke:none; fill-opacity:1" cx="1413.55" cy="722.385" r="14"/>
<circle clip-path="url(#clip1102)" style="fill:#000000; stroke:none; fill-opacity:1" cx="1350.48" cy="708.323" r="18"/>
<circle clip-path="url(#clip1102)" style="fill:#ff0000; stroke:none; fill-opacity:1" cx="1350.48" cy="708.323" r="14"/>
<circle clip-path="url(#clip1102)" style="fill:#000000; stroke:none; fill-opacity:1" cx="637.427" cy="898.466" r="18"/>
<circle clip-path="url(#clip1102)" style="fill:#ff0000; stroke:none; fill-opacity:1" cx="637.427" cy="898.466" r="14"/>
<circle clip-path="url(#clip1102)" style="fill:#000000; stroke:none; fill-opacity:1" cx="1499.7" cy="801.239" r="18"/>
<circle clip-path="url(#clip1102)" style="fill:#ff0000; stroke:none; fill-opacity:1" cx="1499.7" cy="801.239" r="14"/>
<circle clip-path="url(#clip1102)" style="fill:#000000; stroke:none; fill-opacity:1" cx="1175.07" cy="852.943" r="18"/>
<circle clip-path="url(#clip1102)" style="fill:#ff0000; stroke:none; fill-opacity:1" cx="1175.07" cy="852.943" r="14"/>
<circle clip-path="url(#clip1102)" style="fill:#000000; stroke:none; fill-opacity:1" cx="595.302" cy="755.562" r="18"/>
<circle clip-path="url(#clip1102)" style="fill:#ff0000; stroke:none; fill-opacity:1" cx="595.302" cy="755.562" r="14"/>
<circle clip-path="url(#clip1102)" style="fill:#000000; stroke:none; fill-opacity:1" cx="1383.58" cy="864.773" r="18"/>
<circle clip-path="url(#clip1102)" style="fill:#ff0000; stroke:none; fill-opacity:1" cx="1383.58" cy="864.773" r="14"/>
<circle clip-path="url(#clip1102)" style="fill:#000000; stroke:none; fill-opacity:1" cx="1049.37" cy="621.959" r="18"/>
<circle clip-path="url(#clip1102)" style="fill:#ff0000; stroke:none; fill-opacity:1" cx="1049.37" cy="621.959" r="14"/>
<circle clip-path="url(#clip1102)" style="fill:#000000; stroke:none; fill-opacity:1" cx="524.239" cy="805.919" r="18"/>
<circle clip-path="url(#clip1102)" style="fill:#ff0000; stroke:none; fill-opacity:1" cx="524.239" cy="805.919" r="14"/>
<circle clip-path="url(#clip1102)" style="fill:#000000; stroke:none; fill-opacity:1" cx="937.52" cy="875.985" r="18"/>
<circle clip-path="url(#clip1102)" style="fill:#ff0000; stroke:none; fill-opacity:1" cx="937.52" cy="875.985" r="14"/>
<circle clip-path="url(#clip1102)" style="fill:#000000; stroke:none; fill-opacity:1" cx="1337.48" cy="648.37" r="18"/>
<circle clip-path="url(#clip1102)" style="fill:#ff0000; stroke:none; fill-opacity:1" cx="1337.48" cy="648.37" r="14"/>
<circle clip-path="url(#clip1102)" style="fill:#000000; stroke:none; fill-opacity:1" cx="1348.11" cy="1115.69" r="18"/>
<circle clip-path="url(#clip1102)" style="fill:#ff0000; stroke:none; fill-opacity:1" cx="1348.11" cy="1115.69" r="14"/>
<circle clip-path="url(#clip1102)" style="fill:#000000; stroke:none; fill-opacity:1" cx="1087.76" cy="634.344" r="18"/>
<circle clip-path="url(#clip1102)" style="fill:#ff0000; stroke:none; fill-opacity:1" cx="1087.76" cy="634.344" r="14"/>
<circle clip-path="url(#clip1102)" style="fill:#000000; stroke:none; fill-opacity:1" cx="1203.22" cy="772.739" r="18"/>
<circle clip-path="url(#clip1102)" style="fill:#ff0000; stroke:none; fill-opacity:1" cx="1203.22" cy="772.739" r="14"/>
<circle clip-path="url(#clip1102)" style="fill:#000000; stroke:none; fill-opacity:1" cx="506.049" cy="1065.15" r="18"/>
<circle clip-path="url(#clip1102)" style="fill:#ff0000; stroke:none; fill-opacity:1" cx="506.049" cy="1065.15" r="14"/>
<path clip-path="url(#clip1100)" d="
M1715.71 386.635 L2280.76 386.635 L2280.76 205.195 L1715.71 205.195  Z
  " fill="#ffffff" fill-rule="evenodd" fill-opacity="1"/>
<polyline clip-path="url(#clip1100)" style="stroke:#000000; stroke-width:4; stroke-opacity:1; fill:none" points="
  1715.71,386.635 2280.76,386.635 2280.76,205.195 1715.71,205.195 1715.71,386.635 
  "/>
<circle clip-path="url(#clip1100)" style="fill:#000000; stroke:none; fill-opacity:1" cx="1823.71" cy="265.675" r="25"/>
<circle clip-path="url(#clip1100)" style="fill:#0000ff; stroke:none; fill-opacity:1" cx="1823.71" cy="265.675" r="21"/>
<g clip-path="url(#clip1100)">
<text style="fill:#000000; fill-opacity:1; font-family:Arial,Helvetica Neue,Helvetica,sans-serif; font-size:48px; text-anchor:start;" transform="rotate(0, 1907.71, 283.175)" x="1907.71" y="283.175">male (n = 11)</text>
</g>
<circle clip-path="url(#clip1100)" style="fill:#000000; stroke:none; fill-opacity:1" cx="1823.71" cy="326.155" r="25"/>
<circle clip-path="url(#clip1100)" style="fill:#ff0000; stroke:none; fill-opacity:1" cx="1823.71" cy="326.155" r="21"/>
<g clip-path="url(#clip1100)">
<text style="fill:#000000; fill-opacity:1; font-family:Arial,Helvetica Neue,Helvetica,sans-serif; font-size:48px; text-anchor:start;" transform="rotate(0, 1907.71, 343.655)" x="1907.71" y="343.655">female (n = 39)</text>
</g>
</svg>
