<?xml version="1.0" encoding="utf-8"?>
<svg xmlns="http://www.w3.org/2000/svg" xmlns:xlink="http://www.w3.org/1999/xlink" width="600" height="400" viewBox="0 0 2400 1600">
<defs>
  <clipPath id="clip1100">
    <rect x="0" y="0" width="2400" height="1600"/>
  </clipPath>
</defs>
<path clip-path="url(#clip1100)" d="
M0 1600 L2400 1600 L2400 0 L0 0  Z
  " fill="#ffffff" fill-rule="evenodd" fill-opacity="1"/>
<defs>
  <clipPath id="clip1101">
    <rect x="480" y="0" width="1681" height="1600"/>
  </clipPath>
</defs>
<path clip-path="url(#clip1100)" d="
M202.373 1425.62 L1152.76 1425.62 L1152.76 121.675 L202.373 121.675  Z
  " fill="#ffffff" fill-rule="evenodd" fill-opacity="1"/>
<defs>
  <clipPath id="clip1102">
    <rect x="202" y="121" width="951" height="1305"/>
  </clipPath>
</defs>
<polyline clip-path="url(#clip1102)" style="stroke:#000000; stroke-width:2; stroke-opacity:0.1; fill:none" points="
  318.689,1425.62 318.689,121.675 
  "/>
<polyline clip-path="url(#clip1102)" style="stroke:#000000; stroke-width:2; stroke-opacity:0.1; fill:none" points="
  514.639,1425.62 514.639,121.675 
  "/>
<polyline clip-path="url(#clip1102)" style="stroke:#000000; stroke-width:2; stroke-opacity:0.1; fill:none" points="
  710.59,1425.62 710.59,121.675 
  "/>
<polyline clip-path="url(#clip1102)" style="stroke:#000000; stroke-width:2; stroke-opacity:0.1; fill:none" points="
  906.54,1425.62 906.54,121.675 
  "/>
<polyline clip-path="url(#clip1102)" style="stroke:#000000; stroke-width:2; stroke-opacity:0.1; fill:none" points="
  1102.49,1425.62 1102.49,121.675 
  "/>
<polyline clip-path="url(#clip1102)" style="stroke:#000000; stroke-width:2; stroke-opacity:0.1; fill:none" points="
  202.373,1425.62 1152.76,1425.62 
  "/>
<polyline clip-path="url(#clip1102)" style="stroke:#000000; stroke-width:2; stroke-opacity:0.1; fill:none" points="
  202.373,1164.83 1152.76,1164.83 
  "/>
<polyline clip-path="url(#clip1102)" style="stroke:#000000; stroke-width:2; stroke-opacity:0.1; fill:none" points="
  202.373,904.041 1152.76,904.041 
  "/>
<polyline clip-path="url(#clip1102)" style="stroke:#000000; stroke-width:2; stroke-opacity:0.1; fill:none" points="
  202.373,643.253 1152.76,643.253 
  "/>
<polyline clip-path="url(#clip1102)" style="stroke:#000000; stroke-width:2; stroke-opacity:0.1; fill:none" points="
  202.373,382.464 1152.76,382.464 
  "/>
<polyline clip-path="url(#clip1102)" style="stroke:#000000; stroke-width:2; stroke-opacity:0.1; fill:none" points="
  202.373,121.675 1152.76,121.675 
  "/>
<polyline clip-path="url(#clip1100)" style="stroke:#000000; stroke-width:4; stroke-opacity:1; fill:none" points="
  202.373,1425.62 1152.76,1425.62 
  "/>
<polyline clip-path="url(#clip1100)" style="stroke:#000000; stroke-width:4; stroke-opacity:1; fill:none" points="
  202.373,1425.62 202.373,121.675 
  "/>
<polyline clip-path="url(#clip1100)" style="stroke:#000000; stroke-width:4; stroke-opacity:1; fill:none" points="
  318.689,1425.62 318.689,1409.97 
  "/>
<polyline clip-path="url(#clip1100)" style="stroke:#000000; stroke-width:4; stroke-opacity:1; fill:none" points="
  514.639,1425.62 514.639,1409.97 
  "/>
<polyline clip-path="url(#clip1100)" style="stroke:#000000; stroke-width:4; stroke-opacity:1; fill:none" points="
  710.59,1425.62 710.59,1409.97 
  "/>
<polyline clip-path="url(#clip1100)" style="stroke:#000000; stroke-width:4; stroke-opacity:1; fill:none" points="
  906.54,1425.62 906.54,1409.97 
  "/>
<polyline clip-path="url(#clip1100)" style="stroke:#000000; stroke-width:4; stroke-opacity:1; fill:none" points="
  1102.49,1425.62 1102.49,1409.97 
  "/>
<polyline clip-path="url(#clip1100)" style="stroke:#000000; stroke-width:4; stroke-opacity:1; fill:none" points="
  202.373,1425.62 213.778,1425.62 
  "/>
<polyline clip-path="url(#clip1100)" style="stroke:#000000; stroke-width:4; stroke-opacity:1; fill:none" points="
  202.373,1164.83 213.778,1164.83 
  "/>
<polyline clip-path="url(#clip1100)" style="stroke:#000000; stroke-width:4; stroke-opacity:1; fill:none" points="
  202.373,904.041 213.778,904.041 
  "/>
<polyline clip-path="url(#clip1100)" style="stroke:#000000; stroke-width:4; stroke-opacity:1; fill:none" points="
  202.373,643.253 213.778,643.253 
  "/>
<polyline clip-path="url(#clip1100)" style="stroke:#000000; stroke-width:4; stroke-opacity:1; fill:none" points="
  202.373,382.464 213.778,382.464 
  "/>
<polyline clip-path="url(#clip1100)" style="stroke:#000000; stroke-width:4; stroke-opacity:1; fill:none" points="
  202.373,121.675 213.778,121.675 
  "/>
<g clip-path="url(#clip1100)">
<text style="fill:#000000; fill-opacity:1; font-family:Arial,Helvetica Neue,Helvetica,sans-serif; font-size:48px; text-anchor:middle;" transform="rotate(0, 318.689, 1479.62)" x="318.689" y="1479.62">20</text>
</g>
<g clip-path="url(#clip1100)">
<text style="fill:#000000; fill-opacity:1; font-family:Arial,Helvetica Neue,Helvetica,sans-serif; font-size:48px; text-anchor:middle;" transform="rotate(0, 514.639, 1479.62)" x="514.639" y="1479.62">25</text>
</g>
<g clip-path="url(#clip1100)">
<text style="fill:#000000; fill-opacity:1; font-family:Arial,Helvetica Neue,Helvetica,sans-serif; font-size:48px; text-anchor:middle;" transform="rotate(0, 710.59, 1479.62)" x="710.59" y="1479.62">30</text>
</g>
<g clip-path="url(#clip1100)">
<text style="fill:#000000; fill-opacity:1; font-family:Arial,Helvetica Neue,Helvetica,sans-serif; font-size:48px; text-anchor:middle;" transform="rotate(0, 906.54, 1479.62)" x="906.54" y="1479.62">35</text>
</g>
<g clip-path="url(#clip1100)">
<text style="fill:#000000; fill-opacity:1; font-family:Arial,Helvetica Neue,Helvetica,sans-serif; font-size:48px; text-anchor:middle;" transform="rotate(0, 1102.49, 1479.62)" x="1102.49" y="1479.62">40</text>
</g>
<g clip-path="url(#clip1100)">
<text style="fill:#000000; fill-opacity:1; font-family:Arial,Helvetica Neue,Helvetica,sans-serif; font-size:48px; text-anchor:end;" transform="rotate(0, 178.373, 1443.12)" x="178.373" y="1443.12">0</text>
</g>
<g clip-path="url(#clip1100)">
<text style="fill:#000000; fill-opacity:1; font-family:Arial,Helvetica Neue,Helvetica,sans-serif; font-size:48px; text-anchor:end;" transform="rotate(0, 178.373, 1182.33)" x="178.373" y="1182.33">2</text>
</g>
<g clip-path="url(#clip1100)">
<text style="fill:#000000; fill-opacity:1; font-family:Arial,Helvetica Neue,Helvetica,sans-serif; font-size:48px; text-anchor:end;" transform="rotate(0, 178.373, 921.541)" x="178.373" y="921.541">4</text>
</g>
<g clip-path="url(#clip1100)">
<text style="fill:#000000; fill-opacity:1; font-family:Arial,Helvetica Neue,Helvetica,sans-serif; font-size:48px; text-anchor:end;" transform="rotate(0, 178.373, 660.753)" x="178.373" y="660.753">6</text>
</g>
<g clip-path="url(#clip1100)">
<text style="fill:#000000; fill-opacity:1; font-family:Arial,Helvetica Neue,Helvetica,sans-serif; font-size:48px; text-anchor:end;" transform="rotate(0, 178.373, 399.964)" x="178.373" y="399.964">8</text>
</g>
<g clip-path="url(#clip1100)">
<text style="fill:#000000; fill-opacity:1; font-family:Arial,Helvetica Neue,Helvetica,sans-serif; font-size:48px; text-anchor:end;" transform="rotate(0, 178.373, 139.175)" x="178.373" y="139.175">10</text>
</g>
<g clip-path="url(#clip1100)">
<text style="fill:#000000; fill-opacity:1; font-family:Arial,Helvetica Neue,Helvetica,sans-serif; font-size:84px; text-anchor:middle;" transform="rotate(0, 677.564, 73.2)" x="677.564" y="73.2">Data Time 2</text>
</g>
<g clip-path="url(#clip1100)">
<text style="fill:#000000; fill-opacity:1; font-family:Arial,Helvetica Neue,Helvetica,sans-serif; font-size:66px; text-anchor:middle;" transform="rotate(0, 677.564, 1559.48)" x="677.564" y="1559.48">BMI</text>
</g>
<g clip-path="url(#clip1100)">
<text style="fill:#000000; fill-opacity:1; font-family:Arial,Helvetica Neue,Helvetica,sans-serif; font-size:66px; text-anchor:middle;" transform="rotate(-90, 89.2861, 773.647)" x="89.2861" y="773.647">TSH</text>
</g>
<circle clip-path="url(#clip1102)" style="fill:#000000; stroke:none; fill-opacity:1" cx="353.555" cy="1377.37" r="18"/>
<circle clip-path="url(#clip1102)" style="fill:#0000ff; stroke:none; fill-opacity:1" cx="353.555" cy="1377.37" r="14"/>
<circle clip-path="url(#clip1102)" style="fill:#000000; stroke:none; fill-opacity:1" cx="714.219" cy="943.16" r="18"/>
<circle clip-path="url(#clip1102)" style="fill:#0000ff; stroke:none; fill-opacity:1" cx="714.219" cy="943.16" r="14"/>
<circle clip-path="url(#clip1102)" style="fill:#000000; stroke:none; fill-opacity:1" cx="586.384" cy="1282.18" r="18"/>
<circle clip-path="url(#clip1102)" style="fill:#0000ff; stroke:none; fill-opacity:1" cx="586.384" cy="1282.18" r="14"/>
<circle clip-path="url(#clip1102)" style="fill:#000000; stroke:none; fill-opacity:1" cx="603.461" cy="1411.28" r="18"/>
<circle clip-path="url(#clip1102)" style="fill:#0000ff; stroke:none; fill-opacity:1" cx="603.461" cy="1411.28" r="14"/>
<circle clip-path="url(#clip1102)" style="fill:#000000; stroke:none; fill-opacity:1" cx="631.4" cy="1276.97" r="18"/>
<circle clip-path="url(#clip1102)" style="fill:#0000ff; stroke:none; fill-opacity:1" cx="631.4" cy="1276.97" r="14"/>
<circle clip-path="url(#clip1102)" style="fill:#000000; stroke:none; fill-opacity:1" cx="707.473" cy="1413.88" r="18"/>
<circle clip-path="url(#clip1102)" style="fill:#0000ff; stroke:none; fill-opacity:1" cx="707.473" cy="1413.88" r="14"/>
<circle clip-path="url(#clip1102)" style="fill:#000000; stroke:none; fill-opacity:1" cx="397.127" cy="199.912" r="18"/>
<circle clip-path="url(#clip1102)" style="fill:#0000ff; stroke:none; fill-opacity:1" cx="397.127" cy="199.912" r="14"/>
<circle clip-path="url(#clip1102)" style="fill:#000000; stroke:none; fill-opacity:1" cx="490.146" cy="1047.48" r="18"/>
<circle clip-path="url(#clip1102)" style="fill:#0000ff; stroke:none; fill-opacity:1" cx="490.146" cy="1047.48" r="14"/>
<circle clip-path="url(#clip1102)" style="fill:#000000; stroke:none; fill-opacity:1" cx="552.307" cy="1424.05" r="18"/>
<circle clip-path="url(#clip1102)" style="fill:#0000ff; stroke:none; fill-opacity:1" cx="552.307" cy="1424.05" r="14"/>
<circle clip-path="url(#clip1102)" style="fill:#000000; stroke:none; fill-opacity:1" cx="535.44" cy="1423.01" r="18"/>
<circle clip-path="url(#clip1102)" style="fill:#0000ff; stroke:none; fill-opacity:1" cx="535.44" cy="1423.01" r="14"/>
<circle clip-path="url(#clip1102)" style="fill:#000000; stroke:none; fill-opacity:1" cx="516.17" cy="1318.7" r="18"/>
<circle clip-path="url(#clip1102)" style="fill:#ff0000; stroke:none; fill-opacity:1" cx="516.17" cy="1318.7" r="14"/>
<circle clip-path="url(#clip1102)" style="fill:#000000; stroke:none; fill-opacity:1" cx="841.764" cy="1313.48" r="18"/>
<circle clip-path="url(#clip1102)" style="fill:#ff0000; stroke:none; fill-opacity:1" cx="841.764" cy="1313.48" r="14"/>
<circle clip-path="url(#clip1102)" style="fill:#000000; stroke:none; fill-opacity:1" cx="731.385" cy="669.331" r="18"/>
<circle clip-path="url(#clip1102)" style="fill:#ff0000; stroke:none; fill-opacity:1" cx="731.385" cy="669.331" r="14"/>
<circle clip-path="url(#clip1102)" style="fill:#000000; stroke:none; fill-opacity:1" cx="623.795" cy="1164.83" r="18"/>
<circle clip-path="url(#clip1102)" style="fill:#ff0000; stroke:none; fill-opacity:1" cx="623.795" cy="1164.83" r="14"/>
<circle clip-path="url(#clip1102)" style="fill:#000000; stroke:none; fill-opacity:1" cx="774.288" cy="1322.61" r="18"/>
<circle clip-path="url(#clip1102)" style="fill:#ff0000; stroke:none; fill-opacity:1" cx="774.288" cy="1322.61" r="14"/>
<circle clip-path="url(#clip1102)" style="fill:#000000; stroke:none; fill-opacity:1" cx="603.417" cy="812.765" r="18"/>
<circle clip-path="url(#clip1102)" style="fill:#ff0000; stroke:none; fill-opacity:1" cx="603.417" cy="812.765" r="14"/>
<circle clip-path="url(#clip1102)" style="fill:#000000; stroke:none; fill-opacity:1" cx="287.5" cy="1423.01" r="18"/>
<circle clip-path="url(#clip1102)" style="fill:#ff0000; stroke:none; fill-opacity:1" cx="287.5" cy="1423.01" r="14"/>
<circle clip-path="url(#clip1102)" style="fill:#000000; stroke:none; fill-opacity:1" cx="229.271" cy="1164.83" r="18"/>
<circle clip-path="url(#clip1102)" style="fill:#ff0000; stroke:none; fill-opacity:1" cx="229.271" cy="1164.83" r="14"/>
<circle clip-path="url(#clip1102)" style="fill:#000000; stroke:none; fill-opacity:1" cx="524.72" cy="1256.11" r="18"/>
<circle clip-path="url(#clip1102)" style="fill:#ff0000; stroke:none; fill-opacity:1" cx="524.72" cy="1256.11" r="14"/>
<circle clip-path="url(#clip1102)" style="fill:#000000; stroke:none; fill-opacity:1" cx="454.099" cy="369.424" r="18"/>
<circle clip-path="url(#clip1102)" style="fill:#ff0000; stroke:none; fill-opacity:1" cx="454.099" cy="369.424" r="14"/>
<circle clip-path="url(#clip1102)" style="fill:#000000; stroke:none; fill-opacity:1" cx="393.118" cy="252.069" r="18"/>
<circle clip-path="url(#clip1102)" style="fill:#ff0000; stroke:none; fill-opacity:1" cx="393.118" cy="252.069" r="14"/>
<circle clip-path="url(#clip1102)" style="fill:#000000; stroke:none; fill-opacity:1" cx="993.441" cy="1421.71" r="18"/>
<circle clip-path="url(#clip1102)" style="fill:#ff0000; stroke:none; fill-opacity:1" cx="993.441" cy="1421.71" r="14"/>
<circle clip-path="url(#clip1102)" style="fill:#000000; stroke:none; fill-opacity:1" cx="513.359" cy="1333.04" r="18"/>
<circle clip-path="url(#clip1102)" style="fill:#ff0000; stroke:none; fill-opacity:1" cx="513.359" cy="1333.04" r="14"/>
<circle clip-path="url(#clip1102)" style="fill:#000000; stroke:none; fill-opacity:1" cx="569.482" cy="1419.1" r="18"/>
<circle clip-path="url(#clip1102)" style="fill:#ff0000; stroke:none; fill-opacity:1" cx="569.482" cy="1419.1" r="14"/>
<circle clip-path="url(#clip1102)" style="fill:#000000; stroke:none; fill-opacity:1" cx="512.3" cy="636.733" r="18"/>
<circle clip-path="url(#clip1102)" style="fill:#ff0000; stroke:none; fill-opacity:1" cx="512.3" cy="636.733" r="14"/>
<circle clip-path="url(#clip1102)" style="fill:#000000; stroke:none; fill-opacity:1" cx="681.503" cy="242.942" r="18"/>
<circle clip-path="url(#clip1102)" style="fill:#ff0000; stroke:none; fill-opacity:1" cx="681.503" cy="242.942" r="14"/>
<circle clip-path="url(#clip1102)" style="fill:#000000; stroke:none; fill-opacity:1" cx="1125.86" cy="1347.38" r="18"/>
<circle clip-path="url(#clip1102)" style="fill:#ff0000; stroke:none; fill-opacity:1" cx="1125.86" cy="1347.38" r="14"/>
<circle clip-path="url(#clip1102)" style="fill:#000000; stroke:none; fill-opacity:1" cx="335.013" cy="851.883" r="18"/>
<circle clip-path="url(#clip1102)" style="fill:#ff0000; stroke:none; fill-opacity:1" cx="335.013" cy="851.883" r="14"/>
<circle clip-path="url(#clip1102)" style="fill:#000000; stroke:none; fill-opacity:1" cx="464.995" cy="1021.4" r="18"/>
<circle clip-path="url(#clip1102)" style="fill:#ff0000; stroke:none; fill-opacity:1" cx="464.995" cy="1021.4" r="14"/>
<circle clip-path="url(#clip1102)" style="fill:#000000; stroke:none; fill-opacity:1" cx="512.3" cy="1047.48" r="18"/>
<circle clip-path="url(#clip1102)" style="fill:#ff0000; stroke:none; fill-opacity:1" cx="512.3" cy="1047.48" r="14"/>
<circle clip-path="url(#clip1102)" style="fill:#000000; stroke:none; fill-opacity:1" cx="619.035" cy="1424.31" r="18"/>
<circle clip-path="url(#clip1102)" style="fill:#ff0000; stroke:none; fill-opacity:1" cx="619.035" cy="1424.31" r="14"/>
<circle clip-path="url(#clip1102)" style="fill:#000000; stroke:none; fill-opacity:1" cx="723.905" cy="1407.36" r="18"/>
<circle clip-path="url(#clip1102)" style="fill:#ff0000; stroke:none; fill-opacity:1" cx="723.905" cy="1407.36" r="14"/>
<circle clip-path="url(#clip1102)" style="fill:#000000; stroke:none; fill-opacity:1" cx="702.172" cy="995.317" r="18"/>
<circle clip-path="url(#clip1102)" style="fill:#ff0000; stroke:none; fill-opacity:1" cx="702.172" cy="995.317" r="14"/>
<circle clip-path="url(#clip1102)" style="fill:#000000; stroke:none; fill-opacity:1" cx="791.561" cy="1423.01" r="18"/>
<circle clip-path="url(#clip1102)" style="fill:#ff0000; stroke:none; fill-opacity:1" cx="791.561" cy="1423.01" r="14"/>
<circle clip-path="url(#clip1102)" style="fill:#000000; stroke:none; fill-opacity:1" cx="737.403" cy="1413.88" r="18"/>
<circle clip-path="url(#clip1102)" style="fill:#ff0000; stroke:none; fill-opacity:1" cx="737.403" cy="1413.88" r="14"/>
<circle clip-path="url(#clip1102)" style="fill:#000000; stroke:none; fill-opacity:1" cx="709.51" cy="1421.71" r="18"/>
<circle clip-path="url(#clip1102)" style="fill:#ff0000; stroke:none; fill-opacity:1" cx="709.51" cy="1421.71" r="14"/>
<circle clip-path="url(#clip1102)" style="fill:#000000; stroke:none; fill-opacity:1" cx="394.174" cy="1403.45" r="18"/>
<circle clip-path="url(#clip1102)" style="fill:#ff0000; stroke:none; fill-opacity:1" cx="394.174" cy="1403.45" r="14"/>
<circle clip-path="url(#clip1102)" style="fill:#000000; stroke:none; fill-opacity:1" cx="775.503" cy="1369.55" r="18"/>
<circle clip-path="url(#clip1102)" style="fill:#ff0000; stroke:none; fill-opacity:1" cx="775.503" cy="1369.55" r="14"/>
<circle clip-path="url(#clip1102)" style="fill:#000000; stroke:none; fill-opacity:1" cx="631.938" cy="338.13" r="18"/>
<circle clip-path="url(#clip1102)" style="fill:#ff0000; stroke:none; fill-opacity:1" cx="631.938" cy="338.13" r="14"/>
<circle clip-path="url(#clip1102)" style="fill:#000000; stroke:none; fill-opacity:1" cx="375.545" cy="1421.71" r="18"/>
<circle clip-path="url(#clip1102)" style="fill:#ff0000; stroke:none; fill-opacity:1" cx="375.545" cy="1421.71" r="14"/>
<circle clip-path="url(#clip1102)" style="fill:#000000; stroke:none; fill-opacity:1" cx="724.152" cy="1415.19" r="18"/>
<circle clip-path="url(#clip1102)" style="fill:#ff0000; stroke:none; fill-opacity:1" cx="724.152" cy="1415.19" r="14"/>
<circle clip-path="url(#clip1102)" style="fill:#000000; stroke:none; fill-opacity:1" cx="576.352" cy="1420.4" r="18"/>
<circle clip-path="url(#clip1102)" style="fill:#ff0000; stroke:none; fill-opacity:1" cx="576.352" cy="1420.4" r="14"/>
<circle clip-path="url(#clip1102)" style="fill:#000000; stroke:none; fill-opacity:1" cx="344.118" cy="604.134" r="18"/>
<circle clip-path="url(#clip1102)" style="fill:#ff0000; stroke:none; fill-opacity:1" cx="344.118" cy="604.134" r="14"/>
<circle clip-path="url(#clip1102)" style="fill:#000000; stroke:none; fill-opacity:1" cx="526.886" cy="1177.87" r="18"/>
<circle clip-path="url(#clip1102)" style="fill:#ff0000; stroke:none; fill-opacity:1" cx="526.886" cy="1177.87" r="14"/>
<circle clip-path="url(#clip1102)" style="fill:#000000; stroke:none; fill-opacity:1" cx="703.762" cy="917.081" r="18"/>
<circle clip-path="url(#clip1102)" style="fill:#ff0000; stroke:none; fill-opacity:1" cx="703.762" cy="917.081" r="14"/>
<circle clip-path="url(#clip1102)" style="fill:#000000; stroke:none; fill-opacity:1" cx="708.464" cy="1419.1" r="18"/>
<circle clip-path="url(#clip1102)" style="fill:#ff0000; stroke:none; fill-opacity:1" cx="708.464" cy="1419.1" r="14"/>
<circle clip-path="url(#clip1102)" style="fill:#000000; stroke:none; fill-opacity:1" cx="644.391" cy="1321.3" r="18"/>
<circle clip-path="url(#clip1102)" style="fill:#ff0000; stroke:none; fill-opacity:1" cx="644.391" cy="1321.3" r="14"/>
<circle clip-path="url(#clip1102)" style="fill:#000000; stroke:none; fill-opacity:1" cx="336.074" cy="943.16" r="18"/>
<circle clip-path="url(#clip1102)" style="fill:#ff0000; stroke:none; fill-opacity:1" cx="336.074" cy="943.16" r="14"/>
<path clip-path="url(#clip1100)" d="
M515.709 386.635 L1080.76 386.635 L1080.76 205.195 L515.709 205.195  Z
  " fill="#ffffff" fill-rule="evenodd" fill-opacity="1"/>
<polyline clip-path="url(#clip1100)" style="stroke:#000000; stroke-width:4; stroke-opacity:1; fill:none" points="
  515.709,386.635 1080.76,386.635 1080.76,205.195 515.709,205.195 515.709,386.635 
  "/>
<circle clip-path="url(#clip1100)" style="fill:#000000; stroke:none; fill-opacity:1" cx="623.709" cy="265.675" r="25"/>
<circle clip-path="url(#clip1100)" style="fill:#0000ff; stroke:none; fill-opacity:1" cx="623.709" cy="265.675" r="21"/>
<g clip-path="url(#clip1100)">
<text style="fill:#000000; fill-opacity:1; font-family:Arial,Helvetica Neue,Helvetica,sans-serif; font-size:48px; text-anchor:start;" transform="rotate(0, 707.709, 283.175)" x="707.709" y="283.175">male (n = 11)</text>
</g>
<circle clip-path="url(#clip1100)" style="fill:#000000; stroke:none; fill-opacity:1" cx="623.709" cy="326.155" r="25"/>
<circle clip-path="url(#clip1100)" style="fill:#ff0000; stroke:none; fill-opacity:1" cx="623.709" cy="326.155" r="21"/>
<g clip-path="url(#clip1100)">
<text style="fill:#000000; fill-opacity:1; font-family:Arial,Helvetica Neue,Helvetica,sans-serif; font-size:48px; text-anchor:start;" transform="rotate(0, 707.709, 343.655)" x="707.709" y="343.655">female (n = 39)</text>
</g>
<path clip-path="url(#clip1100)" d="
M1402.37 1425.62 L2352.76 1425.62 L2352.76 121.675 L1402.37 121.675  Z
  " fill="#ffffff" fill-rule="evenodd" fill-opacity="1"/>
<defs>
  <clipPath id="clip1103">
    <rect x="1402" y="121" width="951" height="1305"/>
  </clipPath>
</defs>
<polyline clip-path="url(#clip1103)" style="stroke:#000000; stroke-width:2; stroke-opacity:0.1; fill:none" points="
  1518.69,1425.62 1518.69,121.675 
  "/>
<polyline clip-path="url(#clip1103)" style="stroke:#000000; stroke-width:2; stroke-opacity:0.1; fill:none" points="
  1714.64,1425.62 1714.64,121.675 
  "/>
<polyline clip-path="url(#clip1103)" style="stroke:#000000; stroke-width:2; stroke-opacity:0.1; fill:none" points="
  1910.59,1425.62 1910.59,121.675 
  "/>
<polyline clip-path="url(#clip1103)" style="stroke:#000000; stroke-width:2; stroke-opacity:0.1; fill:none" points="
  2106.54,1425.62 2106.54,121.675 
  "/>
<polyline clip-path="url(#clip1103)" style="stroke:#000000; stroke-width:2; stroke-opacity:0.1; fill:none" points="
  2302.49,1425.62 2302.49,121.675 
  "/>
<polyline clip-path="url(#clip1103)" style="stroke:#000000; stroke-width:2; stroke-opacity:0.1; fill:none" points="
  1402.37,1425.62 2352.76,1425.62 
  "/>
<polyline clip-path="url(#clip1103)" style="stroke:#000000; stroke-width:2; stroke-opacity:0.1; fill:none" points="
  1402.37,1164.83 2352.76,1164.83 
  "/>
<polyline clip-path="url(#clip1103)" style="stroke:#000000; stroke-width:2; stroke-opacity:0.1; fill:none" points="
  1402.37,904.041 2352.76,904.041 
  "/>
<polyline clip-path="url(#clip1103)" style="stroke:#000000; stroke-width:2; stroke-opacity:0.1; fill:none" points="
  1402.37,643.253 2352.76,643.253 
  "/>
<polyline clip-path="url(#clip1103)" style="stroke:#000000; stroke-width:2; stroke-opacity:0.1; fill:none" points="
  1402.37,382.464 2352.76,382.464 
  "/>
<polyline clip-path="url(#clip1103)" style="stroke:#000000; stroke-width:2; stroke-opacity:0.1; fill:none" points="
  1402.37,121.675 2352.76,121.675 
  "/>
<polyline clip-path="url(#clip1100)" style="stroke:#000000; stroke-width:4; stroke-opacity:1; fill:none" points="
  1402.37,1425.62 2352.76,1425.62 
  "/>
<polyline clip-path="url(#clip1100)" style="stroke:#000000; stroke-width:4; stroke-opacity:1; fill:none" points="
  1402.37,1425.62 1402.37,121.675 
  "/>
<polyline clip-path="url(#clip1100)" style="stroke:#000000; stroke-width:4; stroke-opacity:1; fill:none" points="
  1518.69,1425.62 1518.69,1409.97 
  "/>
<polyline clip-path="url(#clip1100)" style="stroke:#000000; stroke-width:4; stroke-opacity:1; fill:none" points="
  1714.64,1425.62 1714.64,1409.97 
  "/>
<polyline clip-path="url(#clip1100)" style="stroke:#000000; stroke-width:4; stroke-opacity:1; fill:none" points="
  1910.59,1425.62 1910.59,1409.97 
  "/>
<polyline clip-path="url(#clip1100)" style="stroke:#000000; stroke-width:4; stroke-opacity:1; fill:none" points="
  2106.54,1425.62 2106.54,1409.97 
  "/>
<polyline clip-path="url(#clip1100)" style="stroke:#000000; stroke-width:4; stroke-opacity:1; fill:none" points="
  2302.49,1425.62 2302.49,1409.97 
  "/>
<polyline clip-path="url(#clip1100)" style="stroke:#000000; stroke-width:4; stroke-opacity:1; fill:none" points="
  1402.37,1425.62 1413.78,1425.62 
  "/>
<polyline clip-path="url(#clip1100)" style="stroke:#000000; stroke-width:4; stroke-opacity:1; fill:none" points="
  1402.37,1164.83 1413.78,1164.83 
  "/>
<polyline clip-path="url(#clip1100)" style="stroke:#000000; stroke-width:4; stroke-opacity:1; fill:none" points="
  1402.37,904.041 1413.78,904.041 
  "/>
<polyline clip-path="url(#clip1100)" style="stroke:#000000; stroke-width:4; stroke-opacity:1; fill:none" points="
  1402.37,643.253 1413.78,643.253 
  "/>
<polyline clip-path="url(#clip1100)" style="stroke:#000000; stroke-width:4; stroke-opacity:1; fill:none" points="
  1402.37,382.464 1413.78,382.464 
  "/>
<polyline clip-path="url(#clip1100)" style="stroke:#000000; stroke-width:4; stroke-opacity:1; fill:none" points="
  1402.37,121.675 1413.78,121.675 
  "/>
<g clip-path="url(#clip1100)">
<text style="fill:#000000; fill-opacity:1; font-family:Arial,Helvetica Neue,Helvetica,sans-serif; font-size:48px; text-anchor:middle;" transform="rotate(0, 1518.69, 1479.62)" x="1518.69" y="1479.62">20</text>
</g>
<g clip-path="url(#clip1100)">
<text style="fill:#000000; fill-opacity:1; font-family:Arial,Helvetica Neue,Helvetica,sans-serif; font-size:48px; text-anchor:middle;" transform="rotate(0, 1714.64, 1479.62)" x="1714.64" y="1479.62">25</text>
</g>
<g clip-path="url(#clip1100)">
<text style="fill:#000000; fill-opacity:1; font-family:Arial,Helvetica Neue,Helvetica,sans-serif; font-size:48px; text-anchor:middle;" transform="rotate(0, 1910.59, 1479.62)" x="1910.59" y="1479.62">30</text>
</g>
<g clip-path="url(#clip1100)">
<text style="fill:#000000; fill-opacity:1; font-family:Arial,Helvetica Neue,Helvetica,sans-serif; font-size:48px; text-anchor:middle;" transform="rotate(0, 2106.54, 1479.62)" x="2106.54" y="1479.62">35</text>
</g>
<g clip-path="url(#clip1100)">
<text style="fill:#000000; fill-opacity:1; font-family:Arial,Helvetica Neue,Helvetica,sans-serif; font-size:48px; text-anchor:middle;" transform="rotate(0, 2302.49, 1479.62)" x="2302.49" y="1479.62">40</text>
</g>
<g clip-path="url(#clip1100)">
<text style="fill:#000000; fill-opacity:1; font-family:Arial,Helvetica Neue,Helvetica,sans-serif; font-size:48px; text-anchor:end;" transform="rotate(0, 1378.37, 1443.12)" x="1378.37" y="1443.12">0</text>
</g>
<g clip-path="url(#clip1100)">
<text style="fill:#000000; fill-opacity:1; font-family:Arial,Helvetica Neue,Helvetica,sans-serif; font-size:48px; text-anchor:end;" transform="rotate(0, 1378.37, 1182.33)" x="1378.37" y="1182.33">2</text>
</g>
<g clip-path="url(#clip1100)">
<text style="fill:#000000; fill-opacity:1; font-family:Arial,Helvetica Neue,Helvetica,sans-serif; font-size:48px; text-anchor:end;" transform="rotate(0, 1378.37, 921.541)" x="1378.37" y="921.541">4</text>
</g>
<g clip-path="url(#clip1100)">
<text style="fill:#000000; fill-opacity:1; font-family:Arial,Helvetica Neue,Helvetica,sans-serif; font-size:48px; text-anchor:end;" transform="rotate(0, 1378.37, 660.753)" x="1378.37" y="660.753">6</text>
</g>
<g clip-path="url(#clip1100)">
<text style="fill:#000000; fill-opacity:1; font-family:Arial,Helvetica Neue,Helvetica,sans-serif; font-size:48px; text-anchor:end;" transform="rotate(0, 1378.37, 399.964)" x="1378.37" y="399.964">8</text>
</g>
<g clip-path="url(#clip1100)">
<text style="fill:#000000; fill-opacity:1; font-family:Arial,Helvetica Neue,Helvetica,sans-serif; font-size:48px; text-anchor:end;" transform="rotate(0, 1378.37, 139.175)" x="1378.37" y="139.175">10</text>
</g>
<g clip-path="url(#clip1100)">
<text style="fill:#000000; fill-opacity:1; font-family:Arial,Helvetica Neue,Helvetica,sans-serif; font-size:84px; text-anchor:middle;" transform="rotate(0, 1877.56, 73.2)" x="1877.56" y="73.2">Predicted Time 2</text>
</g>
<g clip-path="url(#clip1100)">
<text style="fill:#000000; fill-opacity:1; font-family:Arial,Helvetica Neue,Helvetica,sans-serif; font-size:66px; text-anchor:middle;" transform="rotate(0, 1877.56, 1559.48)" x="1877.56" y="1559.48">BMI</text>
</g>
<g clip-path="url(#clip1100)">
<text style="fill:#000000; fill-opacity:1; font-family:Arial,Helvetica Neue,Helvetica,sans-serif; font-size:66px; text-anchor:middle;" transform="rotate(-90, 1289.29, 773.647)" x="1289.29" y="773.647">TSH</text>
</g>
<circle clip-path="url(#clip1103)" style="fill:#000000; stroke:none; fill-opacity:1" cx="1553.56" cy="1160.95" r="18"/>
<circle clip-path="url(#clip1103)" style="fill:#0000ff; stroke:none; fill-opacity:1" cx="1553.56" cy="1160.95" r="14"/>
<circle clip-path="url(#clip1103)" style="fill:#000000; stroke:none; fill-opacity:1" cx="1769.56" cy="1252.88" r="18"/>
<circle clip-path="url(#clip1103)" style="fill:#0000ff; stroke:none; fill-opacity:1" cx="1769.56" cy="1252.88" r="14"/>
<circle clip-path="url(#clip1103)" style="fill:#000000; stroke:none; fill-opacity:1" cx="1914.22" cy="1238.95" r="18"/>
<circle clip-path="url(#clip1103)" style="fill:#0000ff; stroke:none; fill-opacity:1" cx="1914.22" cy="1238.95" r="14"/>
<circle clip-path="url(#clip1103)" style="fill:#000000; stroke:none; fill-opacity:1" cx="1786.38" cy="1241.06" r="18"/>
<circle clip-path="url(#clip1103)" style="fill:#0000ff; stroke:none; fill-opacity:1" cx="1786.38" cy="1241.06" r="14"/>
<circle clip-path="url(#clip1103)" style="fill:#000000; stroke:none; fill-opacity:1" cx="1803.46" cy="1251.47" r="18"/>
<circle clip-path="url(#clip1103)" style="fill:#0000ff; stroke:none; fill-opacity:1" cx="1803.46" cy="1251.47" r="14"/>
<circle clip-path="url(#clip1103)" style="fill:#000000; stroke:none; fill-opacity:1" cx="1831.4" cy="1238.69" r="18"/>
<circle clip-path="url(#clip1103)" style="fill:#0000ff; stroke:none; fill-opacity:1" cx="1831.4" cy="1238.69" r="14"/>
<circle clip-path="url(#clip1103)" style="fill:#000000; stroke:none; fill-opacity:1" cx="1907.47" cy="1270.27" r="18"/>
<circle clip-path="url(#clip1103)" style="fill:#0000ff; stroke:none; fill-opacity:1" cx="1907.47" cy="1270.27" r="14"/>
<circle clip-path="url(#clip1103)" style="fill:#000000; stroke:none; fill-opacity:1" cx="1597.13" cy="1202.89" r="18"/>
<circle clip-path="url(#clip1103)" style="fill:#0000ff; stroke:none; fill-opacity:1" cx="1597.13" cy="1202.89" r="14"/>
<circle clip-path="url(#clip1103)" style="fill:#000000; stroke:none; fill-opacity:1" cx="1690.15" cy="1227.91" r="18"/>
<circle clip-path="url(#clip1103)" style="fill:#0000ff; stroke:none; fill-opacity:1" cx="1690.15" cy="1227.91" r="14"/>
<circle clip-path="url(#clip1103)" style="fill:#000000; stroke:none; fill-opacity:1" cx="1752.31" cy="1249.24" r="18"/>
<circle clip-path="url(#clip1103)" style="fill:#0000ff; stroke:none; fill-opacity:1" cx="1752.31" cy="1249.24" r="14"/>
<circle clip-path="url(#clip1103)" style="fill:#000000; stroke:none; fill-opacity:1" cx="1735.44" cy="1269.99" r="18"/>
<circle clip-path="url(#clip1103)" style="fill:#0000ff; stroke:none; fill-opacity:1" cx="1735.44" cy="1269.99" r="14"/>
<circle clip-path="url(#clip1103)" style="fill:#000000; stroke:none; fill-opacity:1" cx="1716.17" cy="1182.54" r="18"/>
<circle clip-path="url(#clip1103)" style="fill:#ff0000; stroke:none; fill-opacity:1" cx="1716.17" cy="1182.54" r="14"/>
<circle clip-path="url(#clip1103)" style="fill:#000000; stroke:none; fill-opacity:1" cx="2041.76" cy="1239.1" r="18"/>
<circle clip-path="url(#clip1103)" style="fill:#ff0000; stroke:none; fill-opacity:1" cx="2041.76" cy="1239.1" r="14"/>
<circle clip-path="url(#clip1103)" style="fill:#000000; stroke:none; fill-opacity:1" cx="1931.38" cy="1229.17" r="18"/>
<circle clip-path="url(#clip1103)" style="fill:#ff0000; stroke:none; fill-opacity:1" cx="1931.38" cy="1229.17" r="14"/>
<circle clip-path="url(#clip1103)" style="fill:#000000; stroke:none; fill-opacity:1" cx="1823.8" cy="1193.93" r="18"/>
<circle clip-path="url(#clip1103)" style="fill:#ff0000; stroke:none; fill-opacity:1" cx="1823.8" cy="1193.93" r="14"/>
<circle clip-path="url(#clip1103)" style="fill:#000000; stroke:none; fill-opacity:1" cx="1974.29" cy="1237.7" r="18"/>
<circle clip-path="url(#clip1103)" style="fill:#ff0000; stroke:none; fill-opacity:1" cx="1974.29" cy="1237.7" r="14"/>
<circle clip-path="url(#clip1103)" style="fill:#000000; stroke:none; fill-opacity:1" cx="1803.42" cy="1193.69" r="18"/>
<circle clip-path="url(#clip1103)" style="fill:#ff0000; stroke:none; fill-opacity:1" cx="1803.42" cy="1193.69" r="14"/>
<circle clip-path="url(#clip1103)" style="fill:#000000; stroke:none; fill-opacity:1" cx="1487.5" cy="1297.79" r="18"/>
<circle clip-path="url(#clip1103)" style="fill:#ff0000; stroke:none; fill-opacity:1" cx="1487.5" cy="1297.79" r="14"/>
<circle clip-path="url(#clip1103)" style="fill:#000000; stroke:none; fill-opacity:1" cx="1429.27" cy="1038.85" r="18"/>
<circle clip-path="url(#clip1103)" style="fill:#ff0000; stroke:none; fill-opacity:1" cx="1429.27" cy="1038.85" r="14"/>
<circle clip-path="url(#clip1103)" style="fill:#000000; stroke:none; fill-opacity:1" cx="1724.72" cy="1157.53" r="18"/>
<circle clip-path="url(#clip1103)" style="fill:#ff0000; stroke:none; fill-opacity:1" cx="1724.72" cy="1157.53" r="14"/>
<circle clip-path="url(#clip1103)" style="fill:#000000; stroke:none; fill-opacity:1" cx="1654.1" cy="1174.99" r="18"/>
<circle clip-path="url(#clip1103)" style="fill:#ff0000; stroke:none; fill-opacity:1" cx="1654.1" cy="1174.99" r="14"/>
<circle clip-path="url(#clip1103)" style="fill:#000000; stroke:none; fill-opacity:1" cx="1593.12" cy="1209.89" r="18"/>
<circle clip-path="url(#clip1103)" style="fill:#ff0000; stroke:none; fill-opacity:1" cx="1593.12" cy="1209.89" r="14"/>
<circle clip-path="url(#clip1103)" style="fill:#000000; stroke:none; fill-opacity:1" cx="2193.44" cy="1265.2" r="18"/>
<circle clip-path="url(#clip1103)" style="fill:#ff0000; stroke:none; fill-opacity:1" cx="2193.44" cy="1265.2" r="14"/>
<circle clip-path="url(#clip1103)" style="fill:#000000; stroke:none; fill-opacity:1" cx="1713.36" cy="1243.97" r="18"/>
<circle clip-path="url(#clip1103)" style="fill:#ff0000; stroke:none; fill-opacity:1" cx="1713.36" cy="1243.97" r="14"/>
<circle clip-path="url(#clip1103)" style="fill:#000000; stroke:none; fill-opacity:1" cx="1769.48" cy="1217.6" r="18"/>
<circle clip-path="url(#clip1103)" style="fill:#ff0000; stroke:none; fill-opacity:1" cx="1769.48" cy="1217.6" r="14"/>
<circle clip-path="url(#clip1103)" style="fill:#000000; stroke:none; fill-opacity:1" cx="1712.3" cy="1226.48" r="18"/>
<circle clip-path="url(#clip1103)" style="fill:#ff0000; stroke:none; fill-opacity:1" cx="1712.3" cy="1226.48" r="14"/>
<circle clip-path="url(#clip1103)" style="fill:#000000; stroke:none; fill-opacity:1" cx="1881.5" cy="1203.88" r="18"/>
<circle clip-path="url(#clip1103)" style="fill:#ff0000; stroke:none; fill-opacity:1" cx="1881.5" cy="1203.88" r="14"/>
<circle clip-path="url(#clip1103)" style="fill:#000000; stroke:none; fill-opacity:1" cx="2325.86" cy="1279.36" r="18"/>
<circle clip-path="url(#clip1103)" style="fill:#ff0000; stroke:none; fill-opacity:1" cx="2325.86" cy="1279.36" r="14"/>
<circle clip-path="url(#clip1103)" style="fill:#000000; stroke:none; fill-opacity:1" cx="1535.01" cy="1141.23" r="18"/>
<circle clip-path="url(#clip1103)" style="fill:#ff0000; stroke:none; fill-opacity:1" cx="1535.01" cy="1141.23" r="14"/>
<circle clip-path="url(#clip1103)" style="fill:#000000; stroke:none; fill-opacity:1" cx="1664.99" cy="1215.49" r="18"/>
<circle clip-path="url(#clip1103)" style="fill:#ff0000; stroke:none; fill-opacity:1" cx="1664.99" cy="1215.49" r="14"/>
<circle clip-path="url(#clip1103)" style="fill:#000000; stroke:none; fill-opacity:1" cx="1712.3" cy="1177.62" r="18"/>
<circle clip-path="url(#clip1103)" style="fill:#ff0000; stroke:none; fill-opacity:1" cx="1712.3" cy="1177.62" r="14"/>
<circle clip-path="url(#clip1103)" style="fill:#000000; stroke:none; fill-opacity:1" cx="1819.03" cy="1258.83" r="18"/>
<circle clip-path="url(#clip1103)" style="fill:#ff0000; stroke:none; fill-opacity:1" cx="1819.03" cy="1258.83" r="14"/>
<circle clip-path="url(#clip1103)" style="fill:#000000; stroke:none; fill-opacity:1" cx="1923.91" cy="1241.18" r="18"/>
<circle clip-path="url(#clip1103)" style="fill:#ff0000; stroke:none; fill-opacity:1" cx="1923.91" cy="1241.18" r="14"/>
<circle clip-path="url(#clip1103)" style="fill:#000000; stroke:none; fill-opacity:1" cx="1902.17" cy="1209.73" r="18"/>
<circle clip-path="url(#clip1103)" style="fill:#ff0000; stroke:none; fill-opacity:1" cx="1902.17" cy="1209.73" r="14"/>
<circle clip-path="url(#clip1103)" style="fill:#000000; stroke:none; fill-opacity:1" cx="1991.56" cy="1237.94" r="18"/>
<circle clip-path="url(#clip1103)" style="fill:#ff0000; stroke:none; fill-opacity:1" cx="1991.56" cy="1237.94" r="14"/>
<circle clip-path="url(#clip1103)" style="fill:#000000; stroke:none; fill-opacity:1" cx="1937.4" cy="1274.75" r="18"/>
<circle clip-path="url(#clip1103)" style="fill:#ff0000; stroke:none; fill-opacity:1" cx="1937.4" cy="1274.75" r="14"/>
<circle clip-path="url(#clip1103)" style="fill:#000000; stroke:none; fill-opacity:1" cx="1909.51" cy="1240.83" r="18"/>
<circle clip-path="url(#clip1103)" style="fill:#ff0000; stroke:none; fill-opacity:1" cx="1909.51" cy="1240.83" r="14"/>
<circle clip-path="url(#clip1103)" style="fill:#000000; stroke:none; fill-opacity:1" cx="1594.17" cy="1197.54" r="18"/>
<circle clip-path="url(#clip1103)" style="fill:#ff0000; stroke:none; fill-opacity:1" cx="1594.17" cy="1197.54" r="14"/>
<circle clip-path="url(#clip1103)" style="fill:#000000; stroke:none; fill-opacity:1" cx="1975.5" cy="1112.06" r="18"/>
<circle clip-path="url(#clip1103)" style="fill:#ff0000; stroke:none; fill-opacity:1" cx="1975.5" cy="1112.06" r="14"/>
<circle clip-path="url(#clip1103)" style="fill:#000000; stroke:none; fill-opacity:1" cx="1831.94" cy="1130.88" r="18"/>
<circle clip-path="url(#clip1103)" style="fill:#ff0000; stroke:none; fill-opacity:1" cx="1831.94" cy="1130.88" r="14"/>
<circle clip-path="url(#clip1103)" style="fill:#000000; stroke:none; fill-opacity:1" cx="1575.54" cy="1223.16" r="18"/>
<circle clip-path="url(#clip1103)" style="fill:#ff0000; stroke:none; fill-opacity:1" cx="1575.54" cy="1223.16" r="14"/>
<circle clip-path="url(#clip1103)" style="fill:#000000; stroke:none; fill-opacity:1" cx="1924.15" cy="1208.68" r="18"/>
<circle clip-path="url(#clip1103)" style="fill:#ff0000; stroke:none; fill-opacity:1" cx="1924.15" cy="1208.68" r="14"/>
<circle clip-path="url(#clip1103)" style="fill:#000000; stroke:none; fill-opacity:1" cx="1776.35" cy="1239.17" r="18"/>
<circle clip-path="url(#clip1103)" style="fill:#ff0000; stroke:none; fill-opacity:1" cx="1776.35" cy="1239.17" r="14"/>
<circle clip-path="url(#clip1103)" style="fill:#000000; stroke:none; fill-opacity:1" cx="1544.12" cy="1210.68" r="18"/>
<circle clip-path="url(#clip1103)" style="fill:#ff0000; stroke:none; fill-opacity:1" cx="1544.12" cy="1210.68" r="14"/>
<circle clip-path="url(#clip1103)" style="fill:#000000; stroke:none; fill-opacity:1" cx="1726.89" cy="1018.8" r="18"/>
<circle clip-path="url(#clip1103)" style="fill:#ff0000; stroke:none; fill-opacity:1" cx="1726.89" cy="1018.8" r="14"/>
<circle clip-path="url(#clip1103)" style="fill:#000000; stroke:none; fill-opacity:1" cx="1903.76" cy="1227.65" r="18"/>
<circle clip-path="url(#clip1103)" style="fill:#ff0000; stroke:none; fill-opacity:1" cx="1903.76" cy="1227.65" r="14"/>
<circle clip-path="url(#clip1103)" style="fill:#000000; stroke:none; fill-opacity:1" cx="1908.46" cy="1185.34" r="18"/>
<circle clip-path="url(#clip1103)" style="fill:#ff0000; stroke:none; fill-opacity:1" cx="1908.46" cy="1185.34" r="14"/>
<circle clip-path="url(#clip1103)" style="fill:#000000; stroke:none; fill-opacity:1" cx="1793.33" cy="1216.95" r="18"/>
<circle clip-path="url(#clip1103)" style="fill:#ff0000; stroke:none; fill-opacity:1" cx="1793.33" cy="1216.95" r="14"/>
<circle clip-path="url(#clip1103)" style="fill:#000000; stroke:none; fill-opacity:1" cx="1844.39" cy="1209.03" r="18"/>
<circle clip-path="url(#clip1103)" style="fill:#ff0000; stroke:none; fill-opacity:1" cx="1844.39" cy="1209.03" r="14"/>
<circle clip-path="url(#clip1103)" style="fill:#000000; stroke:none; fill-opacity:1" cx="1536.07" cy="1146.26" r="18"/>
<circle clip-path="url(#clip1103)" style="fill:#ff0000; stroke:none; fill-opacity:1" cx="1536.07" cy="1146.26" r="14"/>
<path clip-path="url(#clip1100)" d="
M1715.71 386.635 L2280.76 386.635 L2280.76 205.195 L1715.71 205.195  Z
  " fill="#ffffff" fill-rule="evenodd" fill-opacity="1"/>
<polyline clip-path="url(#clip1100)" style="stroke:#000000; stroke-width:4; stroke-opacity:1; fill:none" points="
  1715.71,386.635 2280.76,386.635 2280.76,205.195 1715.71,205.195 1715.71,386.635 
  "/>
<circle clip-path="url(#clip1100)" style="fill:#000000; stroke:none; fill-opacity:1" cx="1823.71" cy="265.675" r="25"/>
<circle clip-path="url(#clip1100)" style="fill:#0000ff; stroke:none; fill-opacity:1" cx="1823.71" cy="265.675" r="21"/>
<g clip-path="url(#clip1100)">
<text style="fill:#000000; fill-opacity:1; font-family:Arial,Helvetica Neue,Helvetica,sans-serif; font-size:48px; text-anchor:start;" transform="rotate(0, 1907.71, 283.175)" x="1907.71" y="283.175">male (n = 11)</text>
</g>
<circle clip-path="url(#clip1100)" style="fill:#000000; stroke:none; fill-opacity:1" cx="1823.71" cy="326.155" r="25"/>
<circle clip-path="url(#clip1100)" style="fill:#ff0000; stroke:none; fill-opacity:1" cx="1823.71" cy="326.155" r="21"/>
<g clip-path="url(#clip1100)">
<text style="fill:#000000; fill-opacity:1; font-family:Arial,Helvetica Neue,Helvetica,sans-serif; font-size:48px; text-anchor:start;" transform="rotate(0, 1907.71, 343.655)" x="1907.71" y="343.655">female (n = 39)</text>
</g>
</svg>
