<?xml version="1.0" encoding="utf-8"?>
<svg xmlns="http://www.w3.org/2000/svg" xmlns:xlink="http://www.w3.org/1999/xlink" width="600" height="400" viewBox="0 0 2400 1600">
<defs>
  <clipPath id="clip7200">
    <rect x="0" y="0" width="2400" height="1600"/>
  </clipPath>
</defs>
<path clip-path="url(#clip7200)" d="
M0 1600 L2400 1600 L2400 0 L0 0  Z
  " fill="#ffffff" fill-rule="evenodd" fill-opacity="1"/>
<defs>
  <clipPath id="clip7201">
    <rect x="480" y="0" width="1681" height="1600"/>
  </clipPath>
</defs>
<path clip-path="url(#clip7200)" d="
M175.611 1425.62 L1152.76 1425.62 L1152.76 121.675 L175.611 121.675  Z
  " fill="#ffffff" fill-rule="evenodd" fill-opacity="1"/>
<defs>
  <clipPath id="clip7202">
    <rect x="175" y="121" width="978" height="1305"/>
  </clipPath>
</defs>
<polyline clip-path="url(#clip7202)" style="stroke:#000000; stroke-width:2; stroke-opacity:0.1; fill:none" points="
  295.202,1425.62 295.202,121.675 
  "/>
<polyline clip-path="url(#clip7202)" style="stroke:#000000; stroke-width:2; stroke-opacity:0.1; fill:none" points="
  496.67,1425.62 496.67,121.675 
  "/>
<polyline clip-path="url(#clip7202)" style="stroke:#000000; stroke-width:2; stroke-opacity:0.1; fill:none" points="
  698.139,1425.62 698.139,121.675 
  "/>
<polyline clip-path="url(#clip7202)" style="stroke:#000000; stroke-width:2; stroke-opacity:0.1; fill:none" points="
  899.607,1425.62 899.607,121.675 
  "/>
<polyline clip-path="url(#clip7202)" style="stroke:#000000; stroke-width:2; stroke-opacity:0.1; fill:none" points="
  1101.08,1425.62 1101.08,121.675 
  "/>
<polyline clip-path="url(#clip7202)" style="stroke:#000000; stroke-width:2; stroke-opacity:0.1; fill:none" points="
  175.611,1425.62 1152.76,1425.62 
  "/>
<polyline clip-path="url(#clip7202)" style="stroke:#000000; stroke-width:2; stroke-opacity:0.1; fill:none" points="
  175.611,990.971 1152.76,990.971 
  "/>
<polyline clip-path="url(#clip7202)" style="stroke:#000000; stroke-width:2; stroke-opacity:0.1; fill:none" points="
  175.611,556.323 1152.76,556.323 
  "/>
<polyline clip-path="url(#clip7202)" style="stroke:#000000; stroke-width:2; stroke-opacity:0.1; fill:none" points="
  175.611,121.675 1152.76,121.675 
  "/>
<polyline clip-path="url(#clip7200)" style="stroke:#000000; stroke-width:4; stroke-opacity:1; fill:none" points="
  175.611,1425.62 1152.76,1425.62 
  "/>
<polyline clip-path="url(#clip7200)" style="stroke:#000000; stroke-width:4; stroke-opacity:1; fill:none" points="
  175.611,1425.62 175.611,121.675 
  "/>
<polyline clip-path="url(#clip7200)" style="stroke:#000000; stroke-width:4; stroke-opacity:1; fill:none" points="
  295.202,1425.62 295.202,1409.97 
  "/>
<polyline clip-path="url(#clip7200)" style="stroke:#000000; stroke-width:4; stroke-opacity:1; fill:none" points="
  496.67,1425.62 496.67,1409.97 
  "/>
<polyline clip-path="url(#clip7200)" style="stroke:#000000; stroke-width:4; stroke-opacity:1; fill:none" points="
  698.139,1425.62 698.139,1409.97 
  "/>
<polyline clip-path="url(#clip7200)" style="stroke:#000000; stroke-width:4; stroke-opacity:1; fill:none" points="
  899.607,1425.62 899.607,1409.97 
  "/>
<polyline clip-path="url(#clip7200)" style="stroke:#000000; stroke-width:4; stroke-opacity:1; fill:none" points="
  1101.08,1425.62 1101.08,1409.97 
  "/>
<polyline clip-path="url(#clip7200)" style="stroke:#000000; stroke-width:4; stroke-opacity:1; fill:none" points="
  175.611,1425.62 187.336,1425.62 
  "/>
<polyline clip-path="url(#clip7200)" style="stroke:#000000; stroke-width:4; stroke-opacity:1; fill:none" points="
  175.611,990.971 187.336,990.971 
  "/>
<polyline clip-path="url(#clip7200)" style="stroke:#000000; stroke-width:4; stroke-opacity:1; fill:none" points="
  175.611,556.323 187.336,556.323 
  "/>
<polyline clip-path="url(#clip7200)" style="stroke:#000000; stroke-width:4; stroke-opacity:1; fill:none" points="
  175.611,121.675 187.336,121.675 
  "/>
<g clip-path="url(#clip7200)">
<text style="fill:#000000; fill-opacity:1; font-family:Arial,Helvetica Neue,Helvetica,sans-serif; font-size:48px; text-anchor:middle;" transform="rotate(0, 295.202, 1479.62)" x="295.202" y="1479.62">20</text>
</g>
<g clip-path="url(#clip7200)">
<text style="fill:#000000; fill-opacity:1; font-family:Arial,Helvetica Neue,Helvetica,sans-serif; font-size:48px; text-anchor:middle;" transform="rotate(0, 496.67, 1479.62)" x="496.67" y="1479.62">25</text>
</g>
<g clip-path="url(#clip7200)">
<text style="fill:#000000; fill-opacity:1; font-family:Arial,Helvetica Neue,Helvetica,sans-serif; font-size:48px; text-anchor:middle;" transform="rotate(0, 698.139, 1479.62)" x="698.139" y="1479.62">30</text>
</g>
<g clip-path="url(#clip7200)">
<text style="fill:#000000; fill-opacity:1; font-family:Arial,Helvetica Neue,Helvetica,sans-serif; font-size:48px; text-anchor:middle;" transform="rotate(0, 899.607, 1479.62)" x="899.607" y="1479.62">35</text>
</g>
<g clip-path="url(#clip7200)">
<text style="fill:#000000; fill-opacity:1; font-family:Arial,Helvetica Neue,Helvetica,sans-serif; font-size:48px; text-anchor:middle;" transform="rotate(0, 1101.08, 1479.62)" x="1101.08" y="1479.62">40</text>
</g>
<g clip-path="url(#clip7200)">
<text style="fill:#000000; fill-opacity:1; font-family:Arial,Helvetica Neue,Helvetica,sans-serif; font-size:48px; text-anchor:end;" transform="rotate(0, 151.611, 1443.12)" x="151.611" y="1443.12">0</text>
</g>
<g clip-path="url(#clip7200)">
<text style="fill:#000000; fill-opacity:1; font-family:Arial,Helvetica Neue,Helvetica,sans-serif; font-size:48px; text-anchor:end;" transform="rotate(0, 151.611, 1008.47)" x="151.611" y="1008.47">1</text>
</g>
<g clip-path="url(#clip7200)">
<text style="fill:#000000; fill-opacity:1; font-family:Arial,Helvetica Neue,Helvetica,sans-serif; font-size:48px; text-anchor:end;" transform="rotate(0, 151.611, 573.823)" x="151.611" y="573.823">2</text>
</g>
<g clip-path="url(#clip7200)">
<text style="fill:#000000; fill-opacity:1; font-family:Arial,Helvetica Neue,Helvetica,sans-serif; font-size:48px; text-anchor:end;" transform="rotate(0, 151.611, 139.175)" x="151.611" y="139.175">3</text>
</g>
<g clip-path="url(#clip7200)">
<text style="fill:#000000; fill-opacity:1; font-family:Arial,Helvetica Neue,Helvetica,sans-serif; font-size:84px; text-anchor:middle;" transform="rotate(0, 664.183, 73.2)" x="664.183" y="73.2">Data Time 3</text>
</g>
<g clip-path="url(#clip7200)">
<text style="fill:#000000; fill-opacity:1; font-family:Arial,Helvetica Neue,Helvetica,sans-serif; font-size:66px; text-anchor:middle;" transform="rotate(0, 664.183, 1559.48)" x="664.183" y="1559.48">BMI</text>
</g>
<g clip-path="url(#clip7200)">
<text style="fill:#000000; fill-opacity:1; font-family:Arial,Helvetica Neue,Helvetica,sans-serif; font-size:66px; text-anchor:middle;" transform="rotate(-90, 89.2861, 773.647)" x="89.2861" y="773.647">T3</text>
</g>
<circle clip-path="url(#clip7202)" style="fill:#000000; stroke:none; fill-opacity:1" cx="331.05" cy="930.12" r="18"/>
<circle clip-path="url(#clip7202)" style="fill:#0000ff; stroke:none; fill-opacity:1" cx="331.05" cy="930.12" r="14"/>
<circle clip-path="url(#clip7202)" style="fill:#000000; stroke:none; fill-opacity:1" cx="553.137" cy="1090.94" r="18"/>
<circle clip-path="url(#clip7202)" style="fill:#0000ff; stroke:none; fill-opacity:1" cx="553.137" cy="1090.94" r="14"/>
<circle clip-path="url(#clip7202)" style="fill:#000000; stroke:none; fill-opacity:1" cx="701.87" cy="1012.7" r="18"/>
<circle clip-path="url(#clip7202)" style="fill:#0000ff; stroke:none; fill-opacity:1" cx="701.87" cy="1012.7" r="14"/>
<circle clip-path="url(#clip7202)" style="fill:#000000; stroke:none; fill-opacity:1" cx="570.435" cy="960.545" r="18"/>
<circle clip-path="url(#clip7202)" style="fill:#0000ff; stroke:none; fill-opacity:1" cx="570.435" cy="960.545" r="14"/>
<circle clip-path="url(#clip7202)" style="fill:#000000; stroke:none; fill-opacity:1" cx="587.993" cy="695.41" r="18"/>
<circle clip-path="url(#clip7202)" style="fill:#0000ff; stroke:none; fill-opacity:1" cx="587.993" cy="695.41" r="14"/>
<circle clip-path="url(#clip7202)" style="fill:#000000; stroke:none; fill-opacity:1" cx="616.719" cy="847.537" r="18"/>
<circle clip-path="url(#clip7202)" style="fill:#0000ff; stroke:none; fill-opacity:1" cx="616.719" cy="847.537" r="14"/>
<circle clip-path="url(#clip7202)" style="fill:#000000; stroke:none; fill-opacity:1" cx="694.934" cy="990.971" r="18"/>
<circle clip-path="url(#clip7202)" style="fill:#0000ff; stroke:none; fill-opacity:1" cx="694.934" cy="990.971" r="14"/>
<circle clip-path="url(#clip7202)" style="fill:#000000; stroke:none; fill-opacity:1" cx="375.848" cy="1034.44" r="18"/>
<circle clip-path="url(#clip7202)" style="fill:#0000ff; stroke:none; fill-opacity:1" cx="375.848" cy="1034.44" r="14"/>
<circle clip-path="url(#clip7202)" style="fill:#000000; stroke:none; fill-opacity:1" cx="471.488" cy="960.545" r="18"/>
<circle clip-path="url(#clip7202)" style="fill:#0000ff; stroke:none; fill-opacity:1" cx="471.488" cy="960.545" r="14"/>
<circle clip-path="url(#clip7202)" style="fill:#000000; stroke:none; fill-opacity:1" cx="535.399" cy="817.112" r="18"/>
<circle clip-path="url(#clip7202)" style="fill:#0000ff; stroke:none; fill-opacity:1" cx="535.399" cy="817.112" r="14"/>
<circle clip-path="url(#clip7202)" style="fill:#000000; stroke:none; fill-opacity:1" cx="518.057" cy="795.379" r="18"/>
<circle clip-path="url(#clip7202)" style="fill:#0000ff; stroke:none; fill-opacity:1" cx="518.057" cy="795.379" r="14"/>
<circle clip-path="url(#clip7202)" style="fill:#000000; stroke:none; fill-opacity:1" cx="498.244" cy="821.458" r="18"/>
<circle clip-path="url(#clip7202)" style="fill:#ff0000; stroke:none; fill-opacity:1" cx="498.244" cy="821.458" r="14"/>
<circle clip-path="url(#clip7202)" style="fill:#000000; stroke:none; fill-opacity:1" cx="833.007" cy="617.174" r="18"/>
<circle clip-path="url(#clip7202)" style="fill:#ff0000; stroke:none; fill-opacity:1" cx="833.007" cy="617.174" r="14"/>
<circle clip-path="url(#clip7202)" style="fill:#000000; stroke:none; fill-opacity:1" cx="719.519" cy="1030.09" r="18"/>
<circle clip-path="url(#clip7202)" style="fill:#ff0000; stroke:none; fill-opacity:1" cx="719.519" cy="1030.09" r="14"/>
<circle clip-path="url(#clip7202)" style="fill:#000000; stroke:none; fill-opacity:1" cx="608.9" cy="834.498" r="18"/>
<circle clip-path="url(#clip7202)" style="fill:#ff0000; stroke:none; fill-opacity:1" cx="608.9" cy="834.498" r="14"/>
<circle clip-path="url(#clip7202)" style="fill:#000000; stroke:none; fill-opacity:1" cx="763.631" cy="712.796" r="18"/>
<circle clip-path="url(#clip7202)" style="fill:#ff0000; stroke:none; fill-opacity:1" cx="763.631" cy="712.796" r="14"/>
<circle clip-path="url(#clip7202)" style="fill:#000000; stroke:none; fill-opacity:1" cx="587.948" cy="1099.63" r="18"/>
<circle clip-path="url(#clip7202)" style="fill:#ff0000; stroke:none; fill-opacity:1" cx="587.948" cy="1099.63" r="14"/>
<circle clip-path="url(#clip7202)" style="fill:#000000; stroke:none; fill-opacity:1" cx="263.135" cy="847.537" r="18"/>
<circle clip-path="url(#clip7202)" style="fill:#ff0000; stroke:none; fill-opacity:1" cx="263.135" cy="847.537" r="14"/>
<circle clip-path="url(#clip7202)" style="fill:#000000; stroke:none; fill-opacity:1" cx="203.266" cy="660.638" r="18"/>
<circle clip-path="url(#clip7202)" style="fill:#ff0000; stroke:none; fill-opacity:1" cx="203.266" cy="660.638" r="14"/>
<circle clip-path="url(#clip7202)" style="fill:#000000; stroke:none; fill-opacity:1" cx="507.034" cy="821.458" r="18"/>
<circle clip-path="url(#clip7202)" style="fill:#ff0000; stroke:none; fill-opacity:1" cx="507.034" cy="821.458" r="14"/>
<circle clip-path="url(#clip7202)" style="fill:#000000; stroke:none; fill-opacity:1" cx="434.425" cy="960.545" r="18"/>
<circle clip-path="url(#clip7202)" style="fill:#ff0000; stroke:none; fill-opacity:1" cx="434.425" cy="960.545" r="14"/>
<circle clip-path="url(#clip7202)" style="fill:#000000; stroke:none; fill-opacity:1" cx="371.727" cy="973.585" r="18"/>
<circle clip-path="url(#clip7202)" style="fill:#ff0000; stroke:none; fill-opacity:1" cx="371.727" cy="973.585" r="14"/>
<circle clip-path="url(#clip7202)" style="fill:#000000; stroke:none; fill-opacity:1" cx="988.955" cy="964.892" r="18"/>
<circle clip-path="url(#clip7202)" style="fill:#ff0000; stroke:none; fill-opacity:1" cx="988.955" cy="964.892" r="14"/>
<circle clip-path="url(#clip7202)" style="fill:#000000; stroke:none; fill-opacity:1" cx="495.354" cy="951.852" r="18"/>
<circle clip-path="url(#clip7202)" style="fill:#ff0000; stroke:none; fill-opacity:1" cx="495.354" cy="951.852" r="14"/>
<circle clip-path="url(#clip7202)" style="fill:#000000; stroke:none; fill-opacity:1" cx="553.058" cy="847.537" r="18"/>
<circle clip-path="url(#clip7202)" style="fill:#ff0000; stroke:none; fill-opacity:1" cx="553.058" cy="847.537" r="14"/>
<circle clip-path="url(#clip7202)" style="fill:#000000; stroke:none; fill-opacity:1" cx="494.265" cy="982.278" r="18"/>
<circle clip-path="url(#clip7202)" style="fill:#ff0000; stroke:none; fill-opacity:1" cx="494.265" cy="982.278" r="14"/>
<circle clip-path="url(#clip7202)" style="fill:#000000; stroke:none; fill-opacity:1" cx="668.233" cy="1012.7" r="18"/>
<circle clip-path="url(#clip7202)" style="fill:#ff0000; stroke:none; fill-opacity:1" cx="668.233" cy="1012.7" r="14"/>
<circle clip-path="url(#clip7202)" style="fill:#000000; stroke:none; fill-opacity:1" cx="1125.1" cy="960.545" r="18"/>
<circle clip-path="url(#clip7202)" style="fill:#ff0000; stroke:none; fill-opacity:1" cx="1125.1" cy="960.545" r="14"/>
<circle clip-path="url(#clip7202)" style="fill:#000000; stroke:none; fill-opacity:1" cx="311.986" cy="738.875" r="18"/>
<circle clip-path="url(#clip7202)" style="fill:#ff0000; stroke:none; fill-opacity:1" cx="311.986" cy="738.875" r="14"/>
<circle clip-path="url(#clip7202)" style="fill:#000000; stroke:none; fill-opacity:1" cx="445.628" cy="947.506" r="18"/>
<circle clip-path="url(#clip7202)" style="fill:#ff0000; stroke:none; fill-opacity:1" cx="445.628" cy="947.506" r="14"/>
<circle clip-path="url(#clip7202)" style="fill:#000000; stroke:none; fill-opacity:1" cx="494.265" cy="1004.01" r="18"/>
<circle clip-path="url(#clip7202)" style="fill:#ff0000; stroke:none; fill-opacity:1" cx="494.265" cy="1004.01" r="14"/>
<circle clip-path="url(#clip7202)" style="fill:#000000; stroke:none; fill-opacity:1" cx="604.005" cy="851.883" r="18"/>
<circle clip-path="url(#clip7202)" style="fill:#ff0000; stroke:none; fill-opacity:1" cx="604.005" cy="851.883" r="14"/>
<circle clip-path="url(#clip7202)" style="fill:#000000; stroke:none; fill-opacity:1" cx="711.829" cy="899.695" r="18"/>
<circle clip-path="url(#clip7202)" style="fill:#ff0000; stroke:none; fill-opacity:1" cx="711.829" cy="899.695" r="14"/>
<circle clip-path="url(#clip7202)" style="fill:#000000; stroke:none; fill-opacity:1" cx="689.484" cy="1025.74" r="18"/>
<circle clip-path="url(#clip7202)" style="fill:#ff0000; stroke:none; fill-opacity:1" cx="689.484" cy="1025.74" r="14"/>
<circle clip-path="url(#clip7202)" style="fill:#000000; stroke:none; fill-opacity:1" cx="781.39" cy="864.923" r="18"/>
<circle clip-path="url(#clip7202)" style="fill:#ff0000; stroke:none; fill-opacity:1" cx="781.39" cy="864.923" r="14"/>
<circle clip-path="url(#clip7202)" style="fill:#000000; stroke:none; fill-opacity:1" cx="725.707" cy="664.985" r="18"/>
<circle clip-path="url(#clip7202)" style="fill:#ff0000; stroke:none; fill-opacity:1" cx="725.707" cy="664.985" r="14"/>
<circle clip-path="url(#clip7202)" style="fill:#000000; stroke:none; fill-opacity:1" cx="697.029" cy="764.954" r="18"/>
<circle clip-path="url(#clip7202)" style="fill:#ff0000; stroke:none; fill-opacity:1" cx="697.029" cy="764.954" r="14"/>
<circle clip-path="url(#clip7202)" style="fill:#000000; stroke:none; fill-opacity:1" cx="372.813" cy="864.923" r="18"/>
<circle clip-path="url(#clip7202)" style="fill:#ff0000; stroke:none; fill-opacity:1" cx="372.813" cy="864.923" r="14"/>
<circle clip-path="url(#clip7202)" style="fill:#000000; stroke:none; fill-opacity:1" cx="764.879" cy="982.278" r="18"/>
<circle clip-path="url(#clip7202)" style="fill:#ff0000; stroke:none; fill-opacity:1" cx="764.879" cy="982.278" r="14"/>
<circle clip-path="url(#clip7202)" style="fill:#000000; stroke:none; fill-opacity:1" cx="617.272" cy="1051.82" r="18"/>
<circle clip-path="url(#clip7202)" style="fill:#ff0000; stroke:none; fill-opacity:1" cx="617.272" cy="1051.82" r="14"/>
<circle clip-path="url(#clip7202)" style="fill:#000000; stroke:none; fill-opacity:1" cx="353.659" cy="938.813" r="18"/>
<circle clip-path="url(#clip7202)" style="fill:#ff0000; stroke:none; fill-opacity:1" cx="353.659" cy="938.813" r="14"/>
<circle clip-path="url(#clip7202)" style="fill:#000000; stroke:none; fill-opacity:1" cx="712.083" cy="725.836" r="18"/>
<circle clip-path="url(#clip7202)" style="fill:#ff0000; stroke:none; fill-opacity:1" cx="712.083" cy="725.836" r="14"/>
<circle clip-path="url(#clip7202)" style="fill:#000000; stroke:none; fill-opacity:1" cx="560.121" cy="912.734" r="18"/>
<circle clip-path="url(#clip7202)" style="fill:#ff0000; stroke:none; fill-opacity:1" cx="560.121" cy="912.734" r="14"/>
<circle clip-path="url(#clip7202)" style="fill:#000000; stroke:none; fill-opacity:1" cx="321.347" cy="912.734" r="18"/>
<circle clip-path="url(#clip7202)" style="fill:#ff0000; stroke:none; fill-opacity:1" cx="321.347" cy="912.734" r="14"/>
<circle clip-path="url(#clip7202)" style="fill:#000000; stroke:none; fill-opacity:1" cx="509.262" cy="986.624" r="18"/>
<circle clip-path="url(#clip7202)" style="fill:#ff0000; stroke:none; fill-opacity:1" cx="509.262" cy="986.624" r="14"/>
<circle clip-path="url(#clip7202)" style="fill:#000000; stroke:none; fill-opacity:1" cx="691.119" cy="721.489" r="18"/>
<circle clip-path="url(#clip7202)" style="fill:#ff0000; stroke:none; fill-opacity:1" cx="691.119" cy="721.489" r="14"/>
<circle clip-path="url(#clip7202)" style="fill:#000000; stroke:none; fill-opacity:1" cx="695.953" cy="599.788" r="18"/>
<circle clip-path="url(#clip7202)" style="fill:#ff0000; stroke:none; fill-opacity:1" cx="695.953" cy="599.788" r="14"/>
<circle clip-path="url(#clip7202)" style="fill:#000000; stroke:none; fill-opacity:1" cx="577.574" cy="1021.4" r="18"/>
<circle clip-path="url(#clip7202)" style="fill:#ff0000; stroke:none; fill-opacity:1" cx="577.574" cy="1021.4" r="14"/>
<circle clip-path="url(#clip7202)" style="fill:#000000; stroke:none; fill-opacity:1" cx="630.075" cy="947.506" r="18"/>
<circle clip-path="url(#clip7202)" style="fill:#ff0000; stroke:none; fill-opacity:1" cx="630.075" cy="947.506" r="14"/>
<circle clip-path="url(#clip7202)" style="fill:#000000; stroke:none; fill-opacity:1" cx="313.076" cy="747.568" r="18"/>
<circle clip-path="url(#clip7202)" style="fill:#ff0000; stroke:none; fill-opacity:1" cx="313.076" cy="747.568" r="14"/>
<path clip-path="url(#clip7200)" d="
M515.709 386.635 L1080.76 386.635 L1080.76 205.195 L515.709 205.195  Z
  " fill="#ffffff" fill-rule="evenodd" fill-opacity="1"/>
<polyline clip-path="url(#clip7200)" style="stroke:#000000; stroke-width:4; stroke-opacity:1; fill:none" points="
  515.709,386.635 1080.76,386.635 1080.76,205.195 515.709,205.195 515.709,386.635 
  "/>
<circle clip-path="url(#clip7200)" style="fill:#000000; stroke:none; fill-opacity:1" cx="623.709" cy="265.675" r="25"/>
<circle clip-path="url(#clip7200)" style="fill:#0000ff; stroke:none; fill-opacity:1" cx="623.709" cy="265.675" r="21"/>
<g clip-path="url(#clip7200)">
<text style="fill:#000000; fill-opacity:1; font-family:Arial,Helvetica Neue,Helvetica,sans-serif; font-size:48px; text-anchor:start;" transform="rotate(0, 707.709, 283.175)" x="707.709" y="283.175">male (n = 11)</text>
</g>
<circle clip-path="url(#clip7200)" style="fill:#000000; stroke:none; fill-opacity:1" cx="623.709" cy="326.155" r="25"/>
<circle clip-path="url(#clip7200)" style="fill:#ff0000; stroke:none; fill-opacity:1" cx="623.709" cy="326.155" r="21"/>
<g clip-path="url(#clip7200)">
<text style="fill:#000000; fill-opacity:1; font-family:Arial,Helvetica Neue,Helvetica,sans-serif; font-size:48px; text-anchor:start;" transform="rotate(0, 707.709, 343.655)" x="707.709" y="343.655">female (n = 39)</text>
</g>
<path clip-path="url(#clip7200)" d="
M1375.61 1425.62 L2352.76 1425.62 L2352.76 121.675 L1375.61 121.675  Z
  " fill="#ffffff" fill-rule="evenodd" fill-opacity="1"/>
<defs>
  <clipPath id="clip7203">
    <rect x="1375" y="121" width="978" height="1305"/>
  </clipPath>
</defs>
<polyline clip-path="url(#clip7203)" style="stroke:#000000; stroke-width:2; stroke-opacity:0.1; fill:none" points="
  1495.2,1425.62 1495.2,121.675 
  "/>
<polyline clip-path="url(#clip7203)" style="stroke:#000000; stroke-width:2; stroke-opacity:0.1; fill:none" points="
  1696.67,1425.62 1696.67,121.675 
  "/>
<polyline clip-path="url(#clip7203)" style="stroke:#000000; stroke-width:2; stroke-opacity:0.1; fill:none" points="
  1898.14,1425.62 1898.14,121.675 
  "/>
<polyline clip-path="url(#clip7203)" style="stroke:#000000; stroke-width:2; stroke-opacity:0.1; fill:none" points="
  2099.61,1425.62 2099.61,121.675 
  "/>
<polyline clip-path="url(#clip7203)" style="stroke:#000000; stroke-width:2; stroke-opacity:0.1; fill:none" points="
  2301.08,1425.62 2301.08,121.675 
  "/>
<polyline clip-path="url(#clip7203)" style="stroke:#000000; stroke-width:2; stroke-opacity:0.1; fill:none" points="
  1375.61,1425.62 2352.76,1425.62 
  "/>
<polyline clip-path="url(#clip7203)" style="stroke:#000000; stroke-width:2; stroke-opacity:0.1; fill:none" points="
  1375.61,990.971 2352.76,990.971 
  "/>
<polyline clip-path="url(#clip7203)" style="stroke:#000000; stroke-width:2; stroke-opacity:0.1; fill:none" points="
  1375.61,556.323 2352.76,556.323 
  "/>
<polyline clip-path="url(#clip7203)" style="stroke:#000000; stroke-width:2; stroke-opacity:0.1; fill:none" points="
  1375.61,121.675 2352.76,121.675 
  "/>
<polyline clip-path="url(#clip7200)" style="stroke:#000000; stroke-width:4; stroke-opacity:1; fill:none" points="
  1375.61,1425.62 2352.76,1425.62 
  "/>
<polyline clip-path="url(#clip7200)" style="stroke:#000000; stroke-width:4; stroke-opacity:1; fill:none" points="
  1375.61,1425.62 1375.61,121.675 
  "/>
<polyline clip-path="url(#clip7200)" style="stroke:#000000; stroke-width:4; stroke-opacity:1; fill:none" points="
  1495.2,1425.62 1495.2,1409.97 
  "/>
<polyline clip-path="url(#clip7200)" style="stroke:#000000; stroke-width:4; stroke-opacity:1; fill:none" points="
  1696.67,1425.62 1696.67,1409.97 
  "/>
<polyline clip-path="url(#clip7200)" style="stroke:#000000; stroke-width:4; stroke-opacity:1; fill:none" points="
  1898.14,1425.62 1898.14,1409.97 
  "/>
<polyline clip-path="url(#clip7200)" style="stroke:#000000; stroke-width:4; stroke-opacity:1; fill:none" points="
  2099.61,1425.62 2099.61,1409.97 
  "/>
<polyline clip-path="url(#clip7200)" style="stroke:#000000; stroke-width:4; stroke-opacity:1; fill:none" points="
  2301.08,1425.62 2301.08,1409.97 
  "/>
<polyline clip-path="url(#clip7200)" style="stroke:#000000; stroke-width:4; stroke-opacity:1; fill:none" points="
  1375.61,1425.62 1387.34,1425.62 
  "/>
<polyline clip-path="url(#clip7200)" style="stroke:#000000; stroke-width:4; stroke-opacity:1; fill:none" points="
  1375.61,990.971 1387.34,990.971 
  "/>
<polyline clip-path="url(#clip7200)" style="stroke:#000000; stroke-width:4; stroke-opacity:1; fill:none" points="
  1375.61,556.323 1387.34,556.323 
  "/>
<polyline clip-path="url(#clip7200)" style="stroke:#000000; stroke-width:4; stroke-opacity:1; fill:none" points="
  1375.61,121.675 1387.34,121.675 
  "/>
<g clip-path="url(#clip7200)">
<text style="fill:#000000; fill-opacity:1; font-family:Arial,Helvetica Neue,Helvetica,sans-serif; font-size:48px; text-anchor:middle;" transform="rotate(0, 1495.2, 1479.62)" x="1495.2" y="1479.62">20</text>
</g>
<g clip-path="url(#clip7200)">
<text style="fill:#000000; fill-opacity:1; font-family:Arial,Helvetica Neue,Helvetica,sans-serif; font-size:48px; text-anchor:middle;" transform="rotate(0, 1696.67, 1479.62)" x="1696.67" y="1479.62">25</text>
</g>
<g clip-path="url(#clip7200)">
<text style="fill:#000000; fill-opacity:1; font-family:Arial,Helvetica Neue,Helvetica,sans-serif; font-size:48px; text-anchor:middle;" transform="rotate(0, 1898.14, 1479.62)" x="1898.14" y="1479.62">30</text>
</g>
<g clip-path="url(#clip7200)">
<text style="fill:#000000; fill-opacity:1; font-family:Arial,Helvetica Neue,Helvetica,sans-serif; font-size:48px; text-anchor:middle;" transform="rotate(0, 2099.61, 1479.62)" x="2099.61" y="1479.62">35</text>
</g>
<g clip-path="url(#clip7200)">
<text style="fill:#000000; fill-opacity:1; font-family:Arial,Helvetica Neue,Helvetica,sans-serif; font-size:48px; text-anchor:middle;" transform="rotate(0, 2301.08, 1479.62)" x="2301.08" y="1479.62">40</text>
</g>
<g clip-path="url(#clip7200)">
<text style="fill:#000000; fill-opacity:1; font-family:Arial,Helvetica Neue,Helvetica,sans-serif; font-size:48px; text-anchor:end;" transform="rotate(0, 1351.61, 1443.12)" x="1351.61" y="1443.12">0</text>
</g>
<g clip-path="url(#clip7200)">
<text style="fill:#000000; fill-opacity:1; font-family:Arial,Helvetica Neue,Helvetica,sans-serif; font-size:48px; text-anchor:end;" transform="rotate(0, 1351.61, 1008.47)" x="1351.61" y="1008.47">1</text>
</g>
<g clip-path="url(#clip7200)">
<text style="fill:#000000; fill-opacity:1; font-family:Arial,Helvetica Neue,Helvetica,sans-serif; font-size:48px; text-anchor:end;" transform="rotate(0, 1351.61, 573.823)" x="1351.61" y="573.823">2</text>
</g>
<g clip-path="url(#clip7200)">
<text style="fill:#000000; fill-opacity:1; font-family:Arial,Helvetica Neue,Helvetica,sans-serif; font-size:48px; text-anchor:end;" transform="rotate(0, 1351.61, 139.175)" x="1351.61" y="139.175">3</text>
</g>
<g clip-path="url(#clip7200)">
<text style="fill:#000000; fill-opacity:1; font-family:Arial,Helvetica Neue,Helvetica,sans-serif; font-size:84px; text-anchor:middle;" transform="rotate(0, 1864.18, 73.2)" x="1864.18" y="73.2">Predicted Time 3</text>
</g>
<g clip-path="url(#clip7200)">
<text style="fill:#000000; fill-opacity:1; font-family:Arial,Helvetica Neue,Helvetica,sans-serif; font-size:66px; text-anchor:middle;" transform="rotate(0, 1864.18, 1559.48)" x="1864.18" y="1559.48">BMI</text>
</g>
<g clip-path="url(#clip7200)">
<text style="fill:#000000; fill-opacity:1; font-family:Arial,Helvetica Neue,Helvetica,sans-serif; font-size:66px; text-anchor:middle;" transform="rotate(-90, 1289.29, 773.647)" x="1289.29" y="773.647">T3</text>
</g>
<circle clip-path="url(#clip7203)" style="fill:#000000; stroke:none; fill-opacity:1" cx="1531.05" cy="1004.37" r="18"/>
<circle clip-path="url(#clip7203)" style="fill:#0000ff; stroke:none; fill-opacity:1" cx="1531.05" cy="1004.37" r="14"/>
<circle clip-path="url(#clip7203)" style="fill:#000000; stroke:none; fill-opacity:1" cx="1753.14" cy="929.413" r="18"/>
<circle clip-path="url(#clip7203)" style="fill:#0000ff; stroke:none; fill-opacity:1" cx="1753.14" cy="929.413" r="14"/>
<circle clip-path="url(#clip7203)" style="fill:#000000; stroke:none; fill-opacity:1" cx="1901.87" cy="929.466" r="18"/>
<circle clip-path="url(#clip7203)" style="fill:#0000ff; stroke:none; fill-opacity:1" cx="1901.87" cy="929.466" r="14"/>
<circle clip-path="url(#clip7203)" style="fill:#000000; stroke:none; fill-opacity:1" cx="1770.44" cy="929.572" r="18"/>
<circle clip-path="url(#clip7203)" style="fill:#0000ff; stroke:none; fill-opacity:1" cx="1770.44" cy="929.572" r="14"/>
<circle clip-path="url(#clip7203)" style="fill:#000000; stroke:none; fill-opacity:1" cx="1787.99" cy="885.361" r="18"/>
<circle clip-path="url(#clip7203)" style="fill:#0000ff; stroke:none; fill-opacity:1" cx="1787.99" cy="885.361" r="14"/>
<circle clip-path="url(#clip7203)" style="fill:#000000; stroke:none; fill-opacity:1" cx="1816.72" cy="929.089" r="18"/>
<circle clip-path="url(#clip7203)" style="fill:#0000ff; stroke:none; fill-opacity:1" cx="1816.72" cy="929.089" r="14"/>
<circle clip-path="url(#clip7203)" style="fill:#000000; stroke:none; fill-opacity:1" cx="1894.93" cy="868.099" r="18"/>
<circle clip-path="url(#clip7203)" style="fill:#0000ff; stroke:none; fill-opacity:1" cx="1894.93" cy="868.099" r="14"/>
<circle clip-path="url(#clip7203)" style="fill:#000000; stroke:none; fill-opacity:1" cx="1575.85" cy="953.921" r="18"/>
<circle clip-path="url(#clip7203)" style="fill:#0000ff; stroke:none; fill-opacity:1" cx="1575.85" cy="953.921" r="14"/>
<circle clip-path="url(#clip7203)" style="fill:#000000; stroke:none; fill-opacity:1" cx="1671.49" cy="953.656" r="18"/>
<circle clip-path="url(#clip7203)" style="fill:#0000ff; stroke:none; fill-opacity:1" cx="1671.49" cy="953.656" r="14"/>
<circle clip-path="url(#clip7203)" style="fill:#000000; stroke:none; fill-opacity:1" cx="1735.4" cy="977.342" r="18"/>
<circle clip-path="url(#clip7203)" style="fill:#0000ff; stroke:none; fill-opacity:1" cx="1735.4" cy="977.342" r="14"/>
<circle clip-path="url(#clip7203)" style="fill:#000000; stroke:none; fill-opacity:1" cx="1718.06" cy="884.916" r="18"/>
<circle clip-path="url(#clip7203)" style="fill:#0000ff; stroke:none; fill-opacity:1" cx="1718.06" cy="884.916" r="14"/>
<circle clip-path="url(#clip7203)" style="fill:#000000; stroke:none; fill-opacity:1" cx="1698.24" cy="977.977" r="18"/>
<circle clip-path="url(#clip7203)" style="fill:#ff0000; stroke:none; fill-opacity:1" cx="1698.24" cy="977.977" r="14"/>
<circle clip-path="url(#clip7203)" style="fill:#000000; stroke:none; fill-opacity:1" cx="2033.01" cy="953.771" r="18"/>
<circle clip-path="url(#clip7203)" style="fill:#ff0000; stroke:none; fill-opacity:1" cx="2033.01" cy="953.771" r="14"/>
<circle clip-path="url(#clip7203)" style="fill:#000000; stroke:none; fill-opacity:1" cx="1919.52" cy="906.466" r="18"/>
<circle clip-path="url(#clip7203)" style="fill:#ff0000; stroke:none; fill-opacity:1" cx="1919.52" cy="906.466" r="14"/>
<circle clip-path="url(#clip7203)" style="fill:#000000; stroke:none; fill-opacity:1" cx="1808.9" cy="929.446" r="18"/>
<circle clip-path="url(#clip7203)" style="fill:#ff0000; stroke:none; fill-opacity:1" cx="1808.9" cy="929.446" r="14"/>
<circle clip-path="url(#clip7203)" style="fill:#000000; stroke:none; fill-opacity:1" cx="1963.63" cy="1003.32" r="18"/>
<circle clip-path="url(#clip7203)" style="fill:#ff0000; stroke:none; fill-opacity:1" cx="1963.63" cy="1003.32" r="14"/>
<circle clip-path="url(#clip7203)" style="fill:#000000; stroke:none; fill-opacity:1" cx="1787.95" cy="928.08" r="18"/>
<circle clip-path="url(#clip7203)" style="fill:#ff0000; stroke:none; fill-opacity:1" cx="1787.95" cy="928.08" r="14"/>
<circle clip-path="url(#clip7203)" style="fill:#000000; stroke:none; fill-opacity:1" cx="1463.13" cy="884.96" r="18"/>
<circle clip-path="url(#clip7203)" style="fill:#ff0000; stroke:none; fill-opacity:1" cx="1463.13" cy="884.96" r="14"/>
<circle clip-path="url(#clip7203)" style="fill:#000000; stroke:none; fill-opacity:1" cx="1403.27" cy="977.615" r="18"/>
<circle clip-path="url(#clip7203)" style="fill:#ff0000; stroke:none; fill-opacity:1" cx="1403.27" cy="977.615" r="14"/>
<circle clip-path="url(#clip7203)" style="fill:#000000; stroke:none; fill-opacity:1" cx="1707.03" cy="1004.53" r="18"/>
<circle clip-path="url(#clip7203)" style="fill:#ff0000; stroke:none; fill-opacity:1" cx="1707.03" cy="1004.53" r="14"/>
<circle clip-path="url(#clip7203)" style="fill:#000000; stroke:none; fill-opacity:1" cx="1634.43" cy="863.631" r="18"/>
<circle clip-path="url(#clip7203)" style="fill:#ff0000; stroke:none; fill-opacity:1" cx="1634.43" cy="863.631" r="14"/>
<circle clip-path="url(#clip7203)" style="fill:#000000; stroke:none; fill-opacity:1" cx="1571.73" cy="733.751" r="18"/>
<circle clip-path="url(#clip7203)" style="fill:#ff0000; stroke:none; fill-opacity:1" cx="1571.73" cy="733.751" r="14"/>
<circle clip-path="url(#clip7203)" style="fill:#000000; stroke:none; fill-opacity:1" cx="2188.96" cy="929.077" r="18"/>
<circle clip-path="url(#clip7203)" style="fill:#ff0000; stroke:none; fill-opacity:1" cx="2188.96" cy="929.077" r="14"/>
<circle clip-path="url(#clip7203)" style="fill:#000000; stroke:none; fill-opacity:1" cx="1695.35" cy="885.396" r="18"/>
<circle clip-path="url(#clip7203)" style="fill:#ff0000; stroke:none; fill-opacity:1" cx="1695.35" cy="885.396" r="14"/>
<circle clip-path="url(#clip7203)" style="fill:#000000; stroke:none; fill-opacity:1" cx="1753.06" cy="977.24" r="18"/>
<circle clip-path="url(#clip7203)" style="fill:#ff0000; stroke:none; fill-opacity:1" cx="1753.06" cy="977.24" r="14"/>
<circle clip-path="url(#clip7203)" style="fill:#000000; stroke:none; fill-opacity:1" cx="1694.27" cy="929.625" r="18"/>
<circle clip-path="url(#clip7203)" style="fill:#ff0000; stroke:none; fill-opacity:1" cx="1694.27" cy="929.625" r="14"/>
<circle clip-path="url(#clip7203)" style="fill:#000000; stroke:none; fill-opacity:1" cx="1868.23" cy="954.95" r="18"/>
<circle clip-path="url(#clip7203)" style="fill:#ff0000; stroke:none; fill-opacity:1" cx="1868.23" cy="954.95" r="14"/>
<circle clip-path="url(#clip7203)" style="fill:#000000; stroke:none; fill-opacity:1" cx="2325.1" cy="844.989" r="18"/>
<circle clip-path="url(#clip7203)" style="fill:#ff0000; stroke:none; fill-opacity:1" cx="2325.1" cy="844.989" r="14"/>
<circle clip-path="url(#clip7203)" style="fill:#000000; stroke:none; fill-opacity:1" cx="1511.99" cy="1004.45" r="18"/>
<circle clip-path="url(#clip7203)" style="fill:#ff0000; stroke:none; fill-opacity:1" cx="1511.99" cy="1004.45" r="14"/>
<circle clip-path="url(#clip7203)" style="fill:#000000; stroke:none; fill-opacity:1" cx="1645.63" cy="953.612" r="18"/>
<circle clip-path="url(#clip7203)" style="fill:#ff0000; stroke:none; fill-opacity:1" cx="1645.63" cy="953.612" r="14"/>
<circle clip-path="url(#clip7203)" style="fill:#000000; stroke:none; fill-opacity:1" cx="1694.27" cy="1004.02" r="18"/>
<circle clip-path="url(#clip7203)" style="fill:#ff0000; stroke:none; fill-opacity:1" cx="1694.27" cy="1004.02" r="14"/>
<circle clip-path="url(#clip7203)" style="fill:#000000; stroke:none; fill-opacity:1" cx="1804.01" cy="928.867" r="18"/>
<circle clip-path="url(#clip7203)" style="fill:#ff0000; stroke:none; fill-opacity:1" cx="1804.01" cy="928.867" r="14"/>
<circle clip-path="url(#clip7203)" style="fill:#000000; stroke:none; fill-opacity:1" cx="1911.83" cy="884.226" r="18"/>
<circle clip-path="url(#clip7203)" style="fill:#ff0000; stroke:none; fill-opacity:1" cx="1911.83" cy="884.226" r="14"/>
<circle clip-path="url(#clip7203)" style="fill:#000000; stroke:none; fill-opacity:1" cx="1889.48" cy="952.52" r="18"/>
<circle clip-path="url(#clip7203)" style="fill:#ff0000; stroke:none; fill-opacity:1" cx="1889.48" cy="952.52" r="14"/>
<circle clip-path="url(#clip7203)" style="fill:#000000; stroke:none; fill-opacity:1" cx="1981.39" cy="953.958" r="18"/>
<circle clip-path="url(#clip7203)" style="fill:#ff0000; stroke:none; fill-opacity:1" cx="1981.39" cy="953.958" r="14"/>
<circle clip-path="url(#clip7203)" style="fill:#000000; stroke:none; fill-opacity:1" cx="1925.71" cy="884.864" r="18"/>
<circle clip-path="url(#clip7203)" style="fill:#ff0000; stroke:none; fill-opacity:1" cx="1925.71" cy="884.864" r="14"/>
<circle clip-path="url(#clip7203)" style="fill:#000000; stroke:none; fill-opacity:1" cx="1897.03" cy="953.442" r="18"/>
<circle clip-path="url(#clip7203)" style="fill:#ff0000; stroke:none; fill-opacity:1" cx="1897.03" cy="953.442" r="14"/>
<circle clip-path="url(#clip7203)" style="fill:#000000; stroke:none; fill-opacity:1" cx="1572.81" cy="1004.04" r="18"/>
<circle clip-path="url(#clip7203)" style="fill:#ff0000; stroke:none; fill-opacity:1" cx="1572.81" cy="1004.04" r="14"/>
<circle clip-path="url(#clip7203)" style="fill:#000000; stroke:none; fill-opacity:1" cx="1964.88" cy="1030.01" r="18"/>
<circle clip-path="url(#clip7203)" style="fill:#ff0000; stroke:none; fill-opacity:1" cx="1964.88" cy="1030.01" r="14"/>
<circle clip-path="url(#clip7203)" style="fill:#000000; stroke:none; fill-opacity:1" cx="1817.27" cy="1003.8" r="18"/>
<circle clip-path="url(#clip7203)" style="fill:#ff0000; stroke:none; fill-opacity:1" cx="1817.27" cy="1003.8" r="14"/>
<circle clip-path="url(#clip7203)" style="fill:#000000; stroke:none; fill-opacity:1" cx="1553.66" cy="953.721" r="18"/>
<circle clip-path="url(#clip7203)" style="fill:#ff0000; stroke:none; fill-opacity:1" cx="1553.66" cy="953.721" r="14"/>
<circle clip-path="url(#clip7203)" style="fill:#000000; stroke:none; fill-opacity:1" cx="1912.08" cy="977.317" r="18"/>
<circle clip-path="url(#clip7203)" style="fill:#ff0000; stroke:none; fill-opacity:1" cx="1912.08" cy="977.317" r="14"/>
<circle clip-path="url(#clip7203)" style="fill:#000000; stroke:none; fill-opacity:1" cx="1760.12" cy="929.727" r="18"/>
<circle clip-path="url(#clip7203)" style="fill:#ff0000; stroke:none; fill-opacity:1" cx="1760.12" cy="929.727" r="14"/>
<circle clip-path="url(#clip7203)" style="fill:#000000; stroke:none; fill-opacity:1" cx="1521.35" cy="929.777" r="18"/>
<circle clip-path="url(#clip7203)" style="fill:#ff0000; stroke:none; fill-opacity:1" cx="1521.35" cy="929.777" r="14"/>
<circle clip-path="url(#clip7203)" style="fill:#000000; stroke:none; fill-opacity:1" cx="1709.26" cy="1089.45" r="18"/>
<circle clip-path="url(#clip7203)" style="fill:#ff0000; stroke:none; fill-opacity:1" cx="1709.26" cy="1089.45" r="14"/>
<circle clip-path="url(#clip7203)" style="fill:#000000; stroke:none; fill-opacity:1" cx="1891.12" cy="929.437" r="18"/>
<circle clip-path="url(#clip7203)" style="fill:#ff0000; stroke:none; fill-opacity:1" cx="1891.12" cy="929.437" r="14"/>
<circle clip-path="url(#clip7203)" style="fill:#000000; stroke:none; fill-opacity:1" cx="1895.95" cy="1004.37" r="18"/>
<circle clip-path="url(#clip7203)" style="fill:#ff0000; stroke:none; fill-opacity:1" cx="1895.95" cy="1004.37" r="14"/>
<circle clip-path="url(#clip7203)" style="fill:#000000; stroke:none; fill-opacity:1" cx="1777.57" cy="885.004" r="18"/>
<circle clip-path="url(#clip7203)" style="fill:#ff0000; stroke:none; fill-opacity:1" cx="1777.57" cy="885.004" r="14"/>
<circle clip-path="url(#clip7203)" style="fill:#000000; stroke:none; fill-opacity:1" cx="1830.08" cy="953.74" r="18"/>
<circle clip-path="url(#clip7203)" style="fill:#ff0000; stroke:none; fill-opacity:1" cx="1830.08" cy="953.74" r="14"/>
<circle clip-path="url(#clip7203)" style="fill:#000000; stroke:none; fill-opacity:1" cx="1513.08" cy="1004.32" r="18"/>
<circle clip-path="url(#clip7203)" style="fill:#ff0000; stroke:none; fill-opacity:1" cx="1513.08" cy="1004.32" r="14"/>
<path clip-path="url(#clip7200)" d="
M1715.71 386.635 L2280.76 386.635 L2280.76 205.195 L1715.71 205.195  Z
  " fill="#ffffff" fill-rule="evenodd" fill-opacity="1"/>
<polyline clip-path="url(#clip7200)" style="stroke:#000000; stroke-width:4; stroke-opacity:1; fill:none" points="
  1715.71,386.635 2280.76,386.635 2280.76,205.195 1715.71,205.195 1715.71,386.635 
  "/>
<circle clip-path="url(#clip7200)" style="fill:#000000; stroke:none; fill-opacity:1" cx="1823.71" cy="265.675" r="25"/>
<circle clip-path="url(#clip7200)" style="fill:#0000ff; stroke:none; fill-opacity:1" cx="1823.71" cy="265.675" r="21"/>
<g clip-path="url(#clip7200)">
<text style="fill:#000000; fill-opacity:1; font-family:Arial,Helvetica Neue,Helvetica,sans-serif; font-size:48px; text-anchor:start;" transform="rotate(0, 1907.71, 283.175)" x="1907.71" y="283.175">male (n = 11)</text>
</g>
<circle clip-path="url(#clip7200)" style="fill:#000000; stroke:none; fill-opacity:1" cx="1823.71" cy="326.155" r="25"/>
<circle clip-path="url(#clip7200)" style="fill:#ff0000; stroke:none; fill-opacity:1" cx="1823.71" cy="326.155" r="21"/>
<g clip-path="url(#clip7200)">
<text style="fill:#000000; fill-opacity:1; font-family:Arial,Helvetica Neue,Helvetica,sans-serif; font-size:48px; text-anchor:start;" transform="rotate(0, 1907.71, 343.655)" x="1907.71" y="343.655">female (n = 39)</text>
</g>
</svg>
