<?xml version="1.0" encoding="utf-8"?>
<svg xmlns="http://www.w3.org/2000/svg" xmlns:xlink="http://www.w3.org/1999/xlink" width="600" height="400" viewBox="0 0 2400 1600">
<defs>
  <clipPath id="clip1600">
    <rect x="0" y="0" width="2400" height="1600"/>
  </clipPath>
</defs>
<path clip-path="url(#clip1600)" d="
M0 1600 L2400 1600 L2400 0 L0 0  Z
  " fill="#ffffff" fill-rule="evenodd" fill-opacity="1"/>
<defs>
  <clipPath id="clip1601">
    <rect x="480" y="0" width="1681" height="1600"/>
  </clipPath>
</defs>
<path clip-path="url(#clip1600)" d="
M202.373 1425.62 L1152.76 1425.62 L1152.76 121.675 L202.373 121.675  Z
  " fill="#ffffff" fill-rule="evenodd" fill-opacity="1"/>
<defs>
  <clipPath id="clip1602">
    <rect x="202" y="121" width="951" height="1305"/>
  </clipPath>
</defs>
<polyline clip-path="url(#clip1602)" style="stroke:#000000; stroke-width:2; stroke-opacity:0.1; fill:none" points="
  231.646,1425.62 231.646,121.675 
  "/>
<polyline clip-path="url(#clip1602)" style="stroke:#000000; stroke-width:2; stroke-opacity:0.1; fill:none" points="
  497.926,1425.62 497.926,121.675 
  "/>
<polyline clip-path="url(#clip1602)" style="stroke:#000000; stroke-width:2; stroke-opacity:0.1; fill:none" points="
  764.206,1425.62 764.206,121.675 
  "/>
<polyline clip-path="url(#clip1602)" style="stroke:#000000; stroke-width:2; stroke-opacity:0.1; fill:none" points="
  1030.49,1425.62 1030.49,121.675 
  "/>
<polyline clip-path="url(#clip1602)" style="stroke:#000000; stroke-width:2; stroke-opacity:0.1; fill:none" points="
  202.373,1425.62 1152.76,1425.62 
  "/>
<polyline clip-path="url(#clip1602)" style="stroke:#000000; stroke-width:2; stroke-opacity:0.1; fill:none" points="
  202.373,1164.83 1152.76,1164.83 
  "/>
<polyline clip-path="url(#clip1602)" style="stroke:#000000; stroke-width:2; stroke-opacity:0.1; fill:none" points="
  202.373,904.041 1152.76,904.041 
  "/>
<polyline clip-path="url(#clip1602)" style="stroke:#000000; stroke-width:2; stroke-opacity:0.1; fill:none" points="
  202.373,643.253 1152.76,643.253 
  "/>
<polyline clip-path="url(#clip1602)" style="stroke:#000000; stroke-width:2; stroke-opacity:0.1; fill:none" points="
  202.373,382.464 1152.76,382.464 
  "/>
<polyline clip-path="url(#clip1602)" style="stroke:#000000; stroke-width:2; stroke-opacity:0.1; fill:none" points="
  202.373,121.675 1152.76,121.675 
  "/>
<polyline clip-path="url(#clip1600)" style="stroke:#000000; stroke-width:4; stroke-opacity:1; fill:none" points="
  202.373,1425.62 1152.76,1425.62 
  "/>
<polyline clip-path="url(#clip1600)" style="stroke:#000000; stroke-width:4; stroke-opacity:1; fill:none" points="
  202.373,1425.62 202.373,121.675 
  "/>
<polyline clip-path="url(#clip1600)" style="stroke:#000000; stroke-width:4; stroke-opacity:1; fill:none" points="
  231.646,1425.62 231.646,1409.97 
  "/>
<polyline clip-path="url(#clip1600)" style="stroke:#000000; stroke-width:4; stroke-opacity:1; fill:none" points="
  497.926,1425.62 497.926,1409.97 
  "/>
<polyline clip-path="url(#clip1600)" style="stroke:#000000; stroke-width:4; stroke-opacity:1; fill:none" points="
  764.206,1425.62 764.206,1409.97 
  "/>
<polyline clip-path="url(#clip1600)" style="stroke:#000000; stroke-width:4; stroke-opacity:1; fill:none" points="
  1030.49,1425.62 1030.49,1409.97 
  "/>
<polyline clip-path="url(#clip1600)" style="stroke:#000000; stroke-width:4; stroke-opacity:1; fill:none" points="
  202.373,1425.62 213.778,1425.62 
  "/>
<polyline clip-path="url(#clip1600)" style="stroke:#000000; stroke-width:4; stroke-opacity:1; fill:none" points="
  202.373,1164.83 213.778,1164.83 
  "/>
<polyline clip-path="url(#clip1600)" style="stroke:#000000; stroke-width:4; stroke-opacity:1; fill:none" points="
  202.373,904.041 213.778,904.041 
  "/>
<polyline clip-path="url(#clip1600)" style="stroke:#000000; stroke-width:4; stroke-opacity:1; fill:none" points="
  202.373,643.253 213.778,643.253 
  "/>
<polyline clip-path="url(#clip1600)" style="stroke:#000000; stroke-width:4; stroke-opacity:1; fill:none" points="
  202.373,382.464 213.778,382.464 
  "/>
<polyline clip-path="url(#clip1600)" style="stroke:#000000; stroke-width:4; stroke-opacity:1; fill:none" points="
  202.373,121.675 213.778,121.675 
  "/>
<g clip-path="url(#clip1600)">
<text style="fill:#000000; fill-opacity:1; font-family:Arial,Helvetica Neue,Helvetica,sans-serif; font-size:48px; text-anchor:middle;" transform="rotate(0, 231.646, 1479.62)" x="231.646" y="1479.62">1</text>
</g>
<g clip-path="url(#clip1600)">
<text style="fill:#000000; fill-opacity:1; font-family:Arial,Helvetica Neue,Helvetica,sans-serif; font-size:48px; text-anchor:middle;" transform="rotate(0, 497.926, 1479.62)" x="497.926" y="1479.62">2</text>
</g>
<g clip-path="url(#clip1600)">
<text style="fill:#000000; fill-opacity:1; font-family:Arial,Helvetica Neue,Helvetica,sans-serif; font-size:48px; text-anchor:middle;" transform="rotate(0, 764.206, 1479.62)" x="764.206" y="1479.62">3</text>
</g>
<g clip-path="url(#clip1600)">
<text style="fill:#000000; fill-opacity:1; font-family:Arial,Helvetica Neue,Helvetica,sans-serif; font-size:48px; text-anchor:middle;" transform="rotate(0, 1030.49, 1479.62)" x="1030.49" y="1479.62">4</text>
</g>
<g clip-path="url(#clip1600)">
<text style="fill:#000000; fill-opacity:1; font-family:Arial,Helvetica Neue,Helvetica,sans-serif; font-size:48px; text-anchor:end;" transform="rotate(0, 178.373, 1443.12)" x="178.373" y="1443.12">0</text>
</g>
<g clip-path="url(#clip1600)">
<text style="fill:#000000; fill-opacity:1; font-family:Arial,Helvetica Neue,Helvetica,sans-serif; font-size:48px; text-anchor:end;" transform="rotate(0, 178.373, 1182.33)" x="178.373" y="1182.33">2</text>
</g>
<g clip-path="url(#clip1600)">
<text style="fill:#000000; fill-opacity:1; font-family:Arial,Helvetica Neue,Helvetica,sans-serif; font-size:48px; text-anchor:end;" transform="rotate(0, 178.373, 921.541)" x="178.373" y="921.541">4</text>
</g>
<g clip-path="url(#clip1600)">
<text style="fill:#000000; fill-opacity:1; font-family:Arial,Helvetica Neue,Helvetica,sans-serif; font-size:48px; text-anchor:end;" transform="rotate(0, 178.373, 660.753)" x="178.373" y="660.753">6</text>
</g>
<g clip-path="url(#clip1600)">
<text style="fill:#000000; fill-opacity:1; font-family:Arial,Helvetica Neue,Helvetica,sans-serif; font-size:48px; text-anchor:end;" transform="rotate(0, 178.373, 399.964)" x="178.373" y="399.964">8</text>
</g>
<g clip-path="url(#clip1600)">
<text style="fill:#000000; fill-opacity:1; font-family:Arial,Helvetica Neue,Helvetica,sans-serif; font-size:48px; text-anchor:end;" transform="rotate(0, 178.373, 139.175)" x="178.373" y="139.175">10</text>
</g>
<g clip-path="url(#clip1600)">
<text style="fill:#000000; fill-opacity:1; font-family:Arial,Helvetica Neue,Helvetica,sans-serif; font-size:84px; text-anchor:middle;" transform="rotate(0, 677.564, 73.2)" x="677.564" y="73.2">Data Time 3</text>
</g>
<g clip-path="url(#clip1600)">
<text style="fill:#000000; fill-opacity:1; font-family:Arial,Helvetica Neue,Helvetica,sans-serif; font-size:66px; text-anchor:middle;" transform="rotate(0, 677.564, 1559.48)" x="677.564" y="1559.48">dose_per_kg</text>
</g>
<g clip-path="url(#clip1600)">
<text style="fill:#000000; fill-opacity:1; font-family:Arial,Helvetica Neue,Helvetica,sans-serif; font-size:66px; text-anchor:middle;" transform="rotate(-90, 89.2861, 773.647)" x="89.2861" y="773.647">TSH</text>
</g>
<circle clip-path="url(#clip1602)" style="fill:#000000; stroke:none; fill-opacity:1" cx="440.26" cy="1308.26" r="18"/>
<circle clip-path="url(#clip1602)" style="fill:#0000ff; stroke:none; fill-opacity:1" cx="440.26" cy="1308.26" r="14"/>
<circle clip-path="url(#clip1602)" style="fill:#000000; stroke:none; fill-opacity:1" cx="485.444" cy="160.793" r="18"/>
<circle clip-path="url(#clip1602)" style="fill:#0000ff; stroke:none; fill-opacity:1" cx="485.444" cy="160.793" r="14"/>
<circle clip-path="url(#clip1602)" style="fill:#000000; stroke:none; fill-opacity:1" cx="369.637" cy="1086.59" r="18"/>
<circle clip-path="url(#clip1602)" style="fill:#0000ff; stroke:none; fill-opacity:1" cx="369.637" cy="1086.59" r="14"/>
<circle clip-path="url(#clip1602)" style="fill:#000000; stroke:none; fill-opacity:1" cx="410.154" cy="1372.16" r="18"/>
<circle clip-path="url(#clip1602)" style="fill:#0000ff; stroke:none; fill-opacity:1" cx="410.154" cy="1372.16" r="14"/>
<circle clip-path="url(#clip1602)" style="fill:#000000; stroke:none; fill-opacity:1" cx="540.662" cy="1420.4" r="18"/>
<circle clip-path="url(#clip1602)" style="fill:#0000ff; stroke:none; fill-opacity:1" cx="540.662" cy="1420.4" r="14"/>
<circle clip-path="url(#clip1602)" style="fill:#000000; stroke:none; fill-opacity:1" cx="397.639" cy="1326.52" r="18"/>
<circle clip-path="url(#clip1602)" style="fill:#0000ff; stroke:none; fill-opacity:1" cx="397.639" cy="1326.52" r="14"/>
<circle clip-path="url(#clip1602)" style="fill:#000000; stroke:none; fill-opacity:1" cx="479.045" cy="1351.29" r="18"/>
<circle clip-path="url(#clip1602)" style="fill:#0000ff; stroke:none; fill-opacity:1" cx="479.045" cy="1351.29" r="14"/>
<circle clip-path="url(#clip1602)" style="fill:#000000; stroke:none; fill-opacity:1" cx="447.273" cy="917.081" r="18"/>
<circle clip-path="url(#clip1602)" style="fill:#0000ff; stroke:none; fill-opacity:1" cx="447.273" cy="917.081" r="14"/>
<circle clip-path="url(#clip1602)" style="fill:#000000; stroke:none; fill-opacity:1" cx="437.91" cy="956.199" r="18"/>
<circle clip-path="url(#clip1602)" style="fill:#0000ff; stroke:none; fill-opacity:1" cx="437.91" cy="956.199" r="14"/>
<circle clip-path="url(#clip1602)" style="fill:#000000; stroke:none; fill-opacity:1" cx="384.045" cy="1412.58" r="18"/>
<circle clip-path="url(#clip1602)" style="fill:#0000ff; stroke:none; fill-opacity:1" cx="384.045" cy="1412.58" r="14"/>
<circle clip-path="url(#clip1602)" style="fill:#000000; stroke:none; fill-opacity:1" cx="505.958" cy="1424.31" r="18"/>
<circle clip-path="url(#clip1602)" style="fill:#0000ff; stroke:none; fill-opacity:1" cx="505.958" cy="1424.31" r="14"/>
<circle clip-path="url(#clip1602)" style="fill:#000000; stroke:none; fill-opacity:1" cx="461.417" cy="1366.94" r="18"/>
<circle clip-path="url(#clip1602)" style="fill:#ff0000; stroke:none; fill-opacity:1" cx="461.417" cy="1366.94" r="14"/>
<circle clip-path="url(#clip1602)" style="fill:#000000; stroke:none; fill-opacity:1" cx="373.881" cy="1377.37" r="18"/>
<circle clip-path="url(#clip1602)" style="fill:#ff0000; stroke:none; fill-opacity:1" cx="373.881" cy="1377.37" r="14"/>
<circle clip-path="url(#clip1602)" style="fill:#000000; stroke:none; fill-opacity:1" cx="410.075" cy="1050.08" r="18"/>
<circle clip-path="url(#clip1602)" style="fill:#ff0000; stroke:none; fill-opacity:1" cx="410.075" cy="1050.08" r="14"/>
<circle clip-path="url(#clip1602)" style="fill:#000000; stroke:none; fill-opacity:1" cx="451.87" cy="1327.82" r="18"/>
<circle clip-path="url(#clip1602)" style="fill:#ff0000; stroke:none; fill-opacity:1" cx="451.87" cy="1327.82" r="14"/>
<circle clip-path="url(#clip1602)" style="fill:#000000; stroke:none; fill-opacity:1" cx="314.995" cy="1412.58" r="18"/>
<circle clip-path="url(#clip1602)" style="fill:#ff0000; stroke:none; fill-opacity:1" cx="314.995" cy="1412.58" r="14"/>
<circle clip-path="url(#clip1602)" style="fill:#000000; stroke:none; fill-opacity:1" cx="493.001" cy="995.317" r="18"/>
<circle clip-path="url(#clip1602)" style="fill:#ff0000; stroke:none; fill-opacity:1" cx="493.001" cy="995.317" r="14"/>
<circle clip-path="url(#clip1602)" style="fill:#000000; stroke:none; fill-opacity:1" cx="788.67" cy="1424.31" r="18"/>
<circle clip-path="url(#clip1602)" style="fill:#ff0000; stroke:none; fill-opacity:1" cx="788.67" cy="1424.31" r="14"/>
<circle clip-path="url(#clip1602)" style="fill:#000000; stroke:none; fill-opacity:1" cx="682.715" cy="1363.03" r="18"/>
<circle clip-path="url(#clip1602)" style="fill:#ff0000; stroke:none; fill-opacity:1" cx="682.715" cy="1363.03" r="14"/>
<circle clip-path="url(#clip1602)" style="fill:#000000; stroke:none; fill-opacity:1" cx="447.945" cy="1230.03" r="18"/>
<circle clip-path="url(#clip1602)" style="fill:#ff0000; stroke:none; fill-opacity:1" cx="447.945" cy="1230.03" r="14"/>
<circle clip-path="url(#clip1602)" style="fill:#000000; stroke:none; fill-opacity:1" cx="702.636" cy="1310.87" r="18"/>
<circle clip-path="url(#clip1602)" style="fill:#ff0000; stroke:none; fill-opacity:1" cx="702.636" cy="1310.87" r="14"/>
<circle clip-path="url(#clip1602)" style="fill:#000000; stroke:none; fill-opacity:1" cx="1125.86" cy="1343.47" r="18"/>
<circle clip-path="url(#clip1602)" style="fill:#ff0000; stroke:none; fill-opacity:1" cx="1125.86" cy="1343.47" r="14"/>
<circle clip-path="url(#clip1602)" style="fill:#000000; stroke:none; fill-opacity:1" cx="363.591" cy="1421.71" r="18"/>
<circle clip-path="url(#clip1602)" style="fill:#ff0000; stroke:none; fill-opacity:1" cx="363.591" cy="1421.71" r="14"/>
<circle clip-path="url(#clip1602)" style="fill:#000000; stroke:none; fill-opacity:1" cx="621.69" cy="1330.43" r="18"/>
<circle clip-path="url(#clip1602)" style="fill:#ff0000; stroke:none; fill-opacity:1" cx="621.69" cy="1330.43" r="14"/>
<circle clip-path="url(#clip1602)" style="fill:#000000; stroke:none; fill-opacity:1" cx="391.55" cy="1420.4" r="18"/>
<circle clip-path="url(#clip1602)" style="fill:#ff0000; stroke:none; fill-opacity:1" cx="391.55" cy="1420.4" r="14"/>
<circle clip-path="url(#clip1602)" style="fill:#000000; stroke:none; fill-opacity:1" cx="542.563" cy="1236.55" r="18"/>
<circle clip-path="url(#clip1602)" style="fill:#ff0000; stroke:none; fill-opacity:1" cx="542.563" cy="1236.55" r="14"/>
<circle clip-path="url(#clip1602)" style="fill:#000000; stroke:none; fill-opacity:1" cx="411.882" cy="761.911" r="18"/>
<circle clip-path="url(#clip1602)" style="fill:#ff0000; stroke:none; fill-opacity:1" cx="411.882" cy="761.911" r="14"/>
<circle clip-path="url(#clip1602)" style="fill:#000000; stroke:none; fill-opacity:1" cx="366.088" cy="1373.46" r="18"/>
<circle clip-path="url(#clip1602)" style="fill:#ff0000; stroke:none; fill-opacity:1" cx="366.088" cy="1373.46" r="14"/>
<circle clip-path="url(#clip1602)" style="fill:#000000; stroke:none; fill-opacity:1" cx="451.881" cy="1313.48" r="18"/>
<circle clip-path="url(#clip1602)" style="fill:#ff0000; stroke:none; fill-opacity:1" cx="451.881" cy="1313.48" r="14"/>
<circle clip-path="url(#clip1602)" style="fill:#000000; stroke:none; fill-opacity:1" cx="587.898" cy="1243.07" r="18"/>
<circle clip-path="url(#clip1602)" style="fill:#ff0000; stroke:none; fill-opacity:1" cx="587.898" cy="1243.07" r="14"/>
<circle clip-path="url(#clip1602)" style="fill:#000000; stroke:none; fill-opacity:1" cx="407.849" cy="943.16" r="18"/>
<circle clip-path="url(#clip1602)" style="fill:#ff0000; stroke:none; fill-opacity:1" cx="407.849" cy="943.16" r="14"/>
<circle clip-path="url(#clip1602)" style="fill:#000000; stroke:none; fill-opacity:1" cx="523.995" cy="1424.31" r="18"/>
<circle clip-path="url(#clip1602)" style="fill:#ff0000; stroke:none; fill-opacity:1" cx="523.995" cy="1424.31" r="14"/>
<circle clip-path="url(#clip1602)" style="fill:#000000; stroke:none; fill-opacity:1" cx="558.229" cy="1424.31" r="18"/>
<circle clip-path="url(#clip1602)" style="fill:#ff0000; stroke:none; fill-opacity:1" cx="558.229" cy="1424.31" r="14"/>
<circle clip-path="url(#clip1602)" style="fill:#000000; stroke:none; fill-opacity:1" cx="505.016" cy="956.199" r="18"/>
<circle clip-path="url(#clip1602)" style="fill:#ff0000; stroke:none; fill-opacity:1" cx="505.016" cy="956.199" r="14"/>
<circle clip-path="url(#clip1602)" style="fill:#000000; stroke:none; fill-opacity:1" cx="373.881" cy="1424.31" r="18"/>
<circle clip-path="url(#clip1602)" style="fill:#ff0000; stroke:none; fill-opacity:1" cx="373.881" cy="1424.31" r="14"/>
<circle clip-path="url(#clip1602)" style="fill:#000000; stroke:none; fill-opacity:1" cx="572.124" cy="1420.4" r="18"/>
<circle clip-path="url(#clip1602)" style="fill:#ff0000; stroke:none; fill-opacity:1" cx="572.124" cy="1420.4" r="14"/>
<circle clip-path="url(#clip1602)" style="fill:#000000; stroke:none; fill-opacity:1" cx="420.801" cy="1421.71" r="18"/>
<circle clip-path="url(#clip1602)" style="fill:#ff0000; stroke:none; fill-opacity:1" cx="420.801" cy="1421.71" r="14"/>
<circle clip-path="url(#clip1602)" style="fill:#000000; stroke:none; fill-opacity:1" cx="545.587" cy="1403.45" r="18"/>
<circle clip-path="url(#clip1602)" style="fill:#ff0000; stroke:none; fill-opacity:1" cx="545.587" cy="1403.45" r="14"/>
<circle clip-path="url(#clip1602)" style="fill:#000000; stroke:none; fill-opacity:1" cx="229.271" cy="1348.69" r="18"/>
<circle clip-path="url(#clip1602)" style="fill:#ff0000; stroke:none; fill-opacity:1" cx="229.271" cy="1348.69" r="14"/>
<circle clip-path="url(#clip1602)" style="fill:#000000; stroke:none; fill-opacity:1" cx="346.739" cy="956.199" r="18"/>
<circle clip-path="url(#clip1602)" style="fill:#ff0000; stroke:none; fill-opacity:1" cx="346.739" cy="956.199" r="14"/>
<circle clip-path="url(#clip1602)" style="fill:#000000; stroke:none; fill-opacity:1" cx="536.264" cy="1419.1" r="18"/>
<circle clip-path="url(#clip1602)" style="fill:#ff0000; stroke:none; fill-opacity:1" cx="536.264" cy="1419.1" r="14"/>
<circle clip-path="url(#clip1602)" style="fill:#000000; stroke:none; fill-opacity:1" cx="412.745" cy="1424.31" r="18"/>
<circle clip-path="url(#clip1602)" style="fill:#ff0000; stroke:none; fill-opacity:1" cx="412.745" cy="1424.31" r="14"/>
<circle clip-path="url(#clip1602)" style="fill:#000000; stroke:none; fill-opacity:1" cx="474.181" cy="1406.06" r="18"/>
<circle clip-path="url(#clip1602)" style="fill:#ff0000; stroke:none; fill-opacity:1" cx="474.181" cy="1406.06" r="14"/>
<circle clip-path="url(#clip1602)" style="fill:#000000; stroke:none; fill-opacity:1" cx="648.136" cy="1256.11" r="18"/>
<circle clip-path="url(#clip1602)" style="fill:#ff0000; stroke:none; fill-opacity:1" cx="648.136" cy="1256.11" r="14"/>
<circle clip-path="url(#clip1602)" style="fill:#000000; stroke:none; fill-opacity:1" cx="268.416" cy="1369.55" r="18"/>
<circle clip-path="url(#clip1602)" style="fill:#ff0000; stroke:none; fill-opacity:1" cx="268.416" cy="1369.55" r="14"/>
<circle clip-path="url(#clip1602)" style="fill:#000000; stroke:none; fill-opacity:1" cx="382.297" cy="1409.97" r="18"/>
<circle clip-path="url(#clip1602)" style="fill:#ff0000; stroke:none; fill-opacity:1" cx="382.297" cy="1409.97" r="14"/>
<circle clip-path="url(#clip1602)" style="fill:#000000; stroke:none; fill-opacity:1" cx="381.312" cy="1422.1" r="18"/>
<circle clip-path="url(#clip1602)" style="fill:#ff0000; stroke:none; fill-opacity:1" cx="381.312" cy="1422.1" r="14"/>
<circle clip-path="url(#clip1602)" style="fill:#000000; stroke:none; fill-opacity:1" cx="550.046" cy="708.45" r="18"/>
<circle clip-path="url(#clip1602)" style="fill:#ff0000; stroke:none; fill-opacity:1" cx="550.046" cy="708.45" r="14"/>
<circle clip-path="url(#clip1602)" style="fill:#000000; stroke:none; fill-opacity:1" cx="372.059" cy="1334.34" r="18"/>
<circle clip-path="url(#clip1602)" style="fill:#ff0000; stroke:none; fill-opacity:1" cx="372.059" cy="1334.34" r="14"/>
<circle clip-path="url(#clip1602)" style="fill:#000000; stroke:none; fill-opacity:1" cx="475.167" cy="1269.15" r="18"/>
<circle clip-path="url(#clip1602)" style="fill:#ff0000; stroke:none; fill-opacity:1" cx="475.167" cy="1269.15" r="14"/>
<path clip-path="url(#clip1600)" d="
M515.709 386.635 L1080.76 386.635 L1080.76 205.195 L515.709 205.195  Z
  " fill="#ffffff" fill-rule="evenodd" fill-opacity="1"/>
<polyline clip-path="url(#clip1600)" style="stroke:#000000; stroke-width:4; stroke-opacity:1; fill:none" points="
  515.709,386.635 1080.76,386.635 1080.76,205.195 515.709,205.195 515.709,386.635 
  "/>
<circle clip-path="url(#clip1600)" style="fill:#000000; stroke:none; fill-opacity:1" cx="623.709" cy="265.675" r="25"/>
<circle clip-path="url(#clip1600)" style="fill:#0000ff; stroke:none; fill-opacity:1" cx="623.709" cy="265.675" r="21"/>
<g clip-path="url(#clip1600)">
<text style="fill:#000000; fill-opacity:1; font-family:Arial,Helvetica Neue,Helvetica,sans-serif; font-size:48px; text-anchor:start;" transform="rotate(0, 707.709, 283.175)" x="707.709" y="283.175">male (n = 11)</text>
</g>
<circle clip-path="url(#clip1600)" style="fill:#000000; stroke:none; fill-opacity:1" cx="623.709" cy="326.155" r="25"/>
<circle clip-path="url(#clip1600)" style="fill:#ff0000; stroke:none; fill-opacity:1" cx="623.709" cy="326.155" r="21"/>
<g clip-path="url(#clip1600)">
<text style="fill:#000000; fill-opacity:1; font-family:Arial,Helvetica Neue,Helvetica,sans-serif; font-size:48px; text-anchor:start;" transform="rotate(0, 707.709, 343.655)" x="707.709" y="343.655">female (n = 39)</text>
</g>
<path clip-path="url(#clip1600)" d="
M1402.37 1425.62 L2352.76 1425.62 L2352.76 121.675 L1402.37 121.675  Z
  " fill="#ffffff" fill-rule="evenodd" fill-opacity="1"/>
<defs>
  <clipPath id="clip1603">
    <rect x="1402" y="121" width="951" height="1305"/>
  </clipPath>
</defs>
<polyline clip-path="url(#clip1603)" style="stroke:#000000; stroke-width:2; stroke-opacity:0.1; fill:none" points="
  1431.65,1425.62 1431.65,121.675 
  "/>
<polyline clip-path="url(#clip1603)" style="stroke:#000000; stroke-width:2; stroke-opacity:0.1; fill:none" points="
  1697.93,1425.62 1697.93,121.675 
  "/>
<polyline clip-path="url(#clip1603)" style="stroke:#000000; stroke-width:2; stroke-opacity:0.1; fill:none" points="
  1964.21,1425.62 1964.21,121.675 
  "/>
<polyline clip-path="url(#clip1603)" style="stroke:#000000; stroke-width:2; stroke-opacity:0.1; fill:none" points="
  2230.49,1425.62 2230.49,121.675 
  "/>
<polyline clip-path="url(#clip1603)" style="stroke:#000000; stroke-width:2; stroke-opacity:0.1; fill:none" points="
  1402.37,1425.62 2352.76,1425.62 
  "/>
<polyline clip-path="url(#clip1603)" style="stroke:#000000; stroke-width:2; stroke-opacity:0.1; fill:none" points="
  1402.37,1164.83 2352.76,1164.83 
  "/>
<polyline clip-path="url(#clip1603)" style="stroke:#000000; stroke-width:2; stroke-opacity:0.1; fill:none" points="
  1402.37,904.041 2352.76,904.041 
  "/>
<polyline clip-path="url(#clip1603)" style="stroke:#000000; stroke-width:2; stroke-opacity:0.1; fill:none" points="
  1402.37,643.253 2352.76,643.253 
  "/>
<polyline clip-path="url(#clip1603)" style="stroke:#000000; stroke-width:2; stroke-opacity:0.1; fill:none" points="
  1402.37,382.464 2352.76,382.464 
  "/>
<polyline clip-path="url(#clip1603)" style="stroke:#000000; stroke-width:2; stroke-opacity:0.1; fill:none" points="
  1402.37,121.675 2352.76,121.675 
  "/>
<polyline clip-path="url(#clip1600)" style="stroke:#000000; stroke-width:4; stroke-opacity:1; fill:none" points="
  1402.37,1425.62 2352.76,1425.62 
  "/>
<polyline clip-path="url(#clip1600)" style="stroke:#000000; stroke-width:4; stroke-opacity:1; fill:none" points="
  1402.37,1425.62 1402.37,121.675 
  "/>
<polyline clip-path="url(#clip1600)" style="stroke:#000000; stroke-width:4; stroke-opacity:1; fill:none" points="
  1431.65,1425.62 1431.65,1409.97 
  "/>
<polyline clip-path="url(#clip1600)" style="stroke:#000000; stroke-width:4; stroke-opacity:1; fill:none" points="
  1697.93,1425.62 1697.93,1409.97 
  "/>
<polyline clip-path="url(#clip1600)" style="stroke:#000000; stroke-width:4; stroke-opacity:1; fill:none" points="
  1964.21,1425.62 1964.21,1409.97 
  "/>
<polyline clip-path="url(#clip1600)" style="stroke:#000000; stroke-width:4; stroke-opacity:1; fill:none" points="
  2230.49,1425.62 2230.49,1409.97 
  "/>
<polyline clip-path="url(#clip1600)" style="stroke:#000000; stroke-width:4; stroke-opacity:1; fill:none" points="
  1402.37,1425.62 1413.78,1425.62 
  "/>
<polyline clip-path="url(#clip1600)" style="stroke:#000000; stroke-width:4; stroke-opacity:1; fill:none" points="
  1402.37,1164.83 1413.78,1164.83 
  "/>
<polyline clip-path="url(#clip1600)" style="stroke:#000000; stroke-width:4; stroke-opacity:1; fill:none" points="
  1402.37,904.041 1413.78,904.041 
  "/>
<polyline clip-path="url(#clip1600)" style="stroke:#000000; stroke-width:4; stroke-opacity:1; fill:none" points="
  1402.37,643.253 1413.78,643.253 
  "/>
<polyline clip-path="url(#clip1600)" style="stroke:#000000; stroke-width:4; stroke-opacity:1; fill:none" points="
  1402.37,382.464 1413.78,382.464 
  "/>
<polyline clip-path="url(#clip1600)" style="stroke:#000000; stroke-width:4; stroke-opacity:1; fill:none" points="
  1402.37,121.675 1413.78,121.675 
  "/>
<g clip-path="url(#clip1600)">
<text style="fill:#000000; fill-opacity:1; font-family:Arial,Helvetica Neue,Helvetica,sans-serif; font-size:48px; text-anchor:middle;" transform="rotate(0, 1431.65, 1479.62)" x="1431.65" y="1479.62">1</text>
</g>
<g clip-path="url(#clip1600)">
<text style="fill:#000000; fill-opacity:1; font-family:Arial,Helvetica Neue,Helvetica,sans-serif; font-size:48px; text-anchor:middle;" transform="rotate(0, 1697.93, 1479.62)" x="1697.93" y="1479.62">2</text>
</g>
<g clip-path="url(#clip1600)">
<text style="fill:#000000; fill-opacity:1; font-family:Arial,Helvetica Neue,Helvetica,sans-serif; font-size:48px; text-anchor:middle;" transform="rotate(0, 1964.21, 1479.62)" x="1964.21" y="1479.62">3</text>
</g>
<g clip-path="url(#clip1600)">
<text style="fill:#000000; fill-opacity:1; font-family:Arial,Helvetica Neue,Helvetica,sans-serif; font-size:48px; text-anchor:middle;" transform="rotate(0, 2230.49, 1479.62)" x="2230.49" y="1479.62">4</text>
</g>
<g clip-path="url(#clip1600)">
<text style="fill:#000000; fill-opacity:1; font-family:Arial,Helvetica Neue,Helvetica,sans-serif; font-size:48px; text-anchor:end;" transform="rotate(0, 1378.37, 1443.12)" x="1378.37" y="1443.12">0</text>
</g>
<g clip-path="url(#clip1600)">
<text style="fill:#000000; fill-opacity:1; font-family:Arial,Helvetica Neue,Helvetica,sans-serif; font-size:48px; text-anchor:end;" transform="rotate(0, 1378.37, 1182.33)" x="1378.37" y="1182.33">2</text>
</g>
<g clip-path="url(#clip1600)">
<text style="fill:#000000; fill-opacity:1; font-family:Arial,Helvetica Neue,Helvetica,sans-serif; font-size:48px; text-anchor:end;" transform="rotate(0, 1378.37, 921.541)" x="1378.37" y="921.541">4</text>
</g>
<g clip-path="url(#clip1600)">
<text style="fill:#000000; fill-opacity:1; font-family:Arial,Helvetica Neue,Helvetica,sans-serif; font-size:48px; text-anchor:end;" transform="rotate(0, 1378.37, 660.753)" x="1378.37" y="660.753">6</text>
</g>
<g clip-path="url(#clip1600)">
<text style="fill:#000000; fill-opacity:1; font-family:Arial,Helvetica Neue,Helvetica,sans-serif; font-size:48px; text-anchor:end;" transform="rotate(0, 1378.37, 399.964)" x="1378.37" y="399.964">8</text>
</g>
<g clip-path="url(#clip1600)">
<text style="fill:#000000; fill-opacity:1; font-family:Arial,Helvetica Neue,Helvetica,sans-serif; font-size:48px; text-anchor:end;" transform="rotate(0, 1378.37, 139.175)" x="1378.37" y="139.175">10</text>
</g>
<g clip-path="url(#clip1600)">
<text style="fill:#000000; fill-opacity:1; font-family:Arial,Helvetica Neue,Helvetica,sans-serif; font-size:84px; text-anchor:middle;" transform="rotate(0, 1877.56, 73.2)" x="1877.56" y="73.2">Predicted Time 3</text>
</g>
<g clip-path="url(#clip1600)">
<text style="fill:#000000; fill-opacity:1; font-family:Arial,Helvetica Neue,Helvetica,sans-serif; font-size:66px; text-anchor:middle;" transform="rotate(0, 1877.56, 1559.48)" x="1877.56" y="1559.48">dose_per_kg</text>
</g>
<g clip-path="url(#clip1600)">
<text style="fill:#000000; fill-opacity:1; font-family:Arial,Helvetica Neue,Helvetica,sans-serif; font-size:66px; text-anchor:middle;" transform="rotate(-90, 1289.29, 773.647)" x="1289.29" y="773.647">TSH</text>
</g>
<circle clip-path="url(#clip1603)" style="fill:#000000; stroke:none; fill-opacity:1" cx="1640.26" cy="1193.22" r="18"/>
<circle clip-path="url(#clip1603)" style="fill:#0000ff; stroke:none; fill-opacity:1" cx="1640.26" cy="1193.22" r="14"/>
<circle clip-path="url(#clip1603)" style="fill:#000000; stroke:none; fill-opacity:1" cx="1685.44" cy="1252.94" r="18"/>
<circle clip-path="url(#clip1603)" style="fill:#0000ff; stroke:none; fill-opacity:1" cx="1685.44" cy="1252.94" r="14"/>
<circle clip-path="url(#clip1603)" style="fill:#000000; stroke:none; fill-opacity:1" cx="1569.64" cy="1238.97" r="18"/>
<circle clip-path="url(#clip1603)" style="fill:#0000ff; stroke:none; fill-opacity:1" cx="1569.64" cy="1238.97" r="14"/>
<circle clip-path="url(#clip1603)" style="fill:#000000; stroke:none; fill-opacity:1" cx="1610.15" cy="1240.94" r="18"/>
<circle clip-path="url(#clip1603)" style="fill:#0000ff; stroke:none; fill-opacity:1" cx="1610.15" cy="1240.94" r="14"/>
<circle clip-path="url(#clip1603)" style="fill:#000000; stroke:none; fill-opacity:1" cx="1740.66" cy="1278.77" r="18"/>
<circle clip-path="url(#clip1603)" style="fill:#0000ff; stroke:none; fill-opacity:1" cx="1740.66" cy="1278.77" r="14"/>
<circle clip-path="url(#clip1603)" style="fill:#000000; stroke:none; fill-opacity:1" cx="1597.64" cy="1239.09" r="18"/>
<circle clip-path="url(#clip1603)" style="fill:#0000ff; stroke:none; fill-opacity:1" cx="1597.64" cy="1239.09" r="14"/>
<circle clip-path="url(#clip1603)" style="fill:#000000; stroke:none; fill-opacity:1" cx="1679.04" cy="1280.01" r="18"/>
<circle clip-path="url(#clip1603)" style="fill:#0000ff; stroke:none; fill-opacity:1" cx="1679.04" cy="1280.01" r="14"/>
<circle clip-path="url(#clip1603)" style="fill:#000000; stroke:none; fill-opacity:1" cx="1647.27" cy="1224.14" r="18"/>
<circle clip-path="url(#clip1603)" style="fill:#0000ff; stroke:none; fill-opacity:1" cx="1647.27" cy="1224.14" r="14"/>
<circle clip-path="url(#clip1603)" style="fill:#000000; stroke:none; fill-opacity:1" cx="1637.91" cy="1228.23" r="18"/>
<circle clip-path="url(#clip1603)" style="fill:#0000ff; stroke:none; fill-opacity:1" cx="1637.91" cy="1228.23" r="14"/>
<circle clip-path="url(#clip1603)" style="fill:#000000; stroke:none; fill-opacity:1" cx="1584.05" cy="1210.34" r="18"/>
<circle clip-path="url(#clip1603)" style="fill:#0000ff; stroke:none; fill-opacity:1" cx="1584.05" cy="1210.34" r="14"/>
<circle clip-path="url(#clip1603)" style="fill:#000000; stroke:none; fill-opacity:1" cx="1705.96" cy="1270.11" r="18"/>
<circle clip-path="url(#clip1603)" style="fill:#0000ff; stroke:none; fill-opacity:1" cx="1705.96" cy="1270.11" r="14"/>
<circle clip-path="url(#clip1603)" style="fill:#000000; stroke:none; fill-opacity:1" cx="1661.42" cy="1209.77" r="18"/>
<circle clip-path="url(#clip1603)" style="fill:#ff0000; stroke:none; fill-opacity:1" cx="1661.42" cy="1209.77" r="14"/>
<circle clip-path="url(#clip1603)" style="fill:#000000; stroke:none; fill-opacity:1" cx="1573.88" cy="1219.85" r="18"/>
<circle clip-path="url(#clip1603)" style="fill:#ff0000; stroke:none; fill-opacity:1" cx="1573.88" cy="1219.85" r="14"/>
<circle clip-path="url(#clip1603)" style="fill:#000000; stroke:none; fill-opacity:1" cx="1610.08" cy="1246.06" r="18"/>
<circle clip-path="url(#clip1603)" style="fill:#ff0000; stroke:none; fill-opacity:1" cx="1610.08" cy="1246.06" r="14"/>
<circle clip-path="url(#clip1603)" style="fill:#000000; stroke:none; fill-opacity:1" cx="1651.87" cy="1235.88" r="18"/>
<circle clip-path="url(#clip1603)" style="fill:#ff0000; stroke:none; fill-opacity:1" cx="1651.87" cy="1235.88" r="14"/>
<circle clip-path="url(#clip1603)" style="fill:#000000; stroke:none; fill-opacity:1" cx="1514.99" cy="1167.56" r="18"/>
<circle clip-path="url(#clip1603)" style="fill:#ff0000; stroke:none; fill-opacity:1" cx="1514.99" cy="1167.56" r="14"/>
<circle clip-path="url(#clip1603)" style="fill:#000000; stroke:none; fill-opacity:1" cx="1693" cy="1237.13" r="18"/>
<circle clip-path="url(#clip1603)" style="fill:#ff0000; stroke:none; fill-opacity:1" cx="1693" cy="1237.13" r="14"/>
<circle clip-path="url(#clip1603)" style="fill:#000000; stroke:none; fill-opacity:1" cx="1988.67" cy="1275.95" r="18"/>
<circle clip-path="url(#clip1603)" style="fill:#ff0000; stroke:none; fill-opacity:1" cx="1988.67" cy="1275.95" r="14"/>
<circle clip-path="url(#clip1603)" style="fill:#000000; stroke:none; fill-opacity:1" cx="1882.72" cy="1221.62" r="18"/>
<circle clip-path="url(#clip1603)" style="fill:#ff0000; stroke:none; fill-opacity:1" cx="1882.72" cy="1221.62" r="14"/>
<circle clip-path="url(#clip1603)" style="fill:#000000; stroke:none; fill-opacity:1" cx="1647.94" cy="1189.91" r="18"/>
<circle clip-path="url(#clip1603)" style="fill:#ff0000; stroke:none; fill-opacity:1" cx="1647.94" cy="1189.91" r="14"/>
<circle clip-path="url(#clip1603)" style="fill:#000000; stroke:none; fill-opacity:1" cx="1902.64" cy="1284.57" r="18"/>
<circle clip-path="url(#clip1603)" style="fill:#ff0000; stroke:none; fill-opacity:1" cx="1902.64" cy="1284.57" r="14"/>
<circle clip-path="url(#clip1603)" style="fill:#000000; stroke:none; fill-opacity:1" cx="2325.86" cy="1344.22" r="18"/>
<circle clip-path="url(#clip1603)" style="fill:#ff0000; stroke:none; fill-opacity:1" cx="2325.86" cy="1344.22" r="14"/>
<circle clip-path="url(#clip1603)" style="fill:#000000; stroke:none; fill-opacity:1" cx="1563.59" cy="1235.53" r="18"/>
<circle clip-path="url(#clip1603)" style="fill:#ff0000; stroke:none; fill-opacity:1" cx="1563.59" cy="1235.53" r="14"/>
<circle clip-path="url(#clip1603)" style="fill:#000000; stroke:none; fill-opacity:1" cx="1821.69" cy="1272.4" r="18"/>
<circle clip-path="url(#clip1603)" style="fill:#ff0000; stroke:none; fill-opacity:1" cx="1821.69" cy="1272.4" r="14"/>
<circle clip-path="url(#clip1603)" style="fill:#000000; stroke:none; fill-opacity:1" cx="1591.55" cy="1195.87" r="18"/>
<circle clip-path="url(#clip1603)" style="fill:#ff0000; stroke:none; fill-opacity:1" cx="1591.55" cy="1195.87" r="14"/>
<circle clip-path="url(#clip1603)" style="fill:#000000; stroke:none; fill-opacity:1" cx="1742.56" cy="1245.1" r="18"/>
<circle clip-path="url(#clip1603)" style="fill:#ff0000; stroke:none; fill-opacity:1" cx="1742.56" cy="1245.1" r="14"/>
<circle clip-path="url(#clip1603)" style="fill:#000000; stroke:none; fill-opacity:1" cx="1611.88" cy="1223.8" r="18"/>
<circle clip-path="url(#clip1603)" style="fill:#ff0000; stroke:none; fill-opacity:1" cx="1611.88" cy="1223.8" r="14"/>
<circle clip-path="url(#clip1603)" style="fill:#000000; stroke:none; fill-opacity:1" cx="1566.09" cy="1278.84" r="18"/>
<circle clip-path="url(#clip1603)" style="fill:#ff0000; stroke:none; fill-opacity:1" cx="1566.09" cy="1278.84" r="14"/>
<circle clip-path="url(#clip1603)" style="fill:#000000; stroke:none; fill-opacity:1" cx="1651.88" cy="1175.79" r="18"/>
<circle clip-path="url(#clip1603)" style="fill:#ff0000; stroke:none; fill-opacity:1" cx="1651.88" cy="1175.79" r="14"/>
<circle clip-path="url(#clip1603)" style="fill:#000000; stroke:none; fill-opacity:1" cx="1787.9" cy="1236.01" r="18"/>
<circle clip-path="url(#clip1603)" style="fill:#ff0000; stroke:none; fill-opacity:1" cx="1787.9" cy="1236.01" r="14"/>
<circle clip-path="url(#clip1603)" style="fill:#000000; stroke:none; fill-opacity:1" cx="1607.85" cy="1177.79" r="18"/>
<circle clip-path="url(#clip1603)" style="fill:#ff0000; stroke:none; fill-opacity:1" cx="1607.85" cy="1177.79" r="14"/>
<circle clip-path="url(#clip1603)" style="fill:#000000; stroke:none; fill-opacity:1" cx="1724" cy="1245.9" r="18"/>
<circle clip-path="url(#clip1603)" style="fill:#ff0000; stroke:none; fill-opacity:1" cx="1724" cy="1245.9" r="14"/>
<circle clip-path="url(#clip1603)" style="fill:#000000; stroke:none; fill-opacity:1" cx="1758.23" cy="1271.09" r="18"/>
<circle clip-path="url(#clip1603)" style="fill:#ff0000; stroke:none; fill-opacity:1" cx="1758.23" cy="1271.09" r="14"/>
<circle clip-path="url(#clip1603)" style="fill:#000000; stroke:none; fill-opacity:1" cx="1705.02" cy="1232.22" r="18"/>
<circle clip-path="url(#clip1603)" style="fill:#ff0000; stroke:none; fill-opacity:1" cx="1705.02" cy="1232.22" r="14"/>
<circle clip-path="url(#clip1603)" style="fill:#000000; stroke:none; fill-opacity:1" cx="1573.88" cy="1218.34" r="18"/>
<circle clip-path="url(#clip1603)" style="fill:#ff0000; stroke:none; fill-opacity:1" cx="1573.88" cy="1218.34" r="14"/>
<circle clip-path="url(#clip1603)" style="fill:#000000; stroke:none; fill-opacity:1" cx="1772.12" cy="1274.93" r="18"/>
<circle clip-path="url(#clip1603)" style="fill:#ff0000; stroke:none; fill-opacity:1" cx="1772.12" cy="1274.93" r="14"/>
<circle clip-path="url(#clip1603)" style="fill:#000000; stroke:none; fill-opacity:1" cx="1620.8" cy="1222.13" r="18"/>
<circle clip-path="url(#clip1603)" style="fill:#ff0000; stroke:none; fill-opacity:1" cx="1620.8" cy="1222.13" r="14"/>
<circle clip-path="url(#clip1603)" style="fill:#000000; stroke:none; fill-opacity:1" cx="1745.59" cy="1197.78" r="18"/>
<circle clip-path="url(#clip1603)" style="fill:#ff0000; stroke:none; fill-opacity:1" cx="1745.59" cy="1197.78" r="14"/>
<circle clip-path="url(#clip1603)" style="fill:#000000; stroke:none; fill-opacity:1" cx="1429.27" cy="1111.77" r="18"/>
<circle clip-path="url(#clip1603)" style="fill:#ff0000; stroke:none; fill-opacity:1" cx="1429.27" cy="1111.77" r="14"/>
<circle clip-path="url(#clip1603)" style="fill:#000000; stroke:none; fill-opacity:1" cx="1546.74" cy="1167.8" r="18"/>
<circle clip-path="url(#clip1603)" style="fill:#ff0000; stroke:none; fill-opacity:1" cx="1546.74" cy="1167.8" r="14"/>
<circle clip-path="url(#clip1603)" style="fill:#000000; stroke:none; fill-opacity:1" cx="1736.26" cy="1223.37" r="18"/>
<circle clip-path="url(#clip1603)" style="fill:#ff0000; stroke:none; fill-opacity:1" cx="1736.26" cy="1223.37" r="14"/>
<circle clip-path="url(#clip1603)" style="fill:#000000; stroke:none; fill-opacity:1" cx="1612.74" cy="1208.88" r="18"/>
<circle clip-path="url(#clip1603)" style="fill:#ff0000; stroke:none; fill-opacity:1" cx="1612.74" cy="1208.88" r="14"/>
<circle clip-path="url(#clip1603)" style="fill:#000000; stroke:none; fill-opacity:1" cx="1674.18" cy="1238.9" r="18"/>
<circle clip-path="url(#clip1603)" style="fill:#ff0000; stroke:none; fill-opacity:1" cx="1674.18" cy="1238.9" r="14"/>
<circle clip-path="url(#clip1603)" style="fill:#000000; stroke:none; fill-opacity:1" cx="1848.14" cy="1249.21" r="18"/>
<circle clip-path="url(#clip1603)" style="fill:#ff0000; stroke:none; fill-opacity:1" cx="1848.14" cy="1249.21" r="14"/>
<circle clip-path="url(#clip1603)" style="fill:#000000; stroke:none; fill-opacity:1" cx="1468.42" cy="1017.37" r="18"/>
<circle clip-path="url(#clip1603)" style="fill:#ff0000; stroke:none; fill-opacity:1" cx="1468.42" cy="1017.37" r="14"/>
<circle clip-path="url(#clip1603)" style="fill:#000000; stroke:none; fill-opacity:1" cx="1582.3" cy="1227.72" r="18"/>
<circle clip-path="url(#clip1603)" style="fill:#ff0000; stroke:none; fill-opacity:1" cx="1582.3" cy="1227.72" r="14"/>
<circle clip-path="url(#clip1603)" style="fill:#000000; stroke:none; fill-opacity:1" cx="1581.31" cy="1184.92" r="18"/>
<circle clip-path="url(#clip1603)" style="fill:#ff0000; stroke:none; fill-opacity:1" cx="1581.31" cy="1184.92" r="14"/>
<circle clip-path="url(#clip1603)" style="fill:#000000; stroke:none; fill-opacity:1" cx="1750.05" cy="1266.6" r="18"/>
<circle clip-path="url(#clip1603)" style="fill:#ff0000; stroke:none; fill-opacity:1" cx="1750.05" cy="1266.6" r="14"/>
<circle clip-path="url(#clip1603)" style="fill:#000000; stroke:none; fill-opacity:1" cx="1572.06" cy="1209.23" r="18"/>
<circle clip-path="url(#clip1603)" style="fill:#ff0000; stroke:none; fill-opacity:1" cx="1572.06" cy="1209.23" r="14"/>
<circle clip-path="url(#clip1603)" style="fill:#000000; stroke:none; fill-opacity:1" cx="1675.17" cy="1180.45" r="18"/>
<circle clip-path="url(#clip1603)" style="fill:#ff0000; stroke:none; fill-opacity:1" cx="1675.17" cy="1180.45" r="14"/>
<path clip-path="url(#clip1600)" d="
M1715.71 386.635 L2280.76 386.635 L2280.76 205.195 L1715.71 205.195  Z
  " fill="#ffffff" fill-rule="evenodd" fill-opacity="1"/>
<polyline clip-path="url(#clip1600)" style="stroke:#000000; stroke-width:4; stroke-opacity:1; fill:none" points="
  1715.71,386.635 2280.76,386.635 2280.76,205.195 1715.71,205.195 1715.71,386.635 
  "/>
<circle clip-path="url(#clip1600)" style="fill:#000000; stroke:none; fill-opacity:1" cx="1823.71" cy="265.675" r="25"/>
<circle clip-path="url(#clip1600)" style="fill:#0000ff; stroke:none; fill-opacity:1" cx="1823.71" cy="265.675" r="21"/>
<g clip-path="url(#clip1600)">
<text style="fill:#000000; fill-opacity:1; font-family:Arial,Helvetica Neue,Helvetica,sans-serif; font-size:48px; text-anchor:start;" transform="rotate(0, 1907.71, 283.175)" x="1907.71" y="283.175">male (n = 11)</text>
</g>
<circle clip-path="url(#clip1600)" style="fill:#000000; stroke:none; fill-opacity:1" cx="1823.71" cy="326.155" r="25"/>
<circle clip-path="url(#clip1600)" style="fill:#ff0000; stroke:none; fill-opacity:1" cx="1823.71" cy="326.155" r="21"/>
<g clip-path="url(#clip1600)">
<text style="fill:#000000; fill-opacity:1; font-family:Arial,Helvetica Neue,Helvetica,sans-serif; font-size:48px; text-anchor:start;" transform="rotate(0, 1907.71, 343.655)" x="1907.71" y="343.655">female (n = 39)</text>
</g>
</svg>
