<?xml version="1.0" encoding="utf-8"?>
<svg xmlns="http://www.w3.org/2000/svg" xmlns:xlink="http://www.w3.org/1999/xlink" width="600" height="400" viewBox="0 0 2400 1600">
<defs>
  <clipPath id="clip0300">
    <rect x="0" y="0" width="2400" height="1600"/>
  </clipPath>
</defs>
<path clip-path="url(#clip0300)" d="
M0 1600 L2400 1600 L2400 0 L0 0  Z
  " fill="#ffffff" fill-rule="evenodd" fill-opacity="1"/>
<defs>
  <clipPath id="clip0301">
    <rect x="480" y="0" width="1681" height="1600"/>
  </clipPath>
</defs>
<path clip-path="url(#clip0300)" d="
M203.721 1425.62 L2352.76 1425.62 L2352.76 121.675 L203.721 121.675  Z
  " fill="#ffffff" fill-rule="evenodd" fill-opacity="1"/>
<defs>
  <clipPath id="clip0302">
    <rect x="203" y="121" width="2150" height="1305"/>
  </clipPath>
</defs>
<polyline clip-path="url(#clip0302)" style="stroke:#000000; stroke-width:2; stroke-opacity:0.1; fill:none" points="
  466.738,1425.62 466.738,121.675 
  "/>
<polyline clip-path="url(#clip0302)" style="stroke:#000000; stroke-width:2; stroke-opacity:0.1; fill:none" points="
  909.827,1425.62 909.827,121.675 
  "/>
<polyline clip-path="url(#clip0302)" style="stroke:#000000; stroke-width:2; stroke-opacity:0.1; fill:none" points="
  1352.92,1425.62 1352.92,121.675 
  "/>
<polyline clip-path="url(#clip0302)" style="stroke:#000000; stroke-width:2; stroke-opacity:0.1; fill:none" points="
  1796.01,1425.62 1796.01,121.675 
  "/>
<polyline clip-path="url(#clip0302)" style="stroke:#000000; stroke-width:2; stroke-opacity:0.1; fill:none" points="
  2239.09,1425.62 2239.09,121.675 
  "/>
<polyline clip-path="url(#clip0302)" style="stroke:#000000; stroke-width:2; stroke-opacity:0.1; fill:none" points="
  203.721,1425.62 2352.76,1425.62 
  "/>
<polyline clip-path="url(#clip0302)" style="stroke:#000000; stroke-width:2; stroke-opacity:0.1; fill:none" points="
  203.721,1099.63 2352.76,1099.63 
  "/>
<polyline clip-path="url(#clip0302)" style="stroke:#000000; stroke-width:2; stroke-opacity:0.1; fill:none" points="
  203.721,773.647 2352.76,773.647 
  "/>
<polyline clip-path="url(#clip0302)" style="stroke:#000000; stroke-width:2; stroke-opacity:0.1; fill:none" points="
  203.721,447.661 2352.76,447.661 
  "/>
<polyline clip-path="url(#clip0302)" style="stroke:#000000; stroke-width:2; stroke-opacity:0.1; fill:none" points="
  203.721,121.675 2352.76,121.675 
  "/>
<polyline clip-path="url(#clip0300)" style="stroke:#000000; stroke-width:4; stroke-opacity:1; fill:none" points="
  203.721,1425.62 2352.76,1425.62 
  "/>
<polyline clip-path="url(#clip0300)" style="stroke:#000000; stroke-width:4; stroke-opacity:1; fill:none" points="
  203.721,1425.62 203.721,121.675 
  "/>
<polyline clip-path="url(#clip0300)" style="stroke:#000000; stroke-width:4; stroke-opacity:1; fill:none" points="
  466.738,1425.62 466.738,1409.97 
  "/>
<polyline clip-path="url(#clip0300)" style="stroke:#000000; stroke-width:4; stroke-opacity:1; fill:none" points="
  909.827,1425.62 909.827,1409.97 
  "/>
<polyline clip-path="url(#clip0300)" style="stroke:#000000; stroke-width:4; stroke-opacity:1; fill:none" points="
  1352.92,1425.62 1352.92,1409.97 
  "/>
<polyline clip-path="url(#clip0300)" style="stroke:#000000; stroke-width:4; stroke-opacity:1; fill:none" points="
  1796.01,1425.62 1796.01,1409.97 
  "/>
<polyline clip-path="url(#clip0300)" style="stroke:#000000; stroke-width:4; stroke-opacity:1; fill:none" points="
  2239.09,1425.62 2239.09,1409.97 
  "/>
<polyline clip-path="url(#clip0300)" style="stroke:#000000; stroke-width:4; stroke-opacity:1; fill:none" points="
  203.721,1425.62 229.509,1425.62 
  "/>
<polyline clip-path="url(#clip0300)" style="stroke:#000000; stroke-width:4; stroke-opacity:1; fill:none" points="
  203.721,1099.63 229.509,1099.63 
  "/>
<polyline clip-path="url(#clip0300)" style="stroke:#000000; stroke-width:4; stroke-opacity:1; fill:none" points="
  203.721,773.647 229.509,773.647 
  "/>
<polyline clip-path="url(#clip0300)" style="stroke:#000000; stroke-width:4; stroke-opacity:1; fill:none" points="
  203.721,447.661 229.509,447.661 
  "/>
<polyline clip-path="url(#clip0300)" style="stroke:#000000; stroke-width:4; stroke-opacity:1; fill:none" points="
  203.721,121.675 229.509,121.675 
  "/>
<g clip-path="url(#clip0300)">
<text style="fill:#000000; fill-opacity:1; font-family:Arial,Helvetica Neue,Helvetica,sans-serif; font-size:48px; text-anchor:middle;" transform="rotate(0, 466.738, 1479.62)" x="466.738" y="1479.62">20</text>
</g>
<g clip-path="url(#clip0300)">
<text style="fill:#000000; fill-opacity:1; font-family:Arial,Helvetica Neue,Helvetica,sans-serif; font-size:48px; text-anchor:middle;" transform="rotate(0, 909.827, 1479.62)" x="909.827" y="1479.62">25</text>
</g>
<g clip-path="url(#clip0300)">
<text style="fill:#000000; fill-opacity:1; font-family:Arial,Helvetica Neue,Helvetica,sans-serif; font-size:48px; text-anchor:middle;" transform="rotate(0, 1352.92, 1479.62)" x="1352.92" y="1479.62">30</text>
</g>
<g clip-path="url(#clip0300)">
<text style="fill:#000000; fill-opacity:1; font-family:Arial,Helvetica Neue,Helvetica,sans-serif; font-size:48px; text-anchor:middle;" transform="rotate(0, 1796.01, 1479.62)" x="1796.01" y="1479.62">35</text>
</g>
<g clip-path="url(#clip0300)">
<text style="fill:#000000; fill-opacity:1; font-family:Arial,Helvetica Neue,Helvetica,sans-serif; font-size:48px; text-anchor:middle;" transform="rotate(0, 2239.09, 1479.62)" x="2239.09" y="1479.62">40</text>
</g>
<g clip-path="url(#clip0300)">
<text style="fill:#000000; fill-opacity:1; font-family:Arial,Helvetica Neue,Helvetica,sans-serif; font-size:48px; text-anchor:end;" transform="rotate(0, 179.721, 1443.12)" x="179.721" y="1443.12">-2</text>
</g>
<g clip-path="url(#clip0300)">
<text style="fill:#000000; fill-opacity:1; font-family:Arial,Helvetica Neue,Helvetica,sans-serif; font-size:48px; text-anchor:end;" transform="rotate(0, 179.721, 1117.13)" x="179.721" y="1117.13">-1</text>
</g>
<g clip-path="url(#clip0300)">
<text style="fill:#000000; fill-opacity:1; font-family:Arial,Helvetica Neue,Helvetica,sans-serif; font-size:48px; text-anchor:end;" transform="rotate(0, 179.721, 791.147)" x="179.721" y="791.147">0</text>
</g>
<g clip-path="url(#clip0300)">
<text style="fill:#000000; fill-opacity:1; font-family:Arial,Helvetica Neue,Helvetica,sans-serif; font-size:48px; text-anchor:end;" transform="rotate(0, 179.721, 465.161)" x="179.721" y="465.161">1</text>
</g>
<g clip-path="url(#clip0300)">
<text style="fill:#000000; fill-opacity:1; font-family:Arial,Helvetica Neue,Helvetica,sans-serif; font-size:48px; text-anchor:end;" transform="rotate(0, 179.721, 139.175)" x="179.721" y="139.175">2</text>
</g>
<g clip-path="url(#clip0300)">
<text style="fill:#000000; fill-opacity:1; font-family:Arial,Helvetica Neue,Helvetica,sans-serif; font-size:84px; text-anchor:middle;" transform="rotate(0, 1278.24, 73.2)" x="1278.24" y="73.2">Data Time 1</text>
</g>
<g clip-path="url(#clip0300)">
<text style="fill:#000000; fill-opacity:1; font-family:Arial,Helvetica Neue,Helvetica,sans-serif; font-size:66px; text-anchor:middle;" transform="rotate(0, 1278.24, 1559.48)" x="1278.24" y="1559.48">BMI</text>
</g>
<g clip-path="url(#clip0300)">
<text style="fill:#000000; fill-opacity:1; font-family:Arial,Helvetica Neue,Helvetica,sans-serif; font-size:66px; text-anchor:middle;" transform="rotate(-90, 89.2861, 773.647)" x="89.2861" y="773.647">Predicted - actual FT4 (ng/dL)</text>
</g>
<circle clip-path="url(#clip0302)" style="fill:#000000; stroke:none; fill-opacity:1" cx="545.579" cy="849.887" r="18"/>
<circle clip-path="url(#clip0302)" style="fill:#0000ff; stroke:none; fill-opacity:1" cx="545.579" cy="849.887" r="14"/>
<circle clip-path="url(#clip0302)" style="fill:#000000; stroke:none; fill-opacity:1" cx="1034.01" cy="737.96" r="18"/>
<circle clip-path="url(#clip0302)" style="fill:#0000ff; stroke:none; fill-opacity:1" cx="1034.01" cy="737.96" r="14"/>
<circle clip-path="url(#clip0302)" style="fill:#000000; stroke:none; fill-opacity:1" cx="1361.12" cy="752.963" r="18"/>
<circle clip-path="url(#clip0302)" style="fill:#0000ff; stroke:none; fill-opacity:1" cx="1361.12" cy="752.963" r="14"/>
<circle clip-path="url(#clip0302)" style="fill:#000000; stroke:none; fill-opacity:1" cx="1072.06" cy="830.639" r="18"/>
<circle clip-path="url(#clip0302)" style="fill:#0000ff; stroke:none; fill-opacity:1" cx="1072.06" cy="830.639" r="14"/>
<circle clip-path="url(#clip0302)" style="fill:#000000; stroke:none; fill-opacity:1" cx="1110.67" cy="818.748" r="18"/>
<circle clip-path="url(#clip0302)" style="fill:#0000ff; stroke:none; fill-opacity:1" cx="1110.67" cy="818.748" r="14"/>
<circle clip-path="url(#clip0302)" style="fill:#000000; stroke:none; fill-opacity:1" cx="1173.85" cy="846.21" r="18"/>
<circle clip-path="url(#clip0302)" style="fill:#0000ff; stroke:none; fill-opacity:1" cx="1173.85" cy="846.21" r="14"/>
<circle clip-path="url(#clip0302)" style="fill:#000000; stroke:none; fill-opacity:1" cx="1345.87" cy="797.81" r="18"/>
<circle clip-path="url(#clip0302)" style="fill:#0000ff; stroke:none; fill-opacity:1" cx="1345.87" cy="797.81" r="14"/>
<circle clip-path="url(#clip0302)" style="fill:#000000; stroke:none; fill-opacity:1" cx="644.103" cy="793.302" r="18"/>
<circle clip-path="url(#clip0302)" style="fill:#0000ff; stroke:none; fill-opacity:1" cx="644.103" cy="793.302" r="14"/>
<circle clip-path="url(#clip0302)" style="fill:#000000; stroke:none; fill-opacity:1" cx="854.443" cy="744.259" r="18"/>
<circle clip-path="url(#clip0302)" style="fill:#0000ff; stroke:none; fill-opacity:1" cx="854.443" cy="744.259" r="14"/>
<circle clip-path="url(#clip0302)" style="fill:#000000; stroke:none; fill-opacity:1" cx="995.003" cy="796.569" r="18"/>
<circle clip-path="url(#clip0302)" style="fill:#0000ff; stroke:none; fill-opacity:1" cx="995.003" cy="796.569" r="14"/>
<circle clip-path="url(#clip0302)" style="fill:#000000; stroke:none; fill-opacity:1" cx="956.863" cy="839.671" r="18"/>
<circle clip-path="url(#clip0302)" style="fill:#0000ff; stroke:none; fill-opacity:1" cx="956.863" cy="839.671" r="14"/>
<circle clip-path="url(#clip0302)" style="fill:#000000; stroke:none; fill-opacity:1" cx="913.289" cy="758.662" r="18"/>
<circle clip-path="url(#clip0302)" style="fill:#ff0000; stroke:none; fill-opacity:1" cx="913.289" cy="758.662" r="14"/>
<circle clip-path="url(#clip0302)" style="fill:#000000; stroke:none; fill-opacity:1" cx="1649.53" cy="733.414" r="18"/>
<circle clip-path="url(#clip0302)" style="fill:#ff0000; stroke:none; fill-opacity:1" cx="1649.53" cy="733.414" r="14"/>
<circle clip-path="url(#clip0302)" style="fill:#000000; stroke:none; fill-opacity:1" cx="1399.94" cy="774.149" r="18"/>
<circle clip-path="url(#clip0302)" style="fill:#ff0000; stroke:none; fill-opacity:1" cx="1399.94" cy="774.149" r="14"/>
<circle clip-path="url(#clip0302)" style="fill:#000000; stroke:none; fill-opacity:1" cx="1156.65" cy="790.935" r="18"/>
<circle clip-path="url(#clip0302)" style="fill:#ff0000; stroke:none; fill-opacity:1" cx="1156.65" cy="790.935" r="14"/>
<circle clip-path="url(#clip0302)" style="fill:#000000; stroke:none; fill-opacity:1" cx="1496.95" cy="749.786" r="18"/>
<circle clip-path="url(#clip0302)" style="fill:#ff0000; stroke:none; fill-opacity:1" cx="1496.95" cy="749.786" r="14"/>
<circle clip-path="url(#clip0302)" style="fill:#000000; stroke:none; fill-opacity:1" cx="1110.57" cy="956.613" r="18"/>
<circle clip-path="url(#clip0302)" style="fill:#ff0000; stroke:none; fill-opacity:1" cx="1110.57" cy="956.613" r="14"/>
<circle clip-path="url(#clip0302)" style="fill:#000000; stroke:none; fill-opacity:1" cx="396.212" cy="762.841" r="18"/>
<circle clip-path="url(#clip0302)" style="fill:#ff0000; stroke:none; fill-opacity:1" cx="396.212" cy="762.841" r="14"/>
<circle clip-path="url(#clip0302)" style="fill:#000000; stroke:none; fill-opacity:1" cx="264.542" cy="837.331" r="18"/>
<circle clip-path="url(#clip0302)" style="fill:#ff0000; stroke:none; fill-opacity:1" cx="264.542" cy="837.331" r="14"/>
<circle clip-path="url(#clip0302)" style="fill:#000000; stroke:none; fill-opacity:1" cx="932.621" cy="786.458" r="18"/>
<circle clip-path="url(#clip0302)" style="fill:#ff0000; stroke:none; fill-opacity:1" cx="932.621" cy="786.458" r="14"/>
<circle clip-path="url(#clip0302)" style="fill:#000000; stroke:none; fill-opacity:1" cx="772.932" cy="811.116" r="18"/>
<circle clip-path="url(#clip0302)" style="fill:#ff0000; stroke:none; fill-opacity:1" cx="772.932" cy="811.116" r="14"/>
<circle clip-path="url(#clip0302)" style="fill:#000000; stroke:none; fill-opacity:1" cx="635.038" cy="791.422" r="18"/>
<circle clip-path="url(#clip0302)" style="fill:#ff0000; stroke:none; fill-opacity:1" cx="635.038" cy="791.422" r="14"/>
<circle clip-path="url(#clip0302)" style="fill:#000000; stroke:none; fill-opacity:1" cx="1992.51" cy="754.449" r="18"/>
<circle clip-path="url(#clip0302)" style="fill:#ff0000; stroke:none; fill-opacity:1" cx="1992.51" cy="754.449" r="14"/>
<circle clip-path="url(#clip0302)" style="fill:#000000; stroke:none; fill-opacity:1" cx="906.933" cy="827.646" r="18"/>
<circle clip-path="url(#clip0302)" style="fill:#ff0000; stroke:none; fill-opacity:1" cx="906.933" cy="827.646" r="14"/>
<circle clip-path="url(#clip0302)" style="fill:#000000; stroke:none; fill-opacity:1" cx="1033.84" cy="753.63" r="18"/>
<circle clip-path="url(#clip0302)" style="fill:#ff0000; stroke:none; fill-opacity:1" cx="1033.84" cy="753.63" r="14"/>
<circle clip-path="url(#clip0302)" style="fill:#000000; stroke:none; fill-opacity:1" cx="904.538" cy="708" r="18"/>
<circle clip-path="url(#clip0302)" style="fill:#ff0000; stroke:none; fill-opacity:1" cx="904.538" cy="708" r="14"/>
<circle clip-path="url(#clip0302)" style="fill:#000000; stroke:none; fill-opacity:1" cx="1287.15" cy="783.825" r="18"/>
<circle clip-path="url(#clip0302)" style="fill:#ff0000; stroke:none; fill-opacity:1" cx="1287.15" cy="783.825" r="14"/>
<circle clip-path="url(#clip0302)" style="fill:#000000; stroke:none; fill-opacity:1" cx="2291.93" cy="620.56" r="18"/>
<circle clip-path="url(#clip0302)" style="fill:#ff0000; stroke:none; fill-opacity:1" cx="2291.93" cy="620.56" r="14"/>
<circle clip-path="url(#clip0302)" style="fill:#000000; stroke:none; fill-opacity:1" cx="503.651" cy="841.559" r="18"/>
<circle clip-path="url(#clip0302)" style="fill:#ff0000; stroke:none; fill-opacity:1" cx="503.651" cy="841.559" r="14"/>
<circle clip-path="url(#clip0302)" style="fill:#000000; stroke:none; fill-opacity:1" cx="797.57" cy="734.428" r="18"/>
<circle clip-path="url(#clip0302)" style="fill:#ff0000; stroke:none; fill-opacity:1" cx="797.57" cy="734.428" r="14"/>
<circle clip-path="url(#clip0302)" style="fill:#000000; stroke:none; fill-opacity:1" cx="904.538" cy="812.106" r="18"/>
<circle clip-path="url(#clip0302)" style="fill:#ff0000; stroke:none; fill-opacity:1" cx="904.538" cy="812.106" r="14"/>
<circle clip-path="url(#clip0302)" style="fill:#000000; stroke:none; fill-opacity:1" cx="1145.89" cy="856.498" r="18"/>
<circle clip-path="url(#clip0302)" style="fill:#ff0000; stroke:none; fill-opacity:1" cx="1145.89" cy="856.498" r="14"/>
<circle clip-path="url(#clip0302)" style="fill:#000000; stroke:none; fill-opacity:1" cx="1383.03" cy="671.908" r="18"/>
<circle clip-path="url(#clip0302)" style="fill:#ff0000; stroke:none; fill-opacity:1" cx="1383.03" cy="671.908" r="14"/>
<circle clip-path="url(#clip0302)" style="fill:#000000; stroke:none; fill-opacity:1" cx="1333.88" cy="629.555" r="18"/>
<circle clip-path="url(#clip0302)" style="fill:#ff0000; stroke:none; fill-opacity:1" cx="1333.88" cy="629.555" r="14"/>
<circle clip-path="url(#clip0302)" style="fill:#000000; stroke:none; fill-opacity:1" cx="1536.01" cy="719.523" r="18"/>
<circle clip-path="url(#clip0302)" style="fill:#ff0000; stroke:none; fill-opacity:1" cx="1536.01" cy="719.523" r="14"/>
<circle clip-path="url(#clip0302)" style="fill:#000000; stroke:none; fill-opacity:1" cx="1413.55" cy="695.691" r="18"/>
<circle clip-path="url(#clip0302)" style="fill:#ff0000; stroke:none; fill-opacity:1" cx="1413.55" cy="695.691" r="14"/>
<circle clip-path="url(#clip0302)" style="fill:#000000; stroke:none; fill-opacity:1" cx="1350.48" cy="695.367" r="18"/>
<circle clip-path="url(#clip0302)" style="fill:#ff0000; stroke:none; fill-opacity:1" cx="1350.48" cy="695.367" r="14"/>
<circle clip-path="url(#clip0302)" style="fill:#000000; stroke:none; fill-opacity:1" cx="637.427" cy="688.589" r="18"/>
<circle clip-path="url(#clip0302)" style="fill:#ff0000; stroke:none; fill-opacity:1" cx="637.427" cy="688.589" r="14"/>
<circle clip-path="url(#clip0302)" style="fill:#000000; stroke:none; fill-opacity:1" cx="1499.7" cy="693.199" r="18"/>
<circle clip-path="url(#clip0302)" style="fill:#ff0000; stroke:none; fill-opacity:1" cx="1499.7" cy="693.199" r="14"/>
<circle clip-path="url(#clip0302)" style="fill:#000000; stroke:none; fill-opacity:1" cx="1175.07" cy="828.689" r="18"/>
<circle clip-path="url(#clip0302)" style="fill:#ff0000; stroke:none; fill-opacity:1" cx="1175.07" cy="828.689" r="14"/>
<circle clip-path="url(#clip0302)" style="fill:#000000; stroke:none; fill-opacity:1" cx="595.302" cy="769.165" r="18"/>
<circle clip-path="url(#clip0302)" style="fill:#ff0000; stroke:none; fill-opacity:1" cx="595.302" cy="769.165" r="14"/>
<circle clip-path="url(#clip0302)" style="fill:#000000; stroke:none; fill-opacity:1" cx="1383.58" cy="846.891" r="18"/>
<circle clip-path="url(#clip0302)" style="fill:#ff0000; stroke:none; fill-opacity:1" cx="1383.58" cy="846.891" r="14"/>
<circle clip-path="url(#clip0302)" style="fill:#000000; stroke:none; fill-opacity:1" cx="1049.37" cy="688.734" r="18"/>
<circle clip-path="url(#clip0302)" style="fill:#ff0000; stroke:none; fill-opacity:1" cx="1049.37" cy="688.734" r="14"/>
<circle clip-path="url(#clip0302)" style="fill:#000000; stroke:none; fill-opacity:1" cx="524.239" cy="797.345" r="18"/>
<circle clip-path="url(#clip0302)" style="fill:#ff0000; stroke:none; fill-opacity:1" cx="524.239" cy="797.345" r="14"/>
<circle clip-path="url(#clip0302)" style="fill:#000000; stroke:none; fill-opacity:1" cx="937.52" cy="663.59" r="18"/>
<circle clip-path="url(#clip0302)" style="fill:#ff0000; stroke:none; fill-opacity:1" cx="937.52" cy="663.59" r="14"/>
<circle clip-path="url(#clip0302)" style="fill:#000000; stroke:none; fill-opacity:1" cx="1337.48" cy="725.064" r="18"/>
<circle clip-path="url(#clip0302)" style="fill:#ff0000; stroke:none; fill-opacity:1" cx="1337.48" cy="725.064" r="14"/>
<circle clip-path="url(#clip0302)" style="fill:#000000; stroke:none; fill-opacity:1" cx="1348.11" cy="864.237" r="18"/>
<circle clip-path="url(#clip0302)" style="fill:#ff0000; stroke:none; fill-opacity:1" cx="1348.11" cy="864.237" r="14"/>
<circle clip-path="url(#clip0302)" style="fill:#000000; stroke:none; fill-opacity:1" cx="1087.76" cy="716.953" r="18"/>
<circle clip-path="url(#clip0302)" style="fill:#ff0000; stroke:none; fill-opacity:1" cx="1087.76" cy="716.953" r="14"/>
<circle clip-path="url(#clip0302)" style="fill:#000000; stroke:none; fill-opacity:1" cx="1203.22" cy="772.683" r="18"/>
<circle clip-path="url(#clip0302)" style="fill:#ff0000; stroke:none; fill-opacity:1" cx="1203.22" cy="772.683" r="14"/>
<circle clip-path="url(#clip0302)" style="fill:#000000; stroke:none; fill-opacity:1" cx="506.049" cy="808.607" r="18"/>
<circle clip-path="url(#clip0302)" style="fill:#ff0000; stroke:none; fill-opacity:1" cx="506.049" cy="808.607" r="14"/>
<path clip-path="url(#clip0300)" d="
M1715.71 386.635 L2280.76 386.635 L2280.76 205.195 L1715.71 205.195  Z
  " fill="#ffffff" fill-rule="evenodd" fill-opacity="1"/>
<polyline clip-path="url(#clip0300)" style="stroke:#000000; stroke-width:4; stroke-opacity:1; fill:none" points="
  1715.71,386.635 2280.76,386.635 2280.76,205.195 1715.71,205.195 1715.71,386.635 
  "/>
<circle clip-path="url(#clip0300)" style="fill:#000000; stroke:none; fill-opacity:1" cx="1823.71" cy="265.675" r="25"/>
<circle clip-path="url(#clip0300)" style="fill:#0000ff; stroke:none; fill-opacity:1" cx="1823.71" cy="265.675" r="21"/>
<g clip-path="url(#clip0300)">
<text style="fill:#000000; fill-opacity:1; font-family:Arial,Helvetica Neue,Helvetica,sans-serif; font-size:48px; text-anchor:start;" transform="rotate(0, 1907.71, 283.175)" x="1907.71" y="283.175">male (n = 11)</text>
</g>
<circle clip-path="url(#clip0300)" style="fill:#000000; stroke:none; fill-opacity:1" cx="1823.71" cy="326.155" r="25"/>
<circle clip-path="url(#clip0300)" style="fill:#ff0000; stroke:none; fill-opacity:1" cx="1823.71" cy="326.155" r="21"/>
<g clip-path="url(#clip0300)">
<text style="fill:#000000; fill-opacity:1; font-family:Arial,Helvetica Neue,Helvetica,sans-serif; font-size:48px; text-anchor:start;" transform="rotate(0, 1907.71, 343.655)" x="1907.71" y="343.655">female (n = 39)</text>
</g>
</svg>
