<?xml version="1.0" encoding="utf-8"?>
<svg xmlns="http://www.w3.org/2000/svg" xmlns:xlink="http://www.w3.org/1999/xlink" width="1200" height="1200" viewBox="0 0 4800 4800">
<defs>
  <clipPath id="clip6400">
    <rect x="0" y="0" width="4800" height="4800"/>
  </clipPath>
</defs>
<path clip-path="url(#clip6400)" d="
M0 4800 L4800 4800 L4800 0 L0 0  Z
  " fill="#ffffff" fill-rule="evenodd" fill-opacity="1"/>
<defs>
  <clipPath id="clip6401">
    <rect x="960" y="480" width="3361" height="3361"/>
  </clipPath>
</defs>
<path clip-path="url(#clip6400)" d="
M221.95 2179.89 L2352.76 2179.89 L2352.76 151.017 L221.95 151.017  Z
  " fill="#ffffff" fill-rule="evenodd" fill-opacity="1"/>
<defs>
  <clipPath id="clip6402">
    <rect x="221" y="151" width="2132" height="2030"/>
  </clipPath>
</defs>
<polyline clip-path="url(#clip6402)" style="stroke:#000000; stroke-width:2; stroke-opacity:0.1; fill:none" points="
  282.256,2179.89 282.256,151.017 
  "/>
<polyline clip-path="url(#clip6402)" style="stroke:#000000; stroke-width:2; stroke-opacity:0.1; fill:none" points="
  784.804,2179.89 784.804,151.017 
  "/>
<polyline clip-path="url(#clip6402)" style="stroke:#000000; stroke-width:2; stroke-opacity:0.1; fill:none" points="
  1287.35,2179.89 1287.35,151.017 
  "/>
<polyline clip-path="url(#clip6402)" style="stroke:#000000; stroke-width:2; stroke-opacity:0.1; fill:none" points="
  1789.9,2179.89 1789.9,151.017 
  "/>
<polyline clip-path="url(#clip6402)" style="stroke:#000000; stroke-width:2; stroke-opacity:0.1; fill:none" points="
  2292.45,2179.89 2292.45,151.017 
  "/>
<polyline clip-path="url(#clip6402)" style="stroke:#000000; stroke-width:2; stroke-opacity:0.1; fill:none" points="
  221.95,2179.89 2352.76,2179.89 
  "/>
<polyline clip-path="url(#clip6402)" style="stroke:#000000; stroke-width:2; stroke-opacity:0.1; fill:none" points="
  221.95,1729.03 2352.76,1729.03 
  "/>
<polyline clip-path="url(#clip6402)" style="stroke:#000000; stroke-width:2; stroke-opacity:0.1; fill:none" points="
  221.95,1278.17 2352.76,1278.17 
  "/>
<polyline clip-path="url(#clip6402)" style="stroke:#000000; stroke-width:2; stroke-opacity:0.1; fill:none" points="
  221.95,827.309 2352.76,827.309 
  "/>
<polyline clip-path="url(#clip6402)" style="stroke:#000000; stroke-width:2; stroke-opacity:0.1; fill:none" points="
  221.95,376.447 2352.76,376.447 
  "/>
<polyline clip-path="url(#clip6400)" style="stroke:#000000; stroke-width:4; stroke-opacity:1; fill:none" points="
  221.95,2179.89 2352.76,2179.89 
  "/>
<polyline clip-path="url(#clip6400)" style="stroke:#000000; stroke-width:4; stroke-opacity:1; fill:none" points="
  221.95,2179.89 221.95,151.017 
  "/>
<polyline clip-path="url(#clip6400)" style="stroke:#000000; stroke-width:4; stroke-opacity:1; fill:none" points="
  282.256,2179.89 282.256,2155.55 
  "/>
<polyline clip-path="url(#clip6400)" style="stroke:#000000; stroke-width:4; stroke-opacity:1; fill:none" points="
  784.804,2179.89 784.804,2155.55 
  "/>
<polyline clip-path="url(#clip6400)" style="stroke:#000000; stroke-width:4; stroke-opacity:1; fill:none" points="
  1287.35,2179.89 1287.35,2155.55 
  "/>
<polyline clip-path="url(#clip6400)" style="stroke:#000000; stroke-width:4; stroke-opacity:1; fill:none" points="
  1789.9,2179.89 1789.9,2155.55 
  "/>
<polyline clip-path="url(#clip6400)" style="stroke:#000000; stroke-width:4; stroke-opacity:1; fill:none" points="
  2292.45,2179.89 2292.45,2155.55 
  "/>
<polyline clip-path="url(#clip6400)" style="stroke:#000000; stroke-width:4; stroke-opacity:1; fill:none" points="
  221.95,2179.89 247.52,2179.89 
  "/>
<polyline clip-path="url(#clip6400)" style="stroke:#000000; stroke-width:4; stroke-opacity:1; fill:none" points="
  221.95,1729.03 247.52,1729.03 
  "/>
<polyline clip-path="url(#clip6400)" style="stroke:#000000; stroke-width:4; stroke-opacity:1; fill:none" points="
  221.95,1278.17 247.52,1278.17 
  "/>
<polyline clip-path="url(#clip6400)" style="stroke:#000000; stroke-width:4; stroke-opacity:1; fill:none" points="
  221.95,827.309 247.52,827.309 
  "/>
<polyline clip-path="url(#clip6400)" style="stroke:#000000; stroke-width:4; stroke-opacity:1; fill:none" points="
  221.95,376.447 247.52,376.447 
  "/>
<g clip-path="url(#clip6400)">
<text style="fill:#000000; fill-opacity:1; font-family:Arial,Helvetica Neue,Helvetica,sans-serif; font-size:71px; text-anchor:middle;" transform="rotate(0, 282.256, 2266.29)" x="282.256" y="2266.29">0</text>
</g>
<g clip-path="url(#clip6400)">
<text style="fill:#000000; fill-opacity:1; font-family:Arial,Helvetica Neue,Helvetica,sans-serif; font-size:71px; text-anchor:middle;" transform="rotate(0, 784.804, 2266.29)" x="784.804" y="2266.29">2</text>
</g>
<g clip-path="url(#clip6400)">
<text style="fill:#000000; fill-opacity:1; font-family:Arial,Helvetica Neue,Helvetica,sans-serif; font-size:71px; text-anchor:middle;" transform="rotate(0, 1287.35, 2266.29)" x="1287.35" y="2266.29">4</text>
</g>
<g clip-path="url(#clip6400)">
<text style="fill:#000000; fill-opacity:1; font-family:Arial,Helvetica Neue,Helvetica,sans-serif; font-size:71px; text-anchor:middle;" transform="rotate(0, 1789.9, 2266.29)" x="1789.9" y="2266.29">6</text>
</g>
<g clip-path="url(#clip6400)">
<text style="fill:#000000; fill-opacity:1; font-family:Arial,Helvetica Neue,Helvetica,sans-serif; font-size:71px; text-anchor:middle;" transform="rotate(0, 2292.45, 2266.29)" x="2292.45" y="2266.29">8</text>
</g>
<g clip-path="url(#clip6400)">
<text style="fill:#000000; fill-opacity:1; font-family:Arial,Helvetica Neue,Helvetica,sans-serif; font-size:71px; text-anchor:end;" transform="rotate(0, 173.95, 2205.89)" x="173.95" y="2205.89">0</text>
</g>
<g clip-path="url(#clip6400)">
<text style="fill:#000000; fill-opacity:1; font-family:Arial,Helvetica Neue,Helvetica,sans-serif; font-size:71px; text-anchor:end;" transform="rotate(0, 173.95, 1755.03)" x="173.95" y="1755.03">1</text>
</g>
<g clip-path="url(#clip6400)">
<text style="fill:#000000; fill-opacity:1; font-family:Arial,Helvetica Neue,Helvetica,sans-serif; font-size:71px; text-anchor:end;" transform="rotate(0, 173.95, 1304.17)" x="173.95" y="1304.17">2</text>
</g>
<g clip-path="url(#clip6400)">
<text style="fill:#000000; fill-opacity:1; font-family:Arial,Helvetica Neue,Helvetica,sans-serif; font-size:71px; text-anchor:end;" transform="rotate(0, 173.95, 853.309)" x="173.95" y="853.309">3</text>
</g>
<g clip-path="url(#clip6400)">
<text style="fill:#000000; fill-opacity:1; font-family:Arial,Helvetica Neue,Helvetica,sans-serif; font-size:71px; text-anchor:end;" transform="rotate(0, 173.95, 402.447)" x="173.95" y="402.447">4</text>
</g>
<g clip-path="url(#clip6400)">
<text style="fill:#000000; fill-opacity:1; font-family:Arial,Helvetica Neue,Helvetica,sans-serif; font-size:125px; text-anchor:middle;" transform="rotate(0, 1287.35, 109.2)" x="1287.35" y="109.2">Normal patient 30 mcg (6 patients)</text>
</g>
<g clip-path="url(#clip6400)">
<text style="fill:#000000; fill-opacity:1; font-family:Arial,Helvetica Neue,Helvetica,sans-serif; font-size:95px; text-anchor:middle;" transform="rotate(0, 1287.35, 2390.14)" x="1287.35" y="2390.14">Time (hours)</text>
</g>
<g clip-path="url(#clip6400)">
<text style="fill:#000000; fill-opacity:1; font-family:Arial,Helvetica Neue,Helvetica,sans-serif; font-size:95px; text-anchor:middle;" transform="rotate(-90, 68.007, 1165.46)" x="68.007" y="1165.46">T3 mcg/L</text>
</g>
<path clip-path="url(#clip6402)" d="
M282.256 1894.24 L307.383 1840 L332.511 1734.39 L357.638 1629.6 L382.766 1536.42 L407.893 1455.73 L433.02 1386.52 L458.148 1327.51 L483.275 1277.49 L508.403 1235.4 
  L533.53 1200.32 L558.658 1171.41 L583.785 1147.95 L608.912 1129.29 L634.04 1114.86 L659.167 1104.15 L684.295 1096.71 L709.422 1092.14 L734.55 1090.06 L759.677 1090.17 
  L784.804 1092.18 L809.932 1095.82 L835.059 1100.74 L860.187 1107.02 L885.314 1114.71 L910.442 1122.35 L935.569 1130.26 L960.696 1143.38 L985.824 1153.37 L1010.95 1158.84 
  L1036.08 1175.64 L1061.21 1182.64 L1086.33 1194.98 L1111.46 1205.98 L1136.59 1217.34 L1161.72 1228.83 L1186.84 1240.16 L1211.97 1251.72 L1237.1 1262.58 L1262.23 1274.27 
  L1287.35 1284.52 L1312.48 1296.06 L1337.61 1306.08 L1362.74 1316.89 L1387.86 1327.16 L1412.99 1336.94 L1438.12 1347.19 L1463.24 1356.36 L1488.37 1366.21 L1513.5 1375.15 
  L1538.63 1384.02 L1563.75 1392.97 L1588.88 1401.38 L1614.01 1409.2 L1639.14 1417.81 L1664.26 1425.03 L1689.39 1433.14 L1714.52 1440.43 L1739.65 1447.36 L1764.77 1454.95 
  L1789.9 1460.83 L1815.03 1468.31 L1840.16 1473.93 L1865.28 1480.43 L1890.41 1486.58 L1915.54 1491.72 L1940.67 1498.39 L1965.79 1502.65 L1990.92 1508.96 L2016.05 1513.47 
  L2041.18 1518.43 L2066.3 1523.62 L2091.43 1527.71 L2116.56 1532.78 L2141.69 1536.95 L2166.81 1541.3 L2191.94 1545.45 L2217.07 1549.12 L2242.2 1553.3 L2267.32 1556.83 
  L2292.45 1560.48 L2292.45 1300.86 L2267.32 1297.03 L2242.2 1293.17 L2217.07 1288.97 L2191.94 1284.88 L2166.81 1280.54 L2141.69 1276.06 L2116.56 1271.61 L2091.43 1266.73 
  L2066.3 1261.93 L2041.18 1256.77 L2016.05 1251.64 L1990.92 1246.33 L1965.79 1240.67 L1940.67 1235.14 L1915.54 1229.04 L1890.41 1223.11 L1865.28 1216.77 L1840.16 1210.3 
  L1815.03 1203.73 L1789.9 1196.73 L1764.77 1189.77 L1739.65 1182.36 L1714.52 1174.84 L1689.39 1167.09 L1664.26 1159.02 L1639.14 1150.91 L1614.01 1142.49 L1588.88 1133.99 
  L1563.75 1125.26 L1538.63 1115.88 L1513.5 1106.17 L1488.37 1095.77 L1463.24 1086.43 L1438.12 1076.58 L1412.99 1065.65 L1387.86 1055.75 L1362.74 1044.02 L1337.61 1033.51 
  L1312.48 1021.71 L1287.35 1010.16 L1262.23 998.767 L1237.1 986.171 L1211.97 974.84 L1186.84 961.822 L1161.72 950.147 L1136.59 937.069 L1111.46 925.099 L1086.33 911.992 
  L1061.21 900.191 L1036.08 886.529 L1010.95 876.429 L985.824 861.364 L960.696 853.756 L935.569 842.471 L910.442 826.182 L885.314 821.432 L860.187 814.877 L835.059 804.248 
  L809.932 796.331 L784.804 790.831 L759.677 786.682 L734.55 784.25 L709.422 783.956 L684.295 786.001 L659.167 790.732 L634.04 798.532 L608.912 809.802 L583.785 825.011 
  L558.658 844.659 L533.53 869.317 L508.403 899.607 L483.275 936.228 L458.148 979.956 L433.02 1031.66 L407.893 1092.3 L382.766 1162.94 L357.638 1244.39 L332.511 1335.72 
  L307.383 1426.79 L282.256 1463.59  Z
  " fill="#009af9" fill-rule="evenodd" fill-opacity="0.3"/>
<polyline clip-path="url(#clip6402)" style="stroke:#009af9; stroke-width:4; stroke-opacity:1; fill:none" points="
  282.256,1678.91 307.383,1633.4 332.511,1535.05 357.638,1437 382.766,1349.68 407.893,1274.02 433.02,1209.09 458.148,1153.73 483.275,1106.86 508.403,1067.5 
  533.53,1034.82 558.658,1008.03 583.785,986.478 608.912,969.545 634.04,956.696 659.167,947.443 684.295,941.356 709.422,938.046 734.55,937.156 759.677,938.424 
  784.804,941.507 809.932,946.076 835.059,952.492 860.187,960.946 885.314,968.069 910.442,974.268 935.569,986.363 960.696,998.566 985.824,1007.37 1010.95,1017.63 
  1036.08,1031.08 1061.21,1041.42 1086.33,1053.49 1111.46,1065.54 1136.59,1077.21 1161.72,1089.49 1186.84,1100.99 1211.97,1113.28 1237.1,1124.38 1262.23,1136.52 
  1287.35,1147.34 1312.48,1158.88 1337.61,1169.8 1362.74,1180.45 1387.86,1191.46 1412.99,1201.29 1438.12,1211.89 1463.24,1221.39 1488.37,1230.99 1513.5,1240.66 
  1538.63,1249.95 1563.75,1259.12 1588.88,1267.68 1614.01,1275.84 1639.14,1284.36 1664.26,1292.03 1689.39,1300.12 1714.52,1307.64 1739.65,1314.86 1764.77,1322.36 
  1789.9,1328.78 1815.03,1336.02 1840.16,1342.11 1865.28,1348.6 1890.41,1354.85 1915.54,1360.38 1940.67,1366.76 1965.79,1371.66 1990.92,1377.65 2016.05,1382.56 
  2041.18,1387.6 2066.3,1392.77 2091.43,1397.22 2116.56,1402.19 2141.69,1406.51 2166.81,1410.92 2191.94,1415.16 2217.07,1419.05 2242.2,1423.23 2267.32,1426.93 
  2292.45,1430.67 
  "/>
<polyline clip-path="url(#clip6402)" style="stroke:#e26f46; stroke-width:4; stroke-opacity:1; fill:none" points="
  282.256,1678.91 407.893,1528.25 533.53,1191.53 784.804,980.452 1036.08,1106.69 1287.35,1248.49 1538.63,1373.3 1789.9,1440.71 2041.18,1462.65 2292.45,1484.51 
  
  "/>
<polyline clip-path="url(#clip6402)" style="stroke:#e26f46; stroke-width:4; stroke-opacity:1; fill:none" points="
  282.256,1894.24 282.256,1463.59 
  "/>
<polyline clip-path="url(#clip6402)" style="stroke:#e26f46; stroke-width:4; stroke-opacity:1; fill:none" points="
  407.893,1842.32 407.893,1214.18 
  "/>
<polyline clip-path="url(#clip6402)" style="stroke:#e26f46; stroke-width:4; stroke-opacity:1; fill:none" points="
  533.53,1604.75 533.53,778.305 
  "/>
<polyline clip-path="url(#clip6402)" style="stroke:#e26f46; stroke-width:4; stroke-opacity:1; fill:none" points="
  784.804,1297.18 784.804,663.726 
  "/>
<polyline clip-path="url(#clip6402)" style="stroke:#e26f46; stroke-width:4; stroke-opacity:1; fill:none" points="
  1036.08,1445.27 1036.08,768.113 
  "/>
<polyline clip-path="url(#clip6402)" style="stroke:#e26f46; stroke-width:4; stroke-opacity:1; fill:none" points="
  1287.35,1537.77 1287.35,959.203 
  "/>
<polyline clip-path="url(#clip6402)" style="stroke:#e26f46; stroke-width:4; stroke-opacity:1; fill:none" points="
  1538.63,1657.27 1538.63,1089.34 
  "/>
<polyline clip-path="url(#clip6402)" style="stroke:#e26f46; stroke-width:4; stroke-opacity:1; fill:none" points="
  1789.9,1718.74 1789.9,1162.68 
  "/>
<polyline clip-path="url(#clip6402)" style="stroke:#e26f46; stroke-width:4; stroke-opacity:1; fill:none" points="
  2041.18,1744.58 2041.18,1180.72 
  "/>
<polyline clip-path="url(#clip6402)" style="stroke:#e26f46; stroke-width:4; stroke-opacity:1; fill:none" points="
  2292.45,1786.5 2292.45,1182.53 
  "/>
<line clip-path="url(#clip6402)" x1="302.256" y1="1894.24" x2="262.256" y2="1894.24" style="stroke:#000000; stroke-width:4; stroke-opacity:1"/>
<line clip-path="url(#clip6402)" x1="302.256" y1="1463.59" x2="262.256" y2="1463.59" style="stroke:#000000; stroke-width:4; stroke-opacity:1"/>
<line clip-path="url(#clip6402)" x1="427.893" y1="1842.32" x2="387.893" y2="1842.32" style="stroke:#000000; stroke-width:4; stroke-opacity:1"/>
<line clip-path="url(#clip6402)" x1="427.893" y1="1214.18" x2="387.893" y2="1214.18" style="stroke:#000000; stroke-width:4; stroke-opacity:1"/>
<line clip-path="url(#clip6402)" x1="553.53" y1="1604.75" x2="513.53" y2="1604.75" style="stroke:#000000; stroke-width:4; stroke-opacity:1"/>
<line clip-path="url(#clip6402)" x1="553.53" y1="778.305" x2="513.53" y2="778.305" style="stroke:#000000; stroke-width:4; stroke-opacity:1"/>
<line clip-path="url(#clip6402)" x1="804.804" y1="1297.18" x2="764.804" y2="1297.18" style="stroke:#000000; stroke-width:4; stroke-opacity:1"/>
<line clip-path="url(#clip6402)" x1="804.804" y1="663.726" x2="764.804" y2="663.726" style="stroke:#000000; stroke-width:4; stroke-opacity:1"/>
<line clip-path="url(#clip6402)" x1="1056.08" y1="1445.27" x2="1016.08" y2="1445.27" style="stroke:#000000; stroke-width:4; stroke-opacity:1"/>
<line clip-path="url(#clip6402)" x1="1056.08" y1="768.113" x2="1016.08" y2="768.113" style="stroke:#000000; stroke-width:4; stroke-opacity:1"/>
<line clip-path="url(#clip6402)" x1="1307.35" y1="1537.77" x2="1267.35" y2="1537.77" style="stroke:#000000; stroke-width:4; stroke-opacity:1"/>
<line clip-path="url(#clip6402)" x1="1307.35" y1="959.203" x2="1267.35" y2="959.203" style="stroke:#000000; stroke-width:4; stroke-opacity:1"/>
<line clip-path="url(#clip6402)" x1="1558.63" y1="1657.27" x2="1518.63" y2="1657.27" style="stroke:#000000; stroke-width:4; stroke-opacity:1"/>
<line clip-path="url(#clip6402)" x1="1558.63" y1="1089.34" x2="1518.63" y2="1089.34" style="stroke:#000000; stroke-width:4; stroke-opacity:1"/>
<line clip-path="url(#clip6402)" x1="1809.9" y1="1718.74" x2="1769.9" y2="1718.74" style="stroke:#000000; stroke-width:4; stroke-opacity:1"/>
<line clip-path="url(#clip6402)" x1="1809.9" y1="1162.68" x2="1769.9" y2="1162.68" style="stroke:#000000; stroke-width:4; stroke-opacity:1"/>
<line clip-path="url(#clip6402)" x1="2061.18" y1="1744.58" x2="2021.18" y2="1744.58" style="stroke:#000000; stroke-width:4; stroke-opacity:1"/>
<line clip-path="url(#clip6402)" x1="2061.18" y1="1180.72" x2="2021.18" y2="1180.72" style="stroke:#000000; stroke-width:4; stroke-opacity:1"/>
<line clip-path="url(#clip6402)" x1="2312.45" y1="1786.5" x2="2272.45" y2="1786.5" style="stroke:#000000; stroke-width:4; stroke-opacity:1"/>
<line clip-path="url(#clip6402)" x1="2312.45" y1="1182.53" x2="2272.45" y2="1182.53" style="stroke:#000000; stroke-width:4; stroke-opacity:1"/>
<path clip-path="url(#clip6400)" d="
M1403.78 620.457 L2208.76 620.457 L2208.76 348.297 L1403.78 348.297  Z
  " fill="#ffffff" fill-rule="evenodd" fill-opacity="1"/>
<polyline clip-path="url(#clip6400)" style="stroke:#000000; stroke-width:4; stroke-opacity:1; fill:none" points="
  1403.78,620.457 2208.76,620.457 2208.76,348.297 1403.78,348.297 1403.78,620.457 
  "/>
<polyline clip-path="url(#clip6400)" style="stroke:#009af9; stroke-width:4; stroke-opacity:1; fill:none" points="
  1451.78,439.017 1739.78,439.017 
  "/>
<g clip-path="url(#clip6400)">
<text style="fill:#000000; fill-opacity:1; font-family:Arial,Helvetica Neue,Helvetica,sans-serif; font-size:71px; text-anchor:start;" transform="rotate(0, 1787.78, 465.017)" x="1787.78" y="465.017">simulation</text>
</g>
<polyline clip-path="url(#clip6400)" style="stroke:#e26f46; stroke-width:4; stroke-opacity:1; fill:none" points="
  1451.78,529.737 1739.78,529.737 
  "/>
<g clip-path="url(#clip6400)">
<text style="fill:#000000; fill-opacity:1; font-family:Arial,Helvetica Neue,Helvetica,sans-serif; font-size:71px; text-anchor:start;" transform="rotate(0, 1787.78, 555.737)" x="1787.78" y="555.737">data</text>
</g>
<path clip-path="url(#clip6400)" d="
M2621.95 2179.89 L4752.76 2179.89 L4752.76 151.017 L2621.95 151.017  Z
  " fill="#ffffff" fill-rule="evenodd" fill-opacity="1"/>
<defs>
  <clipPath id="clip6403">
    <rect x="2621" y="151" width="2132" height="2030"/>
  </clipPath>
</defs>
<polyline clip-path="url(#clip6403)" style="stroke:#000000; stroke-width:2; stroke-opacity:0.1; fill:none" points="
  2682.26,2179.89 2682.26,151.017 
  "/>
<polyline clip-path="url(#clip6403)" style="stroke:#000000; stroke-width:2; stroke-opacity:0.1; fill:none" points="
  3184.8,2179.89 3184.8,151.017 
  "/>
<polyline clip-path="url(#clip6403)" style="stroke:#000000; stroke-width:2; stroke-opacity:0.1; fill:none" points="
  3687.35,2179.89 3687.35,151.017 
  "/>
<polyline clip-path="url(#clip6403)" style="stroke:#000000; stroke-width:2; stroke-opacity:0.1; fill:none" points="
  4189.9,2179.89 4189.9,151.017 
  "/>
<polyline clip-path="url(#clip6403)" style="stroke:#000000; stroke-width:2; stroke-opacity:0.1; fill:none" points="
  4692.45,2179.89 4692.45,151.017 
  "/>
<polyline clip-path="url(#clip6403)" style="stroke:#000000; stroke-width:2; stroke-opacity:0.1; fill:none" points="
  2621.95,2179.89 4752.76,2179.89 
  "/>
<polyline clip-path="url(#clip6403)" style="stroke:#000000; stroke-width:2; stroke-opacity:0.1; fill:none" points="
  2621.95,1729.03 4752.76,1729.03 
  "/>
<polyline clip-path="url(#clip6403)" style="stroke:#000000; stroke-width:2; stroke-opacity:0.1; fill:none" points="
  2621.95,1278.17 4752.76,1278.17 
  "/>
<polyline clip-path="url(#clip6403)" style="stroke:#000000; stroke-width:2; stroke-opacity:0.1; fill:none" points="
  2621.95,827.309 4752.76,827.309 
  "/>
<polyline clip-path="url(#clip6403)" style="stroke:#000000; stroke-width:2; stroke-opacity:0.1; fill:none" points="
  2621.95,376.447 4752.76,376.447 
  "/>
<polyline clip-path="url(#clip6400)" style="stroke:#000000; stroke-width:4; stroke-opacity:1; fill:none" points="
  2621.95,2179.89 4752.76,2179.89 
  "/>
<polyline clip-path="url(#clip6400)" style="stroke:#000000; stroke-width:4; stroke-opacity:1; fill:none" points="
  2621.95,2179.89 2621.95,151.017 
  "/>
<polyline clip-path="url(#clip6400)" style="stroke:#000000; stroke-width:4; stroke-opacity:1; fill:none" points="
  2682.26,2179.89 2682.26,2155.55 
  "/>
<polyline clip-path="url(#clip6400)" style="stroke:#000000; stroke-width:4; stroke-opacity:1; fill:none" points="
  3184.8,2179.89 3184.8,2155.55 
  "/>
<polyline clip-path="url(#clip6400)" style="stroke:#000000; stroke-width:4; stroke-opacity:1; fill:none" points="
  3687.35,2179.89 3687.35,2155.55 
  "/>
<polyline clip-path="url(#clip6400)" style="stroke:#000000; stroke-width:4; stroke-opacity:1; fill:none" points="
  4189.9,2179.89 4189.9,2155.55 
  "/>
<polyline clip-path="url(#clip6400)" style="stroke:#000000; stroke-width:4; stroke-opacity:1; fill:none" points="
  4692.45,2179.89 4692.45,2155.55 
  "/>
<polyline clip-path="url(#clip6400)" style="stroke:#000000; stroke-width:4; stroke-opacity:1; fill:none" points="
  2621.95,2179.89 2647.52,2179.89 
  "/>
<polyline clip-path="url(#clip6400)" style="stroke:#000000; stroke-width:4; stroke-opacity:1; fill:none" points="
  2621.95,1729.03 2647.52,1729.03 
  "/>
<polyline clip-path="url(#clip6400)" style="stroke:#000000; stroke-width:4; stroke-opacity:1; fill:none" points="
  2621.95,1278.17 2647.52,1278.17 
  "/>
<polyline clip-path="url(#clip6400)" style="stroke:#000000; stroke-width:4; stroke-opacity:1; fill:none" points="
  2621.95,827.309 2647.52,827.309 
  "/>
<polyline clip-path="url(#clip6400)" style="stroke:#000000; stroke-width:4; stroke-opacity:1; fill:none" points="
  2621.95,376.447 2647.52,376.447 
  "/>
<g clip-path="url(#clip6400)">
<text style="fill:#000000; fill-opacity:1; font-family:Arial,Helvetica Neue,Helvetica,sans-serif; font-size:71px; text-anchor:middle;" transform="rotate(0, 2682.26, 2266.29)" x="2682.26" y="2266.29">0</text>
</g>
<g clip-path="url(#clip6400)">
<text style="fill:#000000; fill-opacity:1; font-family:Arial,Helvetica Neue,Helvetica,sans-serif; font-size:71px; text-anchor:middle;" transform="rotate(0, 3184.8, 2266.29)" x="3184.8" y="2266.29">2</text>
</g>
<g clip-path="url(#clip6400)">
<text style="fill:#000000; fill-opacity:1; font-family:Arial,Helvetica Neue,Helvetica,sans-serif; font-size:71px; text-anchor:middle;" transform="rotate(0, 3687.35, 2266.29)" x="3687.35" y="2266.29">4</text>
</g>
<g clip-path="url(#clip6400)">
<text style="fill:#000000; fill-opacity:1; font-family:Arial,Helvetica Neue,Helvetica,sans-serif; font-size:71px; text-anchor:middle;" transform="rotate(0, 4189.9, 2266.29)" x="4189.9" y="2266.29">6</text>
</g>
<g clip-path="url(#clip6400)">
<text style="fill:#000000; fill-opacity:1; font-family:Arial,Helvetica Neue,Helvetica,sans-serif; font-size:71px; text-anchor:middle;" transform="rotate(0, 4692.45, 2266.29)" x="4692.45" y="2266.29">8</text>
</g>
<g clip-path="url(#clip6400)">
<text style="fill:#000000; fill-opacity:1; font-family:Arial,Helvetica Neue,Helvetica,sans-serif; font-size:71px; text-anchor:end;" transform="rotate(0, 2573.95, 2205.89)" x="2573.95" y="2205.89">0</text>
</g>
<g clip-path="url(#clip6400)">
<text style="fill:#000000; fill-opacity:1; font-family:Arial,Helvetica Neue,Helvetica,sans-serif; font-size:71px; text-anchor:end;" transform="rotate(0, 2573.95, 1755.03)" x="2573.95" y="1755.03">1</text>
</g>
<g clip-path="url(#clip6400)">
<text style="fill:#000000; fill-opacity:1; font-family:Arial,Helvetica Neue,Helvetica,sans-serif; font-size:71px; text-anchor:end;" transform="rotate(0, 2573.95, 1304.17)" x="2573.95" y="1304.17">2</text>
</g>
<g clip-path="url(#clip6400)">
<text style="fill:#000000; fill-opacity:1; font-family:Arial,Helvetica Neue,Helvetica,sans-serif; font-size:71px; text-anchor:end;" transform="rotate(0, 2573.95, 853.309)" x="2573.95" y="853.309">3</text>
</g>
<g clip-path="url(#clip6400)">
<text style="fill:#000000; fill-opacity:1; font-family:Arial,Helvetica Neue,Helvetica,sans-serif; font-size:71px; text-anchor:end;" transform="rotate(0, 2573.95, 402.447)" x="2573.95" y="402.447">4</text>
</g>
<g clip-path="url(#clip6400)">
<text style="fill:#000000; fill-opacity:1; font-family:Arial,Helvetica Neue,Helvetica,sans-serif; font-size:125px; text-anchor:middle;" transform="rotate(0, 3687.35, 109.2)" x="3687.35" y="109.2">Normal patient 45 mcg (3 patients)</text>
</g>
<g clip-path="url(#clip6400)">
<text style="fill:#000000; fill-opacity:1; font-family:Arial,Helvetica Neue,Helvetica,sans-serif; font-size:95px; text-anchor:middle;" transform="rotate(0, 3687.35, 2390.14)" x="3687.35" y="2390.14">Time (hours)</text>
</g>
<g clip-path="url(#clip6400)">
<text style="fill:#000000; fill-opacity:1; font-family:Arial,Helvetica Neue,Helvetica,sans-serif; font-size:95px; text-anchor:middle;" transform="rotate(-90, 2468.01, 1165.46)" x="2468.01" y="1165.46">T3 mcg/L</text>
</g>
<path clip-path="url(#clip6403)" d="
M2682.26 1909.05 L2707.38 1837.68 L2732.51 1698.91 L2757.64 1559.79 L2782.77 1435.03 L2807.89 1326.28 L2833.02 1232.45 L2858.15 1152.03 L2883.28 1083.51 L2908.4 1025.54 
  L2933.53 976.942 L2958.66 936.654 L2983.78 903.74 L3008.91 877.349 L3034.04 856.743 L3059.17 841.232 L3084.29 830.228 L3109.42 823.191 L3134.55 819.599 L3159.68 819.109 
  L3184.8 821.24 L3209.93 825.477 L3235.06 832.061 L3260.19 840.785 L3285.31 848.791 L3310.44 857.981 L3335.57 872.139 L3360.7 888.658 L3385.82 897.591 L3410.95 915.207 
  L3436.08 927.625 L3461.21 941.66 L3486.33 961.912 L3511.46 972.322 L3536.59 992.848 L3561.72 1004.64 L3586.84 1022.62 L3611.97 1036.92 L3637.1 1052.43 L3662.23 1068.95 
  L3687.35 1082.42 L3712.48 1099.68 L3737.61 1112.77 L3762.74 1127.96 L3787.86 1143.14 L3812.99 1155.43 L3838.12 1171.77 L3863.24 1183.3 L3888.37 1197.25 L3913.5 1211.1 
  L3938.63 1221.79 L3963.75 1236.94 L3988.88 1246.69 L4014.01 1259.59 L4039.14 1271.91 L4064.26 1281.43 L4089.39 1293.58 L4114.52 1302.98 L4139.65 1313.83 L4164.77 1324.33 
  L4189.9 1333.29 L4215.03 1344.16 L4240.16 1352.23 L4265.28 1361.87 L4290.41 1370.53 L4315.54 1378.41 L4340.67 1387.76 L4365.79 1394.59 L4390.92 1403.2 L4416.05 1410.45 
  L4441.18 1417.45 L4466.3 1425.43 L4491.43 1431.24 L4516.56 1438.88 L4541.69 1444.86 L4566.81 1451.13 L4591.94 1457.86 L4617.07 1462.88 L4642.2 1469.6 L4667.32 1474.77 
  L4692.45 1480.17 L4692.45 1356.12 L4667.32 1350.76 L4642.2 1344.16 L4617.07 1339.56 L4591.94 1332.58 L4566.81 1326.95 L4541.69 1320.7 L4516.56 1313.66 L4491.43 1308.13 
  L4466.3 1300.03 L4441.18 1293.85 L4416.05 1286.07 L4390.92 1278.36 L4365.79 1271.53 L4340.67 1262.33 L4315.54 1255.34 L4290.41 1245.87 L4265.28 1237.37 L4240.16 1228.88 
  L4215.03 1218.56 L4189.9 1210.45 L4164.77 1199.18 L4139.65 1189.77 L4114.52 1179.27 L4089.39 1167.79 L4064.26 1158.18 L4039.14 1144.98 L4014.01 1134.66 L3988.88 1121.7 
  L3963.75 1109.16 L3938.63 1097.6 L3913.5 1082.59 L3888.37 1071.23 L3863.24 1055.71 L3838.12 1042.01 L3812.99 1028.35 L3787.86 1011.82 L3762.74 998.662 L3737.61 981.733 
  L3712.48 966.314 L3687.35 950.974 L3662.23 933.49 L3637.1 918.432 L3611.97 900.498 L3586.84 884.481 L3561.72 867.129 L3536.59 850.371 L3511.46 833.83 L3486.33 816.3 
  L3461.21 802.664 L3436.08 779.737 L3410.95 776.915 L3385.82 748.534 L3360.7 724.674 L3335.57 719.623 L3310.44 707.698 L3285.31 693.248 L3260.19 681.438 L3235.06 672.675 
  L3209.93 664.655 L3184.8 658.541 L3159.68 654.97 L3134.55 654.168 L3109.42 656.525 L3084.29 662.572 L3059.17 672.794 L3034.04 687.785 L3008.91 708.196 L2983.78 734.748 
  L2958.66 768.257 L2933.53 809.626 L2908.4 859.87 L2883.28 920.127 L2858.15 991.677 L2833.02 1075.96 L2807.89 1174.58 L2782.77 1289.25 L2757.64 1421.17 L2732.51 1568.57 
  L2707.38 1715.41 L2682.26 1787.07  Z
  " fill="#009af9" fill-rule="evenodd" fill-opacity="0.3"/>
<polyline clip-path="url(#clip6403)" style="stroke:#009af9; stroke-width:4; stroke-opacity:1; fill:none" points="
  2682.26,1848.06 2707.38,1776.55 2732.51,1633.74 2757.64,1490.48 2782.77,1362.14 2807.89,1250.43 2833.02,1154.21 2858.15,1071.85 2883.28,1001.82 2908.4,942.705 
  2933.53,893.284 2958.66,852.456 2983.78,819.244 3008.91,792.773 3034.04,772.264 3059.17,757.013 3084.29,746.4 3109.42,739.858 3134.55,736.883 3159.68,737.039 
  3184.8,739.89 3209.93,745.066 3235.06,752.368 3260.19,761.112 3285.31,771.02 3310.44,782.839 3335.57,795.881 3360.7,806.666 3385.82,823.063 3410.95,846.061 
  3436.08,853.681 3461.21,872.162 3486.33,889.106 3511.46,903.076 3536.59,921.61 3561.72,935.886 3586.84,953.552 3611.97,968.711 3637.1,985.433 3662.23,1001.22 
  3687.35,1016.7 3712.48,1033 3737.61,1047.25 3762.74,1063.31 3787.86,1077.48 3812.99,1091.89 3838.12,1106.89 3863.24,1119.51 3888.37,1134.24 3913.5,1146.84 
  3938.63,1159.7 3963.75,1173.05 3988.88,1184.2 4014.01,1197.13 4039.14,1208.45 4064.26,1219.8 4089.39,1230.68 4114.52,1241.13 4139.65,1251.8 4164.77,1261.75 
  4189.9,1271.87 4215.03,1281.36 4240.16,1290.55 4265.28,1299.62 4290.41,1308.2 4315.54,1316.87 4340.67,1325.04 4365.79,1333.06 4390.92,1340.78 4416.05,1348.26 
  4441.18,1355.65 4466.3,1362.73 4491.43,1369.68 4516.56,1376.27 4541.69,1382.78 4566.81,1389.04 4591.94,1395.22 4617.07,1401.22 4642.2,1406.88 4667.32,1412.76 
  4692.45,1418.15 
  "/>
<polyline clip-path="url(#clip6403)" style="stroke:#e26f46; stroke-width:4; stroke-opacity:1; fill:none" points="
  2682.26,1848.06 2807.89,1740.9 2933.53,1355.72 3184.8,851.806 3436.08,992.174 3687.35,1111.8 3938.63,1171.32 4189.9,1391.04 4441.18,1415.23 4692.45,1495.34 
  
  "/>
<polyline clip-path="url(#clip6403)" style="stroke:#e26f46; stroke-width:4; stroke-opacity:1; fill:none" points="
  2682.26,1909.05 2682.26,1787.07 
  "/>
<polyline clip-path="url(#clip6403)" style="stroke:#e26f46; stroke-width:4; stroke-opacity:1; fill:none" points="
  2807.89,1786.59 2807.89,1695.22 
  "/>
<polyline clip-path="url(#clip6403)" style="stroke:#e26f46; stroke-width:4; stroke-opacity:1; fill:none" points="
  2933.53,1675.72 2933.53,1035.72 
  "/>
<polyline clip-path="url(#clip6403)" style="stroke:#e26f46; stroke-width:4; stroke-opacity:1; fill:none" points="
  3184.8,1325.89 3184.8,377.718 
  "/>
<polyline clip-path="url(#clip6403)" style="stroke:#e26f46; stroke-width:4; stroke-opacity:1; fill:none" points="
  3436.08,1425.75 3436.08,558.601 
  "/>
<polyline clip-path="url(#clip6403)" style="stroke:#e26f46; stroke-width:4; stroke-opacity:1; fill:none" points="
  3687.35,1446.93 3687.35,776.678 
  "/>
<polyline clip-path="url(#clip6403)" style="stroke:#e26f46; stroke-width:4; stroke-opacity:1; fill:none" points="
  3938.63,1405.4 3938.63,937.234 
  "/>
<polyline clip-path="url(#clip6403)" style="stroke:#e26f46; stroke-width:4; stroke-opacity:1; fill:none" points="
  4189.9,1541.01 4189.9,1241.07 
  "/>
<polyline clip-path="url(#clip6403)" style="stroke:#e26f46; stroke-width:4; stroke-opacity:1; fill:none" points="
  4441.18,1586.86 4441.18,1243.6 
  "/>
<polyline clip-path="url(#clip6403)" style="stroke:#e26f46; stroke-width:4; stroke-opacity:1; fill:none" points="
  4692.45,1634.14 4692.45,1356.53 
  "/>
<line clip-path="url(#clip6403)" x1="2702.26" y1="1909.05" x2="2662.26" y2="1909.05" style="stroke:#000000; stroke-width:4; stroke-opacity:1"/>
<line clip-path="url(#clip6403)" x1="2702.26" y1="1787.07" x2="2662.26" y2="1787.07" style="stroke:#000000; stroke-width:4; stroke-opacity:1"/>
<line clip-path="url(#clip6403)" x1="2827.89" y1="1786.59" x2="2787.89" y2="1786.59" style="stroke:#000000; stroke-width:4; stroke-opacity:1"/>
<line clip-path="url(#clip6403)" x1="2827.89" y1="1695.22" x2="2787.89" y2="1695.22" style="stroke:#000000; stroke-width:4; stroke-opacity:1"/>
<line clip-path="url(#clip6403)" x1="2953.53" y1="1675.72" x2="2913.53" y2="1675.72" style="stroke:#000000; stroke-width:4; stroke-opacity:1"/>
<line clip-path="url(#clip6403)" x1="2953.53" y1="1035.72" x2="2913.53" y2="1035.72" style="stroke:#000000; stroke-width:4; stroke-opacity:1"/>
<line clip-path="url(#clip6403)" x1="3204.8" y1="1325.89" x2="3164.8" y2="1325.89" style="stroke:#000000; stroke-width:4; stroke-opacity:1"/>
<line clip-path="url(#clip6403)" x1="3204.8" y1="377.718" x2="3164.8" y2="377.718" style="stroke:#000000; stroke-width:4; stroke-opacity:1"/>
<line clip-path="url(#clip6403)" x1="3456.08" y1="1425.75" x2="3416.08" y2="1425.75" style="stroke:#000000; stroke-width:4; stroke-opacity:1"/>
<line clip-path="url(#clip6403)" x1="3456.08" y1="558.601" x2="3416.08" y2="558.601" style="stroke:#000000; stroke-width:4; stroke-opacity:1"/>
<line clip-path="url(#clip6403)" x1="3707.35" y1="1446.93" x2="3667.35" y2="1446.93" style="stroke:#000000; stroke-width:4; stroke-opacity:1"/>
<line clip-path="url(#clip6403)" x1="3707.35" y1="776.678" x2="3667.35" y2="776.678" style="stroke:#000000; stroke-width:4; stroke-opacity:1"/>
<line clip-path="url(#clip6403)" x1="3958.63" y1="1405.4" x2="3918.63" y2="1405.4" style="stroke:#000000; stroke-width:4; stroke-opacity:1"/>
<line clip-path="url(#clip6403)" x1="3958.63" y1="937.234" x2="3918.63" y2="937.234" style="stroke:#000000; stroke-width:4; stroke-opacity:1"/>
<line clip-path="url(#clip6403)" x1="4209.9" y1="1541.01" x2="4169.9" y2="1541.01" style="stroke:#000000; stroke-width:4; stroke-opacity:1"/>
<line clip-path="url(#clip6403)" x1="4209.9" y1="1241.07" x2="4169.9" y2="1241.07" style="stroke:#000000; stroke-width:4; stroke-opacity:1"/>
<line clip-path="url(#clip6403)" x1="4461.18" y1="1586.86" x2="4421.18" y2="1586.86" style="stroke:#000000; stroke-width:4; stroke-opacity:1"/>
<line clip-path="url(#clip6403)" x1="4461.18" y1="1243.6" x2="4421.18" y2="1243.6" style="stroke:#000000; stroke-width:4; stroke-opacity:1"/>
<line clip-path="url(#clip6403)" x1="4712.45" y1="1634.14" x2="4672.45" y2="1634.14" style="stroke:#000000; stroke-width:4; stroke-opacity:1"/>
<line clip-path="url(#clip6403)" x1="4712.45" y1="1356.53" x2="4672.45" y2="1356.53" style="stroke:#000000; stroke-width:4; stroke-opacity:1"/>
<path clip-path="url(#clip6400)" d="
M3803.78 620.457 L4608.76 620.457 L4608.76 348.297 L3803.78 348.297  Z
  " fill="#ffffff" fill-rule="evenodd" fill-opacity="1"/>
<polyline clip-path="url(#clip6400)" style="stroke:#000000; stroke-width:4; stroke-opacity:1; fill:none" points="
  3803.78,620.457 4608.76,620.457 4608.76,348.297 3803.78,348.297 3803.78,620.457 
  "/>
<polyline clip-path="url(#clip6400)" style="stroke:#009af9; stroke-width:4; stroke-opacity:1; fill:none" points="
  3851.78,439.017 4139.78,439.017 
  "/>
<g clip-path="url(#clip6400)">
<text style="fill:#000000; fill-opacity:1; font-family:Arial,Helvetica Neue,Helvetica,sans-serif; font-size:71px; text-anchor:start;" transform="rotate(0, 4187.78, 465.017)" x="4187.78" y="465.017">simulation</text>
</g>
<polyline clip-path="url(#clip6400)" style="stroke:#e26f46; stroke-width:4; stroke-opacity:1; fill:none" points="
  3851.78,529.737 4139.78,529.737 
  "/>
<g clip-path="url(#clip6400)">
<text style="fill:#000000; fill-opacity:1; font-family:Arial,Helvetica Neue,Helvetica,sans-serif; font-size:71px; text-anchor:start;" transform="rotate(0, 4187.78, 555.737)" x="4187.78" y="555.737">data</text>
</g>
<path clip-path="url(#clip6400)" d="
M221.95 4579.89 L2352.76 4579.89 L2352.76 2551.02 L221.95 2551.02  Z
  " fill="#ffffff" fill-rule="evenodd" fill-opacity="1"/>
<defs>
  <clipPath id="clip6404">
    <rect x="221" y="2551" width="2132" height="2030"/>
  </clipPath>
</defs>
<polyline clip-path="url(#clip6404)" style="stroke:#000000; stroke-width:2; stroke-opacity:0.1; fill:none" points="
  282.256,4579.89 282.256,2551.02 
  "/>
<polyline clip-path="url(#clip6404)" style="stroke:#000000; stroke-width:2; stroke-opacity:0.1; fill:none" points="
  784.804,4579.89 784.804,2551.02 
  "/>
<polyline clip-path="url(#clip6404)" style="stroke:#000000; stroke-width:2; stroke-opacity:0.1; fill:none" points="
  1287.35,4579.89 1287.35,2551.02 
  "/>
<polyline clip-path="url(#clip6404)" style="stroke:#000000; stroke-width:2; stroke-opacity:0.1; fill:none" points="
  1789.9,4579.89 1789.9,2551.02 
  "/>
<polyline clip-path="url(#clip6404)" style="stroke:#000000; stroke-width:2; stroke-opacity:0.1; fill:none" points="
  2292.45,4579.89 2292.45,2551.02 
  "/>
<polyline clip-path="url(#clip6404)" style="stroke:#000000; stroke-width:2; stroke-opacity:0.1; fill:none" points="
  221.95,4579.89 2352.76,4579.89 
  "/>
<polyline clip-path="url(#clip6404)" style="stroke:#000000; stroke-width:2; stroke-opacity:0.1; fill:none" points="
  221.95,4129.03 2352.76,4129.03 
  "/>
<polyline clip-path="url(#clip6404)" style="stroke:#000000; stroke-width:2; stroke-opacity:0.1; fill:none" points="
  221.95,3678.17 2352.76,3678.17 
  "/>
<polyline clip-path="url(#clip6404)" style="stroke:#000000; stroke-width:2; stroke-opacity:0.1; fill:none" points="
  221.95,3227.31 2352.76,3227.31 
  "/>
<polyline clip-path="url(#clip6404)" style="stroke:#000000; stroke-width:2; stroke-opacity:0.1; fill:none" points="
  221.95,2776.45 2352.76,2776.45 
  "/>
<polyline clip-path="url(#clip6400)" style="stroke:#000000; stroke-width:4; stroke-opacity:1; fill:none" points="
  221.95,4579.89 2352.76,4579.89 
  "/>
<polyline clip-path="url(#clip6400)" style="stroke:#000000; stroke-width:4; stroke-opacity:1; fill:none" points="
  221.95,4579.89 221.95,2551.02 
  "/>
<polyline clip-path="url(#clip6400)" style="stroke:#000000; stroke-width:4; stroke-opacity:1; fill:none" points="
  282.256,4579.89 282.256,4555.55 
  "/>
<polyline clip-path="url(#clip6400)" style="stroke:#000000; stroke-width:4; stroke-opacity:1; fill:none" points="
  784.804,4579.89 784.804,4555.55 
  "/>
<polyline clip-path="url(#clip6400)" style="stroke:#000000; stroke-width:4; stroke-opacity:1; fill:none" points="
  1287.35,4579.89 1287.35,4555.55 
  "/>
<polyline clip-path="url(#clip6400)" style="stroke:#000000; stroke-width:4; stroke-opacity:1; fill:none" points="
  1789.9,4579.89 1789.9,4555.55 
  "/>
<polyline clip-path="url(#clip6400)" style="stroke:#000000; stroke-width:4; stroke-opacity:1; fill:none" points="
  2292.45,4579.89 2292.45,4555.55 
  "/>
<polyline clip-path="url(#clip6400)" style="stroke:#000000; stroke-width:4; stroke-opacity:1; fill:none" points="
  221.95,4579.89 247.52,4579.89 
  "/>
<polyline clip-path="url(#clip6400)" style="stroke:#000000; stroke-width:4; stroke-opacity:1; fill:none" points="
  221.95,4129.03 247.52,4129.03 
  "/>
<polyline clip-path="url(#clip6400)" style="stroke:#000000; stroke-width:4; stroke-opacity:1; fill:none" points="
  221.95,3678.17 247.52,3678.17 
  "/>
<polyline clip-path="url(#clip6400)" style="stroke:#000000; stroke-width:4; stroke-opacity:1; fill:none" points="
  221.95,3227.31 247.52,3227.31 
  "/>
<polyline clip-path="url(#clip6400)" style="stroke:#000000; stroke-width:4; stroke-opacity:1; fill:none" points="
  221.95,2776.45 247.52,2776.45 
  "/>
<g clip-path="url(#clip6400)">
<text style="fill:#000000; fill-opacity:1; font-family:Arial,Helvetica Neue,Helvetica,sans-serif; font-size:71px; text-anchor:middle;" transform="rotate(0, 282.256, 4666.29)" x="282.256" y="4666.29">0</text>
</g>
<g clip-path="url(#clip6400)">
<text style="fill:#000000; fill-opacity:1; font-family:Arial,Helvetica Neue,Helvetica,sans-serif; font-size:71px; text-anchor:middle;" transform="rotate(0, 784.804, 4666.29)" x="784.804" y="4666.29">2</text>
</g>
<g clip-path="url(#clip6400)">
<text style="fill:#000000; fill-opacity:1; font-family:Arial,Helvetica Neue,Helvetica,sans-serif; font-size:71px; text-anchor:middle;" transform="rotate(0, 1287.35, 4666.29)" x="1287.35" y="4666.29">4</text>
</g>
<g clip-path="url(#clip6400)">
<text style="fill:#000000; fill-opacity:1; font-family:Arial,Helvetica Neue,Helvetica,sans-serif; font-size:71px; text-anchor:middle;" transform="rotate(0, 1789.9, 4666.29)" x="1789.9" y="4666.29">6</text>
</g>
<g clip-path="url(#clip6400)">
<text style="fill:#000000; fill-opacity:1; font-family:Arial,Helvetica Neue,Helvetica,sans-serif; font-size:71px; text-anchor:middle;" transform="rotate(0, 2292.45, 4666.29)" x="2292.45" y="4666.29">8</text>
</g>
<g clip-path="url(#clip6400)">
<text style="fill:#000000; fill-opacity:1; font-family:Arial,Helvetica Neue,Helvetica,sans-serif; font-size:71px; text-anchor:end;" transform="rotate(0, 173.95, 4605.89)" x="173.95" y="4605.89">0</text>
</g>
<g clip-path="url(#clip6400)">
<text style="fill:#000000; fill-opacity:1; font-family:Arial,Helvetica Neue,Helvetica,sans-serif; font-size:71px; text-anchor:end;" transform="rotate(0, 173.95, 4155.03)" x="173.95" y="4155.03">1</text>
</g>
<g clip-path="url(#clip6400)">
<text style="fill:#000000; fill-opacity:1; font-family:Arial,Helvetica Neue,Helvetica,sans-serif; font-size:71px; text-anchor:end;" transform="rotate(0, 173.95, 3704.17)" x="173.95" y="3704.17">2</text>
</g>
<g clip-path="url(#clip6400)">
<text style="fill:#000000; fill-opacity:1; font-family:Arial,Helvetica Neue,Helvetica,sans-serif; font-size:71px; text-anchor:end;" transform="rotate(0, 173.95, 3253.31)" x="173.95" y="3253.31">3</text>
</g>
<g clip-path="url(#clip6400)">
<text style="fill:#000000; fill-opacity:1; font-family:Arial,Helvetica Neue,Helvetica,sans-serif; font-size:71px; text-anchor:end;" transform="rotate(0, 173.95, 2802.45)" x="173.95" y="2802.45">4</text>
</g>
<g clip-path="url(#clip6400)">
<text style="fill:#000000; fill-opacity:1; font-family:Arial,Helvetica Neue,Helvetica,sans-serif; font-size:125px; text-anchor:middle;" transform="rotate(0, 1287.35, 2509.2)" x="1287.35" y="2509.2">Overweight patient 30 mcg (2 patients)</text>
</g>
<g clip-path="url(#clip6400)">
<text style="fill:#000000; fill-opacity:1; font-family:Arial,Helvetica Neue,Helvetica,sans-serif; font-size:95px; text-anchor:middle;" transform="rotate(0, 1287.35, 4790.14)" x="1287.35" y="4790.14">Time (hours)</text>
</g>
<g clip-path="url(#clip6400)">
<text style="fill:#000000; fill-opacity:1; font-family:Arial,Helvetica Neue,Helvetica,sans-serif; font-size:95px; text-anchor:middle;" transform="rotate(-90, 68.007, 3565.46)" x="68.007" y="3565.46">T3 mcg/L</text>
</g>
<path clip-path="url(#clip6404)" d="
M282.256 4218.21 L307.383 4153.32 L332.511 4043.41 L357.638 3934.96 L382.766 3853.99 L407.893 3797.46 L433.02 3749.21 L458.148 3708.34 L483.275 3674.01 L508.403 3645.48 
  L533.53 3622.09 L558.658 3603.25 L583.785 3588.44 L608.912 3577.17 L634.04 3569.05 L659.167 3563.69 L684.295 3560.74 L709.422 3559.93 L734.55 3560.97 L759.677 3563.61 
  L784.804 3567.73 L809.932 3573.07 L835.059 3579.18 L860.187 3586.39 L885.314 3595.32 L910.442 3603.11 L935.569 3610.79 L960.696 3625.4 L985.824 3636.54 L1010.95 3641.06 
  L1036.08 3646.08 L1061.21 3662.81 L1086.33 3673.14 L1111.46 3680.34 L1136.59 3694.66 L1161.72 3702.23 L1186.84 3715.43 L1211.97 3723.68 L1237.1 3735.86 L1262.23 3744.71 
  L1287.35 3755.56 L1312.48 3765.29 L1337.61 3774.39 L1362.74 3785 L1387.86 3792.67 L1412.99 3803.25 L1438.12 3811.37 L1463.24 3819.94 L1488.37 3829.47 L1513.5 3835.84 
  L1538.63 3845.88 L1563.75 3852.29 L1588.88 3860.6 L1614.01 3868.43 L1639.14 3874.44 L1664.26 3883.18 L1689.39 3888.18 L1714.52 3896.34 L1739.65 3902.16 L1764.77 3908.32 
  L1789.9 3915.33 L1815.03 3919.69 L1840.16 3926.04 L1865.28 3932.22 L1890.41 3937.49 L1915.54 3943.13 L1940.67 3947.71 L1965.79 3952.72 L1990.92 3957.43 L2016.05 3961.87 
  L2041.18 3966.7 L2066.3 3970.68 L2091.43 3975.26 L2116.56 3979.15 L2141.69 3983.13 L2166.81 3987.09 L2191.94 3990.48 L2217.07 3994.44 L2242.2 3997.58 L2267.32 4001.04 
  L2292.45 4004.32 L2292.45 3667.31 L2267.32 3663.98 L2242.2 3661.01 L2217.07 3655.48 L2191.94 3653.97 L2166.81 3648.41 L2141.69 3645.43 L2116.56 3641.73 L2091.43 3636.62 
  L2066.3 3634.62 L2041.18 3628.24 L2016.05 3625.82 L1990.92 3620.36 L1965.79 3615.89 L1940.67 3612.48 L1915.54 3605.93 L1890.41 3603.46 L1865.28 3596.52 L1840.16 3592.67 
  L1815.03 3587.52 L1789.9 3581.04 L1764.77 3577.68 L1739.65 3569.85 L1714.52 3566.02 L1689.39 3558.98 L1664.26 3552.93 L1639.14 3547.88 L1614.01 3539.59 L1588.88 3535.65 
  L1563.75 3526.57 L1538.63 3521.13 L1513.5 3513.8 L1488.37 3505.59 L1463.24 3500.42 L1438.12 3490.38 L1412.99 3484.85 L1387.86 3475.83 L1362.74 3467.63 L1337.61 3460.94 
  L1312.48 3450.84 L1287.35 3444.45 L1262.23 3434.67 L1237.1 3426.61 L1211.97 3418.57 L1186.84 3408.89 L1161.72 3402.5 L1136.59 3391.42 L1111.46 3387.07 L1086.33 3374.18 
  L1061.21 3372.1 L1036.08 3357.92 L1010.95 3356.05 L985.824 3344.91 L960.696 3331.08 L935.569 3338.16 L910.442 3325.44 L885.314 3317.49 L860.187 3319.72 L835.059 3316.91 
  L809.932 3314.77 L784.804 3315.75 L759.677 3318.41 L734.55 3322.54 L709.422 3329.14 L684.295 3338.37 L659.167 3350.51 L634.04 3366.09 L608.912 3385.46 L583.785 3409.17 
  L558.658 3437.76 L533.53 3471.87 L508.403 3512.16 L483.275 3559.45 L458.148 3614.6 L433.02 3678.61 L407.893 3752.6 L382.766 3837.73 L357.638 3919.41 L332.511 3992.72 
  L307.383 4064.94 L282.256 4092.6  Z
  " fill="#009af9" fill-rule="evenodd" fill-opacity="0.3"/>
<polyline clip-path="url(#clip6404)" style="stroke:#009af9; stroke-width:4; stroke-opacity:1; fill:none" points="
  282.256,4155.41 307.383,4109.13 332.511,4018.07 357.638,3927.19 382.766,3845.86 407.893,3775.03 433.02,3713.91 458.148,3661.47 483.275,3616.73 508.403,3578.82 
  533.53,3546.98 558.658,3520.51 583.785,3498.81 608.912,3481.32 634.04,3467.57 659.167,3457.1 684.295,3449.55 709.422,3444.53 734.55,3441.76 759.677,3441.01 
  784.804,3441.74 809.932,3443.92 835.059,3448.04 860.187,3453.05 885.314,3456.4 910.442,3464.27 935.569,3474.48 960.696,3478.24 985.824,3490.73 1010.95,3498.56 
  1036.08,3502 1061.21,3517.46 1086.33,3523.66 1111.46,3533.7 1136.59,3543.04 1161.72,3552.37 1186.84,3562.16 1211.97,3571.13 1237.1,3581.24 1262.23,3589.69 
  1287.35,3600 1312.48,3608.06 1337.61,3617.66 1362.74,3626.32 1387.86,3634.25 1412.99,3644.05 1438.12,3650.87 1463.24,3660.18 1488.37,3667.53 1513.5,3674.82 
  1538.63,3683.5 1563.75,3689.43 1588.88,3698.12 1614.01,3704.01 1639.14,3711.16 1664.26,3718.05 1689.39,3723.58 1714.52,3731.18 1739.65,3736.01 1764.77,3743 
  1789.9,3748.19 1815.03,3753.61 1840.16,3759.35 1865.28,3764.37 1890.41,3770.48 1915.54,3774.53 1940.67,3780.1 1965.79,3784.3 1990.92,3788.9 2016.05,3793.84 
  2041.18,3797.47 2066.3,3802.65 2091.43,3805.94 2116.56,3810.44 2141.69,3814.28 2166.81,3817.75 2191.94,3822.23 2217.07,3824.96 2242.2,3829.3 2267.32,3832.51 
  2292.45,3835.82 
  "/>
<polyline clip-path="url(#clip6404)" style="stroke:#e26f46; stroke-width:4; stroke-opacity:1; fill:none" points="
  282.256,4155.41 407.893,4075.15 533.53,3954.1 784.804,3779.61 1036.08,3834.39 1287.35,3888.5 1538.63,3933.13 1789.9,4030.97 2041.18,4095.44 2292.45,4056.67 
  
  "/>
<polyline clip-path="url(#clip6404)" style="stroke:#e26f46; stroke-width:4; stroke-opacity:1; fill:none" points="
  282.256,4370.73 282.256,3940.08 
  "/>
<polyline clip-path="url(#clip6404)" style="stroke:#e26f46; stroke-width:4; stroke-opacity:1; fill:none" points="
  407.893,4389.23 407.893,3761.08 
  "/>
<polyline clip-path="url(#clip6404)" style="stroke:#e26f46; stroke-width:4; stroke-opacity:1; fill:none" points="
  533.53,4367.32 533.53,3540.87 
  "/>
<polyline clip-path="url(#clip6404)" style="stroke:#e26f46; stroke-width:4; stroke-opacity:1; fill:none" points="
  784.804,4096.34 784.804,3462.89 
  "/>
<polyline clip-path="url(#clip6404)" style="stroke:#e26f46; stroke-width:4; stroke-opacity:1; fill:none" points="
  1036.08,4172.97 1036.08,3495.81 
  "/>
<polyline clip-path="url(#clip6404)" style="stroke:#e26f46; stroke-width:4; stroke-opacity:1; fill:none" points="
  1287.35,4177.78 1287.35,3599.21 
  "/>
<polyline clip-path="url(#clip6404)" style="stroke:#e26f46; stroke-width:4; stroke-opacity:1; fill:none" points="
  1538.63,4217.1 1538.63,3649.17 
  "/>
<polyline clip-path="url(#clip6404)" style="stroke:#e26f46; stroke-width:4; stroke-opacity:1; fill:none" points="
  1789.9,4309 1789.9,3752.94 
  "/>
<polyline clip-path="url(#clip6404)" style="stroke:#e26f46; stroke-width:4; stroke-opacity:1; fill:none" points="
  2041.18,4377.37 2041.18,3813.52 
  "/>
<polyline clip-path="url(#clip6404)" style="stroke:#e26f46; stroke-width:4; stroke-opacity:1; fill:none" points="
  2292.45,4358.65 2292.45,3754.68 
  "/>
<line clip-path="url(#clip6404)" x1="302.256" y1="4370.73" x2="262.256" y2="4370.73" style="stroke:#000000; stroke-width:4; stroke-opacity:1"/>
<line clip-path="url(#clip6404)" x1="302.256" y1="3940.08" x2="262.256" y2="3940.08" style="stroke:#000000; stroke-width:4; stroke-opacity:1"/>
<line clip-path="url(#clip6404)" x1="427.893" y1="4389.23" x2="387.893" y2="4389.23" style="stroke:#000000; stroke-width:4; stroke-opacity:1"/>
<line clip-path="url(#clip6404)" x1="427.893" y1="3761.08" x2="387.893" y2="3761.08" style="stroke:#000000; stroke-width:4; stroke-opacity:1"/>
<line clip-path="url(#clip6404)" x1="553.53" y1="4367.32" x2="513.53" y2="4367.32" style="stroke:#000000; stroke-width:4; stroke-opacity:1"/>
<line clip-path="url(#clip6404)" x1="553.53" y1="3540.87" x2="513.53" y2="3540.87" style="stroke:#000000; stroke-width:4; stroke-opacity:1"/>
<line clip-path="url(#clip6404)" x1="804.804" y1="4096.34" x2="764.804" y2="4096.34" style="stroke:#000000; stroke-width:4; stroke-opacity:1"/>
<line clip-path="url(#clip6404)" x1="804.804" y1="3462.89" x2="764.804" y2="3462.89" style="stroke:#000000; stroke-width:4; stroke-opacity:1"/>
<line clip-path="url(#clip6404)" x1="1056.08" y1="4172.97" x2="1016.08" y2="4172.97" style="stroke:#000000; stroke-width:4; stroke-opacity:1"/>
<line clip-path="url(#clip6404)" x1="1056.08" y1="3495.81" x2="1016.08" y2="3495.81" style="stroke:#000000; stroke-width:4; stroke-opacity:1"/>
<line clip-path="url(#clip6404)" x1="1307.35" y1="4177.78" x2="1267.35" y2="4177.78" style="stroke:#000000; stroke-width:4; stroke-opacity:1"/>
<line clip-path="url(#clip6404)" x1="1307.35" y1="3599.21" x2="1267.35" y2="3599.21" style="stroke:#000000; stroke-width:4; stroke-opacity:1"/>
<line clip-path="url(#clip6404)" x1="1558.63" y1="4217.1" x2="1518.63" y2="4217.1" style="stroke:#000000; stroke-width:4; stroke-opacity:1"/>
<line clip-path="url(#clip6404)" x1="1558.63" y1="3649.17" x2="1518.63" y2="3649.17" style="stroke:#000000; stroke-width:4; stroke-opacity:1"/>
<line clip-path="url(#clip6404)" x1="1809.9" y1="4309" x2="1769.9" y2="4309" style="stroke:#000000; stroke-width:4; stroke-opacity:1"/>
<line clip-path="url(#clip6404)" x1="1809.9" y1="3752.94" x2="1769.9" y2="3752.94" style="stroke:#000000; stroke-width:4; stroke-opacity:1"/>
<line clip-path="url(#clip6404)" x1="2061.18" y1="4377.37" x2="2021.18" y2="4377.37" style="stroke:#000000; stroke-width:4; stroke-opacity:1"/>
<line clip-path="url(#clip6404)" x1="2061.18" y1="3813.52" x2="2021.18" y2="3813.52" style="stroke:#000000; stroke-width:4; stroke-opacity:1"/>
<line clip-path="url(#clip6404)" x1="2312.45" y1="4358.65" x2="2272.45" y2="4358.65" style="stroke:#000000; stroke-width:4; stroke-opacity:1"/>
<line clip-path="url(#clip6404)" x1="2312.45" y1="3754.68" x2="2272.45" y2="3754.68" style="stroke:#000000; stroke-width:4; stroke-opacity:1"/>
<path clip-path="url(#clip6400)" d="
M1403.78 3020.46 L2208.76 3020.46 L2208.76 2748.3 L1403.78 2748.3  Z
  " fill="#ffffff" fill-rule="evenodd" fill-opacity="1"/>
<polyline clip-path="url(#clip6400)" style="stroke:#000000; stroke-width:4; stroke-opacity:1; fill:none" points="
  1403.78,3020.46 2208.76,3020.46 2208.76,2748.3 1403.78,2748.3 1403.78,3020.46 
  "/>
<polyline clip-path="url(#clip6400)" style="stroke:#009af9; stroke-width:4; stroke-opacity:1; fill:none" points="
  1451.78,2839.02 1739.78,2839.02 
  "/>
<g clip-path="url(#clip6400)">
<text style="fill:#000000; fill-opacity:1; font-family:Arial,Helvetica Neue,Helvetica,sans-serif; font-size:71px; text-anchor:start;" transform="rotate(0, 1787.78, 2865.02)" x="1787.78" y="2865.02">simulation</text>
</g>
<polyline clip-path="url(#clip6400)" style="stroke:#e26f46; stroke-width:4; stroke-opacity:1; fill:none" points="
  1451.78,2929.74 1739.78,2929.74 
  "/>
<g clip-path="url(#clip6400)">
<text style="fill:#000000; fill-opacity:1; font-family:Arial,Helvetica Neue,Helvetica,sans-serif; font-size:71px; text-anchor:start;" transform="rotate(0, 1787.78, 2955.74)" x="1787.78" y="2955.74">data</text>
</g>
<path clip-path="url(#clip6400)" d="
M2621.95 4579.89 L4752.76 4579.89 L4752.76 2551.02 L2621.95 2551.02  Z
  " fill="#ffffff" fill-rule="evenodd" fill-opacity="1"/>
<defs>
  <clipPath id="clip6405">
    <rect x="2621" y="2551" width="2132" height="2030"/>
  </clipPath>
</defs>
<polyline clip-path="url(#clip6405)" style="stroke:#000000; stroke-width:2; stroke-opacity:0.1; fill:none" points="
  2682.26,4579.89 2682.26,2551.02 
  "/>
<polyline clip-path="url(#clip6405)" style="stroke:#000000; stroke-width:2; stroke-opacity:0.1; fill:none" points="
  3184.8,4579.89 3184.8,2551.02 
  "/>
<polyline clip-path="url(#clip6405)" style="stroke:#000000; stroke-width:2; stroke-opacity:0.1; fill:none" points="
  3687.35,4579.89 3687.35,2551.02 
  "/>
<polyline clip-path="url(#clip6405)" style="stroke:#000000; stroke-width:2; stroke-opacity:0.1; fill:none" points="
  4189.9,4579.89 4189.9,2551.02 
  "/>
<polyline clip-path="url(#clip6405)" style="stroke:#000000; stroke-width:2; stroke-opacity:0.1; fill:none" points="
  4692.45,4579.89 4692.45,2551.02 
  "/>
<polyline clip-path="url(#clip6405)" style="stroke:#000000; stroke-width:2; stroke-opacity:0.1; fill:none" points="
  2621.95,4579.89 4752.76,4579.89 
  "/>
<polyline clip-path="url(#clip6405)" style="stroke:#000000; stroke-width:2; stroke-opacity:0.1; fill:none" points="
  2621.95,4129.03 4752.76,4129.03 
  "/>
<polyline clip-path="url(#clip6405)" style="stroke:#000000; stroke-width:2; stroke-opacity:0.1; fill:none" points="
  2621.95,3678.17 4752.76,3678.17 
  "/>
<polyline clip-path="url(#clip6405)" style="stroke:#000000; stroke-width:2; stroke-opacity:0.1; fill:none" points="
  2621.95,3227.31 4752.76,3227.31 
  "/>
<polyline clip-path="url(#clip6405)" style="stroke:#000000; stroke-width:2; stroke-opacity:0.1; fill:none" points="
  2621.95,2776.45 4752.76,2776.45 
  "/>
<polyline clip-path="url(#clip6400)" style="stroke:#000000; stroke-width:4; stroke-opacity:1; fill:none" points="
  2621.95,4579.89 4752.76,4579.89 
  "/>
<polyline clip-path="url(#clip6400)" style="stroke:#000000; stroke-width:4; stroke-opacity:1; fill:none" points="
  2621.95,4579.89 2621.95,2551.02 
  "/>
<polyline clip-path="url(#clip6400)" style="stroke:#000000; stroke-width:4; stroke-opacity:1; fill:none" points="
  2682.26,4579.89 2682.26,4555.55 
  "/>
<polyline clip-path="url(#clip6400)" style="stroke:#000000; stroke-width:4; stroke-opacity:1; fill:none" points="
  3184.8,4579.89 3184.8,4555.55 
  "/>
<polyline clip-path="url(#clip6400)" style="stroke:#000000; stroke-width:4; stroke-opacity:1; fill:none" points="
  3687.35,4579.89 3687.35,4555.55 
  "/>
<polyline clip-path="url(#clip6400)" style="stroke:#000000; stroke-width:4; stroke-opacity:1; fill:none" points="
  4189.9,4579.89 4189.9,4555.55 
  "/>
<polyline clip-path="url(#clip6400)" style="stroke:#000000; stroke-width:4; stroke-opacity:1; fill:none" points="
  4692.45,4579.89 4692.45,4555.55 
  "/>
<polyline clip-path="url(#clip6400)" style="stroke:#000000; stroke-width:4; stroke-opacity:1; fill:none" points="
  2621.95,4579.89 2647.52,4579.89 
  "/>
<polyline clip-path="url(#clip6400)" style="stroke:#000000; stroke-width:4; stroke-opacity:1; fill:none" points="
  2621.95,4129.03 2647.52,4129.03 
  "/>
<polyline clip-path="url(#clip6400)" style="stroke:#000000; stroke-width:4; stroke-opacity:1; fill:none" points="
  2621.95,3678.17 2647.52,3678.17 
  "/>
<polyline clip-path="url(#clip6400)" style="stroke:#000000; stroke-width:4; stroke-opacity:1; fill:none" points="
  2621.95,3227.31 2647.52,3227.31 
  "/>
<polyline clip-path="url(#clip6400)" style="stroke:#000000; stroke-width:4; stroke-opacity:1; fill:none" points="
  2621.95,2776.45 2647.52,2776.45 
  "/>
<g clip-path="url(#clip6400)">
<text style="fill:#000000; fill-opacity:1; font-family:Arial,Helvetica Neue,Helvetica,sans-serif; font-size:71px; text-anchor:middle;" transform="rotate(0, 2682.26, 4666.29)" x="2682.26" y="4666.29">0</text>
</g>
<g clip-path="url(#clip6400)">
<text style="fill:#000000; fill-opacity:1; font-family:Arial,Helvetica Neue,Helvetica,sans-serif; font-size:71px; text-anchor:middle;" transform="rotate(0, 3184.8, 4666.29)" x="3184.8" y="4666.29">2</text>
</g>
<g clip-path="url(#clip6400)">
<text style="fill:#000000; fill-opacity:1; font-family:Arial,Helvetica Neue,Helvetica,sans-serif; font-size:71px; text-anchor:middle;" transform="rotate(0, 3687.35, 4666.29)" x="3687.35" y="4666.29">4</text>
</g>
<g clip-path="url(#clip6400)">
<text style="fill:#000000; fill-opacity:1; font-family:Arial,Helvetica Neue,Helvetica,sans-serif; font-size:71px; text-anchor:middle;" transform="rotate(0, 4189.9, 4666.29)" x="4189.9" y="4666.29">6</text>
</g>
<g clip-path="url(#clip6400)">
<text style="fill:#000000; fill-opacity:1; font-family:Arial,Helvetica Neue,Helvetica,sans-serif; font-size:71px; text-anchor:middle;" transform="rotate(0, 4692.45, 4666.29)" x="4692.45" y="4666.29">8</text>
</g>
<g clip-path="url(#clip6400)">
<text style="fill:#000000; fill-opacity:1; font-family:Arial,Helvetica Neue,Helvetica,sans-serif; font-size:71px; text-anchor:end;" transform="rotate(0, 2573.95, 4605.89)" x="2573.95" y="4605.89">0</text>
</g>
<g clip-path="url(#clip6400)">
<text style="fill:#000000; fill-opacity:1; font-family:Arial,Helvetica Neue,Helvetica,sans-serif; font-size:71px; text-anchor:end;" transform="rotate(0, 2573.95, 4155.03)" x="2573.95" y="4155.03">1</text>
</g>
<g clip-path="url(#clip6400)">
<text style="fill:#000000; fill-opacity:1; font-family:Arial,Helvetica Neue,Helvetica,sans-serif; font-size:71px; text-anchor:end;" transform="rotate(0, 2573.95, 3704.17)" x="2573.95" y="3704.17">2</text>
</g>
<g clip-path="url(#clip6400)">
<text style="fill:#000000; fill-opacity:1; font-family:Arial,Helvetica Neue,Helvetica,sans-serif; font-size:71px; text-anchor:end;" transform="rotate(0, 2573.95, 3253.31)" x="2573.95" y="3253.31">3</text>
</g>
<g clip-path="url(#clip6400)">
<text style="fill:#000000; fill-opacity:1; font-family:Arial,Helvetica Neue,Helvetica,sans-serif; font-size:71px; text-anchor:end;" transform="rotate(0, 2573.95, 2802.45)" x="2573.95" y="2802.45">4</text>
</g>
<g clip-path="url(#clip6400)">
<text style="fill:#000000; fill-opacity:1; font-family:Arial,Helvetica Neue,Helvetica,sans-serif; font-size:125px; text-anchor:middle;" transform="rotate(0, 3687.35, 2509.2)" x="3687.35" y="2509.2">Overweight patient 45 mcg (4 patients)</text>
</g>
<g clip-path="url(#clip6400)">
<text style="fill:#000000; fill-opacity:1; font-family:Arial,Helvetica Neue,Helvetica,sans-serif; font-size:95px; text-anchor:middle;" transform="rotate(0, 3687.35, 4790.14)" x="3687.35" y="4790.14">Time (hours)</text>
</g>
<g clip-path="url(#clip6400)">
<text style="fill:#000000; fill-opacity:1; font-family:Arial,Helvetica Neue,Helvetica,sans-serif; font-size:95px; text-anchor:middle;" transform="rotate(-90, 2468.01, 3565.46)" x="2468.01" y="3565.46">T3 mcg/L</text>
</g>
<path clip-path="url(#clip6405)" d="
M2682.26 4228.91 L2707.38 4155.04 L2732.51 4006.94 L2757.64 3857.8 L2782.77 3723.89 L2807.89 3607.18 L2833.02 3506.56 L2858.15 3420.39 L2883.28 3347.04 L2908.4 3285.07 
  L2933.53 3233.2 L2958.66 3190.28 L2983.78 3155.31 L3008.91 3127.38 L3034.04 3105.67 L3059.17 3089.46 L3084.29 3078.09 L3109.42 3071 L3134.55 3067.64 L3159.68 3067.56 
  L3184.8 3070.35 L3209.93 3075.54 L3235.06 3082.83 L3260.19 3092.45 L3285.31 3102.86 L3310.44 3114.27 L3335.57 3125.96 L3360.7 3144.81 L3385.82 3160.55 L3410.95 3172.32 
  L3436.08 3189.33 L3461.21 3207.91 L3486.33 3224.08 L3511.46 3242.25 L3536.59 3258.61 L3561.72 3275.49 L3586.84 3293.74 L3611.97 3309.84 L3637.1 3327.63 L3662.23 3344.53 
  L3687.35 3360.97 L3712.48 3378.33 L3737.61 3394.02 L3762.74 3410.3 L3787.86 3426.59 L3812.99 3441.26 L3838.12 3457.74 L3863.24 3471.67 L3888.37 3486.62 L3913.5 3501.31 
  L3938.63 3514.34 L3963.75 3529.46 L3988.88 3541.42 L4014.01 3555.35 L4039.14 3568.3 L4064.26 3579.74 L4089.39 3592.2 L4114.52 3603.36 L4139.65 3615.17 L4164.77 3626.36 
  L4189.9 3636.9 L4215.03 3648.02 L4240.16 3657.61 L4265.28 3668.09 L4290.41 3677.42 L4315.54 3686.72 L4340.67 3696.24 L4365.79 3704.43 L4390.92 3713.79 L4416.05 3721.6 
  L4441.18 3729.95 L4466.3 3737.98 L4491.43 3745.04 L4516.56 3753.3 L4541.69 3759.78 L4566.81 3767.34 L4591.94 3773.99 L4617.07 3780.22 L4642.2 3787.4 L4667.32 3792.88 
  L4692.45 3799.32 L4692.45 3675.27 L4667.32 3668.87 L4642.2 3661.96 L4617.07 3656.91 L4591.94 3648.71 L4566.81 3643.16 L4541.69 3635.62 L4516.56 3628.08 L4491.43 3621.93 
  L4466.3 3612.58 L4441.18 3606.35 L4416.05 3597.23 L4390.92 3588.95 L4365.79 3581.37 L4340.67 3570.82 L4315.54 3563.66 L4290.41 3552.76 L4265.28 3543.59 L4240.16 3534.26 
  L4215.03 3522.41 L4189.9 3514.07 L4164.77 3501.21 L4139.65 3491.11 L4114.52 3479.65 L4089.39 3466.41 L4064.26 3456.49 L4039.14 3441.38 L4014.01 3430.42 L3988.88 3416.43 
  L3963.75 3401.69 L3938.63 3390.15 L3913.5 3372.8 L3888.37 3360.6 L3863.24 3344.07 L3838.12 3327.97 L3812.99 3314.18 L3787.86 3295.26 L3762.74 3280.99 L3737.61 3262.99 
  L3712.48 3244.96 L3687.35 3229.52 L3662.23 3209.06 L3637.1 3193.63 L3611.97 3173.41 L3586.84 3155.6 L3561.72 3137.97 L3536.59 3116.13 L3511.46 3103.76 L3486.33 3078.47 
  L3461.21 3068.91 L3436.08 3041.45 L3410.95 3034.03 L3385.82 3011.49 L3360.7 2980.83 L3335.57 2973.44 L3310.44 2963.99 L3285.31 2947.32 L3260.19 2933.1 L3235.06 2923.44 
  L3209.93 2914.72 L3184.8 2907.65 L3159.68 2903.42 L3134.55 2902.21 L3109.42 2904.34 L3084.29 2910.44 L3059.17 2921.02 L3034.04 2936.71 L3008.91 2958.23 L2983.78 2986.32 
  L2958.66 3021.89 L2933.53 3065.88 L2908.4 3119.4 L2883.28 3183.66 L2858.15 3260.03 L2833.02 3350.08 L2807.89 3455.48 L2782.77 3578.12 L2757.64 3719.18 L2732.51 3876.61 
  L2707.38 4032.77 L2682.26 4106.93  Z
  " fill="#009af9" fill-rule="evenodd" fill-opacity="0.3"/>
<polyline clip-path="url(#clip6405)" style="stroke:#009af9; stroke-width:4; stroke-opacity:1; fill:none" points="
  2682.26,4167.92 2707.38,4093.9 2732.51,3941.78 2757.64,3788.49 2782.77,3651 2807.89,3531.33 2833.02,3428.32 2858.15,3340.21 2883.28,3265.35 2908.4,3202.23 
  2933.53,3149.54 2958.66,3106.08 2983.78,3070.82 3008.91,3042.8 3034.04,3021.19 3059.17,3005.24 3084.29,2994.27 3109.42,2987.67 3134.55,2984.93 3159.68,2985.49 
  3184.8,2989 3209.93,2995.13 3235.06,3003.14 3260.19,3012.77 3285.31,3025.09 3310.44,3039.13 3335.57,3049.7 3360.7,3062.82 3385.82,3086.02 3410.95,3103.17 
  3436.08,3115.39 3461.21,3138.41 3486.33,3151.28 3511.46,3173 3536.59,3187.37 3561.72,3206.73 3586.84,3224.67 3611.97,3241.63 3637.1,3260.63 3662.23,3276.79 
  3687.35,3295.25 3712.48,3311.65 3737.61,3328.5 3762.74,3345.65 3787.86,3360.92 3812.99,3377.72 3838.12,3392.85 3863.24,3407.87 3888.37,3423.61 3913.5,3437.06 
  3938.63,3452.25 3963.75,3465.58 3988.88,3478.92 4014.01,3492.89 4039.14,3504.84 4064.26,3518.11 4089.39,3529.31 4114.52,3541.5 4139.65,3553.14 4164.77,3563.79 
  4189.9,3575.48 4215.03,3585.21 4240.16,3595.93 4265.28,3605.84 4290.41,3615.09 4315.54,3625.19 4340.67,3633.53 4365.79,3642.9 4390.92,3651.37 4416.05,3659.41 
  4441.18,3668.15 4466.3,3675.28 4491.43,3683.49 4516.56,3690.69 4541.69,3697.7 4566.81,3705.25 4591.94,3711.35 4617.07,3718.56 4642.2,3724.68 4667.32,3730.87 
  4692.45,3737.29 
  "/>
<polyline clip-path="url(#clip6405)" style="stroke:#e26f46; stroke-width:4; stroke-opacity:1; fill:none" points="
  2682.26,4167.92 2807.89,4024.88 2933.53,3307.68 3184.8,2860.31 3436.08,3105.91 3687.35,3263.72 3938.63,3510.56 4189.9,3641.43 4441.18,3759.1 4692.45,3855.36 
  
  "/>
<polyline clip-path="url(#clip6405)" style="stroke:#e26f46; stroke-width:4; stroke-opacity:1; fill:none" points="
  2682.26,4228.91 2682.26,4106.93 
  "/>
<polyline clip-path="url(#clip6405)" style="stroke:#e26f46; stroke-width:4; stroke-opacity:1; fill:none" points="
  2807.89,4070.57 2807.89,3979.2 
  "/>
<polyline clip-path="url(#clip6405)" style="stroke:#e26f46; stroke-width:4; stroke-opacity:1; fill:none" points="
  2933.53,3627.68 2933.53,2987.68 
  "/>
<polyline clip-path="url(#clip6405)" style="stroke:#e26f46; stroke-width:4; stroke-opacity:1; fill:none" points="
  3184.8,3334.4 3184.8,2386.22 
  "/>
<polyline clip-path="url(#clip6405)" style="stroke:#e26f46; stroke-width:4; stroke-opacity:1; fill:none" points="
  3436.08,3539.49 3436.08,2672.34 
  "/>
<polyline clip-path="url(#clip6405)" style="stroke:#e26f46; stroke-width:4; stroke-opacity:1; fill:none" points="
  3687.35,3598.84 3687.35,2928.59 
  "/>
<polyline clip-path="url(#clip6405)" style="stroke:#e26f46; stroke-width:4; stroke-opacity:1; fill:none" points="
  3938.63,3744.65 3938.63,3276.48 
  "/>
<polyline clip-path="url(#clip6405)" style="stroke:#e26f46; stroke-width:4; stroke-opacity:1; fill:none" points="
  4189.9,3791.4 4189.9,3491.46 
  "/>
<polyline clip-path="url(#clip6405)" style="stroke:#e26f46; stroke-width:4; stroke-opacity:1; fill:none" points="
  4441.18,3930.73 4441.18,3587.47 
  "/>
<polyline clip-path="url(#clip6405)" style="stroke:#e26f46; stroke-width:4; stroke-opacity:1; fill:none" points="
  4692.45,3994.16 4692.45,3716.56 
  "/>
<line clip-path="url(#clip6405)" x1="2702.26" y1="4228.91" x2="2662.26" y2="4228.91" style="stroke:#000000; stroke-width:4; stroke-opacity:1"/>
<line clip-path="url(#clip6405)" x1="2702.26" y1="4106.93" x2="2662.26" y2="4106.93" style="stroke:#000000; stroke-width:4; stroke-opacity:1"/>
<line clip-path="url(#clip6405)" x1="2827.89" y1="4070.57" x2="2787.89" y2="4070.57" style="stroke:#000000; stroke-width:4; stroke-opacity:1"/>
<line clip-path="url(#clip6405)" x1="2827.89" y1="3979.2" x2="2787.89" y2="3979.2" style="stroke:#000000; stroke-width:4; stroke-opacity:1"/>
<line clip-path="url(#clip6405)" x1="2953.53" y1="3627.68" x2="2913.53" y2="3627.68" style="stroke:#000000; stroke-width:4; stroke-opacity:1"/>
<line clip-path="url(#clip6405)" x1="2953.53" y1="2987.68" x2="2913.53" y2="2987.68" style="stroke:#000000; stroke-width:4; stroke-opacity:1"/>
<line clip-path="url(#clip6405)" x1="3204.8" y1="3334.4" x2="3164.8" y2="3334.4" style="stroke:#000000; stroke-width:4; stroke-opacity:1"/>
<line clip-path="url(#clip6405)" x1="3456.08" y1="3539.49" x2="3416.08" y2="3539.49" style="stroke:#000000; stroke-width:4; stroke-opacity:1"/>
<line clip-path="url(#clip6405)" x1="3456.08" y1="2672.34" x2="3416.08" y2="2672.34" style="stroke:#000000; stroke-width:4; stroke-opacity:1"/>
<line clip-path="url(#clip6405)" x1="3707.35" y1="3598.84" x2="3667.35" y2="3598.84" style="stroke:#000000; stroke-width:4; stroke-opacity:1"/>
<line clip-path="url(#clip6405)" x1="3707.35" y1="2928.59" x2="3667.35" y2="2928.59" style="stroke:#000000; stroke-width:4; stroke-opacity:1"/>
<line clip-path="url(#clip6405)" x1="3958.63" y1="3744.65" x2="3918.63" y2="3744.65" style="stroke:#000000; stroke-width:4; stroke-opacity:1"/>
<line clip-path="url(#clip6405)" x1="3958.63" y1="3276.48" x2="3918.63" y2="3276.48" style="stroke:#000000; stroke-width:4; stroke-opacity:1"/>
<line clip-path="url(#clip6405)" x1="4209.9" y1="3791.4" x2="4169.9" y2="3791.4" style="stroke:#000000; stroke-width:4; stroke-opacity:1"/>
<line clip-path="url(#clip6405)" x1="4209.9" y1="3491.46" x2="4169.9" y2="3491.46" style="stroke:#000000; stroke-width:4; stroke-opacity:1"/>
<line clip-path="url(#clip6405)" x1="4461.18" y1="3930.73" x2="4421.18" y2="3930.73" style="stroke:#000000; stroke-width:4; stroke-opacity:1"/>
<line clip-path="url(#clip6405)" x1="4461.18" y1="3587.47" x2="4421.18" y2="3587.47" style="stroke:#000000; stroke-width:4; stroke-opacity:1"/>
<line clip-path="url(#clip6405)" x1="4712.45" y1="3994.16" x2="4672.45" y2="3994.16" style="stroke:#000000; stroke-width:4; stroke-opacity:1"/>
<line clip-path="url(#clip6405)" x1="4712.45" y1="3716.56" x2="4672.45" y2="3716.56" style="stroke:#000000; stroke-width:4; stroke-opacity:1"/>
<path clip-path="url(#clip6400)" d="
M3803.78 3020.46 L4608.76 3020.46 L4608.76 2748.3 L3803.78 2748.3  Z
  " fill="#ffffff" fill-rule="evenodd" fill-opacity="1"/>
<polyline clip-path="url(#clip6400)" style="stroke:#000000; stroke-width:4; stroke-opacity:1; fill:none" points="
  3803.78,3020.46 4608.76,3020.46 4608.76,2748.3 3803.78,2748.3 3803.78,3020.46 
  "/>
<polyline clip-path="url(#clip6400)" style="stroke:#009af9; stroke-width:4; stroke-opacity:1; fill:none" points="
  3851.78,2839.02 4139.78,2839.02 
  "/>
<g clip-path="url(#clip6400)">
<text style="fill:#000000; fill-opacity:1; font-family:Arial,Helvetica Neue,Helvetica,sans-serif; font-size:71px; text-anchor:start;" transform="rotate(0, 4187.78, 2865.02)" x="4187.78" y="2865.02">simulation</text>
</g>
<polyline clip-path="url(#clip6400)" style="stroke:#e26f46; stroke-width:4; stroke-opacity:1; fill:none" points="
  3851.78,2929.74 4139.78,2929.74 
  "/>
<g clip-path="url(#clip6400)">
<text style="fill:#000000; fill-opacity:1; font-family:Arial,Helvetica Neue,Helvetica,sans-serif; font-size:71px; text-anchor:start;" transform="rotate(0, 4187.78, 2955.74)" x="4187.78" y="2955.74">data</text>
</g>
</svg>
