<?xml version="1.0" encoding="utf-8" standalone="no"?>
<!DOCTYPE svg PUBLIC "-//W3C//DTD SVG 1.1//EN"
  "http://www.w3.org/Graphics/SVG/1.1/DTD/svg11.dtd">
<!-- Created with matplotlib (https://matplotlib.org/) -->
<svg height="174pt" version="1.1" viewBox="0 0 522 174" width="522pt" xmlns="http://www.w3.org/2000/svg" xmlns:xlink="http://www.w3.org/1999/xlink">
 <defs>
  <style type="text/css">
*{stroke-linecap:butt;stroke-linejoin:round;}
  </style>
 </defs>
 <g id="figure_1">
  <g id="patch_1">
   <path d="M 0 174 
L 522 174 
L 522 0 
L 0 0 
z
" style="fill:#ffffff;"/>
  </g>
  <g id="axes_1">
   <g id="patch_2">
    <path d="M 50.56 132.84 
L 162.279265 132.84 
L 162.279265 37.973714 
L 50.56 37.973714 
z
" style="fill:#ffffff;"/>
   </g>
   <g id="matplotlib.axis_1">
    <g id="xtick_1">
     <g id="line2d_1">
      <defs>
       <path d="M 0 0 
L 0 3.5 
" id="m8aa2a037ca" style="stroke:#000000;stroke-width:0.8;"/>
      </defs>
      <g>
       <use style="stroke:#000000;stroke-width:0.8;" x="70.740448" xlink:href="#m8aa2a037ca" y="132.84"/>
      </g>
     </g>
     <g id="text_1">
      <!-- 0 -->
      <defs>
       <path d="M 31.78125 66.40625 
Q 24.171875 66.40625 20.328125 58.90625 
Q 16.5 51.421875 16.5 36.375 
Q 16.5 21.390625 20.328125 13.890625 
Q 24.171875 6.390625 31.78125 6.390625 
Q 39.453125 6.390625 43.28125 13.890625 
Q 47.125 21.390625 47.125 36.375 
Q 47.125 51.421875 43.28125 58.90625 
Q 39.453125 66.40625 31.78125 66.40625 
z
M 31.78125 74.21875 
Q 44.046875 74.21875 50.515625 64.515625 
Q 56.984375 54.828125 56.984375 36.375 
Q 56.984375 17.96875 50.515625 8.265625 
Q 44.046875 -1.421875 31.78125 -1.421875 
Q 19.53125 -1.421875 13.0625 8.265625 
Q 6.59375 17.96875 6.59375 36.375 
Q 6.59375 54.828125 13.0625 64.515625 
Q 19.53125 74.21875 31.78125 74.21875 
z
" id="DejaVuSans-48"/>
      </defs>
      <g transform="translate(67.559198 147.438438)scale(0.1 -0.1)">
       <use xlink:href="#DejaVuSans-48"/>
      </g>
     </g>
    </g>
    <g id="xtick_2">
     <g id="line2d_2">
      <g>
       <use style="stroke:#000000;stroke-width:0.8;" x="108.496199" xlink:href="#m8aa2a037ca" y="132.84"/>
      </g>
     </g>
     <g id="text_2">
      <!-- 100 -->
      <defs>
       <path d="M 12.40625 8.296875 
L 28.515625 8.296875 
L 28.515625 63.921875 
L 10.984375 60.40625 
L 10.984375 69.390625 
L 28.421875 72.90625 
L 38.28125 72.90625 
L 38.28125 8.296875 
L 54.390625 8.296875 
L 54.390625 0 
L 12.40625 0 
z
" id="DejaVuSans-49"/>
      </defs>
      <g transform="translate(98.952449 147.438438)scale(0.1 -0.1)">
       <use xlink:href="#DejaVuSans-49"/>
       <use x="63.623047" xlink:href="#DejaVuSans-48"/>
       <use x="127.246094" xlink:href="#DejaVuSans-48"/>
      </g>
     </g>
    </g>
    <g id="xtick_3">
     <g id="line2d_3">
      <g>
       <use style="stroke:#000000;stroke-width:0.8;" x="146.251949" xlink:href="#m8aa2a037ca" y="132.84"/>
      </g>
     </g>
     <g id="text_3">
      <!-- 200 -->
      <defs>
       <path d="M 19.1875 8.296875 
L 53.609375 8.296875 
L 53.609375 0 
L 7.328125 0 
L 7.328125 8.296875 
Q 12.9375 14.109375 22.625 23.890625 
Q 32.328125 33.6875 34.8125 36.53125 
Q 39.546875 41.84375 41.421875 45.53125 
Q 43.3125 49.21875 43.3125 52.78125 
Q 43.3125 58.59375 39.234375 62.25 
Q 35.15625 65.921875 28.609375 65.921875 
Q 23.96875 65.921875 18.8125 64.3125 
Q 13.671875 62.703125 7.8125 59.421875 
L 7.8125 69.390625 
Q 13.765625 71.78125 18.9375 73 
Q 24.125 74.21875 28.421875 74.21875 
Q 39.75 74.21875 46.484375 68.546875 
Q 53.21875 62.890625 53.21875 53.421875 
Q 53.21875 48.921875 51.53125 44.890625 
Q 49.859375 40.875 45.40625 35.40625 
Q 44.1875 33.984375 37.640625 27.21875 
Q 31.109375 20.453125 19.1875 8.296875 
z
" id="DejaVuSans-50"/>
      </defs>
      <g transform="translate(136.708199 147.438438)scale(0.1 -0.1)">
       <use xlink:href="#DejaVuSans-50"/>
       <use x="63.623047" xlink:href="#DejaVuSans-48"/>
       <use x="127.246094" xlink:href="#DejaVuSans-48"/>
      </g>
     </g>
    </g>
    <g id="text_4">
     <!-- Deviation from ideal weight [%] -->
     <defs>
      <path d="M 19.671875 64.796875 
L 19.671875 8.109375 
L 31.59375 8.109375 
Q 46.6875 8.109375 53.6875 14.9375 
Q 60.6875 21.78125 60.6875 36.53125 
Q 60.6875 51.171875 53.6875 57.984375 
Q 46.6875 64.796875 31.59375 64.796875 
z
M 9.8125 72.90625 
L 30.078125 72.90625 
Q 51.265625 72.90625 61.171875 64.09375 
Q 71.09375 55.28125 71.09375 36.53125 
Q 71.09375 17.671875 61.125 8.828125 
Q 51.171875 0 30.078125 0 
L 9.8125 0 
z
" id="DejaVuSans-68"/>
      <path d="M 56.203125 29.59375 
L 56.203125 25.203125 
L 14.890625 25.203125 
Q 15.484375 15.921875 20.484375 11.0625 
Q 25.484375 6.203125 34.421875 6.203125 
Q 39.59375 6.203125 44.453125 7.46875 
Q 49.3125 8.734375 54.109375 11.28125 
L 54.109375 2.78125 
Q 49.265625 0.734375 44.1875 -0.34375 
Q 39.109375 -1.421875 33.890625 -1.421875 
Q 20.796875 -1.421875 13.15625 6.1875 
Q 5.515625 13.8125 5.515625 26.8125 
Q 5.515625 40.234375 12.765625 48.109375 
Q 20.015625 56 32.328125 56 
Q 43.359375 56 49.78125 48.890625 
Q 56.203125 41.796875 56.203125 29.59375 
z
M 47.21875 32.234375 
Q 47.125 39.59375 43.09375 43.984375 
Q 39.0625 48.390625 32.421875 48.390625 
Q 24.90625 48.390625 20.390625 44.140625 
Q 15.875 39.890625 15.1875 32.171875 
z
" id="DejaVuSans-101"/>
      <path d="M 2.984375 54.6875 
L 12.5 54.6875 
L 29.59375 8.796875 
L 46.6875 54.6875 
L 56.203125 54.6875 
L 35.6875 0 
L 23.484375 0 
z
" id="DejaVuSans-118"/>
      <path d="M 9.421875 54.6875 
L 18.40625 54.6875 
L 18.40625 0 
L 9.421875 0 
z
M 9.421875 75.984375 
L 18.40625 75.984375 
L 18.40625 64.59375 
L 9.421875 64.59375 
z
" id="DejaVuSans-105"/>
      <path d="M 34.28125 27.484375 
Q 23.390625 27.484375 19.1875 25 
Q 14.984375 22.515625 14.984375 16.5 
Q 14.984375 11.71875 18.140625 8.90625 
Q 21.296875 6.109375 26.703125 6.109375 
Q 34.1875 6.109375 38.703125 11.40625 
Q 43.21875 16.703125 43.21875 25.484375 
L 43.21875 27.484375 
z
M 52.203125 31.203125 
L 52.203125 0 
L 43.21875 0 
L 43.21875 8.296875 
Q 40.140625 3.328125 35.546875 0.953125 
Q 30.953125 -1.421875 24.3125 -1.421875 
Q 15.921875 -1.421875 10.953125 3.296875 
Q 6 8.015625 6 15.921875 
Q 6 25.140625 12.171875 29.828125 
Q 18.359375 34.515625 30.609375 34.515625 
L 43.21875 34.515625 
L 43.21875 35.40625 
Q 43.21875 41.609375 39.140625 45 
Q 35.0625 48.390625 27.6875 48.390625 
Q 23 48.390625 18.546875 47.265625 
Q 14.109375 46.140625 10.015625 43.890625 
L 10.015625 52.203125 
Q 14.9375 54.109375 19.578125 55.046875 
Q 24.21875 56 28.609375 56 
Q 40.484375 56 46.34375 49.84375 
Q 52.203125 43.703125 52.203125 31.203125 
z
" id="DejaVuSans-97"/>
      <path d="M 18.3125 70.21875 
L 18.3125 54.6875 
L 36.8125 54.6875 
L 36.8125 47.703125 
L 18.3125 47.703125 
L 18.3125 18.015625 
Q 18.3125 11.328125 20.140625 9.421875 
Q 21.96875 7.515625 27.59375 7.515625 
L 36.8125 7.515625 
L 36.8125 0 
L 27.59375 0 
Q 17.1875 0 13.234375 3.875 
Q 9.28125 7.765625 9.28125 18.015625 
L 9.28125 47.703125 
L 2.6875 47.703125 
L 2.6875 54.6875 
L 9.28125 54.6875 
L 9.28125 70.21875 
z
" id="DejaVuSans-116"/>
      <path d="M 30.609375 48.390625 
Q 23.390625 48.390625 19.1875 42.75 
Q 14.984375 37.109375 14.984375 27.296875 
Q 14.984375 17.484375 19.15625 11.84375 
Q 23.34375 6.203125 30.609375 6.203125 
Q 37.796875 6.203125 41.984375 11.859375 
Q 46.1875 17.53125 46.1875 27.296875 
Q 46.1875 37.015625 41.984375 42.703125 
Q 37.796875 48.390625 30.609375 48.390625 
z
M 30.609375 56 
Q 42.328125 56 49.015625 48.375 
Q 55.71875 40.765625 55.71875 27.296875 
Q 55.71875 13.875 49.015625 6.21875 
Q 42.328125 -1.421875 30.609375 -1.421875 
Q 18.84375 -1.421875 12.171875 6.21875 
Q 5.515625 13.875 5.515625 27.296875 
Q 5.515625 40.765625 12.171875 48.375 
Q 18.84375 56 30.609375 56 
z
" id="DejaVuSans-111"/>
      <path d="M 54.890625 33.015625 
L 54.890625 0 
L 45.90625 0 
L 45.90625 32.71875 
Q 45.90625 40.484375 42.875 44.328125 
Q 39.84375 48.1875 33.796875 48.1875 
Q 26.515625 48.1875 22.3125 43.546875 
Q 18.109375 38.921875 18.109375 30.90625 
L 18.109375 0 
L 9.078125 0 
L 9.078125 54.6875 
L 18.109375 54.6875 
L 18.109375 46.1875 
Q 21.34375 51.125 25.703125 53.5625 
Q 30.078125 56 35.796875 56 
Q 45.21875 56 50.046875 50.171875 
Q 54.890625 44.34375 54.890625 33.015625 
z
" id="DejaVuSans-110"/>
      <path id="DejaVuSans-32"/>
      <path d="M 37.109375 75.984375 
L 37.109375 68.5 
L 28.515625 68.5 
Q 23.6875 68.5 21.796875 66.546875 
Q 19.921875 64.59375 19.921875 59.515625 
L 19.921875 54.6875 
L 34.71875 54.6875 
L 34.71875 47.703125 
L 19.921875 47.703125 
L 19.921875 0 
L 10.890625 0 
L 10.890625 47.703125 
L 2.296875 47.703125 
L 2.296875 54.6875 
L 10.890625 54.6875 
L 10.890625 58.5 
Q 10.890625 67.625 15.140625 71.796875 
Q 19.390625 75.984375 28.609375 75.984375 
z
" id="DejaVuSans-102"/>
      <path d="M 41.109375 46.296875 
Q 39.59375 47.171875 37.8125 47.578125 
Q 36.03125 48 33.890625 48 
Q 26.265625 48 22.1875 43.046875 
Q 18.109375 38.09375 18.109375 28.8125 
L 18.109375 0 
L 9.078125 0 
L 9.078125 54.6875 
L 18.109375 54.6875 
L 18.109375 46.1875 
Q 20.953125 51.171875 25.484375 53.578125 
Q 30.03125 56 36.53125 56 
Q 37.453125 56 38.578125 55.875 
Q 39.703125 55.765625 41.0625 55.515625 
z
" id="DejaVuSans-114"/>
      <path d="M 52 44.1875 
Q 55.375 50.25 60.0625 53.125 
Q 64.75 56 71.09375 56 
Q 79.640625 56 84.28125 50.015625 
Q 88.921875 44.046875 88.921875 33.015625 
L 88.921875 0 
L 79.890625 0 
L 79.890625 32.71875 
Q 79.890625 40.578125 77.09375 44.375 
Q 74.3125 48.1875 68.609375 48.1875 
Q 61.625 48.1875 57.5625 43.546875 
Q 53.515625 38.921875 53.515625 30.90625 
L 53.515625 0 
L 44.484375 0 
L 44.484375 32.71875 
Q 44.484375 40.625 41.703125 44.40625 
Q 38.921875 48.1875 33.109375 48.1875 
Q 26.21875 48.1875 22.15625 43.53125 
Q 18.109375 38.875 18.109375 30.90625 
L 18.109375 0 
L 9.078125 0 
L 9.078125 54.6875 
L 18.109375 54.6875 
L 18.109375 46.1875 
Q 21.1875 51.21875 25.484375 53.609375 
Q 29.78125 56 35.6875 56 
Q 41.65625 56 45.828125 52.96875 
Q 50 49.953125 52 44.1875 
z
" id="DejaVuSans-109"/>
      <path d="M 45.40625 46.390625 
L 45.40625 75.984375 
L 54.390625 75.984375 
L 54.390625 0 
L 45.40625 0 
L 45.40625 8.203125 
Q 42.578125 3.328125 38.25 0.953125 
Q 33.9375 -1.421875 27.875 -1.421875 
Q 17.96875 -1.421875 11.734375 6.484375 
Q 5.515625 14.40625 5.515625 27.296875 
Q 5.515625 40.1875 11.734375 48.09375 
Q 17.96875 56 27.875 56 
Q 33.9375 56 38.25 53.625 
Q 42.578125 51.265625 45.40625 46.390625 
z
M 14.796875 27.296875 
Q 14.796875 17.390625 18.875 11.75 
Q 22.953125 6.109375 30.078125 6.109375 
Q 37.203125 6.109375 41.296875 11.75 
Q 45.40625 17.390625 45.40625 27.296875 
Q 45.40625 37.203125 41.296875 42.84375 
Q 37.203125 48.484375 30.078125 48.484375 
Q 22.953125 48.484375 18.875 42.84375 
Q 14.796875 37.203125 14.796875 27.296875 
z
" id="DejaVuSans-100"/>
      <path d="M 9.421875 75.984375 
L 18.40625 75.984375 
L 18.40625 0 
L 9.421875 0 
z
" id="DejaVuSans-108"/>
      <path d="M 4.203125 54.6875 
L 13.1875 54.6875 
L 24.421875 12.015625 
L 35.59375 54.6875 
L 46.1875 54.6875 
L 57.421875 12.015625 
L 68.609375 54.6875 
L 77.59375 54.6875 
L 63.28125 0 
L 52.6875 0 
L 40.921875 44.828125 
L 29.109375 0 
L 18.5 0 
z
" id="DejaVuSans-119"/>
      <path d="M 45.40625 27.984375 
Q 45.40625 37.75 41.375 43.109375 
Q 37.359375 48.484375 30.078125 48.484375 
Q 22.859375 48.484375 18.828125 43.109375 
Q 14.796875 37.75 14.796875 27.984375 
Q 14.796875 18.265625 18.828125 12.890625 
Q 22.859375 7.515625 30.078125 7.515625 
Q 37.359375 7.515625 41.375 12.890625 
Q 45.40625 18.265625 45.40625 27.984375 
z
M 54.390625 6.78125 
Q 54.390625 -7.171875 48.1875 -13.984375 
Q 42 -20.796875 29.203125 -20.796875 
Q 24.46875 -20.796875 20.265625 -20.09375 
Q 16.0625 -19.390625 12.109375 -17.921875 
L 12.109375 -9.1875 
Q 16.0625 -11.328125 19.921875 -12.34375 
Q 23.78125 -13.375 27.78125 -13.375 
Q 36.625 -13.375 41.015625 -8.765625 
Q 45.40625 -4.15625 45.40625 5.171875 
L 45.40625 9.625 
Q 42.625 4.78125 38.28125 2.390625 
Q 33.9375 0 27.875 0 
Q 17.828125 0 11.671875 7.65625 
Q 5.515625 15.328125 5.515625 27.984375 
Q 5.515625 40.671875 11.671875 48.328125 
Q 17.828125 56 27.875 56 
Q 33.9375 56 38.28125 53.609375 
Q 42.625 51.21875 45.40625 46.390625 
L 45.40625 54.6875 
L 54.390625 54.6875 
z
" id="DejaVuSans-103"/>
      <path d="M 54.890625 33.015625 
L 54.890625 0 
L 45.90625 0 
L 45.90625 32.71875 
Q 45.90625 40.484375 42.875 44.328125 
Q 39.84375 48.1875 33.796875 48.1875 
Q 26.515625 48.1875 22.3125 43.546875 
Q 18.109375 38.921875 18.109375 30.90625 
L 18.109375 0 
L 9.078125 0 
L 9.078125 75.984375 
L 18.109375 75.984375 
L 18.109375 46.1875 
Q 21.34375 51.125 25.703125 53.5625 
Q 30.078125 56 35.796875 56 
Q 45.21875 56 50.046875 50.171875 
Q 54.890625 44.34375 54.890625 33.015625 
z
" id="DejaVuSans-104"/>
      <path d="M 8.59375 75.984375 
L 29.296875 75.984375 
L 29.296875 69 
L 17.578125 69 
L 17.578125 -6.203125 
L 29.296875 -6.203125 
L 29.296875 -13.1875 
L 8.59375 -13.1875 
z
" id="DejaVuSans-91"/>
      <path d="M 72.703125 32.078125 
Q 68.453125 32.078125 66.03125 28.46875 
Q 63.625 24.859375 63.625 18.40625 
Q 63.625 12.0625 66.03125 8.421875 
Q 68.453125 4.78125 72.703125 4.78125 
Q 76.859375 4.78125 79.265625 8.421875 
Q 81.6875 12.0625 81.6875 18.40625 
Q 81.6875 24.8125 79.265625 28.4375 
Q 76.859375 32.078125 72.703125 32.078125 
z
M 72.703125 38.28125 
Q 80.421875 38.28125 84.953125 32.90625 
Q 89.5 27.546875 89.5 18.40625 
Q 89.5 9.28125 84.9375 3.921875 
Q 80.375 -1.421875 72.703125 -1.421875 
Q 64.890625 -1.421875 60.34375 3.921875 
Q 55.8125 9.28125 55.8125 18.40625 
Q 55.8125 27.59375 60.375 32.9375 
Q 64.9375 38.28125 72.703125 38.28125 
z
M 22.3125 68.015625 
Q 18.109375 68.015625 15.6875 64.375 
Q 13.28125 60.75 13.28125 54.390625 
Q 13.28125 47.953125 15.671875 44.328125 
Q 18.0625 40.71875 22.3125 40.71875 
Q 26.5625 40.71875 28.96875 44.328125 
Q 31.390625 47.953125 31.390625 54.390625 
Q 31.390625 60.6875 28.953125 64.34375 
Q 26.515625 68.015625 22.3125 68.015625 
z
M 66.40625 74.21875 
L 74.21875 74.21875 
L 28.609375 -1.421875 
L 20.796875 -1.421875 
z
M 22.3125 74.21875 
Q 30.03125 74.21875 34.609375 68.875 
Q 39.203125 63.53125 39.203125 54.390625 
Q 39.203125 45.171875 34.640625 39.84375 
Q 30.078125 34.515625 22.3125 34.515625 
Q 14.546875 34.515625 10.03125 39.859375 
Q 5.515625 45.21875 5.515625 54.390625 
Q 5.515625 63.484375 10.046875 68.84375 
Q 14.59375 74.21875 22.3125 74.21875 
z
" id="DejaVuSans-37"/>
      <path d="M 30.421875 75.984375 
L 30.421875 -13.1875 
L 9.71875 -13.1875 
L 9.71875 -6.203125 
L 21.390625 -6.203125 
L 21.390625 69 
L 9.71875 69 
L 9.71875 75.984375 
z
" id="DejaVuSans-93"/>
     </defs>
     <g transform="translate(26.800101 161.116563)scale(0.1 -0.1)">
      <use xlink:href="#DejaVuSans-68"/>
      <use x="77.001953" xlink:href="#DejaVuSans-101"/>
      <use x="138.525391" xlink:href="#DejaVuSans-118"/>
      <use x="197.705078" xlink:href="#DejaVuSans-105"/>
      <use x="225.488281" xlink:href="#DejaVuSans-97"/>
      <use x="286.767578" xlink:href="#DejaVuSans-116"/>
      <use x="325.976562" xlink:href="#DejaVuSans-105"/>
      <use x="353.759766" xlink:href="#DejaVuSans-111"/>
      <use x="414.941406" xlink:href="#DejaVuSans-110"/>
      <use x="478.320312" xlink:href="#DejaVuSans-32"/>
      <use x="510.107422" xlink:href="#DejaVuSans-102"/>
      <use x="545.3125" xlink:href="#DejaVuSans-114"/>
      <use x="586.394531" xlink:href="#DejaVuSans-111"/>
      <use x="647.576172" xlink:href="#DejaVuSans-109"/>
      <use x="744.988281" xlink:href="#DejaVuSans-32"/>
      <use x="776.775391" xlink:href="#DejaVuSans-105"/>
      <use x="804.558594" xlink:href="#DejaVuSans-100"/>
      <use x="868.035156" xlink:href="#DejaVuSans-101"/>
      <use x="929.558594" xlink:href="#DejaVuSans-97"/>
      <use x="990.837891" xlink:href="#DejaVuSans-108"/>
      <use x="1018.621094" xlink:href="#DejaVuSans-32"/>
      <use x="1050.408203" xlink:href="#DejaVuSans-119"/>
      <use x="1132.195312" xlink:href="#DejaVuSans-101"/>
      <use x="1193.71875" xlink:href="#DejaVuSans-105"/>
      <use x="1221.501953" xlink:href="#DejaVuSans-103"/>
      <use x="1284.978516" xlink:href="#DejaVuSans-104"/>
      <use x="1348.357422" xlink:href="#DejaVuSans-116"/>
      <use x="1387.566406" xlink:href="#DejaVuSans-32"/>
      <use x="1419.353516" xlink:href="#DejaVuSans-91"/>
      <use x="1458.367188" xlink:href="#DejaVuSans-37"/>
      <use x="1553.386719" xlink:href="#DejaVuSans-93"/>
     </g>
    </g>
   </g>
   <g id="matplotlib.axis_2">
    <g id="ytick_1">
     <g id="line2d_4">
      <defs>
       <path d="M 0 0 
L -3.5 0 
" id="mf66b05a917" style="stroke:#000000;stroke-width:0.8;"/>
      </defs>
      <g>
       <use style="stroke:#000000;stroke-width:0.8;" x="50.56" xlink:href="#mf66b05a917" y="120.569865"/>
      </g>
     </g>
     <g id="text_5">
      <!-- 40 -->
      <defs>
       <path d="M 37.796875 64.3125 
L 12.890625 25.390625 
L 37.796875 25.390625 
z
M 35.203125 72.90625 
L 47.609375 72.90625 
L 47.609375 25.390625 
L 58.015625 25.390625 
L 58.015625 17.1875 
L 47.609375 17.1875 
L 47.609375 0 
L 37.796875 0 
L 37.796875 17.1875 
L 4.890625 17.1875 
L 4.890625 26.703125 
z
" id="DejaVuSans-52"/>
      </defs>
      <g transform="translate(30.835 124.369083)scale(0.1 -0.1)">
       <use xlink:href="#DejaVuSans-52"/>
       <use x="63.623047" xlink:href="#DejaVuSans-48"/>
      </g>
     </g>
    </g>
    <g id="ytick_2">
     <g id="line2d_5">
      <g>
       <use style="stroke:#000000;stroke-width:0.8;" x="50.56" xlink:href="#mf66b05a917" y="95.982398"/>
      </g>
     </g>
     <g id="text_6">
      <!-- 60 -->
      <defs>
       <path d="M 33.015625 40.375 
Q 26.375 40.375 22.484375 35.828125 
Q 18.609375 31.296875 18.609375 23.390625 
Q 18.609375 15.53125 22.484375 10.953125 
Q 26.375 6.390625 33.015625 6.390625 
Q 39.65625 6.390625 43.53125 10.953125 
Q 47.40625 15.53125 47.40625 23.390625 
Q 47.40625 31.296875 43.53125 35.828125 
Q 39.65625 40.375 33.015625 40.375 
z
M 52.59375 71.296875 
L 52.59375 62.3125 
Q 48.875 64.0625 45.09375 64.984375 
Q 41.3125 65.921875 37.59375 65.921875 
Q 27.828125 65.921875 22.671875 59.328125 
Q 17.53125 52.734375 16.796875 39.40625 
Q 19.671875 43.65625 24.015625 45.921875 
Q 28.375 48.1875 33.59375 48.1875 
Q 44.578125 48.1875 50.953125 41.515625 
Q 57.328125 34.859375 57.328125 23.390625 
Q 57.328125 12.15625 50.6875 5.359375 
Q 44.046875 -1.421875 33.015625 -1.421875 
Q 20.359375 -1.421875 13.671875 8.265625 
Q 6.984375 17.96875 6.984375 36.375 
Q 6.984375 53.65625 15.1875 63.9375 
Q 23.390625 74.21875 37.203125 74.21875 
Q 40.921875 74.21875 44.703125 73.484375 
Q 48.484375 72.75 52.59375 71.296875 
z
" id="DejaVuSans-54"/>
      </defs>
      <g transform="translate(30.835 99.781617)scale(0.1 -0.1)">
       <use xlink:href="#DejaVuSans-54"/>
       <use x="63.623047" xlink:href="#DejaVuSans-48"/>
      </g>
     </g>
    </g>
    <g id="ytick_3">
     <g id="line2d_6">
      <g>
       <use style="stroke:#000000;stroke-width:0.8;" x="50.56" xlink:href="#mf66b05a917" y="71.394932"/>
      </g>
     </g>
     <g id="text_7">
      <!-- 80 -->
      <defs>
       <path d="M 31.78125 34.625 
Q 24.75 34.625 20.71875 30.859375 
Q 16.703125 27.09375 16.703125 20.515625 
Q 16.703125 13.921875 20.71875 10.15625 
Q 24.75 6.390625 31.78125 6.390625 
Q 38.8125 6.390625 42.859375 10.171875 
Q 46.921875 13.96875 46.921875 20.515625 
Q 46.921875 27.09375 42.890625 30.859375 
Q 38.875 34.625 31.78125 34.625 
z
M 21.921875 38.8125 
Q 15.578125 40.375 12.03125 44.71875 
Q 8.5 49.078125 8.5 55.328125 
Q 8.5 64.0625 14.71875 69.140625 
Q 20.953125 74.21875 31.78125 74.21875 
Q 42.671875 74.21875 48.875 69.140625 
Q 55.078125 64.0625 55.078125 55.328125 
Q 55.078125 49.078125 51.53125 44.71875 
Q 48 40.375 41.703125 38.8125 
Q 48.828125 37.15625 52.796875 32.3125 
Q 56.78125 27.484375 56.78125 20.515625 
Q 56.78125 9.90625 50.3125 4.234375 
Q 43.84375 -1.421875 31.78125 -1.421875 
Q 19.734375 -1.421875 13.25 4.234375 
Q 6.78125 9.90625 6.78125 20.515625 
Q 6.78125 27.484375 10.78125 32.3125 
Q 14.796875 37.15625 21.921875 38.8125 
z
M 18.3125 54.390625 
Q 18.3125 48.734375 21.84375 45.5625 
Q 25.390625 42.390625 31.78125 42.390625 
Q 38.140625 42.390625 41.71875 45.5625 
Q 45.3125 48.734375 45.3125 54.390625 
Q 45.3125 60.0625 41.71875 63.234375 
Q 38.140625 66.40625 31.78125 66.40625 
Q 25.390625 66.40625 21.84375 63.234375 
Q 18.3125 60.0625 18.3125 54.390625 
z
" id="DejaVuSans-56"/>
      </defs>
      <g transform="translate(30.835 75.194151)scale(0.1 -0.1)">
       <use xlink:href="#DejaVuSans-56"/>
       <use x="63.623047" xlink:href="#DejaVuSans-48"/>
      </g>
     </g>
    </g>
    <g id="ytick_4">
     <g id="line2d_7">
      <g>
       <use style="stroke:#000000;stroke-width:0.8;" x="50.56" xlink:href="#mf66b05a917" y="46.807465"/>
      </g>
     </g>
     <g id="text_8">
      <!-- 100 -->
      <g transform="translate(24.4725 50.606684)scale(0.1 -0.1)">
       <use xlink:href="#DejaVuSans-49"/>
       <use x="63.623047" xlink:href="#DejaVuSans-48"/>
       <use x="127.246094" xlink:href="#DejaVuSans-48"/>
      </g>
     </g>
    </g>
    <g id="text_9">
     <!-- Blood volume [ml / kg] -->
     <defs>
      <path d="M 19.671875 34.8125 
L 19.671875 8.109375 
L 35.5 8.109375 
Q 43.453125 8.109375 47.28125 11.40625 
Q 51.125 14.703125 51.125 21.484375 
Q 51.125 28.328125 47.28125 31.5625 
Q 43.453125 34.8125 35.5 34.8125 
z
M 19.671875 64.796875 
L 19.671875 42.828125 
L 34.28125 42.828125 
Q 41.5 42.828125 45.03125 45.53125 
Q 48.578125 48.25 48.578125 53.8125 
Q 48.578125 59.328125 45.03125 62.0625 
Q 41.5 64.796875 34.28125 64.796875 
z
M 9.8125 72.90625 
L 35.015625 72.90625 
Q 46.296875 72.90625 52.390625 68.21875 
Q 58.5 63.53125 58.5 54.890625 
Q 58.5 48.1875 55.375 44.234375 
Q 52.25 40.28125 46.1875 39.3125 
Q 53.46875 37.75 57.5 32.78125 
Q 61.53125 27.828125 61.53125 20.40625 
Q 61.53125 10.640625 54.890625 5.3125 
Q 48.25 0 35.984375 0 
L 9.8125 0 
z
" id="DejaVuSans-66"/>
      <path d="M 8.5 21.578125 
L 8.5 54.6875 
L 17.484375 54.6875 
L 17.484375 21.921875 
Q 17.484375 14.15625 20.5 10.265625 
Q 23.53125 6.390625 29.59375 6.390625 
Q 36.859375 6.390625 41.078125 11.03125 
Q 45.3125 15.671875 45.3125 23.6875 
L 45.3125 54.6875 
L 54.296875 54.6875 
L 54.296875 0 
L 45.3125 0 
L 45.3125 8.40625 
Q 42.046875 3.421875 37.71875 1 
Q 33.40625 -1.421875 27.6875 -1.421875 
Q 18.265625 -1.421875 13.375 4.4375 
Q 8.5 10.296875 8.5 21.578125 
z
M 31.109375 56 
z
" id="DejaVuSans-117"/>
      <path d="M 25.390625 72.90625 
L 33.6875 72.90625 
L 8.296875 -9.28125 
L 0 -9.28125 
z
" id="DejaVuSans-47"/>
      <path d="M 9.078125 75.984375 
L 18.109375 75.984375 
L 18.109375 31.109375 
L 44.921875 54.6875 
L 56.390625 54.6875 
L 27.390625 29.109375 
L 57.625 0 
L 45.90625 0 
L 18.109375 26.703125 
L 18.109375 0 
L 9.078125 0 
z
" id="DejaVuSans-107"/>
     </defs>
     <g transform="translate(18.392812 142.313888)rotate(-90)scale(0.1 -0.1)">
      <use xlink:href="#DejaVuSans-66"/>
      <use x="68.603516" xlink:href="#DejaVuSans-108"/>
      <use x="96.386719" xlink:href="#DejaVuSans-111"/>
      <use x="157.568359" xlink:href="#DejaVuSans-111"/>
      <use x="218.75" xlink:href="#DejaVuSans-100"/>
      <use x="282.226562" xlink:href="#DejaVuSans-32"/>
      <use x="314.013672" xlink:href="#DejaVuSans-118"/>
      <use x="373.193359" xlink:href="#DejaVuSans-111"/>
      <use x="434.375" xlink:href="#DejaVuSans-108"/>
      <use x="462.158203" xlink:href="#DejaVuSans-117"/>
      <use x="525.537109" xlink:href="#DejaVuSans-109"/>
      <use x="622.949219" xlink:href="#DejaVuSans-101"/>
      <use x="684.472656" xlink:href="#DejaVuSans-32"/>
      <use x="716.259766" xlink:href="#DejaVuSans-91"/>
      <use x="755.273438" xlink:href="#DejaVuSans-109"/>
      <use x="852.685547" xlink:href="#DejaVuSans-108"/>
      <use x="880.46875" xlink:href="#DejaVuSans-32"/>
      <use x="912.255859" xlink:href="#DejaVuSans-47"/>
      <use x="945.947266" xlink:href="#DejaVuSans-32"/>
      <use x="977.734375" xlink:href="#DejaVuSans-107"/>
      <use x="1035.644531" xlink:href="#DejaVuSans-103"/>
      <use x="1099.121094" xlink:href="#DejaVuSans-93"/>
     </g>
    </g>
   </g>
   <g id="line2d_8">
    <path clip-path="url(#p4f9aa084f7)" d="M 55.638148 49.941104 
L 57.525936 55.805454 
L 59.413723 60.978758 
L 61.301511 65.583637 
L 63.566856 70.49069 
L 65.832201 74.839722 
L 68.097546 78.72651 
L 70.740448 82.775317 
L 73.383351 86.387679 
L 76.026253 89.634846 
L 79.046713 92.970184 
L 82.067174 95.967583 
L 85.465191 99.000097 
L 88.863209 101.729033 
L 92.638784 104.461038 
L 96.414359 106.925406 
L 100.567491 109.374505 
L 105.098181 111.781421 
L 110.006429 114.125827 
L 115.292234 116.393093 
L 120.955596 118.573336 
L 126.996516 120.660515 
L 133.792551 122.762277 
L 140.966144 124.744353 
L 148.894851 126.699871 
L 157.201116 128.527896 
L 157.201116 128.527896 
" style="fill:none;stroke:#000000;stroke-linecap:square;stroke-width:1.5;"/>
   </g>
   <g id="line2d_9">
    <defs>
     <path d="M 0 0.75 
C 0.198902 0.75 0.389685 0.670975 0.53033 0.53033 
C 0.670975 0.389685 0.75 0.198902 0.75 0 
C 0.75 -0.198902 0.670975 -0.389685 0.53033 -0.53033 
C 0.389685 -0.670975 0.198902 -0.75 0 -0.75 
C -0.198902 -0.75 -0.389685 -0.670975 -0.53033 -0.53033 
C -0.670975 -0.389685 -0.75 -0.198902 -0.75 0 
C -0.75 0.198902 -0.670975 0.389685 -0.53033 0.53033 
C -0.389685 0.670975 -0.198902 0.75 0 0.75 
z
" id="m82e8fbb4b0" style="stroke:#4682b4;"/>
    </defs>
    <g clip-path="url(#p4f9aa084f7)">
     <use style="fill:#4682b4;stroke:#4682b4;" x="61.171462" xlink:href="#m82e8fbb4b0" y="42.285818"/>
     <use style="fill:#4682b4;stroke:#4682b4;" x="58.190636" xlink:href="#m82e8fbb4b0" y="43.935766"/>
     <use style="fill:#4682b4;stroke:#4682b4;" x="58.94158" xlink:href="#m82e8fbb4b0" y="46.075579"/>
     <use style="fill:#4682b4;stroke:#4682b4;" x="61.26518" xlink:href="#m82e8fbb4b0" y="47.096631"/>
     <use style="fill:#4682b4;stroke:#4682b4;" x="55.87785" xlink:href="#m82e8fbb4b0" y="47.725331"/>
     <use style="fill:#4682b4;stroke:#4682b4;" x="58.86228" xlink:href="#m82e8fbb4b0" y="47.678922"/>
     <use style="fill:#4682b4;stroke:#4682b4;" x="58.866245" xlink:href="#m82e8fbb4b0" y="49.442815"/>
     <use style="fill:#4682b4;stroke:#4682b4;" x="61.274192" xlink:href="#m82e8fbb4b0" y="51.105478"/>
     <use style="fill:#4682b4;stroke:#4682b4;" x="57.136191" xlink:href="#m82e8fbb4b0" y="54.302775"/>
     <use style="fill:#4682b4;stroke:#4682b4;" x="58.379754" xlink:href="#m82e8fbb4b0" y="54.305709"/>
     <use style="fill:#4682b4;stroke:#4682b4;" x="61.86161" xlink:href="#m82e8fbb4b0" y="54.260474"/>
     <use style="fill:#4682b4;stroke:#4682b4;" x="61.775702" xlink:href="#m82e8fbb4b0" y="52.923996"/>
     <use style="fill:#4682b4;stroke:#4682b4;" x="59.453423" xlink:href="#m82e8fbb4b0" y="52.490908"/>
     <use style="fill:#4682b4;stroke:#4682b4;" x="60.124106" xlink:href="#m82e8fbb4b0" y="55.806453"/>
     <use style="fill:#4682b4;stroke:#4682b4;" x="57.718683" xlink:href="#m82e8fbb4b0" y="55.266268"/>
     <use style="fill:#4682b4;stroke:#4682b4;" x="60.12675" xlink:href="#m82e8fbb4b0" y="56.982382"/>
     <use style="fill:#4682b4;stroke:#4682b4;" x="57.725291" xlink:href="#m82e8fbb4b0" y="58.206089"/>
     <use style="fill:#4682b4;stroke:#4682b4;" x="61.290172" xlink:href="#m82e8fbb4b0" y="58.2145"/>
     <use style="fill:#4682b4;stroke:#4682b4;" x="60.132036" xlink:href="#m82e8fbb4b0" y="59.334239"/>
     <use style="fill:#4682b4;stroke:#4682b4;" x="57.812521" xlink:href="#m82e8fbb4b0" y="60.130531"/>
     <use style="fill:#4682b4;stroke:#4682b4;" x="60.1348" xlink:href="#m82e8fbb4b0" y="60.563619"/>
     <use style="fill:#4682b4;stroke:#4682b4;" x="58.397777" xlink:href="#m82e8fbb4b0" y="62.323404"/>
     <use style="fill:#4682b4;stroke:#4682b4;" x="58.980269" xlink:href="#m82e8fbb4b0" y="63.286897"/>
     <use style="fill:#4682b4;stroke:#4682b4;" x="57.653802" xlink:href="#m82e8fbb4b0" y="63.283767"/>
     <use style="fill:#4682b4;stroke:#4682b4;" x="57.822013" xlink:href="#m82e8fbb4b0" y="64.353184"/>
     <use style="fill:#4682b4;stroke:#4682b4;" x="64.954417" xlink:href="#m82e8fbb4b0" y="65.545935"/>
     <use style="fill:#4682b4;stroke:#4682b4;" x="66.780952" xlink:href="#m82e8fbb4b0" y="66.726167"/>
     <use style="fill:#4682b4;stroke:#4682b4;" x="67.940169" xlink:href="#m82e8fbb4b0" y="66.08749"/>
     <use style="fill:#4682b4;stroke:#4682b4;" x="68.517735" xlink:href="#m82e8fbb4b0" y="64.85948"/>
     <use style="fill:#4682b4;stroke:#4682b4;" x="58.990962" xlink:href="#m82e8fbb4b0" y="68.044062"/>
     <use style="fill:#4682b4;stroke:#4682b4;" x="57.251416" xlink:href="#m82e8fbb4b0" y="68.68137"/>
     <use style="fill:#4682b4;stroke:#4682b4;" x="57.836551" xlink:href="#m82e8fbb4b0" y="70.820791"/>
     <use style="fill:#4682b4;stroke:#4682b4;" x="64.469728" xlink:href="#m82e8fbb4b0" y="71.210599"/>
     <use style="fill:#4682b4;stroke:#4682b4;" x="65.629185" xlink:href="#m82e8fbb4b0" y="70.678825"/>
     <use style="fill:#4682b4;stroke:#4682b4;" x="66.789843" xlink:href="#m82e8fbb4b0" y="70.681563"/>
     <use style="fill:#4682b4;stroke:#4682b4;" x="64.969556" xlink:href="#m82e8fbb4b0" y="72.280799"/>
     <use style="fill:#4682b4;stroke:#4682b4;" x="63.810579" xlink:href="#m82e8fbb4b0" y="73.026378"/>
     <use style="fill:#4682b4;stroke:#4682b4;" x="66.216723" xlink:href="#m82e8fbb4b0" y="73.887272"/>
     <use style="fill:#4682b4;stroke:#4682b4;" x="67.958913" xlink:href="#m82e8fbb4b0" y="74.425893"/>
     <use style="fill:#4682b4;stroke:#4682b4;" x="69.867391" xlink:href="#m82e8fbb4b0" y="75.17871"/>
     <use style="fill:#4682b4;stroke:#4682b4;" x="71.028771" xlink:href="#m82e8fbb4b0" y="75.502156"/>
     <use style="fill:#4682b4;stroke:#4682b4;" x="69.869314" xlink:href="#m82e8fbb4b0" y="76.033931"/>
     <use style="fill:#4682b4;stroke:#4682b4;" x="69.871236" xlink:href="#m82e8fbb4b0" y="76.889151"/>
     <use style="fill:#4682b4;stroke:#4682b4;" x="68.047464" xlink:href="#m82e8fbb4b0" y="76.938299"/>
     <use style="fill:#4682b4;stroke:#4682b4;" x="67.465092" xlink:href="#m82e8fbb4b0" y="76.028258"/>
     <use style="fill:#4682b4;stroke:#4682b4;" x="66.306476" xlink:href="#m82e8fbb4b0" y="76.934191"/>
     <use style="fill:#4682b4;stroke:#4682b4;" x="63.899731" xlink:href="#m82e8fbb4b0" y="75.806041"/>
     <use style="fill:#4682b4;stroke:#4682b4;" x="60.248703" xlink:href="#m82e8fbb4b0" y="74.354249"/>
     <use style="fill:#4682b4;stroke:#4682b4;" x="69.772352" xlink:href="#m82e8fbb4b0" y="69.779933"/>
     <use style="fill:#4682b4;stroke:#4682b4;" x="61.963738" xlink:href="#m82e8fbb4b0" y="62.812877"/>
     <use style="fill:#4682b4;stroke:#4682b4;" x="65.521529" xlink:href="#m82e8fbb4b0" y="59.667662"/>
     <use style="fill:#4682b4;stroke:#4682b4;" x="71.024205" xlink:href="#m82e8fbb4b0" y="73.471007"/>
     <use style="fill:#4682b4;stroke:#4682b4;" x="72.196879" xlink:href="#m82e8fbb4b0" y="78.818875"/>
     <use style="fill:#4682b4;stroke:#4682b4;" x="68.717666" xlink:href="#m82e8fbb4b0" y="80.040039"/>
     <use style="fill:#4682b4;stroke:#4682b4;" x="66.895336" xlink:href="#m82e8fbb4b0" y="80.730603"/>
     <use style="fill:#4682b4;stroke:#4682b4;" x="65.733236" xlink:href="#m82e8fbb4b0" y="80.086449"/>
     <use style="fill:#4682b4;stroke:#4682b4;" x="64.490754" xlink:href="#m82e8fbb4b0" y="80.564576"/>
     <use style="fill:#4682b4;stroke:#4682b4;" x="68.637526" xlink:href="#m82e8fbb4b0" y="81.269224"/>
     <use style="fill:#4682b4;stroke:#4682b4;" x="71.127415" xlink:href="#m82e8fbb4b0" y="82.504472"/>
     <use style="fill:#4682b4;stroke:#4682b4;" x="72.867802" xlink:href="#m82e8fbb4b0" y="82.241323"/>
     <use style="fill:#4682b4;stroke:#4682b4;" x="65.738642" xlink:href="#m82e8fbb4b0" y="82.491757"/>
     <use style="fill:#4682b4;stroke:#4682b4;" x="68.147069" xlink:href="#m82e8fbb4b0" y="84.368225"/>
     <use style="fill:#4682b4;stroke:#4682b4;" x="68.234659" xlink:href="#m82e8fbb4b0" y="86.453021"/>
     <use style="fill:#4682b4;stroke:#4682b4;" x="69.399283" xlink:href="#m82e8fbb4b0" y="88.219653"/>
     <use style="fill:#4682b4;stroke:#4682b4;" x="66.995061" xlink:href="#m82e8fbb4b0" y="88.21398"/>
     <use style="fill:#4682b4;stroke:#4682b4;" x="67.661299" xlink:href="#m82e8fbb4b0" y="89.551827"/>
     <use style="fill:#4682b4;stroke:#4682b4;" x="68.823519" xlink:href="#m82e8fbb4b0" y="90.249433"/>
     <use style="fill:#4682b4;stroke:#4682b4;" x="75.371148" xlink:href="#m82e8fbb4b0" y="89.463117"/>
     <use style="fill:#4682b4;stroke:#4682b4;" x="71.137267" xlink:href="#m82e8fbb4b0" y="86.887478"/>
     <use style="fill:#4682b4;stroke:#4682b4;" x="82.5897" xlink:href="#m82e8fbb4b0" y="92.099249"/>
     <use style="fill:#4682b4;stroke:#4682b4;" x="84.329126" xlink:href="#m82e8fbb4b0" y="91.40849"/>
     <use style="fill:#4682b4;stroke:#4682b4;" x="73.642536" xlink:href="#m82e8fbb4b0" y="94.964493"/>
     <use style="fill:#4682b4;stroke:#4682b4;" x="82.022708" xlink:href="#m82e8fbb4b0" y="98.030973"/>
     <use style="fill:#4682b4;stroke:#4682b4;" x="83.184448" xlink:href="#m82e8fbb4b0" y="98.514774"/>
     <use style="fill:#4682b4;stroke:#4682b4;" x="82.692429" xlink:href="#m82e8fbb4b0" y="100.918908"/>
     <use style="fill:#4682b4;stroke:#4682b4;" x="83.276724" xlink:href="#m82e8fbb4b0" y="102.684171"/>
     <use style="fill:#4682b4;stroke:#4682b4;" x="79.711122" xlink:href="#m82e8fbb4b0" y="102.355051"/>
     <use style="fill:#4682b4;stroke:#4682b4;" x="79.216581" xlink:href="#m82e8fbb4b0" y="103.636709"/>
     <use style="fill:#4682b4;stroke:#4682b4;" x="85.190248" xlink:href="#m82e8fbb4b0" y="105.681942"/>
     <use style="fill:#4682b4;stroke:#4682b4;" x="86.931357" xlink:href="#m82e8fbb4b0" y="105.739501"/>
     <use style="fill:#4682b4;stroke:#4682b4;" x="90.500923" xlink:href="#m82e8fbb4b0" y="107.832513"/>
     <use style="fill:#4682b4;stroke:#4682b4;" x="86.358597" xlink:href="#m82e8fbb4b0" y="109.105564"/>
     <use style="fill:#4682b4;stroke:#4682b4;" x="88.099104" xlink:href="#m82e8fbb4b0" y="108.895867"/>
     <use style="fill:#4682b4;stroke:#4682b4;" x="85.781992" xlink:href="#m82e8fbb4b0" y="110.761185"/>
     <use style="fill:#4682b4;stroke:#4682b4;" x="71.813837" xlink:href="#m82e8fbb4b0" y="92.822137"/>
     <use style="fill:#4682b4;stroke:#4682b4;" x="61.013224" xlink:href="#m82e8fbb4b0" y="82.534058"/>
     <use style="fill:#4682b4;stroke:#4682b4;" x="79.034072" xlink:href="#m82e8fbb4b0" y="96.206587"/>
     <use style="fill:#4682b4;stroke:#4682b4;" x="85.58098" xlink:href="#m82e8fbb4b0" y="95.099563"/>
     <use style="fill:#4682b4;stroke:#4682b4;" x="87.986883" xlink:href="#m82e8fbb4b0" y="95.853554"/>
     <use style="fill:#4682b4;stroke:#4682b4;" x="89.724988" xlink:href="#m82e8fbb4b0" y="94.574831"/>
     <use style="fill:#4682b4;stroke:#4682b4;" x="88.657206" xlink:href="#m82e8fbb4b0" y="99.008746"/>
     <use style="fill:#4682b4;stroke:#4682b4;" x="88.659969" xlink:href="#m82e8fbb4b0" y="100.238126"/>
     <use style="fill:#4682b4;stroke:#4682b4;" x="89.244384" xlink:href="#m82e8fbb4b0" y="102.056839"/>
     <use style="fill:#4682b4;stroke:#4682b4;" x="87.503396" xlink:href="#m82e8fbb4b0" y="102.052731"/>
     <use style="fill:#4682b4;stroke:#4682b4;" x="92.13798" xlink:href="#m82e8fbb4b0" y="98.482449"/>
     <use style="fill:#4682b4;stroke:#4682b4;" x="93.961392" xlink:href="#m82e8fbb4b0" y="98.272947"/>
     <use style="fill:#4682b4;stroke:#4682b4;" x="99.356772" xlink:href="#m82e8fbb4b0" y="101.225483"/>
     <use style="fill:#4682b4;stroke:#4682b4;" x="93.487997" xlink:href="#m82e8fbb4b0" y="108.962033"/>
     <use style="fill:#4682b4;stroke:#4682b4;" x="82.20762" xlink:href="#m82e8fbb4b0" y="106.530121"/>
     <use style="fill:#4682b4;stroke:#4682b4;" x="109.069059" xlink:href="#m82e8fbb4b0" y="106.807305"/>
     <use style="fill:#4682b4;stroke:#4682b4;" x="110.904125" xlink:href="#m82e8fbb4b0" y="111.782579"/>
     <use style="fill:#4682b4;stroke:#4682b4;" x="98.388235" xlink:href="#m82e8fbb4b0" y="112.92897"/>
     <use style="fill:#4682b4;stroke:#4682b4;" x="100.13487" xlink:href="#m82e8fbb4b0" y="115.445289"/>
     <use style="fill:#4682b4;stroke:#4682b4;" x="100.799666" xlink:href="#m82e8fbb4b0" y="116.141721"/>
     <use style="fill:#4682b4;stroke:#4682b4;" x="112.731501" xlink:href="#m82e8fbb4b0" y="113.33697"/>
     <use style="fill:#4682b4;stroke:#4682b4;" x="119.198028" xlink:href="#m82e8fbb4b0" y="113.352228"/>
     <use style="fill:#4682b4;stroke:#4682b4;" x="130.063404" xlink:href="#m82e8fbb4b0" y="115.569356"/>
     <use style="fill:#4682b4;stroke:#4682b4;" x="149.13329" xlink:href="#m82e8fbb4b0" y="116.469568"/>
    </g>
   </g>
   <g id="line2d_10">
    <defs>
     <path d="M 0 0.75 
C 0.198902 0.75 0.389685 0.670975 0.53033 0.53033 
C 0.670975 0.389685 0.75 0.198902 0.75 0 
C 0.75 -0.198902 0.670975 -0.389685 0.53033 -0.53033 
C 0.389685 -0.670975 0.198902 -0.75 0 -0.75 
C -0.198902 -0.75 -0.389685 -0.670975 -0.53033 -0.53033 
C -0.670975 -0.389685 -0.75 -0.198902 -0.75 0 
C -0.75 0.198902 -0.670975 0.389685 -0.53033 0.53033 
C -0.389685 0.670975 -0.198902 0.75 0 0.75 
z
" id="mb47e167c05" style="stroke:#ffa500;"/>
    </defs>
    <g clip-path="url(#p4f9aa084f7)">
     <use style="fill:#ffa500;stroke:#ffa500;" x="65.388301" xlink:href="#mb47e167c05" y="67.98484"/>
     <use style="fill:#ffa500;stroke:#ffa500;" x="64.352864" xlink:href="#mb47e167c05" y="78.336704"/>
     <use style="fill:#ffa500;stroke:#ffa500;" x="66.104752" xlink:href="#mb47e167c05" y="77.774786"/>
     <use style="fill:#ffa500;stroke:#ffa500;" x="67.22542" xlink:href="#mb47e167c05" y="81.750116"/>
     <use style="fill:#ffa500;stroke:#ffa500;" x="66.795043" xlink:href="#mb47e167c05" y="83.167276"/>
     <use style="fill:#ffa500;stroke:#ffa500;" x="70.965482" xlink:href="#mb47e167c05" y="83.464035"/>
     <use style="fill:#ffa500;stroke:#ffa500;" x="69.220345" xlink:href="#mb47e167c05" y="85.160781"/>
     <use style="fill:#ffa500;stroke:#ffa500;" x="70.975609" xlink:href="#mb47e167c05" y="85.166276"/>
     <use style="fill:#ffa500;stroke:#ffa500;" x="73.390784" xlink:href="#mb47e167c05" y="85.457539"/>
     <use style="fill:#ffa500;stroke:#ffa500;" x="66.156229" xlink:href="#mb47e167c05" y="86.427844"/>
     <use style="fill:#ffa500;stroke:#ffa500;" x="74.507233" xlink:href="#mb47e167c05" y="88.723602"/>
     <use style="fill:#ffa500;stroke:#ffa500;" x="74.078544" xlink:href="#mb47e167c05" y="90.424469"/>
     <use style="fill:#ffa500;stroke:#ffa500;" x="72.782349" xlink:href="#mb47e167c05" y="93.82483"/>
     <use style="fill:#ffa500;stroke:#ffa500;" x="71.030461" xlink:href="#mb47e167c05" y="94.386748"/>
     <use style="fill:#ffa500;stroke:#ffa500;" x="73.454919" xlink:href="#mb47e167c05" y="96.238398"/>
     <use style="fill:#ffa500;stroke:#ffa500;" x="77.185698" xlink:href="#mb47e167c05" y="96.39193"/>
     <use style="fill:#ffa500;stroke:#ffa500;" x="80.700445" xlink:href="#mb47e167c05" y="97.112188"/>
     <use style="fill:#ffa500;stroke:#ffa500;" x="82.674273" xlink:href="#mb47e167c05" y="96.976517"/>
     <use style="fill:#ffa500;stroke:#ffa500;" x="85.302949" xlink:href="#mb47e167c05" y="96.275493"/>
     <use style="fill:#ffa500;stroke:#ffa500;" x="84.196626" xlink:href="#mb47e167c05" y="94.711671"/>
     <use style="fill:#ffa500;stroke:#ffa500;" x="81.115632" xlink:href="#mb47e167c05" y="93.141666"/>
     <use style="fill:#ffa500;stroke:#ffa500;" x="87.04893" xlink:href="#mb47e167c05" y="94.720601"/>
     <use style="fill:#ffa500;stroke:#ffa500;" x="80.714791" xlink:href="#mb47e167c05" y="99.523696"/>
     <use style="fill:#ffa500;stroke:#ffa500;" x="78.300459" xlink:href="#mb47e167c05" y="99.374286"/>
     <use style="fill:#ffa500;stroke:#ffa500;" x="75.448156" xlink:href="#mb47e167c05" y="99.365356"/>
     <use style="fill:#ffa500;stroke:#ffa500;" x="83.131654" xlink:href="#mb47e167c05" y="100.098666"/>
     <use style="fill:#ffa500;stroke:#ffa500;" x="84.451477" xlink:href="#mb47e167c05" y="100.670201"/>
     <use style="fill:#ffa500;stroke:#ffa500;" x="85.539234" xlink:href="#mb47e167c05" y="99.113248"/>
     <use style="fill:#ffa500;stroke:#ffa500;" x="85.967924" xlink:href="#mb47e167c05" y="97.412381"/>
     <use style="fill:#ffa500;stroke:#ffa500;" x="85.992396" xlink:href="#mb47e167c05" y="101.52613"/>
     <use style="fill:#ffa500;stroke:#ffa500;" x="84.242196" xlink:href="#mb47e167c05" y="102.371755"/>
     <use style="fill:#ffa500;stroke:#ffa500;" x="80.95192" xlink:href="#mb47e167c05" y="102.503304"/>
     <use style="fill:#ffa500;stroke:#ffa500;" x="80.304667" xlink:href="#mb47e167c05" y="104.345338"/>
     <use style="fill:#ffa500;stroke:#ffa500;" x="81.405082" xlink:href="#mb47e167c05" y="104.916186"/>
     <use style="fill:#ffa500;stroke:#ffa500;" x="84.475106" xlink:href="#mb47e167c05" y="104.642097"/>
     <use style="fill:#ffa500;stroke:#ffa500;" x="86.24134" xlink:href="#mb47e167c05" y="106.491687"/>
     <use style="fill:#ffa500;stroke:#ffa500;" x="87.562007" xlink:href="#mb47e167c05" y="107.205075"/>
     <use style="fill:#ffa500;stroke:#ffa500;" x="89.753555" xlink:href="#mb47e167c05" y="106.786384"/>
     <use style="fill:#ffa500;stroke:#ffa500;" x="93.910492" xlink:href="#mb47e167c05" y="104.813489"/>
     <use style="fill:#ffa500;stroke:#ffa500;" x="96.334106" xlink:href="#mb47e167c05" y="106.523286"/>
     <use style="fill:#ffa500;stroke:#ffa500;" x="94.988122" xlink:href="#mb47e167c05" y="101.554295"/>
     <use style="fill:#ffa500;stroke:#ffa500;" x="94.322304" xlink:href="#mb47e167c05" y="100.275553"/>
     <use style="fill:#ffa500;stroke:#ffa500;" x="90.821059" xlink:href="#mb47e167c05" y="101.82495"/>
     <use style="fill:#ffa500;stroke:#ffa500;" x="87.317283" xlink:href="#mb47e167c05" y="102.948786"/>
     <use style="fill:#ffa500;stroke:#ffa500;" x="95.385588" xlink:href="#mb47e167c05" y="94.604852"/>
     <use style="fill:#ffa500;stroke:#ffa500;" x="84.497046" xlink:href="#mb47e167c05" y="108.330285"/>
     <use style="fill:#ffa500;stroke:#ffa500;" x="90.427812" xlink:href="#mb47e167c05" y="109.48366"/>
     <use style="fill:#ffa500;stroke:#ffa500;" x="92.17295" xlink:href="#mb47e167c05" y="107.786915"/>
     <use style="fill:#ffa500;stroke:#ffa500;" x="96.343389" xlink:href="#mb47e167c05" y="108.083673"/>
     <use style="fill:#ffa500;stroke:#ffa500;" x="95.267446" xlink:href="#mb47e167c05" y="111.626574"/>
     <use style="fill:#ffa500;stroke:#ffa500;" x="91.534979" xlink:href="#mb47e167c05" y="111.189336"/>
     <use style="fill:#ffa500;stroke:#ffa500;" x="99.886827" xlink:href="#mb47e167c05" y="113.626947"/>
     <use style="fill:#ffa500;stroke:#ffa500;" x="98.132407" xlink:href="#mb47e167c05" y="113.763305"/>
     <use style="fill:#ffa500;stroke:#ffa500;" x="101.652217" xlink:href="#mb47e167c05" y="115.334684"/>
     <use style="fill:#ffa500;stroke:#ffa500;" x="104.944181" xlink:href="#mb47e167c05" y="115.486841"/>
     <use style="fill:#ffa500;stroke:#ffa500;" x="106.696069" xlink:href="#mb47e167c05" y="114.924923"/>
     <use style="fill:#ffa500;stroke:#ffa500;" x="105.829407" xlink:href="#mb47e167c05" y="116.76627"/>
     <use style="fill:#ffa500;stroke:#ffa500;" x="108.431079" xlink:href="#mb47e167c05" y="111.525937"/>
     <use style="fill:#ffa500;stroke:#ffa500;" x="110.186343" xlink:href="#mb47e167c05" y="111.531433"/>
     <use style="fill:#ffa500;stroke:#ffa500;" x="108.859769" xlink:href="#mb47e167c05" y="109.82507"/>
     <use style="fill:#ffa500;stroke:#ffa500;" x="102.935754" xlink:href="#mb47e167c05" y="109.806523"/>
     <use style="fill:#ffa500;stroke:#ffa500;" x="101.186397" xlink:href="#mb47e167c05" y="110.794001"/>
     <use style="fill:#ffa500;stroke:#ffa500;" x="100.243787" xlink:href="#mb47e167c05" y="99.868541"/>
     <use style="fill:#ffa500;stroke:#ffa500;" x="100.238724" xlink:href="#mb47e167c05" y="99.01742"/>
     <use style="fill:#ffa500;stroke:#ffa500;" x="106.410838" xlink:href="#mb47e167c05" y="103.85967"/>
     <use style="fill:#ffa500;stroke:#ffa500;" x="109.263142" xlink:href="#mb47e167c05" y="103.868601"/>
     <use style="fill:#ffa500;stroke:#ffa500;" x="109.692675" xlink:href="#mb47e167c05" y="102.309587"/>
     <use style="fill:#ffa500;stroke:#ffa500;" x="112.107007" xlink:href="#mb47e167c05" y="102.458997"/>
     <use style="fill:#ffa500;stroke:#ffa500;" x="112.993077" xlink:href="#mb47e167c05" y="103.880279"/>
     <use style="fill:#ffa500;stroke:#ffa500;" x="115.458885" xlink:href="#mb47e167c05" y="112.682746"/>
     <use style="fill:#ffa500;stroke:#ffa500;" x="115.232726" xlink:href="#mb47e167c05" y="111.547232"/>
     <use style="fill:#ffa500;stroke:#ffa500;" x="122.061377" xlink:href="#mb47e167c05" y="116.107836"/>
     <use style="fill:#ffa500;stroke:#ffa500;" x="123.144915" xlink:href="#mb47e167c05" y="113.841617"/>
     <use style="fill:#ffa500;stroke:#ffa500;" x="117.253811" xlink:href="#mb47e167c05" y="119.355352"/>
     <use style="fill:#ffa500;stroke:#ffa500;" x="109.141624" xlink:href="#mb47e167c05" y="120.322909"/>
     <use style="fill:#ffa500;stroke:#ffa500;" x="110.021787" xlink:href="#mb47e167c05" y="120.751217"/>
     <use style="fill:#ffa500;stroke:#ffa500;" x="110.659758" xlink:href="#mb47e167c05" y="117.348796"/>
     <use style="fill:#ffa500;stroke:#ffa500;" x="133.265529" xlink:href="#mb47e167c05" y="118.554378"/>
     <use style="fill:#ffa500;stroke:#ffa500;" x="149.892433" xlink:href="#mb47e167c05" y="110.520942"/>
     <use style="fill:#ffa500;stroke:#ffa500;" x="119.360971" xlink:href="#mb47e167c05" y="104.75132"/>
    </g>
   </g>
   <g id="patch_3">
    <path d="M 50.56 132.84 
L 50.56 37.973714 
" style="fill:none;stroke:#000000;stroke-linecap:square;stroke-linejoin:miter;stroke-width:0.8;"/>
   </g>
   <g id="patch_4">
    <path d="M 162.279265 132.84 
L 162.279265 37.973714 
" style="fill:none;stroke:#000000;stroke-linecap:square;stroke-linejoin:miter;stroke-width:0.8;"/>
   </g>
   <g id="patch_5">
    <path d="M 50.56 132.84 
L 162.279265 132.84 
" style="fill:none;stroke:#000000;stroke-linecap:square;stroke-linejoin:miter;stroke-width:0.8;"/>
   </g>
   <g id="patch_6">
    <path d="M 50.56 37.973714 
L 162.279265 37.973714 
" style="fill:none;stroke:#000000;stroke-linecap:square;stroke-linejoin:miter;stroke-width:0.8;"/>
   </g>
   <g id="text_10">
    <!-- $\frac{Vb}{m} = a (100 + \mathrm{DIW})^{n-1}$ -->
    <defs>
     <path d="M 20.609375 0 
L 7.8125 72.90625 
L 17.484375 72.90625 
L 28.078125 10.203125 
L 63.484375 72.90625 
L 74.21875 72.90625 
L 32.078125 0 
z
" id="DejaVuSans-Oblique-86"/>
     <path d="M 49.515625 33.40625 
Q 49.515625 40.484375 46.265625 44.484375 
Q 43.015625 48.484375 37.3125 48.484375 
Q 33.15625 48.484375 29.515625 46.453125 
Q 25.875 44.4375 23.1875 40.578125 
Q 20.359375 36.53125 18.71875 31.171875 
Q 17.09375 25.828125 17.09375 20.515625 
Q 17.09375 13.765625 20.28125 9.9375 
Q 23.484375 6.109375 29.109375 6.109375 
Q 33.34375 6.109375 36.953125 8.078125 
Q 40.578125 10.0625 43.3125 13.921875 
Q 46.09375 17.921875 47.796875 23.234375 
Q 49.515625 28.5625 49.515625 33.40625 
z
M 21.578125 46.390625 
Q 24.90625 50.875 29.90625 53.4375 
Q 34.90625 56 40.375 56 
Q 48.78125 56 53.734375 50.328125 
Q 58.6875 44.671875 58.6875 35.015625 
Q 58.6875 27.09375 55.78125 19.671875 
Q 52.875 12.25 47.515625 6.5 
Q 44 2.6875 39.40625 0.625 
Q 34.8125 -1.421875 29.78125 -1.421875 
Q 24.46875 -1.421875 20.5625 1.015625 
Q 16.65625 3.46875 14.203125 8.296875 
L 12.59375 0 
L 3.609375 0 
L 18.40625 75.984375 
L 27.390625 75.984375 
z
" id="DejaVuSans-Oblique-98"/>
     <path d="M 89.796875 33.015625 
L 83.40625 0 
L 74.421875 0 
L 80.71875 32.71875 
Q 81.109375 34.8125 81.296875 36.328125 
Q 81.5 37.84375 81.5 38.921875 
Q 81.5 43.3125 79.046875 45.75 
Q 76.609375 48.1875 72.21875 48.1875 
Q 65.671875 48.1875 60.546875 43.28125 
Q 55.421875 38.375 53.90625 30.515625 
L 47.90625 0 
L 38.921875 0 
L 45.3125 32.71875 
Q 45.703125 34.515625 45.890625 36.046875 
Q 46.09375 37.59375 46.09375 38.8125 
Q 46.09375 43.265625 43.65625 45.71875 
Q 41.21875 48.1875 36.921875 48.1875 
Q 30.28125 48.1875 25.140625 43.28125 
Q 20.015625 38.375 18.5 30.515625 
L 12.5 0 
L 3.515625 0 
L 14.203125 54.6875 
L 23.1875 54.6875 
L 21.484375 46.1875 
Q 25.140625 50.984375 30.046875 53.484375 
Q 34.96875 56 40.578125 56 
Q 46.53125 56 50.359375 52.875 
Q 54.203125 49.75 54.984375 44.1875 
Q 59.078125 49.953125 64.46875 52.96875 
Q 69.875 56 75.875 56 
Q 82.90625 56 86.734375 51.953125 
Q 90.578125 47.90625 90.578125 40.484375 
Q 90.578125 38.875 90.375 36.9375 
Q 90.1875 35.015625 89.796875 33.015625 
z
" id="DejaVuSans-Oblique-109"/>
     <path d="M 10.59375 45.40625 
L 73.1875 45.40625 
L 73.1875 37.203125 
L 10.59375 37.203125 
z
M 10.59375 25.484375 
L 73.1875 25.484375 
L 73.1875 17.1875 
L 10.59375 17.1875 
z
" id="DejaVuSans-61"/>
     <path d="M 53.71875 31.203125 
L 47.609375 0 
L 38.625 0 
L 40.28125 8.296875 
Q 36.328125 3.421875 31.265625 1 
Q 26.21875 -1.421875 20.015625 -1.421875 
Q 13.03125 -1.421875 8.5625 2.84375 
Q 4.109375 7.125 4.109375 13.8125 
Q 4.109375 23.390625 11.75 28.953125 
Q 19.390625 34.515625 32.8125 34.515625 
L 45.3125 34.515625 
L 45.796875 36.921875 
Q 45.90625 37.3125 45.953125 37.765625 
Q 46 38.234375 46 39.203125 
Q 46 43.5625 42.453125 45.96875 
Q 38.921875 48.390625 32.515625 48.390625 
Q 28.125 48.390625 23.5 47.265625 
Q 18.890625 46.140625 14.015625 43.890625 
L 15.578125 52.203125 
Q 20.65625 54.109375 25.515625 55.046875 
Q 30.375 56 34.90625 56 
Q 44.578125 56 49.625 51.796875 
Q 54.6875 47.609375 54.6875 39.59375 
Q 54.6875 37.984375 54.4375 35.8125 
Q 54.203125 33.640625 53.71875 31.203125 
z
M 44 27.484375 
L 35.015625 27.484375 
Q 23.96875 27.484375 18.671875 24.53125 
Q 13.375 21.578125 13.375 15.375 
Q 13.375 11.078125 16.078125 8.640625 
Q 18.796875 6.203125 23.578125 6.203125 
Q 30.90625 6.203125 36.375 11.453125 
Q 41.84375 16.703125 43.609375 25.484375 
z
" id="DejaVuSans-Oblique-97"/>
     <path d="M 31 75.875 
Q 24.46875 64.65625 21.28125 53.65625 
Q 18.109375 42.671875 18.109375 31.390625 
Q 18.109375 20.125 21.3125 9.0625 
Q 24.515625 -2 31 -13.1875 
L 23.1875 -13.1875 
Q 15.875 -1.703125 12.234375 9.375 
Q 8.59375 20.453125 8.59375 31.390625 
Q 8.59375 42.28125 12.203125 53.3125 
Q 15.828125 64.359375 23.1875 75.875 
z
" id="DejaVuSans-40"/>
     <path d="M 46 62.703125 
L 46 35.5 
L 73.1875 35.5 
L 73.1875 27.203125 
L 46 27.203125 
L 46 0 
L 37.796875 0 
L 37.796875 27.203125 
L 10.59375 27.203125 
L 10.59375 35.5 
L 37.796875 35.5 
L 37.796875 62.703125 
z
" id="DejaVuSans-43"/>
     <path d="M 9.8125 72.90625 
L 19.671875 72.90625 
L 19.671875 0 
L 9.8125 0 
z
" id="DejaVuSans-73"/>
     <path d="M 3.328125 72.90625 
L 13.28125 72.90625 
L 28.609375 11.28125 
L 43.890625 72.90625 
L 54.984375 72.90625 
L 70.3125 11.28125 
L 85.59375 72.90625 
L 95.609375 72.90625 
L 77.296875 0 
L 64.890625 0 
L 49.515625 63.28125 
L 33.984375 0 
L 21.578125 0 
z
" id="DejaVuSans-87"/>
     <path d="M 8.015625 75.875 
L 15.828125 75.875 
Q 23.140625 64.359375 26.78125 53.3125 
Q 30.421875 42.28125 30.421875 31.390625 
Q 30.421875 20.453125 26.78125 9.375 
Q 23.140625 -1.703125 15.828125 -13.1875 
L 8.015625 -13.1875 
Q 14.5 -2 17.703125 9.0625 
Q 20.90625 20.125 20.90625 31.390625 
Q 20.90625 42.671875 17.703125 53.65625 
Q 14.5 64.65625 8.015625 75.875 
z
" id="DejaVuSans-41"/>
     <path d="M 55.71875 33.015625 
L 49.3125 0 
L 40.28125 0 
L 46.6875 32.671875 
Q 47.125 34.96875 47.359375 36.71875 
Q 47.609375 38.484375 47.609375 39.5 
Q 47.609375 43.609375 45.015625 45.890625 
Q 42.4375 48.1875 37.796875 48.1875 
Q 30.5625 48.1875 25.34375 43.375 
Q 20.125 38.578125 18.5 30.328125 
L 12.5 0 
L 3.515625 0 
L 14.109375 54.6875 
L 23.09375 54.6875 
L 21.296875 46.09375 
Q 25.046875 50.828125 30.3125 53.40625 
Q 35.59375 56 41.40625 56 
Q 48.640625 56 52.609375 52.09375 
Q 56.59375 48.1875 56.59375 41.109375 
Q 56.59375 39.359375 56.375 37.359375 
Q 56.15625 35.359375 55.71875 33.015625 
z
" id="DejaVuSans-Oblique-110"/>
     <path d="M 10.59375 35.5 
L 73.1875 35.5 
L 73.1875 27.203125 
L 10.59375 27.203125 
z
" id="DejaVuSans-8722"/>
    </defs>
    <g transform="translate(74.516023 65.248065)scale(0.08 -0.08)">
     <use transform="translate(0 44.810938)scale(0.7)" xlink:href="#DejaVuSans-Oblique-86"/>
     <use transform="translate(47.885742 44.810938)scale(0.7)" xlink:href="#DejaVuSans-Oblique-98"/>
     <use transform="translate(12 -26.634375)scale(0.7)" xlink:href="#DejaVuSans-Oblique-109"/>
     <use transform="translate(124.301758 0.01875)" xlink:href="#DejaVuSans-61"/>
     <use transform="translate(227.573242 0.01875)" xlink:href="#DejaVuSans-Oblique-97"/>
     <use transform="translate(288.852539 0.01875)" xlink:href="#DejaVuSans-40"/>
     <use transform="translate(327.866211 0.01875)" xlink:href="#DejaVuSans-49"/>
     <use transform="translate(391.489258 0.01875)" xlink:href="#DejaVuSans-48"/>
     <use transform="translate(455.112305 0.01875)" xlink:href="#DejaVuSans-48"/>
     <use transform="translate(538.217773 0.01875)" xlink:href="#DejaVuSans-43"/>
     <use transform="translate(641.489258 0.01875)" xlink:href="#DejaVuSans-68"/>
     <use transform="translate(718.491211 0.01875)" xlink:href="#DejaVuSans-73"/>
     <use transform="translate(747.967773 0.01875)" xlink:href="#DejaVuSans-87"/>
     <use transform="translate(846.844727 0.01875)" xlink:href="#DejaVuSans-41"/>
     <use transform="translate(886.81543 38.3)scale(0.7)" xlink:href="#DejaVuSans-Oblique-110"/>
     <use transform="translate(944.818359 38.3)scale(0.7)" xlink:href="#DejaVuSans-8722"/>
     <use transform="translate(1017.108398 38.3)scale(0.7)" xlink:href="#DejaVuSans-49"/>
     <path d="M 0 18.815625 
L 0 25.065625 
L 92.319336 25.065625 
L 92.319336 18.815625 
L 0 18.815625 
z
"/>
    </g>
   </g>
   <g id="text_11">
    <!-- a -->
    <g transform="translate(29.209123 28.366866)scale(0.16 -0.16)">
     <use xlink:href="#DejaVuSans-97"/>
    </g>
   </g>
  </g>
  <g id="axes_2">
   <g id="patch_7">
    <path d="M 220.250368 132.84 
L 331.969632 132.84 
L 331.969632 37.973714 
L 220.250368 37.973714 
z
" style="fill:#ffffff;"/>
   </g>
   <g id="matplotlib.axis_3">
    <g id="xtick_4">
     <g id="line2d_11">
      <g>
       <use style="stroke:#000000;stroke-width:0.8;" x="230.406664" xlink:href="#m8aa2a037ca" y="132.84"/>
      </g>
     </g>
     <g id="text_12">
      <!-- 50 -->
      <defs>
       <path d="M 10.796875 72.90625 
L 49.515625 72.90625 
L 49.515625 64.59375 
L 19.828125 64.59375 
L 19.828125 46.734375 
Q 21.96875 47.46875 24.109375 47.828125 
Q 26.265625 48.1875 28.421875 48.1875 
Q 40.625 48.1875 47.75 41.5 
Q 54.890625 34.8125 54.890625 23.390625 
Q 54.890625 11.625 47.5625 5.09375 
Q 40.234375 -1.421875 26.90625 -1.421875 
Q 22.3125 -1.421875 17.546875 -0.640625 
Q 12.796875 0.140625 7.71875 1.703125 
L 7.71875 11.625 
Q 12.109375 9.234375 16.796875 8.0625 
Q 21.484375 6.890625 26.703125 6.890625 
Q 35.15625 6.890625 40.078125 11.328125 
Q 45.015625 15.765625 45.015625 23.390625 
Q 45.015625 31 40.078125 35.4375 
Q 35.15625 39.890625 26.703125 39.890625 
Q 22.75 39.890625 18.8125 39.015625 
Q 14.890625 38.140625 10.796875 36.28125 
z
" id="DejaVuSans-53"/>
      </defs>
      <g transform="translate(224.044164 147.438438)scale(0.1 -0.1)">
       <use xlink:href="#DejaVuSans-53"/>
       <use x="63.623047" xlink:href="#DejaVuSans-48"/>
      </g>
     </g>
    </g>
    <g id="xtick_5">
     <g id="line2d_12">
      <g>
       <use style="stroke:#000000;stroke-width:0.8;" x="281.188148" xlink:href="#m8aa2a037ca" y="132.84"/>
      </g>
     </g>
     <g id="text_13">
      <!-- 100 -->
      <g transform="translate(271.644398 147.438438)scale(0.1 -0.1)">
       <use xlink:href="#DejaVuSans-49"/>
       <use x="63.623047" xlink:href="#DejaVuSans-48"/>
       <use x="127.246094" xlink:href="#DejaVuSans-48"/>
      </g>
     </g>
    </g>
    <g id="xtick_6">
     <g id="line2d_13">
      <g>
       <use style="stroke:#000000;stroke-width:0.8;" x="331.969632" xlink:href="#m8aa2a037ca" y="132.84"/>
      </g>
     </g>
     <g id="text_14">
      <!-- 150 -->
      <g transform="translate(322.425882 147.438438)scale(0.1 -0.1)">
       <use xlink:href="#DejaVuSans-49"/>
       <use x="63.623047" xlink:href="#DejaVuSans-53"/>
       <use x="127.246094" xlink:href="#DejaVuSans-48"/>
      </g>
     </g>
    </g>
    <g id="text_15">
     <!-- Weight [kg] -->
     <g transform="translate(246.84125 161.116563)scale(0.1 -0.1)">
      <use xlink:href="#DejaVuSans-87"/>
      <use x="98.798828" xlink:href="#DejaVuSans-101"/>
      <use x="160.322266" xlink:href="#DejaVuSans-105"/>
      <use x="188.105469" xlink:href="#DejaVuSans-103"/>
      <use x="251.582031" xlink:href="#DejaVuSans-104"/>
      <use x="314.960938" xlink:href="#DejaVuSans-116"/>
      <use x="354.169922" xlink:href="#DejaVuSans-32"/>
      <use x="385.957031" xlink:href="#DejaVuSans-91"/>
      <use x="424.970703" xlink:href="#DejaVuSans-107"/>
      <use x="482.880859" xlink:href="#DejaVuSans-103"/>
      <use x="546.357422" xlink:href="#DejaVuSans-93"/>
     </g>
    </g>
   </g>
   <g id="matplotlib.axis_4">
    <g id="ytick_5">
     <g id="line2d_14">
      <g>
       <use style="stroke:#000000;stroke-width:0.8;" x="220.250368" xlink:href="#mf66b05a917" y="132.84"/>
      </g>
     </g>
     <g id="text_16">
      <!-- 1 -->
      <g transform="translate(206.887868 136.639219)scale(0.1 -0.1)">
       <use xlink:href="#DejaVuSans-49"/>
      </g>
     </g>
    </g>
    <g id="ytick_6">
     <g id="line2d_15">
      <g>
       <use style="stroke:#000000;stroke-width:0.8;" x="220.250368" xlink:href="#mf66b05a917" y="105.735347"/>
      </g>
     </g>
     <g id="text_17">
      <!-- 2 -->
      <g transform="translate(206.887868 109.534566)scale(0.1 -0.1)">
       <use xlink:href="#DejaVuSans-50"/>
      </g>
     </g>
    </g>
    <g id="ytick_7">
     <g id="line2d_16">
      <g>
       <use style="stroke:#000000;stroke-width:0.8;" x="220.250368" xlink:href="#mf66b05a917" y="78.630694"/>
      </g>
     </g>
     <g id="text_18">
      <!-- 3 -->
      <defs>
       <path d="M 40.578125 39.3125 
Q 47.65625 37.796875 51.625 33 
Q 55.609375 28.21875 55.609375 21.1875 
Q 55.609375 10.40625 48.1875 4.484375 
Q 40.765625 -1.421875 27.09375 -1.421875 
Q 22.515625 -1.421875 17.65625 -0.515625 
Q 12.796875 0.390625 7.625 2.203125 
L 7.625 11.71875 
Q 11.71875 9.328125 16.59375 8.109375 
Q 21.484375 6.890625 26.8125 6.890625 
Q 36.078125 6.890625 40.9375 10.546875 
Q 45.796875 14.203125 45.796875 21.1875 
Q 45.796875 27.640625 41.28125 31.265625 
Q 36.765625 34.90625 28.71875 34.90625 
L 20.21875 34.90625 
L 20.21875 43.015625 
L 29.109375 43.015625 
Q 36.375 43.015625 40.234375 45.921875 
Q 44.09375 48.828125 44.09375 54.296875 
Q 44.09375 59.90625 40.109375 62.90625 
Q 36.140625 65.921875 28.71875 65.921875 
Q 24.65625 65.921875 20.015625 65.03125 
Q 15.375 64.15625 9.8125 62.3125 
L 9.8125 71.09375 
Q 15.4375 72.65625 20.34375 73.4375 
Q 25.25 74.21875 29.59375 74.21875 
Q 40.828125 74.21875 47.359375 69.109375 
Q 53.90625 64.015625 53.90625 55.328125 
Q 53.90625 49.265625 50.4375 45.09375 
Q 46.96875 40.921875 40.578125 39.3125 
z
" id="DejaVuSans-51"/>
      </defs>
      <g transform="translate(206.887868 82.429913)scale(0.1 -0.1)">
       <use xlink:href="#DejaVuSans-51"/>
      </g>
     </g>
    </g>
    <g id="ytick_8">
     <g id="line2d_17">
      <g>
       <use style="stroke:#000000;stroke-width:0.8;" x="220.250368" xlink:href="#mf66b05a917" y="51.526041"/>
      </g>
     </g>
     <g id="text_19">
      <!-- 4 -->
      <g transform="translate(206.887868 55.32526)scale(0.1 -0.1)">
       <use xlink:href="#DejaVuSans-52"/>
      </g>
     </g>
    </g>
    <g id="text_20">
     <!-- Plasma volume [l] -->
     <defs>
      <path d="M 19.671875 64.796875 
L 19.671875 37.40625 
L 32.078125 37.40625 
Q 38.96875 37.40625 42.71875 40.96875 
Q 46.484375 44.53125 46.484375 51.125 
Q 46.484375 57.671875 42.71875 61.234375 
Q 38.96875 64.796875 32.078125 64.796875 
z
M 9.8125 72.90625 
L 32.078125 72.90625 
Q 44.34375 72.90625 50.609375 67.359375 
Q 56.890625 61.8125 56.890625 51.125 
Q 56.890625 40.328125 50.609375 34.8125 
Q 44.34375 29.296875 32.078125 29.296875 
L 19.671875 29.296875 
L 19.671875 0 
L 9.8125 0 
z
" id="DejaVuSans-80"/>
      <path d="M 44.28125 53.078125 
L 44.28125 44.578125 
Q 40.484375 46.53125 36.375 47.5 
Q 32.28125 48.484375 27.875 48.484375 
Q 21.1875 48.484375 17.84375 46.4375 
Q 14.5 44.390625 14.5 40.28125 
Q 14.5 37.15625 16.890625 35.375 
Q 19.28125 33.59375 26.515625 31.984375 
L 29.59375 31.296875 
Q 39.15625 29.25 43.1875 25.515625 
Q 47.21875 21.78125 47.21875 15.09375 
Q 47.21875 7.46875 41.1875 3.015625 
Q 35.15625 -1.421875 24.609375 -1.421875 
Q 20.21875 -1.421875 15.453125 -0.5625 
Q 10.6875 0.296875 5.421875 2 
L 5.421875 11.28125 
Q 10.40625 8.6875 15.234375 7.390625 
Q 20.0625 6.109375 24.8125 6.109375 
Q 31.15625 6.109375 34.5625 8.28125 
Q 37.984375 10.453125 37.984375 14.40625 
Q 37.984375 18.0625 35.515625 20.015625 
Q 33.0625 21.96875 24.703125 23.78125 
L 21.578125 24.515625 
Q 13.234375 26.265625 9.515625 29.90625 
Q 5.8125 33.546875 5.8125 39.890625 
Q 5.8125 47.609375 11.28125 51.796875 
Q 16.75 56 26.8125 56 
Q 31.78125 56 36.171875 55.265625 
Q 40.578125 54.546875 44.28125 53.078125 
z
" id="DejaVuSans-115"/>
     </defs>
     <g transform="translate(200.80818 130.406076)rotate(-90)scale(0.1 -0.1)">
      <use xlink:href="#DejaVuSans-80"/>
      <use x="60.302734" xlink:href="#DejaVuSans-108"/>
      <use x="88.085938" xlink:href="#DejaVuSans-97"/>
      <use x="149.365234" xlink:href="#DejaVuSans-115"/>
      <use x="201.464844" xlink:href="#DejaVuSans-109"/>
      <use x="298.876953" xlink:href="#DejaVuSans-97"/>
      <use x="360.15625" xlink:href="#DejaVuSans-32"/>
      <use x="391.943359" xlink:href="#DejaVuSans-118"/>
      <use x="451.123047" xlink:href="#DejaVuSans-111"/>
      <use x="512.304688" xlink:href="#DejaVuSans-108"/>
      <use x="540.087891" xlink:href="#DejaVuSans-117"/>
      <use x="603.466797" xlink:href="#DejaVuSans-109"/>
      <use x="700.878906" xlink:href="#DejaVuSans-101"/>
      <use x="762.402344" xlink:href="#DejaVuSans-32"/>
      <use x="794.189453" xlink:href="#DejaVuSans-91"/>
      <use x="833.203125" xlink:href="#DejaVuSans-108"/>
      <use x="860.986328" xlink:href="#DejaVuSans-93"/>
     </g>
    </g>
   </g>
   <g id="line2d_18">
    <path clip-path="url(#p93eeb97d4e)" d="M 220.250368 119.889614 
L 226.953524 117.541761 
L 234.570746 115.114637 
L 243.102035 112.63515 
L 252.648954 110.097096 
L 263.313066 107.49728 
L 275.195933 104.834612 
L 288.399119 102.109455 
L 303.024186 99.323154 
L 319.172698 96.477682 
L 331.868069 94.382679 
L 331.868069 94.382679 
" style="fill:none;stroke:#1f77b4;stroke-linecap:square;stroke-width:1.5;"/>
   </g>
   <g id="line2d_19">
    <defs>
     <path d="M 0 1.5 
C 0.397805 1.5 0.77937 1.341951 1.06066 1.06066 
C 1.341951 0.77937 1.5 0.397805 1.5 0 
C 1.5 -0.397805 1.341951 -0.77937 1.06066 -1.06066 
C 0.77937 -1.341951 0.397805 -1.5 0 -1.5 
C -0.397805 -1.5 -0.77937 -1.341951 -1.06066 -1.06066 
C -1.341951 -0.77937 -1.5 -0.397805 -1.5 0 
C -1.5 0.397805 -1.341951 0.77937 -1.06066 1.06066 
C -0.77937 1.341951 -0.397805 1.5 0 1.5 
z
" id="mafcae0eab6" style="stroke:#1f77b4;"/>
    </defs>
    <g clip-path="url(#p93eeb97d4e)">
     <use style="fill:#1f77b4;stroke:#1f77b4;" x="231.137918" xlink:href="#mafcae0eab6" y="116.180482"/>
    </g>
   </g>
   <g id="line2d_20">
    <path clip-path="url(#p93eeb97d4e)" d="M 220.250368 117.431026 
L 226.851961 114.975106 
L 234.266057 112.461543 
L 242.492658 109.911619 
L 251.734888 107.285427 
L 261.992747 104.607247 
L 273.3678 101.871795 
L 285.961608 99.07623 
L 299.875734 96.219465 
L 315.211743 93.301663 
L 331.868069 90.358469 
L 331.868069 90.358469 
" style="fill:none;stroke:#ff7f0e;stroke-linecap:square;stroke-width:1.5;"/>
   </g>
   <g id="line2d_21">
    <defs>
     <path d="M 0 1.5 
C 0.397805 1.5 0.77937 1.341951 1.06066 1.06066 
C 1.341951 0.77937 1.5 0.397805 1.5 0 
C 1.5 -0.397805 1.341951 -0.77937 1.06066 -1.06066 
C 0.77937 -1.341951 0.397805 -1.5 0 -1.5 
C -0.397805 -1.5 -0.77937 -1.341951 -1.06066 -1.06066 
C -1.341951 -0.77937 -1.5 -0.397805 -1.5 0 
C -1.5 0.397805 -1.341951 0.77937 -1.06066 1.06066 
C -0.77937 1.341951 -0.397805 1.5 0 1.5 
z
" id="mc8592d164a" style="stroke:#ff7f0e;"/>
    </defs>
    <g clip-path="url(#p93eeb97d4e)">
     <use style="fill:#ff7f0e;stroke:#ff7f0e;" x="236.271926" xlink:href="#mc8592d164a" y="111.818734"/>
    </g>
   </g>
   <g id="line2d_22">
    <path clip-path="url(#p93eeb97d4e)" d="M 220.250368 114.1939 
L 226.648835 111.628718 
L 233.758242 109.02367 
L 241.680154 106.362546 
L 250.516132 103.634928 
L 260.266177 100.862362 
L 271.031852 98.035378 
L 282.914719 95.14794 
L 296.016342 92.196548 
L 310.438283 89.179581 
L 326.282106 86.096784 
L 331.868069 85.05995 
L 331.868069 85.05995 
" style="fill:none;stroke:#2ca02c;stroke-linecap:square;stroke-width:1.5;"/>
   </g>
   <g id="line2d_23">
    <defs>
     <path d="M 0 1.5 
C 0.397805 1.5 0.77937 1.341951 1.06066 1.06066 
C 1.341951 0.77937 1.5 0.397805 1.5 0 
C 1.5 -0.397805 1.341951 -0.77937 1.06066 -1.06066 
C 0.77937 -1.341951 0.397805 -1.5 0 -1.5 
C -0.397805 -1.5 -0.77937 -1.341951 -1.06066 -1.06066 
C -1.341951 -0.77937 -1.5 -0.397805 -1.5 0 
C -1.5 0.397805 -1.341951 0.77937 -1.06066 1.06066 
C -0.77937 1.341951 -0.397805 1.5 0 1.5 
z
" id="m27fb9d09bd" style="stroke:#2ca02c;"/>
    </defs>
    <g clip-path="url(#p93eeb97d4e)">
     <use style="fill:#2ca02c;stroke:#2ca02c;" x="243.305161" xlink:href="#m27fb9d09bd" y="105.84344"/>
    </g>
   </g>
   <g id="line2d_24">
    <path clip-path="url(#p93eeb97d4e)" d="M 220.250368 110.269019 
L 226.344146 107.610817 
L 233.148865 104.88821 
L 240.664524 102.122814 
L 248.992688 99.297614 
L 258.234918 96.401314 
L 268.391214 93.45525 
L 279.563141 90.449443 
L 291.85226 87.377366 
L 305.258572 84.257925 
L 319.985202 81.063286 
L 331.868069 78.635717 
L 331.868069 78.635717 
" style="fill:none;stroke:#d62728;stroke-linecap:square;stroke-width:1.5;"/>
   </g>
   <g id="line2d_25">
    <defs>
     <path d="M 0 1.5 
C 0.397805 1.5 0.77937 1.341951 1.06066 1.06066 
C 1.341951 0.77937 1.5 0.397805 1.5 0 
C 1.5 -0.397805 1.341951 -0.77937 1.06066 -1.06066 
C 0.77937 -1.341951 0.397805 -1.5 0 -1.5 
C -0.397805 -1.5 -0.77937 -1.341951 -1.06066 -1.06066 
C -1.341951 -0.77937 -1.5 -0.397805 -1.5 0 
C -1.5 0.397805 -1.341951 0.77937 -1.06066 1.06066 
C -0.77937 1.341951 -0.397805 1.5 0 1.5 
z
" id="md961356bcd" style="stroke:#d62728;"/>
    </defs>
    <g clip-path="url(#p93eeb97d4e)">
     <use style="fill:#d62728;stroke:#d62728;" x="252.237624" xlink:href="#md961356bcd" y="98.254602"/>
    </g>
   </g>
   <g id="line2d_26">
    <path clip-path="url(#p93eeb97d4e)" d="M 220.250368 105.743841 
L 226.14102 102.936216 
L 232.64105 100.086082 
L 239.85202 97.170103 
L 247.773932 94.209043 
L 256.508347 91.184794 
L 266.055266 88.116452 
L 276.516252 84.989435 
L 287.992867 81.793616 
L 300.485112 78.547813 
L 314.09455 75.243002 
L 328.922743 71.872995 
L 331.868069 71.228918 
L 331.868069 71.228918 
" style="fill:none;stroke:#9467bd;stroke-linecap:square;stroke-width:1.5;"/>
   </g>
   <g id="line2d_27">
    <defs>
     <path d="M 0 1.5 
C 0.397805 1.5 0.77937 1.341951 1.06066 1.06066 
C 1.341951 0.77937 1.5 0.397805 1.5 0 
C 1.5 -0.397805 1.341951 -0.77937 1.06066 -1.06066 
C 0.77937 -1.341951 0.397805 -1.5 0 -1.5 
C -0.397805 -1.5 -0.77937 -1.341951 -1.06066 -1.06066 
C -1.341951 -0.77937 -1.5 -0.397805 -1.5 0 
C -1.5 0.397805 -1.341951 0.77937 -1.06066 1.06066 
C -0.77937 1.341951 -0.397805 1.5 0 1.5 
z
" id="mfd0e079382" style="stroke:#9467bd;"/>
    </defs>
    <g clip-path="url(#p93eeb97d4e)">
     <use style="fill:#9467bd;stroke:#9467bd;" x="263.069315" xlink:href="#mfd0e079382" y="89.052219"/>
    </g>
   </g>
   <g id="line2d_28">
    <path clip-path="url(#p93eeb97d4e)" d="M 220.250368 100.696895 
L 225.937894 97.729473 
L 232.234798 94.699773 
L 239.14108 91.628053 
L 246.758302 88.489329 
L 255.086466 85.303675 
L 264.12557 82.086594 
L 273.977178 78.817444 
L 284.742852 75.481256 
L 296.524157 72.067491 
L 309.321091 68.595761 
L 323.133654 65.081778 
L 331.868069 62.968091 
L 331.868069 62.968091 
" style="fill:none;stroke:#8c564b;stroke-linecap:square;stroke-width:1.5;"/>
   </g>
   <g id="line2d_29">
    <defs>
     <path d="M 0 1.5 
C 0.397805 1.5 0.77937 1.341951 1.06066 1.06066 
C 1.341951 0.77937 1.5 0.397805 1.5 0 
C 1.5 -0.397805 1.341951 -0.77937 1.06066 -1.06066 
C 0.77937 -1.341951 0.397805 -1.5 0 -1.5 
C -0.397805 -1.5 -0.77937 -1.341951 -1.06066 -1.06066 
C -1.341951 -0.77937 -1.5 -0.397805 -1.5 0 
C -1.5 0.397805 -1.341951 0.77937 -1.06066 1.06066 
C -0.77937 1.341951 -0.397805 1.5 0 1.5 
z
" id="m1a3448f934" style="stroke:#8c564b;"/>
    </defs>
    <g clip-path="url(#p93eeb97d4e)">
     <use style="fill:#8c564b;stroke:#8c564b;" x="275.800233" xlink:href="#m1a3448f934" y="78.236291"/>
    </g>
   </g>
   <g id="line2d_30">
    <path clip-path="url(#p93eeb97d4e)" d="M 220.250368 95.195792 
L 225.734768 92.064227 
L 231.726983 88.899328 
L 238.328576 85.666715 
L 245.539547 82.386567 
L 253.359895 79.074501 
L 261.891184 75.703769 
L 271.234978 72.254835 
L 281.391274 68.747783 
L 292.360075 65.198648 
L 304.242942 61.590287 
L 317.141439 57.910027 
L 331.055566 54.175216 
L 331.868069 53.963901 
L 331.868069 53.963901 
" style="fill:none;stroke:#e377c2;stroke-linecap:square;stroke-width:1.5;"/>
   </g>
   <g id="line2d_31">
    <defs>
     <path d="M 0 1.5 
C 0.397805 1.5 0.77937 1.341951 1.06066 1.06066 
C 1.341951 0.77937 1.5 0.397805 1.5 0 
C 1.5 -0.397805 1.341951 -0.77937 1.06066 -1.06066 
C 0.77937 -1.341951 0.397805 -1.5 0 -1.5 
C -0.397805 -1.5 -0.77937 -1.341951 -1.06066 -1.06066 
C -1.341951 -0.77937 -1.5 -0.397805 -1.5 0 
C -1.5 0.397805 -1.341951 0.77937 -1.06066 1.06066 
C -0.77937 1.341951 -0.397805 1.5 0 1.5 
z
" id="m76b147e6a7" style="stroke:#e377c2;"/>
    </defs>
    <g clip-path="url(#p93eeb97d4e)">
     <use style="fill:#e377c2;stroke:#e377c2;" x="290.430378" xlink:href="#m76b147e6a7" y="65.806817"/>
    </g>
   </g>
   <g id="patch_8">
    <path d="M 220.250368 132.84 
L 220.250368 37.973714 
" style="fill:none;stroke:#000000;stroke-linecap:square;stroke-linejoin:miter;stroke-width:0.8;"/>
   </g>
   <g id="patch_9">
    <path d="M 331.969632 132.84 
L 331.969632 37.973714 
" style="fill:none;stroke:#000000;stroke-linecap:square;stroke-linejoin:miter;stroke-width:0.8;"/>
   </g>
   <g id="patch_10">
    <path d="M 220.250368 132.84 
L 331.969632 132.84 
" style="fill:none;stroke:#000000;stroke-linecap:square;stroke-linejoin:miter;stroke-width:0.8;"/>
   </g>
   <g id="patch_11">
    <path d="M 220.250368 37.973714 
L 331.969632 37.973714 
" style="fill:none;stroke:#000000;stroke-linecap:square;stroke-linejoin:miter;stroke-width:0.8;"/>
   </g>
   <g id="text_21">
    <!-- b -->
    <defs>
     <path d="M 48.6875 27.296875 
Q 48.6875 37.203125 44.609375 42.84375 
Q 40.53125 48.484375 33.40625 48.484375 
Q 26.265625 48.484375 22.1875 42.84375 
Q 18.109375 37.203125 18.109375 27.296875 
Q 18.109375 17.390625 22.1875 11.75 
Q 26.265625 6.109375 33.40625 6.109375 
Q 40.53125 6.109375 44.609375 11.75 
Q 48.6875 17.390625 48.6875 27.296875 
z
M 18.109375 46.390625 
Q 20.953125 51.265625 25.265625 53.625 
Q 29.59375 56 35.59375 56 
Q 45.5625 56 51.78125 48.09375 
Q 58.015625 40.1875 58.015625 27.296875 
Q 58.015625 14.40625 51.78125 6.484375 
Q 45.5625 -1.421875 35.59375 -1.421875 
Q 29.59375 -1.421875 25.265625 0.953125 
Q 20.953125 3.328125 18.109375 8.203125 
L 18.109375 0 
L 9.078125 0 
L 9.078125 75.984375 
L 18.109375 75.984375 
z
" id="DejaVuSans-98"/>
    </defs>
    <g transform="translate(196.890885 27.131853)scale(0.16 -0.16)">
     <use xlink:href="#DejaVuSans-98"/>
    </g>
   </g>
   <g id="text_22">
    <!-- male -->
    <g transform="translate(261.23 31.973714)scale(0.12 -0.12)">
     <use xlink:href="#DejaVuSans-109"/>
     <use x="97.412109" xlink:href="#DejaVuSans-97"/>
     <use x="158.691406" xlink:href="#DejaVuSans-108"/>
     <use x="186.474609" xlink:href="#DejaVuSans-101"/>
    </g>
   </g>
  </g>
  <g id="axes_3">
   <g id="patch_12">
    <path d="M 389.940735 132.84 
L 501.66 132.84 
L 501.66 37.973714 
L 389.940735 37.973714 
z
" style="fill:#ffffff;"/>
   </g>
   <g id="matplotlib.axis_5">
    <g id="xtick_7">
     <g id="line2d_32">
      <g>
       <use style="stroke:#000000;stroke-width:0.8;" x="400.097032" xlink:href="#m8aa2a037ca" y="132.84"/>
      </g>
     </g>
     <g id="text_23">
      <!-- 50 -->
      <g transform="translate(393.734532 147.438438)scale(0.1 -0.1)">
       <use xlink:href="#DejaVuSans-53"/>
       <use x="63.623047" xlink:href="#DejaVuSans-48"/>
      </g>
     </g>
    </g>
    <g id="xtick_8">
     <g id="line2d_33">
      <g>
       <use style="stroke:#000000;stroke-width:0.8;" x="450.878516" xlink:href="#m8aa2a037ca" y="132.84"/>
      </g>
     </g>
     <g id="text_24">
      <!-- 100 -->
      <g transform="translate(441.334766 147.438438)scale(0.1 -0.1)">
       <use xlink:href="#DejaVuSans-49"/>
       <use x="63.623047" xlink:href="#DejaVuSans-48"/>
       <use x="127.246094" xlink:href="#DejaVuSans-48"/>
      </g>
     </g>
    </g>
    <g id="xtick_9">
     <g id="line2d_34">
      <g>
       <use style="stroke:#000000;stroke-width:0.8;" x="501.66" xlink:href="#m8aa2a037ca" y="132.84"/>
      </g>
     </g>
     <g id="text_25">
      <!-- 150 -->
      <g transform="translate(492.11625 147.438438)scale(0.1 -0.1)">
       <use xlink:href="#DejaVuSans-49"/>
       <use x="63.623047" xlink:href="#DejaVuSans-53"/>
       <use x="127.246094" xlink:href="#DejaVuSans-48"/>
      </g>
     </g>
    </g>
    <g id="text_26">
     <!-- Weight [kg] -->
     <g transform="translate(416.531618 161.116563)scale(0.1 -0.1)">
      <use xlink:href="#DejaVuSans-87"/>
      <use x="98.798828" xlink:href="#DejaVuSans-101"/>
      <use x="160.322266" xlink:href="#DejaVuSans-105"/>
      <use x="188.105469" xlink:href="#DejaVuSans-103"/>
      <use x="251.582031" xlink:href="#DejaVuSans-104"/>
      <use x="314.960938" xlink:href="#DejaVuSans-116"/>
      <use x="354.169922" xlink:href="#DejaVuSans-32"/>
      <use x="385.957031" xlink:href="#DejaVuSans-91"/>
      <use x="424.970703" xlink:href="#DejaVuSans-107"/>
      <use x="482.880859" xlink:href="#DejaVuSans-103"/>
      <use x="546.357422" xlink:href="#DejaVuSans-93"/>
     </g>
    </g>
   </g>
   <g id="matplotlib.axis_6">
    <g id="ytick_9">
     <g id="line2d_35">
      <g>
       <use style="stroke:#000000;stroke-width:0.8;" x="389.940735" xlink:href="#mf66b05a917" y="132.84"/>
      </g>
     </g>
     <g id="text_27">
      <!-- 1 -->
      <g transform="translate(376.578235 136.639219)scale(0.1 -0.1)">
       <use xlink:href="#DejaVuSans-49"/>
      </g>
     </g>
    </g>
    <g id="ytick_10">
     <g id="line2d_36">
      <g>
       <use style="stroke:#000000;stroke-width:0.8;" x="389.940735" xlink:href="#mf66b05a917" y="105.735347"/>
      </g>
     </g>
     <g id="text_28">
      <!-- 2 -->
      <g transform="translate(376.578235 109.534566)scale(0.1 -0.1)">
       <use xlink:href="#DejaVuSans-50"/>
      </g>
     </g>
    </g>
    <g id="ytick_11">
     <g id="line2d_37">
      <g>
       <use style="stroke:#000000;stroke-width:0.8;" x="389.940735" xlink:href="#mf66b05a917" y="78.630694"/>
      </g>
     </g>
     <g id="text_29">
      <!-- 3 -->
      <g transform="translate(376.578235 82.429913)scale(0.1 -0.1)">
       <use xlink:href="#DejaVuSans-51"/>
      </g>
     </g>
    </g>
    <g id="ytick_12">
     <g id="line2d_38">
      <g>
       <use style="stroke:#000000;stroke-width:0.8;" x="389.940735" xlink:href="#mf66b05a917" y="51.526041"/>
      </g>
     </g>
     <g id="text_30">
      <!-- 4 -->
      <g transform="translate(376.578235 55.32526)scale(0.1 -0.1)">
       <use xlink:href="#DejaVuSans-52"/>
      </g>
     </g>
    </g>
    <g id="text_31">
     <!-- Plasma volume [l] -->
     <g transform="translate(370.498548 130.406076)rotate(-90)scale(0.1 -0.1)">
      <use xlink:href="#DejaVuSans-80"/>
      <use x="60.302734" xlink:href="#DejaVuSans-108"/>
      <use x="88.085938" xlink:href="#DejaVuSans-97"/>
      <use x="149.365234" xlink:href="#DejaVuSans-115"/>
      <use x="201.464844" xlink:href="#DejaVuSans-109"/>
      <use x="298.876953" xlink:href="#DejaVuSans-97"/>
      <use x="360.15625" xlink:href="#DejaVuSans-32"/>
      <use x="391.943359" xlink:href="#DejaVuSans-118"/>
      <use x="451.123047" xlink:href="#DejaVuSans-111"/>
      <use x="512.304688" xlink:href="#DejaVuSans-108"/>
      <use x="540.087891" xlink:href="#DejaVuSans-117"/>
      <use x="603.466797" xlink:href="#DejaVuSans-109"/>
      <use x="700.878906" xlink:href="#DejaVuSans-101"/>
      <use x="762.402344" xlink:href="#DejaVuSans-32"/>
      <use x="794.189453" xlink:href="#DejaVuSans-91"/>
      <use x="833.203125" xlink:href="#DejaVuSans-108"/>
      <use x="860.986328" xlink:href="#DejaVuSans-93"/>
     </g>
    </g>
   </g>
   <g id="line2d_39">
    <path clip-path="url(#p67fcc86ba3)" d="M 389.940735 126.483698 
L 397.253269 124.352933 
L 405.581432 122.161652 
L 415.026788 119.910252 
L 425.6909 117.60044 
L 437.776893 115.215529 
L 451.284768 112.780816 
L 466.41765 110.282715 
L 483.378666 107.712936 
L 501.558437 105.175856 
L 501.558437 105.175856 
" style="fill:none;stroke:#1f77b4;stroke-linecap:square;stroke-width:1.5;"/>
   </g>
   <g id="line2d_40">
    <g clip-path="url(#p67fcc86ba3)">
     <use style="fill:#1f77b4;stroke:#1f77b4;" x="395.971544" xlink:href="#mafcae0eab6" y="124.710891"/>
    </g>
   </g>
   <g id="line2d_41">
    <path clip-path="url(#p67fcc86ba3)" d="M 389.940735 124.332472 
L 397.050143 122.124665 
L 405.073618 119.868309 
L 414.214285 117.533684 
L 424.472144 115.147686 
L 436.050323 112.688561 
L 448.94882 110.180637 
L 463.370761 107.607098 
L 479.41771 104.973286 
L 497.292792 102.269325 
L 501.558437 101.654736 
L 501.558437 101.654736 
" style="fill:none;stroke:#ff7f0e;stroke-linecap:square;stroke-width:1.5;"/>
   </g>
   <g id="line2d_42">
    <g clip-path="url(#p67fcc86ba3)">
     <use style="fill:#ff7f0e;stroke:#ff7f0e;" x="400.846059" xlink:href="#mc8592d164a" y="121.029746"/>
    </g>
   </g>
   <g id="line2d_43">
    <path clip-path="url(#p67fcc86ba3)" d="M 389.940735 121.582537 
L 396.847017 119.268994 
L 404.565803 116.920725 
L 413.300218 114.499821 
L 423.050263 112.031067 
L 434.019063 109.487456 
L 446.20662 106.893035 
L 459.816057 104.227541 
L 474.948939 101.495413 
L 491.605266 98.717314 
L 501.558437 97.153651 
L 501.558437 97.153651 
" style="fill:none;stroke:#2ca02c;stroke-linecap:square;stroke-width:1.5;"/>
   </g>
   <g id="line2d_44">
    <g clip-path="url(#p67fcc86ba3)">
     <use style="fill:#2ca02c;stroke:#2ca02c;" x="407.33644" xlink:href="#m27fb9d09bd" y="116.128327"/>
    </g>
   </g>
   <g id="line2d_45">
    <path clip-path="url(#p67fcc86ba3)" d="M 389.940735 118.30431 
L 396.542328 115.898839 
L 403.956425 113.436907 
L 412.284588 110.909848 
L 421.628381 108.312973 
L 431.987804 105.669253 
L 443.464419 102.97287 
L 456.261353 100.199344 
L 470.378606 97.371497 
L 485.91774 94.488655 
L 501.558437 91.787858 
L 501.558437 91.787858 
" style="fill:none;stroke:#d62728;stroke-linecap:square;stroke-width:1.5;"/>
   </g>
   <g id="line2d_46">
    <g clip-path="url(#p67fcc86ba3)">
     <use style="fill:#d62728;stroke:#d62728;" x="415.442689" xlink:href="#md961356bcd" y="110.006636"/>
    </g>
   </g>
   <g id="line2d_47">
    <path clip-path="url(#p67fcc86ba3)" d="M 389.940735 114.564412 
L 396.339202 112.020004 
L 403.44861 109.436053 
L 411.370522 106.79648 
L 420.2065 104.090952 
L 429.956545 101.340839 
L 440.823782 98.51131 
L 452.808212 95.625581 
L 466.011398 92.679646 
L 480.534903 89.671445 
L 496.480289 86.600342 
L 501.558437 85.666404 
L 501.558437 85.666404 
" style="fill:none;stroke:#9467bd;stroke-linecap:square;stroke-width:1.5;"/>
   </g>
   <g id="line2d_48">
    <g clip-path="url(#p67fcc86ba3)">
     <use style="fill:#9467bd;stroke:#9467bd;" x="425.164804" xlink:href="#mfd0e079382" y="102.664671"/>
    </g>
   </g>
   <g id="line2d_49">
    <path clip-path="url(#p67fcc86ba3)" d="M 389.940735 110.422168 
L 396.034513 107.77216 
L 402.839232 105.057947 
L 410.354892 102.301077 
L 418.683055 99.484587 
L 427.925285 96.597215 
L 438.081582 93.660235 
L 449.253509 90.663694 
L 461.542628 87.601089 
L 475.050502 84.468519 
L 489.777133 81.285256 
L 501.558437 78.88639 
L 501.558437 78.88639 
" style="fill:none;stroke:#8c564b;stroke-linecap:square;stroke-width:1.5;"/>
   </g>
   <g id="line2d_50">
    <g clip-path="url(#p67fcc86ba3)">
     <use style="fill:#8c564b;stroke:#8c564b;" x="436.502786" xlink:href="#m1a3448f934" y="94.102432"/>
    </g>
   </g>
   <g id="line2d_51">
    <path clip-path="url(#p67fcc86ba3)" d="M 389.940735 105.92852 
L 395.831387 103.130461 
L 402.331417 100.290038 
L 409.542388 97.383995 
L 417.4643 94.433024 
L 426.198715 91.419079 
L 435.847197 88.32983 
L 446.409745 85.186458 
L 457.886361 82.005481 
L 470.480169 78.748941 
L 484.19117 75.436577 
L 499.120926 72.06185 
L 501.558437 71.531199 
L 501.558437 71.531199 
" style="fill:none;stroke:#e377c2;stroke-linecap:square;stroke-width:1.5;"/>
   </g>
   <g id="line2d_52">
    <g clip-path="url(#p67fcc86ba3)">
     <use style="fill:#e377c2;stroke:#e377c2;" x="449.456634" xlink:href="#m76b147e6a7" y="84.319921"/>
    </g>
   </g>
   <g id="patch_13">
    <path d="M 389.940735 132.84 
L 389.940735 37.973714 
" style="fill:none;stroke:#000000;stroke-linecap:square;stroke-linejoin:miter;stroke-width:0.8;"/>
   </g>
   <g id="patch_14">
    <path d="M 501.66 132.84 
L 501.66 37.973714 
" style="fill:none;stroke:#000000;stroke-linecap:square;stroke-linejoin:miter;stroke-width:0.8;"/>
   </g>
   <g id="patch_15">
    <path d="M 389.940735 132.84 
L 501.66 132.84 
" style="fill:none;stroke:#000000;stroke-linecap:square;stroke-linejoin:miter;stroke-width:0.8;"/>
   </g>
   <g id="patch_16">
    <path d="M 389.940735 37.973714 
L 501.66 37.973714 
" style="fill:none;stroke:#000000;stroke-linecap:square;stroke-linejoin:miter;stroke-width:0.8;"/>
   </g>
   <g id="text_32">
    <!-- female -->
    <g transform="translate(425.116305 31.973714)scale(0.12 -0.12)">
     <use xlink:href="#DejaVuSans-102"/>
     <use x="35.205078" xlink:href="#DejaVuSans-101"/>
     <use x="96.728516" xlink:href="#DejaVuSans-109"/>
     <use x="194.140625" xlink:href="#DejaVuSans-97"/>
     <use x="255.419922" xlink:href="#DejaVuSans-108"/>
     <use x="283.203125" xlink:href="#DejaVuSans-101"/>
    </g>
   </g>
   <g id="legend_1">
    <g id="patch_17">
     <path d="M 393.440735 93.347152 
L 423.851673 93.347152 
Q 424.851673 93.347152 424.851673 92.347152 
L 424.851673 41.473714 
Q 424.851673 40.473714 423.851673 40.473714 
L 393.440735 40.473714 
Q 392.440735 40.473714 392.440735 41.473714 
L 392.440735 92.347152 
Q 392.440735 93.347152 393.440735 93.347152 
z
" style="fill:#ffffff;opacity:0.8;stroke:#cccccc;stroke-linejoin:miter;"/>
    </g>
    <g id="line2d_53">
     <path d="M 394.440735 44.522933 
L 404.440735 44.522933 
" style="fill:none;stroke:#1f77b4;stroke-linecap:square;stroke-width:1.5;"/>
    </g>
    <g id="line2d_54"/>
    <g id="text_33">
     <!-- 1.4 m -->
     <defs>
      <path d="M 10.6875 12.40625 
L 21 12.40625 
L 21 0 
L 10.6875 0 
z
" id="DejaVuSans-46"/>
     </defs>
     <g transform="translate(408.440735 46.272933)scale(0.05 -0.05)">
      <use xlink:href="#DejaVuSans-49"/>
      <use x="63.623047" xlink:href="#DejaVuSans-46"/>
      <use x="95.410156" xlink:href="#DejaVuSans-52"/>
      <use x="159.033203" xlink:href="#DejaVuSans-32"/>
      <use x="190.820312" xlink:href="#DejaVuSans-109"/>
     </g>
    </g>
    <g id="line2d_55">
     <path d="M 394.440735 51.861996 
L 404.440735 51.861996 
" style="fill:none;stroke:#ff7f0e;stroke-linecap:square;stroke-width:1.5;"/>
    </g>
    <g id="line2d_56"/>
    <g id="text_34">
     <!-- 1.5 m -->
     <g transform="translate(408.440735 53.611996)scale(0.05 -0.05)">
      <use xlink:href="#DejaVuSans-49"/>
      <use x="63.623047" xlink:href="#DejaVuSans-46"/>
      <use x="95.410156" xlink:href="#DejaVuSans-53"/>
      <use x="159.033203" xlink:href="#DejaVuSans-32"/>
      <use x="190.820312" xlink:href="#DejaVuSans-109"/>
     </g>
    </g>
    <g id="line2d_57">
     <path d="M 394.440735 59.201058 
L 404.440735 59.201058 
" style="fill:none;stroke:#2ca02c;stroke-linecap:square;stroke-width:1.5;"/>
    </g>
    <g id="line2d_58"/>
    <g id="text_35">
     <!-- 1.6 m -->
     <g transform="translate(408.440735 60.951058)scale(0.05 -0.05)">
      <use xlink:href="#DejaVuSans-49"/>
      <use x="63.623047" xlink:href="#DejaVuSans-46"/>
      <use x="95.410156" xlink:href="#DejaVuSans-54"/>
      <use x="159.033203" xlink:href="#DejaVuSans-32"/>
      <use x="190.820312" xlink:href="#DejaVuSans-109"/>
     </g>
    </g>
    <g id="line2d_59">
     <path d="M 394.440735 66.540121 
L 404.440735 66.540121 
" style="fill:none;stroke:#d62728;stroke-linecap:square;stroke-width:1.5;"/>
    </g>
    <g id="line2d_60"/>
    <g id="text_36">
     <!-- 1.7 m -->
     <defs>
      <path d="M 8.203125 72.90625 
L 55.078125 72.90625 
L 55.078125 68.703125 
L 28.609375 0 
L 18.3125 0 
L 43.21875 64.59375 
L 8.203125 64.59375 
z
" id="DejaVuSans-55"/>
     </defs>
     <g transform="translate(408.440735 68.290121)scale(0.05 -0.05)">
      <use xlink:href="#DejaVuSans-49"/>
      <use x="63.623047" xlink:href="#DejaVuSans-46"/>
      <use x="95.410156" xlink:href="#DejaVuSans-55"/>
      <use x="159.033203" xlink:href="#DejaVuSans-32"/>
      <use x="190.820312" xlink:href="#DejaVuSans-109"/>
     </g>
    </g>
    <g id="line2d_61">
     <path d="M 394.440735 73.879183 
L 404.440735 73.879183 
" style="fill:none;stroke:#9467bd;stroke-linecap:square;stroke-width:1.5;"/>
    </g>
    <g id="line2d_62"/>
    <g id="text_37">
     <!-- 1.8 m -->
     <g transform="translate(408.440735 75.629183)scale(0.05 -0.05)">
      <use xlink:href="#DejaVuSans-49"/>
      <use x="63.623047" xlink:href="#DejaVuSans-46"/>
      <use x="95.410156" xlink:href="#DejaVuSans-56"/>
      <use x="159.033203" xlink:href="#DejaVuSans-32"/>
      <use x="190.820312" xlink:href="#DejaVuSans-109"/>
     </g>
    </g>
    <g id="line2d_63">
     <path d="M 394.440735 81.218246 
L 404.440735 81.218246 
" style="fill:none;stroke:#8c564b;stroke-linecap:square;stroke-width:1.5;"/>
    </g>
    <g id="line2d_64"/>
    <g id="text_38">
     <!-- 1.9 m -->
     <defs>
      <path d="M 10.984375 1.515625 
L 10.984375 10.5 
Q 14.703125 8.734375 18.5 7.8125 
Q 22.3125 6.890625 25.984375 6.890625 
Q 35.75 6.890625 40.890625 13.453125 
Q 46.046875 20.015625 46.78125 33.40625 
Q 43.953125 29.203125 39.59375 26.953125 
Q 35.25 24.703125 29.984375 24.703125 
Q 19.046875 24.703125 12.671875 31.3125 
Q 6.296875 37.9375 6.296875 49.421875 
Q 6.296875 60.640625 12.9375 67.421875 
Q 19.578125 74.21875 30.609375 74.21875 
Q 43.265625 74.21875 49.921875 64.515625 
Q 56.59375 54.828125 56.59375 36.375 
Q 56.59375 19.140625 48.40625 8.859375 
Q 40.234375 -1.421875 26.421875 -1.421875 
Q 22.703125 -1.421875 18.890625 -0.6875 
Q 15.09375 0.046875 10.984375 1.515625 
z
M 30.609375 32.421875 
Q 37.25 32.421875 41.125 36.953125 
Q 45.015625 41.5 45.015625 49.421875 
Q 45.015625 57.28125 41.125 61.84375 
Q 37.25 66.40625 30.609375 66.40625 
Q 23.96875 66.40625 20.09375 61.84375 
Q 16.21875 57.28125 16.21875 49.421875 
Q 16.21875 41.5 20.09375 36.953125 
Q 23.96875 32.421875 30.609375 32.421875 
z
" id="DejaVuSans-57"/>
     </defs>
     <g transform="translate(408.440735 82.968246)scale(0.05 -0.05)">
      <use xlink:href="#DejaVuSans-49"/>
      <use x="63.623047" xlink:href="#DejaVuSans-46"/>
      <use x="95.410156" xlink:href="#DejaVuSans-57"/>
      <use x="159.033203" xlink:href="#DejaVuSans-32"/>
      <use x="190.820312" xlink:href="#DejaVuSans-109"/>
     </g>
    </g>
    <g id="line2d_65">
     <path d="M 394.440735 88.557308 
L 404.440735 88.557308 
" style="fill:none;stroke:#e377c2;stroke-linecap:square;stroke-width:1.5;"/>
    </g>
    <g id="line2d_66"/>
    <g id="text_39">
     <!-- 2.0 m -->
     <g transform="translate(408.440735 90.307308)scale(0.05 -0.05)">
      <use xlink:href="#DejaVuSans-50"/>
      <use x="63.623047" xlink:href="#DejaVuSans-46"/>
      <use x="95.410156" xlink:href="#DejaVuSans-48"/>
      <use x="159.033203" xlink:href="#DejaVuSans-32"/>
      <use x="190.820312" xlink:href="#DejaVuSans-109"/>
     </g>
    </g>
   </g>
  </g>
 </g>
 <defs>
  <clipPath id="p4f9aa084f7">
   <rect height="94.866286" width="111.719265" x="50.56" y="37.973714"/>
  </clipPath>
  <clipPath id="p93eeb97d4e">
   <rect height="94.866286" width="111.719265" x="220.250368" y="37.973714"/>
  </clipPath>
  <clipPath id="p67fcc86ba3">
   <rect height="94.866286" width="111.719265" x="389.940735" y="37.973714"/>
  </clipPath>
 </defs>
</svg>
