<?xml version="1.0" encoding="utf-8" standalone="no"?>
<!DOCTYPE svg PUBLIC "-//W3C//DTD SVG 1.1//EN"
  "http://www.w3.org/Graphics/SVG/1.1/DTD/svg11.dtd">
<!-- Created with matplotlib (https://matplotlib.org/) -->
<svg height="288pt" version="1.1" viewBox="0 0 432 288" width="432pt" xmlns="http://www.w3.org/2000/svg" xmlns:xlink="http://www.w3.org/1999/xlink">
 <defs>
  <style type="text/css">
*{stroke-linecap:butt;stroke-linejoin:round;}
  </style>
 </defs>
 <g id="figure_1">
  <g id="patch_1">
   <path d="M 0 288 
L 432 288 
L 432 0 
L 0 0 
z
" style="fill:#ffffff;"/>
  </g>
  <g id="axes_1">
   <g id="patch_2">
    <path d="M 54 252 
L 388.8 252 
L 388.8 34.56 
L 54 34.56 
z
" style="fill:#ffffff;"/>
   </g>
   <g id="matplotlib.axis_1">
    <g id="xtick_1">
     <g id="line2d_1">
      <defs>
       <path d="M 0 0 
L 0 3.5 
" id="m3c3d16078b" style="stroke:#000000;stroke-width:0.8;"/>
      </defs>
      <g>
       <use style="stroke:#000000;stroke-width:0.8;" x="57.903548" xlink:href="#m3c3d16078b" y="252"/>
      </g>
     </g>
     <g id="text_1">
      <!-- −50 -->
      <defs>
       <path d="M 10.59375 35.5 
L 73.1875 35.5 
L 73.1875 27.203125 
L 10.59375 27.203125 
z
" id="DejaVuSans-8722"/>
       <path d="M 10.796875 72.90625 
L 49.515625 72.90625 
L 49.515625 64.59375 
L 19.828125 64.59375 
L 19.828125 46.734375 
Q 21.96875 47.46875 24.109375 47.828125 
Q 26.265625 48.1875 28.421875 48.1875 
Q 40.625 48.1875 47.75 41.5 
Q 54.890625 34.8125 54.890625 23.390625 
Q 54.890625 11.625 47.5625 5.09375 
Q 40.234375 -1.421875 26.90625 -1.421875 
Q 22.3125 -1.421875 17.546875 -0.640625 
Q 12.796875 0.140625 7.71875 1.703125 
L 7.71875 11.625 
Q 12.109375 9.234375 16.796875 8.0625 
Q 21.484375 6.890625 26.703125 6.890625 
Q 35.15625 6.890625 40.078125 11.328125 
Q 45.015625 15.765625 45.015625 23.390625 
Q 45.015625 31 40.078125 35.4375 
Q 35.15625 39.890625 26.703125 39.890625 
Q 22.75 39.890625 18.8125 39.015625 
Q 14.890625 38.140625 10.796875 36.28125 
z
" id="DejaVuSans-53"/>
       <path d="M 31.78125 66.40625 
Q 24.171875 66.40625 20.328125 58.90625 
Q 16.5 51.421875 16.5 36.375 
Q 16.5 21.390625 20.328125 13.890625 
Q 24.171875 6.390625 31.78125 6.390625 
Q 39.453125 6.390625 43.28125 13.890625 
Q 47.125 21.390625 47.125 36.375 
Q 47.125 51.421875 43.28125 58.90625 
Q 39.453125 66.40625 31.78125 66.40625 
z
M 31.78125 74.21875 
Q 44.046875 74.21875 50.515625 64.515625 
Q 56.984375 54.828125 56.984375 36.375 
Q 56.984375 17.96875 50.515625 8.265625 
Q 44.046875 -1.421875 31.78125 -1.421875 
Q 19.53125 -1.421875 13.0625 8.265625 
Q 6.59375 17.96875 6.59375 36.375 
Q 6.59375 54.828125 13.0625 64.515625 
Q 19.53125 74.21875 31.78125 74.21875 
z
" id="DejaVuSans-48"/>
      </defs>
      <g transform="translate(47.351205 266.598437)scale(0.1 -0.1)">
       <use xlink:href="#DejaVuSans-8722"/>
       <use x="83.789062" xlink:href="#DejaVuSans-53"/>
       <use x="147.412109" xlink:href="#DejaVuSans-48"/>
      </g>
     </g>
    </g>
    <g id="xtick_2">
     <g id="line2d_2">
      <g>
       <use style="stroke:#000000;stroke-width:0.8;" x="114.476715" xlink:href="#m3c3d16078b" y="252"/>
      </g>
     </g>
     <g id="text_2">
      <!-- 0 -->
      <g transform="translate(111.295465 266.598437)scale(0.1 -0.1)">
       <use xlink:href="#DejaVuSans-48"/>
      </g>
     </g>
    </g>
    <g id="xtick_3">
     <g id="line2d_3">
      <g>
       <use style="stroke:#000000;stroke-width:0.8;" x="171.049882" xlink:href="#m3c3d16078b" y="252"/>
      </g>
     </g>
     <g id="text_3">
      <!-- 50 -->
      <g transform="translate(164.687382 266.598437)scale(0.1 -0.1)">
       <use xlink:href="#DejaVuSans-53"/>
       <use x="63.623047" xlink:href="#DejaVuSans-48"/>
      </g>
     </g>
    </g>
    <g id="xtick_4">
     <g id="line2d_4">
      <g>
       <use style="stroke:#000000;stroke-width:0.8;" x="227.623048" xlink:href="#m3c3d16078b" y="252"/>
      </g>
     </g>
     <g id="text_4">
      <!-- 100 -->
      <defs>
       <path d="M 12.40625 8.296875 
L 28.515625 8.296875 
L 28.515625 63.921875 
L 10.984375 60.40625 
L 10.984375 69.390625 
L 28.421875 72.90625 
L 38.28125 72.90625 
L 38.28125 8.296875 
L 54.390625 8.296875 
L 54.390625 0 
L 12.40625 0 
z
" id="DejaVuSans-49"/>
      </defs>
      <g transform="translate(218.079298 266.598437)scale(0.1 -0.1)">
       <use xlink:href="#DejaVuSans-49"/>
       <use x="63.623047" xlink:href="#DejaVuSans-48"/>
       <use x="127.246094" xlink:href="#DejaVuSans-48"/>
      </g>
     </g>
    </g>
    <g id="xtick_5">
     <g id="line2d_5">
      <g>
       <use style="stroke:#000000;stroke-width:0.8;" x="284.196215" xlink:href="#m3c3d16078b" y="252"/>
      </g>
     </g>
     <g id="text_5">
      <!-- 150 -->
      <g transform="translate(274.652465 266.598437)scale(0.1 -0.1)">
       <use xlink:href="#DejaVuSans-49"/>
       <use x="63.623047" xlink:href="#DejaVuSans-53"/>
       <use x="127.246094" xlink:href="#DejaVuSans-48"/>
      </g>
     </g>
    </g>
    <g id="xtick_6">
     <g id="line2d_6">
      <g>
       <use style="stroke:#000000;stroke-width:0.8;" x="340.769382" xlink:href="#m3c3d16078b" y="252"/>
      </g>
     </g>
     <g id="text_6">
      <!-- 200 -->
      <defs>
       <path d="M 19.1875 8.296875 
L 53.609375 8.296875 
L 53.609375 0 
L 7.328125 0 
L 7.328125 8.296875 
Q 12.9375 14.109375 22.625 23.890625 
Q 32.328125 33.6875 34.8125 36.53125 
Q 39.546875 41.84375 41.421875 45.53125 
Q 43.3125 49.21875 43.3125 52.78125 
Q 43.3125 58.59375 39.234375 62.25 
Q 35.15625 65.921875 28.609375 65.921875 
Q 23.96875 65.921875 18.8125 64.3125 
Q 13.671875 62.703125 7.8125 59.421875 
L 7.8125 69.390625 
Q 13.765625 71.78125 18.9375 73 
Q 24.125 74.21875 28.421875 74.21875 
Q 39.75 74.21875 46.484375 68.546875 
Q 53.21875 62.890625 53.21875 53.421875 
Q 53.21875 48.921875 51.53125 44.890625 
Q 49.859375 40.875 45.40625 35.40625 
Q 44.1875 33.984375 37.640625 27.21875 
Q 31.109375 20.453125 19.1875 8.296875 
z
" id="DejaVuSans-50"/>
      </defs>
      <g transform="translate(331.225632 266.598437)scale(0.1 -0.1)">
       <use xlink:href="#DejaVuSans-50"/>
       <use x="63.623047" xlink:href="#DejaVuSans-48"/>
       <use x="127.246094" xlink:href="#DejaVuSans-48"/>
      </g>
     </g>
    </g>
    <g id="text_7">
     <!-- Deviation from ideal weight -->
     <defs>
      <path d="M 19.671875 64.796875 
L 19.671875 8.109375 
L 31.59375 8.109375 
Q 46.6875 8.109375 53.6875 14.9375 
Q 60.6875 21.78125 60.6875 36.53125 
Q 60.6875 51.171875 53.6875 57.984375 
Q 46.6875 64.796875 31.59375 64.796875 
z
M 9.8125 72.90625 
L 30.078125 72.90625 
Q 51.265625 72.90625 61.171875 64.09375 
Q 71.09375 55.28125 71.09375 36.53125 
Q 71.09375 17.671875 61.125 8.828125 
Q 51.171875 0 30.078125 0 
L 9.8125 0 
z
" id="DejaVuSans-68"/>
      <path d="M 56.203125 29.59375 
L 56.203125 25.203125 
L 14.890625 25.203125 
Q 15.484375 15.921875 20.484375 11.0625 
Q 25.484375 6.203125 34.421875 6.203125 
Q 39.59375 6.203125 44.453125 7.46875 
Q 49.3125 8.734375 54.109375 11.28125 
L 54.109375 2.78125 
Q 49.265625 0.734375 44.1875 -0.34375 
Q 39.109375 -1.421875 33.890625 -1.421875 
Q 20.796875 -1.421875 13.15625 6.1875 
Q 5.515625 13.8125 5.515625 26.8125 
Q 5.515625 40.234375 12.765625 48.109375 
Q 20.015625 56 32.328125 56 
Q 43.359375 56 49.78125 48.890625 
Q 56.203125 41.796875 56.203125 29.59375 
z
M 47.21875 32.234375 
Q 47.125 39.59375 43.09375 43.984375 
Q 39.0625 48.390625 32.421875 48.390625 
Q 24.90625 48.390625 20.390625 44.140625 
Q 15.875 39.890625 15.1875 32.171875 
z
" id="DejaVuSans-101"/>
      <path d="M 2.984375 54.6875 
L 12.5 54.6875 
L 29.59375 8.796875 
L 46.6875 54.6875 
L 56.203125 54.6875 
L 35.6875 0 
L 23.484375 0 
z
" id="DejaVuSans-118"/>
      <path d="M 9.421875 54.6875 
L 18.40625 54.6875 
L 18.40625 0 
L 9.421875 0 
z
M 9.421875 75.984375 
L 18.40625 75.984375 
L 18.40625 64.59375 
L 9.421875 64.59375 
z
" id="DejaVuSans-105"/>
      <path d="M 34.28125 27.484375 
Q 23.390625 27.484375 19.1875 25 
Q 14.984375 22.515625 14.984375 16.5 
Q 14.984375 11.71875 18.140625 8.90625 
Q 21.296875 6.109375 26.703125 6.109375 
Q 34.1875 6.109375 38.703125 11.40625 
Q 43.21875 16.703125 43.21875 25.484375 
L 43.21875 27.484375 
z
M 52.203125 31.203125 
L 52.203125 0 
L 43.21875 0 
L 43.21875 8.296875 
Q 40.140625 3.328125 35.546875 0.953125 
Q 30.953125 -1.421875 24.3125 -1.421875 
Q 15.921875 -1.421875 10.953125 3.296875 
Q 6 8.015625 6 15.921875 
Q 6 25.140625 12.171875 29.828125 
Q 18.359375 34.515625 30.609375 34.515625 
L 43.21875 34.515625 
L 43.21875 35.40625 
Q 43.21875 41.609375 39.140625 45 
Q 35.0625 48.390625 27.6875 48.390625 
Q 23 48.390625 18.546875 47.265625 
Q 14.109375 46.140625 10.015625 43.890625 
L 10.015625 52.203125 
Q 14.9375 54.109375 19.578125 55.046875 
Q 24.21875 56 28.609375 56 
Q 40.484375 56 46.34375 49.84375 
Q 52.203125 43.703125 52.203125 31.203125 
z
" id="DejaVuSans-97"/>
      <path d="M 18.3125 70.21875 
L 18.3125 54.6875 
L 36.8125 54.6875 
L 36.8125 47.703125 
L 18.3125 47.703125 
L 18.3125 18.015625 
Q 18.3125 11.328125 20.140625 9.421875 
Q 21.96875 7.515625 27.59375 7.515625 
L 36.8125 7.515625 
L 36.8125 0 
L 27.59375 0 
Q 17.1875 0 13.234375 3.875 
Q 9.28125 7.765625 9.28125 18.015625 
L 9.28125 47.703125 
L 2.6875 47.703125 
L 2.6875 54.6875 
L 9.28125 54.6875 
L 9.28125 70.21875 
z
" id="DejaVuSans-116"/>
      <path d="M 30.609375 48.390625 
Q 23.390625 48.390625 19.1875 42.75 
Q 14.984375 37.109375 14.984375 27.296875 
Q 14.984375 17.484375 19.15625 11.84375 
Q 23.34375 6.203125 30.609375 6.203125 
Q 37.796875 6.203125 41.984375 11.859375 
Q 46.1875 17.53125 46.1875 27.296875 
Q 46.1875 37.015625 41.984375 42.703125 
Q 37.796875 48.390625 30.609375 48.390625 
z
M 30.609375 56 
Q 42.328125 56 49.015625 48.375 
Q 55.71875 40.765625 55.71875 27.296875 
Q 55.71875 13.875 49.015625 6.21875 
Q 42.328125 -1.421875 30.609375 -1.421875 
Q 18.84375 -1.421875 12.171875 6.21875 
Q 5.515625 13.875 5.515625 27.296875 
Q 5.515625 40.765625 12.171875 48.375 
Q 18.84375 56 30.609375 56 
z
" id="DejaVuSans-111"/>
      <path d="M 54.890625 33.015625 
L 54.890625 0 
L 45.90625 0 
L 45.90625 32.71875 
Q 45.90625 40.484375 42.875 44.328125 
Q 39.84375 48.1875 33.796875 48.1875 
Q 26.515625 48.1875 22.3125 43.546875 
Q 18.109375 38.921875 18.109375 30.90625 
L 18.109375 0 
L 9.078125 0 
L 9.078125 54.6875 
L 18.109375 54.6875 
L 18.109375 46.1875 
Q 21.34375 51.125 25.703125 53.5625 
Q 30.078125 56 35.796875 56 
Q 45.21875 56 50.046875 50.171875 
Q 54.890625 44.34375 54.890625 33.015625 
z
" id="DejaVuSans-110"/>
      <path id="DejaVuSans-32"/>
      <path d="M 37.109375 75.984375 
L 37.109375 68.5 
L 28.515625 68.5 
Q 23.6875 68.5 21.796875 66.546875 
Q 19.921875 64.59375 19.921875 59.515625 
L 19.921875 54.6875 
L 34.71875 54.6875 
L 34.71875 47.703125 
L 19.921875 47.703125 
L 19.921875 0 
L 10.890625 0 
L 10.890625 47.703125 
L 2.296875 47.703125 
L 2.296875 54.6875 
L 10.890625 54.6875 
L 10.890625 58.5 
Q 10.890625 67.625 15.140625 71.796875 
Q 19.390625 75.984375 28.609375 75.984375 
z
" id="DejaVuSans-102"/>
      <path d="M 41.109375 46.296875 
Q 39.59375 47.171875 37.8125 47.578125 
Q 36.03125 48 33.890625 48 
Q 26.265625 48 22.1875 43.046875 
Q 18.109375 38.09375 18.109375 28.8125 
L 18.109375 0 
L 9.078125 0 
L 9.078125 54.6875 
L 18.109375 54.6875 
L 18.109375 46.1875 
Q 20.953125 51.171875 25.484375 53.578125 
Q 30.03125 56 36.53125 56 
Q 37.453125 56 38.578125 55.875 
Q 39.703125 55.765625 41.0625 55.515625 
z
" id="DejaVuSans-114"/>
      <path d="M 52 44.1875 
Q 55.375 50.25 60.0625 53.125 
Q 64.75 56 71.09375 56 
Q 79.640625 56 84.28125 50.015625 
Q 88.921875 44.046875 88.921875 33.015625 
L 88.921875 0 
L 79.890625 0 
L 79.890625 32.71875 
Q 79.890625 40.578125 77.09375 44.375 
Q 74.3125 48.1875 68.609375 48.1875 
Q 61.625 48.1875 57.5625 43.546875 
Q 53.515625 38.921875 53.515625 30.90625 
L 53.515625 0 
L 44.484375 0 
L 44.484375 32.71875 
Q 44.484375 40.625 41.703125 44.40625 
Q 38.921875 48.1875 33.109375 48.1875 
Q 26.21875 48.1875 22.15625 43.53125 
Q 18.109375 38.875 18.109375 30.90625 
L 18.109375 0 
L 9.078125 0 
L 9.078125 54.6875 
L 18.109375 54.6875 
L 18.109375 46.1875 
Q 21.1875 51.21875 25.484375 53.609375 
Q 29.78125 56 35.6875 56 
Q 41.65625 56 45.828125 52.96875 
Q 50 49.953125 52 44.1875 
z
" id="DejaVuSans-109"/>
      <path d="M 45.40625 46.390625 
L 45.40625 75.984375 
L 54.390625 75.984375 
L 54.390625 0 
L 45.40625 0 
L 45.40625 8.203125 
Q 42.578125 3.328125 38.25 0.953125 
Q 33.9375 -1.421875 27.875 -1.421875 
Q 17.96875 -1.421875 11.734375 6.484375 
Q 5.515625 14.40625 5.515625 27.296875 
Q 5.515625 40.1875 11.734375 48.09375 
Q 17.96875 56 27.875 56 
Q 33.9375 56 38.25 53.625 
Q 42.578125 51.265625 45.40625 46.390625 
z
M 14.796875 27.296875 
Q 14.796875 17.390625 18.875 11.75 
Q 22.953125 6.109375 30.078125 6.109375 
Q 37.203125 6.109375 41.296875 11.75 
Q 45.40625 17.390625 45.40625 27.296875 
Q 45.40625 37.203125 41.296875 42.84375 
Q 37.203125 48.484375 30.078125 48.484375 
Q 22.953125 48.484375 18.875 42.84375 
Q 14.796875 37.203125 14.796875 27.296875 
z
" id="DejaVuSans-100"/>
      <path d="M 9.421875 75.984375 
L 18.40625 75.984375 
L 18.40625 0 
L 9.421875 0 
z
" id="DejaVuSans-108"/>
      <path d="M 4.203125 54.6875 
L 13.1875 54.6875 
L 24.421875 12.015625 
L 35.59375 54.6875 
L 46.1875 54.6875 
L 57.421875 12.015625 
L 68.609375 54.6875 
L 77.59375 54.6875 
L 63.28125 0 
L 52.6875 0 
L 40.921875 44.828125 
L 29.109375 0 
L 18.5 0 
z
" id="DejaVuSans-119"/>
      <path d="M 45.40625 27.984375 
Q 45.40625 37.75 41.375 43.109375 
Q 37.359375 48.484375 30.078125 48.484375 
Q 22.859375 48.484375 18.828125 43.109375 
Q 14.796875 37.75 14.796875 27.984375 
Q 14.796875 18.265625 18.828125 12.890625 
Q 22.859375 7.515625 30.078125 7.515625 
Q 37.359375 7.515625 41.375 12.890625 
Q 45.40625 18.265625 45.40625 27.984375 
z
M 54.390625 6.78125 
Q 54.390625 -7.171875 48.1875 -13.984375 
Q 42 -20.796875 29.203125 -20.796875 
Q 24.46875 -20.796875 20.265625 -20.09375 
Q 16.0625 -19.390625 12.109375 -17.921875 
L 12.109375 -9.1875 
Q 16.0625 -11.328125 19.921875 -12.34375 
Q 23.78125 -13.375 27.78125 -13.375 
Q 36.625 -13.375 41.015625 -8.765625 
Q 45.40625 -4.15625 45.40625 5.171875 
L 45.40625 9.625 
Q 42.625 4.78125 38.28125 2.390625 
Q 33.9375 0 27.875 0 
Q 17.828125 0 11.671875 7.65625 
Q 5.515625 15.328125 5.515625 27.984375 
Q 5.515625 40.671875 11.671875 48.328125 
Q 17.828125 56 27.875 56 
Q 33.9375 56 38.28125 53.609375 
Q 42.625 51.21875 45.40625 46.390625 
L 45.40625 54.6875 
L 54.390625 54.6875 
z
" id="DejaVuSans-103"/>
      <path d="M 54.890625 33.015625 
L 54.890625 0 
L 45.90625 0 
L 45.90625 32.71875 
Q 45.90625 40.484375 42.875 44.328125 
Q 39.84375 48.1875 33.796875 48.1875 
Q 26.515625 48.1875 22.3125 43.546875 
Q 18.109375 38.921875 18.109375 30.90625 
L 18.109375 0 
L 9.078125 0 
L 9.078125 75.984375 
L 18.109375 75.984375 
L 18.109375 46.1875 
Q 21.34375 51.125 25.703125 53.5625 
Q 30.078125 56 35.796875 56 
Q 45.21875 56 50.046875 50.171875 
Q 54.890625 44.34375 54.890625 33.015625 
z
" id="DejaVuSans-104"/>
     </defs>
     <g transform="translate(152.021875 280.276563)scale(0.1 -0.1)">
      <use xlink:href="#DejaVuSans-68"/>
      <use x="77.001953" xlink:href="#DejaVuSans-101"/>
      <use x="138.525391" xlink:href="#DejaVuSans-118"/>
      <use x="197.705078" xlink:href="#DejaVuSans-105"/>
      <use x="225.488281" xlink:href="#DejaVuSans-97"/>
      <use x="286.767578" xlink:href="#DejaVuSans-116"/>
      <use x="325.976562" xlink:href="#DejaVuSans-105"/>
      <use x="353.759766" xlink:href="#DejaVuSans-111"/>
      <use x="414.941406" xlink:href="#DejaVuSans-110"/>
      <use x="478.320312" xlink:href="#DejaVuSans-32"/>
      <use x="510.107422" xlink:href="#DejaVuSans-102"/>
      <use x="545.3125" xlink:href="#DejaVuSans-114"/>
      <use x="586.394531" xlink:href="#DejaVuSans-111"/>
      <use x="647.576172" xlink:href="#DejaVuSans-109"/>
      <use x="744.988281" xlink:href="#DejaVuSans-32"/>
      <use x="776.775391" xlink:href="#DejaVuSans-105"/>
      <use x="804.558594" xlink:href="#DejaVuSans-100"/>
      <use x="868.035156" xlink:href="#DejaVuSans-101"/>
      <use x="929.558594" xlink:href="#DejaVuSans-97"/>
      <use x="990.837891" xlink:href="#DejaVuSans-108"/>
      <use x="1018.621094" xlink:href="#DejaVuSans-32"/>
      <use x="1050.408203" xlink:href="#DejaVuSans-119"/>
      <use x="1132.195312" xlink:href="#DejaVuSans-101"/>
      <use x="1193.71875" xlink:href="#DejaVuSans-105"/>
      <use x="1221.501953" xlink:href="#DejaVuSans-103"/>
      <use x="1284.978516" xlink:href="#DejaVuSans-104"/>
      <use x="1348.357422" xlink:href="#DejaVuSans-116"/>
     </g>
    </g>
   </g>
   <g id="matplotlib.axis_2">
    <g id="ytick_1">
     <g id="line2d_7">
      <defs>
       <path d="M 0 0 
L -3.5 0 
" id="m70ffe3b9ba" style="stroke:#000000;stroke-width:0.8;"/>
      </defs>
      <g>
       <use style="stroke:#000000;stroke-width:0.8;" x="54" xlink:href="#m70ffe3b9ba" y="223.876012"/>
      </g>
     </g>
     <g id="text_8">
      <!-- 40 -->
      <defs>
       <path d="M 37.796875 64.3125 
L 12.890625 25.390625 
L 37.796875 25.390625 
z
M 35.203125 72.90625 
L 47.609375 72.90625 
L 47.609375 25.390625 
L 58.015625 25.390625 
L 58.015625 17.1875 
L 47.609375 17.1875 
L 47.609375 0 
L 37.796875 0 
L 37.796875 17.1875 
L 4.890625 17.1875 
L 4.890625 26.703125 
z
" id="DejaVuSans-52"/>
      </defs>
      <g transform="translate(34.275 227.675231)scale(0.1 -0.1)">
       <use xlink:href="#DejaVuSans-52"/>
       <use x="63.623047" xlink:href="#DejaVuSans-48"/>
      </g>
     </g>
    </g>
    <g id="ytick_2">
     <g id="line2d_8">
      <g>
       <use style="stroke:#000000;stroke-width:0.8;" x="54" xlink:href="#m70ffe3b9ba" y="195.697937"/>
      </g>
     </g>
     <g id="text_9">
      <!-- 50 -->
      <g transform="translate(34.275 199.497156)scale(0.1 -0.1)">
       <use xlink:href="#DejaVuSans-53"/>
       <use x="63.623047" xlink:href="#DejaVuSans-48"/>
      </g>
     </g>
    </g>
    <g id="ytick_3">
     <g id="line2d_9">
      <g>
       <use style="stroke:#000000;stroke-width:0.8;" x="54" xlink:href="#m70ffe3b9ba" y="167.519862"/>
      </g>
     </g>
     <g id="text_10">
      <!-- 60 -->
      <defs>
       <path d="M 33.015625 40.375 
Q 26.375 40.375 22.484375 35.828125 
Q 18.609375 31.296875 18.609375 23.390625 
Q 18.609375 15.53125 22.484375 10.953125 
Q 26.375 6.390625 33.015625 6.390625 
Q 39.65625 6.390625 43.53125 10.953125 
Q 47.40625 15.53125 47.40625 23.390625 
Q 47.40625 31.296875 43.53125 35.828125 
Q 39.65625 40.375 33.015625 40.375 
z
M 52.59375 71.296875 
L 52.59375 62.3125 
Q 48.875 64.0625 45.09375 64.984375 
Q 41.3125 65.921875 37.59375 65.921875 
Q 27.828125 65.921875 22.671875 59.328125 
Q 17.53125 52.734375 16.796875 39.40625 
Q 19.671875 43.65625 24.015625 45.921875 
Q 28.375 48.1875 33.59375 48.1875 
Q 44.578125 48.1875 50.953125 41.515625 
Q 57.328125 34.859375 57.328125 23.390625 
Q 57.328125 12.15625 50.6875 5.359375 
Q 44.046875 -1.421875 33.015625 -1.421875 
Q 20.359375 -1.421875 13.671875 8.265625 
Q 6.984375 17.96875 6.984375 36.375 
Q 6.984375 53.65625 15.1875 63.9375 
Q 23.390625 74.21875 37.203125 74.21875 
Q 40.921875 74.21875 44.703125 73.484375 
Q 48.484375 72.75 52.59375 71.296875 
z
" id="DejaVuSans-54"/>
      </defs>
      <g transform="translate(34.275 171.31908)scale(0.1 -0.1)">
       <use xlink:href="#DejaVuSans-54"/>
       <use x="63.623047" xlink:href="#DejaVuSans-48"/>
      </g>
     </g>
    </g>
    <g id="ytick_4">
     <g id="line2d_10">
      <g>
       <use style="stroke:#000000;stroke-width:0.8;" x="54" xlink:href="#m70ffe3b9ba" y="139.341786"/>
      </g>
     </g>
     <g id="text_11">
      <!-- 70 -->
      <defs>
       <path d="M 8.203125 72.90625 
L 55.078125 72.90625 
L 55.078125 68.703125 
L 28.609375 0 
L 18.3125 0 
L 43.21875 64.59375 
L 8.203125 64.59375 
z
" id="DejaVuSans-55"/>
      </defs>
      <g transform="translate(34.275 143.141005)scale(0.1 -0.1)">
       <use xlink:href="#DejaVuSans-55"/>
       <use x="63.623047" xlink:href="#DejaVuSans-48"/>
      </g>
     </g>
    </g>
    <g id="ytick_5">
     <g id="line2d_11">
      <g>
       <use style="stroke:#000000;stroke-width:0.8;" x="54" xlink:href="#m70ffe3b9ba" y="111.163711"/>
      </g>
     </g>
     <g id="text_12">
      <!-- 80 -->
      <defs>
       <path d="M 31.78125 34.625 
Q 24.75 34.625 20.71875 30.859375 
Q 16.703125 27.09375 16.703125 20.515625 
Q 16.703125 13.921875 20.71875 10.15625 
Q 24.75 6.390625 31.78125 6.390625 
Q 38.8125 6.390625 42.859375 10.171875 
Q 46.921875 13.96875 46.921875 20.515625 
Q 46.921875 27.09375 42.890625 30.859375 
Q 38.875 34.625 31.78125 34.625 
z
M 21.921875 38.8125 
Q 15.578125 40.375 12.03125 44.71875 
Q 8.5 49.078125 8.5 55.328125 
Q 8.5 64.0625 14.71875 69.140625 
Q 20.953125 74.21875 31.78125 74.21875 
Q 42.671875 74.21875 48.875 69.140625 
Q 55.078125 64.0625 55.078125 55.328125 
Q 55.078125 49.078125 51.53125 44.71875 
Q 48 40.375 41.703125 38.8125 
Q 48.828125 37.15625 52.796875 32.3125 
Q 56.78125 27.484375 56.78125 20.515625 
Q 56.78125 9.90625 50.3125 4.234375 
Q 43.84375 -1.421875 31.78125 -1.421875 
Q 19.734375 -1.421875 13.25 4.234375 
Q 6.78125 9.90625 6.78125 20.515625 
Q 6.78125 27.484375 10.78125 32.3125 
Q 14.796875 37.15625 21.921875 38.8125 
z
M 18.3125 54.390625 
Q 18.3125 48.734375 21.84375 45.5625 
Q 25.390625 42.390625 31.78125 42.390625 
Q 38.140625 42.390625 41.71875 45.5625 
Q 45.3125 48.734375 45.3125 54.390625 
Q 45.3125 60.0625 41.71875 63.234375 
Q 38.140625 66.40625 31.78125 66.40625 
Q 25.390625 66.40625 21.84375 63.234375 
Q 18.3125 60.0625 18.3125 54.390625 
z
" id="DejaVuSans-56"/>
      </defs>
      <g transform="translate(34.275 114.96293)scale(0.1 -0.1)">
       <use xlink:href="#DejaVuSans-56"/>
       <use x="63.623047" xlink:href="#DejaVuSans-48"/>
      </g>
     </g>
    </g>
    <g id="ytick_6">
     <g id="line2d_12">
      <g>
       <use style="stroke:#000000;stroke-width:0.8;" x="54" xlink:href="#m70ffe3b9ba" y="82.985636"/>
      </g>
     </g>
     <g id="text_13">
      <!-- 90 -->
      <defs>
       <path d="M 10.984375 1.515625 
L 10.984375 10.5 
Q 14.703125 8.734375 18.5 7.8125 
Q 22.3125 6.890625 25.984375 6.890625 
Q 35.75 6.890625 40.890625 13.453125 
Q 46.046875 20.015625 46.78125 33.40625 
Q 43.953125 29.203125 39.59375 26.953125 
Q 35.25 24.703125 29.984375 24.703125 
Q 19.046875 24.703125 12.671875 31.3125 
Q 6.296875 37.9375 6.296875 49.421875 
Q 6.296875 60.640625 12.9375 67.421875 
Q 19.578125 74.21875 30.609375 74.21875 
Q 43.265625 74.21875 49.921875 64.515625 
Q 56.59375 54.828125 56.59375 36.375 
Q 56.59375 19.140625 48.40625 8.859375 
Q 40.234375 -1.421875 26.421875 -1.421875 
Q 22.703125 -1.421875 18.890625 -0.6875 
Q 15.09375 0.046875 10.984375 1.515625 
z
M 30.609375 32.421875 
Q 37.25 32.421875 41.125 36.953125 
Q 45.015625 41.5 45.015625 49.421875 
Q 45.015625 57.28125 41.125 61.84375 
Q 37.25 66.40625 30.609375 66.40625 
Q 23.96875 66.40625 20.09375 61.84375 
Q 16.21875 57.28125 16.21875 49.421875 
Q 16.21875 41.5 20.09375 36.953125 
Q 23.96875 32.421875 30.609375 32.421875 
z
" id="DejaVuSans-57"/>
      </defs>
      <g transform="translate(34.275 86.784854)scale(0.1 -0.1)">
       <use xlink:href="#DejaVuSans-57"/>
       <use x="63.623047" xlink:href="#DejaVuSans-48"/>
      </g>
     </g>
    </g>
    <g id="ytick_7">
     <g id="line2d_13">
      <g>
       <use style="stroke:#000000;stroke-width:0.8;" x="54" xlink:href="#m70ffe3b9ba" y="54.80756"/>
      </g>
     </g>
     <g id="text_14">
      <!-- 100 -->
      <g transform="translate(27.9125 58.606779)scale(0.1 -0.1)">
       <use xlink:href="#DejaVuSans-49"/>
       <use x="63.623047" xlink:href="#DejaVuSans-48"/>
       <use x="127.246094" xlink:href="#DejaVuSans-48"/>
      </g>
     </g>
    </g>
    <g id="text_15">
     <!-- Blood volume [ml / kg] -->
     <defs>
      <path d="M 19.671875 34.8125 
L 19.671875 8.109375 
L 35.5 8.109375 
Q 43.453125 8.109375 47.28125 11.40625 
Q 51.125 14.703125 51.125 21.484375 
Q 51.125 28.328125 47.28125 31.5625 
Q 43.453125 34.8125 35.5 34.8125 
z
M 19.671875 64.796875 
L 19.671875 42.828125 
L 34.28125 42.828125 
Q 41.5 42.828125 45.03125 45.53125 
Q 48.578125 48.25 48.578125 53.8125 
Q 48.578125 59.328125 45.03125 62.0625 
Q 41.5 64.796875 34.28125 64.796875 
z
M 9.8125 72.90625 
L 35.015625 72.90625 
Q 46.296875 72.90625 52.390625 68.21875 
Q 58.5 63.53125 58.5 54.890625 
Q 58.5 48.1875 55.375 44.234375 
Q 52.25 40.28125 46.1875 39.3125 
Q 53.46875 37.75 57.5 32.78125 
Q 61.53125 27.828125 61.53125 20.40625 
Q 61.53125 10.640625 54.890625 5.3125 
Q 48.25 0 35.984375 0 
L 9.8125 0 
z
" id="DejaVuSans-66"/>
      <path d="M 8.5 21.578125 
L 8.5 54.6875 
L 17.484375 54.6875 
L 17.484375 21.921875 
Q 17.484375 14.15625 20.5 10.265625 
Q 23.53125 6.390625 29.59375 6.390625 
Q 36.859375 6.390625 41.078125 11.03125 
Q 45.3125 15.671875 45.3125 23.6875 
L 45.3125 54.6875 
L 54.296875 54.6875 
L 54.296875 0 
L 45.3125 0 
L 45.3125 8.40625 
Q 42.046875 3.421875 37.71875 1 
Q 33.40625 -1.421875 27.6875 -1.421875 
Q 18.265625 -1.421875 13.375 4.4375 
Q 8.5 10.296875 8.5 21.578125 
z
M 31.109375 56 
z
" id="DejaVuSans-117"/>
      <path d="M 8.59375 75.984375 
L 29.296875 75.984375 
L 29.296875 69 
L 17.578125 69 
L 17.578125 -6.203125 
L 29.296875 -6.203125 
L 29.296875 -13.1875 
L 8.59375 -13.1875 
z
" id="DejaVuSans-91"/>
      <path d="M 25.390625 72.90625 
L 33.6875 72.90625 
L 8.296875 -9.28125 
L 0 -9.28125 
z
" id="DejaVuSans-47"/>
      <path d="M 9.078125 75.984375 
L 18.109375 75.984375 
L 18.109375 31.109375 
L 44.921875 54.6875 
L 56.390625 54.6875 
L 27.390625 29.109375 
L 57.625 0 
L 45.90625 0 
L 18.109375 26.703125 
L 18.109375 0 
L 9.078125 0 
z
" id="DejaVuSans-107"/>
      <path d="M 30.421875 75.984375 
L 30.421875 -13.1875 
L 9.71875 -13.1875 
L 9.71875 -6.203125 
L 21.390625 -6.203125 
L 21.390625 69 
L 9.71875 69 
L 9.71875 75.984375 
z
" id="DejaVuSans-93"/>
     </defs>
     <g transform="translate(21.832812 200.187031)rotate(-90)scale(0.1 -0.1)">
      <use xlink:href="#DejaVuSans-66"/>
      <use x="68.603516" xlink:href="#DejaVuSans-108"/>
      <use x="96.386719" xlink:href="#DejaVuSans-111"/>
      <use x="157.568359" xlink:href="#DejaVuSans-111"/>
      <use x="218.75" xlink:href="#DejaVuSans-100"/>
      <use x="282.226562" xlink:href="#DejaVuSans-32"/>
      <use x="314.013672" xlink:href="#DejaVuSans-118"/>
      <use x="373.193359" xlink:href="#DejaVuSans-111"/>
      <use x="434.375" xlink:href="#DejaVuSans-108"/>
      <use x="462.158203" xlink:href="#DejaVuSans-117"/>
      <use x="525.537109" xlink:href="#DejaVuSans-109"/>
      <use x="622.949219" xlink:href="#DejaVuSans-101"/>
      <use x="684.472656" xlink:href="#DejaVuSans-32"/>
      <use x="716.259766" xlink:href="#DejaVuSans-91"/>
      <use x="755.273438" xlink:href="#DejaVuSans-109"/>
      <use x="852.685547" xlink:href="#DejaVuSans-108"/>
      <use x="880.46875" xlink:href="#DejaVuSans-32"/>
      <use x="912.255859" xlink:href="#DejaVuSans-47"/>
      <use x="945.947266" xlink:href="#DejaVuSans-32"/>
      <use x="977.734375" xlink:href="#DejaVuSans-107"/>
      <use x="1035.644531" xlink:href="#DejaVuSans-103"/>
      <use x="1099.121094" xlink:href="#DejaVuSans-93"/>
     </g>
    </g>
   </g>
   <g id="line2d_14">
    <defs>
     <path d="M 0 1.5 
C 0.397805 1.5 0.77937 1.341951 1.06066 1.06066 
C 1.341951 0.77937 1.5 0.397805 1.5 0 
C 1.5 -0.397805 1.341951 -0.77937 1.06066 -1.06066 
C 0.77937 -1.341951 0.397805 -1.5 0 -1.5 
C -0.397805 -1.5 -0.77937 -1.341951 -1.06066 -1.06066 
C -1.341951 -0.77937 -1.5 -0.397805 -1.5 0 
C -1.5 0.397805 -1.341951 0.77937 -1.06066 1.06066 
C -0.77937 1.341951 -0.397805 1.5 0 1.5 
z
" id="m8a3b2ab7df" style="stroke:#1f77b4;"/>
    </defs>
    <g clip-path="url(#p198219cf4e)">
     <use style="fill:#1f77b4;stroke:#1f77b4;" x="85.800403" xlink:href="#m8a3b2ab7df" y="44.443636"/>
     <use style="fill:#1f77b4;stroke:#1f77b4;" x="76.867471" xlink:href="#m8a3b2ab7df" y="48.22543"/>
     <use style="fill:#1f77b4;stroke:#1f77b4;" x="79.117897" xlink:href="#m8a3b2ab7df" y="53.130026"/>
     <use style="fill:#1f77b4;stroke:#1f77b4;" x="86.081256" xlink:href="#m8a3b2ab7df" y="55.470347"/>
     <use style="fill:#1f77b4;stroke:#1f77b4;" x="69.936518" xlink:href="#m8a3b2ab7df" y="56.911372"/>
     <use style="fill:#1f77b4;stroke:#1f77b4;" x="78.880252" xlink:href="#m8a3b2ab7df" y="56.804998"/>
     <use style="fill:#1f77b4;stroke:#1f77b4;" x="78.892134" xlink:href="#m8a3b2ab7df" y="60.847961"/>
     <use style="fill:#1f77b4;stroke:#1f77b4;" x="86.108261" xlink:href="#m8a3b2ab7df" y="64.658898"/>
     <use style="fill:#1f77b4;stroke:#1f77b4;" x="73.707512" xlink:href="#m8a3b2ab7df" y="71.987322"/>
     <use style="fill:#1f77b4;stroke:#1f77b4;" x="77.434218" xlink:href="#m8a3b2ab7df" y="71.994047"/>
     <use style="fill:#1f77b4;stroke:#1f77b4;" x="87.868635" xlink:href="#m8a3b2ab7df" y="71.890364"/>
     <use style="fill:#1f77b4;stroke:#1f77b4;" x="87.611186" xlink:href="#m8a3b2ab7df" y="68.827065"/>
     <use style="fill:#1f77b4;stroke:#1f77b4;" x="80.651788" xlink:href="#m8a3b2ab7df" y="67.834399"/>
     <use style="fill:#1f77b4;stroke:#1f77b4;" x="82.661688" xlink:href="#m8a3b2ab7df" y="75.433855"/>
     <use style="fill:#1f77b4;stroke:#1f77b4;" x="75.453123" xlink:href="#m8a3b2ab7df" y="74.195712"/>
     <use style="fill:#1f77b4;stroke:#1f77b4;" x="82.66961" xlink:href="#m8a3b2ab7df" y="78.129163"/>
     <use style="fill:#1f77b4;stroke:#1f77b4;" x="75.472927" xlink:href="#m8a3b2ab7df" y="80.933984"/>
     <use style="fill:#1f77b4;stroke:#1f77b4;" x="86.15615" xlink:href="#m8a3b2ab7df" y="80.953263"/>
     <use style="fill:#1f77b4;stroke:#1f77b4;" x="82.685453" xlink:href="#m8a3b2ab7df" y="83.51978"/>
     <use style="fill:#1f77b4;stroke:#1f77b4;" x="75.734336" xlink:href="#m8a3b2ab7df" y="85.344937"/>
     <use style="fill:#1f77b4;stroke:#1f77b4;" x="82.693734" xlink:href="#m8a3b2ab7df" y="86.337603"/>
     <use style="fill:#1f77b4;stroke:#1f77b4;" x="77.488228" xlink:href="#m8a3b2ab7df" y="90.37115"/>
     <use style="fill:#1f77b4;stroke:#1f77b4;" x="79.233839" xlink:href="#m8a3b2ab7df" y="92.579541"/>
     <use style="fill:#1f77b4;stroke:#1f77b4;" x="75.258686" xlink:href="#m8a3b2ab7df" y="92.572367"/>
     <use style="fill:#1f77b4;stroke:#1f77b4;" x="75.762782" xlink:href="#m8a3b2ab7df" y="95.023544"/>
     <use style="fill:#1f77b4;stroke:#1f77b4;" x="97.13715" xlink:href="#m8a3b2ab7df" y="97.757412"/>
     <use style="fill:#1f77b4;stroke:#1f77b4;" x="102.610907" xlink:href="#m8a3b2ab7df" y="100.462584"/>
     <use style="fill:#1f77b4;stroke:#1f77b4;" x="106.084845" xlink:href="#m8a3b2ab7df" y="98.998693"/>
     <use style="fill:#1f77b4;stroke:#1f77b4;" x="107.815693" xlink:href="#m8a3b2ab7df" y="96.184009"/>
     <use style="fill:#1f77b4;stroke:#1f77b4;" x="79.265885" xlink:href="#m8a3b2ab7df" y="103.483289"/>
     <use style="fill:#1f77b4;stroke:#1f77b4;" x="74.052818" xlink:href="#m8a3b2ab7df" y="104.944041"/>
     <use style="fill:#1f77b4;stroke:#1f77b4;" x="75.80635" xlink:href="#m8a3b2ab7df" y="109.847741"/>
     <use style="fill:#1f77b4;stroke:#1f77b4;" x="95.684635" xlink:href="#m8a3b2ab7df" y="110.741208"/>
     <use style="fill:#1f77b4;stroke:#1f77b4;" x="99.159294" xlink:href="#m8a3b2ab7df" y="109.522344"/>
     <use style="fill:#1f77b4;stroke:#1f77b4;" x="102.637552" xlink:href="#m8a3b2ab7df" y="109.528622"/>
     <use style="fill:#1f77b4;stroke:#1f77b4;" x="97.182519" xlink:href="#m8a3b2ab7df" y="113.194178"/>
     <use style="fill:#1f77b4;stroke:#1f77b4;" x="93.709301" xlink:href="#m8a3b2ab7df" y="114.903098"/>
     <use style="fill:#1f77b4;stroke:#1f77b4;" x="100.920027" xlink:href="#m8a3b2ab7df" y="116.876324"/>
     <use style="fill:#1f77b4;stroke:#1f77b4;" x="106.141016" xlink:href="#m8a3b2ab7df" y="118.11088"/>
     <use style="fill:#1f77b4;stroke:#1f77b4;" x="111.860339" xlink:href="#m8a3b2ab7df" y="119.836389"/>
     <use style="fill:#1f77b4;stroke:#1f77b4;" x="115.340759" xlink:href="#m8a3b2ab7df" y="120.57775"/>
     <use style="fill:#1f77b4;stroke:#1f77b4;" x="111.866101" xlink:href="#m8a3b2ab7df" y="121.796613"/>
     <use style="fill:#1f77b4;stroke:#1f77b4;" x="111.871862" xlink:href="#m8a3b2ab7df" y="123.756837"/>
     <use style="fill:#1f77b4;stroke:#1f77b4;" x="106.406386" xlink:href="#m8a3b2ab7df" y="123.869487"/>
     <use style="fill:#1f77b4;stroke:#1f77b4;" x="104.661136" xlink:href="#m8a3b2ab7df" y="121.78361"/>
     <use style="fill:#1f77b4;stroke:#1f77b4;" x="101.188998" xlink:href="#m8a3b2ab7df" y="123.860072"/>
     <use style="fill:#1f77b4;stroke:#1f77b4;" x="93.976472" xlink:href="#m8a3b2ab7df" y="121.274275"/>
     <use style="fill:#1f77b4;stroke:#1f77b4;" x="83.035079" xlink:href="#m8a3b2ab7df" y="117.946669"/>
     <use style="fill:#1f77b4;stroke:#1f77b4;" x="111.575526" xlink:href="#m8a3b2ab7df" y="107.462024"/>
     <use style="fill:#1f77b4;stroke:#1f77b4;" x="88.174693" xlink:href="#m8a3b2ab7df" y="91.493056"/>
     <use style="fill:#1f77b4;stroke:#1f77b4;" x="98.836672" xlink:href="#m8a3b2ab7df" y="84.284008"/>
     <use style="fill:#1f77b4;stroke:#1f77b4;" x="115.327076" xlink:href="#m8a3b2ab7df" y="115.922217"/>
     <use style="fill:#1f77b4;stroke:#1f77b4;" x="118.841342" xlink:href="#m8a3b2ab7df" y="128.179896"/>
     <use style="fill:#1f77b4;stroke:#1f77b4;" x="108.414847" xlink:href="#m8a3b2ab7df" y="130.978887"/>
     <use style="fill:#1f77b4;stroke:#1f77b4;" x="102.953692" xlink:href="#m8a3b2ab7df" y="132.561706"/>
     <use style="fill:#1f77b4;stroke:#1f77b4;" x="99.471113" xlink:href="#m8a3b2ab7df" y="131.085261"/>
     <use style="fill:#1f77b4;stroke:#1f77b4;" x="95.747647" xlink:href="#m8a3b2ab7df" y="132.181161"/>
     <use style="fill:#1f77b4;stroke:#1f77b4;" x="108.174681" xlink:href="#m8a3b2ab7df" y="133.796262"/>
     <use style="fill:#1f77b4;stroke:#1f77b4;" x="115.636375" xlink:href="#m8a3b2ab7df" y="136.627535"/>
     <use style="fill:#1f77b4;stroke:#1f77b4;" x="120.851963" xlink:href="#m8a3b2ab7df" y="136.02438"/>
     <use style="fill:#1f77b4;stroke:#1f77b4;" x="99.487316" xlink:href="#m8a3b2ab7df" y="136.598391"/>
     <use style="fill:#1f77b4;stroke:#1f77b4;" x="106.704883" xlink:href="#m8a3b2ab7df" y="140.899385"/>
     <use style="fill:#1f77b4;stroke:#1f77b4;" x="106.967373" xlink:href="#m8a3b2ab7df" y="145.67788"/>
     <use style="fill:#1f77b4;stroke:#1f77b4;" x="110.457514" xlink:href="#m8a3b2ab7df" y="149.727119"/>
     <use style="fill:#1f77b4;stroke:#1f77b4;" x="103.252549" xlink:href="#m8a3b2ab7df" y="149.714117"/>
     <use style="fill:#1f77b4;stroke:#1f77b4;" x="105.249127" xlink:href="#m8a3b2ab7df" y="152.780554"/>
     <use style="fill:#1f77b4;stroke:#1f77b4;" x="108.732067" xlink:href="#m8a3b2ab7df" y="154.379514"/>
     <use style="fill:#1f77b4;stroke:#1f77b4;" x="128.353984" xlink:href="#m8a3b2ab7df" y="152.577224"/>
     <use style="fill:#1f77b4;stroke:#1f77b4;" x="115.6659" xlink:href="#m8a3b2ab7df" y="146.673684"/>
     <use style="fill:#1f77b4;stroke:#1f77b4;" x="149.986522" xlink:href="#m8a3b2ab7df" y="158.619418"/>
     <use style="fill:#1f77b4;stroke:#1f77b4;" x="155.199229" xlink:href="#m8a3b2ab7df" y="157.036151"/>
     <use style="fill:#1f77b4;stroke:#1f77b4;" x="123.173683" xlink:href="#m8a3b2ab7df" y="165.186752"/>
     <use style="fill:#1f77b4;stroke:#1f77b4;" x="148.28736" xlink:href="#m8a3b2ab7df" y="172.215336"/>
     <use style="fill:#1f77b4;stroke:#1f77b4;" x="151.768859" xlink:href="#m8a3b2ab7df" y="173.324239"/>
     <use style="fill:#1f77b4;stroke:#1f77b4;" x="150.29438" xlink:href="#m8a3b2ab7df" y="178.83468"/>
     <use style="fill:#1f77b4;stroke:#1f77b4;" x="152.045392" xlink:href="#m8a3b2ab7df" y="182.880781"/>
     <use style="fill:#1f77b4;stroke:#1f77b4;" x="141.360008" xlink:href="#m8a3b2ab7df" y="182.126417"/>
     <use style="fill:#1f77b4;stroke:#1f77b4;" x="139.877967" xlink:href="#m8a3b2ab7df" y="185.064064"/>
     <use style="fill:#1f77b4;stroke:#1f77b4;" x="157.779838" xlink:href="#m8a3b2ab7df" y="189.751878"/>
     <use style="fill:#1f77b4;stroke:#1f77b4;" x="162.997586" xlink:href="#m8a3b2ab7df" y="189.883808"/>
     <use style="fill:#1f77b4;stroke:#1f77b4;" x="173.694853" xlink:href="#m8a3b2ab7df" y="194.681134"/>
     <use style="fill:#1f77b4;stroke:#1f77b4;" x="161.281141" xlink:href="#m8a3b2ab7df" y="197.599053"/>
     <use style="fill:#1f77b4;stroke:#1f77b4;" x="166.497089" xlink:href="#m8a3b2ab7df" y="197.118412"/>
     <use style="fill:#1f77b4;stroke:#1f77b4;" x="159.553174" xlink:href="#m8a3b2ab7df" y="201.393849"/>
     <use style="fill:#1f77b4;stroke:#1f77b4;" x="117.693444" xlink:href="#m8a3b2ab7df" y="160.276328"/>
     <use style="fill:#1f77b4;stroke:#1f77b4;" x="85.326193" xlink:href="#m8a3b2ab7df" y="136.695349"/>
     <use style="fill:#1f77b4;stroke:#1f77b4;" x="139.331023" xlink:href="#m8a3b2ab7df" y="168.033718"/>
     <use style="fill:#1f77b4;stroke:#1f77b4;" x="158.95078" xlink:href="#m8a3b2ab7df" y="165.496344"/>
     <use style="fill:#1f77b4;stroke:#1f77b4;" x="166.160786" xlink:href="#m8a3b2ab7df" y="167.224543"/>
     <use style="fill:#1f77b4;stroke:#1f77b4;" x="171.369532" xlink:href="#m8a3b2ab7df" y="164.293622"/>
     <use style="fill:#1f77b4;stroke:#1f77b4;" x="168.169606" xlink:href="#m8a3b2ab7df" y="174.456457"/>
     <use style="fill:#1f77b4;stroke:#1f77b4;" x="168.177888" xlink:href="#m8a3b2ab7df" y="177.274279"/>
     <use style="fill:#1f77b4;stroke:#1f77b4;" x="169.929259" xlink:href="#m8a3b2ab7df" y="181.442895"/>
     <use style="fill:#1f77b4;stroke:#1f77b4;" x="164.711871" xlink:href="#m8a3b2ab7df" y="181.433479"/>
     <use style="fill:#1f77b4;stroke:#1f77b4;" x="178.600782" xlink:href="#m8a3b2ab7df" y="173.250148"/>
     <use style="fill:#1f77b4;stroke:#1f77b4;" x="184.065177" xlink:href="#m8a3b2ab7df" y="172.769956"/>
     <use style="fill:#1f77b4;stroke:#1f77b4;" x="200.23404" xlink:href="#m8a3b2ab7df" y="179.53737"/>
     <use style="fill:#1f77b4;stroke:#1f77b4;" x="182.646508" xlink:href="#m8a3b2ab7df" y="197.27007"/>
     <use style="fill:#1f77b4;stroke:#1f77b4;" x="148.841505" xlink:href="#m8a3b2ab7df" y="191.695962"/>
     <use style="fill:#1f77b4;stroke:#1f77b4;" x="229.339794" xlink:href="#m8a3b2ab7df" y="192.331286"/>
     <use style="fill:#1f77b4;stroke:#1f77b4;" x="234.839115" xlink:href="#m8a3b2ab7df" y="203.734954"/>
     <use style="fill:#1f77b4;stroke:#1f77b4;" x="197.33153" xlink:href="#m8a3b2ab7df" y="206.36256"/>
     <use style="fill:#1f77b4;stroke:#1f77b4;" x="202.565842" xlink:href="#m8a3b2ab7df" y="212.130135"/>
     <use style="fill:#1f77b4;stroke:#1f77b4;" x="204.558099" xlink:href="#m8a3b2ab7df" y="213.726404"/>
     <use style="fill:#1f77b4;stroke:#1f77b4;" x="240.315393" xlink:href="#m8a3b2ab7df" y="207.297724"/>
     <use style="fill:#1f77b4;stroke:#1f77b4;" x="259.694264" xlink:href="#m8a3b2ab7df" y="207.332696"/>
     <use style="fill:#1f77b4;stroke:#1f77b4;" x="292.255592" xlink:href="#m8a3b2ab7df" y="212.414506"/>
     <use style="fill:#1f77b4;stroke:#1f77b4;" x="349.404177" xlink:href="#m8a3b2ab7df" y="214.477853"/>
     <use style="fill:#1f77b4;stroke:#1f77b4;" x="98.437413" xlink:href="#m8a3b2ab7df" y="103.347548"/>
     <use style="fill:#1f77b4;stroke:#1f77b4;" x="95.334418" xlink:href="#m8a3b2ab7df" y="127.074727"/>
     <use style="fill:#1f77b4;stroke:#1f77b4;" x="100.584472" xlink:href="#m8a3b2ab7df" y="125.786772"/>
     <use style="fill:#1f77b4;stroke:#1f77b4;" x="103.942888" xlink:href="#m8a3b2ab7df" y="134.8985"/>
     <use style="fill:#1f77b4;stroke:#1f77b4;" x="102.653135" xlink:href="#m8a3b2ab7df" y="138.146728"/>
     <use style="fill:#1f77b4;stroke:#1f77b4;" x="115.151096" xlink:href="#m8a3b2ab7df" y="138.826919"/>
     <use style="fill:#1f77b4;stroke:#1f77b4;" x="109.921273" xlink:href="#m8a3b2ab7df" y="142.715976"/>
     <use style="fill:#1f77b4;stroke:#1f77b4;" x="115.181443" xlink:href="#m8a3b2ab7df" y="142.728572"/>
     <use style="fill:#1f77b4;stroke:#1f77b4;" x="122.419234" xlink:href="#m8a3b2ab7df" y="143.396167"/>
     <use style="fill:#1f77b4;stroke:#1f77b4;" x="100.738737" xlink:href="#m8a3b2ab7df" y="145.620172"/>
     <use style="fill:#1f77b4;stroke:#1f77b4;" x="125.765005" xlink:href="#m8a3b2ab7df" y="150.882206"/>
     <use style="fill:#1f77b4;stroke:#1f77b4;" x="124.48031" xlink:href="#m8a3b2ab7df" y="154.78071"/>
     <use style="fill:#1f77b4;stroke:#1f77b4;" x="120.595877" xlink:href="#m8a3b2ab7df" y="162.574567"/>
     <use style="fill:#1f77b4;stroke:#1f77b4;" x="115.345823" xlink:href="#m8a3b2ab7df" y="163.862522"/>
     <use style="fill:#1f77b4;stroke:#1f77b4;" x="122.611433" xlink:href="#m8a3b2ab7df" y="168.106632"/>
     <use style="fill:#1f77b4;stroke:#1f77b4;" x="133.791822" xlink:href="#m8a3b2ab7df" y="168.458536"/>
     <use style="fill:#1f77b4;stroke:#1f77b4;" x="144.324806" xlink:href="#m8a3b2ab7df" y="170.109417"/>
     <use style="fill:#1f77b4;stroke:#1f77b4;" x="150.239968" xlink:href="#m8a3b2ab7df" y="169.79845"/>
     <use style="fill:#1f77b4;stroke:#1f77b4;" x="158.117578" xlink:href="#m8a3b2ab7df" y="168.191655"/>
     <use style="fill:#1f77b4;stroke:#1f77b4;" x="154.802153" xlink:href="#m8a3b2ab7df" y="164.607268"/>
     <use style="fill:#1f77b4;stroke:#1f77b4;" x="145.569038" xlink:href="#m8a3b2ab7df" y="161.00871"/>
     <use style="fill:#1f77b4;stroke:#1f77b4;" x="163.349929" xlink:href="#m8a3b2ab7df" y="164.627737"/>
     <use style="fill:#1f77b4;stroke:#1f77b4;" x="144.367798" xlink:href="#m8a3b2ab7df" y="175.636758"/>
     <use style="fill:#1f77b4;stroke:#1f77b4;" x="137.132535" xlink:href="#m8a3b2ab7df" y="175.2943"/>
     <use style="fill:#1f77b4;stroke:#1f77b4;" x="128.58476" xlink:href="#m8a3b2ab7df" y="175.273832"/>
     <use style="fill:#1f77b4;stroke:#1f77b4;" x="151.610647" xlink:href="#m8a3b2ab7df" y="176.954628"/>
     <use style="fill:#1f77b4;stroke:#1f77b4;" x="155.56589" xlink:href="#m8a3b2ab7df" y="178.264626"/>
     <use style="fill:#1f77b4;stroke:#1f77b4;" x="158.825677" xlink:href="#m8a3b2ab7df" y="174.695984"/>
     <use style="fill:#1f77b4;stroke:#1f77b4;" x="160.110373" xlink:href="#m8a3b2ab7df" y="170.797481"/>
     <use style="fill:#1f77b4;stroke:#1f77b4;" x="160.183712" xlink:href="#m8a3b2ab7df" y="180.226474"/>
     <use style="fill:#1f77b4;stroke:#1f77b4;" x="154.938716" xlink:href="#m8a3b2ab7df" y="182.164704"/>
     <use style="fill:#1f77b4;stroke:#1f77b4;" x="145.078426" xlink:href="#m8a3b2ab7df" y="182.466224"/>
     <use style="fill:#1f77b4;stroke:#1f77b4;" x="143.138739" xlink:href="#m8a3b2ab7df" y="186.68829"/>
     <use style="fill:#1f77b4;stroke:#1f77b4;" x="146.436461" xlink:href="#m8a3b2ab7df" y="187.996714"/>
     <use style="fill:#1f77b4;stroke:#1f77b4;" x="155.6367" xlink:href="#m8a3b2ab7df" y="187.368481"/>
     <use style="fill:#1f77b4;stroke:#1f77b4;" x="160.929745" xlink:href="#m8a3b2ab7df" y="191.607868"/>
     <use style="fill:#1f77b4;stroke:#1f77b4;" x="164.887517" xlink:href="#m8a3b2ab7df" y="193.243003"/>
     <use style="fill:#1f77b4;stroke:#1f77b4;" x="171.455142" xlink:href="#m8a3b2ab7df" y="192.283335"/>
     <use style="fill:#1f77b4;stroke:#1f77b4;" x="183.91264" xlink:href="#m8a3b2ab7df" y="187.761323"/>
     <use style="fill:#1f77b4;stroke:#1f77b4;" x="191.175721" xlink:href="#m8a3b2ab7df" y="191.680295"/>
     <use style="fill:#1f77b4;stroke:#1f77b4;" x="187.142081" xlink:href="#m8a3b2ab7df" y="180.291029"/>
     <use style="fill:#1f77b4;stroke:#1f77b4;" x="185.146757" xlink:href="#m8a3b2ab7df" y="177.360066"/>
     <use style="fill:#1f77b4;stroke:#1f77b4;" x="174.654236" xlink:href="#m8a3b2ab7df" y="180.911389"/>
     <use style="fill:#1f77b4;stroke:#1f77b4;" x="164.154128" xlink:href="#m8a3b2ab7df" y="183.487298"/>
     <use style="fill:#1f77b4;stroke:#1f77b4;" x="188.333206" xlink:href="#m8a3b2ab7df" y="164.362431"/>
     <use style="fill:#1f77b4;stroke:#1f77b4;" x="155.702452" xlink:href="#m8a3b2ab7df" y="195.822061"/>
     <use style="fill:#1f77b4;stroke:#1f77b4;" x="173.475756" xlink:href="#m8a3b2ab7df" y="198.465675"/>
     <use style="fill:#1f77b4;stroke:#1f77b4;" x="178.705578" xlink:href="#m8a3b2ab7df" y="194.576619"/>
     <use style="fill:#1f77b4;stroke:#1f77b4;" x="191.203539" xlink:href="#m8a3b2ab7df" y="195.25681"/>
     <use style="fill:#1f77b4;stroke:#1f77b4;" x="187.979156" xlink:href="#m8a3b2ab7df" y="203.37738"/>
     <use style="fill:#1f77b4;stroke:#1f77b4;" x="176.793709" xlink:href="#m8a3b2ab7df" y="202.3752"/>
     <use style="fill:#1f77b4;stroke:#1f77b4;" x="201.822506" xlink:href="#m8a3b2ab7df" y="207.962372"/>
     <use style="fill:#1f77b4;stroke:#1f77b4;" x="196.564866" xlink:href="#m8a3b2ab7df" y="208.274914"/>
     <use style="fill:#1f77b4;stroke:#1f77b4;" x="207.113023" xlink:href="#m8a3b2ab7df" y="211.876621"/>
     <use style="fill:#1f77b4;stroke:#1f77b4;" x="216.97837" xlink:href="#m8a3b2ab7df" y="212.225376"/>
     <use style="fill:#1f77b4;stroke:#1f77b4;" x="222.228424" xlink:href="#m8a3b2ab7df" y="210.937422"/>
     <use style="fill:#1f77b4;stroke:#1f77b4;" x="219.631215" xlink:href="#m8a3b2ab7df" y="215.157914"/>
     <use style="fill:#1f77b4;stroke:#1f77b4;" x="227.427899" xlink:href="#m8a3b2ab7df" y="203.146713"/>
     <use style="fill:#1f77b4;stroke:#1f77b4;" x="232.688069" xlink:href="#m8a3b2ab7df" y="203.159309"/>
     <use style="fill:#1f77b4;stroke:#1f77b4;" x="228.712595" xlink:href="#m8a3b2ab7df" y="199.24821"/>
     <use style="fill:#1f77b4;stroke:#1f77b4;" x="210.959522" xlink:href="#m8a3b2ab7df" y="199.205698"/>
     <use style="fill:#1f77b4;stroke:#1f77b4;" x="205.717055" xlink:href="#m8a3b2ab7df" y="201.469066"/>
     <use style="fill:#1f77b4;stroke:#1f77b4;" x="202.892243" xlink:href="#m8a3b2ab7df" y="176.427165"/>
     <use style="fill:#1f77b4;stroke:#1f77b4;" x="202.877069" xlink:href="#m8a3b2ab7df" y="174.476339"/>
     <use style="fill:#1f77b4;stroke:#1f77b4;" x="221.373646" xlink:href="#m8a3b2ab7df" y="185.575107"/>
     <use style="fill:#1f77b4;stroke:#1f77b4;" x="229.921422" xlink:href="#m8a3b2ab7df" y="185.595576"/>
     <use style="fill:#1f77b4;stroke:#1f77b4;" x="231.208646" xlink:href="#m8a3b2ab7df" y="182.02221"/>
     <use style="fill:#1f77b4;stroke:#1f77b4;" x="238.443909" xlink:href="#m8a3b2ab7df" y="182.364667"/>
     <use style="fill:#1f77b4;stroke:#1f77b4;" x="241.099283" xlink:href="#m8a3b2ab7df" y="185.622342"/>
     <use style="fill:#1f77b4;stroke:#1f77b4;" x="248.488809" xlink:href="#m8a3b2ab7df" y="205.798199"/>
     <use style="fill:#1f77b4;stroke:#1f77b4;" x="247.811057" xlink:href="#m8a3b2ab7df" y="203.195523"/>
     <use style="fill:#1f77b4;stroke:#1f77b4;" x="268.27514" xlink:href="#m8a3b2ab7df" y="213.648739"/>
     <use style="fill:#1f77b4;stroke:#1f77b4;" x="271.522283" xlink:href="#m8a3b2ab7df" y="208.454409"/>
     <use style="fill:#1f77b4;stroke:#1f77b4;" x="253.867839" xlink:href="#m8a3b2ab7df" y="221.092267"/>
     <use style="fill:#1f77b4;stroke:#1f77b4;" x="229.557256" xlink:href="#m8a3b2ab7df" y="223.309974"/>
     <use style="fill:#1f77b4;stroke:#1f77b4;" x="232.194928" xlink:href="#m8a3b2ab7df" y="224.291685"/>
     <use style="fill:#1f77b4;stroke:#1f77b4;" x="234.106797" xlink:href="#m8a3b2ab7df" y="216.493104"/>
     <use style="fill:#1f77b4;stroke:#1f77b4;" x="301.851713" xlink:href="#m8a3b2ab7df" y="219.25638"/>
     <use style="fill:#1f77b4;stroke:#1f77b4;" x="351.679176" xlink:href="#m8a3b2ab7df" y="200.843195"/>
     <use style="fill:#1f77b4;stroke:#1f77b4;" x="260.182571" xlink:href="#m8a3b2ab7df" y="187.61883"/>
    </g>
   </g>
   <g id="line2d_15">
    <path clip-path="url(#p198219cf4e)" d="M 69.218182 61.990075 
L 72.612572 70.263483 
L 76.006962 77.919687 
L 79.401352 85.029776 
L 82.795742 91.654006 
L 86.190132 97.843828 
L 89.584522 103.643457 
L 92.978912 109.091128 
L 97.504765 115.864051 
L 102.030618 122.137434 
L 106.556472 127.968189 
L 111.082325 133.40465 
L 115.608178 138.48815 
L 120.134032 143.254273 
L 124.659885 147.73383 
L 129.185738 151.953651 
L 134.843055 156.898669 
L 140.500372 161.514084 
L 146.157688 165.833973 
L 151.815005 169.887733 
L 157.472322 173.700871 
L 164.261102 177.990147 
L 171.049882 181.998138 
L 177.838662 185.753473 
L 184.627442 189.280912 
L 192.547685 193.136787 
L 200.467928 196.741246 
L 208.388172 200.119739 
L 217.439878 203.732299 
L 226.491585 207.106752 
L 236.674755 210.64859 
L 246.857925 213.949526 
L 258.172558 217.365458 
L 269.487192 220.544987 
L 281.933288 223.799557 
L 294.379385 226.827402 
L 307.956945 229.900567 
L 322.665968 232.989375 
L 337.374992 235.856362 
L 353.215478 238.723989 
L 370.187428 241.572182 
L 373.581818 242.116364 
L 373.581818 242.116364 
" style="fill:none;stroke:#ff7f0e;stroke-linecap:square;stroke-width:1.5;"/>
   </g>
   <g id="patch_3">
    <path d="M 54 252 
L 54 34.56 
" style="fill:none;stroke:#000000;stroke-linecap:square;stroke-linejoin:miter;stroke-width:0.8;"/>
   </g>
   <g id="patch_4">
    <path d="M 388.8 252 
L 388.8 34.56 
" style="fill:none;stroke:#000000;stroke-linecap:square;stroke-linejoin:miter;stroke-width:0.8;"/>
   </g>
   <g id="patch_5">
    <path d="M 54 252 
L 388.8 252 
" style="fill:none;stroke:#000000;stroke-linecap:square;stroke-linejoin:miter;stroke-width:0.8;"/>
   </g>
   <g id="patch_6">
    <path d="M 54 34.56 
L 388.8 34.56 
" style="fill:none;stroke:#000000;stroke-linecap:square;stroke-linejoin:miter;stroke-width:0.8;"/>
   </g>
  </g>
 </g>
 <defs>
  <clipPath id="p198219cf4e">
   <rect height="217.44" width="334.8" x="54" y="34.56"/>
  </clipPath>
 </defs>
</svg>
